<svg width="55" height="55" viewBox="0 0 55 55" fill="none" xmlns="http://www.w3.org/2000/svg">
<mask id="mask0_34714_7829" style="mask-type:alpha" maskUnits="userSpaceOnUse" x="-1" y="0" width="56" height="55">
<circle cx="27" cy="27.5" r="27.5" fill="#303030"/>
</mask>
<g mask="url(#mask0_34714_7829)">
<path d="M34.972 39.4201L35.3364 34.385C32.6125 34.3898 31.1664 34.7544 29.263 35.4902C28.7157 35.5516 28.2054 35.7895 27.8054 36.1043V39.6657C28.3282 40.7182 28.7498 41.2417 29.841 41.999C30.8263 41.0462 31.9453 40.2616 34.972 39.4201Z" fill="#F9FAFB"/>
<path d="M27.8054 29.9639V33.771C28.1394 34.6474 28.472 34.9996 29.263 35.4902C31.1664 34.7544 32.6125 34.3898 35.3364 34.385C35.3634 32.7464 35.1398 31.8883 34.3647 30.578C32.7628 29.2373 31.3256 29.3114 28.8986 29.2339C28.1203 29.5485 27.9016 29.7092 27.8054 29.9639Z" fill="#F9FAFB"/>
<path d="M20.6736 34.5078C23.0573 34.5244 24.5315 34.7349 26.4693 35.4902C27.1441 34.9316 27.4903 34.6439 27.8054 33.771V29.9639C27.5685 29.6268 27.3281 29.4061 26.8337 29.2339C26.5608 29.1388 26.2104 29.0585 25.7405 28.9815C22.6899 29.3204 21.5661 29.9277 20.7351 31.806C20.677 32.605 20.6555 33.4866 20.6736 34.5078Z" fill="#F9FAFB"/>
<path d="M29.7617 24.5604C28.329 25.1449 28.0781 26.2576 27.8054 28.4902C28.0573 28.9191 28.219 29.1433 28.8986 29.2339C31.3256 29.3114 32.7628 29.2373 34.3647 30.578C34.8601 29.2067 34.7547 28.3631 34.3647 26.8189C32.464 26.4084 30.872 25.4292 29.7617 24.5604Z" fill="#F9FAFB"/>
<path d="M17.4807 37.578C18.4417 38.613 19.0568 39.1709 21.0032 39.9113C20.8063 37.7136 20.6994 35.968 20.6736 34.5078C20.6555 33.4866 20.677 32.605 20.7351 31.806C20.8624 30.0573 21.1649 28.7046 21.6106 27.1503C20.947 27.3355 20.247 27.4344 19.4808 27.4344C16.4809 28.8364 16.5747 30.7341 16.1862 33.771C16.7031 34.8619 17.1115 36.0341 17.4807 37.578Z" fill="#B0B0B0"/>
<path d="M16.5089 27.0166C15.8997 26.6779 15.3964 26.3659 14.9717 26.0341C14.9007 27.9457 14.6588 28.8188 13.8367 29.8411C14.8387 31.3454 15.5856 32.5034 16.1862 33.771C16.5747 30.7341 16.4809 28.8364 19.4808 27.4344C18.5941 27.4343 17.6188 27.3016 16.5089 27.0166Z" fill="#B0B0B0"/>
<path d="M9.57018 34.999C8.68942 36.525 7.31455 37.9439 5.21963 39.4201C5.2293 40.6551 5.06101 41.8056 4.70283 42.9815C7.09556 42.3163 8.63593 41.584 9.57018 40.6675C11.0418 39.2239 11.0094 37.3233 10.4356 34.5078V34.314C10.1689 34.5356 9.88218 34.7614 9.57018 34.999Z" fill="#B0B0B0"/>
<path d="M4.70283 42.9815C4.25125 44.464 3.49785 45.987 2.41872 47.771L4.11927 49.9815C5.81981 46.1745 9.20772 45.4857 9.57018 40.6675C8.63593 41.584 7.09556 42.3163 4.70283 42.9815Z" fill="#B0B0B0"/>
<path d="M4.3622 34.1394C1.73883 35.4201 0.0711045 40.2514 0.596712 41.2622C0.817127 43.8072 1.37118 45.232 2.41872 47.771C3.49785 45.987 4.25125 44.464 4.70283 42.9815C5.06101 41.8056 5.2293 40.6551 5.21963 39.4201C5.20746 37.8666 4.91374 36.1794 4.3622 34.1394Z" fill="#B0B0B0"/>
<path d="M17.4807 37.578C16.5774 40.4623 16.4987 42.2622 17.1163 45.6832L18.5739 47.5877L19.1812 48.3812L20.406 49.9815L25.0117 55.999H30.7206L35.2149 50.0519L36.6725 48.1231L37.4013 47.1587L38.9804 45.0692C39.2942 41.6761 39.203 39.8672 37.7658 37.0867L34.972 39.4201C33.1651 48.619 31.765 52.3396 27.8054 53.5429C23.886 51.6192 22.5263 48.2916 21.0032 39.9113C19.0568 39.1709 18.4417 38.613 17.4807 37.578Z" fill="#B0B0B0"/>
<path d="M27.8054 53.5429V43.9639C27.3267 42.9101 26.7999 42.1849 26.0965 41.8592C24.7982 40.7062 23.2986 40.2883 21.0032 39.9113C22.5263 48.2916 23.886 51.6192 27.8054 53.5429Z" fill="#F9FAFB"/>
<path d="M27.8054 53.5429C31.765 52.3396 33.1651 48.619 34.972 39.4201C31.9453 40.2616 30.8263 41.0462 29.841 41.999C29.0094 42.2112 28.473 42.8787 27.8054 43.9639V53.5429Z" fill="#F9FAFB"/>
<path d="M26.0965 41.8592C26.7999 42.1849 27.3267 42.9101 27.8054 43.9639C28.473 42.8787 29.0094 42.2112 29.841 41.999C28.7498 41.2417 28.3282 40.7182 27.8054 39.6657C27.8054 40.771 26.7122 41.5078 26.0965 41.8592Z" fill="#B0B0B0"/>
<path d="M34.972 39.4201L37.7658 37.0867L37.8515 36.9825C38.5943 36.0796 39.2179 35.3217 39.7765 34.5078C39.7081 30.7497 38.8486 29.1615 36.1867 27.0166C35.5539 27.0166 34.9449 26.9442 34.3647 26.8189C34.7547 28.3631 34.8601 29.2067 34.3647 30.578C35.1398 31.8883 35.3634 32.7464 35.3364 34.385L34.972 39.4201Z" fill="#B0B0B0"/>
<path d="M26.4693 35.4902C26.8929 35.4957 27.3362 35.7324 27.8054 36.1043C28.2054 35.7895 28.7157 35.5516 29.263 35.4902C28.472 34.9996 28.1394 34.6474 27.8054 33.771C27.4903 34.6439 27.1441 34.9316 26.4693 35.4902Z" fill="#B0B0B0"/>
<path d="M28.0484 22.9639C27.3523 23.538 26.7097 24.0737 26.0965 24.5604C27.5283 25.3798 27.6127 26.5108 27.8054 28.4902C28.0781 26.2576 28.329 25.1449 29.7617 24.5604C28.6737 23.7091 28.0484 22.9639 28.0484 22.9639Z" fill="#F9FAFB"/>
<path d="M27.8054 28.4902C27.6127 26.5108 27.5283 25.3798 26.0965 24.5604C24.5436 25.7932 23.1789 26.7126 21.6106 27.1503C21.1649 28.7046 20.8624 30.0573 20.7351 31.806C21.5661 29.9277 22.6899 29.3204 25.7405 28.9815C26.2104 29.0585 26.5608 29.1388 26.8337 29.2339C27.4548 29.0687 27.63 28.8863 27.8054 28.4902Z" fill="#F9FAFB"/>
<path d="M18.2095 15.2271C22.6113 14.9591 25.9144 13.4769 28.0484 16.8236C29.4123 14.5769 30.6977 13.7298 37.4013 15.7183C38.2872 14.4509 39.1712 13.9467 41.6527 13.5078C38.0935 10.9151 36.1125 9.57181 32.5881 7.24464L32.6641 8.84113C30.7028 12.3241 29.7174 12.8195 27.9269 14.1218C25.2972 13.031 24.4523 11.0863 22.9467 7.61306C20.1935 9.57797 14.6141 13.5078 14.3225 13.5078C15.8459 13.6781 16.698 13.9609 18.2095 15.2271Z" fill="#B0B0B0"/>
<path d="M29.506 7.70276C29.1239 10.6481 28.7532 12.2128 27.9269 14.1218C29.7174 12.8195 30.7028 12.3241 32.6641 8.84113L32.5881 7.24464L32.4362 4.05165C32.1119 5.19678 31.3553 6.91832 29.6543 7.64306C29.6056 7.66379 29.5562 7.6837 29.506 7.70276Z" fill="#B0B0B0"/>
<path d="M28.0484 7.98148C27.3556 8.00208 26.7517 7.87409 26.2263 7.64679C26.3729 10.648 26.6972 12.1097 27.9269 14.1218C28.7532 12.2128 29.1239 10.6481 29.506 7.70276C29.4966 7.70633 29.4871 7.70987 29.4777 7.71338C29.0579 7.86915 28.5837 7.96556 28.0484 7.98148Z" fill="#B0B0B0"/>
<path d="M22.9468 2.94639L22.9467 7.61306C24.4523 11.0863 25.2972 13.031 27.9269 14.1218C26.6972 12.1097 26.3729 10.648 26.2263 7.64679C23.6198 6.51901 22.9468 2.94639 22.9468 2.94639Z" fill="#B0B0B0"/>
<path d="M22.9468 2.20955V2.94639C22.9468 2.94639 23.6198 6.51901 26.2263 7.64679C26.7517 7.87409 27.3556 8.00208 28.0484 7.98148C28.5837 7.96556 29.0579 7.86915 29.4777 7.71338C29.4871 7.70987 29.4966 7.70633 29.506 7.70276L29.6543 7.64306C31.3553 6.91832 32.1119 5.19678 32.4362 4.05165C32.6185 3.40796 32.6641 2.94639 32.6641 2.94639V2.20955C33.9727 2.22198 34.6027 2.00663 34.972 -0.000976562H21.1247C21.1321 1.52086 21.3972 2.12536 22.9468 2.20955Z" fill="#B0B0B0"/>
<path d="M42.8674 23.4552C42.8674 23.4552 40.9239 27.0166 36.1867 27.0166C38.8486 29.1615 39.7081 30.7497 39.7765 34.5078C40.7 33.1622 41.4461 31.6637 42.26 29.1043L42.8674 23.4552Z" fill="#B0B0B0"/>
<path d="M46.3899 41.2622C46.7443 44.9825 51.1272 47.1569 52.2204 50.2271C52.8182 49.5311 53.3512 48.9642 53.8075 48.385C53.0316 46.2112 52.3154 45.102 50.7628 43.2271C49.1853 41.9785 48.2181 41.5799 46.3899 41.2622Z" fill="#B0B0B0"/>
<path d="M55.5 43.9639C54.8128 39.5268 54.378 37.099 51.613 35.1218C51.6675 35.9574 50.8539 38.5259 50.3984 39.2973C50.6801 40.9512 50.7424 41.762 50.7628 43.2271C52.3154 45.102 53.0316 46.2112 53.8075 48.385C54.677 47.2816 55.2685 46.1337 55.5 43.9639Z" fill="#B0B0B0"/>
<path d="M45.7826 35.1218C44.9755 37.0072 44.839 38.2193 46.3899 41.2622C48.2181 41.5799 49.1853 41.9785 50.7628 43.2271C50.7424 41.762 50.6801 40.9512 50.3984 39.2973C48.4337 37.8636 47.1551 36.4699 46.3146 34.9843L45.7826 35.1218Z" fill="#B0B0B0"/>
<path d="M17.1163 45.6832C15.278 46.1609 15.532 48.1159 15.7801 51.3324L18.5739 47.5877L17.1163 45.6832Z" fill="#B0B0B0"/>
<path d="M18.5739 47.5877L15.7801 51.3324C14.8777 52.9506 14.5276 53.921 14.444 55.8762H15.4157C17.1706 53.6238 17.9452 51.8647 19.1812 48.3812L18.5739 47.5877Z" fill="#B0B0B0"/>
<path d="M19.1812 48.3812C17.9452 51.8647 17.1706 53.6238 15.4157 55.8762L20.5174 55.999C20.0906 53.4433 20.1133 52.1535 20.406 49.9815L19.1812 48.3812Z" fill="#B0B0B0"/>
<path d="M25.0117 55.999L20.406 49.9815C20.1133 52.1535 20.0906 53.4433 20.5174 55.999H25.0117Z" fill="#B0B0B0"/>
<path d="M35.2149 50.0519L30.7206 55.999H35.2149V50.0519Z" fill="#B0B0B0"/>
<path d="M35.2149 50.0519V55.999H40.1951C38.0295 53.5253 37.6673 51.544 36.6725 48.1231L35.2149 50.0519Z" fill="#B0B0B0"/>
<path d="M36.6725 48.1231C37.6673 51.544 38.0295 53.5253 40.1951 55.999H41.4098C40.8562 54.155 40.315 52.7308 39.5857 51.2095C39.0085 50.0055 38.3135 48.7407 37.4013 47.1587L36.6725 48.1231Z" fill="#B0B0B0"/>
<path d="M38.9804 45.0692L37.4013 47.1587C38.3135 48.7407 39.0085 50.0055 39.5857 51.2095C40.4374 48.6028 40.0665 47.304 38.9804 45.0692Z" fill="#B0B0B0"/>
<path d="M21.0032 39.9113C23.2986 40.2883 24.7982 40.7062 26.0965 41.8592C26.7122 41.5078 27.8054 40.771 27.8054 39.6657V36.1043C27.3362 35.7324 26.8929 35.4957 26.4693 35.4902C24.5315 34.7349 23.0573 34.5244 20.6736 34.5078C20.6994 35.968 20.8063 37.7136 21.0032 39.9113Z" fill="#F9FAFB"/>
<path d="M42.8674 23.4552L42.26 29.1043C43.011 31.6 43.4861 32.9871 45.7826 35.1218L46.3146 34.9843C44.7268 32.178 44.702 29.0438 44.5679 24.6922C44.0063 24.3603 43.469 23.9627 42.8674 23.4552Z" fill="#B0B0B0"/>
<path d="M51.613 35.1218C51.0685 31.1486 50.7348 28.9355 48.0905 26.0341C46.5534 25.6326 45.5254 25.2581 44.5679 24.6922C44.702 29.0438 44.7268 32.178 46.3146 34.9843C47.1551 36.4699 48.4337 37.8636 50.3984 39.2973C50.8539 38.5259 51.6675 35.9574 51.613 35.1218Z" fill="#B0B0B0"/>
<path d="M7.64182 26.0341C4.67097 28.4593 4.85789 30.6304 4.3622 34.1394C4.91374 36.1794 5.20746 37.8666 5.21963 39.4201C7.31455 37.9439 8.68942 36.525 9.57018 34.999C11.1793 32.211 11.1391 29.0656 10.8274 24.5604C9.79654 25.186 8.89284 25.5201 7.64182 26.0341Z" fill="#B0B0B0"/>
<path d="M12.9864 22.9639C12.1448 23.6798 11.462 24.1753 10.8274 24.5604C11.1391 29.0656 11.1793 32.211 9.57018 34.999C9.88218 34.7614 10.1689 34.5356 10.4356 34.314C11.8927 33.1028 12.7486 32.0183 13.8367 29.8411C14.6588 28.8188 14.9007 27.9457 14.9717 26.0341C14.0164 25.2877 13.4586 24.4408 12.9864 22.9639Z" fill="#B0B0B0"/>
<path d="M28.0484 16.8236V22.9639C28.0484 22.9639 28.6737 23.7091 29.7617 24.5604C30.872 25.4292 32.464 26.4084 34.3647 26.8189C34.9449 26.9442 35.5539 27.0166 36.1867 27.0166C40.9239 27.0166 42.8674 23.4552 42.8674 23.4552C39.5603 20.6382 38.6546 18.8931 37.4013 15.7183C30.6977 13.7298 29.4123 14.5769 28.0484 16.8236Z" fill="#B0B0B0"/>
<path d="M28.0484 22.9639V16.8236C25.9144 13.4769 22.6113 14.9591 18.2095 15.2271C16.8317 20.2922 15.4124 21.135 12.9864 22.9639C13.4586 24.4408 14.0164 25.2877 14.9717 26.0341C15.3964 26.3659 15.8997 26.6779 16.5089 27.0166C17.6188 27.3016 18.5941 27.4343 19.4808 27.4344C20.247 27.4344 20.947 27.3355 21.6106 27.1503C23.1789 26.7126 24.5436 25.7932 26.0965 24.5604C26.7097 24.0737 27.3523 23.538 28.0484 22.9639Z" fill="#B0B0B0"/>
<path d="M12.9864 22.9639C15.4124 21.135 16.8317 20.2922 18.2095 15.2271C16.698 13.9609 15.8459 13.6781 14.3225 13.5078C14.3225 13.5078 10.8 13.6306 8.37063 15.7183C5.94128 17.806 7.64182 26.0341 7.64182 26.0341C8.89284 25.5201 9.79654 25.186 10.8274 24.5604C11.462 24.1753 12.1448 23.6798 12.9864 22.9639Z" fill="#B0B0B0"/>
<path d="M37.4013 15.7183C38.6546 18.8931 39.5603 20.6382 42.8674 23.4552C43.469 23.9627 44.0063 24.3603 44.5679 24.6922C45.5254 25.2581 46.5534 25.6326 48.0905 26.0341C48.0905 26.0341 49.791 19.771 48.0905 16.8236C46.3899 13.8762 44.1463 14.6534 41.6527 13.5078C39.1712 13.9467 38.2872 14.4509 37.4013 15.7183Z" fill="#B0B0B0"/>
<path d="M28.0484 16.8236V22.9639M28.0484 16.8236C25.9144 13.4769 22.6113 14.9591 18.2095 15.2271M28.0484 16.8236C29.4123 14.5769 30.6977 13.7298 37.4013 15.7183M28.0484 22.9639C27.3523 23.538 26.7097 24.0737 26.0965 24.5604M28.0484 22.9639C28.0484 22.9639 28.6737 23.7091 29.7617 24.5604M12.9864 22.9639C15.4124 21.135 16.8317 20.2922 18.2095 15.2271M12.9864 22.9639C12.1448 23.6798 11.462 24.1753 10.8274 24.5604M12.9864 22.9639C13.4586 24.4408 14.0164 25.2877 14.9717 26.0341M18.2095 15.2271C16.698 13.9609 15.8459 13.6781 14.3225 13.5078M37.4013 15.7183C38.6546 18.8931 39.5603 20.6382 42.8674 23.4552M37.4013 15.7183C38.2872 14.4509 39.1712 13.9467 41.6527 13.5078M42.8674 23.4552C42.8674 23.4552 40.9239 27.0166 36.1867 27.0166M42.8674 23.4552L42.26 29.1043M42.8674 23.4552C43.469 23.9627 44.0063 24.3603 44.5679 24.6922M36.1867 27.0166C35.5539 27.0166 34.9449 26.9442 34.3647 26.8189M36.1867 27.0166C38.8486 29.1615 39.7081 30.7497 39.7765 34.5078M26.0965 24.5604C27.5283 25.3798 27.6127 26.5108 27.8054 28.4902M26.0965 24.5604C24.5436 25.7932 23.1789 26.7126 21.6106 27.1503M27.8054 28.4902C28.0781 26.2576 28.329 25.1449 29.7617 24.5604M27.8054 28.4902C27.63 28.8863 27.4548 29.0687 26.8337 29.2339M27.8054 28.4902C28.0573 28.9191 28.219 29.1433 28.8986 29.2339M29.7617 24.5604C30.872 25.4292 32.464 26.4084 34.3647 26.8189M13.8367 29.8411C14.6588 28.8188 14.9007 27.9457 14.9717 26.0341M13.8367 29.8411C14.8387 31.3454 15.5856 32.5034 16.1862 33.771M13.8367 29.8411C12.7486 32.0183 11.8927 33.1028 10.4356 34.314M17.4807 37.578C16.5774 40.4623 16.4987 42.2622 17.1163 45.6832M17.4807 37.578C18.4417 38.613 19.0568 39.1709 21.0032 39.9113M17.4807 37.578C17.1115 36.0341 16.7031 34.8619 16.1862 33.771M17.1163 45.6832C15.278 46.1609 15.532 48.1159 15.7801 51.3324M17.1163 45.6832L18.5739 47.5877M25.0117 55.999H30.7206M25.0117 55.999L20.406 49.9815M25.0117 55.999H20.5174M30.7206 55.999L35.2149 50.0519M30.7206 55.999H35.2149M38.9804 45.0692C39.2942 41.6761 39.203 39.8672 37.7658 37.0867M38.9804 45.0692L37.4013 47.1587M38.9804 45.0692C40.0665 47.304 40.4374 48.6028 39.5857 51.2095M37.7658 37.0867L34.972 39.4201M37.7658 37.0867L37.8515 36.9825M37.7658 37.0867C37.7945 37.0518 37.8231 37.017 37.8515 36.9825M42.26 29.1043C43.011 31.6 43.4861 32.9871 45.7826 35.1218M42.26 29.1043C41.4461 31.6637 40.7 33.1622 39.7765 34.5078M45.7826 35.1218C44.9755 37.0072 44.839 38.2193 46.3899 41.2622M45.7826 35.1218L46.3146 34.9843M46.3899 41.2622C46.7443 44.9825 51.1272 47.1569 52.2204 50.2271C52.8182 49.5311 53.3512 48.9642 53.8075 48.385M46.3899 41.2622C48.2181 41.5799 49.1853 41.9785 50.7628 43.2271M51.613 35.1218C54.378 37.099 54.8128 39.5268 55.5 43.9639C55.2685 46.1337 54.677 47.2816 53.8075 48.385M51.613 35.1218C51.0685 31.1486 50.7348 28.9355 48.0905 26.0341M51.613 35.1218C51.6675 35.9574 50.8539 38.5259 50.3984 39.2973M48.0905 26.0341C48.0905 26.0341 49.791 19.771 48.0905 16.8236C46.3899 13.8762 44.1463 14.6534 41.6527 13.5078M48.0905 26.0341C46.5534 25.6326 45.5254 25.2581 44.5679 24.6922M41.6527 13.5078C38.0935 10.9151 36.1125 9.57181 32.5881 7.24464M44.5679 24.6922C44.702 29.0438 44.7268 32.178 46.3146 34.9843M50.3984 39.2973C48.4337 37.8636 47.1551 36.4699 46.3146 34.9843M50.3984 39.2973C50.6801 40.9512 50.7424 41.762 50.7628 43.2271M50.7628 43.2271C52.3154 45.102 53.0316 46.2112 53.8075 48.385M4.3622 34.1394C1.73883 35.4201 0.0711045 40.2514 0.596712 41.2622C0.817127 43.8072 1.37118 45.232 2.41872 47.7709M4.3622 34.1394C4.85789 30.6304 4.67097 28.4593 7.64182 26.0341M4.3622 34.1394C4.91374 36.1794 5.20746 37.8667 5.21963 39.4201M7.64182 26.0341C7.64182 26.0341 5.94128 17.806 8.37063 15.7183C10.8 13.6306 14.3225 13.5078 14.3225 13.5078M7.64182 26.0341C8.89284 25.5201 9.79654 25.186 10.8274 24.5604M14.3225 13.5078C14.6141 13.5078 20.1935 9.57797 22.9467 7.61306M22.9467 7.61306L22.9468 2.94639M22.9467 7.61306C24.4523 11.0863 25.2972 13.031 27.9269 14.1218M2.41872 47.7709C3.49785 45.987 4.25125 44.464 4.70283 42.9815M2.41872 47.7709L4.11927 49.9815C5.81981 46.1745 9.20772 45.4857 9.57017 40.6675M10.8274 24.5604C11.1391 29.0656 11.1793 32.211 9.57017 34.999M5.21963 39.4201C7.31455 37.9439 8.68942 36.525 9.57017 34.999M5.21963 39.4201C5.2293 40.6551 5.06101 41.8056 4.70283 42.9815M14.9717 26.0341C15.3964 26.3659 15.8997 26.6779 16.5089 27.0166C17.6188 27.3016 18.5941 27.4343 19.4808 27.4344M9.57017 34.999C9.88218 34.7614 10.1689 34.5356 10.4356 34.314M4.70283 42.9815C7.09556 42.3163 8.63593 41.584 9.57017 40.6675M9.57017 40.6675C11.0418 39.2239 11.0094 37.3233 10.4356 34.5078V34.314M22.9468 2.94639V2.20955C21.3972 2.12536 21.1321 1.52086 21.1247 -0.000976562H34.972C34.6027 2.00663 33.9727 2.22198 32.6641 2.20955M22.9468 2.94639C22.9468 2.94639 23.6198 6.51901 26.2263 7.64679M32.6641 2.94639C32.6641 2.7499 32.6641 2.37329 32.6641 2.20955M32.6641 2.94639C32.6641 2.94639 32.6185 3.40796 32.4362 4.05165M32.6641 2.94639V2.20955M26.2263 7.64679C26.7517 7.87409 27.3556 8.00208 28.0484 7.98148C28.5837 7.96556 29.0579 7.86915 29.4777 7.71338M26.2263 7.64679C26.3729 10.648 26.6972 12.1097 27.9269 14.1218M27.9269 14.1218C28.7532 12.2128 29.1239 10.6481 29.506 7.70276M27.9269 14.1218C29.7174 12.8195 30.7028 12.3241 32.6641 8.84113L32.5881 7.24464M29.506 7.70276L29.6543 7.64306M29.506 7.70276C29.5562 7.6837 29.6056 7.66379 29.6543 7.64306M29.506 7.70276C29.4966 7.70633 29.4871 7.70987 29.4777 7.71338M32.4362 4.05165L32.5881 7.24464M32.4362 4.05165C32.1119 5.19678 31.3553 6.91832 29.6543 7.64306M15.7801 51.3324L18.5739 47.5877M15.7801 51.3324C14.8777 52.9507 14.5276 53.921 14.444 55.8762H15.4157M18.5739 47.5877L19.1812 48.3812M19.1812 48.3812C17.9452 51.8647 17.1706 53.6238 15.4157 55.8762M19.1812 48.3812L20.406 49.9815M15.4157 55.8762L20.5174 55.999M20.406 49.9815C20.1133 52.1535 20.0906 53.4433 20.5174 55.999M35.2149 50.0519V55.999M35.2149 50.0519L36.6725 48.1231M35.2149 55.999H40.1951M36.6725 48.1231C37.6673 51.544 38.0295 53.5253 40.1951 55.999M36.6725 48.1231L37.4013 47.1587M40.1951 55.999H41.4098C40.8562 54.155 40.315 52.7308 39.5857 51.2095M37.4013 47.1587C38.3135 48.7407 39.0085 50.0055 39.5857 51.2095M21.0032 39.9113C22.5263 48.2916 23.886 51.6192 27.8054 53.5429M21.0032 39.9113C23.2986 40.2883 24.7982 40.7062 26.0965 41.8592M21.0032 39.9113C20.8063 37.7136 20.6994 35.968 20.6736 34.5078M16.1862 33.771C16.5747 30.7341 16.4809 28.8364 19.4808 27.4344M19.4808 27.4344C20.247 27.4344 20.947 27.3355 21.6106 27.1503M21.6106 27.1503C21.1649 28.7046 20.8624 30.0573 20.7351 31.806M27.8054 43.9639V53.5429M27.8054 43.9639C27.3267 42.9101 26.7999 42.1849 26.0965 41.8592M27.8054 43.9639C28.473 42.8787 29.0094 42.2112 29.841 41.999M34.972 39.4201C33.1651 48.619 31.765 52.3396 27.8054 53.5429M34.972 39.4201L35.3364 34.385M34.972 39.4201C31.9453 40.2616 30.8263 41.0462 29.841 41.999M26.0965 41.8592C26.7122 41.5078 27.8054 40.7709 27.8054 39.6657M27.8054 36.1043C27.8054 37.7008 27.8054 38.5604 27.8054 39.6657M27.8054 36.1043C27.3362 35.7324 26.8929 35.4957 26.4693 35.4902M27.8054 36.1043C28.2054 35.7895 28.7157 35.5516 29.263 35.4902M27.8054 36.1043V39.6657M20.6736 34.5078C23.0573 34.5244 24.5315 34.7349 26.4693 35.4902M20.6736 34.5078C20.6555 33.4866 20.677 32.605 20.7351 31.806M35.3364 34.385C35.3634 32.7464 35.1398 31.8883 34.3647 30.578M35.3364 34.385C32.6125 34.3898 31.1664 34.7544 29.263 35.4902M27.8054 39.6657C28.3282 40.7182 28.7498 41.2417 29.841 41.999M26.4693 35.4902C27.1441 34.9316 27.4903 34.6439 27.8054 33.771M27.8054 33.771V29.9639M27.8054 33.771C28.1394 34.6474 28.472 34.9996 29.263 35.4902M27.8054 29.9639C27.5685 29.6268 27.3281 29.4061 26.8337 29.2339M27.8054 29.9639C27.9016 29.7092 28.1203 29.5485 28.8986 29.2339M20.7351 31.806C21.5661 29.9277 22.6899 29.3204 25.7405 28.9815C26.2104 29.0585 26.5608 29.1388 26.8337 29.2339M28.8986 29.2339C31.3256 29.3114 32.7628 29.2373 34.3647 30.578M34.3647 30.578C34.8601 29.2067 34.7547 28.3631 34.3647 26.8189M39.7765 34.5078C39.2179 35.3217 38.5943 36.0796 37.8515 36.9825M29.6543 7.64306C29.5965 7.66767 29.5376 7.69113 29.4777 7.71338" stroke="#1E1E1E"/>
</g>
</svg>
