<svg width="48" height="55" viewBox="0 0 48 55" fill="none" xmlns="http://www.w3.org/2000/svg">
<mask id="mask0_34714_7836" style="mask-type:alpha" maskUnits="userSpaceOnUse" x="-4" y="0" width="55" height="55">
<circle cx="23.5" cy="27.5" r="27.5" fill="#303030"/>
</mask>
<g mask="url(#mask0_34714_7836)">
<path d="M11.0652 -5.51619L11.0576 -5.60181C11.0576 -5.60181 16.4732 -0.357203 17.7304 0.905388C18.9876 2.16798 21.2118 7.60684 21.2118 7.60684C17.0866 5.91129 14.8051 6.02502 10.7674 7.12123C11.7371 1.99389 11.4942 -0.720892 11.0652 -5.51619Z" fill="#B0B0B0"/>
<path d="M23.8229 -15.8968C19.4968 -10.4911 18.929 -7.07966 16.7633 -1.2313C19.631 1.78809 20.5389 3.98264 21.8888 8.09245C23.0371 8.76306 23.5294 9.63328 24.4032 11.2004V-15.3141L23.8229 -15.8968Z" fill="#B0B0B0"/>
<path d="M12.0033 -14.8394L14.6859 -16.8469C16.183 -17.9968 14.9952 -17.9771 20.0512 -18.8545C25.1072 -19.7318 23.4361 -16.3824 23.4361 -16.3824C19.6597 -11.9135 17.9465 -10.8749 15.3127 -10.5551C12.8412 -10.9567 11.6881 -11.607 9.9938 -13.3716L12.0033 -14.8394Z" fill="#B0B0B0"/>
<path d="M25.9505 -15.8968L24.9834 -15.0227V11.2004C25.6685 9.63915 26.1957 8.89606 27.4978 7.89821C28.443 2.61964 29.8432 0.40056 33.5903 -2.4939L25.9505 -15.8968Z" fill="#B0B0B0"/>
<path d="M34.1706 -2.78527L28.755 -12.4004C30.7842 -11.0367 31.9048 -10.2117 34.364 -10.4579C36.7789 -11.1086 37.527 -11.935 38.9092 -13.3716L37.3619 -4.82484L34.1706 -2.78527Z" fill="#B0B0B0"/>
<path d="M20.825 -12.4004C18.4938 -8.69773 17.6906 -6.12859 16.183 -1.61981C13.7915 -4.36146 12.6619 -5.25609 10.7674 -6.47592L9.9938 -12.4004C12.3186 -10.3489 13.403 -10.2083 15.3127 -10.0695C17.2725 -10.1712 18.3952 -10.3274 20.825 -12.4004Z" fill="#B0B0B0"/>
<path d="M37.3619 -4.14499C30.3554 -0.584681 28.5787 3.72193 28.2714 7.60684C30.0266 6.72243 29.5367 6.02993 37.3619 5.95574V-4.14499Z" fill="#B0B0B0"/>
<path d="M27.4978 -18.1854L26.2406 -16.3824C29.7903 -11.7821 31.5318 -11.0446 34.4607 -11.0407C36.6831 -12.1229 35.8196 -11.3276 37.3619 -13.3716L36.147 -14.8395C35.3104 -16.1993 33.5746 -14.0724 33.5903 -15.8978C29.5863 -14.3045 30.5473 -17.7573 27.4978 -18.1854Z" fill="#B0B0B0"/>
<path d="M26.7241 32.6644L26.0472 27.2256C28.5745 28.7258 30.1213 29.3171 32.72 29.8479C33.1152 37.7868 33.7817 41.3387 35.6212 46.3587C37.0264 54.0303 35.7006 55.3363 34.2673 58.9846L33.8804 58.3047C33.1241 47.7557 32.0261 42.0178 26.7241 32.6644Z" fill="#B0B0B0"/>
<path d="M33.3002 56.6536L26.7241 33.927C26.7241 33.927 30.5924 42.9594 31.0759 44.5133C31.5595 46.0673 33.3002 56.6536 33.3002 56.6536Z" fill="#B0B0B0"/>
<path d="M38.7158 29.8479H33.3002C34.0914 39.9975 34.3232 45.7408 41.7137 54.2256L41.0368 42.1824C38.8759 36.5799 39.0056 34.2787 38.7158 29.8479Z" fill="#B0B0B0"/>
<path d="M39.0571 31.3047C39.0571 28.391 41.0368 24.6033 41.0368 24.6033L41.7137 32.6644L40.6044 40.7256C40.6044 40.7256 39.0571 34.2184 39.0571 31.3047Z" fill="#F9FAFB"/>
<path d="M36.5882 48.4954C37.3262 52.6741 36.6527 53.7698 36.008 56.3623L37.5553 55.9738C37.5553 55.9738 38.0388 54.7112 38.5224 54.2256C39.0059 53.74 40.2631 53.74 40.2631 53.74C38.0494 51.6739 37.6113 50.534 36.5882 48.4954Z" fill="#B0B0B0"/>
<path d="M37.1685 56.6536C35.3068 57.7368 35.1746 58.4444 34.5574 59.6644C35.2154 62.7841 35.5116 64.7665 35.7179 69.3767C35.9786 71.9881 36.608 73.2577 37.5553 75.5925C37.5553 75.5925 41.1335 74.427 41.7137 70.8335C42.294 67.24 37.1685 56.6536 37.1685 56.6536Z" fill="#B0B0B0"/>
<path d="M39.296 54.517C38.329 54.8083 38.2323 56.3623 38.2323 56.3623C39.8449 60.3074 40.7858 60.2822 42.294 70.445C43.1888 72.2319 45.5391 73.2782 45.7754 72.4846C45.9688 67.1429 41.7137 55.3911 41.7137 55.3911C41.7137 55.3911 40.2631 54.2256 39.296 54.517Z" fill="#B0B0B0"/>
<path d="M37.5553 76.2724C39.9173 75.7386 40.8995 74.5303 42.294 71.4162C43.2213 72.5925 43.8014 73.2055 45.7754 73.5529C44.5934 80.9216 44.4331 85.2822 44.8083 93.3659L45.4853 93.5602C45.0012 86.8048 44.8012 83.0678 46.1623 77.6321C46.5712 88.2461 48.4237 98.1238 44.8083 98.999C42.3196 98.6485 41.5313 96.7703 40.3598 92.7832C40.0376 89.6208 40.1451 88.1223 41.7137 86.7616C42.5476 88.4379 42.7773 90.0817 43.0676 93.3659C43.145 93.6767 43.4867 93.4954 43.6479 93.3659C42.5453 83.9892 40.4811 81.7923 37.5553 76.2724Z" fill="#B0B0B0"/>
<path d="M7.3827 41.1141L6.75 33.1252L7.3827 24.6033C7.3827 24.6033 9.68948 31.8783 9.625 34.8437C9.56052 37.8091 7.58083 41.2652 7.3827 41.1141Z" fill="#F9FAFB"/>
<path d="M6.80243 53.74C12.7801 51.8405 13.818 43.6952 15.7962 29.5565L9.60696 29.8479C9.60696 29.8479 11.1543 34.911 10.4773 36.5621C9.80035 38.2132 7.18926 42.3766 7.18926 42.3766L6.80243 53.74Z" fill="#B0B0B0"/>
<path d="M11.1543 54.8083C10.6177 53.8081 10.0027 53.6088 8.73658 53.4486C10.1523 52.1814 10.6078 52.927 12.895 47.9126C12.4678 50.3877 12.3104 51.8174 12.895 54.8083C12.0109 54.3118 11.6649 54.3937 11.1543 54.8083Z" fill="#B0B0B0"/>
<path d="M23.5328 26.8371C20.6773 29.04 19.1794 29.0812 16.4732 29.5565C15.6662 34.9002 15.292 37.8345 14.0555 42.8623C12.1525 51.7256 13.1421 53.7916 14.7324 57.722L15.4094 56.3623C16.9572 46.2766 16.6361 40.4327 22.8558 31.7903L23.5328 26.8371Z" fill="#B0B0B0"/>
<path d="M22.3723 35.481C22.3723 35.481 18.9875 43.7364 18.7941 44.5133C18.6007 45.2903 16.163 54.517 16.163 54.517C16.163 54.517 17.6336 44.5134 18.2139 43.3479C18.7941 42.1824 22.3723 33.15 22.3723 33.15V35.481Z" fill="#B0B0B0"/>
<path d="M6.51231 56.3623V54.8083C6.51231 54.8083 9.0267 53.9342 9.80035 54.2256C10.574 54.517 10.574 55.9738 10.574 55.9738L9.0267 60.15C7.26924 63.7813 7.26887 66.1188 6.51231 70.0565C4.71157 72.9388 3.73193 72.4753 1.96707 72.8731C2.26053 64.0875 3.92492 61.5287 6.51231 56.3623Z" fill="#B0B0B0"/>
<path d="M1.96707 74.1357V73.5529C3.63438 73.0097 3.96484 73.9151 6.89914 70.8335C7.68919 73.3487 8.474 74.2567 10.3806 75.1069L7.28597 83.0709C5.55628 86.5991 4.81316 88.7424 4.57816 93.3659H5.35182C5.25204 90.277 5.25766 88.5892 6.51231 86.4702C7.81316 89.0321 8.17836 90.5294 7.86621 93.3659C6.45812 96.7215 5.52011 98.1785 3.22426 98.999C1.4409 98.5728 1.03283 97.7975 1 95.794L1.67695 75.1069C2.36885 76.3583 2.88525 76.7211 2.74073 80.1573L2.45061 92.7832H3.22426L3.22813 92.6721C3.41503 87.2947 3.52091 84.2484 3.22426 76.9522C2.94748 75.7629 2.70175 75.136 1.96707 74.1357Z" fill="#B0B0B0"/>
<path d="M7.28597 70.8335C7.89703 63.8304 9.04868 60.9836 11.1543 55.9738L11.4444 55.3911C11.4444 55.3911 11.6378 55.0997 11.9279 55.0026C12.218 54.9054 12.895 55.3911 12.895 55.3911L14.4423 58.3047C13.1469 61.1893 13.3785 67.3371 12.895 68.6968C12.4114 70.0565 10.574 74.6213 10.574 74.6213C8.41793 73.9085 8.13856 72.6922 7.28597 70.8335Z" fill="#B0B0B0"/>
<path d="M24.9834 12.3658C27.2552 9.26093 27.3314 6.88013 35.1376 6.73273L35.4278 7.12123C35.9608 14.001 37.6748 17.4851 40.7147 23.6641L40.7467 23.7292C39.6583 25.6291 39.4506 26.8966 39.1026 29.168C31.0628 29.9243 28.7537 28.2707 24.9834 24.9918V12.3658Z" fill="#B0B0B0"/>
<path d="M12.7983 7.4126L11.251 14.9881L7.3827 23.7292C8.98563 25.8131 9.18148 27.0196 9.60696 29.168C17.5234 29.0082 21.4368 28.5574 24.4032 24.9918V12.3658C23.0417 9.9411 21.8588 8.94741 19.4711 7.4126C16.3127 6.91971 14.8484 6.91674 12.7983 7.4126Z" fill="#B0B0B0"/>
<path d="M10.4773 7.89821L12.3148 7.4126L11.0576 13.3371L7.3827 22.1752L9.22013 13.3371L10.4773 7.89821Z" fill="#B0B0B0"/>
<path d="M35.8146 6.73273H37.3619C38.3263 11.6814 38.9921 14.4109 40.4565 19.1644C40.9156 20.5959 41.0273 21.4524 41.0368 23.0493C38.2939 16.8709 36.91 13.3653 35.8146 6.73273Z" fill="#B0B0B0"/>
<path d="M11.0576 -5.60181C11.0576 -5.60181 16.4732 -0.357203 17.7304 0.905388C18.9876 2.16798 21.2118 7.60684 21.2118 7.60684C17.0866 5.91129 14.8051 6.02502 10.7674 7.12123C11.7371 1.99389 11.4942 -0.720891 11.0652 -5.51619M11.0576 -5.60181L11.0652 -5.51619M11.0576 -5.60181C11.0601 -5.5732 11.0627 -5.54466 11.0652 -5.51619M40.7467 23.7292C39.6583 25.6291 39.4506 26.8966 39.1026 29.168C31.0628 29.9243 28.7537 28.2707 24.9834 24.9918V12.3658C27.2552 9.26093 27.3314 6.88013 35.1376 6.73273L35.4278 7.12123C35.9608 14.001 37.6748 17.4851 40.7147 23.6641M40.7467 23.7292L40.7147 23.6641M40.7467 23.7292C40.736 23.7074 40.7253 23.6858 40.7147 23.6641M16.0863 54.8083L16.163 54.517M16.163 54.517C16.163 54.517 18.6007 45.2903 18.7941 44.5133C18.9875 43.7364 22.3723 35.481 22.3723 35.481V33.15C22.3723 33.15 18.7941 42.1824 18.2139 43.3479C17.6336 44.5134 16.163 54.517 16.163 54.517ZM3.22426 92.7832H2.45061L2.74073 80.1573C2.88525 76.7211 2.36885 76.3583 1.67695 75.1069L1 95.794C1.03283 97.7975 1.4409 98.5728 3.22426 98.999C5.52011 98.1785 6.45812 96.7215 7.86621 93.3659C8.17836 90.5294 7.81316 89.0321 6.51231 86.4702C5.25766 88.5892 5.25204 90.277 5.35182 93.3659H4.57816C4.81316 88.7424 5.55628 86.5991 7.28597 83.0709L10.3806 75.1069C8.474 74.2567 7.68919 73.3487 6.89914 70.8335C3.96484 73.9151 3.63438 73.0097 1.96707 73.5529V74.1357C2.70175 75.136 2.94748 75.7629 3.22426 76.9523C3.52091 84.2484 3.41503 87.2947 3.22813 92.6721M3.22426 92.7832L3.22813 92.6721M3.22426 92.7832C3.22555 92.746 3.22684 92.709 3.22813 92.6721M10.4773 7.89821L12.3148 7.41259L11.0576 13.3371L7.3827 22.1752L9.22013 13.3371L10.4773 7.89821ZM12.7983 7.41259L11.251 14.9881L7.3827 23.7292C8.98563 25.8131 9.18148 27.0196 9.60696 29.168C17.5234 29.0082 21.4368 28.5574 24.4032 24.9918V12.3658C23.0417 9.9411 21.8588 8.94741 19.4711 7.41259C16.3127 6.91971 14.8484 6.91674 12.7983 7.41259ZM16.7633 -1.2313C18.929 -7.07966 19.4968 -10.4911 23.8229 -15.8968L24.4032 -15.3141V11.2004C23.5294 9.63328 23.0371 8.76306 21.8888 8.09245C20.5389 3.98264 19.631 1.78809 16.7633 -1.2313ZM14.6859 -16.8469L12.0033 -14.8394L9.9938 -13.3716C11.6881 -11.607 12.8412 -10.9567 15.3127 -10.5551C17.9465 -10.8749 19.6597 -11.9135 23.4361 -16.3824C23.4361 -16.3824 25.1072 -19.7318 20.0512 -18.8545C14.9952 -17.9771 16.183 -17.9968 14.6859 -16.8469ZM24.9834 -15.0227L25.9505 -15.8968L33.5903 -2.4939C29.8432 0.400561 28.443 2.61964 27.4978 7.89821C26.1957 8.89606 25.6685 9.63915 24.9834 11.2004V-15.0227ZM28.755 -12.4004L34.1706 -2.78527L37.3619 -4.82484L38.9092 -13.3716C37.527 -11.935 36.7789 -11.1086 34.364 -10.4579C31.9048 -10.2117 30.7842 -11.0367 28.755 -12.4004ZM16.183 -1.61981C17.6906 -6.12859 18.4938 -8.69773 20.825 -12.4004C18.3952 -10.3274 17.2725 -10.1712 15.3127 -10.0695C13.403 -10.2083 12.3186 -10.3489 9.9938 -12.4004L10.7674 -6.47592C12.6619 -5.25609 13.7915 -4.36146 16.183 -1.61981ZM35.8146 6.73273H37.3619C38.3263 11.6814 38.9921 14.4109 40.4565 19.1644C40.9156 20.5959 41.0273 21.4524 41.0368 23.0493C38.2939 16.8709 36.91 13.3653 35.8146 6.73273ZM28.2714 7.60684C28.5787 3.72193 30.3554 -0.584681 37.3619 -4.14499V5.95574C29.5367 6.02993 30.0266 6.72243 28.2714 7.60684ZM26.2406 -16.3824L27.4978 -18.1854C30.5473 -17.7573 29.5863 -14.3045 33.5903 -15.8978C33.5746 -14.0724 35.3104 -16.1993 36.147 -14.8395L37.3619 -13.3716C35.8196 -11.3276 36.6831 -12.1229 34.4607 -11.0407C31.5318 -11.0446 29.7903 -11.7821 26.2406 -16.3824ZM26.0472 27.2256L26.7241 32.6644C32.0261 42.0178 33.1241 47.7557 33.8804 58.3047L34.2673 58.9846C35.7006 55.3363 37.0264 54.0303 35.6212 46.3587C33.7817 41.3387 33.1152 37.7868 32.72 29.8479C30.1213 29.3171 28.5745 28.7258 26.0472 27.2256ZM26.7241 33.927L33.3002 56.6536C33.3002 56.6536 31.5595 46.0673 31.0759 44.5133C30.5924 42.9594 26.7241 33.927 26.7241 33.927ZM33.3002 29.8479H38.7158C39.0056 34.2787 38.8759 36.5799 41.0368 42.1824L41.7137 54.2256C34.3232 45.7408 34.0914 39.9975 33.3002 29.8479ZM41.0368 24.6033C41.0368 24.6033 39.0571 28.391 39.0571 31.3047C39.0571 34.2184 40.6044 40.7256 40.6044 40.7256L41.7137 32.6644L41.0368 24.6033ZM36.008 56.3623C36.6527 53.7698 37.3262 52.6741 36.5882 48.4954C37.6113 50.534 38.0494 51.6739 40.2631 53.74C40.2631 53.74 39.0059 53.74 38.5224 54.2256C38.0389 54.7112 37.5553 55.9738 37.5553 55.9738L36.008 56.3623ZM34.5574 59.6644C35.1746 58.4444 35.3068 57.7368 37.1685 56.6536C37.1685 56.6536 42.294 67.24 41.7137 70.8335C41.1335 74.427 37.5553 75.5925 37.5553 75.5925C36.608 73.2577 35.9786 71.9881 35.7179 69.3767C35.5116 64.7665 35.2154 62.7841 34.5574 59.6644ZM38.2323 56.3623C38.2323 56.3623 38.329 54.8083 39.296 54.517C40.2631 54.2256 41.7137 55.3911 41.7137 55.3911C41.7137 55.3911 45.9688 67.1429 45.7754 72.4846C45.5391 73.2782 43.1888 72.2319 42.294 70.445C40.7858 60.2822 39.8449 60.3074 38.2323 56.3623ZM42.294 71.4162C40.8995 74.5303 39.9173 75.7386 37.5553 76.2724C40.4811 81.7923 42.5453 83.9892 43.6479 93.3659C43.4867 93.4954 43.145 93.6767 43.0676 93.3659C42.7773 90.0817 42.5476 88.4379 41.7137 86.7616C40.1451 88.1223 40.0376 89.6208 40.3598 92.7832C41.5313 96.7703 42.3196 98.6485 44.8084 98.999C48.4237 98.1238 46.5712 88.2461 46.1623 77.6321C44.8012 83.0678 45.0012 86.8048 45.4853 93.5602L44.8084 93.3659C44.4331 85.2822 44.5934 80.9216 45.7754 73.5529C43.8014 73.2055 43.2213 72.5925 42.294 71.4162ZM7.3827 24.6033C7.3827 24.6033 9.68948 31.8783 9.625 34.8437C9.56052 37.8091 7.58083 41.2652 7.3827 41.1141L6.75 33.1252L7.3827 24.6033ZM15.7962 29.5565C13.818 43.6952 12.7801 51.8405 6.80243 53.74L7.18926 42.3766C7.18926 42.3766 9.80035 38.2132 10.4773 36.5621C11.1543 34.911 9.60696 29.8479 9.60696 29.8479L15.7962 29.5565ZM8.73657 53.4486C10.0027 53.6088 10.6177 53.8081 11.1543 54.8083C11.6649 54.3937 12.0109 54.3118 12.895 54.8083C12.3104 51.8174 12.4678 50.3877 12.895 47.9126C10.6078 52.927 10.1523 52.1814 8.73657 53.4486ZM16.4732 29.5565C19.1794 29.0812 20.6773 29.04 23.5328 26.8371L22.8558 31.7903C16.6361 40.4327 16.9572 46.2766 15.4094 56.3623L14.7324 57.722C13.1421 53.7916 12.1525 51.7256 14.0555 42.8623C15.292 37.8345 15.6662 34.9002 16.4732 29.5565ZM6.51231 54.8083V56.3623C3.92492 61.5287 2.26053 64.0875 1.96707 72.8731C3.73193 72.4753 4.71157 72.9388 6.51231 70.0565C7.26887 66.1188 7.26924 63.7813 9.0267 60.15L10.574 55.9738C10.574 55.9738 10.574 54.517 9.80035 54.2256C9.0267 53.9342 6.51231 54.8083 6.51231 54.8083ZM11.1543 55.9738C9.04868 60.9836 7.89703 63.8304 7.28597 70.8335C8.13856 72.6922 8.41793 73.9085 10.574 74.6213C10.574 74.6213 12.4114 70.0565 12.895 68.6968C13.3785 67.3371 13.1469 61.1893 14.4423 58.3047L12.895 55.3911C12.895 55.3911 12.218 54.9054 11.9279 55.0026C11.6378 55.0997 11.4444 55.3911 11.4444 55.3911L11.1543 55.9738Z" stroke="#1E1E1E"/>
</g>
</svg>
