<svg width="46" height="54" viewBox="0 0 46 54" fill="none" xmlns="http://www.w3.org/2000/svg">
<mask id="mask0_34714_7827" style="mask-type:alpha" maskUnits="userSpaceOnUse" x="-4" y="-2" width="55" height="56">
<circle cx="23.5" cy="26" r="27.5" fill="#303030"/>
</mask>
<g mask="url(#mask0_34714_7827)">
<path d="M16.4132 45.2813C16.1671 46.5722 15.5458 47.6586 14.1205 47.4794C12.7566 47.3079 12.0062 46.0246 11.5952 44.5791C11.5952 44.5791 11.1115 45.5459 10.8249 45.4078C10.8249 45.4078 11.8279 48.17 12.2578 49.1367C12.6876 50.1035 13.4041 63.3619 13.4041 63.3619H15.5534C15.5534 63.3619 15.84 53.9705 16.1266 53.1419C16.4132 52.3132 17.1296 48.4462 17.1296 47.4794C17.1296 46.5127 16.4132 45.2813 16.4132 45.2813Z" fill="#B0B0B0"/>
<path d="M10.8249 45.4078C10.6633 45.3299 10.274 44.7692 9.96512 44.2948C9.96512 44.2948 8.10236 50.5178 8.38893 53.6943C8.67551 56.8708 11.1115 63.3619 11.1115 63.3619H13.4041C13.4041 63.3619 12.6876 50.1035 12.2578 49.1367C11.8279 48.17 10.8249 45.4078 10.8249 45.4078Z" fill="#B0B0B0"/>
<path d="M16.4132 41.5408C14.0179 40.7628 14.0869 40.3261 13.5474 37.5356C13.5157 37.5356 13.4672 37.4924 13.4041 37.4095C13.4041 37.4095 11.828 40.0216 11.1115 40.1597C11.1115 40.1597 11.013 42.532 11.5952 44.5791C12.0062 46.0246 12.7566 47.3079 14.1205 47.4794C15.5458 47.6586 16.1671 46.5722 16.4132 45.2813C16.7363 43.5871 16.4132 41.5408 16.4132 41.5408Z" fill="#B0B0B0"/>
<path d="M11.1115 40.1597C10.8124 40.2173 10.1138 38.9031 9.34923 37.1213L9.53525 43.6124L9.96512 44.2948C10.274 44.7692 10.6633 45.3299 10.8249 45.4078C11.1115 45.5459 11.5952 44.5791 11.5952 44.5791C11.013 42.532 11.1115 40.1597 11.1115 40.1597Z" fill="#B0B0B0"/>
<path d="M30.5989 49.2748C30.4556 48.9986 30.5989 45.4078 30.5989 45.4078C30.4999 45.3601 30.2813 45.1477 30.0257 44.873C30.0257 44.873 28.1629 51.7608 28.3062 53.1419C28.4495 54.523 29.8824 63.5 29.8824 63.5H32.175C32.175 63.5 32.4616 57.6994 32.3183 57.2851C32.175 56.8708 30.7421 49.5511 30.5989 49.2748Z" fill="#B0B0B0"/>
<path d="M33.0348 47.4794C32.6049 47.3413 31.7452 45.5459 31.4586 45.1954C31.4586 45.1954 30.8854 45.5459 30.5989 45.4078C30.5989 45.4078 30.4556 48.9986 30.5989 49.2748C30.7421 49.5511 32.175 56.8708 32.3183 57.2851C32.4616 57.6994 32.175 63.5 32.175 63.5H34.4677C34.4677 63.5 34.8976 49.8273 35.0408 49.2748C35.1841 48.7224 36.4737 44.0267 36.4737 44.0267C36.3305 44.441 35.1841 47.0651 34.8976 47.3413C34.611 47.6175 33.4647 47.6175 33.0348 47.4794Z" fill="#B0B0B0"/>
<path d="M35.0408 49.2748C34.8976 49.8273 34.4677 63.5 34.4677 63.5H37.0469C37.0469 63.5 39.3395 53.8324 39.4828 52.3132C39.6261 50.794 38.0499 44.0267 38.0499 44.0267C36.4817 46.0894 36.0442 47.2314 35.0408 49.2748Z" fill="#B0B0B0"/>
<path d="M37.3335 40.4359C37.1585 40.5202 37.037 40.553 36.9036 40.5344C36.9036 40.5344 36.617 43.6124 36.4737 44.0267C36.4737 44.0267 35.1841 48.7224 35.0408 49.2748C36.0442 47.2314 36.4817 46.0894 38.0499 44.0267L38.5703 37.4095C37.9408 39.107 37.4324 40.3882 37.3335 40.4359Z" fill="#B0B0B0"/>
<path d="M35.0408 36.9832C34.7543 37.5236 34.611 37.5356 33.8945 37.4095C33.8945 37.4095 32.7482 41.1264 32.4616 41.4026C32.2764 41.5812 31.8518 41.6443 31.4586 41.5921C31.4586 41.5921 31.172 44.8449 31.4586 45.1954C31.7452 45.5459 32.6049 47.3413 33.0348 47.4794C33.4647 47.6175 34.611 47.6175 34.8976 47.3413C35.1841 47.0651 36.3305 44.441 36.4737 44.0267C36.617 43.6124 36.9036 40.5344 36.9036 40.5344C36.8185 40.5225 36.7287 40.4897 36.617 40.4359C36.3305 40.2978 35.0408 36.9832 35.0408 36.9832Z" fill="#B0B0B0"/>
<path d="M30.8854 41.4026C30.4798 41.142 28.1604 38.7909 27.7797 38.0624L28.0196 38.6405C28.0196 38.6405 28.4495 42.9218 28.7361 43.3362C28.9237 43.6074 29.5412 44.3522 30.0257 44.873C30.2813 45.1477 30.4999 45.3601 30.5989 45.4078C30.8854 45.5459 31.4586 45.1954 31.4586 45.1954C31.172 44.8449 31.4586 41.5921 31.4586 41.5921C31.2434 41.5635 31.0375 41.5004 30.8854 41.4026Z" fill="#B0B0B0"/>
<path d="M24.2941 14.578C25.0865 21.0657 25.5089 24.7194 27.3032 30.4921C28.9092 24.9547 29.6256 21.6439 31.7452 16.6812C32.7745 12.8317 33.5531 10.727 32.4995 6.3231C29.7185 10.0143 26.2162 14.1758 24.2941 14.578Z" fill="#F9FAFB"/>
<path d="M34.4677 3.6336L35.7573 8.94716C35.7573 8.94716 39.123 14.5229 40.0873 17.5099C40.0873 17.5099 40.0368 11.295 39.1963 9.63771C38.9106 9.07446 38.3576 8.0805 37.752 7.01365C36.5757 4.94141 35.2008 2.59418 35.2008 2.59418C34.9769 2.91484 34.7313 3.26357 34.4677 3.6336Z" fill="#B0B0B0"/>
<path d="M36.6171 0.522548C36.6171 0.522548 36.0728 1.34576 35.2008 2.59418C35.2008 2.59418 36.5757 4.94141 37.752 7.01365C37.752 7.01365 38.7664 3.0085 38.1932 1.62742C37.6201 0.246331 36.6171 0.522548 36.6171 0.522548Z" fill="#B0B0B0"/>
<path d="M24.0076 9.3616C28.7361 9.3616 30.4556 0.522548 30.4556 0.522548H24.0076V9.3616Z" fill="#B0B0B0"/>
<path d="M13.5474 3.6336C13.9294 4.16993 14.3491 4.75102 14.7953 5.35634C17.5377 9.07654 21.2822 13.7119 23.4344 14.4948C23.6409 14.57 23.8327 14.6096 24.0076 14.6096C24.0986 14.6096 24.1942 14.5989 24.2941 14.578C26.2162 14.1758 29.7185 10.0143 32.4995 6.3231C33.2167 5.37113 33.886 4.45045 34.4677 3.6336C34.7313 3.26357 34.9769 2.91484 35.2008 2.59418C36.0728 1.34576 36.6171 0.522548 36.6171 0.522548H30.4556C30.4556 0.522548 28.7361 9.3616 24.0076 9.3616C19.279 9.3616 17.2729 0.522548 17.2729 0.522548H11.3981C11.3981 0.522548 11.863 1.22576 12.6219 2.31796C12.895 2.71101 13.2061 3.15444 13.5474 3.6336Z" fill="#F9FAFB"/>
<path d="M17.2729 0.522548C17.2729 0.522548 19.279 9.3616 24.0076 9.3616V0.522548H17.2729Z" fill="#B0B0B0"/>
<path d="M12.6219 2.31796C11.863 1.22576 11.3981 0.522548 11.3981 0.522548C11.3981 0.522548 10.1084 0.522659 9.53525 1.48942C8.96209 2.45618 9.96512 7.17075 9.96512 7.17075C11.2876 4.66882 12.6219 2.31796 12.6219 2.31796Z" fill="#B0B0B0"/>
<path d="M8.1024 16.6812C9.24872 9.91392 13.5474 3.6336 13.5474 3.6336C13.2061 3.15444 12.895 2.71101 12.6219 2.31796C12.6219 2.31796 11.2876 4.66882 9.96512 7.17075C8.93211 9.12506 7.90631 11.1715 7.52926 12.2618C6.9324 13.9876 7.39848 17.0447 7.73929 18.7529C7.8894 19.5052 8.01521 19.9958 8.01521 19.9958C7.92083 18.7818 7.93734 17.6556 8.1024 16.6812Z" fill="#B0B0B0"/>
<path d="M14.7953 5.35634C14.7092 9.78354 14.9181 12.1987 15.6968 16.405C17.7582 22.0224 18.997 25.1486 20.3716 31.2201L20.4253 30.9064C22.7271 25.4366 22.7272 21.2941 23.4344 14.4948C21.2822 13.7119 17.5377 9.07654 14.7953 5.35634Z" fill="#F9FAFB"/>
<path d="M16.4132 41.5408C16.4132 41.5408 16.7363 43.5871 16.4132 45.2813C16.4132 45.2813 16.6841 45.1205 17.065 44.8561C17.8592 44.3048 19.1317 43.3029 19.4223 42.3694C19.8521 40.9883 19.3045 39.0548 19.3045 39.0548C18.5623 40.8222 17.5322 41.9042 16.4132 41.5408Z" fill="#B0B0B0"/>
<path d="M16.1266 53.1419C15.84 53.9705 15.5534 63.3619 15.5534 63.3619H17.8461C17.8461 63.3619 19.279 53.4181 19.279 52.037C19.279 50.6559 17.1296 44.9935 17.1296 44.9935L17.065 44.8561C16.6841 45.1205 16.4132 45.2813 16.4132 45.2813C16.4132 45.2813 17.1296 46.5127 17.1296 47.4794C17.1296 48.4462 16.4132 52.3132 16.1266 53.1419Z" fill="#B0B0B0"/>
<path d="M15.6968 16.405C15.6968 16.405 14.1205 37.5356 13.5474 37.5356C14.0869 40.3261 14.0179 40.7628 16.4132 41.5408C17.5322 41.9042 18.5623 40.8222 19.3045 39.0548C20.151 37.0388 20.6231 34.131 20.4253 31.4588C20.4074 31.3788 20.3895 31.2992 20.3716 31.2201C18.997 25.1486 17.7582 22.0224 15.6968 16.405Z" fill="#B0B0B0"/>
<path d="M13.5474 3.6336C13.5474 3.6336 9.24872 9.91392 8.1024 16.6812C7.93734 17.6556 7.92083 18.7818 8.01521 19.9958C8.53999 26.746 12.4932 36.2123 13.4041 37.4095C13.4672 37.4924 13.5157 37.5356 13.5474 37.5356C14.1205 37.5356 15.6968 16.405 15.6968 16.405C14.9181 12.1987 14.7092 9.78354 14.7953 5.35634C14.3491 4.75102 13.9294 4.16993 13.5474 3.6336Z" fill="#B0B0B0"/>
<path d="M8.01521 19.9958C8.01521 19.9958 7.8894 19.5052 7.73929 18.7529C7.73929 18.7529 5.95308 26.2107 6.66953 29.3872C7.08689 31.2377 8.28229 34.6348 9.34923 37.1213C10.1138 38.9031 10.8124 40.2173 11.1115 40.1597C11.828 40.0216 13.4041 37.4095 13.4041 37.4095C12.4932 36.2123 8.53999 26.746 8.01521 19.9958Z" fill="#B0B0B0"/>
<path d="M32.4995 6.3231C33.5531 10.727 32.7745 12.8317 31.7452 16.6812C31.7452 16.6812 33.1781 37.2834 33.8945 37.4095C34.611 37.5356 34.7543 37.5236 35.0408 36.9832C35.2844 36.5238 38.9442 25.2713 40.0368 20.5483C40.2297 19.7146 40.3426 19.0844 40.3426 18.7529C40.3426 18.4363 40.2485 18.0093 40.0873 17.5099C39.123 14.5229 35.7573 8.94716 35.7573 8.94716L34.4677 3.6336C33.886 4.45045 33.2167 5.37113 32.4995 6.3231Z" fill="#B0B0B0"/>
<path d="M31.7452 16.6812C29.6256 21.6439 28.9092 24.9547 27.3032 30.4921C27.3032 30.4921 27.5898 37.3975 27.7331 37.9499L27.7797 38.0624C28.1604 38.7909 30.4798 41.142 30.8854 41.4026C31.0375 41.5004 31.2434 41.5635 31.4586 41.5921C31.8518 41.6443 32.2764 41.5812 32.4616 41.4026C32.7482 41.1264 33.8945 37.4095 33.8945 37.4095C33.1781 37.2834 31.7452 16.6812 31.7452 16.6812Z" fill="#B0B0B0"/>
<path d="M35.0408 36.9832C35.0408 36.9832 36.3305 40.2978 36.617 40.4359C36.7287 40.4897 36.8185 40.5225 36.9036 40.5344C37.037 40.553 37.1585 40.5202 37.3335 40.4359C37.4324 40.3882 37.9408 39.107 38.5703 37.4095C39.7648 34.1882 41.395 29.4679 41.4889 28.8348C41.6322 27.868 40.3426 21.3769 40.3426 21.3769L40.0368 20.5483C38.9442 25.2713 35.2844 36.5238 35.0408 36.9832Z" fill="#B0B0B0"/>
<path d="M11.3981 0.522548C11.3981 0.522548 11.863 1.22576 12.6219 2.31796M11.3981 0.522548C11.3981 0.522548 10.1084 0.522659 9.53525 1.48942C8.96209 2.45618 9.96512 7.17075 9.96512 7.17075M11.3981 0.522548H17.2729M36.6171 0.522548C36.6171 0.522548 36.0728 1.34576 35.2008 2.59418M36.6171 0.522548C36.6171 0.522548 37.6201 0.246331 38.1932 1.62742C38.7664 3.0085 37.752 7.01365 37.752 7.01365M36.6171 0.522548H30.4556M13.5474 3.6336C13.5474 3.6336 9.24872 9.91392 8.1024 16.6812C7.93734 17.6556 7.92083 18.7818 8.01521 19.9958M13.5474 3.6336C13.9294 4.16993 14.3491 4.75102 14.7953 5.35634M13.5474 3.6336C13.2061 3.15444 12.895 2.71101 12.6219 2.31796M13.5474 37.5356C14.1205 37.5356 15.6968 16.405 15.6968 16.405M13.5474 37.5356C14.0869 40.3261 14.0179 40.7628 16.4132 41.5408M13.5474 37.5356C13.5157 37.5356 13.4672 37.4924 13.4041 37.4095M15.6968 16.405C14.9181 12.1987 14.7092 9.78354 14.7953 5.35634M15.6968 16.405C17.7582 22.0224 18.997 25.1486 20.3716 31.2201M14.7953 5.35634C17.5377 9.07654 21.2822 13.7119 23.4344 14.4948M16.4132 41.5408C16.4132 41.5408 16.7363 43.5871 16.4132 45.2813M16.4132 41.5408C17.5322 41.9042 18.5623 40.8222 19.3045 39.0548M23.4344 14.4948C23.6409 14.57 23.8327 14.6096 24.0076 14.6096C24.0986 14.6096 24.1942 14.5989 24.2941 14.578M23.4344 14.4948C22.7272 21.2941 22.7271 25.4366 20.4253 30.9064L20.3716 31.2201M12.6219 2.31796C12.6219 2.31796 11.2876 4.66882 9.96512 7.17075M8.01521 19.9958C8.01521 19.9958 7.8894 19.5052 7.73929 18.7529M8.01521 19.9958C8.53999 26.746 12.4932 36.2123 13.4041 37.4095M7.73929 18.7529C7.39848 17.0447 6.9324 13.9876 7.52926 12.2618C7.90631 11.1715 8.93211 9.12506 9.96512 7.17075M7.73929 18.7529C7.73929 18.7529 5.95308 26.2107 6.66953 29.3872C7.08689 31.2377 8.28229 34.6348 9.34923 37.1213M11.1115 40.1597C11.828 40.0216 13.4041 37.4095 13.4041 37.4095M11.1115 40.1597C10.8124 40.2173 10.1138 38.9031 9.34923 37.1213M11.1115 40.1597C11.1115 40.1597 11.013 42.532 11.5952 44.5791M16.4132 45.2813C16.1671 46.5722 15.5458 47.6586 14.1205 47.4794C12.7566 47.308 12.0062 46.0246 11.5952 44.5791M16.4132 45.2813C16.4132 45.2813 17.1296 46.5127 17.1296 47.4794C17.1296 48.4462 16.4132 52.3132 16.1266 53.1419C15.84 53.9705 15.5534 63.3619 15.5534 63.3619M16.4132 45.2813C16.4132 45.2813 16.6841 45.1205 17.065 44.8561M19.3045 39.0548C20.151 37.0388 20.6231 34.1309 20.4253 31.4588C20.4074 31.3788 20.3895 31.2992 20.3716 31.2201M19.3045 39.0548C19.3045 39.0548 19.8521 40.9883 19.4223 42.3694C19.1317 43.3029 17.8592 44.3048 17.065 44.8561M9.34923 37.1213L9.53525 43.6124M9.53525 43.6124C9.53525 43.6124 9.72612 43.9278 9.96512 44.2948M9.53525 43.6124L9.96512 44.2948M10.8249 45.4078C11.1115 45.5459 11.5952 44.5791 11.5952 44.5791M10.8249 45.4078C10.6633 45.3299 10.274 44.7692 9.96512 44.2948M10.8249 45.4078C10.8249 45.4078 11.8279 48.17 12.2578 49.1367C12.6876 50.1035 13.4041 63.3619 13.4041 63.3619M9.96512 44.2948C9.96512 44.2948 8.10236 50.5178 8.38893 53.6943C8.67551 56.8708 11.1115 63.3619 11.1115 63.3619H13.4041M13.4041 63.3619H15.5534M15.5534 63.3619H17.8461C17.8461 63.3619 19.279 53.4181 19.279 52.037C19.279 50.6559 17.1296 44.9935 17.1296 44.9935L17.065 44.8561M24.2941 14.578C25.0865 21.0657 25.5089 24.7194 27.3032 30.4921M24.2941 14.578C26.2162 14.1758 29.7185 10.0143 32.4995 6.3231M27.3032 30.4921C28.9092 24.9547 29.6256 21.6439 31.7452 16.6812M27.3032 30.4921C27.3032 30.4921 27.5898 37.3975 27.7331 37.9499M31.7452 16.6812C32.7745 12.8317 33.5531 10.727 32.4995 6.3231M31.7452 16.6812C31.7452 16.6812 33.1781 37.2834 33.8945 37.4095M32.4995 6.3231C33.2167 5.37113 33.886 4.45045 34.4677 3.6336M33.8945 37.4095C34.611 37.5356 34.7543 37.5236 35.0408 36.9832M33.8945 37.4095C33.8945 37.4095 32.7482 41.1264 32.4616 41.4026C32.2764 41.5812 31.8518 41.6443 31.4586 41.5921M35.0408 36.9832C35.0408 36.9832 36.3305 40.2978 36.617 40.4359C36.7287 40.4897 36.8185 40.5225 36.9036 40.5344M35.0408 36.9832C35.2844 36.5238 38.9442 25.2713 40.0368 20.5483M34.4677 3.6336L35.7573 8.94716C35.7573 8.94716 39.123 14.5229 40.0873 17.5099M34.4677 3.6336C34.7313 3.26357 34.9769 2.91484 35.2008 2.59418M27.7331 37.9499L27.7797 38.0624M27.7331 37.9499C27.7411 37.9811 27.757 38.0188 27.7797 38.0624M31.4586 41.5921C31.2434 41.5635 31.0375 41.5004 30.8854 41.4026C30.4798 41.142 28.1604 38.7909 27.7797 38.0624M31.4586 41.5921C31.4586 41.5921 31.172 44.8449 31.4586 45.1954M31.4586 45.1954C31.7452 45.5459 32.6049 47.3413 33.0348 47.4794C33.4647 47.6175 34.611 47.6175 34.8976 47.3413C35.1841 47.0651 36.3305 44.441 36.4737 44.0267M31.4586 45.1954C31.4586 45.1954 30.8854 45.5459 30.5989 45.4078M36.4737 44.0267C36.617 43.6124 36.9036 40.5344 36.9036 40.5344M36.4737 44.0267C36.4737 44.0267 35.1841 48.7224 35.0408 49.2748M36.9036 40.5344C37.037 40.553 37.1585 40.5202 37.3335 40.4359C37.4324 40.3882 37.9408 39.107 38.5703 37.4095M30.5989 45.4078C30.5989 45.4078 30.4556 48.9986 30.5989 49.2748C30.7421 49.5511 32.175 56.8708 32.3183 57.2851C32.4616 57.6994 32.175 63.5 32.175 63.5M30.5989 45.4078C30.4999 45.3601 30.2813 45.1477 30.0257 44.873M35.0408 49.2748C34.8976 49.8273 34.4677 63.5 34.4677 63.5M35.0408 49.2748C36.0442 47.2314 36.4817 46.0894 38.0499 44.0267M34.4677 63.5H32.175M34.4677 63.5H37.0469C37.0469 63.5 39.3395 53.8324 39.4828 52.3132C39.6261 50.794 38.0499 44.0267 38.0499 44.0267M32.175 63.5H29.8824C29.8824 63.5 28.4495 54.523 28.3062 53.1419C28.1629 51.7608 30.0257 44.873 30.0257 44.873M30.0257 44.873C29.5412 44.3522 28.9237 43.6074 28.7361 43.3362C28.4495 42.9218 28.0196 38.6405 28.0196 38.6405L27.7797 38.0624M38.0499 44.0267L38.5703 37.4095M38.5703 37.4095C39.7648 34.1882 41.395 29.4679 41.4889 28.8348C41.6322 27.868 40.3426 21.3769 40.3426 21.3769L40.0368 20.5483M40.0368 20.5483C40.2297 19.7146 40.3426 19.0844 40.3426 18.7529C40.3426 18.4363 40.2485 18.0093 40.0873 17.5099M35.2008 2.59418C35.2008 2.59418 36.5757 4.94141 37.752 7.01365M40.0873 17.5099C40.0873 17.5099 40.0368 11.295 39.1962 9.63771C38.9106 9.07446 38.3576 8.0805 37.752 7.01365M17.2729 0.522548C17.2729 0.522548 19.279 9.3616 24.0076 9.3616M17.2729 0.522548H24.0076M24.0076 9.3616C28.7361 9.3616 30.4556 0.522548 30.4556 0.522548M24.0076 9.3616V0.522548M30.4556 0.522548H24.0076" stroke="#1E1E1E"/>
</g>
</svg>
