<svg width="51" height="55" viewBox="0 0 51 55" fill="none" xmlns="http://www.w3.org/2000/svg">
<mask id="mask0_34714_7824" style="mask-type:alpha" maskUnits="userSpaceOnUse" x="-2" y="0" width="56" height="55">
<circle cx="26" cy="27.5" r="27.5" fill="#303030"/>
</mask>
<g mask="url(#mask0_34714_7824)">
<path d="M31.8382 33.1974L32.1695 28.7018C29.6931 28.7061 28.3785 29.0316 26.6482 29.6886C26.1506 29.7434 25.6867 29.9558 25.3231 30.2368V33.4167C25.7984 34.3564 26.1816 34.8238 27.1737 35.5C28.0694 34.6493 29.0866 33.9487 31.8382 33.1974Z" fill="#B0B0B0"/>
<path d="M25.3231 24.7544V28.1535C25.6267 28.9361 25.9291 29.2505 26.6482 29.6886C28.3785 29.0316 29.6931 28.7061 32.1695 28.7018C32.194 27.2387 31.9908 26.4725 31.2861 25.3026C29.8298 24.1056 28.5232 24.1718 26.3169 24.1026C25.6094 24.3835 25.4106 24.527 25.3231 24.7544Z" fill="#B0B0B0"/>
<path d="M18.8396 28.8114C21.0066 28.8262 22.3468 29.0142 24.1084 29.6886C24.7219 29.1898 25.0366 28.9329 25.3231 28.1535V24.7544C25.1077 24.4533 24.8892 24.2564 24.4397 24.1026C24.1916 24.0177 23.8731 23.946 23.4459 23.8772C20.6726 24.1798 19.651 24.722 18.8956 26.3991C18.8427 27.1125 18.8231 27.8996 18.8396 28.8114Z" fill="#B0B0B0"/>
<path d="M27.1015 19.9298C25.7991 20.4517 25.571 21.4451 25.3231 23.4386C25.5521 23.8215 25.6991 24.0217 26.3169 24.1026C28.5232 24.1718 29.8298 24.1056 31.2861 25.3026C31.7364 24.0783 31.6406 23.3251 31.2861 21.9463C29.5582 21.5798 28.1109 20.7055 27.1015 19.9298Z" fill="#B0B0B0"/>
<path d="M15.937 31.5526C16.8107 32.4768 17.3698 32.9749 19.1393 33.636C18.9603 31.6737 18.8631 30.1151 18.8396 28.8114C18.8231 27.8996 18.8427 27.1125 18.8956 26.3991C19.0112 24.8378 19.2863 23.63 19.6914 22.2422C19.0882 22.4076 18.4518 22.4959 17.7553 22.4958C15.0281 23.7477 15.1133 25.442 14.7602 28.1535C15.2301 29.1276 15.6013 30.1741 15.937 31.5526Z" fill="#B0B0B0"/>
<path d="M15.0536 22.1228C14.4997 21.8204 14.0422 21.5419 13.6561 21.2456C13.5915 22.9524 13.3716 23.732 12.6242 24.6447C13.5352 25.9878 14.2142 27.0217 14.7602 28.1535C15.1133 25.442 15.0281 23.7477 17.7553 22.4958C16.9492 22.4958 16.0626 22.3773 15.0536 22.1228Z" fill="#B0B0B0"/>
<path d="M8.74561 29.25C7.94493 30.6125 6.69505 31.8794 4.79057 33.1974C4.79936 34.3001 4.64637 35.3273 4.32076 36.3772C6.49597 35.7832 7.8963 35.1294 8.74561 34.3112C10.0834 33.0222 10.054 31.3253 9.53234 28.8114V28.6383C9.28995 28.8362 9.02925 29.0379 8.74561 29.25Z" fill="#F9FAFB"/>
<path d="M4.32076 36.3772C3.91023 37.7009 3.22532 39.0607 2.24429 40.6535L3.79024 42.6272C5.33619 39.2281 8.41611 38.6131 8.74561 34.3112C7.8963 35.1294 6.49597 35.7832 4.32076 36.3772Z" fill="#F9FAFB"/>
<path d="M4.01109 28.4825C1.6262 29.626 0.110095 33.9396 0.58792 34.8421C0.788297 37.1144 1.29198 38.3866 2.24429 40.6535C3.22532 39.0607 3.91023 37.7009 4.32076 36.3772C4.64637 35.3273 4.79936 34.3001 4.79057 33.1974C4.77951 31.8104 4.5125 30.3039 4.01109 28.4825Z" fill="#F9FAFB"/>
<path d="M15.937 31.5526C15.1159 34.1279 15.0443 35.735 15.6057 38.7895L16.9308 40.4899L17.4829 41.1984L18.5964 42.6272L22.7833 48H27.9733L32.059 42.6901L33.3841 40.9679L34.0467 40.1069L35.4822 38.2412C35.7674 35.2117 35.6845 33.5966 34.378 31.114L31.8382 33.1974C30.1955 41.4107 28.9227 44.7327 25.3231 45.807C21.76 44.0894 20.5239 41.1184 19.1393 33.636C17.3698 32.9749 16.8107 32.4768 15.937 31.5526Z" fill="#B0B0B0"/>
<path d="M25.3231 45.807V37.2544C24.8879 36.3135 24.409 35.666 23.7696 35.3751C22.5893 34.3457 21.226 33.9726 19.1393 33.636C20.5239 41.1184 21.76 44.0894 25.3231 45.807Z" fill="#B0B0B0"/>
<path d="M25.3231 45.807C28.9227 44.7327 30.1955 41.4107 31.8382 33.1974C29.0866 33.9487 28.0694 34.6493 27.1737 35.5C26.4176 35.6894 25.93 36.2854 25.3231 37.2544V45.807Z" fill="#B0B0B0"/>
<path d="M23.7696 35.3751C24.409 35.666 24.8879 36.3135 25.3231 37.2544C25.93 36.2854 26.4176 35.6894 27.1737 35.5C26.1816 34.8238 25.7984 34.3564 25.3231 33.4167C25.3231 34.4035 24.3293 35.0614 23.7696 35.3751Z" fill="#B0B0B0"/>
<path d="M31.8382 33.1974L34.378 31.114L34.4559 31.021C35.1312 30.2148 35.6981 29.5381 36.2059 28.8114C36.1437 25.456 35.3623 24.0379 32.9424 22.1228C32.3671 22.1228 31.8135 22.0582 31.2861 21.9463C31.6406 23.3251 31.7364 24.0783 31.2861 25.3026C31.9908 26.4725 32.194 27.2387 32.1695 28.7018L31.8382 33.1974Z" fill="#B0B0B0"/>
<path d="M24.1084 29.6886C24.4935 29.6934 24.8965 29.9048 25.3231 30.2368C25.6867 29.9558 26.1506 29.7434 26.6482 29.6886C25.9291 29.2505 25.6267 28.9361 25.3231 28.1535C25.0366 28.9329 24.7219 29.1898 24.1084 29.6886Z" fill="#B0B0B0"/>
<path d="M25.544 18.5044C24.9112 19.017 24.327 19.4952 23.7696 19.9298C25.0711 20.6614 25.1479 21.6713 25.3231 23.4386C25.571 21.4451 25.7991 20.4517 27.1015 19.9298C26.1125 19.1697 25.544 18.5044 25.544 18.5044Z" fill="#B0B0B0"/>
<path d="M25.3231 23.4386C25.1479 21.6713 25.0711 20.6614 23.7696 19.9298C22.3578 21.0305 21.1172 21.8514 19.6914 22.2422C19.2863 23.63 19.0112 24.8378 18.8956 26.3991C19.651 24.722 20.6726 24.1798 23.4459 23.8772C23.8731 23.946 24.1916 24.0177 24.4397 24.1026C25.0044 23.955 25.1636 23.7922 25.3231 23.4386Z" fill="#B0B0B0"/>
<path d="M16.5995 11.5965C20.6012 11.3572 23.604 10.0338 25.544 13.0219C26.7839 11.016 27.9524 10.2596 34.0467 12.0351C34.852 10.9035 35.6556 10.4532 37.9116 10.0614C34.6759 7.74654 32.875 6.54713 29.671 4.4693L29.7401 5.89474C27.9571 9.00457 27.0612 9.44685 25.4335 10.6096C23.0429 9.6357 22.2748 7.89934 20.9061 4.79825C18.4031 6.55263 13.331 10.0614 13.0659 10.0614C14.4508 10.2135 15.2254 10.466 16.5995 11.5965Z" fill="#B0B0B0"/>
<path d="M26.8691 4.87834C26.5217 7.5081 26.1847 8.90513 25.4335 10.6096C27.0612 9.44685 27.9571 9.00457 29.7401 5.89474L29.671 4.4693L29.5329 1.61842C29.2381 2.64085 28.5503 4.17794 27.0039 4.82503C26.9596 4.84354 26.9147 4.86132 26.8691 4.87834Z" fill="#B0B0B0"/>
<path d="M25.544 5.12719C24.9142 5.14559 24.3652 5.03131 23.8876 4.82836C24.0209 7.50805 24.3157 8.81307 25.4335 10.6096C26.1847 8.90513 26.5217 7.5081 26.8691 4.87834C26.8605 4.88153 26.8519 4.88469 26.8433 4.88782C26.4617 5.0269 26.0307 5.11298 25.544 5.12719Z" fill="#B0B0B0"/>
<path d="M20.9062 0.631579L20.9061 4.79825C22.2748 7.89934 23.0429 9.6357 25.4335 10.6096C24.3157 8.81307 24.0209 7.50805 23.8876 4.82836C21.518 3.82142 20.9062 0.631579 20.9062 0.631579Z" fill="#B0B0B0"/>
<path d="M20.9062 -0.0263158V0.631579C20.9062 0.631579 21.518 3.82142 23.8876 4.82836C24.3652 5.03131 24.9142 5.14559 25.544 5.12719C26.0307 5.11298 26.4617 5.0269 26.8433 4.88782C26.8519 4.88469 26.8605 4.88153 26.8691 4.87834L27.0039 4.82503C28.5503 4.17794 29.2381 2.64085 29.5329 1.61842C29.6986 1.04369 29.7401 0.631579 29.7401 0.631579V-0.0263158C30.9297 -0.0152159 31.5024 -0.207493 31.8382 -2H19.2497C19.2565 -0.641221 19.4975 -0.101483 20.9062 -0.0263158Z" fill="#B0B0B0"/>
<path d="M39.0158 18.943C39.0158 18.943 37.249 22.1228 32.9424 22.1228C35.3623 24.0379 36.1437 25.456 36.2059 28.8114C37.0455 27.61 37.7237 26.272 38.4637 23.9868L39.0158 18.943Z" fill="#B0B0B0"/>
<path d="M42.2181 34.8421C42.5403 38.1638 46.5247 40.1053 47.5185 42.8465C48.062 42.225 48.5465 41.7189 48.9614 41.2018C48.256 39.2609 47.6049 38.2706 46.1934 36.5965C44.7594 35.4816 43.8801 35.1258 42.2181 34.8421Z" fill="#F9FAFB"/>
<path d="M50.5 37.2544C49.8753 33.2926 49.48 31.125 46.9664 29.3596C47.0159 30.1057 46.2763 32.399 45.8621 33.0877C46.1183 34.5645 46.1749 35.2884 46.1934 36.5965C47.6049 38.2706 48.256 39.2609 48.9614 41.2018C49.7519 40.2166 50.2895 39.1917 50.5 37.2544Z" fill="#F9FAFB"/>
<path d="M41.666 29.3596C40.9323 31.043 40.8082 32.1252 42.2181 34.8421C43.8801 35.1258 44.7594 35.4816 46.1934 36.5965C46.1749 35.2884 46.1183 34.5645 45.8621 33.0877C44.0761 31.8076 42.9137 30.5633 42.1496 29.2369L41.666 29.3596Z" fill="#F9FAFB"/>
<path d="M15.6057 38.7895C13.9346 39.216 14.1655 40.9615 14.391 43.8333L16.9308 40.4899L15.6057 38.7895Z" fill="#B0B0B0"/>
<path d="M16.9308 40.4899L14.391 43.8333C13.5706 45.2782 13.2524 46.1446 13.1764 47.8903H14.0598C15.6551 45.8793 16.3592 44.3086 17.4829 41.1984L16.9308 40.4899Z" fill="#B0B0B0"/>
<path d="M17.4829 41.1984C16.3592 44.3086 15.6551 45.8793 14.0598 47.8903L18.6976 48C18.3096 45.7181 18.3303 44.5665 18.5964 42.6272L17.4829 41.1984Z" fill="#B0B0B0"/>
<path d="M22.7833 48L18.5964 42.6272C18.3303 44.5665 18.3096 45.7181 18.6976 48H22.7833Z" fill="#B0B0B0"/>
<path d="M32.059 42.6901L27.9733 48H32.059V42.6901Z" fill="#B0B0B0"/>
<path d="M32.059 42.6901V48H36.5865C34.6177 45.7913 34.2884 44.0223 33.3841 40.9679L32.059 42.6901Z" fill="#B0B0B0"/>
<path d="M33.3841 40.9679C34.2884 44.0223 34.6177 45.7913 36.5865 48H37.6907C37.1874 46.3535 36.6954 45.0819 36.0325 43.7237C35.5077 42.6486 34.8759 41.5193 34.0467 40.1069L33.3841 40.9679Z" fill="#B0B0B0"/>
<path d="M35.4822 38.2412L34.0467 40.1069C34.8759 41.5193 35.5077 42.6486 36.0325 43.7237C36.8067 41.3962 36.4695 40.2366 35.4822 38.2412Z" fill="#B0B0B0"/>
<path d="M19.1393 33.636C21.226 33.9726 22.5893 34.3457 23.7696 35.3751C24.3293 35.0614 25.3231 34.4035 25.3231 33.4167V30.2368C24.8965 29.9048 24.4935 29.6934 24.1084 29.6886C22.3468 29.0142 21.0066 28.8262 18.8396 28.8114C18.8631 30.1151 18.9603 31.6737 19.1393 33.636Z" fill="#B0B0B0"/>
<path d="M39.0158 18.943L38.4637 23.9868C39.1464 26.2151 39.5782 27.4536 41.666 29.3596L42.1496 29.2369C40.7062 26.7313 40.6836 23.9328 40.5618 20.0475C40.0512 19.7512 39.5627 19.3961 39.0158 18.943Z" fill="#B0B0B0"/>
<path d="M46.9664 29.3596C46.4713 25.8121 46.168 23.8362 43.7641 21.2456C42.3668 20.8871 41.4322 20.5527 40.5618 20.0475C40.6836 23.9328 40.7062 26.7313 42.1496 29.2369C42.9137 30.5633 44.0761 31.8076 45.8621 33.0877C46.2763 32.399 47.0159 30.1057 46.9664 29.3596Z" fill="#B0B0B0"/>
<path d="M6.99257 21.2456C4.29179 23.411 4.46171 25.3495 4.01109 28.4825C4.5125 30.3039 4.77951 31.8104 4.79057 33.1974C6.69505 31.8794 7.94493 30.6125 8.74561 29.25C10.2085 26.7607 10.1719 23.9523 9.88856 19.9298C8.9514 20.4884 8.12986 20.7867 6.99257 21.2456Z" fill="#B0B0B0"/>
<path d="M11.8513 18.5044C11.0861 19.1436 10.4654 19.586 9.88856 19.9298C10.1719 23.9523 10.2085 26.7607 8.74561 29.25C9.02925 29.0379 9.28995 28.8362 9.53234 28.6383C10.857 27.5569 11.6351 26.5886 12.6242 24.6447C13.3716 23.732 13.5915 22.9524 13.6561 21.2456C12.7877 20.5792 12.2805 19.823 11.8513 18.5044Z" fill="#B0B0B0"/>
<path d="M25.544 13.0219V18.5044C25.544 18.5044 26.1125 19.1697 27.1015 19.9298C28.1109 20.7055 29.5582 21.5798 31.2861 21.9463C31.8135 22.0582 32.3671 22.1228 32.9424 22.1228C37.249 22.1228 39.0158 18.943 39.0158 18.943C36.0094 16.4279 35.186 14.8697 34.0467 12.0351C27.9524 10.2596 26.7839 11.016 25.544 13.0219Z" fill="#B0B0B0"/>
<path d="M25.544 18.5044V13.0219C23.604 10.0338 20.6012 11.3572 16.5995 11.5965C15.347 16.1189 14.0567 16.8714 11.8513 18.5044C12.2805 19.823 12.7877 20.5792 13.6561 21.2456C14.0422 21.5419 14.4997 21.8204 15.0536 22.1228C16.0626 22.3773 16.9492 22.4958 17.7553 22.4958C18.4518 22.4959 19.0882 22.4076 19.6914 22.2422C21.1172 21.8514 22.3578 21.0305 23.7696 19.9298C24.327 19.4952 24.9112 19.017 25.544 18.5044Z" fill="#B0B0B0"/>
<path d="M11.8513 18.5044C14.0567 16.8714 15.347 16.1189 16.5995 11.5965C15.2254 10.466 14.4508 10.2135 13.0659 10.0614C13.0659 10.0614 9.86362 10.1711 7.65512 12.0351C5.44662 13.8991 6.99257 21.2456 6.99257 21.2456C8.12986 20.7867 8.9514 20.4884 9.88856 19.9298C10.4654 19.586 11.0861 19.1436 11.8513 18.5044Z" fill="#B0B0B0"/>
<path d="M34.0467 12.0351C35.186 14.8697 36.0094 16.4279 39.0158 18.943C39.5627 19.3961 40.0512 19.7512 40.5618 20.0475C41.4322 20.5527 42.3668 20.8871 43.7641 21.2456C43.7641 21.2456 45.31 15.6535 43.7641 13.0219C42.2181 10.3904 40.1785 11.0842 37.9116 10.0614C35.6556 10.4532 34.852 10.9035 34.0467 12.0351Z" fill="#B0B0B0"/>
<path d="M25.544 13.0219V18.5044M25.544 13.0219C23.604 10.0338 20.6012 11.3572 16.5995 11.5965M25.544 13.0219C26.7839 11.016 27.9524 10.2596 34.0467 12.0351M25.544 18.5044C24.9112 19.017 24.327 19.4952 23.7696 19.9298M25.544 18.5044C25.544 18.5044 26.1125 19.1697 27.1015 19.9298M11.8513 18.5044C14.0567 16.8714 15.347 16.1189 16.5995 11.5965M11.8513 18.5044C11.0861 19.1436 10.4654 19.586 9.88856 19.9298M11.8513 18.5044C12.2805 19.823 12.7877 20.5792 13.6561 21.2456M16.5995 11.5965C15.2254 10.466 14.4508 10.2135 13.0659 10.0614M34.0467 12.0351C35.186 14.8697 36.0094 16.4279 39.0158 18.943M34.0467 12.0351C34.852 10.9035 35.6556 10.4532 37.9116 10.0614M39.0158 18.943C39.0158 18.943 37.249 22.1228 32.9424 22.1228M39.0158 18.943L38.4637 23.9868M39.0158 18.943C39.5627 19.3961 40.0512 19.7512 40.5618 20.0475M32.9424 22.1228C32.3671 22.1228 31.8135 22.0582 31.2861 21.9463M32.9424 22.1228C35.3623 24.0379 36.1437 25.456 36.2059 28.8114M23.7696 19.9298C25.0711 20.6614 25.1479 21.6713 25.3231 23.4386M23.7696 19.9298C22.3578 21.0305 21.1172 21.8514 19.6914 22.2422M25.3231 23.4386C25.571 21.4451 25.7991 20.4517 27.1015 19.9298M25.3231 23.4386C25.1636 23.7922 25.0044 23.955 24.4397 24.1026M25.3231 23.4386C25.5521 23.8215 25.6991 24.0217 26.3169 24.1026M27.1015 19.9298C28.1109 20.7055 29.5582 21.5798 31.2861 21.9463M12.6242 24.6447C13.3716 23.732 13.5915 22.9524 13.6561 21.2456M12.6242 24.6447C13.5352 25.9878 14.2142 27.0217 14.7602 28.1535M12.6242 24.6447C11.6351 26.5886 10.857 27.5569 9.53234 28.6383M15.937 31.5526C15.1159 34.1279 15.0443 35.735 15.6057 38.7895M15.937 31.5526C16.8107 32.4768 17.3698 32.9749 19.1393 33.636M15.937 31.5526C15.6013 30.1741 15.2301 29.1276 14.7602 28.1535M15.6057 38.7895C13.9346 39.216 14.1655 40.9615 14.391 43.8333M15.6057 38.7895L16.9308 40.4899M22.7833 48H27.9733M22.7833 48L18.5964 42.6272M22.7833 48H18.6976M27.9733 48L32.059 42.6901M27.9733 48H32.059M35.4822 38.2412C35.7674 35.2117 35.6845 33.5966 34.378 31.114M35.4822 38.2412L34.0467 40.1069M35.4822 38.2412C36.4695 40.2366 36.8067 41.3962 36.0325 43.7237M34.378 31.114L31.8382 33.1974M34.378 31.114L34.4559 31.021M34.378 31.114C34.4041 31.0828 34.4301 31.0518 34.4559 31.021M38.4637 23.9868C39.1464 26.2151 39.5782 27.4536 41.666 29.3596M38.4637 23.9868C37.7237 26.272 37.0455 27.61 36.2059 28.8114M41.666 29.3596C40.9323 31.043 40.8082 32.1252 42.2181 34.8421M41.666 29.3596L42.1496 29.2369M42.2181 34.8421C42.5403 38.1638 46.5247 40.1053 47.5185 42.8465C48.062 42.225 48.5465 41.7189 48.9614 41.2018M42.2181 34.8421C43.8801 35.1258 44.7594 35.4816 46.1934 36.5965M46.9664 29.3596C49.48 31.125 49.8753 33.2926 50.5 37.2544C50.2895 39.1917 49.7519 40.2166 48.9614 41.2018M46.9664 29.3596C46.4713 25.8121 46.168 23.8362 43.7641 21.2456M46.9664 29.3596C47.0159 30.1057 46.2763 32.399 45.8621 33.0877M43.7641 21.2456C43.7641 21.2456 45.31 15.6535 43.7641 13.0219C42.2181 10.3903 40.1785 11.0842 37.9116 10.0614M43.7641 21.2456C42.3668 20.8871 41.4322 20.5527 40.5618 20.0475M37.9116 10.0614C34.6759 7.74654 32.875 6.54713 29.671 4.4693M40.5618 20.0475C40.6836 23.9328 40.7062 26.7313 42.1496 29.2369M45.8621 33.0877C44.0761 31.8076 42.9137 30.5633 42.1496 29.2369M45.8621 33.0877C46.1183 34.5645 46.1749 35.2884 46.1934 36.5965M46.1934 36.5965C47.6049 38.2706 48.256 39.2609 48.9614 41.2018M4.01109 28.4825C1.6262 29.626 0.110095 33.9396 0.58792 34.8421C0.788297 37.1144 1.29198 38.3866 2.24429 40.6535M4.01109 28.4825C4.46171 25.3495 4.29179 23.411 6.99257 21.2456M4.01109 28.4825C4.51249 30.3039 4.77951 31.8104 4.79057 33.1974M6.99257 21.2456C6.99257 21.2456 5.44662 13.8991 7.65512 12.0351C9.86361 10.1711 13.0659 10.0614 13.0659 10.0614M6.99257 21.2456C8.12986 20.7867 8.9514 20.4884 9.88856 19.9298M13.0659 10.0614C13.331 10.0614 18.4031 6.55263 20.9061 4.79825M20.9061 4.79825L20.9062 0.631579M20.9061 4.79825C22.2748 7.89934 23.0429 9.6357 25.4335 10.6096M2.24429 40.6535C3.22532 39.0607 3.91023 37.7009 4.32076 36.3772M2.24429 40.6535L3.79024 42.6272C5.33619 39.2281 8.41611 38.6131 8.74561 34.3112M9.88856 19.9298C10.1719 23.9523 10.2085 26.7607 8.74561 29.25M4.79057 33.1974C6.69505 31.8794 7.94493 30.6125 8.74561 29.25M4.79057 33.1974C4.79936 34.3001 4.64637 35.3273 4.32076 36.3772M13.6561 21.2456C14.0422 21.5419 14.4997 21.8205 15.0536 22.1228C16.0626 22.3773 16.9492 22.4958 17.7553 22.4958M8.74561 29.25C9.02925 29.0379 9.28995 28.8362 9.53234 28.6383M4.32076 36.3772C6.49597 35.7832 7.8963 35.1294 8.74561 34.3112M8.74561 34.3112C10.0834 33.0222 10.054 31.3253 9.53234 28.8114V28.6383M20.9062 0.631579V-0.0263159C19.4975 -0.101483 19.2565 -0.641221 19.2497 -2H31.8382C31.5024 -0.207493 30.9297 -0.0152158 29.7401 -0.0263159M20.9062 0.631579C20.9062 0.631579 21.518 3.82142 23.8876 4.82836M29.7401 0.631579C29.7401 0.45614 29.7401 0.119883 29.7401 -0.0263159M29.7401 0.631579C29.7401 0.631579 29.6986 1.04369 29.5329 1.61842M29.7401 0.631579V-0.0263159M23.8876 4.82836C24.3652 5.03131 24.9142 5.14559 25.544 5.12719C26.0307 5.11298 26.4617 5.0269 26.8433 4.88782M23.8876 4.82836C24.0209 7.50805 24.3157 8.81307 25.4335 10.6096M25.4335 10.6096C26.1847 8.90513 26.5217 7.5081 26.8691 4.87834M25.4335 10.6096C27.0612 9.44685 27.9571 9.00457 29.7401 5.89474L29.671 4.4693M26.8691 4.87834L27.0039 4.82503M26.8691 4.87834C26.9147 4.86132 26.9596 4.84354 27.0039 4.82503M26.8691 4.87834C26.8605 4.88153 26.8519 4.88469 26.8433 4.88782M29.5329 1.61842L29.671 4.4693M29.5329 1.61842C29.2381 2.64085 28.5503 4.17794 27.0039 4.82503M14.391 43.8333L16.9308 40.4899M14.391 43.8333C13.5706 45.2782 13.2524 46.1446 13.1764 47.8903H14.0598M16.9308 40.4899L17.4829 41.1984M17.4829 41.1984C16.3592 44.3086 15.6551 45.8793 14.0598 47.8903M17.4829 41.1984L18.5964 42.6272M14.0598 47.8903L18.6976 48M18.5964 42.6272C18.3303 44.5665 18.3096 45.7181 18.6976 48M32.059 42.6901V48M32.059 42.6901L33.3841 40.9679M32.059 48H36.5865M33.3841 40.9679C34.2884 44.0223 34.6177 45.7913 36.5865 48M33.3841 40.9679L34.0467 40.1069M36.5865 48H37.6907C37.1874 46.3535 36.6954 45.0819 36.0325 43.7237M34.0467 40.1069C34.8759 41.5193 35.5077 42.6486 36.0325 43.7237M19.1393 33.636C20.5239 41.1184 21.76 44.0894 25.3231 45.807M19.1393 33.636C21.226 33.9726 22.5893 34.3457 23.7696 35.3751M19.1393 33.636C18.9603 31.6737 18.8631 30.1151 18.8396 28.8114M14.7602 28.1535C15.1133 25.442 15.0281 23.7477 17.7553 22.4958M17.7553 22.4958C18.4518 22.4959 19.0882 22.4076 19.6914 22.2422M19.6914 22.2422C19.2863 23.63 19.0112 24.8378 18.8956 26.3991M25.3231 37.2544V45.807M25.3231 37.2544C24.8879 36.3135 24.409 35.666 23.7696 35.3751M25.3231 37.2544C25.93 36.2854 26.4176 35.6894 27.1737 35.5M31.8382 33.1974C30.1955 41.4107 28.9227 44.7327 25.3231 45.807M31.8382 33.1974L32.1695 28.7018M31.8382 33.1974C29.0866 33.9487 28.0694 34.6493 27.1737 35.5M23.7696 35.3751C24.3293 35.0614 25.3231 34.4035 25.3231 33.4167M25.3231 30.2368C25.3231 31.6623 25.3231 32.4298 25.3231 33.4167M25.3231 30.2368C24.8965 29.9048 24.4935 29.6934 24.1084 29.6886M25.3231 30.2368C25.6867 29.9558 26.1506 29.7434 26.6482 29.6886M25.3231 30.2368V33.4167M18.8396 28.8114C21.0066 28.8262 22.3468 29.0142 24.1084 29.6886M18.8396 28.8114C18.8231 27.8996 18.8427 27.1125 18.8956 26.3991M32.1695 28.7018C32.194 27.2387 31.9908 26.4725 31.2861 25.3026M32.1695 28.7018C29.6931 28.7061 28.3785 29.0316 26.6482 29.6886M25.3231 33.4167C25.7984 34.3564 26.1816 34.8238 27.1737 35.5M24.1084 29.6886C24.7219 29.1898 25.0366 28.9329 25.3231 28.1535M25.3231 28.1535V24.7544M25.3231 28.1535C25.6267 28.9361 25.929 29.2505 26.6482 29.6886M25.3231 24.7544C25.1077 24.4533 24.8892 24.2564 24.4397 24.1026M25.3231 24.7544C25.4106 24.527 25.6094 24.3835 26.3169 24.1026M18.8956 26.3991C19.651 24.722 20.6726 24.1798 23.4459 23.8772C23.8731 23.946 24.1916 24.0177 24.4397 24.1026M26.3169 24.1026C28.5232 24.1718 29.8298 24.1056 31.2861 25.3026M31.2861 25.3026C31.7364 24.0783 31.6406 23.3251 31.2861 21.9463M36.2059 28.8114C35.6981 29.5381 35.1312 30.2148 34.4559 31.021M27.0039 4.82503C26.9514 4.847 26.8979 4.86795 26.8433 4.88782" stroke="#1E1E1E"/>
<path d="M19.4306 77.5105C19.2337 78.6789 18.7366 79.6622 17.5964 79.5C16.5052 79.3448 15.9049 78.1833 15.5761 76.875C15.5761 76.875 15.1892 77.75 14.9599 77.625C14.9599 77.625 15.7623 80.125 16.1062 81C16.4501 81.875 17.0233 93.875 17.0233 93.875H18.7427C18.7427 93.875 18.972 85.375 19.2013 84.625C19.4305 83.875 20.0037 80.375 20.0037 79.5C20.0037 78.625 19.4306 77.5105 19.4306 77.5105Z" fill="#B0B0B0"/>
<path d="M14.9599 77.625C14.8306 77.5545 14.5192 77.047 14.2721 76.6177C14.2721 76.6177 12.7819 82.25 13.0111 85.125C13.2404 88 15.1892 93.875 15.1892 93.875H17.0233C17.0233 93.875 16.4501 81.875 16.1062 81C15.7623 80.125 14.9599 77.625 14.9599 77.625Z" fill="#B0B0B0"/>
<path d="M19.4306 74.125C17.5143 73.4209 17.4654 73.2169 17.0338 70.6914C17.0084 70.6914 16.9696 70.6522 16.9192 70.5772C16.9192 70.5772 15.7624 72.75 15.1892 72.875C15.1892 72.875 15.1104 75.0222 15.5761 76.875C15.9049 78.1833 16.5052 79.3448 17.5964 79.5C18.7366 79.6622 19.2337 78.6789 19.4306 77.5105C19.689 75.9771 19.4306 74.125 19.4306 74.125Z" fill="#B0B0B0"/>
<path d="M15.1892 72.875C14.9499 72.9272 14.391 71.7377 13.7794 70.125L13.9282 76L14.2721 76.6177C14.5192 77.047 14.8306 77.5545 14.9599 77.625C15.1892 77.75 15.5761 76.875 15.5761 76.875C15.1104 75.0222 15.1892 72.875 15.1892 72.875Z" fill="#B0B0B0"/>
<path d="M30.7791 81.125C30.6645 80.875 30.7791 77.625 30.7791 77.625C30.6999 77.5818 30.525 77.3896 30.3206 77.1409C30.3206 77.1409 28.8303 83.375 28.945 84.625C29.0596 85.875 30.2059 94 30.2059 94H32.04C32.04 94 32.2693 88.75 32.1547 88.375C32.04 88 30.8937 81.375 30.7791 81.125Z" fill="#B0B0B0"/>
<path d="M32.7278 79.5C32.3839 79.375 31.6961 77.75 31.4669 77.4328C31.4669 77.4328 31.0084 77.75 30.7791 77.625C30.7791 77.625 30.6645 80.875 30.7791 81.125C30.8937 81.375 32.04 88 32.1547 88.375C32.2693 88.75 32.04 94 32.04 94H33.8741C33.8741 94 34.218 81.625 34.3327 81.125C34.4473 80.625 35.479 76.375 35.479 76.375C35.3644 76.75 34.4473 79.125 34.218 79.375C33.9888 79.625 33.0717 79.625 32.7278 79.5Z" fill="#B0B0B0"/>
<path d="M34.3327 81.125C34.218 81.625 33.8741 94 33.8741 94H35.9375C35.9375 94 37.7716 85.25 37.8863 83.875C38.0009 82.5 36.7399 76.375 36.7399 76.375C35.4853 78.2419 35.1354 79.2756 34.3327 81.125Z" fill="#B0B0B0"/>
<path d="M36.1668 73.125C36.0268 73.2013 35.9296 73.231 35.8229 73.2142C35.8229 73.2142 35.5936 76 35.479 76.375C35.479 76.375 34.4473 80.625 34.3327 81.125C35.1354 79.2756 35.4853 78.2419 36.7399 76.375L37.1562 70.3859C36.6527 71.9222 36.2459 73.0819 36.1668 73.125Z" fill="#B0B0B0"/>
<path d="M34.3327 70C34.1034 70.4891 33.9888 70.5 33.4156 70.3859C33.4156 70.3859 32.4986 73.75 32.2693 74C32.1211 74.1616 31.7815 74.2187 31.4669 74.1715C31.4669 74.1715 31.2376 77.1155 31.4669 77.4328C31.6961 77.75 32.3839 79.375 32.7278 79.5C33.0717 79.625 33.9888 79.625 34.218 79.375C34.4473 79.125 35.3644 76.75 35.479 76.375C35.5936 76 35.8229 73.2142 35.8229 73.2142C35.7548 73.2034 35.6829 73.1737 35.5936 73.125C35.3644 73 34.3327 70 34.3327 70Z" fill="#B0B0B0"/>
<path d="M31.0084 74C30.6838 73.7641 28.8283 71.6361 28.5238 70.9768L28.7157 71.5C28.7157 71.5 29.0596 75.375 29.2889 75.75C29.439 75.9955 29.9329 76.6696 30.3206 77.1409C30.525 77.3896 30.6999 77.5818 30.7791 77.625C31.0084 77.75 31.4669 77.4328 31.4669 77.4328C31.2376 77.1155 31.4669 74.1715 31.4669 74.1715C31.2947 74.1456 31.13 74.0884 31.0084 74Z" fill="#B0B0B0"/>
<path d="M25.7353 49.7214C26.3692 55.5933 26.7071 58.9002 28.1426 64.125C29.4273 59.1132 30.0123 56.308 31.708 51.8163C32.5315 48.3322 33.1544 46.4273 32.3115 42.4413C30.0867 45.7822 27.2729 49.3574 25.7353 49.7214Z" fill="#B0B0B0"/>
<path d="M18.0321 41.5663C17.9633 45.5733 18.1304 47.7593 18.7533 51.5663C20.4024 56.6506 21.4976 59.2887 22.5973 64.7839L22.6403 64.5C24.4817 59.5494 24.4817 55.8 25.0475 49.6461C23.3258 48.9375 20.226 44.9334 18.0321 41.5663Z" fill="#B0B0B0"/>
<path d="M19.4306 74.125C19.4306 74.125 19.689 75.9771 19.4306 77.5105C19.4306 77.5105 19.6473 77.365 19.952 77.1257C20.5874 76.6267 21.6054 75.7199 21.8378 74.875C22.1817 73.625 21.7436 71.875 21.7436 71.875C21.1498 73.4747 20.3258 74.4539 19.4306 74.125Z" fill="#B0B0B0"/>
<path d="M19.2013 84.625C18.972 85.375 18.7427 93.875 18.7427 93.875H20.5769C20.5769 93.875 21.7232 84.875 21.7232 83.625C21.7232 82.375 20.0037 77.25 20.0037 77.25L19.952 77.1257C19.6473 77.365 19.4306 77.5105 19.4306 77.5105C19.4306 77.5105 20.0037 78.625 20.0037 79.5C20.0037 80.375 19.4305 83.875 19.2013 84.625Z" fill="#B0B0B0"/>
<path d="M18.7533 51.5663C18.7533 51.5663 17.4923 70.6914 17.0338 70.6914C17.4654 73.2169 17.5143 73.4209 19.4306 74.125C20.3258 74.4539 21.1498 73.4747 21.7436 71.875C22.4208 70.0504 22.7985 67.4185 22.6403 65C22.6259 64.9275 22.6116 64.8555 22.5973 64.7839C21.4976 59.2887 20.4024 56.6506 18.7533 51.5663Z" fill="#B0B0B0"/>
<path d="M16.6038 40.3387C16.6038 40.3387 13.5949 45.6913 12.6778 51.8163C12.5458 52.6983 12.5325 53.7176 12.6081 54.8163C13.0279 60.9259 16.1905 69.4936 16.9192 70.5772C16.9696 70.6522 17.0084 70.6914 17.0338 70.6914C17.4923 70.6914 18.7533 51.5663 18.7533 51.5663C18.1304 47.7593 17.9633 45.5733 18.0321 41.5663C17.6751 41.0185 16.9094 40.8242 16.6038 40.3387Z" fill="#B0B0B0"/>
<path d="M12.6081 54.8163C12.6081 54.8163 12.6115 54.1809 12.4914 53.5C12.4914 53.5 11.0625 60.25 11.6356 63.125C11.9695 64.7998 12.9258 67.8745 13.7794 70.125C14.391 71.7377 14.9499 72.9272 15.1892 72.875C15.7624 72.75 16.9192 70.5772 16.9192 70.5772C16.1905 69.4936 13.0279 60.9259 12.6081 54.8163Z" fill="#B0B0B0"/>
<path d="M32.3115 42.4413C33.1544 46.4273 32.5315 48.3322 31.708 51.8163C31.708 51.8163 32.8425 70.2717 33.4156 70.3859C33.9888 70.5 34.1034 70.4891 34.3327 70C34.5275 69.5842 37.4553 59.3997 38.3295 55.125C38.4837 54.3705 38.5741 53.8001 38.5741 53.5C38.5741 53.2135 38.4988 52.827 38.3698 52.375C37.5984 49.6715 34.9058 44.625 34.9058 44.625L33.5079 41.2031C33.0425 41.9424 32.8853 41.5797 32.3115 42.4413Z" fill="#B0B0B0"/>
<path d="M31.708 51.8163C30.0123 56.308 29.4273 59.1132 28.1426 64.125C28.1426 64.125 28.3718 70.375 28.4865 70.875L28.5238 70.9768C28.8283 71.6361 30.6838 73.7641 31.0084 74C31.13 74.0884 31.2947 74.1456 31.4669 74.1715C31.7815 74.2187 32.1211 74.1616 32.2693 74C32.4986 73.75 33.4156 70.3859 33.4156 70.3859C32.8425 70.2717 31.708 51.8163 31.708 51.8163Z" fill="#B0B0B0"/>
<path d="M34.3327 70C34.3327 70 35.3644 73 35.5936 73.125C35.6829 73.1737 35.7548 73.2034 35.8229 73.2142C35.9296 73.231 36.0268 73.2013 36.1668 73.125C36.2459 73.0819 36.6527 71.9222 37.1562 70.3859C38.1118 67.4703 39.416 63.198 39.4911 62.625C39.6057 61.75 38.5741 55.875 38.5741 55.875L38.3295 55.125C37.4553 59.3997 34.5275 69.5842 34.3327 70Z" fill="#B0B0B0"/>
<path d="M17.0338 70.6914C17.4923 70.6914 18.7533 51.5663 18.7533 51.5663M17.0338 70.6914C17.4654 73.2169 17.5143 73.4209 19.4306 74.125M17.0338 70.6914C17.0084 70.6914 16.9696 70.6522 16.9192 70.5772M18.7533 51.5663C18.1304 47.7593 17.9633 45.5733 18.0321 41.5663M18.7533 51.5663C20.4024 56.6506 21.4976 59.2887 22.5973 64.7839M18.0321 41.5663C17.6751 41.0185 16.9094 40.8242 16.6038 40.3387C16.6038 40.3387 13.5949 45.6913 12.6778 51.8163C12.5458 52.6983 12.5325 53.7176 12.6081 54.8163M18.0321 41.5663C20.226 44.9334 23.3258 48.9375 25.0475 49.6461M19.4306 74.125C19.4306 74.125 19.689 75.9771 19.4306 77.5105M19.4306 74.125C20.3258 74.4539 21.1498 73.4747 21.7436 71.875M25.0475 49.6461C25.2127 49.7141 25.3662 49.75 25.5061 49.75C25.5789 49.75 25.6554 49.7403 25.7353 49.7214M25.0475 49.6461C24.4817 55.8 24.4817 59.5494 22.6403 64.5L22.5973 64.7839M12.6081 54.8163C12.6081 54.8163 12.6115 54.1809 12.4914 53.5M12.6081 54.8163C13.0279 60.9259 16.1905 69.4936 16.9192 70.5772M12.4914 53.5C12.2188 51.954 11.8459 49.187 12.3234 47.625C12.625 46.6383 13.4457 44.786 14.2721 43.0172M12.4914 53.5C12.4914 53.5 11.0625 60.25 11.6356 63.125C11.9695 64.7998 12.9258 67.8745 13.7794 70.125M15.1892 72.875C15.7624 72.75 16.9192 70.5772 16.9192 70.5772M15.1892 72.875C14.9499 72.9272 14.391 71.7377 13.7794 70.125M15.1892 72.875C15.1892 72.875 15.1104 75.0222 15.5761 76.875M19.4306 77.5105C19.2337 78.6789 18.7366 79.6622 17.5964 79.5C16.5052 79.3448 15.9049 78.1833 15.5761 76.875M19.4306 77.5105C19.4306 77.5105 20.0037 78.625 20.0037 79.5C20.0037 80.375 19.4305 83.875 19.2013 84.625C18.972 85.375 18.7427 93.875 18.7427 93.875M19.4306 77.5105C19.4306 77.5105 19.6473 77.365 19.952 77.1257M21.7436 71.875C22.4208 70.0504 22.7985 67.4185 22.6403 65C22.6259 64.9275 22.6116 64.8555 22.5973 64.7839M21.7436 71.875C21.7436 71.875 22.1817 73.625 21.8378 74.875C21.6054 75.7199 20.5874 76.6267 19.952 77.1257M13.7794 70.125L13.9282 76M13.9282 76C13.9282 76 14.0809 76.2855 14.2721 76.6177M13.9282 76L14.2721 76.6177M14.9599 77.625C15.1892 77.75 15.5761 76.875 15.5761 76.875M14.9599 77.625C14.8306 77.5545 14.5192 77.047 14.2721 76.6177M14.9599 77.625C14.9599 77.625 15.7623 80.125 16.1062 81C16.4501 81.875 17.0233 93.875 17.0233 93.875M14.2721 76.6177C14.2721 76.6177 12.7819 82.25 13.0111 85.125C13.2404 88 15.1892 93.875 15.1892 93.875H17.0233M17.0233 93.875H18.7427M18.7427 93.875H20.5769C20.5769 93.875 21.7232 84.875 21.7232 83.625C21.7232 82.375 20.0037 77.25 20.0037 77.25L19.952 77.1257M25.7353 49.7214C26.3692 55.5933 26.7071 58.9002 28.1426 64.125M25.7353 49.7214C27.2729 49.3574 30.0867 45.7822 32.3115 42.4413M28.1426 64.125C29.4273 59.1132 30.0123 56.308 31.708 51.8163M28.1426 64.125C28.1426 64.125 28.3718 70.375 28.4865 70.875M31.708 51.8163C32.5315 48.3322 33.1544 46.4273 32.3115 42.4413M31.708 51.8163C31.708 51.8163 32.8425 70.2717 33.4156 70.3859M32.3115 42.4413C32.8853 41.5797 33.0425 41.9424 33.5079 41.2031L34.9058 44.625C34.9058 44.625 37.5984 49.6715 38.3698 52.375M33.4156 70.3859C33.9888 70.5 34.1034 70.4891 34.3327 70M33.4156 70.3859C33.4156 70.3859 32.4986 73.75 32.2693 74C32.1211 74.1616 31.7815 74.2187 31.4669 74.1715M34.3327 70C34.3327 70 35.3644 73 35.5936 73.125C35.6829 73.1737 35.7548 73.2034 35.8229 73.2142M34.3327 70C34.5275 69.5842 37.4553 59.3997 38.3295 55.125M28.4865 70.875L28.5238 70.9768M28.4865 70.875C28.4929 70.9032 28.5056 70.9374 28.5238 70.9768M31.4669 74.1715C31.2947 74.1456 31.13 74.0884 31.0084 74C30.6838 73.7641 28.8283 71.6361 28.5238 70.9768M31.4669 74.1715C31.4669 74.1715 31.2376 77.1155 31.4669 77.4328M31.4669 77.4328C31.6961 77.75 32.3839 79.375 32.7278 79.5C33.0717 79.625 33.9888 79.625 34.218 79.375C34.4473 79.125 35.3644 76.75 35.479 76.375M31.4669 77.4328C31.4669 77.4328 31.0084 77.75 30.7791 77.625M35.479 76.375C35.5936 76 35.8229 73.2142 35.8229 73.2142M35.479 76.375C35.479 76.375 34.4473 80.625 34.3327 81.125M35.8229 73.2142C35.9296 73.231 36.0268 73.2013 36.1668 73.125C36.2459 73.0819 36.6527 71.9222 37.1562 70.3859M30.7791 77.625C30.7791 77.625 30.6645 80.875 30.7791 81.125C30.8937 81.375 32.04 88 32.1547 88.375C32.2693 88.75 32.04 94 32.04 94M30.7791 77.625C30.6999 77.5818 30.525 77.3896 30.3206 77.1409M34.3327 81.125C34.218 81.625 33.8741 94 33.8741 94M34.3327 81.125C35.1354 79.2756 35.4853 78.2419 36.7399 76.375M33.8741 94H32.04M33.8741 94H35.9375C35.9375 94 37.7716 85.25 37.8863 83.875C38.0009 82.5 36.7399 76.375 36.7399 76.375M32.04 94H30.2059C30.2059 94 29.0596 85.875 28.945 84.625C28.8303 83.375 30.3206 77.1409 30.3206 77.1409M30.3206 77.1409C29.9329 76.6696 29.439 75.9955 29.2889 75.75C29.0596 75.375 28.7157 71.5 28.7157 71.5L28.5238 70.9768M36.7399 76.375L37.1562 70.3859M37.1562 70.3859C38.1118 67.4703 39.416 63.198 39.4911 62.625C39.6057 61.75 38.5741 55.875 38.5741 55.875L38.3295 55.125M38.3295 55.125C38.4837 54.3705 38.5741 53.8001 38.5741 53.5C38.5741 53.2135 38.4988 52.827 38.3698 52.375M38.3698 52.375C38.3698 52.375 38.3295 46.75 37.657 45.25C37.4285 44.7402 36.9861 43.8406 36.5016 42.875M25.5061 45.0001V37" stroke="#1E1E1E"/>
</g>
</svg>
