<svg width="51" height="52" viewBox="0 0 51 52" fill="none" xmlns="http://www.w3.org/2000/svg">
<mask id="mask0_34714_7822" style="mask-type:alpha" maskUnits="userSpaceOnUse" x="-3" y="-2" width="56" height="56">
<circle cx="25" cy="26.001" r="27.5" fill="#303030"/>
</mask>
<g mask="url(#mask0_34714_7822)">
<path d="M31.8382 36.4013L32.1695 31.8158C29.6932 31.8202 28.3785 32.1522 26.6482 32.8224C26.1506 32.8782 25.6867 33.0949 25.3231 33.3816V36.625C25.7984 37.5835 26.1816 38.0603 27.1737 38.75C28.0694 37.8823 29.0866 37.1677 31.8382 36.4013Z" fill="#B0B0B0"/>
<path d="M25.3231 27.7895V31.2566C25.6267 32.0548 25.9291 32.3755 26.6482 32.8224C28.3785 32.1522 29.6932 31.8202 32.1695 31.8158C32.194 30.3235 31.9908 29.542 31.2861 28.3487C29.8298 27.1278 28.5232 27.1952 26.3169 27.1246C25.6094 27.4111 25.4106 27.5575 25.3231 27.7895Z" fill="#B0B0B0"/>
<path d="M18.8396 31.9276C21.0066 31.9428 22.3468 32.1345 24.1084 32.8224C24.7219 32.3136 25.0366 32.0515 25.3231 31.2566V27.7895C25.1077 27.4824 24.8892 27.2815 24.4397 27.1246C24.1916 27.0381 23.8731 26.9649 23.4459 26.8947C20.6726 27.2034 19.651 27.7565 18.8956 29.4671C18.8427 30.1947 18.8231 30.9976 18.8396 31.9276Z" fill="#B0B0B0"/>
<path d="M27.1016 22.8684C25.7991 23.4007 25.571 24.414 25.3231 26.4474C25.5521 26.8379 25.6991 27.0421 26.3169 27.1246C28.5232 27.1952 29.8298 27.1278 31.2861 28.3487C31.7364 27.0998 31.6406 26.3316 31.2861 24.9253C29.5582 24.5514 28.1109 23.6596 27.1016 22.8684Z" fill="#B0B0B0"/>
<path d="M15.937 34.7237C16.8107 35.6663 17.3698 36.1744 19.1393 36.8487C18.9603 34.8472 18.8631 33.2574 18.8396 31.9276C18.8231 30.9976 18.8427 30.1947 18.8956 29.4671C19.0113 27.8745 19.2863 26.6426 19.6914 25.227C19.0882 25.3957 18.4518 25.4858 17.7553 25.4858C15.0281 26.7626 15.1133 28.4909 14.7602 31.2566C15.2301 32.2501 15.6013 33.3176 15.937 34.7237Z" fill="#B0B0B0"/>
<path d="M15.0536 25.1053C14.4997 24.7969 14.0422 24.5127 13.6561 24.2105C13.5915 25.9514 13.3716 26.7466 12.6242 27.6776C13.5352 29.0476 14.2142 30.1022 14.7602 31.2566C15.1133 28.4909 15.0281 26.7626 17.7553 25.4858C16.9492 25.4857 16.0626 25.3649 15.0536 25.1053Z" fill="#B0B0B0"/>
<path d="M8.74561 32.375C7.94493 33.7647 6.69505 35.0569 4.79057 36.4013C4.79936 37.5261 4.64637 38.5738 4.32076 39.6447C6.49597 39.0389 7.8963 38.372 8.74561 37.5374C10.0834 36.2227 10.054 34.4918 9.53234 31.9276V31.7511C9.28995 31.9529 9.02925 32.1586 8.74561 32.375Z" fill="#B0B0B0"/>
<path d="M4.32076 39.6447C3.91023 40.9949 3.22532 42.3819 2.24429 44.0066L3.79024 46.0197C5.33619 42.5526 8.41611 41.9254 8.74561 37.5374C7.8963 38.372 6.49597 39.0389 4.32076 39.6447Z" fill="#B0B0B0"/>
<path d="M4.01109 31.5921C1.6262 32.7585 0.110095 37.1584 0.58792 38.0789C0.788297 40.3967 1.29198 41.6944 2.24429 44.0066C3.22532 42.3819 3.91023 40.9949 4.32076 39.6447C4.64637 38.5738 4.79936 37.5261 4.79057 36.4013C4.77951 34.9866 4.5125 33.45 4.01109 31.5921Z" fill="#B0B0B0"/>
<path d="M15.937 34.7237C15.1159 37.3505 15.0443 38.9897 15.6057 42.1053L16.9308 43.8397L17.4829 44.5623L18.5964 46.0197L22.7833 51.5H27.9733L32.059 46.0839L33.3841 44.3273L34.0467 43.449L35.4822 41.5461C35.7674 38.4559 35.6845 36.8085 34.378 34.2763L31.8382 36.4013C30.1955 44.7789 28.9227 48.1673 25.3231 49.2632C21.76 47.5112 20.5239 44.4807 19.1393 36.8487C17.3698 36.1744 16.8107 35.6663 15.937 34.7237Z" fill="#B0B0B0"/>
<path d="M25.3231 49.2632V40.5395C24.8879 39.5797 24.409 38.9193 23.7696 38.6226C22.5893 37.5726 21.226 37.192 19.1393 36.8487C20.5239 44.4807 21.76 47.5112 25.3231 49.2632Z" fill="#B0B0B0"/>
<path d="M25.3231 49.2632C28.9227 48.1673 30.1955 44.7789 31.8382 36.4013C29.0866 37.1677 28.0694 37.8823 27.1737 38.75C26.4176 38.9432 25.93 39.5511 25.3231 40.5395V49.2632Z" fill="#B0B0B0"/>
<path d="M23.7696 38.6226C24.409 38.9193 24.8879 39.5797 25.3231 40.5395C25.93 39.5511 26.4176 38.9432 27.1737 38.75C26.1816 38.0603 25.7984 37.5835 25.3231 36.625C25.3231 37.6316 24.3293 38.3026 23.7696 38.6226Z" fill="#B0B0B0"/>
<path d="M31.8382 36.4013L34.378 34.2763L34.4559 34.1814C35.1312 33.3591 35.6981 32.6688 36.2059 31.9276C36.1437 28.5051 35.3623 27.0587 32.9424 25.1053C32.3671 25.1053 31.8135 25.0394 31.2861 24.9253C31.6406 26.3316 31.7364 27.0998 31.2861 28.3487C31.9908 29.542 32.194 30.3235 32.1695 31.8158L31.8382 36.4013Z" fill="#B0B0B0"/>
<path d="M24.1084 32.8224C24.4935 32.8273 24.8965 33.0429 25.3231 33.3816C25.6867 33.0949 26.1506 32.8782 26.6482 32.8224C25.9291 32.3755 25.6267 32.0548 25.3231 31.2566C25.0366 32.0515 24.7219 32.3136 24.1084 32.8224Z" fill="#B0B0B0"/>
<path d="M25.544 21.4145C24.9112 21.9373 24.327 22.4251 23.7696 22.8684C25.0711 23.6146 25.1479 24.6447 25.3231 26.4474C25.571 24.414 25.7991 23.4007 27.1016 22.8684C26.1125 22.0931 25.544 21.4145 25.544 21.4145Z" fill="#B0B0B0"/>
<path d="M25.3231 26.4474C25.1479 24.6447 25.0711 23.6146 23.7696 22.8684C22.3578 23.9911 21.1172 24.8284 19.6914 25.227C19.2863 26.6426 19.0113 27.8745 18.8956 29.4671C19.651 27.7565 20.6726 27.2034 23.4459 26.8947C23.8731 26.9649 24.1916 27.0381 24.4397 27.1246C25.0044 26.9741 25.1636 26.8081 25.3231 26.4474Z" fill="#B0B0B0"/>
<path d="M16.5995 14.3684C20.6012 14.1243 23.604 12.7745 25.544 15.8224C26.7839 13.7763 27.9524 13.0048 34.0467 14.8158C34.852 13.6615 35.6556 13.2023 37.9116 12.8026C34.6759 10.4415 32.875 9.21807 29.671 7.09868L29.7401 8.55263C27.9571 11.7247 27.0612 12.1758 25.4335 13.3618C23.0429 12.3684 22.2748 10.5973 20.9061 7.43421C18.4031 9.22368 13.331 12.8026 13.0659 12.8026C14.4508 12.9577 15.2254 13.2153 16.5995 14.3684Z" fill="#B0B0B0"/>
<path d="M26.8691 7.51591C26.5217 10.1983 26.1847 11.6232 25.4335 13.3618C27.0612 12.1758 27.9571 11.7247 29.7401 8.55263L29.671 7.09868L29.5329 4.19079C29.2381 5.23367 28.5503 6.8015 27.0039 7.46153C26.9597 7.48041 26.9147 7.49855 26.8691 7.51591Z" fill="#B0B0B0"/>
<path d="M25.544 7.76974C24.9142 7.7885 24.3652 7.67194 23.8876 7.46493C24.0209 10.1982 24.3157 11.5293 25.4335 13.3618C26.1847 11.6232 26.5217 10.1983 26.8691 7.51591C26.8605 7.51916 26.8519 7.52238 26.8433 7.52558C26.4617 7.66744 26.0307 7.75524 25.544 7.76974Z" fill="#B0B0B0"/>
<path d="M20.9062 3.18421L20.9061 7.43421C22.2748 10.5973 23.0429 12.3684 25.4335 13.3618C24.3157 11.5293 24.0209 10.1982 23.8876 7.46493C21.518 6.43785 20.9062 3.18421 20.9062 3.18421Z" fill="#B0B0B0"/>
<path d="M20.9062 2.51316V3.18421C20.9062 3.18421 21.518 6.43785 23.8876 7.46493C24.3652 7.67194 24.9142 7.7885 25.544 7.76974C26.0307 7.75524 26.4617 7.66744 26.8433 7.52558C26.8519 7.52238 26.8605 7.51916 26.8691 7.51591L27.0039 7.46153C28.5503 6.8015 29.2381 5.23367 29.5329 4.19079C29.6986 3.60456 29.7401 3.18421 29.7401 3.18421V2.51316C30.9297 2.52448 31.5024 2.32836 31.8382 0.5H19.2497C19.2565 1.88595 19.4975 2.43649 20.9062 2.51316Z" fill="#B0B0B0"/>
<path d="M39.0158 21.8618C39.0158 21.8618 37.249 25.1053 32.9424 25.1053C35.3623 27.0587 36.1437 28.5051 36.2059 31.9276C37.0455 30.7022 37.7237 29.3375 38.4637 27.0066L39.0158 21.8618Z" fill="#B0B0B0"/>
<path d="M42.2181 38.0789C42.5403 41.4671 46.5247 43.4474 47.5185 46.2434C48.062 45.6095 48.5465 45.0932 48.9614 44.5658C48.256 42.5861 47.6049 41.576 46.1934 39.8684C44.7594 38.7313 43.8801 38.3683 42.2181 38.0789Z" fill="#B0B0B0"/>
<path d="M50.5 40.5395C49.8753 36.4985 49.48 34.2875 46.9664 32.4868C47.0159 33.2478 46.2763 35.587 45.8622 36.2895C46.1183 37.7958 46.1749 38.5341 46.1934 39.8684C47.6049 41.576 48.256 42.5861 48.9614 44.5658C49.7519 43.5609 50.2895 42.5155 50.5 40.5395Z" fill="#B0B0B0"/>
<path d="M41.666 32.4868C40.9323 34.2039 40.8082 35.3077 42.2181 38.0789C43.8801 38.3683 44.7594 38.7313 46.1934 39.8684C46.1749 38.5341 46.1183 37.7958 45.8622 36.2895C44.0761 34.9838 42.9137 33.7146 42.1496 32.3616L41.666 32.4868Z" fill="#B0B0B0"/>
<path d="M15.6057 42.1053C13.9346 42.5403 14.1655 44.3207 14.391 47.25L16.9308 43.8397L15.6057 42.1053Z" fill="#B0B0B0"/>
<path d="M16.9308 43.8397L14.391 47.25C13.5706 48.7238 13.2524 49.6075 13.1764 51.3882H14.0598C15.6551 49.3369 16.3592 47.7348 17.4829 44.5623L16.9308 43.8397Z" fill="#B0B0B0"/>
<path d="M17.4829 44.5623C16.3592 47.7348 15.6551 49.3369 14.0598 51.3882L18.6976 51.5C18.3096 49.1724 18.3303 47.9978 18.5964 46.0197L17.4829 44.5623Z" fill="#B0B0B0"/>
<path d="M22.7833 51.5L18.5964 46.0197C18.3303 47.9978 18.3096 49.1724 18.6976 51.5H22.7833Z" fill="#B0B0B0"/>
<path d="M32.059 46.0839L27.9733 51.5H32.059V46.0839Z" fill="#B0B0B0"/>
<path d="M32.059 46.0839V51.5H36.5865C34.6177 49.2471 34.2884 47.4427 33.3841 44.3273L32.059 46.0839Z" fill="#B0B0B0"/>
<path d="M33.3841 44.3273C34.2884 47.4427 34.6177 49.2471 36.5865 51.5H37.6907C37.1874 49.8206 36.6954 48.5236 36.0325 47.1382C35.5077 46.0416 34.8759 44.8897 34.0467 43.449L33.3841 44.3273Z" fill="#B0B0B0"/>
<path d="M35.4822 41.5461L34.0467 43.449C34.8759 44.8897 35.5077 46.0416 36.0325 47.1382C36.8067 44.7641 36.4695 43.5813 35.4822 41.5461Z" fill="#B0B0B0"/>
<path d="M19.1393 36.8487C21.226 37.192 22.5893 37.5726 23.7696 38.6226C24.3293 38.3026 25.3231 37.6316 25.3231 36.625V33.3816C24.8965 33.0429 24.4935 32.8273 24.1084 32.8224C22.3468 32.1345 21.0066 31.9428 18.8396 31.9276C18.8631 33.2574 18.9603 34.8472 19.1393 36.8487Z" fill="#B0B0B0"/>
<path d="M39.0158 21.8618L38.4637 27.0066C39.1464 29.2794 39.5783 30.5427 41.666 32.4868L42.1496 32.3616C40.7062 29.8059 40.6836 26.9515 40.5618 22.9885C40.0512 22.6862 39.5627 22.324 39.0158 21.8618Z" fill="#B0B0B0"/>
<path d="M46.9664 32.4868C46.4713 28.8684 46.168 26.8529 43.7641 24.2105C42.3668 23.8449 41.4322 23.5038 40.5618 22.9885C40.6836 26.9515 40.7062 29.8059 42.1496 32.3616C42.9137 33.7146 44.0761 34.9838 45.8622 36.2895C46.2763 35.587 47.0159 33.2478 46.9664 32.4868Z" fill="#F9FAFB"/>
<path d="M6.99257 24.2105C4.29179 26.4192 4.46172 28.3965 4.01109 31.5921C4.5125 33.45 4.77951 34.9866 4.79057 36.4013C6.69505 35.0569 7.94493 33.7647 8.74561 32.375C10.2085 29.8359 10.1719 26.9714 9.88856 22.8684C8.9514 23.4381 8.12986 23.7425 6.99257 24.2105Z" fill="#F9FAFB"/>
<path d="M11.8513 21.4145C11.0861 22.0664 10.4654 22.5177 9.88856 22.8684C10.1719 26.9714 10.2085 29.8359 8.74561 32.375C9.02925 32.1586 9.28995 31.9529 9.53234 31.7511C10.857 30.6481 11.6351 29.6604 12.6242 27.6776C13.3716 26.7466 13.5915 25.9514 13.6561 24.2105C12.7877 23.5308 12.2805 22.7595 11.8513 21.4145Z" fill="#B0B0B0"/>
<path d="M25.544 15.8224V21.4145C25.544 21.4145 26.1125 22.0931 27.1016 22.8684C28.1109 23.6596 29.5582 24.5514 31.2861 24.9253C31.8135 25.0394 32.3671 25.1053 32.9424 25.1053C37.249 25.1053 39.0158 21.8618 39.0158 21.8618C36.0094 19.2964 35.186 17.7071 34.0467 14.8158C27.9524 13.0048 26.7839 13.7763 25.544 15.8224Z" fill="#B0B0B0"/>
<path d="M25.544 21.4145V15.8224C23.604 12.7745 20.6012 14.1243 16.5995 14.3684C15.347 18.9813 14.0567 19.7488 11.8513 21.4145C12.2805 22.7595 12.7877 23.5308 13.6561 24.2105C14.0422 24.5127 14.4997 24.7969 15.0536 25.1053C16.0626 25.3649 16.9492 25.4857 17.7553 25.4858C18.4518 25.4858 19.0882 25.3957 19.6914 25.227C21.1172 24.8284 22.3578 23.9911 23.7696 22.8684C24.327 22.4251 24.9112 21.9373 25.544 21.4145Z" fill="#B0B0B0"/>
<path d="M11.8513 21.4145C14.0567 19.7488 15.347 18.9813 16.5995 14.3684C15.2254 13.2153 14.4508 12.9577 13.0659 12.8026C13.0659 12.8026 9.86362 12.9145 7.65512 14.8158C5.44662 16.7171 6.99257 24.2105 6.99257 24.2105C8.12986 23.7425 8.9514 23.4381 9.88856 22.8684C10.4654 22.5177 11.0861 22.0664 11.8513 21.4145Z" fill="#B0B0B0"/>
<path d="M34.0467 14.8158C35.186 17.7071 36.0094 19.2964 39.0158 21.8618C39.5627 22.324 40.0512 22.6862 40.5618 22.9885C41.4322 23.5038 42.3668 23.8449 43.7641 24.2105C43.7641 24.2105 45.31 18.5066 43.7641 15.8224C42.2181 13.1382 40.1785 13.8459 37.9116 12.8026C35.6556 13.2023 34.852 13.6615 34.0467 14.8158Z" fill="#B0B0B0"/>
<path d="M25.544 15.8224V21.4145M25.544 15.8224C23.604 12.7745 20.6012 14.1243 16.5995 14.3684M25.544 15.8224C26.7839 13.7763 27.9524 13.0048 34.0467 14.8158M25.544 21.4145C24.9112 21.9373 24.327 22.4251 23.7696 22.8684M25.544 21.4145C25.544 21.4145 26.1125 22.0931 27.1016 22.8684M11.8513 21.4145C14.0567 19.7488 15.347 18.9813 16.5995 14.3684M11.8513 21.4145C11.0861 22.0664 10.4654 22.5177 9.88856 22.8684M11.8513 21.4145C12.2805 22.7595 12.7877 23.5308 13.6561 24.2105M16.5995 14.3684C15.2254 13.2153 14.4508 12.9577 13.0659 12.8026M34.0467 14.8158C35.186 17.7071 36.0094 19.2964 39.0158 21.8618M34.0467 14.8158C34.852 13.6615 35.6556 13.2023 37.9116 12.8026M39.0158 21.8618C39.0158 21.8618 37.249 25.1053 32.9424 25.1053M39.0158 21.8618L38.4637 27.0066M39.0158 21.8618C39.5627 22.324 40.0512 22.6862 40.5618 22.9885M32.9424 25.1053C32.3671 25.1053 31.8135 25.0394 31.2861 24.9253M32.9424 25.1053C35.3623 27.0587 36.1437 28.5051 36.2059 31.9276M23.7696 22.8684C25.0711 23.6146 25.1479 24.6447 25.3231 26.4474M23.7696 22.8684C22.3578 23.9911 21.1172 24.8284 19.6914 25.227M25.3231 26.4474C25.571 24.414 25.7991 23.4007 27.1016 22.8684M25.3231 26.4474C25.1636 26.8081 25.0044 26.9741 24.4397 27.1246M25.3231 26.4474C25.5521 26.8379 25.6991 27.0421 26.3169 27.1246M27.1016 22.8684C28.1109 23.6596 29.5582 24.5514 31.2861 24.9253M12.6242 27.6776C13.3716 26.7466 13.5915 25.9514 13.6561 24.2105M12.6242 27.6776C13.5352 29.0476 14.2142 30.1022 14.7602 31.2566M12.6242 27.6776C11.6351 29.6604 10.857 30.6481 9.53234 31.7511M15.937 34.7237C15.1159 37.3505 15.0443 38.9897 15.6057 42.1053M15.937 34.7237C16.8107 35.6663 17.3698 36.1744 19.1393 36.8487M15.937 34.7237C15.6013 33.3176 15.2301 32.2501 14.7602 31.2566M15.6057 42.1053C13.9346 42.5403 14.1655 44.3207 14.391 47.25M15.6057 42.1053L16.9308 43.8397M22.7833 51.5H27.9733M22.7833 51.5L18.5964 46.0197M22.7833 51.5H18.6976M27.9733 51.5L32.059 46.0839M27.9733 51.5H32.059M35.4822 41.5461C35.7674 38.4559 35.6845 36.8085 34.378 34.2763M35.4822 41.5461L34.0467 43.449M35.4822 41.5461C36.4695 43.5813 36.8067 44.7641 36.0325 47.1382M34.378 34.2763L31.8382 36.4013M34.378 34.2763L34.4559 34.1814M34.378 34.2763C34.4041 34.2445 34.4301 34.2128 34.4559 34.1814M38.4637 27.0066C39.1464 29.2794 39.5782 30.5427 41.666 32.4868M38.4637 27.0066C37.7237 29.3375 37.0455 30.7022 36.2059 31.9276M41.666 32.4868C40.9323 34.2039 40.8082 35.3077 42.2181 38.0789M41.666 32.4868L42.1496 32.3616M42.2181 38.0789C42.5403 41.4671 46.5247 43.4474 47.5185 46.2434C48.062 45.6095 48.5465 45.0932 48.9614 44.5658M42.2181 38.0789C43.8801 38.3683 44.7594 38.7313 46.1934 39.8684M46.9664 32.4868C49.48 34.2875 49.8753 36.4985 50.5 40.5395C50.2895 42.5155 49.7519 43.5609 48.9614 44.5658M46.9664 32.4868C46.4713 28.8684 46.168 26.8529 43.7641 24.2105M46.9664 32.4868C47.0159 33.2478 46.2763 35.587 45.8622 36.2895M43.7641 24.2105C43.7641 24.2105 45.31 18.5066 43.7641 15.8224C42.2181 13.1382 40.1785 13.8459 37.9116 12.8026M43.7641 24.2105C42.3668 23.8449 41.4322 23.5038 40.5618 22.9885M37.9116 12.8026C34.6759 10.4415 32.875 9.21808 29.671 7.09868M40.5618 22.9885C40.6836 26.9515 40.7062 29.8059 42.1496 32.3616M45.8622 36.2895C44.0761 34.9838 42.9137 33.7146 42.1496 32.3616M45.8622 36.2895C46.1183 37.7958 46.1749 38.5341 46.1934 39.8684M46.1934 39.8684C47.6049 41.576 48.256 42.5861 48.9614 44.5658M4.01109 31.5921C1.6262 32.7585 0.110095 37.1584 0.58792 38.0789C0.788297 40.3967 1.29198 41.6944 2.24429 44.0066M4.01109 31.5921C4.46172 28.3965 4.29179 26.4192 6.99257 24.2105M4.01109 31.5921C4.5125 33.45 4.77951 34.9866 4.79057 36.4013M6.99257 24.2105C6.99257 24.2105 5.44662 16.7171 7.65512 14.8158C9.86362 12.9145 13.0659 12.8026 13.0659 12.8026M6.99257 24.2105C8.12986 23.7425 8.9514 23.4381 9.88856 22.8684M13.0659 12.8026C13.331 12.8026 18.4031 9.22368 20.9061 7.43421M20.9061 7.43421L20.9062 3.18421M20.9061 7.43421C22.2748 10.5973 23.0429 12.3684 25.4335 13.3618M2.24429 44.0066C3.22532 42.3819 3.91023 40.9949 4.32076 39.6447M2.24429 44.0066L3.79024 46.0197C5.33619 42.5526 8.41611 41.9254 8.74561 37.5374M9.88856 22.8684C10.1719 26.9714 10.2085 29.8359 8.74561 32.375M4.79057 36.4013C6.69505 35.0569 7.94493 33.7647 8.74561 32.375M4.79057 36.4013C4.79936 37.5261 4.64637 38.5738 4.32076 39.6447M13.6561 24.2105C14.0422 24.5127 14.4997 24.7969 15.0536 25.1053C16.0626 25.3649 16.9492 25.4857 17.7553 25.4858M8.74561 32.375C9.02925 32.1586 9.28995 31.9529 9.53234 31.7511M4.32076 39.6447C6.49597 39.0389 7.8963 38.372 8.74561 37.5374M8.74561 37.5374C10.0834 36.2227 10.054 34.4918 9.53234 31.9276V31.7511M20.9062 3.18421V2.51316C19.4975 2.43649 19.2565 1.88595 19.2497 0.5H31.8382C31.5024 2.32836 30.9297 2.52448 29.7401 2.51316M20.9062 3.18421C20.9062 3.18421 21.518 6.43785 23.8876 7.46493M29.7401 3.18421C29.7401 3.00526 29.7401 2.66228 29.7401 2.51316M29.7401 3.18421C29.7401 3.18421 29.6986 3.60456 29.5329 4.19079M29.7401 3.18421V2.51316M23.8876 7.46493C24.3652 7.67194 24.9142 7.7885 25.544 7.76974C26.0307 7.75524 26.4617 7.66744 26.8433 7.52558M23.8876 7.46493C24.0209 10.1982 24.3157 11.5293 25.4335 13.3618M25.4335 13.3618C26.1847 11.6232 26.5217 10.1983 26.8691 7.51591M25.4335 13.3618C27.0612 12.1758 27.9571 11.7247 29.7401 8.55263L29.671 7.09868M26.8691 7.51591L27.0039 7.46153M26.8691 7.51591C26.9147 7.49855 26.9597 7.48041 27.0039 7.46153M26.8691 7.51591C26.8605 7.51916 26.8519 7.52238 26.8433 7.52558M29.5329 4.19079L29.671 7.09868M29.5329 4.19079C29.2381 5.23367 28.5503 6.8015 27.0039 7.46153M14.391 47.25L16.9308 43.8397M14.391 47.25C13.5706 48.7238 13.2524 49.6075 13.1764 51.3882H14.0598M16.9308 43.8397L17.4829 44.5623M17.4829 44.5623C16.3592 47.7348 15.6551 49.3369 14.0598 51.3882M17.4829 44.5623L18.5964 46.0197M14.0598 51.3882L18.6976 51.5M18.5964 46.0197C18.3303 47.9978 18.3096 49.1724 18.6976 51.5M32.059 46.0839V51.5M32.059 46.0839L33.3841 44.3273M32.059 51.5H36.5865M33.3841 44.3273C34.2884 47.4428 34.6177 49.2471 36.5865 51.5M33.3841 44.3273L34.0467 43.449M36.5865 51.5H37.6907C37.1874 49.8206 36.6954 48.5236 36.0325 47.1382M34.0467 43.449C34.8759 44.8897 35.5077 46.0416 36.0325 47.1382M19.1393 36.8487C20.5239 44.4807 21.76 47.5112 25.3231 49.2632M19.1393 36.8487C21.226 37.192 22.5893 37.5726 23.7696 38.6226M19.1393 36.8487C18.9603 34.8472 18.8631 33.2574 18.8396 31.9276M14.7602 31.2566C15.1133 28.4909 15.0281 26.7626 17.7553 25.4858M17.7553 25.4858C18.4518 25.4858 19.0882 25.3957 19.6914 25.227M19.6914 25.227C19.2863 26.6426 19.0113 27.8745 18.8956 29.4671M25.3231 40.5395V49.2632M25.3231 40.5395C24.8879 39.5797 24.409 38.9193 23.7696 38.6226M25.3231 40.5395C25.93 39.5511 26.4176 38.9432 27.1737 38.75M31.8382 36.4013C30.1955 44.7789 28.9227 48.1673 25.3231 49.2632M31.8382 36.4013L32.1695 31.8158M31.8382 36.4013C29.0866 37.1677 28.0694 37.8823 27.1737 38.75M23.7696 38.6226C24.3293 38.3026 25.3231 37.6316 25.3231 36.625M25.3231 33.3816C25.3231 34.8355 25.3231 35.6184 25.3231 36.625M25.3231 33.3816C24.8965 33.0429 24.4935 32.8273 24.1084 32.8224M25.3231 33.3816C25.6867 33.0949 26.1506 32.8782 26.6482 32.8224M25.3231 33.3816V36.625M18.8396 31.9276C21.0066 31.9428 22.3468 32.1345 24.1084 32.8224M18.8396 31.9276C18.8231 30.9976 18.8427 30.1947 18.8956 29.4671M32.1695 31.8158C32.194 30.3235 31.9908 29.542 31.2861 28.3487M32.1695 31.8158C29.6932 31.8202 28.3785 32.1522 26.6482 32.8224M25.3231 36.625C25.7984 37.5835 26.1816 38.0603 27.1737 38.75M24.1084 32.8224C24.7219 32.3136 25.0366 32.0515 25.3231 31.2566M25.3231 31.2566V27.7895M25.3231 31.2566C25.6267 32.0548 25.9291 32.3755 26.6482 32.8224M25.3231 27.7895C25.1077 27.4824 24.8892 27.2815 24.4397 27.1246M25.3231 27.7895C25.4106 27.5575 25.6094 27.4111 26.3169 27.1246M18.8956 29.4671C19.651 27.7565 20.6726 27.2034 23.4459 26.8947C23.8731 26.9649 24.1916 27.0381 24.4397 27.1246M26.3169 27.1246C28.5232 27.1952 29.8298 27.1278 31.2861 28.3487M31.2861 28.3487C31.7364 27.0998 31.6406 26.3316 31.2861 24.9253M36.2059 31.9276C35.6981 32.6688 35.1312 33.3591 34.4559 34.1814M27.0039 7.46153C26.9514 7.48394 26.8979 7.50531 26.8433 7.52558" stroke="#1E1E1E"/>
</g>
</svg>
