<svg width="55" height="55" viewBox="0 0 55 55" fill="none" xmlns="http://www.w3.org/2000/svg">
<mask id="mask0_34714_7835" style="mask-type:alpha" maskUnits="userSpaceOnUse" x="0" y="-1" width="55" height="56">
<circle cx="27.5" cy="27.001" r="27.5" fill="#303030"/>
</mask>
<g mask="url(#mask0_34714_7835)">
<path d="M39.5425 68.079L40.172 59.4474C35.467 59.4557 32.9692 60.0806 29.6816 61.3421C28.7361 61.4473 27.8548 61.8551 27.1639 62.3947V68.5C28.0669 70.3043 28.7951 71.2017 30.68 72.5C32.3818 70.8666 34.3146 69.5216 39.5425 68.079Z" fill="#B0B0B0"/>
<path d="M27.1639 51.8684V58.3947C27.7407 59.8973 28.3152 60.5009 29.6816 61.3421C32.9692 60.0806 35.467 59.4557 40.172 59.4474C40.2187 56.6383 39.8325 55.1673 38.4935 52.921C35.7267 50.6228 33.2442 50.7498 29.0522 50.617C27.7078 51.1563 27.3301 51.4318 27.1639 51.8684Z" fill="#B0B0B0"/>
<path d="M14.8452 59.6579C18.9626 59.6864 21.5089 60.0473 24.856 61.3421C26.0217 60.3845 26.6196 59.8911 27.1639 58.3947V51.8684C26.7546 51.2904 26.3395 50.9122 25.4855 50.617C25.014 50.454 24.4089 50.3163 23.5972 50.1842C18.3279 50.7653 16.3868 51.8063 14.9516 55.0263C14.8512 56.3959 14.814 57.9072 14.8452 59.6579Z" fill="#B0B0B0"/>
<path d="M30.5429 42.6053C28.0682 43.6073 27.6349 45.5147 27.1639 49.3421C27.599 50.0772 27.8783 50.4617 29.0522 50.617C33.2442 50.7498 35.7267 50.6228 38.4935 52.921C39.3492 50.5703 39.1672 49.1242 38.4935 46.477C35.2105 45.7732 32.4607 44.0945 30.5429 42.6053Z" fill="#B0B0B0"/>
<path d="M9.33028 64.9211C10.9902 66.6954 12.0527 67.6518 15.4147 68.9211C15.0746 65.1536 14.8899 62.161 14.8452 59.6579C14.814 57.9072 14.8512 56.3959 14.9516 55.0263C15.1714 52.0285 15.6939 49.7096 16.4637 47.045C15.3176 47.3625 14.1084 47.5321 12.7851 47.532C7.60336 49.9356 7.76535 53.1887 7.09432 58.3947C7.9871 60.265 8.69253 62.2743 9.33028 64.9211Z" fill="#B0B0B0"/>
<path d="M7.65182 46.8158C6.5995 46.2353 5.73022 45.7004 4.99663 45.1316C4.8739 48.4086 4.45608 49.9054 3.03605 51.6579C4.76683 54.2366 6.05703 56.2218 7.09432 58.3947C7.76535 53.1887 7.60336 49.9356 12.7851 47.532C11.2535 47.5319 9.56891 47.3045 7.65182 46.8158Z" fill="#B0B0B0"/>
<path d="M-4.33333 60.5C-5.85464 63.116 -8.22941 65.5484 -11.8479 68.079C-11.8312 70.1962 -12.1219 72.1684 -12.7406 74.1842C-8.60766 73.0438 -5.94702 71.7885 -4.33333 70.2174C-1.79151 67.7427 -1.84731 64.4845 -2.83855 59.6579V59.3256C-3.2991 59.7055 -3.79442 60.0927 -4.33333 60.5Z" fill="#B0B0B0"/>
<path d="M-12.7406 74.1842C-13.5206 76.7257 -14.8219 79.3365 -16.6858 82.3947L-13.7485 86.1842C-10.8112 79.6579 -4.9594 78.4772 -4.33333 70.2174C-5.94702 71.7885 -8.60766 73.0438 -12.7406 74.1842Z" fill="#B0B0B0"/>
<path d="M-13.3289 59.0263C-17.8602 61.2218 -20.7408 69.504 -19.833 71.2368C-19.4522 75.5997 -18.4952 78.0423 -16.6858 82.3947C-14.8219 79.3365 -13.5206 76.7257 -12.7406 74.1842C-12.1219 72.1684 -11.8312 70.1962 -11.8479 68.079C-11.8689 65.4159 -12.3763 62.5235 -13.3289 59.0263Z" fill="#B0B0B0"/>
<path d="M9.33028 64.9211C7.77014 69.8656 7.63418 72.9511 8.70086 78.8158L11.2185 82.0806L12.2676 83.4409L14.3831 86.1842L22.3383 96.5H32.1993L39.9622 86.3049L42.4798 82.9985L43.7387 81.3452L46.4662 77.7632C47.0082 71.9464 46.8506 68.8455 44.3681 64.0789L39.5425 68.079C36.4215 83.8485 34.0032 90.2268 27.1639 92.2895C20.394 88.9917 18.0455 83.2872 15.4147 68.9211C12.0527 67.6518 10.9902 66.6954 9.33028 64.9211Z" fill="#B0B0B0"/>
<path d="M27.1639 92.2895V75.8684C26.337 74.0619 25.4271 72.8187 24.2122 72.2602C21.9696 70.2837 19.3795 69.5673 15.4147 68.9211C18.0455 83.2872 20.394 88.9917 27.1639 92.2895Z" fill="#B0B0B0"/>
<path d="M27.1639 92.2895C34.0032 90.2268 36.4215 83.8485 39.5425 68.079C34.3146 69.5216 32.3818 70.8666 30.68 72.5C29.2435 72.8637 28.317 74.008 27.1639 75.8684V92.2895Z" fill="#B0B0B0"/>
<path d="M24.2122 72.2602C25.4271 72.8187 26.337 74.0619 27.1639 75.8684C28.317 74.008 29.2435 72.8637 30.68 72.5C28.7951 71.2017 28.0669 70.3043 27.1639 68.5C27.1639 70.3947 25.2756 71.6579 24.2122 72.2602Z" fill="#B0B0B0"/>
<path d="M39.5425 68.079L44.3681 64.0789L44.5162 63.9003C45.7993 62.3524 46.8763 61.0531 47.8412 59.6579C47.7231 53.2154 46.2385 50.4928 41.6406 46.8158C40.5476 46.8158 39.4957 46.6918 38.4935 46.477C39.1672 49.1242 39.3492 50.5703 38.4935 52.921C39.8325 55.1673 40.2187 56.6383 40.172 59.4474L39.5425 68.079Z" fill="#B0B0B0"/>
<path d="M24.856 61.3421C25.5877 61.3514 26.3534 61.7572 27.1639 62.3947C27.8548 61.8551 28.7361 61.4473 29.6816 61.3421C28.3152 60.5009 27.7407 59.8973 27.1639 58.3947C26.6196 59.8911 26.0217 60.3845 24.856 61.3421Z" fill="#B0B0B0"/>
<path d="M27.5835 39.8684C26.3813 40.8526 25.2714 41.7708 24.2122 42.6053C26.6852 44.0099 26.831 45.9488 27.1639 49.3421C27.6349 45.5147 28.0682 43.6073 30.5429 42.6053C28.6637 41.1459 27.5835 39.8684 27.5835 39.8684Z" fill="#B0B0B0"/>
<path d="M27.1639 49.3421C26.831 45.9488 26.6852 44.0099 24.2122 42.6053C21.5298 44.7185 19.1726 46.2947 16.4637 47.045C15.6939 49.7096 15.1714 52.0285 14.9516 55.0263C16.3868 51.8063 18.3279 50.7653 23.5972 50.1842C24.4089 50.3163 25.014 50.454 25.4855 50.617C26.5584 50.3337 26.8609 50.0211 27.1639 49.3421Z" fill="#B0B0B0"/>
<path d="M10.5891 26.6053C18.1923 26.1458 23.8975 23.605 27.5835 29.3421C29.9395 25.4907 32.1596 24.0384 43.7387 27.4474C45.2688 25.2746 46.7957 24.4102 51.082 23.6579C44.9343 19.2134 41.5125 16.9105 35.425 12.9211L35.5562 15.6579C32.1685 21.6288 30.4663 22.478 27.3737 24.7105C22.8315 22.8405 21.3721 19.5067 18.7716 13.5526C14.016 16.9211 4.37882 23.6579 3.87529 23.6579C6.50652 23.9499 7.9783 24.4347 10.5891 26.6053Z" fill="#B0B0B0"/>
<path d="M30.1012 13.7064C29.4412 18.7555 28.801 21.4378 27.3737 24.7105C30.4663 22.478 32.1685 21.6288 35.5562 15.6579L35.425 12.9211L35.1625 7.44737C34.6025 9.41044 33.2956 12.3616 30.3574 13.6041C30.2733 13.6396 30.188 13.6737 30.1012 13.7064Z" fill="#F9FAFB"/>
<path d="M27.5835 14.1842C26.3869 14.2195 25.3438 14.0001 24.4364 13.6105C24.6896 18.7554 25.2498 21.2611 27.3737 24.7105C28.801 21.4378 29.4412 18.7555 30.1012 13.7064C30.085 13.7125 30.0687 13.7186 30.0523 13.7246C29.3273 13.9916 28.5083 14.1569 27.5835 14.1842Z" fill="#F9FAFB"/>
<path d="M18.7717 5.55263L18.7716 13.5526C21.3721 19.5067 22.8315 22.8405 27.3737 24.7105C25.2498 21.2611 24.6896 18.7554 24.4364 13.6105C19.9342 11.6771 18.7717 5.55263 18.7717 5.55263Z" fill="#F9FAFB"/>
<path d="M18.7717 4.28947V5.55263C18.7717 5.55263 19.9342 11.6771 24.4364 13.6105C25.3438 14.0001 26.3869 14.2195 27.5835 14.1842C28.5083 14.1569 29.3273 13.9916 30.0523 13.7246C30.0687 13.7186 30.085 13.7125 30.1012 13.7064L30.3574 13.6041C33.2956 12.3616 34.6025 9.41044 35.1625 7.44737C35.4773 6.34388 35.5562 5.55263 35.5562 5.55263V4.28947C37.8164 4.31079 38.9046 3.94161 39.5425 0.5H15.6245C15.6373 3.10885 16.0952 4.14515 18.7717 4.28947Z" fill="#B0B0B0"/>
<path d="M53.18 40.7105C53.18 40.7105 49.8231 46.8158 41.6406 46.8158C46.2385 50.4928 47.7231 53.2154 47.8412 59.6579C49.4364 57.3511 50.725 54.7823 52.131 50.3947L53.18 40.7105Z" fill="#B0B0B0"/>
<path d="M59.2644 71.2368C59.8765 77.6145 67.4469 81.3421 69.3352 86.6053C70.3677 85.4121 71.2884 84.4402 72.0767 83.4474C70.7363 79.7209 69.4994 77.8195 66.8175 74.6053C64.0928 72.4648 62.4221 71.7815 59.2644 71.2368Z" fill="#B0B0B0"/>
<path d="M75 75.8684C73.813 68.2619 73.0619 64.1 68.2862 60.7105C68.3803 62.1429 66.9749 66.5461 66.1881 67.8684C66.6747 70.7038 66.7823 72.0936 66.8175 74.6053C69.4994 77.8195 70.7363 79.7209 72.0767 83.4474C73.5785 81.5558 74.6001 79.588 75 75.8684Z" fill="#B0B0B0"/>
<path d="M58.2154 60.7105C56.8214 63.9426 56.5855 66.0205 59.2644 71.2368C62.4221 71.7815 64.0928 72.4648 66.8175 74.6053C66.7823 72.0936 66.6747 70.7038 66.1881 67.8684C62.7945 65.4107 60.5861 63.0215 59.1343 60.4748L58.2154 60.7105Z" fill="#B0B0B0"/>
<path d="M8.70086 78.8158C5.52568 79.6347 5.96442 82.986 6.39297 88.5L11.2185 82.0806L8.70086 78.8158Z" fill="#B0B0B0"/>
<path d="M11.2185 82.0806L6.39297 88.5C4.83421 91.2742 4.22949 92.9377 4.08509 96.2895H5.76355C8.79476 92.4282 10.1326 89.4125 12.2676 83.4409L11.2185 82.0806Z" fill="#B0B0B0"/>
<path d="M12.2676 83.4409C10.1326 89.4125 8.79476 92.4282 5.76355 96.2895L14.5755 96.5C13.8383 92.1187 13.8775 89.9076 14.3831 86.1842L12.2676 83.4409Z" fill="#B0B0B0"/>
<path d="M22.3383 96.5L14.3831 86.1842C13.8775 89.9076 13.8383 92.1187 14.5755 96.5H22.3383Z" fill="#B0B0B0"/>
<path d="M39.9622 86.3049L32.1993 96.5H39.9622V86.3049Z" fill="#B0B0B0"/>
<path d="M39.9622 86.3049V96.5H48.5643C44.8237 92.2593 44.198 88.8628 42.4798 82.9985L39.9622 86.3049Z" fill="#B0B0B0"/>
<path d="M42.4798 82.9985C44.198 88.8628 44.8237 92.2593 48.5643 96.5H50.6623C49.7061 93.3388 48.7713 90.8973 47.5117 88.2895C46.5147 86.2254 45.3142 84.0571 43.7387 81.3452L42.4798 82.9985Z" fill="#B0B0B0"/>
<path d="M46.4662 77.7632L43.7387 81.3452C45.3142 84.0571 46.5147 86.2254 47.5117 88.2895C48.9827 83.8207 48.3421 81.5943 46.4662 77.7632Z" fill="#B0B0B0"/>
<path d="M15.4147 68.9211C19.3795 69.5673 21.9696 70.2837 24.2122 72.2602C25.2756 71.6579 27.1639 70.3947 27.1639 68.5V62.3947C26.3534 61.7572 25.5877 61.3514 24.856 61.3421C21.5089 60.0473 18.9626 59.6864 14.8452 59.6579C14.8899 62.161 15.0746 65.1536 15.4147 68.9211Z" fill="#B0B0B0"/>
<path d="M53.18 40.7105L52.131 50.3947C53.4281 54.673 54.2487 57.051 58.2154 60.7105L59.1343 60.4748C56.3918 55.664 56.3489 50.291 56.1173 42.8312C55.1473 42.2623 54.2191 41.5805 53.18 40.7105Z" fill="#B0B0B0"/>
<path d="M68.2862 60.7105C67.3455 53.8993 66.7693 50.1054 62.2017 45.1316C59.5468 44.4433 57.7712 43.8012 56.1173 42.8312C56.3489 50.291 56.3918 55.664 59.1343 60.4748C60.5861 63.0215 62.7945 65.4107 66.1881 67.8684C66.9749 66.5461 68.3803 62.1429 68.2862 60.7105Z" fill="#B0B0B0"/>
<path d="M-7.66412 45.1316C-12.7956 49.2891 -12.4727 53.011 -13.3289 59.0263C-12.3763 62.5235 -11.8689 65.4159 -11.8479 68.079C-8.22941 65.5484 -5.85464 63.116 -4.33333 60.5C-1.55391 55.7206 -1.62335 50.3285 -2.16174 42.6053C-3.94234 43.6777 -5.50327 44.2505 -7.66412 45.1316Z" fill="#B0B0B0"/>
<path d="M1.5674 39.8684C0.113665 41.0956 -1.06566 41.9451 -2.16174 42.6053C-1.62335 50.3285 -1.55391 55.7206 -4.33333 60.5C-3.79442 60.0927 -3.2991 59.7055 -2.83855 59.3256C-0.321625 57.2493 1.15663 55.3902 3.03605 51.6579C4.45608 49.9054 4.8739 48.4086 4.99663 45.1316C3.34655 43.852 2.38303 42.4002 1.5674 39.8684Z" fill="#B0B0B0"/>
<path d="M27.5835 29.3421V39.8684C27.5835 39.8684 28.6637 41.1459 30.5429 42.6053C32.4607 44.0945 35.2105 45.7732 38.4935 46.477C39.4957 46.6918 40.5476 46.8158 41.6406 46.8158C49.8231 46.8158 53.18 40.7105 53.18 40.7105C47.4678 35.8815 45.9035 32.8898 43.7387 27.4474C32.1596 24.0384 29.9395 25.4907 27.5835 29.3421Z" fill="#B0B0B0"/>
<path d="M27.5835 39.8684V29.3421C23.8975 23.605 18.1923 26.1458 10.5891 26.6053C8.20933 35.2883 5.75775 36.733 1.5674 39.8684C2.38303 42.4002 3.34655 43.852 4.99663 45.1316C5.73022 45.7004 6.5995 46.2353 7.65182 46.8158C9.56891 47.3045 11.2535 47.5319 12.7851 47.532C14.1084 47.5321 15.3176 47.3625 16.4637 47.045C19.1726 46.2947 21.5298 44.7185 24.2122 42.6053C25.2714 41.7708 26.3813 40.8526 27.5835 39.8684Z" fill="#B0B0B0"/>
<path d="M1.5674 39.8684C5.75775 36.733 8.20933 35.2883 10.5891 26.6053C7.9783 24.4347 6.50652 23.9499 3.87529 23.6579C3.87529 23.6579 -2.20913 23.8684 -6.40528 27.4474C-10.6014 31.0263 -7.66412 45.1316 -7.66412 45.1316C-5.50327 44.2505 -3.94234 43.6777 -2.16174 42.6053C-1.06566 41.9451 0.113665 41.0956 1.5674 39.8684Z" fill="#B0B0B0"/>
<path d="M43.7387 27.4474C45.9035 32.8898 47.4678 35.8815 53.18 40.7105C54.2191 41.5805 55.1473 42.2623 56.1173 42.8312C57.7712 43.8012 59.5468 44.4433 62.2017 45.1316C62.2017 45.1316 65.139 34.3947 62.2017 29.3421C59.2644 24.2895 55.3891 25.6217 51.082 23.6579C46.7957 24.4102 45.2688 25.2746 43.7387 27.4474Z" fill="#B0B0B0"/>
<path d="M27.5835 29.3421V39.8684M27.5835 29.3421C23.8975 23.605 18.1923 26.1458 10.5891 26.6053M27.5835 29.3421C29.9395 25.4907 32.1596 24.0384 43.7387 27.4474M27.5835 39.8684C26.3813 40.8526 25.2714 41.7708 24.2122 42.6053M27.5835 39.8684C27.5835 39.8684 28.6637 41.1459 30.5429 42.6053M1.5674 39.8684C5.75775 36.733 8.20933 35.2883 10.5891 26.6053M1.5674 39.8684C0.113664 41.0956 -1.06566 41.9451 -2.16174 42.6053M1.5674 39.8684C2.38303 42.4002 3.34655 43.852 4.99663 45.1316M10.5891 26.6053C7.9783 24.4347 6.50652 23.9499 3.87529 23.6579M43.7387 27.4474C45.9035 32.8898 47.4678 35.8815 53.18 40.7105M43.7387 27.4474C45.2688 25.2746 46.7957 24.4102 51.082 23.6579M53.18 40.7105C53.18 40.7105 49.8231 46.8158 41.6406 46.8158M53.18 40.7105L52.131 50.3947M53.18 40.7105C54.2191 41.5805 55.1473 42.2623 56.1173 42.8312M41.6406 46.8158C40.5476 46.8158 39.4957 46.6918 38.4935 46.477M41.6406 46.8158C46.2385 50.4928 47.7231 53.2154 47.8412 59.6579M24.2122 42.6053C26.6852 44.0099 26.831 45.9488 27.1639 49.3421M24.2122 42.6053C21.5298 44.7185 19.1726 46.2947 16.4637 47.045M27.1639 49.3421C27.6349 45.5147 28.0682 43.6073 30.5429 42.6053M27.1639 49.3421C26.8609 50.0211 26.5584 50.3337 25.4855 50.617M27.1639 49.3421C27.599 50.0772 27.8783 50.4617 29.0522 50.617M30.5429 42.6053C32.4607 44.0945 35.2105 45.7732 38.4935 46.477M3.03605 51.6579C4.45608 49.9054 4.8739 48.4086 4.99663 45.1316M3.03605 51.6579C4.76683 54.2366 6.05703 56.2218 7.09432 58.3947M3.03605 51.6579C1.15663 55.3902 -0.321624 57.2493 -2.83855 59.3256M9.33028 64.9211C7.77014 69.8656 7.63418 72.9511 8.70086 78.8158M9.33028 64.9211C10.9902 66.6954 12.0527 67.6518 15.4147 68.921M9.33028 64.9211C8.69253 62.2743 7.9871 60.265 7.09432 58.3947M8.70086 78.8158C5.52568 79.6347 5.96442 82.986 6.39297 88.5M8.70086 78.8158L11.2185 82.0806M22.3383 96.5H32.1993M22.3383 96.5L14.3831 86.1842M22.3383 96.5H14.5755M32.1993 96.5L39.9622 86.3049M32.1993 96.5H39.9622M46.4662 77.7632C47.0082 71.9465 46.8506 68.8455 44.3681 64.0789M46.4662 77.7632L43.7387 81.3452M46.4662 77.7632C48.3421 81.5943 48.9827 83.8207 47.5117 88.2895M44.3681 64.0789L39.5426 68.079M44.3681 64.0789L44.5162 63.9003M44.3681 64.0789C44.4178 64.019 44.4672 63.9595 44.5162 63.9003M52.131 50.3947C53.4281 54.673 54.2487 57.051 58.2154 60.7105M52.131 50.3947C50.725 54.7823 49.4364 57.3511 47.8412 59.6579M58.2154 60.7105C56.8214 63.9426 56.5855 66.0205 59.2644 71.2368M58.2154 60.7105L59.1343 60.4748M59.2644 71.2368C59.8765 77.6145 67.4469 81.3421 69.3352 86.6053C70.3677 85.4121 71.2884 84.4402 72.0767 83.4474M59.2644 71.2368C62.4221 71.7815 64.0928 72.4648 66.8175 74.6053M68.2862 60.7105C73.0619 64.1 73.813 68.2619 75 75.8684C74.6001 79.588 73.5785 81.5558 72.0767 83.4474M68.2862 60.7105C67.3455 53.8993 66.7693 50.1054 62.2017 45.1316M68.2862 60.7105C68.3803 62.1429 66.9749 66.5461 66.1881 67.8684M62.2017 45.1316C62.2017 45.1316 65.139 34.3947 62.2017 29.3421C59.2644 24.2895 55.3891 25.6217 51.082 23.6579M62.2017 45.1316C59.5468 44.4433 57.7712 43.8012 56.1173 42.8312M51.082 23.6579C44.9343 19.2134 41.5125 16.9105 35.425 12.9211M56.1173 42.8312C56.3489 50.291 56.3918 55.664 59.1343 60.4748M66.1881 67.8684C62.7946 65.4107 60.5861 63.0215 59.1343 60.4748M66.1881 67.8684C66.6747 70.7038 66.7823 72.0936 66.8175 74.6053M66.8175 74.6053C69.4994 77.8195 70.7363 79.7209 72.0767 83.4474M-13.3289 59.0263C-17.8602 61.2218 -20.7408 69.504 -19.833 71.2368C-19.4522 75.5997 -18.4952 78.0423 -16.6858 82.3947M-13.3289 59.0263C-12.4727 53.011 -12.7956 49.2891 -7.66412 45.1316M-13.3289 59.0263C-12.3763 62.5235 -11.8689 65.4159 -11.8479 68.079M-7.66412 45.1316C-7.66412 45.1316 -10.6014 31.0263 -6.40528 27.4474C-2.20913 23.8684 3.87529 23.6579 3.87529 23.6579M-7.66412 45.1316C-5.50327 44.2505 -3.94234 43.6777 -2.16174 42.6053M3.87529 23.6579C4.37882 23.6579 14.016 16.9211 18.7716 13.5526M18.7716 13.5526L18.7717 5.55263M18.7716 13.5526C21.3721 19.5067 22.8315 22.8406 27.3737 24.7105M-16.6858 82.3947C-14.8219 79.3365 -13.5206 76.7257 -12.7406 74.1842M-16.6858 82.3947L-13.7485 86.1842C-10.8112 79.6579 -4.9594 78.4772 -4.33333 70.2174M-2.16174 42.6053C-1.62335 50.3285 -1.5539 55.7206 -4.33333 60.5M-11.8479 68.079C-8.22941 65.5484 -5.85463 63.116 -4.33333 60.5M-11.8479 68.079C-11.8312 70.1962 -12.1219 72.1684 -12.7406 74.1842M4.99663 45.1316C5.73021 45.7004 6.5995 46.2353 7.65182 46.8158C9.56891 47.3044 11.2535 47.5319 12.7851 47.532M-4.33333 60.5C-3.79442 60.0927 -3.2991 59.7055 -2.83855 59.3256M-12.7406 74.1842C-8.60766 73.0438 -5.94702 71.7885 -4.33333 70.2174M-4.33333 70.2174C-1.79151 67.7427 -1.84732 64.4845 -2.83855 59.6579V59.3256M18.7717 5.55263V4.28947C16.0952 4.14515 15.6373 3.10885 15.6245 0.5H39.5426C38.9046 3.94161 37.8164 4.31079 35.5562 4.28947M18.7717 5.55263C18.7717 5.55263 19.9342 11.6771 24.4364 13.6105M35.5562 5.55263C35.5562 5.21579 35.5562 4.57018 35.5562 4.28947M35.5562 5.55263C35.5562 5.55263 35.4773 6.34388 35.1625 7.44737M35.5562 5.55263V4.28947M24.4364 13.6105C25.3438 14.0001 26.3869 14.2195 27.5835 14.1842C28.5083 14.1569 29.3273 13.9916 30.0523 13.7246M24.4364 13.6105C24.6896 18.7554 25.2498 21.2611 27.3737 24.7105M27.3737 24.7105C28.801 21.4378 29.4412 18.7555 30.1012 13.7064M27.3737 24.7105C30.4663 22.478 32.1685 21.6288 35.5562 15.6579L35.425 12.9211M30.1012 13.7064L30.3574 13.6041M30.1012 13.7064C30.188 13.6737 30.2733 13.6396 30.3574 13.6041M30.1012 13.7064C30.085 13.7125 30.0687 13.7186 30.0523 13.7246M35.1625 7.44737L35.425 12.9211M35.1625 7.44737C34.6025 9.41044 33.2956 12.3616 30.3574 13.6041M6.39297 88.5L11.2185 82.0806M6.39297 88.5C4.8342 91.2742 4.22949 92.9376 4.08509 96.2895H5.76355M11.2185 82.0806L12.2676 83.4409M12.2676 83.4409C10.1326 89.4125 8.79476 92.4282 5.76355 96.2895M12.2676 83.4409L14.3831 86.1842M5.76355 96.2895L14.5755 96.5M14.3831 86.1842C13.8775 89.9076 13.8383 92.1187 14.5755 96.5M39.9622 86.3049V96.5M39.9622 86.3049L42.4798 82.9985M39.9622 96.5H48.5643M42.4798 82.9985C44.198 88.8628 44.8237 92.2593 48.5643 96.5M42.4798 82.9985L43.7387 81.3452M48.5643 96.5H50.6623C49.7061 93.3387 48.7713 90.8973 47.5117 88.2895M43.7387 81.3452C45.3142 84.0571 46.5147 86.2254 47.5117 88.2895M15.4147 68.921C18.0455 83.2872 20.394 88.9917 27.1639 92.2895M15.4147 68.921C19.3795 69.5673 21.9696 70.2837 24.2122 72.2602M15.4147 68.921C15.0746 65.1536 14.8899 62.161 14.8452 59.6579M7.09432 58.3947C7.76535 53.1887 7.60336 49.9356 12.7851 47.532M12.7851 47.532C14.1084 47.5321 15.3176 47.3625 16.4637 47.045M16.4637 47.045C15.6939 49.7096 15.1714 52.0285 14.9516 55.0263M27.1639 75.8684V92.2895M27.1639 75.8684C26.337 74.0619 25.4271 72.8187 24.2122 72.2602M27.1639 75.8684C28.317 74.008 29.2435 72.8637 30.68 72.5M39.5426 68.079C36.4215 83.8485 34.0032 90.2268 27.1639 92.2895M39.5426 68.079L40.172 59.4474M39.5426 68.079C34.3146 69.5216 32.3818 70.8666 30.68 72.5M24.2122 72.2602C25.2756 71.6579 27.1639 70.3947 27.1639 68.5M27.1639 62.3947C27.1639 65.1316 27.1639 66.6053 27.1639 68.5M27.1639 62.3947C26.3534 61.7572 25.5877 61.3514 24.856 61.3421M27.1639 62.3947C27.8548 61.8551 28.7361 61.4473 29.6816 61.3421M27.1639 62.3947V68.5M14.8452 59.6579C18.9626 59.6864 21.5089 60.0473 24.856 61.3421M14.8452 59.6579C14.814 57.9072 14.8512 56.3959 14.9516 55.0263M40.172 59.4474C40.2187 56.6383 39.8325 55.1673 38.4935 52.921M40.172 59.4474C35.467 59.4557 32.9692 60.0806 29.6816 61.3421M27.1639 68.5C28.0669 70.3043 28.7951 71.2017 30.68 72.5M24.856 61.3421C26.0217 60.3845 26.6196 59.8911 27.1639 58.3947M27.1639 58.3947V51.8684M27.1639 58.3947C27.7407 59.8973 28.3152 60.5009 29.6816 61.3421M27.1639 51.8684C26.7546 51.2904 26.3395 50.9122 25.4855 50.617M27.1639 51.8684C27.3301 51.4318 27.7078 51.1563 29.0522 50.617M14.9516 55.0263C16.3868 51.8063 18.3279 50.7653 23.5972 50.1842C24.4089 50.3163 25.014 50.454 25.4855 50.617M29.0522 50.617C33.2442 50.7498 35.7267 50.6228 38.4935 52.921M38.4935 52.921C39.3492 50.5703 39.1672 49.1242 38.4935 46.477M47.8412 59.6579C46.8763 61.0531 45.7993 62.3524 44.5162 63.9003M30.3574 13.6041C30.2576 13.6462 30.1559 13.6865 30.0523 13.7246" stroke="#1E1E1E"/>
</g>
</svg>
