<svg width="55" height="55" viewBox="0 0 55 55" fill="none" xmlns="http://www.w3.org/2000/svg">
<mask id="mask0_34714_7832" style="mask-type:alpha" maskUnits="userSpaceOnUse" x="0" y="0" width="55" height="55">
<circle cx="27.5" cy="27.5" r="27.5" fill="#303030"/>
</mask>
<g mask="url(#mask0_34714_7832)">
<path d="M16.2229 33.3334L16.2162 33.2591C16.2162 33.2591 20.9701 37.8088 22.0737 38.9041C23.1772 39.9993 25.1297 44.7175 25.1297 44.7175C21.5086 43.2466 19.5059 43.3453 15.9616 44.2962C16.8127 39.8483 16.5995 37.4933 16.2229 33.3334Z" fill="#B0B0B0"/>
<path d="M27.4217 24.3284C23.6242 29.0178 23.1258 31.9771 21.2248 37.0505C23.7421 39.6698 24.539 41.5735 25.7239 45.1387C26.732 45.7205 27.1641 46.4754 27.9311 47.8348V24.8339L27.4217 24.3284Z" fill="#B0B0B0"/>
<path d="M14.2638 23.1488L14.6882 19.863C17.3535 20.5102 19.1635 20.6241 23.6017 19.863L27.0822 23.9071C23.7672 27.7839 22.2634 28.6848 19.9514 28.9623C17.7819 28.6139 16.7698 28.0497 15.2824 26.5189L14.2638 23.1488Z" fill="#F9FAFB"/>
<path d="M18.5932 7.98341L16.2162 8.48892L19.1025 11.3535L19.9514 14.5551L27.9311 23.9071V10.6795C27.4481 9.08198 26.8536 8.55726 25.4693 7.98341H18.5932Z" fill="#B0B0B0"/>
<path d="M30.8174 7.98341C29.4861 8.90958 28.9506 9.49487 28.4404 10.6795V24.3284L34.8921 16.7457C36.211 15.0627 36.4409 13.9812 36.7597 12.0275C37.7873 9.80781 38.5746 8.98025 40.4949 8.48892L30.8174 7.98341Z" fill="#B0B0B0"/>
<path d="M28.4404 9.07869V6.63537C28.9004 7.25413 29.2045 7.53382 29.9685 7.73065C29.1903 8.19028 28.907 8.50446 28.4404 9.07869Z" fill="#B0B0B0"/>
<path d="M27.9311 9.07869V6.63537C27.3802 7.15844 26.9867 7.40549 26.0635 7.73065C26.8322 8.16395 27.2482 8.44817 27.9311 9.07869Z" fill="#B0B0B0"/>
<path d="M27.9311 5.28733V-3.55918C25.6159 -2.94267 24.9493 -1.43328 23.4319 0.653443C23.0757 3.32104 23.9047 4.78494 19.9514 7.56215H24.7901C26.5566 7.20885 27.2213 6.70942 27.9311 5.28733Z" fill="#B0B0B0"/>
<path d="M28.4404 5.28733V-3.55918C30.1526 -2.33559 30.7665 -1.27181 31.836 0.653443C31.7843 4.28941 32.6659 5.6768 35.0619 7.56215H30.5627C29.0324 6.83273 28.7596 6.29078 28.4404 5.28733Z" fill="#B0B0B0"/>
<path d="M28.016 -4.06469C25.4802 -3.62126 24.8112 -2.22614 23.4319 -0.0205765C22.3817 -1.20294 22.2276 -1.80479 21.9039 -2.88516V-4.73872L22.3283 -4.82297C22.3283 -4.82297 20.7154 -12.7427 28.016 -12.9955C35.3165 -13.2482 33.7885 -4.73872 33.7885 -4.73872H34.0432V-2.88516L33.5338 -1.45287C32.9706 -1.19958 32.7187 -1.04093 32.5152 -0.694595L32.1756 0.147928C30.591 -2.77355 29.6777 -3.61546 28.016 -4.06469Z" fill="#B0B0B0"/>
<path d="M19.1025 13.7126C17.6478 15.8946 16.5703 16.4035 14.6882 17.4197V19.189C15.8545 19.604 16.5565 19.7754 17.9989 19.863L18.0072 19.8625C20.18 19.7233 21.3996 19.6452 23.2621 19.189C21.2018 17.2379 20.4262 15.9806 19.1025 13.7126Z" fill="#B0B0B0"/>
<path d="M8.40632 12.3645C7.42868 14.2872 7.09376 15.6309 7.30275 19.0205C10.9923 18.3757 13.0142 17.8944 16.9802 15.3134C18.6334 13.9776 18.6428 13.2456 18.5083 11.9433C17.7572 9.96738 16.73 9.60559 15.2824 8.48892C12.2515 9.12119 10.7345 9.92858 8.40632 12.3645Z" fill="#B0B0B0"/>
<path d="M5.9445 24.3284L7.04807 19.4417C9.27048 19.3561 10.5133 19.045 12.7357 18.1779C10.8876 21.5457 9.22216 22.6775 5.9445 24.3284Z" fill="#B0B0B0"/>
<path d="M13.4148 18.0094C12.8711 19.3105 12.4008 20.0918 11.1228 21.6323C10.8813 24.8341 11.3109 25.3443 11.8868 26.6874C12.5676 24.9489 12.9757 24.0238 13.9242 22.8118C14.1263 20.7424 14.2048 19.5969 14.2638 17.5882L13.4148 18.0094Z" fill="#B0B0B0"/>
<path d="M11.6322 27.3615C10.6044 25.3405 10.6364 24.1879 10.5286 22.1378C8.38533 23.7808 7.36589 24.324 5.68983 25.0024C5.68983 25.0024 3.05823 30.226 3.14312 30.4788C3.22801 30.7316 5.2654 32.8379 5.43516 32.9221C5.60492 33.0064 9.00053 33.4276 9.17033 33.2591C9.34013 33.0906 11.6322 27.3615 11.6322 27.3615Z" fill="#B0B0B0"/>
<path d="M5.43516 33.5961L2.97332 30.9843C-1.25583 38.5083 -2.08328 42.8493 -4.32724 50.5309C-4.32724 50.5309 -3.39345 51.6262 -2.969 51.7947C-2.54455 51.9632 -1.10141 52.3002 -1.10141 52.3002C1.36041 44.9702 7.37191 40.9997 9.00053 33.7646L5.43516 33.5961Z" fill="#B0B0B0"/>
<path d="M29.2893 24.3284L28.4404 25.0866V47.8348C29.0418 46.4805 29.5046 45.8359 30.6476 44.9702C31.4773 40.3911 32.7063 38.4661 35.9956 35.9552L29.2893 24.3284Z" fill="#B0B0B0"/>
<path d="M36.505 35.7025L31.7511 27.3615C33.5324 28.5444 34.5161 29.2601 36.6748 29.0465C38.7946 28.4821 39.4513 27.7652 40.6646 26.5189L39.3064 33.9332L36.505 35.7025Z" fill="#F9FAFB"/>
<path d="M24.7901 27.3615C22.7438 30.5735 22.0387 32.8022 20.7154 36.7135C18.6161 34.3351 17.6245 33.5591 15.9615 32.5009L15.2824 27.3615C17.3232 29.1411 18.2751 29.2631 19.9514 29.3835C21.6717 29.2953 22.6572 29.1598 24.7901 27.3615Z" fill="#F9FAFB"/>
<path d="M39.3064 34.5229C33.156 37.6114 31.5964 41.3474 31.3267 44.7175C32.8674 43.9503 32.4373 43.3495 39.3064 43.2852V34.5229Z" fill="#B0B0B0"/>
<path d="M33.0245 19.863L29.544 23.9071C32.66 27.8978 34.1886 28.5376 36.7597 28.541C38.7105 27.6021 39.6503 26.8598 41.0042 25.0866L41.2588 23.1488C40.5244 21.9693 40.481 21.1095 40.4949 19.526C36.9801 20.9082 35.7014 20.2344 33.0245 19.863Z" fill="#F9FAFB"/>
<path d="M36.7597 13.7126C36.4138 16.5968 35.0964 17.4592 33.5338 19.526L38.1179 19.6945C39.0287 19.615 39.5647 19.6574 40.2402 18.7677L40.1553 16.5772C38.4235 15.6323 37.8679 14.9246 36.7597 13.7126Z" fill="#B0B0B0"/>
<path d="M41.6833 17.1669L40.6646 16.7457L41.0042 20.7898C41.4964 23.0707 41.9951 24.3226 43.2113 26.5189C44.0907 24.9752 44.4266 24.0409 44.4847 22.1378C43.3792 20.8152 42.7661 19.8242 41.6833 17.1669Z" fill="#B0B0B0"/>
<path d="M42.592 17.5638L42.5322 17.4197L47.7954 18.7677C47.8563 20.9934 48.0617 22.2172 48.9839 24.3284C44.8632 23.0376 44.0355 21.0428 42.592 17.5638Z" fill="#B0B0B0"/>
<path d="M41.2738 8.49435L41.2588 8.48892L41.2019 8.51304C39.0487 9.42526 37.8238 9.94415 37.1841 12.6173C37.6504 13.9236 38.3111 14.5388 39.7308 15.5661C42.9161 17.1464 44.6802 17.6117 47.7954 18.0094C47.5709 14.9882 47.1094 13.4306 45.4185 11.0165C44.2915 9.5891 43.2042 9.19464 41.2738 8.49435Z" fill="#B0B0B0"/>
<path d="M44.994 22.8118C44.7741 24.7286 44.3203 25.6805 43.466 27.3615L46.3523 33.7646C47.5389 33.6846 48.2046 33.6215 49.4083 33.2591C50.5458 32.7278 50.9674 32.2789 51.6155 31.4056L48.9839 25.0866C47.432 24.6448 46.5593 24.2864 44.994 22.8118Z" fill="#B0B0B0"/>
<path d="M46.6918 37.556C46.1825 36.208 46.6918 34.2702 46.6918 34.2702L49.8328 33.7646L51.955 31.9953C55.2631 39.4182 56.9776 43.5668 59.0009 50.8679C59.0009 50.8679 58.0671 51.7947 57.388 52.2159C56.7089 52.6372 55.3506 52.6372 55.3506 52.6372C52.3351 45.7209 47.2012 38.9041 46.6918 37.556Z" fill="#B0B0B0"/>
<path d="M29.9684 66.4546L29.3742 61.7365C31.5927 63.0379 32.9505 63.5509 35.2316 64.0113C35.5786 70.8983 36.1637 73.9794 37.7783 78.3342C39.0118 84.9892 37.8481 86.1222 36.5899 89.287L36.2503 88.6973C35.5864 79.5461 34.6225 74.5685 29.9684 66.4546Z" fill="#B0B0B0"/>
<path d="M35.741 87.265L29.9684 67.5499C29.9684 67.5499 33.364 75.3854 33.7885 76.7334C34.2129 78.0815 35.741 87.265 35.741 87.265Z" fill="#B0B0B0"/>
<path d="M40.4948 64.0113H35.741C36.4355 72.816 36.6389 77.7982 43.1264 85.1587L42.5322 74.7113C40.6353 69.8512 40.7492 67.855 40.4948 64.0113Z" fill="#B0B0B0"/>
<path d="M41.174 65.2751C41.174 62.7475 42.5322 59.4617 42.5322 59.4617V66.4546V73.4476C42.5322 73.4476 41.174 67.8026 41.174 65.2751Z" fill="#B0B0B0"/>
<path d="M38.6272 80.1877C39.275 83.8128 38.6838 84.7632 38.1179 87.0122L39.4761 86.6752C39.4761 86.6752 39.9006 85.5799 40.325 85.1587C40.7495 84.7374 41.8531 84.7374 41.8531 84.7374C39.9098 82.9451 39.5253 81.9563 38.6272 80.1877Z" fill="#B0B0B0"/>
<path d="M39.1366 87.265C37.5024 88.2046 37.3863 88.8184 36.8445 89.8768C37.4221 92.583 37.6821 94.3028 37.8632 98.302C38.0921 100.567 38.6446 101.669 39.4761 103.694C39.4761 103.694 42.6171 102.683 43.1264 99.5658C43.6358 96.4485 39.1366 87.265 39.1366 87.265Z" fill="#B0B0B0"/>
<path d="M41.0042 85.4114C40.1553 85.6642 40.0704 87.0122 40.0704 87.0122C41.4859 90.4346 42.3119 90.4127 43.6358 99.2288C44.4212 100.779 46.4844 101.687 46.6918 100.998C46.8616 96.3642 43.1264 86.1697 43.1264 86.1697C43.1264 86.1697 41.8531 85.1587 41.0042 85.4114Z" fill="#B0B0B0"/>
<path d="M39.4761 104.284C41.5495 103.821 42.4117 102.773 43.6358 100.071C44.4498 101.092 44.959 101.623 46.6918 101.925C45.6543 108.317 45.5135 112.1 45.8429 119.112L46.4371 119.281C46.0122 113.421 45.8367 110.179 47.0314 105.463C47.3903 114.671 49.0165 123.24 45.8429 123.999C43.6583 123.695 42.9663 122.066 41.938 118.607C41.6551 115.864 41.7495 114.564 43.1264 113.383C43.8584 114.837 44.06 116.263 44.3149 119.112C44.3828 119.382 44.6828 119.225 44.8242 119.112C43.8564 110.978 42.0444 109.072 39.4761 104.284Z" fill="#B0B0B0"/>
<path d="M12.9904 73.7846V66.6231V59.4617C12.9904 59.4617 14.6599 63.8822 14.6033 66.4546C14.5467 69.027 13.1643 73.9157 12.9904 73.7846Z" fill="#B0B0B0"/>
<path d="M12.481 84.7374C17.7283 83.0896 18.6394 76.0236 20.3758 63.7585L14.9429 64.0113C14.9429 64.0113 15.1976 69.5719 14.6033 71.0042C14.0091 72.4365 12.8206 74.8798 12.8206 74.8798L12.481 84.7374Z" fill="#B0B0B0"/>
<path d="M16.3011 85.6642C15.8301 84.7965 15.2903 84.6236 14.1788 84.4846C15.4215 83.3853 15.8214 84.0321 17.8291 79.6822C17.4541 81.8293 17.316 83.0696 17.8291 85.6642C17.0531 85.2335 16.7493 85.3045 16.3011 85.6642Z" fill="#B0B0B0"/>
<path d="M27.1671 61.3995C24.6605 63.3105 23.3456 63.3463 20.9701 63.7585C20.2617 68.3941 19.9332 70.9396 18.8478 75.3011C17.1773 82.99 18.046 84.7822 19.442 88.1917L20.0363 87.0122C21.3949 78.263 21.1131 73.1935 26.5728 65.6963L27.1671 61.3995Z" fill="#B0B0B0"/>
<path d="M26.1484 68.8979C26.1484 68.8979 23.1772 76.0594 23.0074 76.7334C22.8376 77.4074 20.6978 85.4114 20.6978 85.4114C20.6978 85.4114 21.9887 76.7334 22.4981 75.7224C23.0074 74.7113 26.1484 66.8759 26.1484 66.8759V68.8979Z" fill="#B0B0B0"/>
<path d="M12.2264 87.0122V85.6642C12.2264 85.6642 14.4335 84.9059 15.1126 85.1587C15.7918 85.4114 15.7918 86.6752 15.7918 86.6752L14.4335 90.298C12.8908 93.4481 12.8905 95.4759 12.2264 98.8918C10.6457 101.392 9.78572 100.99 8.23652 101.335C8.49412 93.7138 9.95514 91.494 12.2264 87.0122Z" fill="#B0B0B0"/>
<path d="M8.23652 102.43V101.925C9.70009 101.454 9.99018 102.239 12.5659 99.5658C13.2594 101.748 13.9484 102.535 15.622 103.273L12.9055 110.182C11.3872 113.242 10.7348 115.102 10.5286 119.112H11.2077C11.1201 116.433 11.125 114.969 12.2264 113.13C13.3683 115.353 13.6888 116.652 13.4148 119.112C12.1788 122.023 11.3554 123.287 9.34009 123.999C7.77464 123.629 7.41644 122.957 7.38762 121.219L7.98185 103.273C8.58921 104.359 9.0425 104.673 8.91564 107.654L8.66097 118.607H9.34009L9.34348 118.511C9.50755 113.846 9.60049 111.203 9.34009 104.874C9.09713 103.842 8.88142 103.298 8.23652 102.43Z" fill="#B0B0B0"/>
<path d="M12.9055 99.5658C13.4419 93.4907 14.4528 91.0212 16.3011 86.6752L16.5558 86.1697C16.5558 86.1697 16.7256 85.9169 16.9802 85.8327C17.2349 85.7484 17.8291 86.1697 17.8291 86.1697L19.1874 88.6973C18.0502 91.1996 18.2536 96.5327 17.8291 97.7123C17.4047 98.8918 15.7918 102.852 15.7918 102.852C13.8991 102.233 13.6539 101.178 12.9055 99.5658Z" fill="#B0B0B0"/>
<path d="M-4.75169 51.1207C-7.74276 53.8851 -9.0811 58.0294 -8.99621 58.1136C-8.91132 58.1979 -8.74154 58.1136 -8.74154 58.1136L-7.12862 56.3443V56.8498L-7.63796 58.3664L-8.74154 62.242C-8.74154 62.242 -8.99621 62.579 -8.99621 62.6632C-8.99621 62.7475 -8.74154 62.6632 -8.74154 62.6632L-8.31709 62.4105L-7.80774 61.1467L-6.70417 58.7034C-6.70417 58.7034 -6.53439 58.6191 -6.36461 58.6191C-6.19483 58.6191 -6.19483 58.8719 -6.19483 58.8719L-6.36461 59.5459L-7.12862 63.927C-7.12862 63.927 -6.95884 64.264 -6.87395 64.1798C-6.78906 64.0955 -6.53439 63.59 -6.53439 63.59L-6.36461 63.1688L-5.17615 59.2089C-5.17615 59.2089 -5.00637 59.1246 -4.92147 59.2089C-4.83658 59.2931 -4.92147 59.8829 -4.92147 59.8829C-4.92147 59.8829 -5.00637 64.4325 -4.92147 64.5168C-4.83658 64.601 -4.58191 64.6853 -4.49702 64.5168C-4.41213 64.3483 -4.32724 63.59 -4.32724 63.59L-4.15746 62.4105L-3.90279 60.8939L-3.64812 59.8829C-3.64812 59.8829 -3.64812 59.5459 -3.47834 59.5459C-3.30856 59.5459 -3.39345 59.7144 -3.39345 59.7144L-3.22367 60.2199L-2.969 62.6632C-2.969 62.6632 -2.88411 63.5058 -2.79922 63.59C-2.71433 63.6743 -2.54455 63.6743 -2.37477 63.59C-2.20499 63.5058 -2.20499 63.0003 -2.20499 63.0003L-2.1201 62.3262C-2.17395 58.3835 -0.931632 56.5971 -1.10141 52.9742C-2.73584 52.5566 -3.49114 52.0849 -4.75169 51.1207Z" fill="#B0B0B0"/>
<path d="M59.1707 51.4577C57.614 53.15 56.8159 53.0609 55.3506 53.4797C55.0583 57.3814 56.6763 61.7105 56.7089 62.3262C56.7415 62.9419 56.8045 63.2107 56.9635 63.59C56.9635 63.59 57.1333 63.6743 57.2182 63.59C57.3031 63.5058 57.2182 63.1688 57.2182 63.1688L57.388 62.1577V60.3884L57.5578 59.7144H57.8124C57.9822 59.7987 59.1707 64.3483 59.1707 64.3483H59.5103C59.5103 64.3483 59.68 64.5168 59.8498 64.3483C60.0196 64.1798 59.1707 60.2199 59.1707 60.2199V59.7144C59.1707 59.7144 59.3405 59.3774 59.5103 59.3774C59.68 59.3774 61.8872 64.0955 62.1418 64.0955C62.3965 64.0955 62.3116 63.8428 62.3116 63.8428L60.6987 59.3774C60.6987 59.3774 60.5289 58.9561 60.6987 58.8719C60.8685 58.7876 60.9534 58.8719 60.9534 58.8719L63.4152 62.1577C63.4152 62.1577 63.7548 62.242 63.9246 62.1577C64.0943 62.0735 63.9246 61.8207 63.9246 61.8207L61.2929 57.1026C61.2929 57.1026 60.9534 56.9341 60.9534 56.6813C60.9534 56.4286 61.2929 56.3443 61.2929 56.3443C61.2929 56.3443 63.7548 57.6081 63.9246 57.5238C64.0943 57.4396 63.9246 57.2711 63.9246 57.2711L59.1707 51.4577Z" fill="#B0B0B0"/>
<path d="M28.4404 48.8459C30.4347 46.1524 30.5015 44.0871 37.3539 43.9592L37.6086 44.2962C38.0764 50.2643 39.581 53.2867 42.2494 58.647L42.2775 58.7034C41.3222 60.3516 41.1398 61.4511 40.8344 63.4215C33.7769 64.0776 31.7501 62.6431 28.4404 59.7987V48.8459Z" fill="#B0B0B0"/>
<path d="M17.7443 44.549L16.386 51.1207L12.9904 58.7034C14.3975 60.5112 14.5694 61.5578 14.9429 63.4215C21.8919 63.2829 25.3272 62.8918 27.9311 59.7987V48.8459C26.736 46.7424 25.6976 45.8804 23.6017 44.549C20.8293 44.1214 19.5438 44.1188 17.7443 44.549Z" fill="#B0B0B0"/>
<path d="M15.7069 44.9702L17.3198 44.549L16.2162 49.6884L12.9904 57.3553L14.6033 49.6884L15.7069 44.9702Z" fill="#B0B0B0"/>
<path d="M37.9481 43.9592H39.3064C40.153 48.2521 40.7373 50.6199 42.0229 54.7435C42.4258 55.9853 42.5239 56.7284 42.5322 58.1136C40.1244 52.754 38.9097 49.7128 37.9481 43.9592Z" fill="#B0B0B0"/>
<path d="M16.2162 33.2591C16.2162 33.2591 20.9701 37.8088 22.0737 38.9041C23.1772 39.9993 25.1297 44.7175 25.1297 44.7175C21.5086 43.2466 19.5059 43.3453 15.9616 44.2962C16.8127 39.8483 16.5995 37.4933 16.2229 33.3334M16.2162 33.2591L16.2229 33.3334M16.2162 33.2591C16.2185 33.284 16.2207 33.3087 16.2229 33.3334M17.9989 19.863C16.5565 19.7754 15.8545 19.604 14.6882 19.189V17.4197C16.5703 16.4035 17.6478 15.8946 19.1025 13.7126C20.4262 15.9806 21.2018 17.2379 23.2621 19.189C21.3996 19.6452 20.18 19.7233 18.0072 19.8625M17.9989 19.863L18.0072 19.8625M17.9989 19.863C18.0017 19.8628 18.0044 19.8626 18.0072 19.8625M42.2775 58.7034C41.3222 60.3516 41.1398 61.4511 40.8344 63.4215C33.7769 64.0776 31.7501 62.6431 28.4404 59.7987V48.8459C30.4347 46.1524 30.5015 44.0871 37.3539 43.9592L37.6086 44.2962C38.0764 50.2643 39.581 53.2867 42.2494 58.647M42.2775 58.7034L42.2494 58.647M42.2775 58.7034C42.2681 58.6845 42.2588 58.6657 42.2494 58.647M42.5322 17.4197L47.7954 18.7677C47.8563 20.9934 48.0617 22.2172 48.9839 24.3284C44.8632 23.0376 44.0355 21.0428 42.592 17.5638M42.5322 17.4197L42.592 17.5638M42.5322 17.4197C42.5523 17.468 42.5722 17.5161 42.592 17.5638M41.2588 8.48892L41.2738 8.49435M41.2588 8.48892L41.2019 8.51304M41.2588 8.48892C41.2398 8.49699 41.2208 8.50503 41.2019 8.51304M41.2588 8.48892C41.2638 8.49073 41.2688 8.49254 41.2738 8.49435M20.6305 85.6642L20.6978 85.4114M20.6978 85.4114C20.6978 85.4114 22.8376 77.4074 23.0074 76.7334C23.1772 76.0594 26.1484 68.8979 26.1484 68.8979V66.8759C26.1484 66.8759 23.0074 74.7113 22.4981 75.7224C21.9887 76.7334 20.6978 85.4114 20.6978 85.4114ZM9.34009 118.607H8.66097L8.91564 107.654C9.0425 104.673 8.58921 104.359 7.98185 103.273L7.38762 121.219C7.41644 122.957 7.77465 123.629 9.34009 123.999C11.3554 123.287 12.1788 122.023 13.4148 119.112C13.6888 116.652 13.3683 115.353 12.2264 113.13C11.125 114.969 11.1201 116.433 11.2077 119.112H10.5286C10.7348 115.102 11.3872 113.242 12.9055 110.182L15.622 103.273C13.9484 102.535 13.2594 101.748 12.5659 99.5658C9.99018 102.239 9.70009 101.454 8.23652 101.925V102.43C8.88142 103.298 9.09713 103.842 9.34009 104.874C9.60049 111.203 9.50755 113.846 9.34348 118.511M9.34009 118.607L9.34348 118.511M9.34009 118.607C9.34123 118.575 9.34236 118.543 9.34348 118.511M41.2738 8.49435C43.2042 9.19464 44.2916 9.5891 45.4185 11.0165C47.1094 13.4306 47.5709 14.9882 47.7954 18.0094C44.6802 17.6117 42.9161 17.1464 39.7308 15.5661C38.3111 14.5388 37.6504 13.9236 37.1841 12.6173C37.8238 9.94415 39.0487 9.42526 41.2019 8.51304M15.7069 44.9702L17.3198 44.549L16.2162 49.6884L12.9904 57.3553L14.6033 49.6884L15.7069 44.9702ZM17.7443 44.549L16.386 51.1207L12.9904 58.7034C14.3975 60.5112 14.5694 61.5578 14.9429 63.4215C21.8919 63.2829 25.3272 62.8918 27.9311 59.7987V48.8459C26.736 46.7424 25.6976 45.8804 23.6017 44.549C20.8292 44.1214 19.5438 44.1188 17.7443 44.549ZM21.2248 37.0505C23.1258 31.9771 23.6242 29.0178 27.4217 24.3284L27.9311 24.8339V47.8348C27.1641 46.4754 26.732 45.7205 25.7239 45.1387C24.539 41.5735 23.7421 39.6698 21.2248 37.0505ZM14.6882 19.863L14.2637 23.1488L15.2824 26.5189C16.7698 28.0497 17.7819 28.6139 19.9514 28.9623C22.2634 28.6848 23.7672 27.7839 27.0822 23.9071L23.6017 19.863C19.1635 20.6241 17.3535 20.5102 14.6882 19.863ZM16.2162 8.48892L18.5932 7.98341H25.4693C26.8536 8.55726 27.4481 9.08198 27.9311 10.6795V23.9071L19.9514 14.5551L19.1025 11.3535L16.2162 8.48892ZM28.4404 10.6795C28.9506 9.49487 29.4861 8.90958 30.8174 7.98341L40.4949 8.48892C38.5746 8.98025 37.7873 9.80781 36.7597 12.0275C36.4409 13.9812 36.211 15.0627 34.8921 16.7457L28.4404 24.3284V10.6795ZM28.4404 6.63537V9.07869C28.907 8.50446 29.1903 8.19028 29.9685 7.73065C29.2045 7.53382 28.9004 7.25413 28.4404 6.63537ZM27.9311 6.63537V9.07869C27.2482 8.44817 26.8322 8.16395 26.0635 7.73065C26.9867 7.40549 27.3802 7.15844 27.9311 6.63537ZM27.9311 -3.55918V5.28733C27.2213 6.70942 26.5566 7.20885 24.7901 7.56214H19.9514C23.9047 4.78494 23.0757 3.32104 23.4319 0.653444C24.9493 -1.43328 25.6159 -2.94266 27.9311 -3.55918ZM28.4404 -3.55918V5.28733C28.7596 6.29078 29.0324 6.83273 30.5627 7.56214H35.0619C32.6659 5.6768 31.7843 4.28941 31.836 0.653444C30.7665 -1.27181 30.1526 -2.33559 28.4404 -3.55918ZM23.4319 -0.0205763C24.8112 -2.22614 25.4802 -3.62126 28.016 -4.06469C29.6777 -3.61546 30.591 -2.77355 32.1756 0.147928L32.5152 -0.694595C32.7187 -1.04093 32.9706 -1.19958 33.5338 -1.45287L34.0432 -2.88516V-4.73872H33.7885C33.7885 -4.73872 35.3165 -13.2482 28.016 -12.9955C20.7154 -12.7427 22.3283 -4.82297 22.3283 -4.82297L21.9039 -4.73872V-2.88516C22.2276 -1.80479 22.3817 -1.20294 23.4319 -0.0205763ZM7.30275 19.0205C7.09376 15.6309 7.42868 14.2872 8.40632 12.3645C10.7345 9.92858 12.2515 9.12119 15.2824 8.48892C16.73 9.60559 17.7572 9.96738 18.5083 11.9433C18.6428 13.2456 18.6334 13.9776 16.9802 15.3134C13.0142 17.8944 10.9923 18.3757 7.30275 19.0205ZM7.04807 19.4417L5.9445 24.3284C9.22216 22.6775 10.8876 21.5457 12.7357 18.1779C10.5133 19.045 9.27049 19.3561 7.04807 19.4417ZM11.1228 21.6323C12.4008 20.0918 12.8711 19.3105 13.4148 18.0094L14.2637 17.5882C14.2048 19.5969 14.1263 20.7424 13.9242 22.8118C12.9757 24.0238 12.5676 24.9489 11.8868 26.6874C11.3109 25.3443 10.8813 24.8341 11.1228 21.6323ZM10.5286 22.1378C10.6364 24.1879 10.6044 25.3405 11.6322 27.3615C11.6322 27.3615 9.34013 33.0906 9.17033 33.2591C9.00053 33.4276 5.60492 33.0064 5.43516 32.9221C5.2654 32.8379 3.22801 30.7316 3.14312 30.4788C3.05823 30.226 5.68983 25.0024 5.68983 25.0024C7.36589 24.324 8.38533 23.7808 10.5286 22.1378ZM2.97332 30.9843L5.43516 33.5961L9.00053 33.7646C7.37191 40.9997 1.36041 44.9702 -1.10141 52.3002C-1.10141 52.3002 -2.54455 51.9632 -2.969 51.7947C-3.39345 51.6262 -4.32724 50.5309 -4.32724 50.5309C-2.08328 42.8493 -1.25582 38.5083 2.97332 30.9843ZM28.4404 25.0866L29.2893 24.3284L35.9956 35.9552C32.7063 38.4661 31.4773 40.3911 30.6476 44.9702C29.5046 45.8359 29.0418 46.4805 28.4404 47.8348V25.0866ZM31.7511 27.3615L36.505 35.7025L39.3064 33.9332L40.6646 26.5189C39.4513 27.7652 38.7946 28.4821 36.6748 29.0465C34.5161 29.2601 33.5324 28.5444 31.7511 27.3615ZM20.7154 36.7135C22.0387 32.8022 22.7438 30.5735 24.7901 27.3615C22.6572 29.1598 21.6717 29.2953 19.9514 29.3835C18.2751 29.2631 17.3232 29.1411 15.2824 27.3615L15.9615 32.5009C17.6245 33.5591 18.6161 34.3351 20.7154 36.7135ZM37.9481 43.9592H39.3064C40.153 48.2521 40.7373 50.6199 42.0229 54.7435C42.4258 55.9853 42.5239 56.7284 42.5322 58.1136C40.1244 52.754 38.9097 49.7128 37.9481 43.9592ZM31.3267 44.7175C31.5964 41.3474 33.156 37.6114 39.3064 34.5229V43.2852C32.4373 43.3495 32.8674 43.9503 31.3267 44.7175ZM29.544 23.9071L33.0245 19.863C35.7014 20.2344 36.9801 20.9082 40.4949 19.526C40.4811 21.1095 40.5244 21.9693 41.2588 23.1488L41.0042 25.0866C39.6503 26.8598 38.7105 27.6021 36.7597 28.541C34.1886 28.5376 32.66 27.8978 29.544 23.9071ZM33.5338 19.526C35.0964 17.4592 36.4138 16.5968 36.7597 13.7126C37.8679 14.9246 38.4235 15.6323 40.1553 16.5772L40.2402 18.7677C39.5647 19.6574 39.0287 19.615 38.1179 19.6945L33.5338 19.526ZM40.6646 16.7457L41.6833 17.1669C42.7661 19.8242 43.3792 20.8152 44.4847 22.1378C44.4266 24.0409 44.0907 24.9752 43.2113 26.5189C41.9951 24.3226 41.4964 23.0707 41.0042 20.7898L40.6646 16.7457ZM43.466 27.3615C44.3203 25.6805 44.7741 24.7286 44.994 22.8118C46.5593 24.2864 47.432 24.6448 48.9839 25.0866L51.6155 31.4056C50.9674 32.2789 50.5458 32.7278 49.4083 33.2591C48.2046 33.6215 47.5389 33.6846 46.3523 33.7646L43.466 27.3615ZM46.6918 34.2702C46.6918 34.2702 46.1825 36.208 46.6918 37.556C47.2012 38.9041 52.3351 45.7209 55.3506 52.6372C55.3506 52.6372 56.7089 52.6372 57.388 52.2159C58.0671 51.7947 59.0009 50.8679 59.0009 50.8679C56.9776 43.5668 55.2631 39.4182 51.955 31.9953L49.8328 33.7646L46.6918 34.2702ZM29.3742 61.7365L29.9684 66.4546C34.6225 74.5685 35.5864 79.5461 36.2503 88.6973L36.5899 89.287C37.8481 86.1222 39.0118 84.9892 37.7783 78.3342C36.1637 73.9794 35.5786 70.8983 35.2316 64.0113C32.9505 63.5509 31.5927 63.0379 29.3742 61.7365ZM29.9684 67.5499L35.741 87.265C35.741 87.265 34.2129 78.0814 33.7885 76.7334C33.364 75.3854 29.9684 67.5499 29.9684 67.5499ZM35.741 64.0113H40.4948C40.7492 67.855 40.6353 69.8512 42.5322 74.7113L43.1264 85.1587C36.6389 77.7982 36.4355 72.816 35.741 64.0113ZM42.5322 59.4617C42.5322 59.4617 41.1739 62.7475 41.1739 65.2751C41.1739 67.8026 42.5322 73.4476 42.5322 73.4476V66.4546V59.4617ZM38.1179 87.0122C38.6838 84.7632 39.275 83.8128 38.6272 80.1877C39.5253 81.9563 39.9098 82.9451 41.8531 84.7374C41.8531 84.7374 40.7495 84.7374 40.325 85.1587C39.9006 85.5799 39.4761 86.6752 39.4761 86.6752L38.1179 87.0122ZM36.8445 89.8768C37.3863 88.8184 37.5024 88.2046 39.1366 87.265C39.1366 87.265 43.6358 96.4485 43.1264 99.5658C42.6171 102.683 39.4761 103.694 39.4761 103.694C38.6446 101.669 38.0921 100.567 37.8632 98.302C37.6821 94.3028 37.4221 92.583 36.8445 89.8768ZM40.0704 87.0122C40.0704 87.0122 40.1553 85.6642 41.0042 85.4114C41.8531 85.1587 43.1264 86.1697 43.1264 86.1697C43.1264 86.1697 46.8616 96.3642 46.6918 100.998C46.4844 101.687 44.4212 100.779 43.6358 99.2288C42.3119 90.4127 41.4859 90.4346 40.0704 87.0122ZM43.6358 100.071C42.4117 102.773 41.5495 103.821 39.4761 104.284C42.0444 109.072 43.8564 110.978 44.8242 119.112C44.6827 119.225 44.3828 119.382 44.3149 119.112C44.06 116.263 43.8584 114.837 43.1264 113.383C41.7495 114.564 41.6551 115.864 41.938 118.607C42.9663 122.066 43.6583 123.695 45.8429 123.999C49.0165 123.24 47.3903 114.671 47.0314 105.463C45.8367 110.179 46.0122 113.421 46.4371 119.281L45.8429 119.112C45.5136 112.1 45.6543 108.317 46.6918 101.925C44.959 101.623 44.4498 101.092 43.6358 100.071ZM12.9904 59.4617C12.9904 59.4617 14.6599 63.8822 14.6033 66.4546C14.5467 69.027 13.1643 73.9157 12.9904 73.7846V66.6231V59.4617ZM20.3758 63.7585C18.6394 76.0236 17.7283 83.0896 12.481 84.7374L12.8206 74.8798C12.8206 74.8798 14.0091 72.4365 14.6033 71.0042C15.1976 69.5719 14.9429 64.0113 14.9429 64.0113L20.3758 63.7585ZM14.1788 84.4846C15.2903 84.6236 15.8301 84.7965 16.3011 85.6642C16.7493 85.3045 17.0531 85.2335 17.8291 85.6642C17.316 83.0696 17.4541 81.8293 17.8291 79.6822C15.8214 84.0321 15.4215 83.3853 14.1788 84.4846ZM20.9701 63.7585C23.3456 63.3463 24.6605 63.3105 27.1671 61.3995L26.5728 65.6963C21.1131 73.1935 21.3949 78.263 20.0363 87.0122L19.442 88.1917C18.046 84.7822 17.1773 82.99 18.8478 75.3011C19.9332 70.9396 20.2617 68.3941 20.9701 63.7585ZM12.2264 85.6642V87.0122C9.95514 91.494 8.49412 93.7138 8.23652 101.335C9.78572 100.99 10.6457 101.392 12.2264 98.8918C12.8905 95.4759 12.8908 93.4481 14.4335 90.298L15.7918 86.6752C15.7918 86.6752 15.7918 85.4114 15.1126 85.1587C14.4335 84.9059 12.2264 85.6642 12.2264 85.6642ZM16.3011 86.6752C14.4528 91.0212 13.4419 93.4907 12.9055 99.5658C13.6539 101.178 13.8991 102.233 15.7918 102.852C15.7918 102.852 17.4047 98.8918 17.8291 97.7123C18.2536 96.5327 18.0502 91.1996 19.1874 88.6973L17.8291 86.1697C17.8291 86.1697 17.2349 85.7484 16.9802 85.8327C16.7256 85.9169 16.5558 86.1697 16.5558 86.1697L16.3011 86.6752ZM-8.99621 58.1136C-9.0811 58.0294 -7.74276 53.8851 -4.75169 51.1207C-3.49114 52.0849 -2.73584 52.5566 -1.10141 52.9742C-0.931632 56.5971 -2.17395 58.3835 -2.1201 62.3262L-2.20499 63.0003C-2.20499 63.0003 -2.20499 63.5058 -2.37477 63.59C-2.54455 63.6743 -2.71433 63.6743 -2.79922 63.59C-2.88411 63.5058 -2.969 62.6632 -2.969 62.6632L-3.22367 60.2199L-3.39345 59.7144C-3.39345 59.7144 -3.30856 59.5459 -3.47834 59.5459C-3.64812 59.5459 -3.64812 59.8829 -3.64812 59.8829L-3.90279 60.8939L-4.15746 62.4105L-4.32724 63.59C-4.32724 63.59 -4.41213 64.3483 -4.49702 64.5168C-4.58191 64.6853 -4.83658 64.601 -4.92147 64.5168C-5.00637 64.4325 -4.92147 59.8829 -4.92147 59.8829C-4.92147 59.8829 -4.83658 59.2931 -4.92147 59.2089C-5.00637 59.1246 -5.17615 59.2089 -5.17615 59.2089L-6.36461 63.1688L-6.53439 63.59C-6.53439 63.59 -6.78906 64.0955 -6.87395 64.1798C-6.95884 64.264 -7.12862 63.927 -7.12862 63.927L-6.36461 59.5459L-6.19483 58.8719C-6.19483 58.8719 -6.19483 58.6191 -6.36461 58.6191C-6.53439 58.6191 -6.70417 58.7034 -6.70417 58.7034L-7.80774 61.1467L-8.31709 62.4105L-8.74154 62.6632C-8.74154 62.6632 -8.99621 62.7475 -8.99621 62.6632C-8.99621 62.579 -8.74154 62.242 -8.74154 62.242L-7.63796 58.3664L-7.12862 56.8498V56.3443L-8.74154 58.1136C-8.74154 58.1136 -8.91132 58.1979 -8.99621 58.1136ZM55.3506 53.4797C56.8159 53.0609 57.614 53.15 59.1707 51.4577L63.9245 57.2711C63.9245 57.2711 64.0943 57.4396 63.9245 57.5238C63.7548 57.6081 61.2929 56.3443 61.2929 56.3443C61.2929 56.3443 60.9534 56.4286 60.9534 56.6813C60.9534 56.9341 61.2929 57.1026 61.2929 57.1026L63.9245 61.8207C63.9245 61.8207 64.0943 62.0735 63.9245 62.1577C63.7548 62.242 63.4152 62.1577 63.4152 62.1577L60.9534 58.8719C60.9534 58.8719 60.8685 58.7876 60.6987 58.8719C60.5289 58.9561 60.6987 59.3774 60.6987 59.3774L62.3116 63.8428C62.3116 63.8428 62.3965 64.0955 62.1418 64.0955C61.8872 64.0955 59.68 59.3774 59.5103 59.3774C59.3405 59.3774 59.1707 59.7144 59.1707 59.7144V60.2199C59.1707 60.2199 60.0196 64.1798 59.8498 64.3483C59.68 64.5168 59.5103 64.3483 59.5103 64.3483H59.1707C59.1707 64.3483 57.9822 59.7987 57.8124 59.7144H57.5578L57.388 60.3884V62.1577L57.2182 63.1688C57.2182 63.1688 57.3031 63.5058 57.2182 63.59C57.1333 63.6743 56.9635 63.59 56.9635 63.59C56.8045 63.2107 56.7415 62.9419 56.7089 62.3262C56.6763 61.7105 55.0583 57.3814 55.3506 53.4797Z" stroke="#1E1E1E"/>
</g>
</svg>
