<svg width="48" height="55" viewBox="0 0 48 55" fill="none" xmlns="http://www.w3.org/2000/svg">
<mask id="mask0_34714_7826" style="mask-type:alpha" maskUnits="userSpaceOnUse" x="-4" y="0" width="55" height="55">
<circle cx="23.5" cy="27.5" r="27.5" fill="#303030"/>
</mask>
<g mask="url(#mask0_34714_7826)">
<path d="M11.0652 -17.5152L11.0576 -17.6008C11.0576 -17.6008 16.4732 -12.3562 17.7304 -11.0936C18.9876 -9.83105 21.2118 -4.39219 21.2118 -4.39219C17.0866 -6.08774 14.8051 -5.974 10.7674 -4.8778C11.7371 -10.0051 11.4942 -12.7199 11.0652 -17.5152Z" fill="#B0B0B0"/>
<path d="M23.8229 -27.8958C19.4968 -22.4901 18.929 -19.0787 16.7633 -13.2303C19.631 -10.2109 20.5389 -8.01639 21.8888 -3.90658C23.0371 -3.23597 23.5294 -2.36575 24.4032 -0.798656V-27.3131L23.8229 -27.8958Z" fill="#B0B0B0"/>
<path d="M12.0033 -26.8384L14.6859 -28.8459C16.183 -29.9959 14.9952 -29.9762 20.0512 -30.8535C25.1072 -31.7308 23.4361 -28.3814 23.4361 -28.3814C19.6597 -23.9125 17.9465 -22.874 15.3127 -22.5541C12.8412 -22.9557 11.6881 -23.6061 9.99379 -25.3706L12.0033 -26.8384Z" fill="#B0B0B0"/>
<path d="M25.9505 -27.8958L24.9834 -27.0217V-0.798656C25.6685 -2.35988 26.1957 -3.10296 27.4978 -4.10082C28.443 -9.37938 29.8432 -11.5985 33.5903 -14.4929L25.9505 -27.8958Z" fill="#B0B0B0"/>
<path d="M34.1706 -14.7843L28.755 -24.3994C30.7842 -23.0357 31.9048 -22.2107 34.364 -22.457C36.7789 -23.1076 37.527 -23.934 38.9092 -25.3706L37.3619 -16.8239L34.1706 -14.7843Z" fill="#B0B0B0"/>
<path d="M20.825 -24.3994C18.4938 -20.6968 17.6906 -18.1276 16.183 -13.6188C13.7915 -16.3605 12.6619 -17.2551 10.7674 -18.4749L9.99379 -24.3994C12.3186 -22.348 13.403 -22.2073 15.3127 -22.0685C17.2725 -22.1702 18.3952 -22.3264 20.825 -24.3994Z" fill="#B0B0B0"/>
<path d="M37.3619 -16.144C30.3554 -12.5837 28.5787 -8.2771 28.2714 -4.39219C30.0266 -5.2766 29.5367 -5.9691 37.3619 -6.04328V-16.144Z" fill="#B0B0B0"/>
<path d="M27.4978 -30.1844L26.2406 -28.3814C29.7903 -23.7812 31.5318 -23.0437 34.4607 -23.0397C36.6831 -24.122 35.8196 -23.3267 37.3619 -25.3706L36.147 -26.8385C35.3104 -28.1983 33.5746 -26.0714 33.5903 -27.8968C29.5863 -26.3035 30.5473 -29.7563 27.4978 -30.1844Z" fill="#B0B0B0"/>
<path d="M26.7241 20.6654L26.0472 15.2265C28.5745 16.7267 30.1213 17.3181 32.72 17.8488C33.1152 25.7878 33.7817 29.3396 35.6212 34.3596C37.0264 42.0313 35.7006 43.3373 34.2673 46.9856L33.8804 46.3057C33.1241 35.7566 32.0261 30.0187 26.7241 20.6654Z" fill="#F9FAFB"/>
<path d="M33.3002 44.6546L26.7241 21.928C26.7241 21.928 30.5924 30.9604 31.0759 32.5143C31.5595 34.0683 33.3002 44.6546 33.3002 44.6546Z" fill="#F9FAFB"/>
<path d="M38.7158 17.8488H33.3002C34.0914 27.9985 34.3232 33.7418 41.7137 42.2266L41.0368 30.1834C38.8759 24.5809 39.0056 22.2797 38.7158 17.8488Z" fill="#F9FAFB"/>
<path d="M39.4895 19.3057C39.4895 16.392 41.0368 12.6042 41.0368 12.6042V20.6654V28.7265C41.0368 28.7265 39.4895 22.2193 39.4895 19.3057Z" fill="#F9FAFB"/>
<path d="M36.5882 36.4963C37.3262 40.6751 36.6527 41.7708 36.008 44.3633L37.5553 43.9748C37.5553 43.9748 38.0388 42.7122 38.5224 42.2266C39.0059 41.741 40.2631 41.741 40.2631 41.741C38.0494 39.6749 37.6113 38.535 36.5882 36.4963Z" fill="#F9FAFB"/>
<path d="M37.1685 44.6546C35.3068 45.7378 35.1746 46.4453 34.5574 47.6654C35.2154 50.7851 35.5116 52.7675 35.7179 57.3777C35.9786 59.9891 36.608 61.2586 37.5553 63.5935C37.5553 63.5935 41.1335 62.428 41.7137 58.8345C42.294 55.241 37.1685 44.6546 37.1685 44.6546Z" fill="#B0B0B0"/>
<path d="M39.296 42.5179C38.329 42.8093 38.2323 44.3633 38.2323 44.3633C39.8449 48.3084 40.7858 48.2832 42.294 58.446C43.1888 60.2328 45.5391 61.2792 45.7754 60.4856C45.9688 55.1438 41.7137 43.392 41.7137 43.392C41.7137 43.392 40.2631 42.2266 39.296 42.5179Z" fill="#B0B0B0"/>
<path d="M37.5553 64.2734C39.9173 63.7395 40.8995 62.5313 42.294 59.4172C43.2213 60.5935 43.8014 61.2065 45.7754 61.5539C44.5934 68.9226 44.4331 73.2832 44.8084 81.3669L45.4853 81.5611C45.0012 74.8058 44.8012 71.0688 46.1623 65.6331C46.5712 76.2471 48.4237 86.1248 44.8084 87C42.3196 86.6494 41.5313 84.7713 40.3598 80.7841C40.0376 77.6217 40.1451 76.1233 41.7137 74.7626C42.5476 76.4389 42.7773 78.0827 43.0676 81.3669C43.145 81.6777 43.4867 81.4964 43.6479 81.3669C42.5453 71.9902 40.4811 69.7933 37.5553 64.2734Z" fill="#B0B0B0"/>
<path d="M7.3827 29.115V20.8596V12.6042C7.3827 12.6042 9.28461 17.7 9.22013 20.6654C9.15565 23.6308 7.58083 29.2662 7.3827 29.115Z" fill="#F9FAFB"/>
<path d="M6.80243 41.741C12.7801 39.8415 13.818 31.6961 15.7962 17.5575L9.60696 17.8488C9.60696 17.8488 9.89711 24.2589 9.22013 25.91C8.54316 27.5611 7.18926 30.3776 7.18926 30.3776L6.80243 41.741Z" fill="#F9FAFB"/>
<path d="M11.1543 42.8093C10.6177 41.8091 10.0027 41.6098 8.73658 41.4496C10.1523 40.1823 10.6078 40.9279 12.895 35.9136C12.4678 38.3887 12.3104 39.8184 12.895 42.8093C12.0109 42.3128 11.6649 42.3947 11.1543 42.8093Z" fill="#F9FAFB"/>
<path d="M23.5328 14.838C20.6773 17.041 19.1794 17.0822 16.4732 17.5575C15.6662 22.9011 15.292 25.8355 14.0555 30.8632C12.1525 39.7266 13.1421 41.7926 14.7324 45.723L15.4094 44.3633C16.9572 34.2776 16.6361 28.4337 22.8558 19.7913L23.5328 14.838Z" fill="#F9FAFB"/>
<path d="M22.3723 23.4819C22.3723 23.4819 18.9875 31.7373 18.7941 32.5143C18.6007 33.2913 16.163 42.5179 16.163 42.5179C16.163 42.5179 17.6336 32.5143 18.2139 31.3489C18.7941 30.1834 22.3723 21.151 22.3723 21.151V23.4819Z" fill="#F9FAFB"/>
<path d="M6.51231 44.3633V42.8093C6.51231 42.8093 9.0267 41.9352 9.80035 42.2266C10.574 42.5179 10.574 43.9748 10.574 43.9748L9.0267 48.151C7.26924 51.7823 7.26887 54.1198 6.51231 58.0575C4.71157 60.9398 3.73193 60.4763 1.96707 60.8741C2.26053 52.0885 3.92492 49.5297 6.51231 44.3633Z" fill="#B0B0B0"/>
<path d="M1.96707 62.1367V61.5539C3.63438 61.0106 3.96484 61.9161 6.89914 58.8345C7.68919 61.3496 8.474 62.2577 10.3806 63.1079L7.28597 71.0719C5.55628 74.6 4.81316 76.7433 4.57816 81.3669H5.35182C5.25204 78.278 5.25766 76.5902 6.51231 74.4712C7.81316 77.033 8.17836 78.5304 7.86621 81.3669C6.45812 84.7225 5.52011 86.1795 3.22426 87C1.4409 86.5738 1.03283 85.7985 1 83.7949L1.67695 63.1079C2.36885 64.3593 2.88525 64.7221 2.74073 68.1582L2.45061 80.7841H3.22426L3.22813 80.6731C3.41503 75.2957 3.52091 72.2494 3.22426 64.9532C2.94748 63.7639 2.70175 63.137 1.96707 62.1367Z" fill="#B0B0B0"/>
<path d="M7.28597 58.8345C7.89703 51.8314 9.04868 48.9846 11.1543 43.9748L11.4444 43.392C11.4444 43.392 11.6378 43.1007 11.9279 43.0035C12.218 42.9064 12.895 43.392 12.895 43.392L14.4423 46.3057C13.1469 49.1903 13.3785 55.3381 12.895 56.6978C12.4114 58.0575 10.574 62.6223 10.574 62.6223C8.41793 61.9094 8.13856 60.6932 7.28597 58.8345Z" fill="#B0B0B0"/>
<path d="M24.9834 0.366814C27.2552 -2.7381 27.3314 -5.1189 35.1376 -5.2663L35.4278 -4.8778C35.9608 2.00197 37.6748 5.48603 40.7147 11.6651L40.7467 11.7301C39.6583 13.6301 39.4506 14.8976 39.1026 17.169C31.0628 17.9252 28.7537 16.2717 24.9834 12.9927V0.366814Z" fill="#B0B0B0"/>
<path d="M12.7983 -4.58643L11.251 2.98912L7.3827 11.7301C8.98563 13.8141 9.18148 15.0206 9.60696 17.169C17.5234 17.0092 21.4368 16.5584 24.4032 12.9927V0.366814C23.0417 -2.05793 21.8588 -3.05162 19.4711 -4.58643C16.3127 -5.07932 14.8484 -5.08228 12.7983 -4.58643Z" fill="#B0B0B0"/>
<path d="M10.4773 -4.10082L12.3148 -4.58643L11.0576 1.33804L7.3827 10.1762L9.22013 1.33804L10.4773 -4.10082Z" fill="#B0B0B0"/>
<path d="M35.8146 -5.2663H37.3619C38.3263 -0.317673 38.9921 2.41188 40.4565 7.16537C40.9156 8.59686 41.0273 9.45342 41.0368 11.0503C38.2939 4.87191 36.91 1.36624 35.8146 -5.2663Z" fill="#B0B0B0"/>
<path d="M11.0576 -17.6008C11.0576 -17.6008 16.4732 -12.3562 17.7304 -11.0936C18.9876 -9.83104 21.2118 -4.39219 21.2118 -4.39219C17.0866 -6.08774 14.8051 -5.97401 10.7674 -4.8778C11.7371 -10.0051 11.4942 -12.7199 11.0652 -17.5152M11.0576 -17.6008L11.0652 -17.5152M11.0576 -17.6008C11.0601 -17.5722 11.0627 -17.5437 11.0652 -17.5152M40.7467 11.7301C39.6583 13.6301 39.4506 14.8976 39.1026 17.169C31.0628 17.9252 28.7537 16.2717 24.9834 12.9927V0.366814C27.2552 -2.7381 27.3314 -5.1189 35.1376 -5.2663L35.4278 -4.8778C35.9608 2.00197 37.6748 5.48603 40.7147 11.6651M40.7467 11.7301L40.7147 11.6651M40.7467 11.7301C40.736 11.7084 40.7253 11.6867 40.7147 11.6651M16.0863 42.8093L16.163 42.5179M16.163 42.5179C16.163 42.5179 18.6007 33.2913 18.7941 32.5143C18.9875 31.7373 22.3723 23.4819 22.3723 23.4819V21.151C22.3723 21.151 18.7941 30.1834 18.2139 31.3489C17.6336 32.5143 16.163 42.5179 16.163 42.5179ZM3.22426 80.7842H2.45061L2.74073 68.1582C2.88525 64.7221 2.36885 64.3593 1.67695 63.1079L1 83.7949C1.03283 85.7985 1.4409 86.5738 3.22426 87C5.52011 86.1795 6.45812 84.7225 7.86621 81.3669C8.17836 78.5304 7.81316 77.033 6.51231 74.4712C5.25766 76.5902 5.25204 78.278 5.35182 81.3669H4.57816C4.81316 76.7433 5.55628 74.6 7.28597 71.0719L10.3806 63.1079C8.474 62.2576 7.68919 61.3496 6.89914 58.8345C3.96484 61.9161 3.63438 61.0106 1.96707 61.5539V62.1367C2.70175 63.137 2.94748 63.7639 3.22426 64.9532C3.52091 72.2494 3.41503 75.2957 3.22813 80.6731M3.22426 80.7842L3.22813 80.6731M3.22426 80.7842C3.22555 80.747 3.22684 80.71 3.22813 80.6731M10.4773 -4.10082L12.3148 -4.58643L11.0576 1.33804L7.3827 10.1762L9.22013 1.33804L10.4773 -4.10082ZM12.7983 -4.58643L11.251 2.98912L7.3827 11.7301C8.98563 13.8141 9.18148 15.0206 9.60696 17.169C17.5234 17.0092 21.4368 16.5584 24.4032 12.9927V0.366814C23.0417 -2.05793 21.8588 -3.05162 19.4711 -4.58643C16.3127 -5.07932 14.8484 -5.08228 12.7983 -4.58643ZM16.7633 -13.2303C18.929 -19.0787 19.4968 -22.4901 23.8229 -27.8958L24.4032 -27.3131V-0.798657C23.5294 -2.36575 23.0371 -3.23597 21.8888 -3.90658C20.5389 -8.01639 19.631 -10.2109 16.7633 -13.2303ZM14.6859 -28.8459L12.0033 -26.8384L9.99379 -25.3706C11.6881 -23.6061 12.8412 -22.9557 15.3127 -22.5541C17.9465 -22.874 19.6597 -23.9125 23.4361 -28.3814C23.4361 -28.3814 25.1072 -31.7308 20.0512 -30.8535C14.9952 -29.9762 16.183 -29.9959 14.6859 -28.8459ZM24.9834 -27.0217L25.9505 -27.8958L33.5903 -14.4929C29.8432 -11.5985 28.443 -9.37938 27.4978 -4.10082C26.1957 -3.10296 25.6685 -2.35988 24.9834 -0.798657V-27.0217ZM28.755 -24.3994L34.1706 -14.7843L37.3619 -16.8239L38.9092 -25.3706C37.527 -23.934 36.7789 -23.1076 34.364 -22.457C31.9048 -22.2107 30.7842 -23.0357 28.755 -24.3994ZM16.183 -13.6188C17.6906 -18.1276 18.4938 -20.6968 20.825 -24.3994C18.3952 -22.3264 17.2725 -22.1702 15.3127 -22.0685C13.403 -22.2073 12.3186 -22.348 9.99379 -24.3994L10.7674 -18.4749C12.6619 -17.2551 13.7915 -16.3605 16.183 -13.6188ZM35.8146 -5.2663H37.3619C38.3263 -0.317672 38.9921 2.41188 40.4565 7.16537C40.9156 8.59686 41.0273 9.45342 41.0368 11.0503C38.2939 4.87191 36.91 1.36624 35.8146 -5.2663ZM28.2714 -4.39219C28.5787 -8.2771 30.3554 -12.5837 37.3619 -16.144V-6.04328C29.5367 -5.9691 30.0266 -5.2766 28.2714 -4.39219ZM26.2406 -28.3814L27.4978 -30.1844C30.5473 -29.7563 29.5863 -26.3035 33.5903 -27.8968C33.5746 -26.0714 35.3104 -28.1983 36.147 -26.8385L37.3619 -25.3706C35.8196 -23.3267 36.6831 -24.122 34.4607 -23.0397C31.5318 -23.0437 29.7903 -23.7812 26.2406 -28.3814ZM26.0472 15.2265L26.7241 20.6654C32.0261 30.0187 33.1241 35.7566 33.8804 46.3057L34.2673 46.9856C35.7006 43.3373 37.0264 42.0313 35.6212 34.3596C33.7817 29.3396 33.1152 25.7878 32.72 17.8488C30.1213 17.3181 28.5745 16.7267 26.0472 15.2265ZM26.7241 21.928L33.3002 44.6546C33.3002 44.6546 31.5595 34.0683 31.0759 32.5143C30.5924 30.9604 26.7241 21.928 26.7241 21.928ZM33.3002 17.8488H38.7158C39.0056 22.2797 38.8759 24.5809 41.0368 30.1834L41.7137 42.2266C34.3232 33.7418 34.0914 27.9985 33.3002 17.8488ZM41.0368 12.6042C41.0368 12.6042 39.4895 16.392 39.4895 19.3057C39.4895 22.2193 41.0368 28.7265 41.0368 28.7265V20.6654V12.6042ZM36.008 44.3633C36.6527 41.7708 37.3262 40.6751 36.5882 36.4963C37.6113 38.535 38.0494 39.6749 40.2631 41.741C40.2631 41.741 39.0059 41.741 38.5224 42.2266C38.0388 42.7122 37.5553 43.9748 37.5553 43.9748L36.008 44.3633ZM34.5574 47.6654C35.1746 46.4453 35.3068 45.7378 37.1685 44.6546C37.1685 44.6546 42.294 55.2409 41.7137 58.8345C41.1335 62.428 37.5553 63.5935 37.5553 63.5935C36.608 61.2586 35.9786 59.9891 35.7179 57.3777C35.5116 52.7675 35.2154 50.7851 34.5574 47.6654ZM38.2323 44.3633C38.2323 44.3633 38.329 42.8093 39.296 42.5179C40.2631 42.2266 41.7137 43.392 41.7137 43.392C41.7137 43.392 45.9688 55.1438 45.7754 60.4856C45.5391 61.2792 43.1888 60.2328 42.294 58.446C40.7858 48.2832 39.8449 48.3084 38.2323 44.3633ZM42.294 59.4172C40.8995 62.5313 39.9173 63.7395 37.5553 64.2734C40.4811 69.7933 42.5453 71.9902 43.6479 81.3669C43.4867 81.4964 43.145 81.6777 43.0676 81.3669C42.7773 78.0827 42.5476 76.4389 41.7137 74.7626C40.1451 76.1233 40.0376 77.6217 40.3598 80.7842C41.5313 84.7713 42.3196 86.6494 44.8084 87C48.4237 86.1248 46.5712 76.2471 46.1623 65.6331C44.8012 71.0688 45.0012 74.8058 45.4853 81.5611L44.8084 81.3669C44.4331 73.2832 44.5934 68.9226 45.7754 61.5539C43.8014 61.2065 43.2213 60.5935 42.294 59.4172ZM7.3827 12.6042C7.3827 12.6042 9.28461 17.7 9.22013 20.6654C9.15565 23.6308 7.58083 29.2662 7.3827 29.115V20.8596V12.6042ZM15.7962 17.5575C13.818 31.6961 12.7801 39.8415 6.80243 41.741L7.18926 30.3776C7.18926 30.3776 8.54316 27.5611 9.22013 25.91C9.89711 24.2589 9.60696 17.8488 9.60696 17.8488L15.7962 17.5575ZM8.73657 41.4496C10.0027 41.6098 10.6177 41.8091 11.1543 42.8093C11.6649 42.3947 12.0109 42.3128 12.895 42.8093C12.3104 39.8184 12.4678 38.3887 12.895 35.9136C10.6078 40.9279 10.1523 40.1823 8.73657 41.4496ZM16.4732 17.5575C19.1794 17.0822 20.6773 17.041 23.5328 14.838L22.8558 19.7913C16.6361 28.4337 16.9572 34.2776 15.4094 44.3633L14.7324 45.723C13.1421 41.7926 12.1525 39.7266 14.0555 30.8632C15.292 25.8355 15.6662 22.9011 16.4732 17.5575ZM6.51231 42.8093V44.3633C3.92492 49.5297 2.26053 52.0885 1.96707 60.8741C3.73193 60.4763 4.71157 60.9398 6.51231 58.0575C7.26887 54.1198 7.26924 51.7823 9.0267 48.151L10.574 43.9748C10.574 43.9748 10.574 42.5179 9.80035 42.2266C9.0267 41.9352 6.51231 42.8093 6.51231 42.8093ZM11.1543 43.9748C9.04868 48.9846 7.89703 51.8314 7.28597 58.8345C8.13856 60.6932 8.41793 61.9094 10.574 62.6223C10.574 62.6223 12.4114 58.0575 12.895 56.6978C13.3785 55.3381 13.1469 49.1903 14.4423 46.3057L12.895 43.392C12.895 43.392 12.218 42.9064 11.9279 43.0035C11.6378 43.1007 11.4444 43.392 11.4444 43.392L11.1543 43.9748Z" stroke="#1E1E1E"/>
</g>
</svg>
