<svg width="46" height="55" viewBox="0 0 46 55" fill="none" xmlns="http://www.w3.org/2000/svg">
<mask id="mask0_34714_7825" style="mask-type:alpha" maskUnits="userSpaceOnUse" x="-4" y="0" width="55" height="55">
<circle cx="23.5" cy="27.5" r="27.5" fill="#303030"/>
</mask>
<g mask="url(#mask0_34714_7825)">
<path d="M11.4088 -41.3152L11.4016 -41.3957C11.4016 -41.3957 16.4641 -36.4622 17.6393 -35.2745C18.8145 -34.0868 20.8937 -28.9706 20.8937 -28.9706C17.0375 -30.5656 14.9048 -30.4586 11.1304 -29.4274C12.0368 -34.2506 11.8098 -36.8043 11.4088 -41.3152Z" fill="#B0B0B0"/>
<path d="M23.3345 -51.08C19.2905 -45.9949 18.7597 -42.7859 16.7353 -37.2845C19.416 -34.4442 20.2646 -32.3798 21.5265 -28.5138C22.5999 -27.883 23.0601 -27.0644 23.8769 -25.5903V-50.5318L23.3345 -51.08Z" fill="#B0B0B0"/>
<path d="M12.2857 -50.0853L14.7934 -51.9737C16.1928 -53.0554 15.0825 -53.0369 19.8087 -53.8622C24.535 -54.6875 22.9729 -51.5368 22.9729 -51.5368C19.4428 -47.3329 17.8413 -46.356 15.3793 -46.0551C13.069 -46.4329 11.9911 -47.0447 10.4072 -48.7046L12.2857 -50.0853Z" fill="#B0B0B0"/>
<path d="M25.3232 -51.08L24.4193 -50.2577V-25.5903C25.0597 -27.0589 25.5525 -27.7579 26.7697 -28.6965C27.6533 -33.662 28.9621 -35.7494 32.4649 -38.4722L25.3232 -51.08Z" fill="#B0B0B0"/>
<path d="M33.0073 -38.7462L27.9449 -47.791C29.8417 -46.5082 30.8892 -45.7321 33.1881 -45.9638C35.4455 -46.5758 36.1448 -47.3532 37.4369 -48.7046L35.9905 -40.6648L33.0073 -38.7462Z" fill="#B0B0B0"/>
<path d="M20.5321 -47.791C18.3529 -44.308 17.6021 -41.8912 16.1928 -37.6499C13.9572 -40.2289 12.9013 -41.0705 11.1304 -42.218L10.4072 -47.791C12.5804 -45.8612 13.5941 -45.7289 15.3793 -45.5983C17.2112 -45.694 18.2607 -45.8409 20.5321 -47.791Z" fill="#B0B0B0"/>
<path d="M35.9905 -40.0253C29.4409 -36.6762 27.7801 -32.6251 27.4929 -28.9706C29.1336 -29.8026 28.6756 -30.454 35.9905 -30.5238V-40.0253Z" fill="#B0B0B0"/>
<path d="M26.7697 -53.2328L25.5945 -51.5368C28.9127 -47.2094 30.5406 -46.5157 33.2785 -46.5119C35.3559 -47.53 34.5488 -46.7819 35.9905 -48.7046L34.8548 -50.0854C34.0727 -51.3645 32.4502 -49.3638 32.4649 -51.0809C28.7219 -49.5821 29.6203 -52.8301 26.7697 -53.2328Z" fill="#B0B0B0"/>
<path d="M26.0465 -5.39951L25.4137 -10.5157C27.7761 -9.10451 29.2221 -8.54823 31.6513 -8.04897C32.0207 -0.580952 32.6438 2.76018 34.3633 7.48238C35.6768 14.6989 34.4375 15.9275 33.0977 19.3593L32.7361 18.7198C32.0291 8.79651 31.0026 3.39898 26.0465 -5.39951Z" fill="#B0B0B0"/>
<path d="M32.1937 17.1666L26.0465 -4.21182C26.0465 -4.21182 29.6625 4.28474 30.1145 5.74652C30.5665 7.20829 32.1937 17.1666 32.1937 17.1666Z" fill="#B0B0B0"/>
<path d="M37.2561 -8.04897H32.1937C32.9333 1.49855 33.1499 6.90114 40.0585 14.8826L39.4257 3.55386C37.4057 -1.7163 37.527 -3.88097 37.2561 -8.04897Z" fill="#B0B0B0"/>
<path d="M37.9793 -6.67856C37.9793 -9.41939 39.4257 -12.9825 39.4257 -12.9825V-5.39951V2.18345C39.4257 2.18345 37.9793 -3.93774 37.9793 -6.67856Z" fill="#B0B0B0"/>
<path d="M35.2673 9.49232C35.9571 13.4232 35.3275 14.4538 34.7249 16.8926L36.1713 16.5271C36.1713 16.5271 36.6233 15.3394 37.0753 14.8826C37.5273 14.4258 38.7025 14.4258 38.7025 14.4258C36.6331 12.4823 36.2237 11.4101 35.2673 9.49232Z" fill="#B0B0B0"/>
<path d="M35.8097 17.1666C34.0694 18.1855 33.9458 18.8511 33.3689 19.9988C33.9839 22.9334 34.2608 24.7982 34.4537 29.1349C34.6974 31.5914 35.2857 32.7857 36.1713 34.982C36.1713 34.982 39.5161 33.8857 40.0585 30.5053C40.6009 27.125 35.8097 17.1666 35.8097 17.1666Z" fill="#F9FAFB"/>
<path d="M37.7985 15.1567C36.8945 15.4308 36.8041 16.8926 36.8041 16.8926C38.3115 20.6037 39.1911 20.58 40.6009 30.1399C41.4373 31.8207 43.6344 32.805 43.8553 32.0585C44.0361 27.0336 40.0585 15.9789 40.0585 15.9789C40.0585 15.9789 38.7025 14.8826 37.7985 15.1567Z" fill="#F9FAFB"/>
<path d="M36.1713 35.6215C38.3792 35.1194 39.2973 33.9828 40.6009 31.0535C41.4678 32.16 42.01 32.7366 43.8553 33.0634C42.7504 39.995 42.6005 44.0969 42.9513 51.7011L43.5841 51.8838C43.1315 45.5292 42.9446 42.0139 44.2169 36.9006C44.5992 46.885 46.3308 56.1767 42.9513 57C40.6248 56.6702 39.8879 54.9035 38.7929 51.1529C38.4917 48.1781 38.5922 46.7685 40.0585 45.4885C40.838 47.0654 41.0527 48.6117 41.3241 51.7011C41.3964 51.9934 41.7158 51.8229 41.8665 51.7011C40.8358 42.8806 38.9062 40.814 36.1713 35.6215Z" fill="#B0B0B0"/>
<path d="M7.96643 2.54889V-5.21679V-12.9825C7.96643 -12.9825 9.74431 -8.18897 9.68404 -5.39951C9.62376 -2.61005 8.15164 2.69105 7.96643 2.54889Z" fill="#B0B0B0"/>
<path d="M7.42401 14.4258C13.0118 12.6391 13.9821 4.97687 15.8312 -8.32307L10.0456 -8.04897C10.0456 -8.04897 10.3169 -2.01916 9.68404 -0.466022C9.05121 1.08711 7.78561 3.73657 7.78561 3.73657L7.42401 14.4258Z" fill="#B0B0B0"/>
<path d="M11.492 15.4308C10.9904 14.4899 10.4156 14.3024 9.23202 14.1517C10.5554 12.9596 10.9812 13.661 13.1192 8.94415C12.7199 11.2724 12.5727 12.6173 13.1192 15.4308C12.2928 14.9637 11.9693 15.0408 11.492 15.4308Z" fill="#B0B0B0"/>
<path d="M23.0632 -10.8812C20.394 -8.80893 18.9937 -8.77012 16.464 -8.32307C15.7097 -3.2964 15.3599 -0.53614 14.204 4.19339C12.4251 12.531 13.3502 14.4744 14.8368 18.1716L15.4696 16.8926C16.9165 7.40518 16.6164 1.90793 22.4304 -6.22176L23.0632 -10.8812Z" fill="#B0B0B0"/>
<path d="M21.9784 -2.75004C21.9784 -2.75004 18.8144 5.01563 18.6336 5.74652C18.4528 6.47741 16.1741 15.1567 16.1741 15.1567C16.1741 15.1567 17.5488 5.74653 18.0912 4.6502C18.6336 3.55387 21.9784 -4.94271 21.9784 -4.94271V-2.75004Z" fill="#B0B0B0"/>
<path d="M7.15281 16.8926V15.4308C7.15281 15.4308 9.50322 14.6085 10.2264 14.8826C10.9496 15.1567 10.9496 16.5271 10.9496 16.5271L9.50322 20.4556C7.86038 23.8714 7.86003 26.0703 7.15281 29.7744C5.46951 32.4858 4.55376 32.0497 2.904 32.4239C3.17832 24.1595 4.73417 21.7525 7.15281 16.8926Z" fill="#F9FAFB"/>
<path d="M2.904 33.6116V33.0634C4.46257 32.5524 4.77148 33.4041 7.51441 30.5053C8.25294 32.8713 8.98657 33.7254 10.7688 34.5252L7.87601 42.0168C6.25913 45.3356 5.56448 47.3518 5.34481 51.7011H6.06801C5.97474 48.7954 5.97999 47.2077 7.15281 45.2144C8.36882 47.6243 8.71021 49.0328 8.41841 51.7011C7.10215 54.8576 6.22532 56.2281 4.0792 57C2.41215 56.599 2.03069 55.8698 2 53.9851L2.6328 34.5252C3.27958 35.7024 3.7623 36.0437 3.6272 39.276L3.356 51.1529H4.0792L4.08281 51.0484C4.25753 45.99 4.3565 43.1244 4.0792 36.2611C3.82047 35.1423 3.59077 34.5526 2.904 33.6116Z" fill="#B0B0B0"/>
<path d="M7.87601 30.5053C8.44722 23.9177 9.52377 21.2398 11.492 16.5271L11.7632 15.9789C11.7632 15.9789 11.944 15.7049 12.2152 15.6135C12.4864 15.5221 13.1192 15.9789 13.1192 15.9789L14.5656 18.7198C13.3547 21.4332 13.5712 27.2163 13.1192 28.4954C12.6672 29.7744 10.9496 34.0684 10.9496 34.0684C8.93415 33.3979 8.67301 32.2538 7.87601 30.5053Z" fill="#F9FAFB"/>
<path d="M24.4193 -24.4939C26.5429 -27.4147 26.6141 -29.6542 33.9113 -29.7929L34.1825 -29.4274C34.6807 -22.9558 36.283 -19.6784 39.1246 -13.8659L39.1545 -13.8047C38.1371 -12.0174 37.9429 -10.8251 37.6177 -8.6885C30.1022 -7.97712 27.9437 -9.53257 24.4193 -12.617V-24.4939Z" fill="#F9FAFB"/>
<path d="M13.0288 -29.1533L11.5824 -22.0272L7.96643 -13.8047C9.46482 -11.8444 9.6479 -10.7094 10.0456 -8.6885C17.4458 -8.83884 21.104 -9.26287 23.8769 -12.617V-24.4939C22.6042 -26.7748 21.4984 -27.7096 19.2665 -29.1533C16.3141 -29.617 14.9452 -29.6198 13.0288 -29.1533Z" fill="#F9FAFB"/>
<path d="M10.8592 -28.6965L12.5768 -29.1533L11.4016 -23.5803L7.96643 -15.2665L9.68404 -23.5803L10.8592 -28.6965Z" fill="#F9FAFB"/>
<path d="M34.5441 -29.7929H35.9905C36.892 -25.1378 37.5143 -22.5702 38.8833 -18.0987C39.3124 -16.7521 39.4168 -15.9464 39.4257 -14.4442C36.8617 -20.2561 35.5681 -23.5538 34.5441 -29.7929Z" fill="#F9FAFB"/>
<path d="M11.4016 -41.3957C11.4016 -41.3957 16.4641 -36.4622 17.6393 -35.2745C18.8145 -34.0868 20.8937 -28.9706 20.8937 -28.9706C17.0375 -30.5656 14.9048 -30.4586 11.1304 -29.4274C12.0368 -34.2506 11.8098 -36.8043 11.4088 -41.3152M11.4016 -41.3957L11.4088 -41.3152M11.4016 -41.3957C11.404 -41.3688 11.4064 -41.3419 11.4088 -41.3152M39.1545 -13.8047C38.1371 -12.0174 37.9429 -10.8251 37.6177 -8.6885C30.1022 -7.97712 27.9437 -9.53257 24.4193 -12.617V-24.4939C26.5429 -27.4147 26.6141 -29.6542 33.9113 -29.7929L34.1825 -29.4274C34.6807 -22.9558 36.283 -19.6784 39.1246 -13.8659M39.1545 -13.8047L39.1246 -13.8659M39.1545 -13.8047C39.1445 -13.8251 39.1345 -13.8455 39.1246 -13.8659M16.1024 15.4308L16.1741 15.1567M16.1741 15.1567C16.1741 15.1567 18.4528 6.4774 18.6336 5.74652C18.8144 5.01563 21.9784 -2.75004 21.9784 -2.75004V-4.94271C21.9784 -4.94271 18.6336 3.55387 18.0912 4.6502C17.5488 5.74653 16.1741 15.1567 16.1741 15.1567ZM4.0792 51.1529H3.356L3.6272 39.276C3.7623 36.0437 3.27958 35.7024 2.6328 34.5252L2 53.9851C2.03069 55.8698 2.41215 56.599 4.0792 57C6.22532 56.2281 7.10215 54.8576 8.41841 51.7011C8.71021 49.0328 8.36882 47.6243 7.15281 45.2144C5.97999 47.2077 5.97474 48.7954 6.06801 51.7011H5.34481C5.56448 47.3518 6.25913 45.3356 7.87601 42.0168L10.7688 34.5252C8.98657 33.7254 8.25294 32.8713 7.51441 30.5053C4.77148 33.4041 4.46257 32.5524 2.904 33.0634V33.6116C3.59077 34.5526 3.82047 35.1423 4.0792 36.2611C4.3565 43.1244 4.25753 45.99 4.08281 51.0484M4.0792 51.1529L4.08281 51.0484M4.0792 51.1529C4.08041 51.118 4.08162 51.0831 4.08281 51.0484M10.8592 -28.6965L12.5768 -29.1533L11.4016 -23.5803L7.96643 -15.2665L9.68404 -23.5803L10.8592 -28.6965ZM13.0288 -29.1533L11.5824 -22.0272L7.96643 -13.8047C9.46482 -11.8444 9.6479 -10.7094 10.0456 -8.6885C17.4458 -8.83884 21.104 -9.26288 23.8769 -12.617V-24.4939C22.6042 -26.7748 21.4984 -27.7096 19.2665 -29.1533C16.3141 -29.617 14.9452 -29.6198 13.0288 -29.1533ZM16.7353 -37.2845C18.7597 -42.7859 19.2905 -45.9949 23.3345 -51.08L23.8769 -50.5318V-25.5903C23.0601 -27.0644 22.5999 -27.883 21.5265 -28.5138C20.2646 -32.3798 19.416 -34.4442 16.7353 -37.2845ZM14.7934 -51.9737L12.2857 -50.0853L10.4072 -48.7046C11.9911 -47.0447 13.069 -46.4329 15.3793 -46.0551C17.8413 -46.356 19.4428 -47.3329 22.9729 -51.5368C22.9729 -51.5368 24.535 -54.6875 19.8087 -53.8622C15.0825 -53.0369 16.1928 -53.0554 14.7934 -51.9737ZM24.4193 -50.2577L25.3232 -51.08L32.4649 -38.4722C28.9621 -35.7494 27.6533 -33.662 26.7697 -28.6965C25.5525 -27.7579 25.0597 -27.0589 24.4193 -25.5903V-50.2577ZM27.9449 -47.791L33.0073 -38.7462L35.9905 -40.6648L37.4369 -48.7046C36.1448 -47.3532 35.4455 -46.5758 33.1881 -45.9638C30.8892 -45.7321 29.8417 -46.5082 27.9449 -47.791ZM16.1928 -37.6499C17.6021 -41.8912 18.3529 -44.308 20.5321 -47.791C18.2607 -45.8409 17.2112 -45.694 15.3793 -45.5983C13.5941 -45.7289 12.5804 -45.8612 10.4072 -47.791L11.1304 -42.218C12.9013 -41.0705 13.9572 -40.2289 16.1928 -37.6499ZM34.5441 -29.7929H35.9905C36.892 -25.1378 37.5143 -22.5702 38.8833 -18.0987C39.3124 -16.7521 39.4168 -15.9464 39.4257 -14.4442C36.8617 -20.2561 35.5681 -23.5538 34.5441 -29.7929ZM27.4929 -28.9706C27.7801 -32.6251 29.4409 -36.6762 35.9905 -40.0253V-30.5238C28.6756 -30.454 29.1336 -29.8026 27.4929 -28.9706ZM25.5945 -51.5368L26.7697 -53.2328C29.6203 -52.8301 28.7219 -49.5821 32.4649 -51.0809C32.4502 -49.3638 34.0727 -51.3645 34.8548 -50.0854L35.9905 -48.7046C34.5488 -46.7819 35.3559 -47.53 33.2785 -46.5119C30.5406 -46.5157 28.9127 -47.2094 25.5945 -51.5368ZM25.4137 -10.5157L26.0465 -5.39951C31.0026 3.39898 32.0291 8.79651 32.7361 18.7198L33.0977 19.3593C34.4375 15.9275 35.6768 14.6989 34.3633 7.48238C32.6438 2.76018 32.0207 -0.580952 31.6513 -8.04897C29.2221 -8.54823 27.7761 -9.10451 25.4137 -10.5157ZM26.0465 -4.21182L32.1937 17.1666C32.1937 17.1666 30.5665 7.20829 30.1145 5.74652C29.6625 4.28474 26.0465 -4.21182 26.0465 -4.21182ZM32.1937 -8.04897H37.2561C37.527 -3.88097 37.4057 -1.71631 39.4257 3.55386L40.0585 14.8826C33.1499 6.90114 32.9333 1.49855 32.1937 -8.04897ZM39.4257 -12.9825C39.4257 -12.9825 37.9793 -9.41939 37.9793 -6.67856C37.9793 -3.93773 39.4257 2.18345 39.4257 2.18345V-5.39951V-12.9825ZM34.7249 16.8926C35.3275 14.4538 35.9571 13.4232 35.2673 9.49232C36.2237 11.4101 36.6331 12.4823 38.7025 14.4258C38.7025 14.4258 37.5273 14.4258 37.0753 14.8826C36.6233 15.3394 36.1713 16.5271 36.1713 16.5271L34.7249 16.8926ZM33.3689 19.9988C33.9458 18.8511 34.0694 18.1855 35.8097 17.1666C35.8097 17.1666 40.6009 27.125 40.0585 30.5053C39.5161 33.8857 36.1713 34.982 36.1713 34.982C35.2857 32.7857 34.6974 31.5914 34.4537 29.1349C34.2608 24.7982 33.9839 22.9334 33.3689 19.9988ZM36.8041 16.8926C36.8041 16.8926 36.8945 15.4308 37.7985 15.1567C38.7025 14.8826 40.0585 15.9789 40.0585 15.9789C40.0585 15.9789 44.0361 27.0336 43.8553 32.0585C43.6344 32.805 41.4373 31.8207 40.6009 30.1399C39.1911 20.58 38.3115 20.6037 36.8041 16.8926ZM40.6009 31.0535C39.2973 33.9828 38.3792 35.1194 36.1713 35.6215C38.9062 40.814 40.8358 42.8806 41.8665 51.7011C41.7158 51.8229 41.3964 51.9934 41.3241 51.7011C41.0527 48.6117 40.838 47.0654 40.0585 45.4885C38.5922 46.7685 38.4917 48.1781 38.7929 51.1529C39.8879 54.9035 40.6248 56.6702 42.9513 57C46.3308 56.1767 44.5992 46.885 44.2169 36.9006C42.9446 42.0139 43.1315 45.5292 43.5841 51.8838L42.9513 51.7011C42.6005 44.0969 42.7504 39.995 43.8553 33.0634C42.01 32.7366 41.4678 32.16 40.6009 31.0535ZM7.96643 -12.9825C7.96643 -12.9825 9.74431 -8.18897 9.68404 -5.39951C9.62376 -2.61006 8.15164 2.69105 7.96643 2.54889V-5.21679V-12.9825ZM15.8312 -8.32307C13.9821 4.97687 13.0118 12.6391 7.42401 14.4258L7.78562 3.73657C7.78562 3.73657 9.05121 1.08711 9.68404 -0.466023C10.3169 -2.01916 10.0456 -8.04897 10.0456 -8.04897L15.8312 -8.32307ZM9.23202 14.1517C10.4156 14.3024 10.9904 14.4899 11.492 15.4308C11.9693 15.0408 12.2928 14.9637 13.1192 15.4308C12.5727 12.6173 12.7199 11.2724 13.1192 8.94415C10.9812 13.661 10.5554 12.9596 9.23202 14.1517ZM16.464 -8.32307C18.9937 -8.77012 20.394 -8.80893 23.0632 -10.8812L22.4304 -6.22176C16.6164 1.90793 16.9165 7.40518 15.4696 16.8926L14.8368 18.1716C13.3502 14.4744 12.4251 12.531 14.204 4.19339C15.3599 -0.536141 15.7097 -3.2964 16.464 -8.32307ZM7.15281 15.4308V16.8926C4.73417 21.7525 3.17832 24.1595 2.904 32.4239C4.55376 32.0497 5.46951 32.4858 7.15281 29.7744C7.86003 26.0703 7.86038 23.8714 9.50322 20.4556L10.9496 16.5271C10.9496 16.5271 10.9496 15.1567 10.2264 14.8826C9.50322 14.6085 7.15281 15.4308 7.15281 15.4308ZM11.492 16.5271C9.52377 21.2398 8.44722 23.9177 7.87601 30.5053C8.67301 32.2538 8.93415 33.3979 10.9496 34.0684C10.9496 34.0684 12.6672 29.7744 13.1192 28.4954C13.5712 27.2163 13.3547 21.4332 14.5656 18.7198L13.1192 15.9789C13.1192 15.9789 12.4864 15.5221 12.2152 15.6135C11.944 15.7049 11.7632 15.9789 11.7632 15.9789L11.492 16.5271Z" stroke="#1E1E1E"/>
</g>
</svg>
