<svg width="46" height="55" viewBox="0 0 46 55" fill="none" xmlns="http://www.w3.org/2000/svg">
<mask id="mask0_34714_7821" style="mask-type:alpha" maskUnits="userSpaceOnUse" x="-4" y="0" width="55" height="55">
<circle cx="23.5" cy="27.5" r="27" fill="#303030" stroke="#1E1E1E"/>
</mask>
<g mask="url(#mask0_34714_7821)">
<path d="M11.7524 5.77062L11.7457 5.69588C11.7457 5.69588 16.4549 10.2738 17.5481 11.3759C18.6414 12.478 20.5755 17.2255 20.5755 17.2255C16.9884 15.7454 15.0045 15.8447 11.4934 16.8016C12.3366 12.326 12.1254 9.95635 11.7524 5.77062Z" fill="#B0B0B0"/>
<path d="M22.846 -3.29041C19.0842 1.42815 18.5905 4.4059 16.7072 9.51082C19.2009 12.1464 19.9904 14.062 21.1642 17.6493C22.1627 18.2347 22.5908 18.9943 23.3506 20.3622V-2.78175L22.846 -3.29041Z" fill="#B0B0B0"/>
<path d="M12.5681 -2.3674L14.9008 -4.11976C16.2026 -5.1235 15.1697 -5.1063 19.5663 -5.87211C23.9628 -6.63792 22.5096 -3.71429 22.5096 -3.71429C19.2258 0.186546 17.7361 1.09307 15.4458 1.37229C13.2967 1.02174 12.294 0.454031 10.8207 -1.08623L12.5681 -2.3674Z" fill="#B0B0B0"/>
<path d="M24.696 -3.29041L23.8551 -2.52743V20.3622C24.4509 18.9994 24.9093 18.3508 26.0415 17.4798C26.8635 12.8722 28.081 10.9352 31.3394 8.40872L24.696 -3.29041Z" fill="#B0B0B0"/>
<path d="M31.844 8.15439L27.1348 -0.238472C28.8993 0.951849 29.8737 1.67201 32.0122 1.45705C34.1121 0.889106 34.7626 0.167797 35.9645 -1.08623L34.619 6.37408L31.844 8.15439Z" fill="#B0B0B0"/>
<path d="M20.2391 -0.238472C18.212 2.99352 17.5136 5.23607 16.2026 9.1717C14.123 6.77856 13.1407 5.99766 11.4934 4.93289L10.8207 -0.238472C12.8423 1.5522 13.7852 1.675 15.4458 1.79616C17.15 1.70739 18.1262 1.57103 20.2391 -0.238472Z" fill="#B0B0B0"/>
<path d="M34.619 6.96752C28.5264 10.0752 26.9815 13.8344 26.7143 17.2255C28.2405 16.4535 27.8145 15.849 34.619 15.7843V6.96752Z" fill="#B0B0B0"/>
<path d="M26.0415 -5.28811L24.9483 -3.71429C28.0351 0.301185 29.5494 0.944931 32.0963 0.948398C34.0288 0.00370169 33.2779 0.697915 34.619 -1.08623L33.5626 -2.36752C32.8351 -3.55444 31.3257 -1.69792 31.3394 -3.29128C27.8576 -1.9005 28.6933 -4.91444 26.0415 -5.28811Z" fill="#B0B0B0"/>
<path d="M25.3688 39.0978L24.7801 34.3503C26.9778 35.6598 28.3229 36.176 30.5826 36.6392C30.9262 43.569 31.5059 46.6694 33.1054 51.0512C34.3273 57.7476 33.1744 58.8877 31.9281 62.0721L31.5917 61.4787C30.934 52.2706 29.9792 47.2621 25.3688 39.0978Z" fill="#B0B0B0"/>
<path d="M31.0871 60.0375L25.3688 40.1998C25.3688 40.1998 28.7325 48.084 29.153 49.4405C29.5735 50.7969 31.0871 60.0375 31.0871 60.0375Z" fill="#B0B0B0"/>
<path d="M35.7964 36.6392H31.0871C31.7751 45.4987 31.9767 50.5119 38.4032 57.9181L37.8146 47.4058C35.9355 42.5155 36.0483 40.5068 35.7964 36.6392Z" fill="#B0B0B0"/>
<path d="M36.4691 37.9109C36.4691 35.3676 37.8146 32.0613 37.8146 32.0613V39.0978V46.1342C37.8146 46.1342 36.4691 40.4542 36.4691 37.9109Z" fill="#B0B0B0"/>
<path d="M33.9463 52.9163C34.588 56.5639 34.0024 57.5202 33.4417 59.7832L34.7872 59.4441C34.7872 59.4441 35.2077 58.342 35.6282 57.9181C36.0486 57.4942 37.1418 57.4942 37.1418 57.4942C35.2168 55.6908 34.836 54.6958 33.9463 52.9163Z" fill="#B0B0B0"/>
<path d="M34.4509 60.0375C32.832 60.983 32.7171 61.6006 32.1803 62.6656C32.7525 65.3887 33.0101 67.1191 33.1895 71.1432C33.4162 73.4227 33.9635 74.5309 34.7872 76.5689C34.7872 76.5689 37.8987 75.5516 38.4032 72.4148C38.9078 69.2781 34.4509 60.0375 34.4509 60.0375Z" fill="#B0B0B0"/>
<path d="M36.3009 58.1724C35.46 58.4268 35.3759 59.7832 35.3759 59.7832C36.7782 63.2268 37.5964 63.2048 38.9078 72.0757C39.6859 73.6354 41.7297 74.5488 41.9352 73.856C42.1033 69.1934 38.4032 58.9354 38.4032 58.9354C38.4032 58.9354 37.1418 57.9181 36.3009 58.1724Z" fill="#B0B0B0"/>
<path d="M34.7872 77.1623C36.8412 76.6964 37.6952 75.6417 38.9078 72.9235C39.7142 73.9503 40.2186 74.4853 41.9352 74.7886C40.9073 81.2206 40.7679 85.0269 41.0942 92.083L41.6829 92.2525C41.2619 86.3559 41.088 83.094 42.2715 78.3492C42.6271 87.614 44.238 96.236 41.0942 97C38.9301 96.694 38.2446 95.0546 37.2259 91.5743C36.9457 88.8139 37.0393 87.506 38.4032 86.3182C39.1284 87.7814 39.328 89.2162 39.5805 92.083C39.6478 92.3543 39.945 92.196 40.0851 92.083C39.1264 83.8982 37.3314 81.9806 34.7872 77.1623Z" fill="#B0B0B0"/>
<path d="M8.55017 46.4733V39.2673V32.0613C8.55017 32.0613 10.204 36.5093 10.1479 39.0978C10.0919 41.6862 8.72246 46.6052 8.55017 46.4733Z" fill="#B0B0B0"/>
<path d="M8.04559 57.4942C13.2436 55.8362 14.1461 48.7263 15.8663 36.3849L10.4843 36.6392C10.4843 36.6392 10.7366 42.2345 10.1479 43.6757C9.55927 45.1169 8.38197 47.5754 8.38197 47.5754L8.04559 57.4942Z" fill="#B0B0B0"/>
<path d="M11.8298 58.4268C11.3632 57.5537 10.8285 57.3797 9.72746 57.2399C10.9585 56.1337 11.3546 56.7845 13.3435 52.4076C12.972 54.5681 12.8351 55.816 13.3435 58.4268C12.5747 57.9934 12.2738 58.0649 11.8298 58.4268Z" fill="#B0B0B0"/>
<path d="M22.5937 34.0112C20.1107 35.9341 18.8081 35.9701 16.4549 36.3849C15.7532 41.0493 15.4278 43.6106 14.3526 47.9993C12.6978 55.7359 13.5583 57.5393 14.9412 60.9701L15.5299 59.7832C16.8758 50.9796 16.5966 45.8785 22.0051 38.3348L22.5937 34.0112Z" fill="#B0B0B0"/>
<path d="M21.5846 41.5563C21.5846 41.5563 18.6413 48.7623 18.4732 49.4405C18.305 50.1187 16.1852 58.1724 16.1852 58.1724C16.1852 58.1724 17.464 49.4405 17.9686 48.4232C18.4732 47.4058 21.5846 39.5216 21.5846 39.5216V41.5563Z" fill="#B0B0B0"/>
<path d="M7.79331 59.7832V58.4268C7.79331 58.4268 9.97974 57.6638 10.6525 57.9181C11.3252 58.1724 11.3252 59.4441 11.3252 59.4441L9.97974 63.0895C8.45152 66.2591 8.45119 68.2995 7.79331 71.7366C6.22745 74.2526 5.37559 73.8479 3.84093 74.1952C4.09611 66.5264 5.54341 64.2929 7.79331 59.7832Z" fill="#B0B0B0"/>
<path d="M3.84093 75.2973V74.7886C5.29076 74.3144 5.57812 75.1047 8.12968 72.4148C8.81669 74.6103 9.49914 75.4029 11.157 76.145L8.46606 83.0967C6.96198 86.1763 6.31579 88.0471 6.11145 92.083H6.78419C6.69743 89.3867 6.70231 87.9135 7.79331 86.0639C8.92448 88.3 9.24206 89.607 8.97062 92.083C7.74619 95.012 6.93053 96.2838 4.93414 97C3.38339 96.628 3.02855 95.9512 3 94.2024L3.58865 76.145C4.19031 77.2374 4.63934 77.554 4.51368 80.5534L4.2614 91.5743H4.93414L4.9375 91.4774C5.10003 86.7836 5.1921 84.1245 4.93414 77.7558C4.69346 76.7176 4.47978 76.1704 3.84093 75.2973Z" fill="#B0B0B0"/>
<path d="M8.46606 72.4148C8.99742 66.302 9.99886 63.8171 11.8298 59.4441L12.0821 58.9354C12.0821 58.9354 12.2503 58.6811 12.5025 58.5963C12.7548 58.5115 13.3435 58.9354 13.3435 58.9354L14.689 61.4787C13.5625 63.9966 13.7639 69.3629 13.3435 70.5498C12.923 71.7366 11.3252 75.7211 11.3252 75.7211C9.45037 75.0989 9.20745 74.0373 8.46606 72.4148Z" fill="#B0B0B0"/>
<path d="M23.8551 21.3795C25.8306 18.6693 25.8969 16.5911 32.6849 16.4625L32.9372 16.8016C33.4007 22.8068 34.8911 25.848 37.5345 31.2416L37.5623 31.2983C36.616 32.9568 36.4353 34.0632 36.1327 36.0458C29.1415 36.7059 27.1337 35.2626 23.8551 32.4004V21.3795Z" fill="#F9FAFB"/>
<path d="M13.2594 17.0559L11.9139 23.6685L8.55017 31.2983C9.94402 33.1174 10.1143 34.1705 10.4843 36.0458C17.3681 35.9063 20.7711 35.5128 23.3506 32.4004V21.3795C22.1667 19.263 21.1381 18.3956 19.0618 17.0559C16.3154 16.6257 15.0421 16.6231 13.2594 17.0559Z" fill="#F9FAFB"/>
<path d="M11.2412 17.4798L12.8389 17.0559L11.7457 22.2273L8.55017 29.9419L10.1479 22.2273L11.2412 17.4798Z" fill="#F9FAFB"/>
<path d="M33.2736 16.4625H34.619C35.4577 20.782 36.0366 23.1646 37.31 27.3138C37.7092 28.5634 37.8064 29.311 37.8146 30.7049C35.4294 25.3119 34.2261 22.2519 33.2736 16.4625Z" fill="#F9FAFB"/>
<path d="M11.7457 5.69588C11.7457 5.69588 16.4549 10.2738 17.5481 11.3759C18.6414 12.478 20.5755 17.2255 20.5755 17.2255C16.9884 15.7454 15.0045 15.8447 11.4934 16.8016C12.3366 12.326 12.1254 9.95635 11.7524 5.77062M11.7457 5.69588L11.7524 5.77062M11.7457 5.69588C11.7479 5.72086 11.7502 5.74577 11.7524 5.77062M37.5623 31.2983C36.616 32.9568 36.4353 34.0632 36.1327 36.0458C29.1415 36.7059 27.1337 35.2626 23.8551 32.4004V21.3795C25.8306 18.6693 25.8969 16.5911 32.6849 16.4625L32.9372 16.8016C33.4007 22.8068 34.8911 25.848 37.5345 31.2416M37.5623 31.2983L37.5345 31.2416M37.5623 31.2983C37.553 31.2794 37.5437 31.2605 37.5345 31.2416M16.1185 58.4268L16.1852 58.1724M16.1852 58.1724C16.1852 58.1724 18.305 50.1187 18.4732 49.4405C18.6413 48.7623 21.5846 41.5563 21.5846 41.5563V39.5216C21.5846 39.5216 18.4731 47.4058 17.9686 48.4232C17.464 49.4405 16.1852 58.1724 16.1852 58.1724ZM4.93414 91.5743H4.2614L4.51368 80.5534C4.63934 77.554 4.19031 77.2374 3.58865 76.145L3 94.2024C3.02855 95.9512 3.38339 96.6279 4.93414 97C6.93053 96.2838 7.74619 95.012 8.97062 92.083C9.24206 89.607 8.92448 88.3 7.79331 86.0638C6.70231 87.9135 6.69743 89.3867 6.78419 92.083H6.11145C6.31579 88.0471 6.96198 86.1763 8.46606 83.0967L11.157 76.145C9.49913 75.4029 8.81669 74.6103 8.12968 72.4148C5.57812 75.1047 5.29076 74.3144 3.84093 74.7886V75.2973C4.47978 76.1704 4.69346 76.7176 4.93414 77.7558C5.1921 84.1245 5.10003 86.7836 4.9375 91.4774M4.93414 91.5743L4.9375 91.4774M4.93414 91.5743C4.93527 91.5419 4.93639 91.5096 4.9375 91.4774M11.2412 17.4798L12.8389 17.0559L11.7457 22.2273L8.55017 29.9419L10.1479 22.2273L11.2412 17.4798ZM13.2594 17.0559L11.9139 23.6685L8.55017 31.2983C9.94402 33.1174 10.1143 34.1705 10.4843 36.0458C17.3681 35.9063 20.7711 35.5128 23.3506 32.4004V21.3795C22.1667 19.263 21.1381 18.3956 19.0618 17.0559C16.3154 16.6257 15.0421 16.6231 13.2594 17.0559ZM16.7072 9.51082C18.5905 4.4059 19.0842 1.42815 22.846 -3.29041L23.3506 -2.78175V20.3622C22.5908 18.9943 22.1627 18.2347 21.1642 17.6493C19.9904 14.062 19.2009 12.1464 16.7072 9.51082ZM14.9008 -4.11976L12.5681 -2.3674L10.8207 -1.08623C12.294 0.454031 13.2967 1.02174 15.4458 1.37229C17.7361 1.09307 19.2258 0.186546 22.5096 -3.71429C22.5096 -3.71429 23.9628 -6.63792 19.5663 -5.87211C15.1697 -5.1063 16.2026 -5.1235 14.9008 -4.11976ZM23.8551 -2.52743L24.696 -3.29041L31.3394 8.40872C28.081 10.9352 26.8635 12.8722 26.0415 17.4798C24.9093 18.3508 24.4509 18.9994 23.8551 20.3622V-2.52743ZM27.1348 -0.238471L31.844 8.15439L34.619 6.37408L35.9645 -1.08623C34.7626 0.167797 34.1121 0.889106 32.0122 1.45705C29.8737 1.67201 28.8993 0.951849 27.1348 -0.238471ZM16.2026 9.1717C17.5136 5.23607 18.212 2.99352 20.2391 -0.238471C18.1262 1.57103 17.15 1.70739 15.4458 1.79616C13.7852 1.675 12.8423 1.5522 10.8207 -0.238471L11.4934 4.93288C13.1407 5.99766 14.123 6.77856 16.2026 9.1717ZM33.2736 16.4625H34.619C35.4577 20.782 36.0366 23.1646 37.31 27.3138C37.7092 28.5634 37.8064 29.311 37.8146 30.7049C35.4294 25.3119 34.2261 22.2519 33.2736 16.4625ZM26.7143 17.2255C26.9815 13.8344 28.5264 10.0752 34.619 6.96752V15.7843C27.8145 15.849 28.2405 16.4535 26.7143 17.2255ZM24.9483 -3.71429L26.0415 -5.28811C28.6933 -4.91444 27.8576 -1.9005 31.3394 -3.29128C31.3257 -1.69792 32.8351 -3.55444 33.5626 -2.36752L34.619 -1.08623C33.2779 0.697915 34.0288 0.00370154 32.0963 0.948398C29.5494 0.944931 28.0351 0.301185 24.9483 -3.71429ZM24.7801 34.3503L25.3688 39.0978C29.9792 47.2621 30.934 52.2706 31.5917 61.4787L31.9281 62.0721C33.1744 58.8877 34.3273 57.7476 33.1054 51.0512C31.5059 46.6694 30.9262 43.569 30.5826 36.6392C28.3229 36.176 26.9778 35.6598 24.7801 34.3503ZM25.3688 40.1998L31.0871 60.0375C31.0871 60.0375 29.5735 50.7969 29.153 49.4405C28.7325 48.084 25.3688 40.1998 25.3688 40.1998ZM31.0871 36.6392H35.7964C36.0483 40.5068 35.9355 42.5155 37.8146 47.4058L38.4032 57.9181C31.9767 50.5119 31.7751 45.4987 31.0871 36.6392ZM37.8146 32.0613C37.8146 32.0613 36.4691 35.3676 36.4691 37.9109C36.4691 40.4542 37.8146 46.1342 37.8146 46.1342V39.0978V32.0613ZM33.4417 59.7832C34.0024 57.5202 34.588 56.5639 33.9463 52.9163C34.836 54.6958 35.2168 55.6908 37.1418 57.4942C37.1418 57.4942 36.0486 57.4942 35.6282 57.9181C35.2077 58.342 34.7872 59.4441 34.7872 59.4441L33.4417 59.7832ZM32.1803 62.6656C32.7171 61.6006 32.832 60.983 34.4509 60.0375C34.4509 60.0375 38.9078 69.2781 38.4032 72.4148C37.8987 75.5516 34.7872 76.5689 34.7872 76.5689C33.9635 74.5309 33.4162 73.4227 33.1895 71.1432C33.0101 67.1191 32.7525 65.3887 32.1803 62.6656ZM35.3759 59.7832C35.3759 59.7832 35.46 58.4268 36.3009 58.1724C37.1418 57.9181 38.4032 58.9354 38.4032 58.9354C38.4032 58.9354 42.1033 69.1933 41.9352 73.856C41.7297 74.5488 39.6859 73.6354 38.9078 72.0757C37.5964 63.2048 36.7782 63.2268 35.3759 59.7832ZM38.9078 72.9235C37.6952 75.6417 36.8412 76.6964 34.7872 77.1623C37.3314 81.9806 39.1264 83.8982 40.0851 92.083C39.9449 92.196 39.6478 92.3543 39.5805 92.083C39.328 89.2162 39.1284 87.7814 38.4032 86.3182C37.0393 87.5059 36.9457 88.8139 37.2259 91.5743C38.2446 95.0546 38.9301 96.694 41.0942 97C44.238 96.236 42.6271 87.614 42.2715 78.3492C41.088 83.094 41.2619 86.3559 41.6829 92.2525L41.0942 92.083C40.7679 85.0269 40.9073 81.2206 41.9352 74.7886C40.2186 74.4853 39.7142 73.9503 38.9078 72.9235ZM8.55017 32.0613C8.55017 32.0613 10.204 36.5093 10.1479 39.0978C10.0919 41.6862 8.72246 46.6052 8.55017 46.4733V39.2673V32.0613ZM15.8663 36.3849C14.1461 48.7263 13.2436 55.8362 8.04559 57.4942L8.38197 47.5754C8.38197 47.5754 9.55927 45.1169 10.1479 43.6757C10.7366 42.2345 10.4843 36.6392 10.4843 36.6392L15.8663 36.3849ZM9.72746 57.2399C10.8285 57.3797 11.3632 57.5537 11.8298 58.4268C12.2738 58.0649 12.5747 57.9934 13.3435 58.4268C12.8351 55.816 12.972 54.5681 13.3435 52.4076C11.3546 56.7845 10.9585 56.1337 9.72746 57.2399ZM16.4549 36.3849C18.8081 35.9701 20.1107 35.9341 22.5937 34.0112L22.0051 38.3348C16.5966 45.8785 16.8758 50.9796 15.5299 59.7832L14.9412 60.9701C13.5583 57.5393 12.6978 55.7359 14.3526 47.9993C15.4278 43.6106 15.7532 41.0493 16.4549 36.3849ZM7.79331 58.4268V59.7832C5.54341 64.2929 4.09611 66.5264 3.84093 74.1952C5.37559 73.8479 6.22745 74.2526 7.79331 71.7366C8.45119 68.2995 8.45152 66.2591 9.97974 63.0895L11.3252 59.4441C11.3252 59.4441 11.3252 58.1724 10.6525 57.9181C9.97974 57.6638 7.79331 58.4268 7.79331 58.4268ZM11.8298 59.4441C9.99886 63.8171 8.99742 66.302 8.46606 72.4148C9.20745 74.0373 9.45037 75.0989 11.3252 75.7211C11.3252 75.7211 12.923 71.7366 13.3435 70.5498C13.7639 69.3629 13.5625 63.9966 14.689 61.4787L13.3435 58.9354C13.3435 58.9354 12.7548 58.5115 12.5025 58.5963C12.2503 58.6811 12.0821 58.9354 12.0821 58.9354L11.8298 59.4441Z" stroke="#1E1E1E"/>
</g>
</svg>
