<svg width="55" height="55" viewBox="0 0 55 55" fill="none" xmlns="http://www.w3.org/2000/svg">
<mask id="mask0_34714_7837" style="mask-type:alpha" maskUnits="userSpaceOnUse" x="-1" y="0" width="56" height="55">
<circle cx="27" cy="27.5" r="27.5" fill="#303030"/>
</mask>
<g mask="url(#mask0_34714_7837)">
<path d="M34.972 39.4211L35.3364 34.386C32.6125 34.3908 31.1664 34.7554 29.263 35.4912C28.7157 35.5526 28.2054 35.7905 27.8054 36.1053V39.6667C28.3282 40.7192 28.7498 41.2426 29.841 42C30.8263 41.0472 31.9453 40.2626 34.972 39.4211Z" fill="#B0B0B0"/>
<path d="M27.8054 29.9649V33.7719C28.1394 34.6484 28.472 35.0005 29.263 35.4912C31.1664 34.7554 32.6125 34.3908 35.3364 34.386C35.3634 32.7473 35.1398 31.8892 34.3647 30.5789C32.7628 29.2383 31.3256 29.3124 28.8986 29.2349C28.1203 29.5495 27.9016 29.7102 27.8054 29.9649Z" fill="#B0B0B0"/>
<path d="M20.6736 34.5088C23.0573 34.5254 24.5315 34.7359 26.4693 35.4912C27.1441 34.9326 27.4903 34.6448 27.8054 33.7719V29.9649C27.5685 29.6277 27.3281 29.4071 26.8337 29.2349C26.5608 29.1398 26.2104 29.0595 25.7405 28.9825C22.6899 29.3214 21.5661 29.9287 20.7351 31.807C20.677 32.6059 20.6555 33.4875 20.6736 34.5088Z" fill="#B0B0B0"/>
<path d="M29.7617 24.5614C28.329 25.1459 28.0781 26.2586 27.8054 28.4912C28.0573 28.92 28.219 29.1443 28.8986 29.2349C31.3256 29.3124 32.7628 29.2383 34.3647 30.5789C34.8601 29.2077 34.7547 28.3641 34.3647 26.8199C32.464 26.4094 30.872 25.4302 29.7617 24.5614Z" fill="#B0B0B0"/>
<path d="M17.4807 37.5789C18.4417 38.614 19.0568 39.1719 21.0032 39.9123C20.8063 37.7146 20.6994 35.9689 20.6736 34.5088C20.6555 33.4875 20.677 32.6059 20.7351 31.807C20.8624 30.0583 21.1649 28.7056 21.6106 27.1513C20.947 27.3365 20.247 27.4354 19.4808 27.4353C16.4809 28.8374 16.5747 30.7351 16.1862 33.7719C16.7031 34.8629 17.1115 36.035 17.4807 37.5789Z" fill="#B0B0B0"/>
<path d="M16.5089 27.0175C15.8997 26.6789 15.3964 26.3669 14.9717 26.0351C14.9007 27.9467 14.6588 28.8198 13.8367 29.8421C14.8387 31.3464 15.5856 32.5044 16.1862 33.7719C16.5747 30.7351 16.4809 28.8374 19.4808 27.4353C18.5941 27.4353 17.6188 27.3026 16.5089 27.0175Z" fill="#B0B0B0"/>
<path d="M9.57017 35C8.68942 36.526 7.31455 37.9449 5.21963 39.4211C5.2293 40.6561 5.06101 41.8065 4.70283 42.9825C7.09556 42.3172 8.63593 41.585 9.57017 40.6685C11.0418 39.2249 11.0094 37.3243 10.4356 34.5088V34.3149C10.1689 34.5366 9.88218 34.7624 9.57017 35Z" fill="#B0B0B0"/>
<path d="M4.70283 42.9825C4.25125 44.465 3.49785 45.988 2.41872 47.7719L4.11927 49.9825C5.81981 46.1754 9.20772 45.4867 9.57017 40.6685C8.63593 41.585 7.09556 42.3172 4.70283 42.9825Z" fill="#B0B0B0"/>
<path d="M4.3622 34.1404C1.73882 35.4211 0.0711045 40.2524 0.596712 41.2632C0.817127 43.8081 1.37118 45.233 2.41872 47.7719C3.49785 45.988 4.25125 44.465 4.70283 42.9825C5.06101 41.8065 5.2293 40.6561 5.21963 39.4211C5.20746 37.8676 4.91374 36.1804 4.3622 34.1404Z" fill="#B0B0B0"/>
<path d="M17.4807 37.5789C16.5774 40.4633 16.4987 42.2632 17.1163 45.6842L18.5739 47.5887L19.1812 48.3822L20.406 49.9825L25.0117 56H30.7206L35.2149 50.0529L36.6725 48.1241L37.4013 47.1597L38.9804 45.0702C39.2942 41.6771 39.203 39.8682 37.7657 37.0877L34.972 39.4211C33.1651 48.6199 31.765 52.3406 27.8054 53.5439C23.886 51.6202 22.5263 48.2926 21.0032 39.9123C19.0568 39.1719 18.4417 38.614 17.4807 37.5789Z" fill="#B0B0B0"/>
<path d="M27.8054 53.5439V43.9649C27.3267 42.9111 26.7999 42.1859 26.0965 41.8601C24.7982 40.7071 23.2986 40.2893 21.0032 39.9123C22.5263 48.2926 23.886 51.6202 27.8054 53.5439Z" fill="#B0B0B0"/>
<path d="M27.8054 53.5439C31.765 52.3406 33.1651 48.6199 34.972 39.4211C31.9453 40.2626 30.8263 41.0472 29.841 42C29.0094 42.2121 28.473 42.8797 27.8054 43.9649V53.5439Z" fill="#B0B0B0"/>
<path d="M26.0965 41.8601C26.7999 42.1859 27.3267 42.9111 27.8054 43.9649C28.473 42.8797 29.0094 42.2121 29.841 42C28.7498 41.2426 28.3282 40.7192 27.8054 39.6667C27.8054 40.7719 26.7122 41.5088 26.0965 41.8601Z" fill="#B0B0B0"/>
<path d="M34.972 39.4211L37.7657 37.0877L37.8515 36.9835C38.5943 36.0806 39.2179 35.3226 39.7765 34.5088C39.7081 30.7507 38.8486 29.1625 36.1867 27.0175C35.5539 27.0175 34.9449 26.9452 34.3647 26.8199C34.7547 28.3641 34.8601 29.2077 34.3647 30.5789C35.1398 31.8892 35.3634 32.7473 35.3364 34.386L34.972 39.4211Z" fill="#B0B0B0"/>
<path d="M26.4693 35.4912C26.8928 35.4967 27.3362 35.7334 27.8054 36.1053C28.2054 35.7905 28.7157 35.5526 29.263 35.4912C28.472 35.0005 28.1394 34.6484 27.8054 33.7719C27.4903 34.6448 27.1441 34.9326 26.4693 35.4912Z" fill="#B0B0B0"/>
<path d="M28.0484 22.9649C27.3523 23.539 26.7097 24.0746 26.0965 24.5614C27.5283 25.3808 27.6127 26.5118 27.8054 28.4912C28.0781 26.2586 28.329 25.1459 29.7617 24.5614C28.6737 23.7101 28.0484 22.9649 28.0484 22.9649Z" fill="#B0B0B0"/>
<path d="M27.8054 28.4912C27.6127 26.5118 27.5283 25.3808 26.0965 24.5614C24.5436 25.7942 23.1789 26.7136 21.6106 27.1513C21.1649 28.7056 20.8624 30.0583 20.7351 31.807C21.5661 29.9287 22.6899 29.3214 25.7405 28.9825C26.2104 29.0595 26.5608 29.1398 26.8337 29.2349C27.4548 29.0696 27.63 28.8873 27.8054 28.4912Z" fill="#B0B0B0"/>
<path d="M18.2095 15.2281C22.6113 14.9601 25.9144 13.4779 28.0484 16.8246C29.4123 14.5779 30.6977 13.7308 37.4013 15.7193C38.2872 14.4519 39.1712 13.9476 41.6527 13.5088C38.0935 10.9161 36.1125 9.57279 32.5881 7.24561L32.6641 8.8421C30.7028 12.3251 29.7174 12.8205 27.9269 14.1228C25.2972 13.032 24.4523 11.0873 22.9467 7.61403C20.1935 9.57895 14.6141 13.5088 14.3225 13.5088C15.8459 13.6791 16.698 13.9619 18.2095 15.2281Z" fill="#B0B0B0"/>
<path d="M29.506 7.70374C29.1239 10.6491 28.7532 12.2137 27.9269 14.1228C29.7174 12.8205 30.7028 12.3251 32.6641 8.8421L32.5881 7.24561L32.4362 4.05263C32.1119 5.19776 31.3553 6.91929 29.6543 7.64403C29.6056 7.66476 29.5562 7.68468 29.506 7.70374Z" fill="#B0B0B0"/>
<path d="M28.0484 7.98246C27.3556 8.00306 26.7517 7.87507 26.2263 7.64776C26.3729 10.649 26.6972 12.1106 27.9269 14.1228C28.7532 12.2137 29.1239 10.6491 29.506 7.70374C29.4966 7.70731 29.4871 7.71085 29.4777 7.71436C29.0579 7.87012 28.5837 7.96654 28.0484 7.98246Z" fill="#B0B0B0"/>
<path d="M22.9468 2.94737L22.9467 7.61403C24.4523 11.0873 25.2972 13.032 27.9269 14.1228C26.6972 12.1106 26.3729 10.649 26.2263 7.64776C23.6198 6.51999 22.9468 2.94737 22.9468 2.94737Z" fill="#B0B0B0"/>
<path d="M22.9468 2.21053V2.94737C22.9468 2.94737 23.6198 6.51999 26.2263 7.64776C26.7517 7.87507 27.3556 8.00306 28.0484 7.98246C28.5837 7.96654 29.0579 7.87012 29.4777 7.71436C29.4871 7.71085 29.4966 7.70731 29.506 7.70374L29.6543 7.64403C31.3553 6.91929 32.1119 5.19776 32.4362 4.05263C32.6185 3.40893 32.6641 2.94737 32.6641 2.94737V2.21053C33.9727 2.22296 34.6027 2.00761 34.972 0H21.1247C21.1321 1.52183 21.3972 2.12634 22.9468 2.21053Z" fill="#B0B0B0"/>
<path d="M42.8674 23.4561C42.8674 23.4561 40.9239 27.0175 36.1867 27.0175C38.8486 29.1625 39.7081 30.7507 39.7765 34.5088C40.7 33.1631 41.4461 31.6647 42.26 29.1053L42.8674 23.4561Z" fill="#B0B0B0"/>
<path d="M46.3899 41.2632C46.7443 44.9834 51.1272 47.1579 52.2204 50.2281C52.8182 49.5321 53.3512 48.9651 53.8075 48.386C53.0316 46.2122 52.3154 45.103 50.7628 43.2281C49.1853 41.9794 48.2181 41.5809 46.3899 41.2632Z" fill="#B0B0B0"/>
<path d="M55.5 43.9649C54.8128 39.5278 54.3779 37.1 51.613 35.1228C51.6675 35.9584 50.8539 38.5269 50.3984 39.2982C50.6801 40.9522 50.7424 41.763 50.7628 43.2281C52.3154 45.103 53.0316 46.2122 53.8075 48.386C54.677 47.2825 55.2685 46.1347 55.5 43.9649Z" fill="#B0B0B0"/>
<path d="M45.7826 35.1228C44.9755 37.0082 44.839 38.2203 46.3899 41.2632C48.2181 41.5809 49.1853 41.9794 50.7628 43.2281C50.7424 41.763 50.6801 40.9522 50.3984 39.2982C48.4337 37.8646 47.1551 36.4709 46.3146 34.9853L45.7826 35.1228Z" fill="#B0B0B0"/>
<path d="M17.1163 45.6842C15.278 46.1619 15.532 48.1168 15.7801 51.3333L18.5739 47.5887L17.1163 45.6842Z" fill="#B0B0B0"/>
<path d="M18.5739 47.5887L15.7801 51.3333C14.8777 52.9516 14.5276 53.922 14.444 55.8772H15.4157C17.1706 53.6248 17.9452 51.8656 19.1812 48.3822L18.5739 47.5887Z" fill="#B0B0B0"/>
<path d="M19.1812 48.3822C17.9452 51.8656 17.1706 53.6248 15.4157 55.8772L20.5174 56C20.0906 53.4443 20.1133 52.1544 20.406 49.9825L19.1812 48.3822Z" fill="#B0B0B0"/>
<path d="M25.0117 56L20.406 49.9825C20.1133 52.1544 20.0906 53.4443 20.5174 56H25.0117Z" fill="#B0B0B0"/>
<path d="M35.2149 50.0529L30.7206 56H35.2149V50.0529Z" fill="#B0B0B0"/>
<path d="M35.2149 50.0529V56H40.1951C38.0295 53.5262 37.6673 51.545 36.6725 48.1241L35.2149 50.0529Z" fill="#B0B0B0"/>
<path d="M36.6725 48.1241C37.6673 51.545 38.0295 53.5262 40.1951 56H41.4098C40.8562 54.1559 40.315 52.7317 39.5857 51.2105C39.0085 50.0065 38.3135 48.7416 37.4013 47.1597L36.6725 48.1241Z" fill="#B0B0B0"/>
<path d="M38.9804 45.0702L37.4013 47.1597C38.3135 48.7416 39.0085 50.0065 39.5857 51.2105C40.4374 48.6037 40.0665 47.305 38.9804 45.0702Z" fill="#B0B0B0"/>
<path d="M21.0032 39.9123C23.2986 40.2893 24.7982 40.7071 26.0965 41.8601C26.7122 41.5088 27.8054 40.7719 27.8054 39.6667V36.1053C27.3362 35.7334 26.8928 35.4967 26.4693 35.4912C24.5315 34.7359 23.0573 34.5254 20.6736 34.5088C20.6994 35.9689 20.8063 37.7146 21.0032 39.9123Z" fill="#B0B0B0"/>
<path d="M42.8674 23.4561L42.26 29.1053C43.011 31.6009 43.4861 32.9881 45.7826 35.1228L46.3146 34.9853C44.7268 32.179 44.702 29.0448 44.5679 24.6932C44.0063 24.3613 43.469 23.9636 42.8674 23.4561Z" fill="#B0B0B0"/>
<path d="M51.613 35.1228C51.0685 31.1496 50.7348 28.9365 48.0905 26.0351C46.5534 25.6336 45.5254 25.259 44.5679 24.6932C44.702 29.0448 44.7268 32.179 46.3146 34.9853C47.1551 36.4709 48.4337 37.8646 50.3984 39.2982C50.8539 38.5269 51.6675 35.9584 51.613 35.1228Z" fill="#B0B0B0"/>
<path d="M7.64182 26.0351C4.67097 28.4603 4.85789 30.6314 4.3622 34.1404C4.91374 36.1804 5.20746 37.8676 5.21963 39.4211C7.31455 37.9449 8.68942 36.526 9.57017 35C11.1793 32.212 11.1391 29.0666 10.8274 24.5614C9.79654 25.187 8.89284 25.5211 7.64182 26.0351Z" fill="#B0B0B0"/>
<path d="M12.9864 22.9649C12.1448 23.6808 11.462 24.1763 10.8274 24.5614C11.1391 29.0666 11.1793 32.212 9.57017 35C9.88218 34.7624 10.1689 34.5366 10.4356 34.3149C11.8927 33.1038 12.7486 32.0193 13.8367 29.8421C14.6588 28.8198 14.9007 27.9467 14.9717 26.0351C14.0164 25.2887 13.4586 24.4418 12.9864 22.9649Z" fill="#B0B0B0"/>
<path d="M28.0484 16.8246V22.9649C28.0484 22.9649 28.6737 23.7101 29.7617 24.5614C30.872 25.4302 32.464 26.4094 34.3647 26.8199C34.9449 26.9452 35.5539 27.0175 36.1867 27.0175C40.9239 27.0175 42.8674 23.4561 42.8674 23.4561C39.5603 20.6392 38.6546 18.894 37.4013 15.7193C30.6977 13.7308 29.4123 14.5779 28.0484 16.8246Z" fill="#B0B0B0"/>
<path d="M28.0484 22.9649V16.8246C25.9144 13.4779 22.6113 14.9601 18.2095 15.2281C16.8317 20.2932 15.4124 21.1359 12.9864 22.9649C13.4586 24.4418 14.0164 25.2887 14.9717 26.0351C15.3964 26.3669 15.8997 26.6789 16.5089 27.0175C17.6188 27.3026 18.5941 27.4353 19.4808 27.4353C20.247 27.4354 20.947 27.3365 21.6106 27.1513C23.1789 26.7136 24.5436 25.7942 26.0965 24.5614C26.7097 24.0746 27.3523 23.539 28.0484 22.9649Z" fill="#B0B0B0"/>
<path d="M12.9864 22.9649C15.4124 21.1359 16.8317 20.2932 18.2095 15.2281C16.698 13.9619 15.8459 13.6791 14.3225 13.5088C14.3225 13.5088 10.8 13.6316 8.37063 15.7193C5.94128 17.807 7.64182 26.0351 7.64182 26.0351C8.89284 25.5211 9.79654 25.187 10.8274 24.5614C11.462 24.1763 12.1448 23.6808 12.9864 22.9649Z" fill="#F9FAFB"/>
<path d="M37.4013 15.7193C38.6546 18.894 39.5603 20.6392 42.8674 23.4561C43.469 23.9636 44.0063 24.3613 44.5679 24.6932C45.5254 25.259 46.5534 25.6336 48.0905 26.0351C48.0905 26.0351 49.791 19.7719 48.0905 16.8246C46.3899 13.8772 44.1463 14.6543 41.6527 13.5088C39.1712 13.9476 38.2872 14.4519 37.4013 15.7193Z" fill="#F9FAFB"/>
<path d="M28.0484 16.8246V22.9649M28.0484 16.8246C25.9144 13.4779 22.6113 14.9601 18.2095 15.2281M28.0484 16.8246C29.4123 14.5779 30.6977 13.7308 37.4013 15.7193M28.0484 22.9649C27.3523 23.539 26.7097 24.0746 26.0965 24.5614M28.0484 22.9649C28.0484 22.9649 28.6737 23.7101 29.7617 24.5614M12.9864 22.9649C15.4124 21.1359 16.8317 20.2932 18.2095 15.2281M12.9864 22.9649C12.1448 23.6808 11.462 24.1763 10.8274 24.5614M12.9864 22.9649C13.4586 24.4418 14.0164 25.2887 14.9717 26.0351M18.2095 15.2281C16.698 13.9619 15.8459 13.6791 14.3225 13.5088M37.4013 15.7193C38.6546 18.894 39.5603 20.6392 42.8674 23.4561M37.4013 15.7193C38.2872 14.4519 39.1712 13.9476 41.6527 13.5088M42.8674 23.4561C42.8674 23.4561 40.9239 27.0175 36.1867 27.0175M42.8674 23.4561L42.26 29.1053M42.8674 23.4561C43.469 23.9636 44.0063 24.3613 44.5679 24.6932M36.1867 27.0175C35.5539 27.0175 34.9449 26.9452 34.3647 26.8199M36.1867 27.0175C38.8486 29.1625 39.7081 30.7507 39.7765 34.5088M26.0965 24.5614C27.5283 25.3808 27.6127 26.5118 27.8054 28.4912M26.0965 24.5614C24.5436 25.7942 23.1789 26.7136 21.6106 27.1513M27.8054 28.4912C28.0781 26.2586 28.329 25.1459 29.7617 24.5614M27.8054 28.4912C27.63 28.8873 27.4548 29.0696 26.8337 29.2349M27.8054 28.4912C28.0573 28.92 28.219 29.1443 28.8986 29.2349M29.7617 24.5614C30.872 25.4302 32.464 26.4094 34.3647 26.8199M13.8367 29.8421C14.6588 28.8198 14.9007 27.9467 14.9717 26.0351M13.8367 29.8421C14.8387 31.3464 15.5856 32.5044 16.1862 33.7719M13.8367 29.8421C12.7486 32.0193 11.8927 33.1038 10.4356 34.3149M17.4807 37.5789C16.5774 40.4633 16.4987 42.2632 17.1163 45.6842M17.4807 37.5789C18.4417 38.614 19.0568 39.1719 21.0032 39.9123M17.4807 37.5789C17.1115 36.035 16.7031 34.8629 16.1862 33.7719M17.1163 45.6842C15.278 46.1619 15.532 48.1168 15.7801 51.3333M17.1163 45.6842L18.5739 47.5887M25.0117 56H30.7206M25.0117 56L20.406 49.9825M25.0117 56H20.5174M30.7206 56L35.2149 50.0529M30.7206 56H35.2149M38.9804 45.0702C39.2942 41.6771 39.203 39.8682 37.7657 37.0877M38.9804 45.0702L37.4013 47.1597M38.9804 45.0702C40.0665 47.305 40.4374 48.6037 39.5857 51.2105M37.7657 37.0877L34.972 39.4211M37.7657 37.0877L37.8515 36.9835M37.7657 37.0877C37.7945 37.0528 37.8231 37.018 37.8515 36.9835M42.26 29.1053C43.011 31.6009 43.4861 32.9881 45.7826 35.1228M42.26 29.1053C41.4461 31.6647 40.7 33.1631 39.7765 34.5088M45.7826 35.1228C44.9755 37.0082 44.839 38.2203 46.3899 41.2632M45.7826 35.1228L46.3146 34.9853M46.3899 41.2632C46.7443 44.9834 51.1272 47.1579 52.2204 50.2281C52.8182 49.5321 53.3512 48.9651 53.8075 48.386M46.3899 41.2632C48.2181 41.5809 49.1853 41.9794 50.7628 43.2281M51.613 35.1228C54.3779 37.1 54.8128 39.5278 55.5 43.9649C55.2685 46.1347 54.677 47.2825 53.8075 48.386M51.613 35.1228C51.0685 31.1496 50.7348 28.9365 48.0905 26.0351M51.613 35.1228C51.6675 35.9584 50.8539 38.5269 50.3984 39.2982M48.0905 26.0351C48.0905 26.0351 49.791 19.7719 48.0905 16.8246C46.3899 13.8772 44.1463 14.6543 41.6527 13.5088M48.0905 26.0351C46.5534 25.6336 45.5254 25.259 44.5679 24.6932M41.6527 13.5088C38.0935 10.9161 36.1125 9.57279 32.5881 7.24561M44.5679 24.6932C44.702 29.0448 44.7268 32.179 46.3146 34.9853M50.3984 39.2982C48.4337 37.8646 47.1551 36.4709 46.3146 34.9853M50.3984 39.2982C50.6801 40.9522 50.7424 41.763 50.7628 43.2281M50.7628 43.2281C52.3154 45.103 53.0316 46.2122 53.8075 48.386M4.3622 34.1404C1.73883 35.4211 0.0711045 40.2524 0.596712 41.2632C0.817127 43.8081 1.37118 45.233 2.41872 47.7719M4.3622 34.1404C4.85789 30.6314 4.67097 28.4603 7.64182 26.0351M4.3622 34.1404C4.91374 36.1804 5.20746 37.8676 5.21963 39.4211M7.64182 26.0351C7.64182 26.0351 5.94128 17.807 8.37063 15.7193C10.8 13.6316 14.3225 13.5088 14.3225 13.5088M7.64182 26.0351C8.89284 25.5211 9.79654 25.187 10.8274 24.5614M14.3225 13.5088C14.6141 13.5088 20.1935 9.57895 22.9467 7.61403M22.9467 7.61403L22.9468 2.94737M22.9467 7.61403C24.4523 11.0873 25.2972 13.032 27.9269 14.1228M2.41872 47.7719C3.49785 45.988 4.25125 44.465 4.70283 42.9825M2.41872 47.7719L4.11927 49.9825C5.81981 46.1754 9.20772 45.4867 9.57017 40.6685M10.8274 24.5614C11.1391 29.0666 11.1793 32.212 9.57017 35M5.21963 39.4211C7.31455 37.9449 8.68942 36.526 9.57017 35M5.21963 39.4211C5.2293 40.6561 5.06101 41.8065 4.70283 42.9825M14.9717 26.0351C15.3964 26.3669 15.8997 26.6789 16.5089 27.0175C17.6188 27.3026 18.5941 27.4353 19.4808 27.4353M9.57017 35C9.88218 34.7624 10.1689 34.5366 10.4356 34.3149M4.70283 42.9825C7.09556 42.3172 8.63593 41.585 9.57017 40.6685M9.57017 40.6685C11.0418 39.2249 11.0094 37.3243 10.4356 34.5088V34.3149M22.9468 2.94737V2.21053C21.3972 2.12634 21.1321 1.52183 21.1247 0H34.972C34.6027 2.00761 33.9727 2.22296 32.6641 2.21053M22.9468 2.94737C22.9468 2.94737 23.6198 6.51999 26.2263 7.64776M32.6641 2.94737C32.6641 2.75088 32.6641 2.37427 32.6641 2.21053M32.6641 2.94737C32.6641 2.94737 32.6185 3.40893 32.4362 4.05263M32.6641 2.94737V2.21053M26.2263 7.64776C26.7517 7.87507 27.3556 8.00306 28.0484 7.98246C28.5837 7.96654 29.0579 7.87012 29.4777 7.71436M26.2263 7.64776C26.3729 10.649 26.6972 12.1106 27.9269 14.1228M27.9269 14.1228C28.7532 12.2137 29.1239 10.6491 29.506 7.70374M27.9269 14.1228C29.7174 12.8205 30.7028 12.3251 32.6641 8.8421L32.5881 7.24561M29.506 7.70374L29.6543 7.64403M29.506 7.70374C29.5562 7.68468 29.6056 7.66476 29.6543 7.64403M29.506 7.70374C29.4966 7.70731 29.4871 7.71085 29.4777 7.71436M32.4362 4.05263L32.5881 7.24561M32.4362 4.05263C32.1119 5.19776 31.3553 6.91929 29.6543 7.64403M15.7801 51.3333L18.5739 47.5887M15.7801 51.3333C14.8777 52.9516 14.5276 53.922 14.444 55.8772H15.4157M18.5739 47.5887L19.1812 48.3822M19.1812 48.3822C17.9452 51.8656 17.1706 53.6248 15.4157 55.8772M19.1812 48.3822L20.406 49.9825M15.4157 55.8772L20.5174 56M20.406 49.9825C20.1133 52.1544 20.0906 53.4443 20.5174 56M35.2149 50.0529V56M35.2149 50.0529L36.6725 48.1241M35.2149 56H40.1951M36.6725 48.1241C37.6673 51.545 38.0295 53.5262 40.1951 56M36.6725 48.1241L37.4013 47.1597M40.1951 56H41.4098C40.8562 54.1559 40.315 52.7317 39.5857 51.2105M37.4013 47.1597C38.3135 48.7416 39.0085 50.0065 39.5857 51.2105M21.0032 39.9123C22.5263 48.2926 23.886 51.6202 27.8054 53.5439M21.0032 39.9123C23.2986 40.2893 24.7982 40.7071 26.0965 41.8601M21.0032 39.9123C20.8063 37.7146 20.6994 35.9689 20.6736 34.5088M16.1862 33.7719C16.5747 30.7351 16.4809 28.8374 19.4808 27.4353M19.4808 27.4353C20.247 27.4354 20.947 27.3365 21.6106 27.1513M21.6106 27.1513C21.1649 28.7056 20.8624 30.0583 20.7351 31.807M27.8054 43.9649V53.5439M27.8054 43.9649C27.3267 42.9111 26.7999 42.1859 26.0965 41.8601M27.8054 43.9649C28.473 42.8797 29.0094 42.2121 29.841 42M34.972 39.4211C33.1651 48.6199 31.765 52.3406 27.8054 53.5439M34.972 39.4211L35.3364 34.386M34.972 39.4211C31.9453 40.2626 30.8263 41.0472 29.841 42M26.0965 41.8601C26.7122 41.5088 27.8054 40.7719 27.8054 39.6667M27.8054 36.1053C27.8054 37.7018 27.8054 38.5614 27.8054 39.6667M27.8054 36.1053C27.3362 35.7334 26.8928 35.4967 26.4693 35.4912M27.8054 36.1053C28.2054 35.7905 28.7157 35.5526 29.263 35.4912M27.8054 36.1053V39.6667M20.6736 34.5088C23.0573 34.5254 24.5315 34.7359 26.4693 35.4912M20.6736 34.5088C20.6555 33.4875 20.677 32.6059 20.7351 31.807M35.3364 34.386C35.3634 32.7473 35.1398 31.8892 34.3647 30.5789M35.3364 34.386C32.6125 34.3908 31.1664 34.7554 29.263 35.4912M27.8054 39.6667C28.3282 40.7192 28.7498 41.2426 29.841 42M26.4693 35.4912C27.1441 34.9326 27.4903 34.6448 27.8054 33.7719M27.8054 33.7719V29.9649M27.8054 33.7719C28.1394 34.6484 28.472 35.0005 29.263 35.4912M27.8054 29.9649C27.5685 29.6277 27.3281 29.4071 26.8337 29.2349M27.8054 29.9649C27.9016 29.7102 28.1203 29.5495 28.8986 29.2349M20.7351 31.807C21.5661 29.9287 22.6899 29.3214 25.7405 28.9825C26.2104 29.0595 26.5608 29.1398 26.8337 29.2349M28.8986 29.2349C31.3256 29.3124 32.7628 29.2383 34.3647 30.5789M34.3647 30.5789C34.8601 29.2077 34.7547 28.3641 34.3647 26.8199M39.7765 34.5088C39.2179 35.3226 38.5943 36.0806 37.8515 36.9835M29.6543 7.64403C29.5965 7.66865 29.5376 7.69211 29.4777 7.71436" stroke="#1E1E1E"/>
</g>
</svg>
