<svg width="55" height="55" viewBox="0 0 55 55" fill="none" xmlns="http://www.w3.org/2000/svg">
<mask id="mask0_34714_7834" style="mask-type:alpha" maskUnits="userSpaceOnUse" x="0" y="0" width="55" height="55">
<circle cx="27.5" cy="27.5" r="27.5" fill="#303030"/>
</mask>
<g mask="url(#mask0_34714_7834)">
<path d="M16.2229 32.3334L16.2162 32.2591C16.2162 32.2591 20.9701 36.8088 22.0737 37.9041C23.1772 38.9993 25.1297 43.7175 25.1297 43.7175C21.5086 42.2466 19.5059 42.3453 15.9616 43.2962C16.8127 38.8483 16.5995 36.4933 16.2229 32.3334Z" fill="#B0B0B0"/>
<path d="M27.4217 23.3284C23.6242 28.0178 23.1258 30.9771 21.2248 36.0505C23.7421 38.6698 24.539 40.5735 25.7239 44.1387C26.732 44.7205 27.1641 45.4754 27.9311 46.8348V23.8339L27.4217 23.3284Z" fill="#F9FAFB"/>
<path d="M14.2638 22.1488L14.6882 18.863C17.3535 19.5102 19.1635 19.6241 23.6017 18.863L27.0822 22.9071C23.7672 26.7839 22.2634 27.6848 19.9514 27.9623C17.7819 27.6139 16.7698 27.0497 15.2824 25.5189L14.2638 22.1488Z" fill="#B0B0B0"/>
<path d="M18.5932 6.98341L16.2162 7.48892L19.1025 10.3535L19.9514 13.5551L27.9311 22.9071V9.67949C27.4481 8.08198 26.8536 7.55726 25.4693 6.98341H18.5932Z" fill="#B0B0B0"/>
<path d="M30.8174 6.98341C29.4861 7.90958 28.9506 8.49487 28.4404 9.67949V23.3284L34.8921 15.7457C36.211 14.0627 36.4409 12.9812 36.7597 11.0275C37.7873 8.80781 38.5746 7.98025 40.4949 7.48892L30.8174 6.98341Z" fill="#B0B0B0"/>
<path d="M28.4404 8.07869V5.63537C28.9004 6.25413 29.2045 6.53382 29.9685 6.73065C29.1903 7.19028 28.907 7.50446 28.4404 8.07869Z" fill="#B0B0B0"/>
<path d="M27.9311 8.07869V5.63537C27.3802 6.15844 26.9867 6.40549 26.0635 6.73065C26.8322 7.16395 27.2482 7.44817 27.9311 8.07869Z" fill="#B0B0B0"/>
<path d="M27.9311 4.28733V-4.55918C25.6159 -3.94267 24.9493 -2.43328 23.4319 -0.346557C23.0757 2.32104 23.9047 3.78494 19.9514 6.56215H24.7901C26.5566 6.20885 27.2213 5.70942 27.9311 4.28733Z" fill="#B0B0B0"/>
<path d="M28.4404 4.28733V-4.55918C30.1526 -3.33559 30.7665 -2.27181 31.836 -0.346557C31.7843 3.28941 32.6659 4.6768 35.0619 6.56215H30.5627C29.0324 5.83273 28.7596 5.29078 28.4404 4.28733Z" fill="#B0B0B0"/>
<path d="M28.016 -5.06469C25.4802 -4.62126 24.8112 -3.22614 23.4319 -1.02058C22.3817 -2.20294 22.2276 -2.80479 21.9039 -3.88516V-5.73872L22.3283 -5.82297C22.3283 -5.82297 20.7154 -13.7427 28.016 -13.9955C35.3165 -14.2482 33.7885 -5.73872 33.7885 -5.73872H34.0432V-3.88516L33.5338 -2.45287C32.9706 -2.19958 32.7187 -2.04093 32.5152 -1.6946L32.1756 -0.852072C30.591 -3.77355 29.6777 -4.61546 28.016 -5.06469Z" fill="#B0B0B0"/>
<path d="M19.1025 12.7126C17.6478 14.8946 16.5703 15.4035 14.6882 16.4197V18.189C15.8545 18.604 16.5565 18.7754 17.9989 18.863L18.0072 18.8625C20.18 18.7233 21.3996 18.6452 23.2621 18.189C21.2018 16.2379 20.4262 14.9806 19.1025 12.7126Z" fill="#B0B0B0"/>
<path d="M8.40632 11.3645C7.42868 13.2872 7.09376 14.6309 7.30275 18.0205C10.9923 17.3757 13.0142 16.8944 16.9802 14.3134C18.6334 12.9776 18.6428 12.2456 18.5083 10.9433C17.7572 8.96738 16.73 8.60559 15.2824 7.48892C12.2515 8.12119 10.7345 8.92858 8.40632 11.3645Z" fill="#B0B0B0"/>
<path d="M5.9445 23.3284L7.04807 18.4417C9.27048 18.3561 10.5133 18.045 12.7357 17.1779C10.8876 20.5457 9.22216 21.6775 5.9445 23.3284Z" fill="#B0B0B0"/>
<path d="M13.4148 17.0094C12.8711 18.3105 12.4008 19.0918 11.1228 20.6323C10.8813 23.8341 11.3109 24.3443 11.8868 25.6874C12.5676 23.9489 12.9757 23.0238 13.9242 21.8118C14.1263 19.7424 14.2048 18.5969 14.2638 16.5882L13.4148 17.0094Z" fill="#B0B0B0"/>
<path d="M11.6322 26.3615C10.6044 24.3405 10.6364 23.1879 10.5286 21.1378C8.38533 22.7808 7.36589 23.324 5.68983 24.0024C5.68983 24.0024 3.05823 29.226 3.14312 29.4788C3.22801 29.7316 5.2654 31.8379 5.43516 31.9221C5.60492 32.0064 9.00053 32.4276 9.17033 32.2591C9.34013 32.0906 11.6322 26.3615 11.6322 26.3615Z" fill="#B0B0B0"/>
<path d="M5.43516 32.5961L2.97332 29.9843C-1.25583 37.5083 -2.08328 41.8493 -4.32724 49.5309C-4.32724 49.5309 -3.39345 50.6262 -2.969 50.7947C-2.54455 50.9632 -1.10141 51.3002 -1.10141 51.3002C1.36041 43.9702 7.37191 39.9997 9.00053 32.7646L5.43516 32.5961Z" fill="#B0B0B0"/>
<path d="M29.2893 23.3284L28.4404 24.0866V46.8348C29.0418 45.4805 29.5046 44.8359 30.6476 43.9702C31.4773 39.3911 32.7063 37.4661 35.9956 34.9552L29.2893 23.3284Z" fill="#F9FAFB"/>
<path d="M36.505 34.7025L31.7511 26.3615C33.5324 27.5444 34.5161 28.2601 36.6748 28.0465C38.7946 27.4821 39.4513 26.7652 40.6646 25.5189L39.3064 32.9332L36.505 34.7025Z" fill="#B0B0B0"/>
<path d="M24.7901 26.3615C22.7438 29.5735 22.0387 31.8022 20.7154 35.7135C18.6161 33.3351 17.6245 32.5591 15.9615 31.5009L15.2824 26.3615C17.3232 28.1411 18.2751 28.2631 19.9514 28.3835C21.6717 28.2953 22.6572 28.1598 24.7901 26.3615Z" fill="#B0B0B0"/>
<path d="M39.3064 33.5229C33.156 36.6114 31.5964 40.3474 31.3267 43.7175C32.8674 42.9503 32.4373 42.3495 39.3064 42.2852V33.5229Z" fill="#B0B0B0"/>
<path d="M33.0245 18.863L29.544 22.9071C32.66 26.8978 34.1886 27.5376 36.7597 27.541C38.7105 26.6021 39.6503 25.8598 41.0042 24.0866L41.2588 22.1488C40.5244 20.9693 40.481 20.1095 40.4949 18.526C36.9801 19.9082 35.7014 19.2344 33.0245 18.863Z" fill="#B0B0B0"/>
<path d="M36.7597 12.7126C36.4138 15.5968 35.0964 16.4592 33.5338 18.526L38.1179 18.6945C39.0287 18.615 39.5647 18.6574 40.2402 17.7677L40.1553 15.5772C38.4235 14.6323 37.8679 13.9246 36.7597 12.7126Z" fill="#B0B0B0"/>
<path d="M41.6833 16.1669L40.6646 15.7457L41.0042 19.7898C41.4964 22.0707 41.9951 23.3226 43.2113 25.5189C44.0907 23.9752 44.4266 23.0409 44.4847 21.1378C43.3792 19.8152 42.7661 18.8242 41.6833 16.1669Z" fill="#B0B0B0"/>
<path d="M42.592 16.5638L42.5322 16.4197L47.7954 17.7677C47.8563 19.9934 48.0617 21.2172 48.9839 23.3284C44.8632 22.0376 44.0355 20.0428 42.592 16.5638Z" fill="#B0B0B0"/>
<path d="M41.2738 7.49435L41.2588 7.48892L41.2019 7.51304C39.0487 8.42526 37.8238 8.94415 37.1841 11.6173C37.6504 12.9236 38.3111 13.5388 39.7308 14.5661C42.9161 16.1464 44.6802 16.6117 47.7954 17.0094C47.5709 13.9882 47.1094 12.4306 45.4185 10.0165C44.2915 8.5891 43.2042 8.19464 41.2738 7.49435Z" fill="#B0B0B0"/>
<path d="M44.994 21.8118C44.7741 23.7286 44.3203 24.6805 43.466 26.3615L46.3523 32.7646C47.5389 32.6846 48.2046 32.6215 49.4083 32.2591C50.5458 31.7278 50.9674 31.2789 51.6155 30.4056L48.9839 24.0866C47.432 23.6448 46.5593 23.2864 44.994 21.8118Z" fill="#B0B0B0"/>
<path d="M46.6918 36.556C46.1825 35.208 46.6918 33.2702 46.6918 33.2702L49.8328 32.7646L51.955 30.9953C55.2631 38.4182 56.9776 42.5668 59.0009 49.8679C59.0009 49.8679 58.0671 50.7947 57.388 51.2159C56.7089 51.6372 55.3506 51.6372 55.3506 51.6372C52.3351 44.7209 47.2012 37.9041 46.6918 36.556Z" fill="#B0B0B0"/>
<path d="M29.9684 65.4546L29.3742 60.7365C31.5927 62.0379 32.9505 62.5509 35.2316 63.0113C35.5786 69.8983 36.1637 72.9794 37.7783 77.3342C39.0118 83.9892 37.8481 85.1222 36.5899 88.287L36.2503 87.6973C35.5864 78.5461 34.6225 73.5685 29.9684 65.4546Z" fill="#B0B0B0"/>
<path d="M35.741 86.265L29.9684 66.5499C29.9684 66.5499 33.364 74.3854 33.7885 75.7334C34.2129 77.0815 35.741 86.265 35.741 86.265Z" fill="#B0B0B0"/>
<path d="M40.4948 63.0113H35.741C36.4355 71.816 36.6389 76.7982 43.1264 84.1587L42.5322 73.7113C40.6353 68.8512 40.7492 66.855 40.4948 63.0113Z" fill="#B0B0B0"/>
<path d="M41.174 64.2751C41.174 61.7475 42.5322 58.4617 42.5322 58.4617V65.4546V72.4476C42.5322 72.4476 41.174 66.8026 41.174 64.2751Z" fill="#B0B0B0"/>
<path d="M38.6272 79.1877C39.275 82.8128 38.6838 83.7632 38.1179 86.0122L39.4761 85.6752C39.4761 85.6752 39.9006 84.5799 40.325 84.1587C40.7495 83.7374 41.8531 83.7374 41.8531 83.7374C39.9098 81.9451 39.5253 80.9563 38.6272 79.1877Z" fill="#B0B0B0"/>
<path d="M39.1366 86.265C37.5024 87.2046 37.3863 87.8184 36.8445 88.8768C37.4221 91.583 37.6821 93.3028 37.8632 97.302C38.0921 99.5674 38.6446 100.669 39.4761 102.694C39.4761 102.694 42.6171 101.683 43.1264 98.5658C43.6358 95.4485 39.1366 86.265 39.1366 86.265Z" fill="#B0B0B0"/>
<path d="M41.0042 84.4114C40.1553 84.6642 40.0704 86.0122 40.0704 86.0122C41.4859 89.4346 42.3119 89.4127 43.6358 98.2288C44.4212 99.7789 46.4844 100.687 46.6918 99.9981C46.8616 95.3642 43.1264 85.1697 43.1264 85.1697C43.1264 85.1697 41.8531 84.1587 41.0042 84.4114Z" fill="#B0B0B0"/>
<path d="M39.4761 103.284C41.5495 102.821 42.4117 101.773 43.6358 99.0713C44.4498 100.092 44.959 100.623 46.6918 100.925C45.6543 107.317 45.5135 111.1 45.8429 118.112L46.4371 118.281C46.0122 112.421 45.8367 109.179 47.0314 104.463C47.3903 113.671 49.0165 122.24 45.8429 122.999C43.6583 122.695 42.9663 121.066 41.938 117.607C41.6551 114.864 41.7495 113.564 43.1264 112.383C43.8584 113.837 44.06 115.263 44.3149 118.112C44.3828 118.382 44.6828 118.225 44.8242 118.112C43.8564 109.978 42.0444 108.072 39.4761 103.284Z" fill="#B0B0B0"/>
<path d="M12.9904 72.7846V65.6231V58.4617C12.9904 58.4617 14.6599 62.8822 14.6033 65.4546C14.5467 68.027 13.1643 72.9157 12.9904 72.7846Z" fill="#B0B0B0"/>
<path d="M12.481 83.7374C17.7283 82.0896 18.6394 75.0236 20.3758 62.7585L14.9429 63.0113C14.9429 63.0113 15.1976 68.5719 14.6033 70.0042C14.0091 71.4365 12.8206 73.8798 12.8206 73.8798L12.481 83.7374Z" fill="#B0B0B0"/>
<path d="M16.3011 84.6642C15.8301 83.7965 15.2903 83.6236 14.1788 83.4846C15.4215 82.3853 15.8214 83.0321 17.8291 78.6822C17.4541 80.8293 17.316 82.0696 17.8291 84.6642C17.0531 84.2335 16.7493 84.3045 16.3011 84.6642Z" fill="#B0B0B0"/>
<path d="M27.1671 60.3995C24.6605 62.3105 23.3456 62.3463 20.9701 62.7585C20.2617 67.3941 19.9332 69.9396 18.8478 74.3011C17.1773 81.99 18.046 83.7822 19.442 87.1917L20.0363 86.0122C21.3949 77.263 21.1131 72.1935 26.5728 64.6963L27.1671 60.3995Z" fill="#B0B0B0"/>
<path d="M26.1484 67.8979C26.1484 67.8979 23.1772 75.0594 23.0074 75.7334C22.8376 76.4074 20.6978 84.4114 20.6978 84.4114C20.6978 84.4114 21.9887 75.7334 22.4981 74.7224C23.0074 73.7113 26.1484 65.8759 26.1484 65.8759V67.8979Z" fill="#B0B0B0"/>
<path d="M12.2264 86.0122V84.6642C12.2264 84.6642 14.4335 83.9059 15.1126 84.1587C15.7918 84.4114 15.7918 85.6752 15.7918 85.6752L14.4335 89.298C12.8908 92.4481 12.8905 94.4759 12.2264 97.8918C10.6457 100.392 9.78572 99.99 8.23652 100.335C8.49412 92.7138 9.95514 90.494 12.2264 86.0122Z" fill="#B0B0B0"/>
<path d="M8.23652 101.43V100.925C9.70009 100.454 9.99018 101.239 12.5659 98.5658C13.2594 100.748 13.9484 101.535 15.622 102.273L12.9055 109.182C11.3872 112.242 10.7348 114.102 10.5286 118.112H11.2077C11.1201 115.433 11.125 113.969 12.2264 112.13C13.3683 114.353 13.6888 115.652 13.4148 118.112C12.1788 121.023 11.3554 122.287 9.34009 122.999C7.77464 122.629 7.41644 121.957 7.38762 120.219L7.98185 102.273C8.58921 103.359 9.0425 103.673 8.91564 106.654L8.66097 117.607H9.34009L9.34348 117.511C9.50755 112.846 9.60049 110.203 9.34009 103.874C9.09713 102.842 8.88142 102.298 8.23652 101.43Z" fill="#B0B0B0"/>
<path d="M12.9055 98.5658C13.4419 92.4907 14.4528 90.0212 16.3011 85.6752L16.5558 85.1697C16.5558 85.1697 16.7256 84.9169 16.9802 84.8327C17.2349 84.7484 17.8291 85.1697 17.8291 85.1697L19.1874 87.6973C18.0502 90.1996 18.2536 95.5327 17.8291 96.7123C17.4047 97.8918 15.7918 101.852 15.7918 101.852C13.8991 101.233 13.6539 100.178 12.9055 98.5658Z" fill="#B0B0B0"/>
<path d="M-4.75169 50.1207C-7.74276 52.8851 -9.0811 57.0294 -8.99621 57.1136C-8.91132 57.1979 -8.74154 57.1136 -8.74154 57.1136L-7.12862 55.3443V55.8498L-7.63796 57.3664L-8.74154 61.242C-8.74154 61.242 -8.99621 61.579 -8.99621 61.6632C-8.99621 61.7475 -8.74154 61.6632 -8.74154 61.6632L-8.31709 61.4105L-7.80774 60.1467L-6.70417 57.7034C-6.70417 57.7034 -6.53439 57.6191 -6.36461 57.6191C-6.19483 57.6191 -6.19483 57.8719 -6.19483 57.8719L-6.36461 58.5459L-7.12862 62.927C-7.12862 62.927 -6.95884 63.264 -6.87395 63.1798C-6.78906 63.0955 -6.53439 62.59 -6.53439 62.59L-6.36461 62.1688L-5.17615 58.2089C-5.17615 58.2089 -5.00637 58.1246 -4.92147 58.2089C-4.83658 58.2931 -4.92147 58.8829 -4.92147 58.8829C-4.92147 58.8829 -5.00637 63.4325 -4.92147 63.5168C-4.83658 63.601 -4.58191 63.6853 -4.49702 63.5168C-4.41213 63.3483 -4.32724 62.59 -4.32724 62.59L-4.15746 61.4105L-3.90279 59.8939L-3.64812 58.8829C-3.64812 58.8829 -3.64812 58.5459 -3.47834 58.5459C-3.30856 58.5459 -3.39345 58.7144 -3.39345 58.7144L-3.22367 59.2199L-2.969 61.6632C-2.969 61.6632 -2.88411 62.5058 -2.79922 62.59C-2.71433 62.6743 -2.54455 62.6743 -2.37477 62.59C-2.20499 62.5058 -2.20499 62.0003 -2.20499 62.0003L-2.1201 61.3262C-2.17395 57.3835 -0.931632 55.5971 -1.10141 51.9742C-2.73584 51.5566 -3.49114 51.0849 -4.75169 50.1207Z" fill="#B0B0B0"/>
<path d="M59.1707 50.4577C57.614 52.15 56.8159 52.0609 55.3506 52.4797C55.0583 56.3814 56.6763 60.7105 56.7089 61.3262C56.7415 61.9419 56.8045 62.2107 56.9635 62.59C56.9635 62.59 57.1333 62.6743 57.2182 62.59C57.3031 62.5058 57.2182 62.1688 57.2182 62.1688L57.388 61.1577V59.3884L57.5578 58.7144H57.8124C57.9822 58.7987 59.1707 63.3483 59.1707 63.3483H59.5103C59.5103 63.3483 59.68 63.5168 59.8498 63.3483C60.0196 63.1798 59.1707 59.2199 59.1707 59.2199V58.7144C59.1707 58.7144 59.3405 58.3774 59.5103 58.3774C59.68 58.3774 61.8872 63.0955 62.1418 63.0955C62.3965 63.0955 62.3116 62.8428 62.3116 62.8428L60.6987 58.3774C60.6987 58.3774 60.5289 57.9561 60.6987 57.8719C60.8685 57.7876 60.9534 57.8719 60.9534 57.8719L63.4152 61.1577C63.4152 61.1577 63.7548 61.242 63.9246 61.1577C64.0943 61.0735 63.9246 60.8207 63.9246 60.8207L61.2929 56.1026C61.2929 56.1026 60.9534 55.9341 60.9534 55.6813C60.9534 55.4286 61.2929 55.3443 61.2929 55.3443C61.2929 55.3443 63.7548 56.6081 63.9246 56.5238C64.0943 56.4396 63.9246 56.2711 63.9246 56.2711L59.1707 50.4577Z" fill="#B0B0B0"/>
<path d="M28.4404 47.8459C30.4347 45.1524 30.5015 43.0871 37.3539 42.9592L37.6086 43.2962C38.0764 49.2643 39.581 52.2867 42.2494 57.647L42.2775 57.7034C41.3222 59.3516 41.1398 60.4511 40.8344 62.4215C33.7769 63.0776 31.7501 61.6431 28.4404 58.7987V47.8459Z" fill="#B0B0B0"/>
<path d="M17.7443 43.549L16.386 50.1207L12.9904 57.7034C14.3975 59.5112 14.5694 60.5578 14.9429 62.4215C21.8919 62.2829 25.3272 61.8918 27.9311 58.7987V47.8459C26.736 45.7424 25.6976 44.8804 23.6017 43.549C20.8293 43.1214 19.5438 43.1188 17.7443 43.549Z" fill="#B0B0B0"/>
<path d="M15.7069 43.9702L17.3198 43.549L16.2162 48.6884L12.9904 56.3553L14.6033 48.6884L15.7069 43.9702Z" fill="#B0B0B0"/>
<path d="M37.9481 42.9592H39.3064C40.153 47.2521 40.7373 49.6199 42.0229 53.7435C42.4258 54.9853 42.5239 55.7284 42.5322 57.1136C40.1244 51.754 38.9097 48.7128 37.9481 42.9592Z" fill="#B0B0B0"/>
<path d="M16.2162 32.2591C16.2162 32.2591 20.9701 36.8088 22.0737 37.9041C23.1772 38.9993 25.1297 43.7175 25.1297 43.7175C21.5086 42.2466 19.5059 42.3453 15.9616 43.2962C16.8127 38.8483 16.5995 36.4933 16.2229 32.3334M16.2162 32.2591L16.2229 32.3334M16.2162 32.2591C16.2185 32.284 16.2207 32.3087 16.2229 32.3334M17.9989 18.863C16.5565 18.7754 15.8545 18.604 14.6882 18.189V16.4197C16.5703 15.4035 17.6478 14.8946 19.1025 12.7126C20.4262 14.9806 21.2018 16.2379 23.2621 18.189C21.3996 18.6452 20.18 18.7233 18.0072 18.8625M17.9989 18.863L18.0072 18.8625M17.9989 18.863C18.0017 18.8628 18.0044 18.8626 18.0072 18.8625M42.2775 57.7034C41.3222 59.3516 41.1398 60.4511 40.8344 62.4215C33.7769 63.0776 31.7501 61.6431 28.4404 58.7987V47.8459C30.4347 45.1524 30.5015 43.0871 37.3539 42.9592L37.6086 43.2962C38.0764 49.2643 39.581 52.2867 42.2494 57.647M42.2775 57.7034L42.2494 57.647M42.2775 57.7034C42.2681 57.6845 42.2588 57.6657 42.2494 57.647M42.5322 16.4197L47.7954 17.7677C47.8563 19.9934 48.0617 21.2172 48.9839 23.3284C44.8632 22.0376 44.0355 20.0428 42.592 16.5638M42.5322 16.4197L42.592 16.5638M42.5322 16.4197C42.5523 16.468 42.5722 16.5161 42.592 16.5638M41.2588 7.48892L41.2738 7.49435M41.2588 7.48892L41.2019 7.51304M41.2588 7.48892C41.2398 7.49699 41.2208 7.50503 41.2019 7.51304M41.2588 7.48892C41.2638 7.49073 41.2688 7.49254 41.2738 7.49435M20.6305 84.6642L20.6978 84.4114M20.6978 84.4114C20.6978 84.4114 22.8376 76.4074 23.0074 75.7334C23.1772 75.0594 26.1484 67.8979 26.1484 67.8979V65.8759C26.1484 65.8759 23.0074 73.7113 22.4981 74.7224C21.9887 75.7334 20.6978 84.4114 20.6978 84.4114ZM9.34009 117.607H8.66097L8.91564 106.654C9.0425 103.673 8.58921 103.359 7.98185 102.273L7.38762 120.219C7.41644 121.957 7.77465 122.629 9.34009 122.999C11.3554 122.287 12.1788 121.023 13.4148 118.112C13.6888 115.652 13.3683 114.353 12.2264 112.13C11.125 113.969 11.1201 115.433 11.2077 118.112H10.5286C10.7348 114.102 11.3872 112.242 12.9055 109.182L15.622 102.273C13.9484 101.535 13.2594 100.748 12.5659 98.5658C9.99018 101.239 9.70009 100.454 8.23652 100.925V101.43C8.88142 102.298 9.09713 102.842 9.34009 103.874C9.60049 110.203 9.50755 112.846 9.34348 117.511M9.34009 117.607L9.34348 117.511M9.34009 117.607C9.34123 117.575 9.34236 117.543 9.34348 117.511M41.2738 7.49435C43.2042 8.19464 44.2916 8.5891 45.4185 10.0165C47.1094 12.4306 47.5709 13.9882 47.7954 17.0094C44.6802 16.6117 42.9161 16.1464 39.7308 14.5661C38.3111 13.5388 37.6504 12.9236 37.1841 11.6173C37.8238 8.94415 39.0487 8.42526 41.2019 7.51304M15.7069 43.9702L17.3198 43.549L16.2162 48.6884L12.9904 56.3553L14.6033 48.6884L15.7069 43.9702ZM17.7443 43.549L16.386 50.1207L12.9904 57.7034C14.3975 59.5112 14.5694 60.5578 14.9429 62.4215C21.8919 62.2829 25.3272 61.8918 27.9311 58.7987V47.8459C26.736 45.7424 25.6976 44.8804 23.6017 43.549C20.8292 43.1214 19.5438 43.1188 17.7443 43.549ZM21.2248 36.0505C23.1258 30.9771 23.6242 28.0178 27.4217 23.3284L27.9311 23.8339V46.8348C27.1641 45.4754 26.732 44.7205 25.7239 44.1387C24.539 40.5735 23.7421 38.6698 21.2248 36.0505ZM14.6882 18.863L14.2637 22.1488L15.2824 25.5189C16.7698 27.0497 17.7819 27.6139 19.9514 27.9623C22.2634 27.6848 23.7672 26.7839 27.0822 22.9071L23.6017 18.863C19.1635 19.6241 17.3535 19.5102 14.6882 18.863ZM16.2162 7.48892L18.5932 6.98341H25.4693C26.8536 7.55726 27.4481 8.08198 27.9311 9.67949V22.9071L19.9514 13.5551L19.1025 10.3535L16.2162 7.48892ZM28.4404 9.67949C28.9506 8.49487 29.4861 7.90958 30.8174 6.98341L40.4949 7.48892C38.5746 7.98025 37.7873 8.80781 36.7597 11.0275C36.4409 12.9812 36.211 14.0627 34.8921 15.7457L28.4404 23.3284V9.67949ZM28.4404 5.63537V8.07869C28.907 7.50446 29.1903 7.19028 29.9685 6.73065C29.2045 6.53382 28.9004 6.25413 28.4404 5.63537ZM27.9311 5.63537V8.07869C27.2482 7.44817 26.8322 7.16395 26.0635 6.73065C26.9867 6.40549 27.3802 6.15844 27.9311 5.63537ZM27.9311 -4.55918V4.28733C27.2213 5.70942 26.5566 6.20885 24.7901 6.56214H19.9514C23.9047 3.78494 23.0757 2.32104 23.4319 -0.346556C24.9493 -2.43328 25.6159 -3.94266 27.9311 -4.55918ZM28.4404 -4.55918V4.28733C28.7596 5.29078 29.0324 5.83273 30.5627 6.56214H35.0619C32.6659 4.6768 31.7843 3.28941 31.836 -0.346556C30.7665 -2.27181 30.1526 -3.33559 28.4404 -4.55918ZM23.4319 -1.02058C24.8112 -3.22614 25.4802 -4.62126 28.016 -5.06469C29.6777 -4.61546 30.591 -3.77355 32.1756 -0.852072L32.5152 -1.6946C32.7187 -2.04093 32.9706 -2.19958 33.5338 -2.45287L34.0432 -3.88516V-5.73872H33.7885C33.7885 -5.73872 35.3165 -14.2482 28.016 -13.9955C20.7154 -13.7427 22.3283 -5.82297 22.3283 -5.82297L21.9039 -5.73872V-3.88516C22.2276 -2.80479 22.3817 -2.20294 23.4319 -1.02058ZM7.30275 18.0205C7.09376 14.6309 7.42868 13.2872 8.40632 11.3645C10.7345 8.92858 12.2515 8.12119 15.2824 7.48892C16.73 8.60559 17.7572 8.96738 18.5083 10.9433C18.6428 12.2456 18.6334 12.9776 16.9802 14.3134C13.0142 16.8944 10.9923 17.3757 7.30275 18.0205ZM7.04807 18.4417L5.9445 23.3284C9.22216 21.6775 10.8876 20.5457 12.7357 17.1779C10.5133 18.045 9.27049 18.3561 7.04807 18.4417ZM11.1228 20.6323C12.4008 19.0918 12.8711 18.3105 13.4148 17.0094L14.2637 16.5882C14.2048 18.5969 14.1263 19.7424 13.9242 21.8118C12.9757 23.0238 12.5676 23.9489 11.8868 25.6874C11.3109 24.3443 10.8813 23.8341 11.1228 20.6323ZM10.5286 21.1378C10.6364 23.1879 10.6044 24.3405 11.6322 26.3615C11.6322 26.3615 9.34013 32.0906 9.17033 32.2591C9.00053 32.4276 5.60492 32.0064 5.43516 31.9221C5.2654 31.8379 3.22801 29.7316 3.14312 29.4788C3.05823 29.226 5.68983 24.0024 5.68983 24.0024C7.36589 23.324 8.38533 22.7808 10.5286 21.1378ZM2.97332 29.9843L5.43516 32.5961L9.00053 32.7646C7.37191 39.9997 1.36041 43.9702 -1.10141 51.3002C-1.10141 51.3002 -2.54455 50.9632 -2.969 50.7947C-3.39345 50.6262 -4.32724 49.5309 -4.32724 49.5309C-2.08328 41.8493 -1.25582 37.5083 2.97332 29.9843ZM28.4404 24.0866L29.2893 23.3284L35.9956 34.9552C32.7063 37.4661 31.4773 39.3911 30.6476 43.9702C29.5046 44.8359 29.0418 45.4805 28.4404 46.8348V24.0866ZM31.7511 26.3615L36.505 34.7025L39.3064 32.9332L40.6646 25.5189C39.4513 26.7652 38.7946 27.4821 36.6748 28.0465C34.5161 28.2601 33.5324 27.5444 31.7511 26.3615ZM20.7154 35.7135C22.0387 31.8022 22.7438 29.5735 24.7901 26.3615C22.6572 28.1598 21.6717 28.2953 19.9514 28.3835C18.2751 28.2631 17.3232 28.1411 15.2824 26.3615L15.9615 31.5009C17.6245 32.5591 18.6161 33.3351 20.7154 35.7135ZM37.9481 42.9592H39.3064C40.153 47.2521 40.7373 49.6199 42.0229 53.7435C42.4258 54.9853 42.5239 55.7284 42.5322 57.1136C40.1244 51.754 38.9097 48.7128 37.9481 42.9592ZM31.3267 43.7175C31.5964 40.3474 33.156 36.6114 39.3064 33.5229V42.2852C32.4373 42.3495 32.8674 42.9503 31.3267 43.7175ZM29.544 22.9071L33.0245 18.863C35.7014 19.2344 36.9801 19.9082 40.4949 18.526C40.4811 20.1095 40.5244 20.9693 41.2588 22.1488L41.0042 24.0866C39.6503 25.8598 38.7105 26.6021 36.7597 27.541C34.1886 27.5376 32.66 26.8978 29.544 22.9071ZM33.5338 18.526C35.0964 16.4592 36.4138 15.5968 36.7597 12.7126C37.8679 13.9246 38.4235 14.6323 40.1553 15.5772L40.2402 17.7677C39.5647 18.6574 39.0287 18.615 38.1179 18.6945L33.5338 18.526ZM40.6646 15.7457L41.6833 16.1669C42.7661 18.8242 43.3792 19.8152 44.4847 21.1378C44.4266 23.0409 44.0907 23.9752 43.2113 25.5189C41.9951 23.3226 41.4964 22.0707 41.0042 19.7898L40.6646 15.7457ZM43.466 26.3615C44.3203 24.6805 44.7741 23.7286 44.994 21.8118C46.5593 23.2864 47.432 23.6448 48.9839 24.0866L51.6155 30.4056C50.9674 31.2789 50.5458 31.7278 49.4083 32.2591C48.2046 32.6215 47.5389 32.6846 46.3523 32.7646L43.466 26.3615ZM46.6918 33.2702C46.6918 33.2702 46.1825 35.208 46.6918 36.556C47.2012 37.9041 52.3351 44.7209 55.3506 51.6372C55.3506 51.6372 56.7089 51.6372 57.388 51.2159C58.0671 50.7947 59.0009 49.8679 59.0009 49.8679C56.9776 42.5668 55.2631 38.4182 51.955 30.9953L49.8328 32.7646L46.6918 33.2702ZM29.3742 60.7365L29.9684 65.4546C34.6225 73.5685 35.5864 78.5461 36.2503 87.6973L36.5899 88.287C37.8481 85.1222 39.0118 83.9892 37.7783 77.3342C36.1637 72.9794 35.5786 69.8983 35.2316 63.0113C32.9505 62.5509 31.5927 62.0379 29.3742 60.7365ZM29.9684 66.5499L35.741 86.265C35.741 86.265 34.2129 77.0814 33.7885 75.7334C33.364 74.3854 29.9684 66.5499 29.9684 66.5499ZM35.741 63.0113H40.4948C40.7492 66.855 40.6353 68.8512 42.5322 73.7113L43.1264 84.1587C36.6389 76.7982 36.4355 71.816 35.741 63.0113ZM42.5322 58.4617C42.5322 58.4617 41.1739 61.7475 41.1739 64.2751C41.1739 66.8026 42.5322 72.4476 42.5322 72.4476V65.4546V58.4617ZM38.1179 86.0122C38.6838 83.7632 39.275 82.8128 38.6272 79.1877C39.5253 80.9563 39.9098 81.9451 41.8531 83.7374C41.8531 83.7374 40.7495 83.7374 40.325 84.1587C39.9006 84.5799 39.4761 85.6752 39.4761 85.6752L38.1179 86.0122ZM36.8445 88.8768C37.3863 87.8184 37.5024 87.2046 39.1366 86.265C39.1366 86.265 43.6358 95.4485 43.1264 98.5658C42.6171 101.683 39.4761 102.694 39.4761 102.694C38.6446 100.669 38.0921 99.5674 37.8632 97.302C37.6821 93.3028 37.4221 91.583 36.8445 88.8768ZM40.0704 86.0122C40.0704 86.0122 40.1553 84.6642 41.0042 84.4114C41.8531 84.1587 43.1264 85.1697 43.1264 85.1697C43.1264 85.1697 46.8616 95.3642 46.6918 99.9981C46.4844 100.687 44.4212 99.7789 43.6358 98.2288C42.3119 89.4127 41.4859 89.4346 40.0704 86.0122ZM43.6358 99.0713C42.4117 101.773 41.5495 102.821 39.4761 103.284C42.0444 108.072 43.8564 109.978 44.8242 118.112C44.6827 118.225 44.3828 118.382 44.3149 118.112C44.06 115.263 43.8584 113.837 43.1264 112.383C41.7495 113.564 41.6551 114.864 41.938 117.607C42.9663 121.066 43.6583 122.695 45.8429 122.999C49.0165 122.24 47.3903 113.671 47.0314 104.463C45.8367 109.179 46.0122 112.421 46.4371 118.281L45.8429 118.112C45.5136 111.1 45.6543 107.317 46.6918 100.925C44.959 100.623 44.4498 100.092 43.6358 99.0713ZM12.9904 58.4617C12.9904 58.4617 14.6599 62.8822 14.6033 65.4546C14.5467 68.027 13.1643 72.9157 12.9904 72.7846V65.6231V58.4617ZM20.3758 62.7585C18.6394 75.0236 17.7283 82.0896 12.481 83.7374L12.8206 73.8798C12.8206 73.8798 14.0091 71.4365 14.6033 70.0042C15.1976 68.5719 14.9429 63.0113 14.9429 63.0113L20.3758 62.7585ZM14.1788 83.4846C15.2903 83.6236 15.8301 83.7965 16.3011 84.6642C16.7493 84.3045 17.0531 84.2335 17.8291 84.6642C17.316 82.0696 17.4541 80.8293 17.8291 78.6822C15.8214 83.0321 15.4215 82.3853 14.1788 83.4846ZM20.9701 62.7585C23.3456 62.3463 24.6605 62.3105 27.1671 60.3995L26.5728 64.6963C21.1131 72.1935 21.3949 77.263 20.0363 86.0122L19.442 87.1917C18.046 83.7822 17.1773 81.99 18.8478 74.3011C19.9332 69.9396 20.2617 67.3941 20.9701 62.7585ZM12.2264 84.6642V86.0122C9.95514 90.494 8.49412 92.7138 8.23652 100.335C9.78572 99.99 10.6457 100.392 12.2264 97.8918C12.8905 94.4759 12.8908 92.4481 14.4335 89.298L15.7918 85.6752C15.7918 85.6752 15.7918 84.4114 15.1126 84.1587C14.4335 83.9059 12.2264 84.6642 12.2264 84.6642ZM16.3011 85.6752C14.4528 90.0212 13.4419 92.4907 12.9055 98.5658C13.6539 100.178 13.8991 101.233 15.7918 101.852C15.7918 101.852 17.4047 97.8918 17.8291 96.7123C18.2536 95.5327 18.0502 90.1996 19.1874 87.6973L17.8291 85.1697C17.8291 85.1697 17.2349 84.7484 16.9802 84.8327C16.7256 84.9169 16.5558 85.1697 16.5558 85.1697L16.3011 85.6752ZM-8.99621 57.1136C-9.0811 57.0294 -7.74276 52.8851 -4.75169 50.1207C-3.49114 51.0849 -2.73584 51.5566 -1.10141 51.9742C-0.931632 55.5971 -2.17395 57.3835 -2.1201 61.3262L-2.20499 62.0003C-2.20499 62.0003 -2.20499 62.5058 -2.37477 62.59C-2.54455 62.6743 -2.71433 62.6743 -2.79922 62.59C-2.88411 62.5058 -2.969 61.6632 -2.969 61.6632L-3.22367 59.2199L-3.39345 58.7144C-3.39345 58.7144 -3.30856 58.5459 -3.47834 58.5459C-3.64812 58.5459 -3.64812 58.8829 -3.64812 58.8829L-3.90279 59.8939L-4.15746 61.4105L-4.32724 62.59C-4.32724 62.59 -4.41213 63.3483 -4.49702 63.5168C-4.58191 63.6853 -4.83658 63.601 -4.92147 63.5168C-5.00637 63.4325 -4.92147 58.8829 -4.92147 58.8829C-4.92147 58.8829 -4.83658 58.2931 -4.92147 58.2089C-5.00637 58.1246 -5.17615 58.2089 -5.17615 58.2089L-6.36461 62.1688L-6.53439 62.59C-6.53439 62.59 -6.78906 63.0955 -6.87395 63.1798C-6.95884 63.264 -7.12862 62.927 -7.12862 62.927L-6.36461 58.5459L-6.19483 57.8719C-6.19483 57.8719 -6.19483 57.6191 -6.36461 57.6191C-6.53439 57.6191 -6.70417 57.7034 -6.70417 57.7034L-7.80774 60.1467L-8.31709 61.4105L-8.74154 61.6632C-8.74154 61.6632 -8.99621 61.7475 -8.99621 61.6632C-8.99621 61.579 -8.74154 61.242 -8.74154 61.242L-7.63796 57.3664L-7.12862 55.8498V55.3443L-8.74154 57.1136C-8.74154 57.1136 -8.91132 57.1979 -8.99621 57.1136ZM55.3506 52.4797C56.8159 52.0609 57.614 52.15 59.1707 50.4577L63.9245 56.2711C63.9245 56.2711 64.0943 56.4396 63.9245 56.5238C63.7548 56.6081 61.2929 55.3443 61.2929 55.3443C61.2929 55.3443 60.9534 55.4286 60.9534 55.6813C60.9534 55.9341 61.2929 56.1026 61.2929 56.1026L63.9245 60.8207C63.9245 60.8207 64.0943 61.0735 63.9245 61.1577C63.7548 61.242 63.4152 61.1577 63.4152 61.1577L60.9534 57.8719C60.9534 57.8719 60.8685 57.7876 60.6987 57.8719C60.5289 57.9561 60.6987 58.3774 60.6987 58.3774L62.3116 62.8428C62.3116 62.8428 62.3965 63.0955 62.1418 63.0955C61.8872 63.0955 59.68 58.3774 59.5103 58.3774C59.3405 58.3774 59.1707 58.7144 59.1707 58.7144V59.2199C59.1707 59.2199 60.0196 63.1798 59.8498 63.3483C59.68 63.5168 59.5103 63.3483 59.5103 63.3483H59.1707C59.1707 63.3483 57.9822 58.7987 57.8124 58.7144H57.5578L57.388 59.3884V61.1577L57.2182 62.1688C57.2182 62.1688 57.3031 62.5058 57.2182 62.59C57.1333 62.6743 56.9635 62.59 56.9635 62.59C56.8045 62.2107 56.7415 61.9419 56.7089 61.3262C56.6763 60.7105 55.0583 56.3814 55.3506 52.4797Z" stroke="#1E1E1E"/>
</g>
</svg>
