<svg width="55" height="55" viewBox="0 0 55 55" fill="none" xmlns="http://www.w3.org/2000/svg">
<mask id="mask0_34714_7831" style="mask-type:alpha" maskUnits="userSpaceOnUse" x="0" y="0" width="55" height="55">
<circle cx="27.5" cy="27.5" r="27.5" fill="#303030"/>
</mask>
<g mask="url(#mask0_34714_7831)">
<path d="M16.2229 33.6716L16.2162 33.5968C16.2162 33.5968 20.9701 38.1796 22.0737 39.2829C23.1772 40.3862 25.1297 45.1388 25.1297 45.1388C21.5086 43.6572 19.5059 43.7566 15.9616 44.7144C16.8127 40.2341 16.5995 37.8618 16.2229 33.6716Z" fill="#B0B0B0"/>
<path d="M27.4217 24.6009C23.6242 29.3245 23.1258 32.3054 21.2248 37.4158C23.7421 40.0542 24.539 41.9719 25.7239 45.5631C26.732 46.1491 27.1641 46.9095 27.9311 48.2789V25.1101L27.4217 24.6009Z" fill="#B0B0B0"/>
<path d="M14.2637 23.4127L14.6882 20.1029C17.3535 20.7548 19.1635 20.8695 23.6017 20.1029L27.0822 24.1765C23.7672 28.0816 22.2634 28.9891 19.9514 29.2686C17.7819 28.9176 16.7697 28.3493 15.2824 26.8074L14.2637 23.4127Z" fill="#B0B0B0"/>
<path d="M18.5932 8.13658L16.2162 8.64578L19.1025 11.5313L19.9514 14.7562L27.9311 24.1765V10.8523C27.4481 9.24317 26.8536 8.71462 25.4693 8.13658H18.5932Z" fill="#F9FAFB"/>
<path d="M30.8174 8.13658C29.4861 9.06951 28.9506 9.65907 28.4404 10.8523V24.6009L34.8921 16.9628C36.211 15.2676 36.4409 14.1782 36.7597 12.2102C37.7873 9.9743 38.5746 9.1407 40.4949 8.64578L30.8174 8.13658Z" fill="#F9FAFB"/>
<path d="M28.4404 9.23985V6.7787C28.9004 7.40198 29.2045 7.6837 29.9685 7.88198C29.1903 8.34496 28.907 8.66144 28.4404 9.23985Z" fill="#B0B0B0"/>
<path d="M27.9311 9.23985V6.7787C27.3802 7.30559 26.9867 7.55444 26.0635 7.88198C26.8322 8.31844 27.2482 8.60474 27.9311 9.23985Z" fill="#B0B0B0"/>
<path d="M27.9311 5.42082V-3.49026C25.6159 -2.86925 24.9493 -1.34884 23.4319 0.753111C23.0757 3.44018 23.9047 4.91476 19.9514 7.71224H24.7901C26.5566 7.35637 27.2213 6.85329 27.9311 5.42082Z" fill="#B0B0B0"/>
<path d="M28.4404 5.42082V-3.49026C30.1526 -2.25774 30.7665 -1.1862 31.836 0.753111C31.7843 4.41562 32.6659 5.81314 35.0619 7.71224H30.5627C29.0324 6.9775 28.7596 6.4316 28.4404 5.42082Z" fill="#B0B0B0"/>
<path d="M28.016 -3.99947C25.4802 -3.5528 24.8112 -2.14749 23.4319 0.0741711C22.3817 -1.11682 22.2276 -1.72307 21.9039 -2.81132V-4.67841L22.3283 -4.76327C22.3283 -4.76327 20.7154 -12.7408 28.016 -12.9954C35.3165 -13.25 33.7885 -4.67841 33.7885 -4.67841H34.0432V-2.81132L33.5338 -1.36858C32.9706 -1.11344 32.7187 -0.953631 32.5152 -0.604768L32.1756 0.243906C30.591 -2.69889 29.6777 -3.54696 28.016 -3.99947Z" fill="#B0B0B0"/>
<path d="M19.1025 13.9076C17.6478 16.1055 16.5703 16.6181 14.6882 17.6417V19.4239C15.8545 19.842 16.5565 20.0147 17.9989 20.1029L18.0072 20.1024C20.18 19.9622 21.3996 19.8835 23.2621 19.4239C21.2018 17.4586 20.4262 16.1921 19.1025 13.9076Z" fill="#B0B0B0"/>
<path d="M8.40632 12.5497C7.42868 14.4864 7.09376 15.8399 7.30275 19.2542C10.9923 18.6047 13.0142 18.12 16.9802 15.52C18.6334 14.1745 18.6428 13.4372 18.5083 12.1253C17.7572 10.135 16.73 9.77061 15.2824 8.64578C12.2515 9.28267 10.7345 10.0959 8.40632 12.5497Z" fill="#B0B0B0"/>
<path d="M5.9445 24.6009L7.04807 19.6785C9.27048 19.5922 10.5133 19.2789 12.7357 18.4055C10.8876 21.7979 9.22215 22.938 5.9445 24.6009Z" fill="#B0B0B0"/>
<path d="M13.4148 18.2358C12.8711 19.5464 12.4008 20.3333 11.1228 21.8851C10.8813 25.1102 11.3109 25.6242 11.8868 26.9771C12.5676 25.2259 12.9757 24.294 13.9242 23.0732C14.1263 20.9887 14.2048 19.8349 14.2637 17.8115L13.4148 18.2358Z" fill="#B0B0B0"/>
<path d="M11.6322 27.6561C10.6044 25.6203 10.6364 24.4594 10.5286 22.3943C8.38533 24.0493 7.36589 24.5965 5.68983 25.2798C5.68983 25.2798 3.05823 30.5416 3.14312 30.7962C3.22801 31.0508 5.2654 33.1725 5.43516 33.2573C5.60492 33.3422 9.00053 33.7665 9.17033 33.5968C9.34013 33.4271 11.6322 27.6561 11.6322 27.6561Z" fill="#B0B0B0"/>
<path d="M5.43516 33.9363L2.97332 31.3054C-1.25583 38.8843 -2.08328 43.2569 -4.32724 50.9946C-4.32724 50.9946 -3.39345 52.0979 -2.969 52.2676C-2.54455 52.4374 -1.10141 52.7768 -1.10141 52.7768C1.3604 45.3934 7.37191 41.3939 9.00053 34.106L5.43516 33.9363Z" fill="#B0B0B0"/>
<path d="M29.2893 24.6009L28.4404 25.3647V48.2789C29.0418 46.9147 29.5046 46.2653 30.6475 45.3934C31.4773 40.7809 32.7063 38.8418 35.9956 36.3126L29.2893 24.6009Z" fill="#B0B0B0"/>
<path d="M36.505 36.058L31.7511 27.6561C33.5324 28.8477 34.516 29.5686 36.6748 29.3534C38.7946 28.7849 39.4513 28.0628 40.6646 26.8074L39.3064 34.2757L36.505 36.058Z" fill="#B0B0B0"/>
<path d="M24.7901 27.6561C22.7438 30.8915 22.0387 33.1365 20.7154 37.0764C18.616 34.6807 17.6245 33.8989 15.9615 32.833L15.2824 27.6561C17.3232 29.4487 18.2751 29.5716 19.9514 29.6929C21.6717 29.604 22.6572 29.4675 24.7901 27.6561Z" fill="#B0B0B0"/>
<path d="M39.3064 34.8698C33.156 37.9809 31.5964 41.7441 31.3267 45.1388C32.8674 44.366 32.4373 43.7608 39.3064 43.696V34.8698Z" fill="#B0B0B0"/>
<path d="M33.0245 20.1029L29.544 24.1765C32.66 28.1963 34.1886 28.8408 36.7597 28.8442C38.7105 27.8985 39.6503 27.1507 41.0042 25.3647L41.2588 23.4127C40.5244 22.2245 40.481 21.3585 40.4949 19.7634C36.9801 21.1557 35.7014 20.477 33.0245 20.1029Z" fill="#B0B0B0"/>
<path d="M36.7597 13.9076C36.4138 16.8129 35.0964 17.6815 33.5338 19.7634L38.1179 19.9331C39.0287 19.853 39.5647 19.8958 40.2402 18.9996L40.1553 16.7931C38.4235 15.8413 37.8679 15.1285 36.7597 13.9076Z" fill="#B0B0B0"/>
<path d="M41.6833 17.3871L40.6646 16.9628L41.0042 21.0364C41.4964 23.334 41.9951 24.5951 43.2113 26.8074C44.0907 25.2524 44.4266 24.3113 44.4847 22.3943C43.3791 21.0621 42.7661 20.0638 41.6833 17.3871Z" fill="#B0B0B0"/>
<path d="M42.592 17.7869L42.5322 17.6417L47.7954 18.9996C47.8563 21.2415 48.0617 22.4743 48.9838 24.6009C44.8632 23.3007 44.0355 21.2913 42.592 17.7869Z" fill="#B0B0B0"/>
<path d="M41.2738 8.65125L41.2588 8.64578L41.2019 8.67008C39.0487 9.58895 37.8238 10.1116 37.1841 12.8043C37.6504 14.1202 38.3111 14.7399 39.7308 15.7746C42.9161 17.3665 44.6802 17.8351 47.7954 18.2358C47.5709 15.1925 47.1094 13.6236 45.4185 11.1918C44.2915 9.75399 43.2042 9.35665 41.2738 8.65125Z" fill="#B0B0B0"/>
<path d="M44.994 23.0732C44.7741 25.004 44.3203 25.9629 43.466 27.6561L46.3522 34.106C47.5388 34.0254 48.2046 33.9618 49.4083 33.5968C50.5458 33.0615 50.9674 32.6094 51.6154 31.7297L48.9838 25.3647C47.432 24.9196 46.5592 24.5586 44.994 23.0732Z" fill="#B0B0B0"/>
<path d="M46.6918 37.925C46.1825 36.5671 46.6918 34.6152 46.6918 34.6152L49.8328 34.106L51.955 32.3238C55.2631 39.8008 56.9776 43.9797 59.0009 51.3341C59.0009 51.3341 58.0671 52.2676 57.388 52.692C56.7089 53.1163 55.3506 53.1163 55.3506 53.1163C52.3351 46.1495 47.2012 39.2829 46.6918 37.925Z" fill="#B0B0B0"/>
<path d="M29.9684 67.0346L29.3742 62.282C31.5927 63.5929 32.9505 64.1096 35.2316 64.5734C35.5785 71.5107 36.1637 74.6143 37.7783 79.0009C39.0118 85.7045 37.8481 86.8457 36.5899 90.0336L36.2503 89.4396C35.5864 80.2216 34.6225 75.2077 29.9684 67.0346Z" fill="#B0B0B0"/>
<path d="M35.741 87.9968L29.9684 68.1378C29.9684 68.1378 33.364 76.0305 33.7885 77.3884C34.2129 78.7463 35.741 87.9968 35.741 87.9968Z" fill="#B0B0B0"/>
<path d="M40.4948 64.5734H35.741C36.4355 73.4424 36.6389 78.461 43.1264 85.8751L42.5322 75.3516C40.6353 70.456 40.7492 68.4452 40.4948 64.5734Z" fill="#B0B0B0"/>
<path d="M41.1739 65.8464C41.1739 63.3004 42.5322 59.9906 42.5322 59.9906V67.0346V74.0786C42.5322 74.0786 41.1739 68.3924 41.1739 65.8464Z" fill="#B0B0B0"/>
<path d="M38.6272 80.868C39.275 84.5195 38.6838 85.4769 38.1179 87.7422L39.4761 87.4027C39.4761 87.4027 39.9006 86.2995 40.325 85.8751C40.7495 85.4508 41.8531 85.4508 41.8531 85.4508C39.9098 83.6455 39.5253 82.6494 38.6272 80.868Z" fill="#B0B0B0"/>
<path d="M39.1366 87.9968C37.5024 88.9433 37.3863 89.5616 36.8445 90.6277C37.4221 93.3537 37.6821 95.086 37.8632 99.1145C38.0921 101.396 38.6446 102.506 39.4761 104.546C39.4761 104.546 42.6171 103.528 43.1264 100.387C43.6358 97.2474 39.1366 87.9968 39.1366 87.9968Z" fill="#B0B0B0"/>
<path d="M41.0042 86.1297C40.1553 86.3843 40.0704 87.7422 40.0704 87.7422C41.4859 91.1896 42.3119 91.1676 43.6358 100.048C44.4212 101.609 46.4844 102.524 46.6918 101.83C46.8616 97.1625 43.1264 86.8935 43.1264 86.8935C43.1264 86.8935 41.8531 85.8751 41.0042 86.1297Z" fill="#B0B0B0"/>
<path d="M39.4761 105.14C41.5495 104.674 42.4117 103.618 43.6358 100.897C44.4498 101.925 44.959 102.46 46.6918 102.764C45.6543 109.203 45.5135 113.013 45.8429 120.077L46.4371 120.246C46.0122 114.344 45.8366 111.078 47.0314 106.328C47.3903 115.603 49.0165 124.234 45.8429 124.999C43.6583 124.693 42.9663 123.052 41.938 119.568C41.6551 116.804 41.7495 115.495 43.1264 114.306C43.8584 115.771 44.06 117.207 44.3149 120.077C44.3828 120.348 44.6827 120.19 44.8242 120.077C43.8564 111.883 42.0444 109.963 39.4761 105.14Z" fill="#B0B0B0"/>
<path d="M12.9904 74.418V67.2043V59.9906C12.9904 59.9906 14.6599 64.4434 14.6033 67.0346C14.5467 69.6258 13.1643 74.5501 12.9904 74.418Z" fill="#B0B0B0"/>
<path d="M12.481 85.4508C17.7283 83.791 18.6394 76.6735 20.3758 64.3188L14.9429 64.5734C14.9429 64.5734 15.1976 70.1747 14.6033 71.6174C14.0091 73.0602 12.8206 75.5213 12.8206 75.5213L12.481 85.4508Z" fill="#B0B0B0"/>
<path d="M16.3011 86.3844C15.8301 85.5103 15.2903 85.3362 14.1788 85.1962C15.4215 84.0889 15.8214 84.7404 17.8291 80.3588C17.4541 82.5215 17.3159 83.7708 17.8291 86.3844C17.0531 85.9505 16.7493 86.0221 16.3011 86.3844Z" fill="#B0B0B0"/>
<path d="M27.167 61.9425C24.6605 63.8675 23.3456 63.9035 20.9701 64.3188C20.2617 68.9882 19.9332 71.5523 18.8478 75.9457C17.1773 83.6906 18.046 85.4959 19.442 88.9304L20.0363 87.7422C21.3949 78.9292 21.1131 73.8226 26.5728 66.2708L27.167 61.9425Z" fill="#B0B0B0"/>
<path d="M26.1484 69.4957C26.1484 69.4957 23.1772 76.7095 23.0074 77.3884C22.8376 78.0673 20.6978 86.1297 20.6978 86.1297C20.6978 86.1297 21.9887 77.3884 22.4981 76.37C23.0074 75.3516 26.1484 67.4589 26.1484 67.4589V69.4957Z" fill="#B0B0B0"/>
<path d="M12.2264 87.7422V86.3844C12.2264 86.3844 14.4335 85.6205 15.1126 85.8751C15.7918 86.1298 15.7918 87.4027 15.7918 87.4027L14.4335 91.0521C12.8908 94.2251 12.8905 96.2677 12.2264 99.7085C10.6457 102.227 9.78572 101.822 8.23652 102.17C8.49412 94.4927 9.95514 92.2568 12.2264 87.7422Z" fill="#B0B0B0"/>
<path d="M8.23652 103.273V102.764C9.70009 102.289 9.99018 103.08 12.5659 100.387C13.2594 102.585 13.9484 103.379 15.622 104.122L12.9055 111.081C11.3871 114.164 10.7348 116.037 10.5286 120.077H11.2077C11.1201 117.378 11.125 115.903 12.2264 114.051C13.3683 116.29 13.6888 117.598 13.4148 120.077C12.1788 123.009 11.3554 124.282 9.34009 124.999C7.77464 124.627 7.41644 123.949 7.38762 122.198L7.98185 104.122C8.58921 105.215 9.0425 105.532 8.91564 108.535L8.66097 119.568H9.34009L9.34348 119.47C9.50755 114.772 9.60049 112.11 9.34009 105.734C9.09713 104.695 8.88142 104.147 8.23652 103.273Z" fill="#B0B0B0"/>
<path d="M12.9055 100.387C13.4419 94.268 14.4528 91.7805 16.3011 87.4027L16.5558 86.8935C16.5558 86.8935 16.7255 86.6389 16.9802 86.5541C17.2349 86.4692 17.8291 86.8935 17.8291 86.8935L19.1874 89.4396C18.0502 91.9602 18.2536 97.3322 17.8291 98.5204C17.4047 99.7085 15.7918 103.697 15.7918 103.697C13.8991 103.074 13.6539 102.012 12.9055 100.387Z" fill="#B0B0B0"/>
<path d="M-4.7517 51.5887C-7.74276 54.3734 -9.0811 58.5478 -8.99621 58.6327C-8.91132 58.7176 -8.74154 58.6327 -8.74154 58.6327L-7.12862 56.8505V57.3597L-7.63796 58.8873L-8.74154 62.7912C-8.74154 62.7912 -8.99621 63.1307 -8.99621 63.2155C-8.99621 63.3004 -8.74154 63.2155 -8.74154 63.2155L-8.31709 62.9609L-7.80774 61.6879L-6.70417 59.2268C-6.70417 59.2268 -6.53439 59.1419 -6.36461 59.1419C-6.19483 59.1419 -6.19483 59.3965 -6.19483 59.3965L-6.36461 60.0754L-7.12862 64.4885C-7.12862 64.4885 -6.95884 64.828 -6.87395 64.7431C-6.78906 64.6583 -6.53439 64.1491 -6.53439 64.1491L-6.36461 63.7247L-5.17615 59.736C-5.17615 59.736 -5.00637 59.6511 -4.92147 59.736C-4.83659 59.8208 -4.92147 60.4149 -4.92147 60.4149C-4.92147 60.4149 -5.00637 64.9977 -4.92147 65.0826C-4.83659 65.1675 -4.58191 65.2523 -4.49702 65.0826C-4.41213 64.9129 -4.32724 64.1491 -4.32724 64.1491L-4.15746 62.9609L-3.90279 61.4333L-3.64812 60.4149C-3.64812 60.4149 -3.64812 60.0754 -3.47834 60.0754C-3.30856 60.0754 -3.39345 60.2452 -3.39345 60.2452L-3.22367 60.7544L-2.969 63.2155C-2.969 63.2155 -2.88411 64.0642 -2.79922 64.1491C-2.71433 64.2339 -2.54455 64.2339 -2.37477 64.1491C-2.20499 64.0642 -2.20499 63.555 -2.20499 63.555L-2.1201 62.8761C-2.17395 58.9045 -0.931632 57.1051 -1.10141 53.4558C-2.73584 53.0351 -3.49114 52.56 -4.7517 51.5887Z" fill="#B0B0B0"/>
<path d="M59.1707 51.9282C57.614 53.6328 56.8159 53.5432 55.3506 53.965C55.0583 57.8951 56.6763 62.2559 56.7089 62.8761C56.7415 63.4962 56.8045 63.767 56.9635 64.1491C56.9635 64.1491 57.1333 64.2339 57.2182 64.1491C57.3031 64.0642 57.2182 63.7247 57.2182 63.7247L57.388 62.7063V60.9241L57.5578 60.2452H57.8124C57.9822 60.33 59.1707 64.9129 59.1707 64.9129H59.5103C59.5103 64.9129 59.68 65.0826 59.8498 64.9129C60.0196 64.7431 59.1707 60.7544 59.1707 60.7544V60.2452C59.1707 60.2452 59.3405 59.9057 59.5103 59.9057C59.68 59.9057 61.8872 64.6583 62.1418 64.6583C62.3965 64.6583 62.3116 64.4037 62.3116 64.4037L60.6987 59.9057C60.6987 59.9057 60.5289 59.4814 60.6987 59.3965C60.8685 59.3116 60.9534 59.3965 60.9534 59.3965L63.4152 62.7063C63.4152 62.7063 63.7548 62.7912 63.9245 62.7063C64.0943 62.6215 63.9245 62.3669 63.9245 62.3669L61.2929 57.6143C61.2929 57.6143 60.9534 57.4445 60.9534 57.1899C60.9534 56.9353 61.2929 56.8505 61.2929 56.8505C61.2929 56.8505 63.7548 58.1235 63.9245 58.0386C64.0943 57.9538 63.9245 57.784 63.9245 57.784L59.1707 51.9282Z" fill="#B0B0B0"/>
<path d="M28.4404 49.2973C30.4347 46.5842 30.5015 44.5038 37.3539 44.375L37.6086 44.7144C38.0764 50.7261 39.581 53.7706 42.2494 59.1699L42.2775 59.2268C41.3222 60.887 41.1398 61.9946 40.8344 63.9793C33.7769 64.6402 31.75 63.1953 28.4404 60.3301V49.2973Z" fill="#B0B0B0"/>
<path d="M17.7442 44.969L16.386 51.5887L12.9904 59.2268C14.3975 61.0477 14.5694 62.1021 14.9429 63.9793C21.8919 63.8397 25.3272 63.4458 27.9311 60.3301V49.2973C26.736 47.1785 25.6976 46.3102 23.6017 44.969C20.8292 44.5384 19.5438 44.5358 17.7442 44.969Z" fill="#B0B0B0"/>
<path d="M15.7069 45.3934L17.3198 44.969L16.2162 50.146L12.9904 57.8689L14.6033 50.146L15.7069 45.3934Z" fill="#B0B0B0"/>
<path d="M37.9481 44.375H39.3064C40.1529 48.6992 40.7373 51.0843 42.0228 55.238C42.4258 56.4889 42.5239 57.2373 42.5322 58.6327C40.1244 53.2339 38.9097 50.1706 37.9481 44.375Z" fill="#B0B0B0"/>
<path d="M16.2162 33.5968C16.2162 33.5968 20.9701 38.1796 22.0737 39.2829C23.1772 40.3862 25.1297 45.1388 25.1297 45.1388C21.5086 43.6572 19.5059 43.7566 15.9616 44.7144C16.8127 40.2341 16.5995 37.8618 16.2229 33.6716M16.2162 33.5968L16.2229 33.6716M16.2162 33.5968C16.2185 33.6218 16.2207 33.6467 16.2229 33.6716M17.9989 20.1029C16.5565 20.0147 15.8545 19.842 14.6882 19.4239V17.6417C16.5703 16.6181 17.6478 16.1055 19.1025 13.9076C20.4262 16.1921 21.2018 17.4586 23.2621 19.4239C21.3996 19.8835 20.18 19.9622 18.0072 20.1024M17.9989 20.1029L18.0072 20.1024M17.9989 20.1029C18.0017 20.1027 18.0044 20.1025 18.0072 20.1024M42.2775 59.2268C41.3222 60.887 41.1398 61.9946 40.8344 63.9793C33.7769 64.6402 31.75 63.1953 28.4404 60.3301V49.2973C30.4347 46.5842 30.5015 44.5038 37.3539 44.375L37.6086 44.7144C38.0764 50.7261 39.581 53.7706 42.2494 59.1699M42.2775 59.2268L42.2494 59.1699M42.2775 59.2268C42.2681 59.2078 42.2588 59.1889 42.2494 59.1699M42.5322 17.6417L47.7954 18.9996C47.8563 21.2415 48.0617 22.4743 48.9838 24.6009C44.8632 23.3007 44.0355 21.2913 42.592 17.7869M42.5322 17.6417L42.592 17.7869M42.5322 17.6417C42.5523 17.6904 42.5722 17.7388 42.592 17.7869M41.2588 8.64578L41.2738 8.65125M41.2588 8.64578L41.2019 8.67008M41.2588 8.64578C41.2398 8.65391 41.2208 8.66201 41.2019 8.67008M41.2588 8.64578C41.2638 8.64761 41.2688 8.64943 41.2738 8.65125M20.6305 86.3844L20.6978 86.1297M20.6978 86.1297C20.6978 86.1297 22.8376 78.0673 23.0074 77.3884C23.1772 76.7095 26.1484 69.4957 26.1484 69.4957V67.4589C26.1484 67.4589 23.0074 75.3516 22.4981 76.37C21.9887 77.3884 20.6978 86.1297 20.6978 86.1297ZM9.34009 119.568H8.66097L8.91564 108.535C9.0425 105.532 8.58921 105.215 7.98185 104.122L7.38762 122.198C7.41643 123.949 7.77464 124.627 9.34009 124.999C11.3554 124.282 12.1788 123.009 13.4148 120.077C13.6888 117.598 13.3683 116.29 12.2264 114.051C11.125 115.903 11.1201 117.378 11.2077 120.077H10.5286C10.7348 116.037 11.3872 114.164 12.9055 111.081L15.622 104.122C13.9484 103.379 13.2594 102.585 12.5659 100.387C9.99018 103.08 9.70009 102.289 8.23652 102.764V103.273C8.88142 104.147 9.09713 104.695 9.34009 105.734C9.60049 112.11 9.50755 114.772 9.34348 119.47M9.34009 119.568L9.34348 119.47M9.34009 119.568C9.34122 119.535 9.34235 119.503 9.34348 119.47M41.2738 8.65125C43.2042 9.35665 44.2915 9.75399 45.4185 11.1918C47.1094 13.6236 47.5709 15.1925 47.7954 18.2358C44.6802 17.8351 42.9161 17.3665 39.7308 15.7746C38.3111 14.7399 37.6504 14.1202 37.1841 12.8043C37.8238 10.1116 39.0487 9.58895 41.2019 8.67008M15.7069 45.3934L17.3198 44.969L16.2162 50.146L12.9904 57.8689L14.6033 50.146L15.7069 45.3934ZM17.7442 44.969L16.386 51.5887L12.9904 59.2268C14.3975 61.0477 14.5694 62.1021 14.9429 63.9793C21.8919 63.8397 25.3272 63.4458 27.9311 60.3301V49.2973C26.7359 47.1785 25.6976 46.3102 23.6017 44.969C20.8292 44.5384 19.5438 44.5358 17.7442 44.969ZM21.2248 37.4158C23.1258 32.3054 23.6242 29.3245 27.4217 24.6009L27.9311 25.1101V48.2789C27.1641 46.9095 26.732 46.1491 25.7239 45.5631C24.539 41.9719 23.7421 40.0542 21.2248 37.4158ZM14.6882 20.1029L14.2637 23.4127L15.2824 26.8074C16.7697 28.3493 17.7819 28.9176 19.9514 29.2686C22.2634 28.9891 23.7672 28.0816 27.0822 24.1765L23.6017 20.1029C19.1635 20.8695 17.3535 20.7548 14.6882 20.1029ZM16.2162 8.64578L18.5932 8.13658H25.4693C26.8536 8.71462 27.4481 9.24317 27.9311 10.8523V24.1765L19.9514 14.7562L19.1025 11.5313L16.2162 8.64578ZM28.4404 10.8523C28.9506 9.65907 29.4861 9.06951 30.8174 8.13658L40.4948 8.64578C38.5746 9.1407 37.7873 9.9743 36.7597 12.2102C36.4409 14.1782 36.211 15.2676 34.8921 16.9628L28.4404 24.6009V10.8523ZM28.4404 6.7787V9.23985C28.907 8.66144 29.1903 8.34496 29.9685 7.88197C29.2045 7.6837 28.9004 7.40198 28.4404 6.7787ZM27.9311 6.7787V9.23985C27.2482 8.60474 26.8322 8.31843 26.0635 7.88197C26.9867 7.55444 27.3802 7.30559 27.9311 6.7787ZM27.9311 -3.49026V5.42082C27.2213 6.85329 26.5566 7.35637 24.7901 7.71224H19.9514C23.9047 4.91476 23.0757 3.44018 23.4319 0.753111C24.9493 -1.34884 25.6159 -2.86925 27.9311 -3.49026ZM28.4404 -3.49026V5.42082C28.7596 6.4316 29.0324 6.9775 30.5627 7.71224H35.0619C32.6659 5.81314 31.7843 4.41562 31.836 0.753111C30.7665 -1.1862 30.1526 -2.25775 28.4404 -3.49026ZM23.4319 0.074171C24.8112 -2.14749 25.4802 -3.5528 28.016 -3.99947C29.6777 -3.54696 30.591 -2.69889 32.1756 0.243906L32.5152 -0.604768C32.7187 -0.953631 32.9706 -1.11344 33.5338 -1.36858L34.0432 -2.81132V-4.67841H33.7885C33.7885 -4.67841 35.3165 -13.25 28.016 -12.9954C20.7154 -12.7408 22.3283 -4.76327 22.3283 -4.76327L21.9039 -4.67841V-2.81132C22.2276 -1.72307 22.3817 -1.11682 23.4319 0.074171ZM7.30275 19.2542C7.09376 15.8399 7.42868 14.4864 8.40632 12.5497C10.7345 10.0959 12.2515 9.28267 15.2824 8.64578C16.73 9.7706 17.7572 10.135 18.5083 12.1253C18.6428 13.4372 18.6334 14.1745 16.9802 15.52C13.0142 18.12 10.9923 18.6047 7.30275 19.2542ZM7.04807 19.6785L5.9445 24.6009C9.22215 22.938 10.8876 21.7979 12.7357 18.4055C10.5133 19.2789 9.27048 19.5922 7.04807 19.6785ZM11.1228 21.8851C12.4008 20.3333 12.8711 19.5464 13.4148 18.2358L14.2637 17.8115C14.2048 19.8348 14.1263 20.9887 13.9242 23.0732C12.9757 24.294 12.5676 25.2259 11.8868 26.9771C11.3109 25.6242 10.8813 25.1102 11.1228 21.8851ZM10.5286 22.3943C10.6364 24.4594 10.6044 25.6203 11.6322 27.6561C11.6322 27.6561 9.34013 33.4271 9.17033 33.5968C9.00053 33.7665 5.60492 33.3422 5.43516 33.2573C5.2654 33.1725 3.22801 31.0508 3.14312 30.7962C3.05823 30.5416 5.68983 25.2798 5.68983 25.2798C7.36589 24.5965 8.38533 24.0493 10.5286 22.3943ZM2.97332 31.3054L5.43516 33.9363L9.00053 34.106C7.37191 41.3939 1.36041 45.3934 -1.10141 52.7768C-1.10141 52.7768 -2.54455 52.4374 -2.969 52.2676C-3.39345 52.0979 -4.32724 50.9946 -4.32724 50.9946C-2.08328 43.2569 -1.25583 38.8843 2.97332 31.3054ZM28.4404 25.3647L29.2893 24.6009L35.9956 36.3126C32.7063 38.8418 31.4773 40.7809 30.6475 45.3934C29.5046 46.2653 29.0418 46.9147 28.4404 48.2789V25.3647ZM31.7511 27.6561L36.505 36.058L39.3064 34.2757L40.6646 26.8074C39.4513 28.0628 38.7946 28.7849 36.6748 29.3534C34.516 29.5686 33.5324 28.8477 31.7511 27.6561ZM20.7154 37.0764C22.0387 33.1365 22.7438 30.8915 24.7901 27.6561C22.6572 29.4675 21.6717 29.604 19.9514 29.6929C18.2751 29.5716 17.3232 29.4487 15.2824 27.6561L15.9615 32.833C17.6245 33.8989 18.616 34.6807 20.7154 37.0764ZM37.9481 44.375H39.3064C40.1529 48.6992 40.7373 51.0843 42.0228 55.238C42.4258 56.4889 42.5239 57.2373 42.5322 58.6327C40.1244 53.2339 38.9097 50.1706 37.9481 44.375ZM31.3267 45.1388C31.5964 41.7441 33.156 37.9809 39.3064 34.8698V43.696C32.4373 43.7608 32.8674 44.366 31.3267 45.1388ZM29.544 24.1765L33.0245 20.1029C35.7014 20.477 36.9801 21.1557 40.4948 19.7634C40.481 21.3585 40.5244 22.2245 41.2588 23.4127L41.0042 25.3647C39.6503 27.1507 38.7105 27.8985 36.7597 28.8442C34.1886 28.8408 32.66 28.1963 29.544 24.1765ZM33.5338 19.7634C35.0964 17.6815 36.4138 16.8129 36.7597 13.9076C37.8679 15.1285 38.4235 15.8413 40.1553 16.7931L40.2402 18.9996C39.5647 19.8958 39.0287 19.853 38.1179 19.9331L33.5338 19.7634ZM40.6646 16.9628L41.6833 17.3871C42.7661 20.0638 43.3791 21.0621 44.4847 22.3943C44.4266 24.3113 44.0907 25.2524 43.2113 26.8074C41.9951 24.5951 41.4964 23.334 41.0042 21.0364L40.6646 16.9628ZM43.466 27.6561C44.3203 25.9629 44.7741 25.004 44.994 23.0732C46.5592 24.5586 47.432 24.9196 48.9838 25.3647L51.6154 31.7297C50.9674 32.6094 50.5458 33.0615 49.4083 33.5968C48.2046 33.9618 47.5388 34.0254 46.3522 34.106L43.466 27.6561ZM46.6918 34.6152C46.6918 34.6152 46.1825 36.5671 46.6918 37.925C47.2012 39.2829 52.3351 46.1495 55.3506 53.1163C55.3506 53.1163 56.7089 53.1163 57.388 52.692C58.0671 52.2676 59.0009 51.3341 59.0009 51.3341C56.9776 43.9797 55.2631 39.8008 51.955 32.3238L49.8328 34.106L46.6918 34.6152ZM29.3742 62.282L29.9684 67.0346C34.6225 75.2077 35.5864 80.2216 36.2503 89.4396L36.5899 90.0336C37.8481 86.8457 39.0118 85.7045 37.7783 79.0009C36.1637 74.6143 35.5785 71.5107 35.2316 64.5734C32.9505 64.1097 31.5927 63.5929 29.3742 62.282ZM29.9684 68.1378L35.741 87.9968C35.741 87.9968 34.2129 78.7463 33.7885 77.3884C33.364 76.0305 29.9684 68.1378 29.9684 68.1378ZM35.741 64.5734H40.4948C40.7492 68.4452 40.6353 70.456 42.5322 75.3516L43.1264 85.8751C36.6389 78.461 36.4355 73.4424 35.741 64.5734ZM42.5322 59.9906C42.5322 59.9906 41.1739 63.3004 41.1739 65.8464C41.1739 68.3924 42.5322 74.0786 42.5322 74.0786V67.0346V59.9906ZM38.1179 87.7422C38.6838 85.4769 39.275 84.5195 38.6272 80.868C39.5253 82.6494 39.9098 83.6455 41.8531 85.4508C41.8531 85.4508 40.7495 85.4508 40.325 85.8751C39.9006 86.2995 39.4761 87.4027 39.4761 87.4027L38.1179 87.7422ZM36.8445 90.6277C37.3863 89.5616 37.5024 88.9433 39.1366 87.9968C39.1366 87.9968 43.6358 97.2474 43.1264 100.387C42.6171 103.528 39.4761 104.546 39.4761 104.546C38.6446 102.506 38.0921 101.396 37.8632 99.1145C37.6821 95.086 37.4221 93.3537 36.8445 90.6277ZM40.0704 87.7422C40.0704 87.7422 40.1553 86.3843 41.0042 86.1297C41.8531 85.8751 43.1264 86.8935 43.1264 86.8935C43.1264 86.8935 46.8616 97.1625 46.6918 101.83C46.4844 102.524 44.4212 101.609 43.6358 100.048C42.3119 91.1676 41.4859 91.1896 40.0704 87.7422ZM43.6358 100.897C42.4117 103.618 41.5495 104.674 39.4761 105.14C42.0444 109.963 43.8564 111.883 44.8242 120.077C44.6827 120.19 44.3828 120.348 44.3149 120.077C44.06 117.207 43.8584 115.771 43.1264 114.306C41.7495 115.495 41.6551 116.804 41.938 119.568C42.9663 123.052 43.6583 124.693 45.8429 124.999C49.0165 124.234 47.3903 115.603 47.0314 106.328C45.8366 111.078 46.0122 114.344 46.4371 120.246L45.8429 120.077C45.5135 113.013 45.6543 109.203 46.6918 102.764C44.959 102.46 44.4498 101.925 43.6358 100.897ZM12.9904 59.9906C12.9904 59.9906 14.6599 64.4434 14.6033 67.0346C14.5467 69.6258 13.1643 74.5501 12.9904 74.418V67.2043V59.9906ZM20.3758 64.3188C18.6394 76.6735 17.7283 83.791 12.481 85.4508L12.8206 75.5213C12.8206 75.5213 14.0091 73.0602 14.6033 71.6174C15.1976 70.1747 14.9429 64.5734 14.9429 64.5734L20.3758 64.3188ZM14.1788 85.1962C15.2903 85.3362 15.8301 85.5103 16.3011 86.3844C16.7493 86.0221 17.0531 85.9505 17.8291 86.3844C17.3159 83.7708 17.4541 82.5215 17.8291 80.3588C15.8214 84.7404 15.4215 84.0889 14.1788 85.1962ZM20.9701 64.3188C23.3456 63.9035 24.6605 63.8675 27.1671 61.9425L26.5728 66.2708C21.1131 73.8226 21.3949 78.9292 20.0363 87.7422L19.442 88.9304C18.046 85.496 17.1773 83.6906 18.8478 75.9457C19.9332 71.5523 20.2617 68.9882 20.9701 64.3188ZM12.2264 86.3844V87.7422C9.95514 92.2568 8.49412 94.4927 8.23652 102.17C9.78572 101.822 10.6457 102.227 12.2264 99.7085C12.8905 96.2677 12.8908 94.2251 14.4335 91.0521L15.7918 87.4027C15.7918 87.4027 15.7918 86.1298 15.1126 85.8751C14.4335 85.6205 12.2264 86.3844 12.2264 86.3844ZM16.3011 87.4027C14.4528 91.7805 13.4419 94.268 12.9055 100.387C13.6539 102.012 13.8991 103.074 15.7918 103.697C15.7918 103.697 17.4047 99.7085 17.8291 98.5204C18.2536 97.3322 18.0502 91.9602 19.1874 89.4396L17.8291 86.8935C17.8291 86.8935 17.2349 86.4692 16.9802 86.5541C16.7255 86.6389 16.5558 86.8935 16.5558 86.8935L16.3011 87.4027ZM-8.99621 58.6327C-9.0811 58.5478 -7.74276 54.3734 -4.75169 51.5887C-3.49114 52.56 -2.73584 53.0351 -1.10141 53.4558C-0.931632 57.1051 -2.17395 58.9045 -2.1201 62.8761L-2.20499 63.555C-2.20499 63.555 -2.20499 64.0642 -2.37477 64.1491C-2.54455 64.2339 -2.71433 64.2339 -2.79922 64.1491C-2.88411 64.0642 -2.969 63.2155 -2.969 63.2155L-3.22367 60.7544L-3.39345 60.2452C-3.39345 60.2452 -3.30856 60.0754 -3.47834 60.0754C-3.64812 60.0754 -3.64812 60.4149 -3.64812 60.4149L-3.90279 61.4333L-4.15746 62.9609L-4.32724 64.1491C-4.32724 64.1491 -4.41213 64.9129 -4.49702 65.0826C-4.58191 65.2523 -4.83658 65.1675 -4.92148 65.0826C-5.00637 64.9977 -4.92148 60.4149 -4.92148 60.4149C-4.92148 60.4149 -4.83658 59.8208 -4.92148 59.736C-5.00637 59.6511 -5.17615 59.736 -5.17615 59.736L-6.36461 63.7247L-6.53439 64.1491C-6.53439 64.1491 -6.78906 64.6583 -6.87395 64.7431C-6.95884 64.828 -7.12862 64.4885 -7.12862 64.4885L-6.36461 60.0754L-6.19483 59.3965C-6.19483 59.3965 -6.19483 59.1419 -6.36461 59.1419C-6.53439 59.1419 -6.70417 59.2268 -6.70417 59.2268L-7.80774 61.6879L-8.31709 62.9609L-8.74154 63.2155C-8.74154 63.2155 -8.99621 63.3004 -8.99621 63.2155C-8.99621 63.1307 -8.74154 62.7912 -8.74154 62.7912L-7.63796 58.8873L-7.12862 57.3597V56.8505L-8.74154 58.6327C-8.74154 58.6327 -8.91132 58.7176 -8.99621 58.6327ZM55.3506 53.965C56.8159 53.5431 57.614 53.6328 59.1707 51.9282L63.9245 57.784C63.9245 57.784 64.0943 57.9538 63.9245 58.0386C63.7548 58.1235 61.2929 56.8505 61.2929 56.8505C61.2929 56.8505 60.9534 56.9353 60.9534 57.1899C60.9534 57.4445 61.2929 57.6143 61.2929 57.6143L63.9245 62.3669C63.9245 62.3669 64.0943 62.6215 63.9245 62.7063C63.7548 62.7912 63.4152 62.7063 63.4152 62.7063L60.9534 59.3965C60.9534 59.3965 60.8685 59.3116 60.6987 59.3965C60.5289 59.4814 60.6987 59.9057 60.6987 59.9057L62.3116 64.4037C62.3116 64.4037 62.3965 64.6583 62.1418 64.6583C61.8872 64.6583 59.68 59.9057 59.5103 59.9057C59.3405 59.9057 59.1707 60.2452 59.1707 60.2452V60.7544C59.1707 60.7544 60.0196 64.7431 59.8498 64.9129C59.68 65.0826 59.5103 64.9129 59.5103 64.9129H59.1707C59.1707 64.9129 57.9822 60.33 57.8124 60.2452H57.5578L57.388 60.9241V62.7063L57.2182 63.7247C57.2182 63.7247 57.3031 64.0642 57.2182 64.1491C57.1333 64.2339 56.9635 64.1491 56.9635 64.1491C56.8045 63.767 56.7415 63.4962 56.7089 62.8761C56.6763 62.2559 55.0583 57.8951 55.3506 53.965Z" stroke="#1E1E1E"/>
</g>
</svg>
