<svg width="55" height="55" viewBox="0 0 55 55" fill="none" xmlns="http://www.w3.org/2000/svg">
<mask id="mask0_34714_7823" style="mask-type:alpha" maskUnits="userSpaceOnUse" x="0" y="0" width="55" height="55">
<circle cx="27.5" cy="27.5" r="27.5" fill="#303030"/>
</mask>
<g mask="url(#mask0_34714_7823)">
<path d="M16.8409 32.6287L16.8345 32.5588C16.8345 32.5588 21.3279 36.8428 22.371 37.8741C23.4141 38.9054 25.2596 43.348 25.2596 43.348C21.8369 41.9631 19.9439 42.056 16.5938 42.9514C17.3983 38.7632 17.1968 36.5457 16.8409 32.6287Z" fill="#B0B0B0"/>
<path d="M27.426 24.1495C23.8366 28.5651 23.3655 31.3516 21.5686 36.1288C23.948 38.5951 24.7013 40.3877 25.8213 43.7447C26.7741 44.2925 27.1825 45.0033 27.9075 46.2833V24.6255L27.426 24.1495Z" fill="#B0B0B0"/>
<path d="M14.989 23.0389L15.3902 19.9449C17.9095 20.5543 19.6203 20.6615 23.8153 19.9449L27.1051 23.7529C23.9718 27.4032 22.5503 28.2515 20.365 28.5128C18.3144 28.1848 17.3577 27.6535 15.9519 26.2122L14.989 23.0389Z" fill="#B0B0B0"/>
<path d="M19.0812 8.75902L16.8345 9.23501L19.5626 11.9323L20.365 14.947L27.9075 23.7529V11.2977C27.451 9.79344 26.889 9.29937 25.5805 8.75902H19.0812Z" fill="#B0B0B0"/>
<path d="M30.6356 8.75902C29.3772 9.63111 28.8711 10.1822 28.3889 11.2977V24.1495L34.487 17.0096C35.7337 15.4249 35.951 14.4066 36.2523 12.567C37.2236 10.4769 37.9678 9.69765 39.7828 9.23501L30.6356 8.75902Z" fill="#B0B0B0"/>
<path d="M28.3889 9.79034V7.4897C28.8236 8.07233 29.1111 8.33568 29.8332 8.52102C29.0977 8.95381 28.8299 9.24965 28.3889 9.79034Z" fill="#B0B0B0"/>
<path d="M27.9075 9.79034V7.4897C27.3867 7.98222 27.0148 8.21485 26.1422 8.52102C26.8688 8.92901 27.262 9.19665 27.9075 9.79034Z" fill="#B0B0B0"/>
<path d="M27.9075 6.22038V-2.10955C25.7191 -1.52904 25.0891 -0.107786 23.6548 1.85708C23.3181 4.36891 24.1017 5.74732 20.365 8.36235H24.9386C26.6083 8.02969 27.2366 7.55942 27.9075 6.22038Z" fill="#B0B0B0"/>
<path d="M28.3889 6.22038V-2.10955C30.0073 -0.957415 30.5875 0.0442505 31.5984 1.85708C31.5496 5.28073 32.3828 6.5871 34.6475 8.36235H30.3949C28.9484 7.67554 28.6906 7.16523 28.3889 6.22038Z" fill="#B0B0B0"/>
<path d="M27.9877 -2.58555C25.5909 -2.16801 24.9585 -0.85435 23.6548 1.22242C22.6621 0.1091 22.5165 -0.457609 22.2105 -1.47489V-3.22021L22.6117 -3.29954C22.6117 -3.29954 21.0872 -10.7568 27.9877 -10.9948C34.8882 -11.2328 33.4439 -3.22021 33.4439 -3.22021H33.6847V-1.47489L33.2032 -0.126234C32.6708 0.112266 32.4328 0.261648 32.2404 0.58776L31.9194 1.38109C30.4216 -1.36979 29.5584 -2.16255 27.9877 -2.58555Z" fill="#B0B0B0"/>
<path d="M19.5626 14.1536C18.1877 16.2083 17.1692 16.6874 15.3902 17.6443V19.3102C16.4926 19.701 17.1561 19.8625 18.5195 19.9449L18.5273 19.9444C20.5811 19.8134 21.7339 19.7398 23.4943 19.3102C21.5469 17.4731 20.8138 16.2892 19.5626 14.1536Z" fill="#B0B0B0"/>
<path d="M9.45255 12.8843C8.52848 14.6947 8.21191 15.9599 8.40944 19.1516C11.8968 18.5444 13.8079 18.0913 17.5567 15.6609C19.1193 14.4032 19.1281 13.7139 19.001 12.4876C18.2911 10.6271 17.3202 10.2865 15.9519 9.23501C13.087 9.83036 11.6532 10.5906 9.45255 12.8843Z" fill="#B0B0B0"/>
<path d="M7.12562 24.1495L8.16873 19.5482C10.2694 19.4676 11.444 19.1747 13.5447 18.3583C11.7978 21.5294 10.2237 22.5951 7.12562 24.1495Z" fill="#F9FAFB"/>
<path d="M14.1866 18.1996C13.6727 19.4247 13.2281 20.1603 12.0202 21.6109C11.7919 24.6257 12.198 25.1061 12.7423 26.3708C13.3859 24.7338 13.7716 23.8627 14.6681 22.7215C14.8591 20.773 14.9333 19.6944 14.989 17.8029L14.1866 18.1996Z" fill="#F9FAFB"/>
<path d="M12.5016 27.0055C11.5302 25.1025 11.5604 24.0173 11.4585 22.0869C9.43271 23.634 8.46913 24.1454 6.88491 24.7842C6.88491 24.7842 4.39751 29.7028 4.47775 29.9408C4.55799 30.1788 6.48373 32.1621 6.64419 32.2415C6.80465 32.3208 10.0142 32.7175 10.1747 32.5588C10.3352 32.4001 12.5016 27.0055 12.5016 27.0055Z" fill="#F9FAFB"/>
<path d="M6.64419 32.8761L4.31725 30.4168C0.319836 37.5015 -0.462276 41.5889 -2.58328 48.822C-2.58328 48.822 -1.70066 49.8533 -1.29946 50.012C-0.898271 50.1706 0.465788 50.488 0.465788 50.488C2.79271 43.586 8.47482 39.8474 10.0142 33.0348L6.64419 32.8761Z" fill="#B0B0B0"/>
<path d="M29.1913 24.1495L28.3889 24.8635V46.2833C28.9574 45.0081 29.3948 44.4011 30.4751 43.586C31.2594 39.2743 32.4211 37.4617 35.5301 35.0974L29.1913 24.1495Z" fill="#B0B0B0"/>
<path d="M36.0116 34.8594L31.5182 27.0055C33.2019 28.1194 34.1316 28.7933 36.172 28.5922C38.1757 28.0607 38.7964 27.3857 39.9433 26.2122L38.6594 33.1935L36.0116 34.8594Z" fill="#B0B0B0"/>
<path d="M24.9386 27.0055C23.0044 30.03 22.338 32.1285 21.0872 35.8114C19.1028 33.572 18.1656 32.8412 16.5938 31.8448L15.9519 27.0055C17.8808 28.6812 18.7806 28.7961 20.365 28.9095C21.9911 28.8264 22.9226 28.6988 24.9386 27.0055Z" fill="#B0B0B0"/>
<path d="M38.6594 33.7488C32.8461 36.6569 31.372 40.1747 31.117 43.348C32.5733 42.6256 32.1668 42.06 38.6594 41.9994V33.7488Z" fill="#B0B0B0"/>
<path d="M32.7218 19.9449L29.432 23.7529C32.3772 27.5105 33.8221 28.1129 36.2523 28.1162C38.0962 27.2321 38.9846 26.5331 40.2642 24.8635L40.5049 23.0389C39.8108 21.9282 39.7698 21.1186 39.7828 19.6276C36.4606 20.929 35.252 20.2946 32.7218 19.9449Z" fill="#B0B0B0"/>
<path d="M36.2523 14.1536C35.9254 16.8695 34.6802 17.6814 33.2032 19.6276L37.5361 19.7862C38.397 19.7114 38.9037 19.7514 39.5421 18.9136L39.4618 16.8509C37.825 15.9612 37.2998 15.2949 36.2523 14.1536Z" fill="#B0B0B0"/>
<path d="M40.9061 17.4063L39.9433 17.0096L40.2642 20.8176C40.7295 22.9653 41.2009 24.1441 42.3504 26.2122C43.1816 24.7586 43.4991 23.8789 43.554 22.0869C42.5091 20.8415 41.9296 19.9084 40.9061 17.4063Z" fill="#F9FAFB"/>
<path d="M41.7651 17.78L41.7085 17.6443L46.6833 18.9136C46.7409 21.0093 46.9351 22.1616 47.8067 24.1495C43.9118 22.9341 43.1295 21.0558 41.7651 17.78Z" fill="#F9FAFB"/>
<path d="M40.5191 9.24013L40.5049 9.23501L40.4511 9.25773C38.4159 10.1167 37.2581 10.6053 36.6535 13.1223C37.0942 14.3524 37.7187 14.9317 39.0606 15.8989C42.0714 17.3869 43.7389 17.8251 46.6833 18.1996C46.4712 15.3548 46.0349 13.8882 44.4366 11.615C43.3715 10.2709 42.3437 9.89952 40.5191 9.24013Z" fill="#B0B0B0"/>
<path d="M44.0354 22.7215C43.8276 24.5264 43.3986 25.4227 42.5911 27.0055L45.3193 33.0348C46.4408 32.9594 47.0701 32.9 48.2079 32.5588C49.283 32.0584 49.6816 31.6358 50.2941 30.8135L47.8067 24.8635C46.3398 24.4475 45.5149 24.11 44.0354 22.7215Z" fill="#F9FAFB"/>
<path d="M45.6402 36.6048C45.1588 35.3354 45.6402 33.5108 45.6402 33.5108L48.6091 33.0348L50.615 31.3688C53.7419 38.3582 55.3624 42.2645 57.2748 49.1393C57.2748 49.1393 56.3922 50.012 55.7503 50.4086C55.1084 50.8053 53.8246 50.8053 53.8246 50.8053C50.9743 44.2928 46.1216 37.8741 45.6402 36.6048Z" fill="#B0B0B0"/>
<path d="M29.8332 63.8158L29.2715 59.3732C31.3684 60.5986 32.6519 61.0817 34.808 61.5152C35.1359 68 35.689 70.9012 37.2151 75.0017C38.381 81.2682 37.2811 82.335 36.0918 85.315L35.7708 84.7596C35.1433 76.1428 34.2323 71.4559 29.8332 63.8158Z" fill="#B0B0B0"/>
<path d="M35.2894 83.411L29.8332 64.8472C29.8332 64.8472 33.0427 72.2251 33.4439 73.4944C33.8451 74.7637 35.2894 83.411 35.2894 83.411Z" fill="#B0B0B0"/>
<path d="M39.7828 61.5152H35.2894C35.9459 69.8057 36.1382 74.497 42.2702 81.4277L41.7085 71.5904C39.9156 67.0141 40.0232 65.1345 39.7828 61.5152Z" fill="#B0B0B0"/>
<path d="M40.4247 62.7052C40.4247 60.3252 41.7085 57.2312 41.7085 57.2312V63.8158V70.4004C41.7085 70.4004 40.4247 65.0852 40.4247 62.7052Z" fill="#B0B0B0"/>
<path d="M38.0175 76.747C38.6298 80.1604 38.071 81.0554 37.5361 83.173L38.8199 82.8557C38.8199 82.8557 39.2211 81.8243 39.6223 81.4277C40.0235 81.031 41.0666 81.031 41.0666 81.031C39.2298 79.3434 38.8664 78.4123 38.0175 76.747Z" fill="#B0B0B0"/>
<path d="M38.499 83.411C36.9543 84.2957 36.8446 84.8737 36.3325 85.8703C36.8784 88.4185 37.1242 90.0378 37.2954 93.8036C37.5117 95.9367 38.0339 96.9737 38.8199 98.8808C38.8199 98.8808 41.7887 97.9288 42.2702 94.9935C42.7516 92.0582 38.499 83.411 38.499 83.411Z" fill="#B0B0B0"/>
<path d="M40.2642 81.6657C39.4618 81.9037 39.3816 83.173 39.3816 83.173C40.7196 86.3955 41.5003 86.3749 42.7516 94.6762C43.494 96.1358 45.4442 96.9904 45.6402 96.3422C45.8007 91.9789 42.2702 82.3797 42.2702 82.3797C42.2702 82.3797 41.0666 81.4277 40.2642 81.6657Z" fill="#B0B0B0"/>
<path d="M38.8199 99.4362C40.7797 99.0001 41.5946 98.0132 42.7516 95.4695C43.5211 96.4304 44.0024 96.931 45.6402 97.2149C44.6595 103.234 44.5265 106.796 44.8378 113.399L45.3995 113.557C44.9978 108.039 44.8319 104.987 45.9612 100.547C46.3005 109.217 47.8375 117.285 44.8378 118C42.7729 117.714 42.1188 116.18 41.1468 112.923C40.8795 110.34 40.9687 109.116 42.2702 108.004C42.9621 109.373 43.1526 110.716 43.3935 113.399C43.4577 113.653 43.7412 113.505 43.875 113.399C42.9602 105.74 41.2474 103.945 38.8199 99.4362Z" fill="#B0B0B0"/>
<path d="M13.7854 70.7178V63.9745V57.2312C13.7854 57.2312 15.3635 61.3936 15.31 63.8158C15.2565 66.238 13.9498 70.8412 13.7854 70.7178Z" fill="#B0B0B0"/>
<path d="M13.304 81.031C18.2637 79.4795 19.1249 72.8261 20.7662 61.2772L15.6309 61.5152C15.6309 61.5152 15.8717 66.7511 15.31 68.0998C14.7483 69.4485 13.6249 71.7491 13.6249 71.7491L13.304 81.031Z" fill="#B0B0B0"/>
<path d="M16.9147 81.9037C16.4695 81.0866 15.9593 80.9239 14.9088 80.793C16.0834 79.7579 16.4613 80.3669 18.359 76.2711C18.0046 78.2928 17.874 79.4606 18.359 81.9037C17.6255 81.4981 17.3384 81.565 16.9147 81.9037Z" fill="#B0B0B0"/>
<path d="M27.1853 59.0559C24.8161 60.8553 23.5732 60.889 21.3279 61.2772C20.6583 65.6421 20.3478 68.0389 19.3219 72.1458C17.743 79.3856 18.564 81.0732 19.8836 84.2837L20.4452 83.173C21.7295 74.9347 21.4631 70.1612 26.6236 63.1018L27.1853 59.0559Z" fill="#B0B0B0"/>
<path d="M26.2224 66.1165C26.2224 66.1165 23.4141 72.8598 23.2536 73.4944C23.0931 74.1291 21.0705 81.6657 21.0705 81.6657C21.0705 81.6657 22.2907 73.4944 22.7722 72.5424C23.2536 71.5904 26.2224 64.2125 26.2224 64.2125V66.1165Z" fill="#B0B0B0"/>
<path d="M13.0633 83.173V81.9037C13.0633 81.9037 15.1495 81.1897 15.7914 81.4277C16.4333 81.6657 16.4333 82.8557 16.4333 82.8557L15.1495 86.267C13.6913 89.2331 13.691 91.1424 13.0633 94.3589C11.5692 96.7132 10.7564 96.3346 9.29205 96.6595C9.53554 89.4832 10.9165 87.3931 13.0633 83.173Z" fill="#B0B0B0"/>
<path d="M9.29205 97.6909V97.2149C10.6754 96.7711 10.9496 97.5107 13.3842 94.9935C14.0397 97.048 14.6909 97.7897 16.2728 98.4842L13.7052 104.989C12.27 107.871 11.6535 109.622 11.4585 113.399H12.1004C12.0176 110.876 12.0223 109.497 13.0633 107.766C14.1426 109.859 14.4456 111.082 14.1866 113.399C13.0183 116.14 12.24 117.33 10.3352 118C8.85549 117.652 8.5169 117.019 8.48966 115.382L9.05133 98.4842C9.62541 99.5064 10.0539 99.8027 9.93396 102.609L9.69325 112.923H10.3352L10.3384 112.832C10.4934 108.44 10.5813 105.951 10.3352 99.9915C10.1055 99.02 9.90162 98.508 9.29205 97.6909Z" fill="#B0B0B0"/>
<path d="M13.7052 94.9935C14.2122 89.2732 15.1677 86.9479 16.9147 82.8557L17.1555 82.3797C17.1555 82.3797 17.3159 82.1417 17.5566 82.0623C17.7974 81.983 18.359 82.3797 18.359 82.3797L19.6429 84.7596C18.568 87.1159 18.7602 92.1376 18.359 93.2482C17.9578 94.3589 16.4333 98.0875 16.4333 98.0875C14.6444 97.5053 14.4126 96.5118 13.7052 94.9935Z" fill="#B0B0B0"/>
<path d="M-2.98448 49.3773C-5.81165 51.9804 -7.07666 55.8826 -6.99642 55.9619C-6.91618 56.0412 -6.7557 55.9619 -6.7557 55.9619L-5.23116 54.2959V54.7719L-5.7126 56.1999L-6.7557 59.8492C-6.7557 59.8492 -6.99642 60.1665 -6.99642 60.2459C-6.99642 60.3252 -6.7557 60.2459 -6.7557 60.2459L-6.35451 60.0079L-5.87307 58.8179L-4.82997 56.5172C-4.82997 56.5172 -4.66949 56.4379 -4.50901 56.4379C-4.34854 56.4379 -4.34854 56.6759 -4.34854 56.6759L-4.50901 57.3106L-5.23116 61.4359C-5.23116 61.4359 -5.07069 61.7532 -4.99045 61.6739C-4.91021 61.5945 -4.66949 61.1185 -4.66949 61.1185L-4.50901 60.7219L-3.38567 56.9932C-3.38567 56.9932 -3.22519 56.9139 -3.14496 56.9932C-3.06472 57.0726 -3.14496 57.6279 -3.14496 57.6279C-3.14496 57.6279 -3.22519 61.9118 -3.14496 61.9912C-3.06472 62.0705 -2.824 62.1498 -2.74376 61.9912C-2.66352 61.8325 -2.58328 61.1185 -2.58328 61.1185L-2.42281 60.0079L-2.18209 58.5799L-1.94137 57.6279C-1.94137 57.6279 -1.94137 57.3106 -1.7809 57.3106C-1.62042 57.3106 -1.70066 57.4692 -1.70066 57.4692L-1.54018 57.9452L-1.29946 60.2459C-1.29946 60.2459 -1.21923 61.0392 -1.13899 61.1185C-1.05875 61.1979 -0.898271 61.1979 -0.737793 61.1185C-0.577316 61.0392 -0.577316 60.5632 -0.577316 60.5632L-0.497077 59.9285C-0.547984 56.216 0.626266 54.5339 0.465788 51.1226C-1.07909 50.7294 -1.793 50.2852 -2.98448 49.3773Z" fill="#B0B0B0"/>
<path d="M57.4353 49.6946C55.964 51.2881 55.2096 51.2043 53.8246 51.5986C53.5483 55.2724 55.0776 59.3488 55.1084 59.9285C55.1392 60.5083 55.1988 60.7614 55.3491 61.1185C55.3491 61.1185 55.5096 61.1979 55.5898 61.1185C55.6701 61.0392 55.5898 60.7219 55.5898 60.7219L55.7503 59.7699V58.1039L55.9108 57.4692H56.1515C56.312 57.5486 57.4353 61.8325 57.4353 61.8325H57.7563C57.7563 61.8325 57.9167 61.9912 58.0772 61.8325C58.2377 61.6739 57.4353 57.9452 57.4353 57.9452V57.4692C57.4353 57.4692 57.5958 57.1519 57.7563 57.1519C57.9167 57.1519 60.003 61.5945 60.2437 61.5945C60.4844 61.5945 60.4041 61.3565 60.4041 61.3565L58.8796 57.1519C58.8796 57.1519 58.7191 56.7552 58.8796 56.6759C59.0401 56.5966 59.1203 56.6759 59.1203 56.6759L61.4472 59.7699C61.4472 59.7699 61.7682 59.8492 61.9287 59.7699C62.0892 59.6905 61.9287 59.4525 61.9287 59.4525L59.4413 55.0099C59.4413 55.0099 59.1203 54.8512 59.1203 54.6133C59.1203 54.3753 59.4413 54.2959 59.4413 54.2959C59.4413 54.2959 61.7682 55.4859 61.9287 55.4066C62.0892 55.3272 61.9287 55.1686 61.9287 55.1686L57.4353 49.6946Z" fill="#B0B0B0"/>
<path d="M28.3889 47.2353C30.2738 44.6991 30.3371 42.7544 36.8139 42.634L37.0547 42.9514C37.4969 48.571 38.9191 51.4169 41.4412 56.4641L41.4678 56.5173C40.5648 58.0692 40.3924 59.1045 40.1037 60.9599C33.433 61.5776 31.5172 60.2269 28.3889 57.5486V47.2353Z" fill="#B0B0B0"/>
<path d="M18.2788 43.1894L16.995 49.3773L13.7854 56.5173C15.1154 58.2195 15.2779 59.205 15.6309 60.9599C22.1992 60.8293 25.4462 60.4611 27.9075 57.5486V47.2353C26.7778 45.2547 25.7964 44.4431 23.8153 43.1894C21.1948 42.7868 19.9798 42.7843 18.2788 43.1894Z" fill="#B0B0B0"/>
<path d="M16.3531 43.586L17.8776 43.1894L16.8345 48.0287L13.7854 55.2479L15.31 48.0287L16.3531 43.586Z" fill="#B0B0B0"/>
<path d="M37.3756 42.634H38.6594C39.4596 46.6762 40.012 48.9058 41.2271 52.7886C41.608 53.9579 41.7007 54.6576 41.7085 55.9619C39.4327 50.9152 38.2845 48.0517 37.3756 42.634Z" fill="#B0B0B0"/>
<path d="M16.8345 32.5588C16.8345 32.5588 21.3279 36.8428 22.371 37.8741C23.4141 38.9054 25.2596 43.348 25.2596 43.348C21.8369 41.9631 19.9439 42.056 16.5938 42.9514C17.3983 38.7632 17.1968 36.5457 16.8409 32.6287M16.8345 32.5588L16.8409 32.6287M16.8345 32.5588C16.8366 32.5822 16.8388 32.6055 16.8409 32.6287M18.5195 19.9449C17.1561 19.8625 16.4926 19.701 15.3902 19.3102V17.6443C17.1692 16.6874 18.1877 16.2083 19.5626 14.1536C20.8138 16.2892 21.5469 17.4731 23.4943 19.3102C21.7339 19.7398 20.5811 19.8134 18.5273 19.9444M18.5195 19.9449L18.5273 19.9444M18.5195 19.9449C18.5221 19.9447 18.5247 19.9446 18.5273 19.9444M41.4678 56.5172C40.5648 58.0692 40.3924 59.1045 40.1037 60.9599C33.433 61.5776 31.5172 60.2269 28.3889 57.5486V47.2353C30.2739 44.6991 30.3371 42.7544 36.8139 42.634L37.0547 42.9514C37.4969 48.571 38.9191 51.4169 41.4412 56.4641M41.4678 56.5172L41.4412 56.4641M41.4678 56.5172C41.4589 56.4995 41.4501 56.4818 41.4412 56.4641M41.7085 17.6443L46.6833 18.9136C46.7409 21.0093 46.9351 22.1616 47.8067 24.1495C43.9118 22.9341 43.1295 21.0558 41.7651 17.78M41.7085 17.6443L41.7651 17.78M41.7085 17.6443C41.7275 17.6898 41.7463 17.735 41.7651 17.78M40.5049 9.23501L40.5191 9.24013M40.5049 9.23501L40.4511 9.25773M40.5049 9.23501C40.4869 9.24261 40.469 9.25018 40.4511 9.25773M40.5049 9.23501C40.5097 9.23672 40.5144 9.23842 40.5191 9.24013M21.0069 81.9037L21.0705 81.6657M21.0705 81.6657C21.0705 81.6657 23.0931 74.1291 23.2536 73.4944C23.4141 72.8598 26.2224 66.1165 26.2224 66.1165V64.2125C26.2224 64.2125 23.2536 71.5904 22.7722 72.5424C22.2907 73.4944 21.0705 81.6657 21.0705 81.6657ZM10.3352 112.923H9.69325L9.93396 102.609C10.0539 99.8027 9.62541 99.5064 9.05134 98.4842L8.48966 115.382C8.5169 117.019 8.85549 117.652 10.3352 118C12.24 117.33 13.0183 116.14 14.1866 113.399C14.4456 111.082 14.1426 109.859 13.0633 107.766C12.0223 109.497 12.0176 110.876 12.1004 113.399H11.4585C11.6535 109.622 12.27 107.871 13.7052 104.989L16.2728 98.4842C14.6909 97.7897 14.0397 97.048 13.3842 94.9935C10.9496 97.5107 10.6754 96.7711 9.29205 97.2149V97.6909C9.90162 98.508 10.1055 99.02 10.3352 99.9915C10.5813 105.951 10.4934 108.44 10.3384 112.832M10.3352 112.923L10.3384 112.832M10.3352 112.923C10.3362 112.892 10.3373 112.862 10.3384 112.832M40.5191 9.24013C42.3437 9.89953 43.3715 10.2709 44.4366 11.615C46.0349 13.8882 46.4712 15.3548 46.6833 18.1996C43.7389 17.8251 42.0714 17.3869 39.0606 15.8989C37.7187 14.9317 37.0942 14.3524 36.6535 13.1223C37.2581 10.6053 38.4159 10.1167 40.4511 9.25773M16.3531 43.586L17.8776 43.1894L16.8345 48.0287L13.7854 55.2479L15.31 48.0287L16.3531 43.586ZM18.2788 43.1894L16.995 49.3773L13.7854 56.5172C15.1154 58.2195 15.2779 59.205 15.6309 60.9599C22.1992 60.8293 25.4462 60.4611 27.9075 57.5486V47.2353C26.7778 45.2547 25.7964 44.4431 23.8153 43.1894C21.1948 42.7868 19.9798 42.7843 18.2788 43.1894ZM21.5686 36.1288C23.3655 31.3516 23.8366 28.5651 27.426 24.1495L27.9075 24.6255V46.2833C27.1825 45.0033 26.7741 44.2925 25.8213 43.7447C24.7013 40.3877 23.948 38.5951 21.5686 36.1288ZM15.3902 19.9449L14.989 23.0389L15.9519 26.2122C17.3577 27.6535 18.3144 28.1848 20.365 28.5128C22.5503 28.2515 23.9718 27.4032 27.1051 23.7529L23.8153 19.9449C19.6203 20.6615 17.9095 20.5543 15.3902 19.9449ZM16.8345 9.23501L19.0812 8.75902H25.5805C26.889 9.29937 27.451 9.79344 27.9075 11.2977V23.7529L20.365 14.947L19.5626 11.9323L16.8345 9.23501ZM28.3889 11.2977C28.8711 10.1822 29.3772 9.63111 30.6356 8.75902L39.7828 9.23501C37.9678 9.69765 37.2236 10.4769 36.2523 12.567C35.951 14.4066 35.7337 15.4249 34.487 17.0096L28.3889 24.1495V11.2977ZM28.3889 7.4897V9.79034C28.8299 9.24965 29.0977 8.95381 29.8332 8.52102C29.1111 8.33568 28.8236 8.07233 28.3889 7.4897ZM27.9075 7.4897V9.79034C27.262 9.19665 26.8688 8.92902 26.1422 8.52102C27.0148 8.21485 27.3867 7.98222 27.9075 7.4897ZM27.9075 -2.10955V6.22038C27.2366 7.55942 26.6083 8.02969 24.9386 8.36235H20.365C24.1017 5.74732 23.3181 4.3689 23.6548 1.85708C25.0891 -0.107786 25.7191 -1.52904 27.9075 -2.10955ZM28.3889 -2.10955V6.22038C28.6906 7.16523 28.9484 7.67554 30.3949 8.36235H34.6475C32.3828 6.5871 31.5496 5.28073 31.5984 1.85708C30.5875 0.0442503 30.0073 -0.957414 28.3889 -2.10955ZM23.6548 1.22242C24.9585 -0.85435 25.5909 -2.16801 27.9877 -2.58555C29.5584 -2.16255 30.4216 -1.36979 31.9194 1.38109L32.2404 0.58776C32.4328 0.261648 32.6708 0.112266 33.2032 -0.126234L33.6847 -1.47489V-3.22021H33.4439C33.4439 -3.22021 34.8882 -11.2328 27.9877 -10.9948C21.0872 -10.7568 22.6117 -3.29954 22.6117 -3.29954L22.2105 -3.22021V-1.47489C22.5165 -0.457609 22.6621 0.1091 23.6548 1.22242ZM8.40945 19.1516C8.21191 15.9599 8.52848 14.6947 9.45255 12.8843C11.6532 10.5906 13.087 9.83036 15.9519 9.23501C17.3202 10.2865 18.2911 10.6271 19.001 12.4876C19.1281 13.7139 19.1193 14.4032 17.5567 15.6609C13.8079 18.0913 11.8968 18.5444 8.40945 19.1516ZM8.16873 19.5482L7.12562 24.1495C10.2237 22.5951 11.7979 21.5294 13.5447 18.3583C11.444 19.1747 10.2694 19.4676 8.16873 19.5482ZM12.0202 21.6109C13.2281 20.1603 13.6727 19.4247 14.1866 18.1996L14.989 17.8029C14.9333 19.6944 14.8591 20.773 14.6681 22.7215C13.7716 23.8627 13.3859 24.7338 12.7423 26.3708C12.198 25.1061 11.7919 24.6257 12.0202 21.6109ZM11.4585 22.0869C11.5604 24.0173 11.5302 25.1025 12.5016 27.0055C12.5016 27.0055 10.3352 32.4001 10.1747 32.5588C10.0142 32.7175 6.80465 32.3208 6.64419 32.2415C6.48373 32.1621 4.55799 30.1788 4.47775 29.9408C4.39751 29.7028 6.88491 24.7842 6.88491 24.7842C8.46913 24.1454 9.43271 23.634 11.4585 22.0869ZM4.31725 30.4168L6.64419 32.8761L10.0142 33.0348C8.47482 39.8474 2.79271 43.586 0.465788 50.488C0.465788 50.488 -0.898271 50.1706 -1.29946 50.012C-1.70066 49.8533 -2.58328 48.822 -2.58328 48.822C-0.462276 41.5889 0.319836 37.5015 4.31725 30.4168ZM28.3889 24.8635L29.1913 24.1495L35.5301 35.0974C32.4211 37.4617 31.2594 39.2743 30.4751 43.586C29.3948 44.4011 28.9574 45.0081 28.3889 46.2833V24.8635ZM31.5182 27.0055L36.0116 34.8594L38.6594 33.1935L39.9433 26.2122C38.7964 27.3857 38.1757 28.0607 36.172 28.5922C34.1316 28.7933 33.2019 28.1194 31.5182 27.0055ZM21.0872 35.8114C22.338 32.1285 23.0044 30.03 24.9386 27.0055C22.9226 28.6988 21.9911 28.8264 20.365 28.9095C18.7806 28.7961 17.8808 28.6812 15.9519 27.0055L16.5938 31.8448C18.1656 32.8412 19.1028 33.572 21.0872 35.8114ZM37.3756 42.634H38.6594C39.4596 46.6762 40.012 48.9058 41.2271 52.7886C41.608 53.9579 41.7007 54.6576 41.7085 55.9619C39.4327 50.9152 38.2845 48.0517 37.3756 42.634ZM31.117 43.348C31.372 40.1747 32.8461 36.6569 38.6594 33.7488V41.9994C32.1668 42.06 32.5733 42.6256 31.117 43.348ZM29.432 23.7529L32.7218 19.9449C35.252 20.2946 36.4606 20.929 39.7828 19.6276C39.7698 21.1186 39.8108 21.9282 40.5049 23.0389L40.2642 24.8635C38.9846 26.5331 38.0962 27.2321 36.2523 28.1162C33.8221 28.1129 32.3772 27.5105 29.432 23.7529ZM33.2032 19.6276C34.6802 17.6814 35.9254 16.8695 36.2523 14.1536C37.2998 15.2949 37.825 15.9612 39.4618 16.8509L39.5421 18.9136C38.9037 19.7514 38.397 19.7114 37.5361 19.7862L33.2032 19.6276ZM39.9433 17.0096L40.9061 17.4063C41.9296 19.9084 42.5091 20.8415 43.554 22.0869C43.4991 23.8789 43.1816 24.7586 42.3504 26.2122C41.2009 24.1441 40.7295 22.9653 40.2642 20.8176L39.9433 17.0096ZM42.5911 27.0055C43.3986 25.4227 43.8276 24.5264 44.0354 22.7215C45.5149 24.11 46.3398 24.4475 47.8067 24.8635L50.2941 30.8135C49.6816 31.6358 49.283 32.0584 48.2079 32.5588C47.0701 32.9 46.4408 32.9594 45.3193 33.0348L42.5911 27.0055ZM45.6402 33.5108C45.6402 33.5108 45.1588 35.3354 45.6402 36.6047C46.1216 37.8741 50.9743 44.2928 53.8246 50.8053C53.8246 50.8053 55.1084 50.8053 55.7503 50.4086C56.3922 50.012 57.2748 49.1393 57.2748 49.1393C55.3624 42.2645 53.7419 38.3582 50.615 31.3688L48.6091 33.0348L45.6402 33.5108ZM29.2715 59.3732L29.8332 63.8158C34.2323 71.4559 35.1433 76.1428 35.7708 84.7596L36.0918 85.315C37.2811 82.335 38.381 81.2682 37.2151 75.0017C35.689 70.9012 35.1359 68 34.808 61.5152C32.6519 61.0817 31.3684 60.5986 29.2715 59.3732ZM29.8332 64.8472L35.2894 83.411C35.2894 83.411 33.8451 74.7637 33.4439 73.4944C33.0427 72.2251 29.8332 64.8472 29.8332 64.8472ZM35.2894 61.5152H39.7828C40.0232 65.1345 39.9156 67.0141 41.7085 71.5904L42.2702 81.4277C36.1382 74.497 35.9459 69.8057 35.2894 61.5152ZM41.7085 57.2312C41.7085 57.2312 40.4247 60.3252 40.4247 62.7052C40.4247 65.0852 41.7085 70.4004 41.7085 70.4004V63.8158V57.2312ZM37.5361 83.173C38.071 81.0554 38.6298 80.1604 38.0175 76.747C38.8664 78.4123 39.2298 79.3434 41.0666 81.031C41.0666 81.031 40.0235 81.031 39.6223 81.4277C39.2211 81.8243 38.8199 82.8557 38.8199 82.8557L37.5361 83.173ZM36.3325 85.8703C36.8446 84.8737 36.9543 84.2957 38.499 83.411C38.499 83.411 42.7516 92.0582 42.2702 94.9935C41.7887 97.9288 38.8199 98.8808 38.8199 98.8808C38.0339 96.9737 37.5117 95.9367 37.2954 93.8036C37.1242 90.0378 36.8785 88.4185 36.3325 85.8703ZM39.3816 83.173C39.3816 83.173 39.4618 81.9037 40.2642 81.6657C41.0666 81.4277 42.2702 82.3797 42.2702 82.3797C42.2702 82.3797 45.8007 91.9789 45.6402 96.3422C45.4442 96.9904 43.494 96.1358 42.7516 94.6762C41.5003 86.3749 40.7196 86.3955 39.3816 83.173ZM42.7516 95.4695C41.5946 98.0132 40.7797 99.0001 38.8199 99.4362C41.2474 103.945 42.9602 105.74 43.875 113.399C43.7412 113.504 43.4577 113.653 43.3935 113.399C43.1526 110.716 42.9621 109.373 42.2702 108.004C40.9687 109.116 40.8795 110.34 41.1468 112.923C42.1188 116.18 42.7729 117.714 44.8378 118C47.8375 117.285 46.3005 109.217 45.9612 100.547C44.8319 104.987 44.9978 108.039 45.3995 113.557L44.8378 113.399C44.5265 106.796 44.6595 103.234 45.6402 97.2149C44.0024 96.931 43.5211 96.4304 42.7516 95.4695ZM13.7854 57.2312C13.7854 57.2312 15.3635 61.3936 15.31 63.8158C15.2565 66.238 13.9498 70.8412 13.7854 70.7178V63.9745V57.2312ZM20.7662 61.2772C19.1249 72.8261 18.2637 79.4795 13.304 81.031L13.6249 71.7491C13.6249 71.7491 14.7483 69.4485 15.31 68.0998C15.8717 66.7511 15.6309 61.5152 15.6309 61.5152L20.7662 61.2772ZM14.9088 80.793C15.9593 80.9239 16.4695 81.0866 16.9147 81.9037C17.3384 81.565 17.6255 81.4981 18.359 81.9037C17.874 79.4606 18.0046 78.2928 18.359 76.2711C16.4613 80.3669 16.0834 79.7579 14.9088 80.793ZM21.3279 61.2772C23.5732 60.889 24.8161 60.8553 27.1853 59.0559L26.6236 63.1018C21.4631 70.1612 21.7295 74.9347 20.4452 83.173L19.8836 84.2837C18.564 81.0732 17.743 79.3856 19.3219 72.1458C20.3478 68.0389 20.6583 65.6421 21.3279 61.2772ZM13.0633 81.9037V83.173C10.9165 87.3931 9.53554 89.4832 9.29205 96.6595C10.7564 96.3346 11.5692 96.7132 13.0633 94.3589C13.691 91.1424 13.6913 89.2331 15.1495 86.267L16.4333 82.8557C16.4333 82.8557 16.4333 81.6657 15.7914 81.4277C15.1495 81.1897 13.0633 81.9037 13.0633 81.9037ZM16.9147 82.8557C15.1677 86.9479 14.2122 89.2732 13.7052 94.9935C14.4126 96.5118 14.6444 97.5053 16.4333 98.0875C16.4333 98.0875 17.9578 94.3589 18.359 93.2482C18.7602 92.1376 18.568 87.1159 19.6429 84.7596L18.359 82.3797C18.359 82.3797 17.7974 81.983 17.5566 82.0623C17.3159 82.1417 17.1555 82.3797 17.1555 82.3797L16.9147 82.8557ZM-6.99642 55.9619C-7.07666 55.8826 -5.81165 51.9804 -2.98448 49.3773C-1.793 50.2852 -1.07909 50.7294 0.465788 51.1226C0.626266 54.5339 -0.547984 56.216 -0.497077 59.9285L-0.577316 60.5632C-0.577316 60.5632 -0.577316 61.0392 -0.737793 61.1185C-0.898271 61.1979 -1.05875 61.1979 -1.13899 61.1185C-1.21923 61.0392 -1.29946 60.2459 -1.29946 60.2459L-1.54018 57.9452L-1.70066 57.4692C-1.70066 57.4692 -1.62042 57.3106 -1.7809 57.3106C-1.94137 57.3106 -1.94137 57.6279 -1.94137 57.6279L-2.18209 58.5799L-2.42281 60.0079L-2.58328 61.1185C-2.58328 61.1185 -2.66352 61.8325 -2.74376 61.9912C-2.824 62.1498 -3.06472 62.0705 -3.14496 61.9912C-3.22519 61.9118 -3.14496 57.6279 -3.14496 57.6279C-3.14496 57.6279 -3.06472 57.0726 -3.14496 56.9932C-3.22519 56.9139 -3.38567 56.9932 -3.38567 56.9932L-4.50901 60.7219L-4.66949 61.1185C-4.66949 61.1185 -4.91021 61.5945 -4.99045 61.6739C-5.07069 61.7532 -5.23116 61.4359 -5.23116 61.4359L-4.50901 57.3106L-4.34854 56.6759C-4.34854 56.6759 -4.34854 56.4379 -4.50901 56.4379C-4.66949 56.4379 -4.82997 56.5172 -4.82997 56.5172L-5.87307 58.8179L-6.35451 60.0079L-6.7557 60.2459C-6.7557 60.2459 -6.99642 60.3252 -6.99642 60.2459C-6.99642 60.1665 -6.7557 59.8492 -6.7557 59.8492L-5.7126 56.1999L-5.23116 54.7719V54.2959L-6.7557 55.9619C-6.7557 55.9619 -6.91618 56.0412 -6.99642 55.9619ZM53.8246 51.5986C55.2096 51.2043 55.964 51.2881 57.4353 49.6946L61.9287 55.1686C61.9287 55.1686 62.0892 55.3273 61.9287 55.4066C61.7682 55.4859 59.4413 54.2959 59.4413 54.2959C59.4413 54.2959 59.1203 54.3753 59.1203 54.6133C59.1203 54.8512 59.4413 55.0099 59.4413 55.0099L61.9287 59.4525C61.9287 59.4525 62.0892 59.6905 61.9287 59.7699C61.7682 59.8492 61.4472 59.7699 61.4472 59.7699L59.1203 56.6759C59.1203 56.6759 59.0401 56.5966 58.8796 56.6759C58.7191 56.7552 58.8796 57.1519 58.8796 57.1519L60.4041 61.3565C60.4041 61.3565 60.4844 61.5945 60.2437 61.5945C60.0029 61.5945 57.9167 57.1519 57.7563 57.1519C57.5958 57.1519 57.4353 57.4692 57.4353 57.4692V57.9452C57.4353 57.9452 58.2377 61.6739 58.0772 61.8325C57.9167 61.9912 57.7563 61.8325 57.7563 61.8325H57.4353C57.4353 61.8325 56.312 57.5486 56.1515 57.4692H55.9108L55.7503 58.1039V59.7699L55.5898 60.7219C55.5898 60.7219 55.6701 61.0392 55.5898 61.1185C55.5096 61.1979 55.3491 61.1185 55.3491 61.1185C55.1988 60.7614 55.1392 60.5083 55.1084 59.9285C55.0776 59.3488 53.5483 55.2724 53.8246 51.5986Z" stroke="#1E1E1E"/>
</g>
</svg>
