<?xml version="1.0" encoding="UTF-8" standalone="no"?>
<!-- Created with Inkscape (http://www.inkscape.org/) -->

<svg
   version="1.1"
   id="svg1"
   width="736.27185"
   height="1390.7325"
   viewBox="0 0 736.27185 1390.7325"
   sodipodi:docname="BackBody-Oxyra.svg"
   inkscape:version="1.4.2 (f4327f4, 2025-05-13)"
   xmlns:inkscape="http://www.inkscape.org/namespaces/inkscape"
   xmlns:sodipodi="http://sodipodi.sourceforge.net/DTD/sodipodi-0.dtd"
   xmlns="http://www.w3.org/2000/svg"
   xmlns:svg="http://www.w3.org/2000/svg">
 
  <path
     style="fill:#f9f9f9;fill-opacity:1;stroke-width:0.896759"
     d="m 375.80217,0.04898634 c -17.49551,-0.63943 -36.20206,4.94857096 -47.76642,18.67780266 -10.65963,13.369175 -14.72466,30.928464 -13.64404,47.785674 -0.62092,5.34428 1.1009,11.48269 -1.09643,16.47444 -3.76383,1.627 -1.29163,7.40237 -2.11053,10.50539 -0.90366,14.609997 6.15635,28.670537 15.89469,39.080817 8.87274,-13.95488 17.09556,-30.22047 33.09776,-37.171697 7.32237,-4.02533 16.57381,-4.83438 23.63274,0.22594 14.35177,8.138497 22.05609,23.221377 30.48104,36.677777 1.9236,2.75886 3.00168,-3.33098 3.90405,-4.24559 2.17016,-7.25448 11.30686,-8.70972 13.15013,-16.04708 4.07271,-8.94376 4.6813,-19.404597 2.3172,-28.813627 -1.87033,-7.02575 0.17129,-14.91867 -0.56222,-22.2263 -0.0806,-20.620705 -7.65621,-43.009801 -26.08657,-54.1873467 -9.28566,-5.751135 -20.53194,-6.84284596 -31.2114,-6.73619996 z"
     id="NoRanks-1" />
  <path
     style="fill:#f9f9f9;fill-opacity:1;stroke-width:0.896759"
     d="m 377.91971,95.806003 c -1.75886,2.30755 -0.3284,6.775107 -0.97908,9.692697 -0.10885,26.71218 -1.04626,53.49863 0.5885,80.16883 1.1143,11.47098 11.58511,19.38194 21.14038,23.7262 14.80611,-0.49217 29.83592,1.07507 44.51567,-0.95694 2.19976,-1.52515 -2.52377,-3.13418 -3.13866,-4.26311 -10.11818,-8.71957 -19.61126,-18.87596 -23.49613,-31.99081 -4.40599,-11.36556 -3.32063,-23.82003 -5.76588,-35.54457 -7.188,-15.8666 -18.03466,-30.38696 -32.15545,-40.678167 -0.22396,-0.093 -0.46569,-0.15914 -0.70935,-0.15413 z"
     id="NoRanks-8" />
  <path
     style="fill:#f9f9f9;fill-opacity:1;stroke-width:0.896759"
     d="m 371.65991,95.853293 c -15.20795,2.37777 -25.62207,14.930297 -34.12976,26.688627 -3.67171,5.54443 -8.22018,10.87909 -10.96905,16.81137 -1.87,16.28911 -0.63797,34.76313 -11.99599,48.05696 -5.98834,8.01298 -14.39095,13.68084 -21.50295,20.49409 -0.58001,2.28058 4.40216,0.61738 5.60475,1.28909 16.09415,-0.17113 32.37681,0.85809 48.35315,-1.26982 9.37883,-2.50044 18.06375,-7.84125 22.90764,-16.48495 4.65075,-6.29758 1.94233,-14.78047 2.9769,-22.01216 0.12929,-24.46722 1.02341,-49.07334 -0.5546,-73.462867 -0.20263,-0.12758 -0.46206,-0.11665 -0.69009,-0.11034 z"
     id="NoRanks-9" />
  <path
     style="fill:#f9f9f9;fill-opacity:1;stroke-width:0.896759"
     d="m 312.58068,212.4687 c -17.47779,0.24165 -35.25731,-1.16696 -52.30142,3.59719 -1.5562,0.85761 -5.42605,-0.3618 -5.94236,1.7063 8.58107,11.17966 20.02942,20.16124 28.85939,30.89472 3.09571,10.70689 5.2078,21.92055 8.89618,32.32298 6.55212,8.61252 14.55744,16.16641 20.86127,24.8941 1.04067,2.52691 4.4928,3.84347 5.86441,6.47366 17.30407,20.22178 34.18947,40.7682 51.72256,60.77098 0.67971,0.79082 2.56454,2.31617 1.98443,-0.10684 1.01023,-43.9327 0.4907,-87.88638 0.66731,-131.82703 -2.64197,-8.40952 -5.90855,-17.23179 -13.70884,-22.15975 -5.38643,-3.83062 -11.2249,-8.02884 -18.20665,-6.57051 -9.56543,0.001 -19.13086,0.003 -28.69628,0.004 z"
     id="EspaldaAlta-1" />
  <path
     style="fill:#f9f9f9;fill-opacity:1;stroke-width:0.896759"
     d="m 401.00424,212.75069 c -11.10952,7.02223 -21.26306,17.55808 -24.37459,30.48279 0.30088,43.96614 -0.56436,87.96094 0.61223,131.90935 -0.52147,2.30124 1.54478,3.97356 3.09312,1.769 18.73893,-22.72524 37.93473,-45.16566 56.97202,-67.67841 9.77617,-10.87997 17.81761,-23.52692 21.21413,-37.92018 2.25815,-8.00095 2.77611,-16.48516 7.00365,-23.90412 5.42126,-11.60451 14.19838,-22.44159 26.86445,-26.30128 1.34077,-0.93832 5.03601,-1.43603 5.24074,-3.01688 -17.16384,-2.48775 -34.696,-2.21017 -52.00704,-3.48095 -14.86719,-0.74203 -29.73927,-1.48438 -44.61871,-1.85932 z"
     id="EspaldaAlta-2" />
  <path
     style="fill:#f9f9f9;fill-opacity:1;stroke-width:0.896759"
     d="m 505.80065,218.41323 c -11.25985,3.48707 -22.48631,9.27106 -30.34968,18.29948 -5.06254,7.32545 -10.27668,16.07351 -9.50354,25.2844 4.4783,12.2963 15.06831,21.3581 25.47005,28.7243 20.99053,10.88927 43.58977,18.67274 66.95318,22.54403 4.84939,0.24526 10.70514,3.26772 15.29641,0.93283 -2.31191,-15.56678 -3.64586,-31.85255 -10.65076,-46.31969 -7.54092,-16.99831 -18.25255,-34.08459 -35.85804,-41.99338 -6.82517,-2.96594 -13.75898,-7.19852 -21.35762,-7.47197 z"
     id="Hombros-2" />
  <path
     style="fill:#f9f9f9;fill-opacity:1;stroke-width:0.896759"
     d="m 461.10984,271.57246 c -2.26306,6.48208 -2.36201,13.81269 -5.72034,20.05621 -5.36981,14.20961 -17.08322,24.25127 -25.34744,36.59722 -2.22979,1.98787 -0.24832,2.63541 1.79351,2.35924 18.22605,0.28325 36.59622,3.12189 54.73556,0.24696 6.75555,-1.1801 11.78884,-8.03824 10.16385,-14.88059 -0.27605,-5.53038 -0.57068,-11.07636 -0.92303,-16.59178 -13.95639,-5.87228 -22.72435,-18.63097 -34.30978,-27.68568 -0.1133,-0.0348 -0.25819,-0.15237 -0.39233,-0.10158 z"
     id="EspaldaMedia-1" />
  <path
     style="fill:#f9f9f9;fill-opacity:1;stroke-width:0.896759"
     d="m 497.23766,330.43626 c -13.78723,4.54806 -28.16491,8.7187 -42.87803,7.14955 -10.63476,-0.24117 -21.05036,-4.06995 -31.60899,-3.87603 -7.65686,9.89622 -16.71355,18.89202 -24.55753,28.65074 -2.5582,4.62114 -7.63831,7.8544 -9.80304,12.58965 9.7199,12.95431 20.40026,25.64735 33.37448,35.49553 12.17182,8.24067 27.47328,13.7648 42.17043,10.73834 11.76665,-6.2909 23.25529,-13.58889 31.99227,-23.88457 5.49132,-5.40837 10.30054,-12.09839 9.89894,-20.19557 0.26355,-5.14649 2.38037,-11.12201 -1.39695,-15.48076 -4.2318,-9.46054 -4.63397,-19.95778 -5.23517,-30.07995 -0.24169,-0.85001 -1.13309,-1.2308 -1.95641,-1.10693 z"
     id="Dorsales-2" />
  <path
     style="fill:#f9f9f9;fill-opacity:1;stroke-width:0.896759"
     d="m 239.1463,333.08275 c -2.80059,11.10965 -3.49021,22.84457 -5.31049,34.20469 4.21815,11.31018 6.01865,23.56514 11.36011,34.40786 10.5721,12.95302 26.50127,21.3354 42.87102,24.27554 14.28331,1.14015 27.87947,-5.95003 39.5327,-13.48817 12.97946,-11.15914 25.25933,-23.43233 35.68118,-37.02107 1.57477,-4.11251 -4.70781,-6.20396 -6.08192,-9.43884 -9.28409,-10.63669 -18.30948,-21.73066 -27.37839,-32.41807 -10.23257,-0.43809 -20.38443,3.14897 -30.66608,3.47369 -18.76126,1.96634 -37.92439,2.12691 -56.19691,-3.20747 -1.26955,-0.25299 -2.52891,-0.61429 -3.81122,-0.78816 z"
     id="Dorsales-1" />
  <path
     style="fill:#f9f9f9;fill-opacity:1;stroke-width:0.896759"
     d="m 283.46404,271.3833 c -7.77996,8.68822 -14.49187,18.59737 -24.5386,24.94399 -6.50732,4.42359 -13.33302,8.41229 -20.4377,11.76356 0.19256,6.41449 0.2947,12.86107 0.54296,19.25579 13.80221,5.26808 28.60108,7.58641 43.33166,5.97956 14.04243,-1.35276 28.56772,-1.86184 42.00929,-6.35612 0.71801,-2.28058 -3.4637,-4.34559 -4.42599,-6.34737 -14.13129,-14.03633 -25.08697,-30.78037 -35.08218,-47.88377 -0.42961,-0.384 -0.75611,-1.25686 -1.39944,-1.35564 z"
     id="EspaldaMedia-2" />
  <path
     style="fill:#f9f9f9;fill-opacity:1;stroke-width:0.896759"
     d="m 243.27804,218.38521 c -15.18861,2.00401 -29.80204,8.16877 -42.72835,16.2585 -11.79673,9.41579 -25.18362,18.63301 -30.54097,33.4573 -6.703,17.47791 -7.96512,36.83899 -5.67522,55.29954 1.02794,3.82557 6.25539,0.22812 8.74515,0.60952 25.87178,-4.2406 51.16386,-12.57147 73.54256,-26.39169 7.34234,-4.41915 15.08496,-8.2283 20.94713,-14.69156 5.54672,-4.67325 10.31234,-10.81177 10.58346,-18.36555 2.16879,-14.0546 -7.05234,-27.10392 -17.44826,-35.54282 -5.85394,-3.0477 -10.22488,-9.42985 -16.85802,-10.64725 z"
     id="Hombros-1" />
  <path
     style="fill:#f9f9f9;fill-opacity:1;stroke-width:0.896759"
     d="m 218.0497,316.28078 c -17.61917,7.26624 -36.42025,11.37358 -55.40112,12.84887 -3.27177,1.05573 -2.05957,6.44183 -3.34533,8.95708 -2.52347,13.36431 -6.69622,26.52763 -8.09535,40.04588 1.54909,2.26217 4.48206,-1.94787 6.38415,-1.98793 17.93967,-9.4025 35.54671,-20.62104 47.77003,-37.1482 5.13476,-6.35728 9.56871,-13.48307 13.4898,-20.50007 0.0532,-0.66519 0.32956,-2.30934 -0.80218,-2.21563 z"
     id="Triceps-5" />
  <path
     style="fill:#f9f9f9;fill-opacity:1;stroke-width:0.896759"
     d="m 234.12655,310.34501 c -8.64617,0.98712 -11.37397,10.06349 -14.71945,16.64783 -4.20883,10.11996 -13.69903,17.26813 -17.03491,27.72071 -1.34374,13.43443 -0.0592,27.41876 3.66059,40.29109 2.64978,1.53495 2.26115,6.80179 4.82358,7.9885 5.42613,-11.65993 10.01179,-23.86977 17.41849,-34.5217 0.024,-2.30299 2.72568,-1.97945 2.78486,-4.27887 2.37249,-17.36763 3.90989,-34.98558 3.79896,-52.52169 -0.11434,-0.4171 -0.0478,-1.42305 -0.73212,-1.32587 z"
     id="Triceps-4" />
  <path
     style="fill:#f9f9f9;fill-opacity:1;stroke-width:0.896759"
     d="m 196.74993,356.4948 c -12.97943,8.8088 -25.40507,18.72452 -40.02386,24.83739 -5.54061,2.25768 -11.44249,5.21913 -12.82185,11.68627 -7.44661,15.86843 -15.40947,31.52127 -22.21755,47.67183 6.63563,9.8112 15.52031,17.94888 23.94451,26.19341 12.49147,1.23777 25.08098,3.93648 37.6446,3.12815 3.36631,-3.06634 3.63385,-8.7055 6.22126,-12.4688 6.43314,-16.11756 13.22003,-32.13777 19.63587,-48.27084 -9.96703,-15.75237 -10.23852,-34.92314 -12.30942,-52.78266 l -0.0245,-0.002 z"
     id="Triceps-6" />
  <path
     style="fill:#f9f9f9;fill-opacity:1;stroke-width:0.896759"
     d="m 120.75663,446.7294 c -5.06648,6.15272 -7.7558,14.3506 -11.79887,21.29383 -15.69976,29.92607 -28.76855,61.22843 -38.18491,93.70322 -8.47017,26.28411 -15.59759,53.04688 -22.84108,79.69592 -1.63137,6.79036 5.70682,10.79063 9.84858,14.75098 5.84214,3.55046 12.82671,4.91634 19.2663,6.94463 5.50976,-0.85466 5.53278,-8.60682 8.05354,-12.34114 8.17599,-20.86823 19.78312,-40.13542 32.71644,-58.37381 2.83819,-3.72197 5.23796,-7.979 7.74082,-11.78686 2.56352,-0.9765 1.79108,-4.29831 4.30339,-5.59073 7.29724,-10.4445 15.07814,-20.76131 21.58526,-31.62826 13.71727,-20.36368 24.44825,-43.08457 30.30064,-66.97491 0.76812,-3.69193 -5.1289,-1.96228 -7.09525,-2.58168 -9.63437,-0.1509 -19.23586,-0.96104 -28.84341,-1.63939 -8.3587,-8.33212 -15.68851,-17.90203 -24.74143,-25.43852 -0.10203,-0.0164 -0.20385,-0.0584 -0.31002,-0.0333 z"
     id="Antebrazo-2" />
  <path
     style="fill:#f9f9f9;fill-opacity:1;stroke-width:0.896759"
     d="m 43.01886,650.57736 c -6.25284,4.78221 -10.81376,11.4255 -16.06431,17.19109 -10.80822,16.43691 -21.8442296,33.4871 -26.93456963,52.66852 -0.35731,3.89607 4.18153003,1.04095 5.30875003,-0.45889 4.8519696,-3.7037 7.6100396,-9.9063 12.7245096,-13.10108 -1.21819,10.00266 -5.94703,19.7443 -8.1837496,29.71355 -2.95613,10.81632 -6.08911,21.78839 -9.78295003,32.27665 2.45840003,0.93378 5.58072003,-2.02039 7.29492003,-3.77971 C 13.86738,753.2435 17.11297,739.61617 24.72814,728.37994 c 1.38583,-1.55159 4.02127,-0.28798 2.75858,1.7795 -2.67588,16.78535 -6.67528,33.42271 -8.52271,50.30607 -0.45715,2.69752 3.31113,4.77788 4.43125,1.5956 6.52534,-14.35306 10.02301,-29.93526 14.82104,-44.93077 -0.17637,-0.98515 1.08797,-4.53159 1.66741,-1.99143 1.53965,17.13158 -0.69198,34.51848 1.21903,51.58814 1.47648,2.9406 5.62848,0.97292 5.57672,-1.97917 2.81823,-15.52079 3.92279,-31.86551 9.15325,-46.67174 3.89953,12.82975 3.12228,26.92016 6.54178,39.883 3.37462,2.91877 6.99125,-1.43102 6.62936,-4.92167 1.39789,-21.37118 3.20332,-42.76829 8.03339,-63.6937 3.00214,-13.26333 2.31784,-26.95847 2.39843,-40.42839 -12.17816,-2.91863 -23.79495,-8.40297 -33.38849,-16.50772 -1.00554,-0.48056 -1.91492,-1.62659 -3.02832,-1.8303 z"
     id="NoRanks-7" />
  <path
     style="fill:#f9f9f9;fill-opacity:1;stroke-width:0.896759"
     d="m 254.48753,470.4322 c -1.68082,1.97312 0.32444,5.82889 0.0823,8.29852 2.83957,26.73901 3.33905,53.89696 0.38182,80.63998 -0.96066,7.34067 -3.39285,14.99196 -2.93373,22.30337 5.59496,-0.006 11.16774,-2.92349 16.86567,-3.40345 17.05198,-3.58204 34.78428,-4.12084 51.71535,0.4452 7.84391,1.35408 15.04604,5.142 22.57485,7.23712 1.1861,-3.90916 -2.49095,-8.21294 -3.4859,-11.97527 -6.84188,-15.39101 -13.7178,-31.00884 -23.77591,-44.62036 -18.89892,-20.04022 -38.88651,-39.08616 -59.15981,-57.72009 -0.68601,-0.45154 -1.38189,-1.19064 -2.26466,-1.20502 z"
     id="Abdominales-2" />
  <path
     style="fill:#f9f9f9;fill-opacity:1;stroke-width:0.896759"
     d="m 367.18312,379.30961 c -3.48298,0.33045 -2.81173,4.58902 -5.54169,6.00057 -9.12874,10.71154 -15.72811,23.26072 -23.13182,35.15049 -14.2546,27.51538 -23.80428,57.13396 -33.2799,86.53547 -1.48351,3.73786 3.61289,4.90981 4.86832,7.81982 18.20417,19.77927 29.43899,44.75386 37.60871,70.10455 3.45048,8.8148 12.89204,13.26089 17.40263,21.49148 1.96784,2.08751 2.71387,5.13719 4.05293,7.38251 1.74206,-0.13069 0.89487,3.54895 2.86017,2.5519 1.77272,-18.64969 0.68284,-37.56316 1.09875,-56.31014 0.0669,-58.58767 0.0478,-117.1844 0.0257,-175.76646 -1.95429,-1.45086 -3.37332,-4.51047 -5.9638,-4.96019 z"
     id="Lumbares-2" />
  <path
     style="fill:#f9f9f9;fill-opacity:1;stroke-width:0.896759"
     d="m 245.53395,410.19524 c -1.81499,2.9898 0.57343,7.64513 0.33647,11.07344 2.20882,13.55483 2.50893,27.58746 6.19131,40.82121 12.26642,9.32187 24.85236,18.70018 35.43789,30.06737 4.1859,3.67472 7.04199,9.50744 12.00274,12.0295 7.69748,-16.13605 11.72053,-33.86917 19.04001,-50.22756 5.68108,-14.96446 14.14637,-28.65055 21.47177,-42.77788 -0.21339,-2.40014 -3.82849,1.58542 -4.65895,1.8303 -12.39649,11.45366 -29.31302,17.23022 -46.1228,16.16176 -15.67482,0.0663 -30.115,-7.77679 -41.49507,-17.98155 -0.20977,-1.0095 -1.33618,-1.03105 -2.20337,-0.99659 z"
     id="Dorsales-3" />
  <path
     style="fill:#f9f9f9;fill-opacity:1;stroke-width:0.896759"
     d="m 385.24616,379.14847 c -2.78548,2.00467 -6.31686,4.48278 -7.63296,7.77833 -1.69011,29.6367 -0.59767,59.39755 -0.95806,89.08212 0.19733,47.13352 -0.41648,94.32037 0.84596,141.4199 3.98697,-4.81982 6.01349,-11.46335 10.41579,-16.22153 3.75254,-6.78841 12.90834,-9.87137 13.67585,-18.31419 4.6175,-23.28388 11.98703,-47.4214 29.45102,-64.43258 6.30491,-7.05956 13.44486,-13.43366 20.8638,-19.19717 4.43934,-4.45511 -2.277,-9.22589 -3.88304,-13.31477 -10.09446,-18.20738 -20.87724,-35.8399 -30.93212,-54.08168 -10.31465,-17.12085 -19.07763,-35.24441 -30.24714,-51.81116 -0.42387,-0.42529 -0.94782,-0.93688 -1.5991,-0.90727 z"
     id="Lumbares-1" />
  <path
     style="fill:#f9f9f9;fill-opacity:1;stroke-width:0.896759"
     d="m 500.27823,402.16645 c -6.51496,3.74798 -10.81305,10.70093 -17.54109,14.39017 -15.90866,11.29846 -38.46681,13.53365 -55.26801,2.81288 -4.92894,-2.54662 -9.54983,-5.90464 -13.96807,-9.05341 -1.91397,-0.87055 -2.86696,0.8531 -1.48526,2.30845 13.55338,24.12108 26.82908,48.44818 40.9514,72.23462 2.25569,2.99401 2.7324,8.26402 6.48224,9.68394 9.66219,-5.45953 18.72418,-11.93843 28.02721,-17.9702 4.65127,-24.61436 9.57041,-49.30326 13.62652,-73.95457 -0.11074,-0.34451 -0.48346,-0.51175 -0.82494,-0.45188 z"
     id="Dorsales-4" />
  <path
     style="fill:#f9f9f9;fill-opacity:1;stroke-width:0.896759"
     d="m 487.03002,482.51568 c -18.84794,8.06578 -35.91832,20.45063 -50.35965,34.97244 -17.53098,18.13324 -29.16988,42.49448 -30.29609,67.80276 2.29588,1.62778 5.50315,-1.96767 7.60494,-2.90221 17.70122,-10.35509 39.23635,-9.2556 59.03369,-10.04475 4.97073,-0.26013 10.04423,0.0256 14.93489,-0.88099 -0.24416,-29.62115 0.56225,-59.39351 -0.65155,-88.92449 -0.0837,-0.0319 -0.17756,-0.0424 -0.26623,-0.0228 z"
     id="Abdominales-1" />
  <path
     style="fill:#f9f9f9;fill-opacity:1;stroke-width:0.896759"
     d="m 544.87796,363.5848 c -2.88735,1.42547 -0.77391,6.12189 -2.25309,8.60334 -3.06997,13.04943 -8.04757,25.64726 -14.25287,37.51143 9.66241,21.10539 18.49868,42.56171 28.71379,63.39313 2.16606,4.27553 8.14602,0.70537 11.67177,1.13607 14.62553,-0.90473 29.47467,-6.39179 38.84272,-18.09917 3.09025,-2.62602 4.58972,-6.73075 2.26139,-10.38035 -8.43335,-19.09152 -15.83303,-38.59401 -24.17539,-57.72381 -1.76986,-4.13311 -7.9323,-3.31085 -11.51601,-5.49657 -11.18401,-3.55822 -20.21501,-11.39812 -28.83867,-18.89503 -0.14785,-0.0369 -0.30165,-0.0571 -0.45364,-0.049 z"
     id="Triceps-1" />
  <path
     style="fill:#f9f9f9;fill-opacity:1;stroke-width:0.896759"
     d="m 501.01735,301.8801 c -1.36644,3.41791 0.36932,8.26282 0.14169,12.06321 1.26836,22.65021 4.02478,45.75455 14.26951,66.32611 3.42195,6.78232 5.99401,14.31097 10.52465,20.38724 4.04756,-1.51272 4.82102,-7.33438 6.79541,-10.7592 3.48817,-10.43171 8.18849,-21.4684 6.78558,-32.66178 -5.29034,-9.27318 -13.06995,-17.30065 -17.12949,-27.33888 -4.87219,-7.3094 -6.57383,-16.4597 -11.37062,-23.69755 -3.04042,-1.90238 -6.43002,-3.80249 -10.01673,-4.31915 z"
     id="Triceps-3" />
  <path
     style="fill:#f9f9f9;fill-opacity:1;stroke-width:0.896759"
     d="m 520.50609,308.98936 c -2.33536,0.3292 -0.82275,2.75786 0.20493,3.64484 7.91131,21.09371 18.24846,43.31312 38.26812,55.44315 7.63533,4.52527 15.97035,9.06812 24.68714,10.59472 0.0685,-5.44003 -3.38787,-10.94036 -4.51007,-16.34658 -4.05575,-12.79802 -5.72495,-26.24153 -6.40517,-39.55196 -3.09244,-3.12953 -8.67433,-2.29553 -12.57996,-4.08455 -13.24738,-2.97928 -26.27353,-7.6189 -39.66499,-9.69962 z"
     id="Triceps-2" />
  <path
     style="fill:#f9f9f9;fill-opacity:1;stroke-width:0.896759"
     d="m 614.08076,456.88099 c -8.10559,4.89164 -14.22198,12.7557 -22.54682,17.24684 -9.91418,2.31206 -20.35098,3.43394 -30.16753,5.3823 -4.34006,13.93723 -3.8693,30.02268 4.25136,42.57441 7.5089,12.76481 15.91501,25.06695 23.55342,37.696 9.69146,15.13407 19.42637,30.78182 28.45285,46.50195 11.09425,19.84339 21.55051,40.03062 30.95917,60.72027 9.57037,-0.58835 19.92092,-1.7359 26.96931,-9.02889 3.15046,-3.28282 8.20759,-5.52765 10.16034,-9.71021 -2.2422,-12.7527 -7.10315,-25.03809 -10.56216,-37.53724 -10.5622,-34.84806 -23.35391,-68.99175 -37.57206,-102.49374 -7.25112,-16.83721 -14.40978,-33.79408 -22.15099,-50.38488 -0.34455,-0.37587 -0.75128,-1.02414 -1.34689,-0.96681 z"
     id="Antebrazo-1" />
  <path
     style="fill:#f9f9f9;fill-opacity:1;stroke-width:0.896759"
     d="m 687.46435,654.60928 c -4.55437,1.55603 -7.23286,6.71185 -11.53815,9.04018 -7.93744,6.18606 -18.00269,8.3175 -27.56018,10.54138 -0.67125,19.12958 0.70094,38.28836 5.20369,56.93 3.12636,14.37135 7.57376,28.44578 9.81351,42.99379 0.32823,1.99614 2.26899,6.48823 4.23684,2.93549 2.74262,-8.282 1.26563,-17.53824 2.31196,-26.17415 0.86303,-3.4662 -0.66956,-8.74913 2.16658,-11.31807 3.26316,1.16534 2.82184,6.35087 4.3174,8.96233 3.99034,12.05705 6.05559,24.86931 10.94851,36.55868 2.5275,1.7123 8.71619,1.26551 7.28792,-3.08611 -1.38721,-14.32921 -5.46066,-28.36085 -6.49975,-42.67135 -0.40017,-2.0642 3.26753,-5.35134 3.73315,-1.61667 8.21828,14.59655 14.76383,30.25409 24.02609,44.19694 1.40246,1.21376 4.93336,0.51535 3.29979,-1.92488 -4.36501,-16.88258 -13.12183,-32.45729 -16.49721,-49.55642 1.87973,-2.2329 3.79706,2.66567 5.05828,3.65184 7.10504,9.81468 14.49105,19.60283 22.00211,29.00103 2.52435,1.43742 8.19406,0.58433 6.00408,-3.41189 -5.12281,-10.4357 -11.38302,-20.31203 -16.67235,-30.68245 -4.33931,-7.15671 -8.2287,-14.66647 -12.96272,-21.54498 -0.34997,-3.43257 4.75587,-1.13685 6.40517,-0.53245 7.34724,3.05704 14.39892,8.01235 22.41547,8.86775 2.60666,-2.08124 -2.34257,-5.56298 -3.05109,-7.5051 -11.78288,-14.25904 -23.20304,-28.6893 -34.90377,-43.01005 -2.50298,-3.5428 -5.86419,-6.6666 -8.00403,-10.28579 -0.46718,-0.25958 -1.011,-0.36511 -1.5413,-0.35905 z"
     id="NoRanks-6" />
  <path
     style="fill:#f9f9f9;fill-opacity:1;stroke-width:0.896759"
     d="m 460.79983,577.91189 c -19.4593,1.34429 -40.76963,2.58713 -56.8531,14.90861 -11.09693,9.20797 -18.07661,22.16369 -26.0568,33.91394 -2.25217,13.32792 -0.69403,27.09337 -1.232,40.57833 0.24462,24.02624 -0.57525,48.13921 0.91498,72.11026 9.58932,9.8265 21.20173,17.725 32.91028,24.85454 19.12577,10.43158 41.17652,14.46013 62.82034,13.23085 9.4231,-0.40223 19.04221,0.10407 28.36188,-0.82612 3.61004,-5.08127 2.4981,-12.30126 4.37122,-18.10856 1.83747,-10.94141 6.78158,-20.97196 11.51296,-30.88739 -16.57966,-33.28653 -33.34254,-67.02598 -40.94263,-103.71224 -3.52011,-13.90066 -4.53632,-28.24794 -6.44896,-42.37536 -0.97118,-4.24603 -6.06978,-3.69363 -9.35817,-3.68686 z"
     id="Gluteo-1" />
  <path
     style="fill:#f9f9f9;fill-opacity:1;stroke-width:0.896759"
     d="m 292.58576,580.8859 c -7.77237,-0.0258 -15.50033,1.08926 -23.03899,2.88294 -6.48357,23.70581 -8.53098,48.55065 -16.18112,71.93093 -10.15429,22.53208 -20.34183,45.09029 -30.04049,67.80054 -0.15896,1.94829 -3.02693,3.04192 -1.1875,5.26496 6.37409,10.20981 13.02224,20.57491 15.38677,32.59858 1.55423,4.55867 1.6405,9.97961 3.83924,14.16423 7.74818,2.24895 16.20093,-0.0343 24.17903,0.17387 28.84327,-2.11761 59.81398,-1.95915 85.29672,-17.58374 8.41006,-4.97338 15.97825,-11.31651 22.32326,-18.74072 -0.32442,-36.9476 0.70493,-73.9363 -0.67782,-110.85829 -1.34512,-7.55399 -7.97943,-12.93569 -12.13952,-19.04911 -8.30002,-10.22329 -19.22109,-18.14928 -30.42675,-24.86754 -12.02856,-3.53575 -24.88334,-3.61583 -37.33283,-3.71665 z"
     id="Gluteo-2" />
  <path
     style="fill:#f9f9f9;fill-opacity:1;stroke-width:0.896759"
     d="m 263.87897,583.92122 c -4.73065,1.77122 -10.56649,1.52812 -14.59159,4.80431 -3.69204,6.74394 -3.52104,15.07755 -5.89383,22.36597 -8.08717,31.92736 -13.78175,64.3609 -21.0317,96.47208 -0.72656,0.9686 -0.8911,5.04534 0.83721,4.21756 5.37893,-10.0594 9.00375,-21.07979 13.63703,-31.53017 3.98989,-10.00015 8.30359,-19.8461 12.33693,-29.80243 9.13067,-18.28416 10.30453,-39.12146 15.35225,-58.66667 0.0751,-1.93542 3.2688,-7.69344 -0.6463,-7.86065 z"
     id="Gluteo-4" />
  <path
     style="fill:#f9f9f9;fill-opacity:1;stroke-width:0.896759"
     d="m 480.29557,578.08353 c -4.58222,-0.40589 -9.06119,-0.42125 -6.61534,5.11258 7.73771,47.5788 23.73905,93.59778 44.87471,136.78898 2.0033,2.00579 1.59653,-3.22114 1.62187,-4.10723 -1.22197,-24.47042 -12.24062,-46.97389 -17.31084,-70.69712 -6.09216,-22.21851 -10.49017,-44.87731 -15.37531,-67.35468 -2.39836,0.0858 -4.79672,0.17165 -7.19509,0.25747 z"
     id="Gluteo-3" />
  <path
     style="fill:#f9f9f9;fill-opacity:1;stroke-width:0.896759"
     d="m 459.71391,781.14508 c -2.71986,0.71186 -7.66541,-1.23256 -9.24082,1.79177 2.03996,20.85957 3.22029,42.05141 6.01749,62.92121 2.57035,24.10825 7.99659,48.13284 17.11258,70.59776 7.12163,18.08607 16.82367,35.33235 28.36222,51.06891 6.42362,10.0303 14.79052,18.6942 21.72316,28.2732 0.6822,2.2962 2.52279,-0.1514 1.83555,-1.6411 -1.25687,-33.8946 -2.96932,-67.80779 -5.63627,-101.61751 -2.01225,-10.96928 -7.10974,-21.17085 -9.71197,-32.03985 -8.1818,-25.33964 -8.46652,-52.39523 -11.03959,-78.48741 -13.07949,-1.09822 -26.30072,-0.75587 -39.42235,-0.86698 z"
     id="Femoral-4" />
  <path
     style="fill:#f9f9f9;fill-opacity:1;stroke-width:0.896759"
     d="m 388.53018,759.25856 c -3.56587,1.2758 -0.47116,6.82314 -0.91733,9.39657 2.48705,14.79129 1.77342,30.64804 8.31276,44.44349 10.85726,21.33909 22.66995,42.32654 30.66121,64.96158 19.0066,46.96979 24.73967,97.92103 28.77572,148.0473 0.80358,3.812 0.38932,10.0778 4.64737,11.8223 3.0046,-2.2465 2.74854,-7.3513 4.86562,-10.3898 8.20081,-17.5489 13.05957,-36.74357 12.14302,-56.20497 -0.57078,-20.93704 -2.60749,-42.26994 -10.94033,-61.71105 -12.50462,-37.62715 -16.5395,-77.3717 -19.18341,-116.73521 -1.34666,-3.45441 2.13868,-10.44042 -1.9742,-11.60244 -17.29346,-3.79895 -34.0043,-9.84358 -49.47032,-18.50203 -2.42559,-0.88184 -4.31997,-3.21639 -6.92011,-3.52574 z"
     id="Femoral-3" />
  <path
     style="fill:#f9f9f9;fill-opacity:1;stroke-width:0.896759"
     d="m 363.6679,755.46661 c -8.74062,5.64265 -17.23314,12.17871 -27.32452,15.45981 -10.86494,4.53651 -22.78859,5.18385 -34.05791,7.91021 -2.31905,2.63663 -0.73024,7.1716 -2.0407,10.3564 -5.62177,37.22532 -11.57464,74.43554 -20.68128,110.99677 -5.87187,27.6406 -10.10414,56.00594 -6.99355,84.28833 1.87276,14.6384 7.83071,28.49647 13.42675,42.04607 1.60514,2.3442 2.6282,-2.7448 3.52923,-3.5328 7.20214,-13.3747 6.47983,-29.11847 8.8066,-43.74537 6.25194,-47.04873 12.20006,-95.66667 35.11333,-138.05618 6.63511,-14.31558 16.16867,-26.98958 24.41063,-40.33359 3.68973,-13.99172 5.22008,-28.51987 7.11277,-42.84125 -0.01,-0.85854 0.0841,-2.81812 -1.30135,-2.5484 z"
     id="Femoral-1" />
  <path
     style="fill:#f9f9f9;fill-opacity:1;stroke-width:0.896759"
     d="m 289.88322,779.14314 c -16.22744,0.34467 -32.52624,0.84283 -48.64565,2.57292 -0.46446,22.00799 1.17744,44.28719 -2.39428,66.09042 -4.59837,14.95249 -12.76148,28.56863 -18.54469,43.03391 -2.43034,21.63431 -1.6575,43.54338 -2.83505,65.2826 0.0638,11.88324 -1.89953,23.88774 -0.92713,35.70434 2.66488,1.48 6.1775,-1.8994 8.79263,-2.6125 17.30187,-7.9401 28.61952,-24.0912 36.5092,-40.81275 2.82955,-5.05291 3.81312,-10.62839 6.33711,-15.75557 12.54698,-38.02244 17.30691,-78.01686 23.57853,-117.41552 1.2244,-11.80233 4.03777,-23.53704 4.55727,-35.35573 -0.90478,-1.71889 -4.92115,-0.15772 -6.42794,-0.73212 z"
     id="Femoral-2" />
  <path
     style="fill:#f9f9f9;fill-opacity:1;stroke-width:0.896759"
     d="m 222.28128,737.00599 c -1.25515,45.41745 -0.82565,90.93798 -0.35205,136.38964 0.38439,2.28163 -0.37492,5.82468 0.62003,7.64522 7.03234,-15.2769 9.61283,-32.26154 13.02097,-48.64423 2.79226,-15.77642 4.44085,-31.99404 0.7471,-47.78549 -3.0317,-16.03722 -7.38148,-31.96826 -13.53513,-47.0832 -0.14169,-0.0842 -0.25772,-0.56045 -0.50092,-0.52194 z"
     id="Cuadriceps-2" />
  <path
     style="fill:#f9f9f9;fill-opacity:1;stroke-width:0.317052"
     d="m 353.69717,812.21691 c -1.6939,0.15335 -0.94369,2.51586 -1.92274,3.47705 -1.20406,1.53531 -0.94013,3.6988 -2.22061,5.23879 -1.45501,2.43469 -1.2238,5.52358 -3.14699,7.7139 -0.38918,2.10493 -1.60364,3.94598 -2.14815,6.01718 -0.80675,1.5735 -1.06941,3.29024 -2.01625,4.80408 -1.48263,3.26013 -2.43151,6.71264 -3.93714,9.95246 -0.71015,1.87076 -1.73566,3.67271 -2.24785,5.60167 -0.79738,1.4664 -1.04328,3.16182 -2.01626,4.55267 -1.22567,3.64005 -2.80743,7.11927 -4.5279,10.55003 -0.55451,2.26081 -1.83535,4.26518 -2.30544,6.5361 -0.0429,1.5283 -1.46928,2.54452 -1.73264,4.06657 -1.38174,2.84277 -2.53841,5.77755 -3.67891,8.71336 -1.02252,1.7237 -1.22901,3.84874 -2.54323,5.38121 -1.2822,3.51573 -3.12192,6.84566 -3.82748,10.5736 -1.04208,3.85702 -2.58419,7.61595 -2.7433,11.64544 -0.59337,2.99957 -1.22932,6.00567 -1.70911,9.0075 -0.61122,2.05728 -0.8382,4.18531 -1.42364,6.25001 -0.37614,4.88817 -1.68336,9.66662 -2.55128,14.49213 -0.67155,3.66804 -1.12607,7.36079 -1.77165,11.02807 -0.033,2.5856 -1.39718,4.9983 -0.95859,7.5925 -0.73866,4.2578 -1.60922,8.517 -2.47573,12.7645 -0.66309,4.5325 -0.26386,9.2221 -1.90711,13.5787 -0.50444,1.5764 0.0784,3.6388 1.44763,4.5168 0.63563,-1.7649 -0.17263,-3.9466 1.10907,-5.5305 0.63194,-2.6369 1.24534,-5.2783 2.17048,-7.8453 1.86861,-6.0425 2.59009,-12.4037 4.98548,-18.2786 0.89564,-2.8555 1.05345,-5.8722 2.12958,-8.6682 0.30577,-3.20629 1.85221,-6.08463 2.32759,-9.26064 0.6301,-2.74822 1.97944,-5.26167 2.213,-8.10712 0.62084,-2.84522 2.11477,-5.43322 2.25683,-8.40882 0.0861,-2.34835 1.34979,-4.35326 1.56049,-6.66986 1.33284,-3.62375 2.35475,-7.35801 2.99775,-11.1767 1.09501,-3.27855 2.45188,-6.48538 3.36682,-9.83481 0.44113,-1.45387 1.55921,-2.58061 1.63666,-4.14273 1.13854,-2.70287 2.54935,-5.29779 3.39593,-8.12322 0.86501,-2.42537 1.69066,-4.88391 2.73829,-7.26 0.6811,-2.79927 2.40336,-5.20586 3.21531,-7.99135 0.50264,-1.53237 1.35365,-2.84697 1.71695,-4.41145 1.32812,-2.98391 3.03576,-5.85452 3.50925,-9.13197 0.4456,-0.87034 1.43434,-1.48836 1.17036,-2.63797 -0.0322,-0.82151 0.43361,-1.39941 1.03352,-1.78528 0.53797,-2.31153 1.86019,-4.36758 2.31039,-6.7002 1.68215,-2.8268 2.64329,-5.99769 4.04861,-8.96663 0.82633,-2.86242 2.80109,-5.25581 3.13064,-8.28584 0.81026,-5.272 0.48513,-10.67615 0.65726,-16.00147 -0.15841,-1.516 0.27584,-3.27614 -0.26689,-4.68271 -0.31366,-0.17725 -0.69953,-0.18285 -1.049,-0.15295 z"
     id="Aductores-1" />
  <path
     style="fill:#f9f9f9;fill-opacity:1;stroke-width:0.634104"
     d="m 518.85282,736.66687 c -2.41305,2.23586 -2.58414,6.30939 -4.01269,9.23786 -6.35931,19.25426 -11.45214,39.57226 -8.96291,59.99839 1.89376,21.58345 6.41012,42.84229 11.24668,63.92067 1.5482,1.68181 -0.39488,5.51106 2.20698,6.16641 0.90965,-26.44626 0.43606,-53.08344 0.56921,-79.60236 -0.17061,-19.87599 0.17164,-39.80959 -0.60389,-59.65038 -0.13035,-0.0811 -0.29415,-0.099 -0.44338,-0.0706 z"
     id="Cuadriceps-1" />
  <path
     style="fill:#f9f9f9;fill-opacity:1;stroke-width:0.634104"
     d="m 393.68908,819.84102 c -0.58797,3.30699 1.66035,6.85817 2.30011,10.14556 1.87693,4.87588 2.07505,10.10961 4.23878,14.88383 12.30423,42.72544 24.67266,85.43819 37.21182,128.09442 1.20721,5.0792 3.31069,9.9268 4.1675,15.0859 1.83832,4.1378 2.47552,8.6986 4.09567,12.95707 1.286,4.583 2.17137,9.5022 4.19227,13.7645 1.61163,-0.022 0.59896,-3.0733 0.69479,-4.0796 -4.52913,-22.06027 -7.12019,-44.48407 -11.70629,-66.54556 -1.77792,-10.58701 -3.9266,-21.23589 -6.29508,-31.62907 -1.50119,-3.05266 -1.77622,-6.77082 -3.55198,-9.81871 -5.74987,-15.8436 -12.65063,-31.2602 -19.26215,-46.74165 -0.95294,-1.31564 -0.50122,-3.32075 -2.05093,-4.02755 -2.50338,-8.77145 -7.11709,-16.86074 -10.20387,-25.39513 -0.74517,-2.29437 -1.90862,-5.21103 -3.83064,-6.69401 z"
     id="Aductores-2" />
  <path
     style="fill:#f9f9f9;fill-opacity:1;stroke-width:0.634104"
     d="m 485.07563,1018.0468 c -5.76634,1.5004 -10.1075,6.3309 -14.22152,10.3984 -3.67343,4.5723 -6.68628,9.8566 -8.58518,15.377 0.41928,8.6542 3.04011,17.0856 4.09944,25.6875 4.41575,23.3583 3.89335,47.265 6.94458,70.7719 2.26648,14.3809 7.71131,27.982 13.57706,41.2006 0.20852,2.0574 2.01782,4.4019 4.22199,2.8597 11.72434,-5.4383 23.10961,-13.3507 29.09268,-25.17 6.08081,-9.4741 7.16476,-21.486 5.45362,-32.4158 -2.15886,-13.1545 -6.16285,-25.9467 -10.2007,-38.6141 -1.72816,-4.3023 -2.91956,-8.7524 -4.93359,-12.9515 -2.60639,-8.1981 -6.46258,-16.0231 -9.55119,-24.0749 -1.61938,-3.3084 -2.91238,-7.0328 -4.30869,-10.3005 -1.61335,-0.6539 -0.94519,-3.4305 -2.18222,-4.6753 -2.87012,-5.9079 -5.05823,-12.2994 -8.44769,-17.8861 -0.27605,-0.1974 -0.62945,-0.2349 -0.95859,-0.2069 z"
     id="Gemelo-2" />
  <path
     style="fill:#f9f9f9;fill-opacity:1;stroke-width:0.634104"
     d="m 506.60545,998.32523 c -6.88344,-0.4201 -10.49514,6.98817 -11.71827,12.69917 -2.25343,5.4538 2.47847,10.6146 4.06443,15.5606 7.64416,15.4796 14.60683,31.3631 18.88208,48.1421 1.39788,3.1355 0.8484,6.7454 2.50903,9.6889 2.8341,15.7075 6.49837,31.2277 8.46735,47.1017 0.62163,4.6667 1.23534,9.5845 4.75101,13.068 2.19875,3.4646 4.9235,6.6195 8.49475,8.6058 4.31131,4.3547 10.43852,6.8845 16.46937,7.2997 3.3235,-0.973 4.06852,-4.6061 3.54712,-7.6166 -0.58146,-21.4001 -5.46438,-42.4085 -10.19207,-63.2005 -2.70073,-11.2123 -6.49108,-22.1907 -9.14325,-33.3791 -1.29442,-4.3017 -2.86852,-8.5694 -3.95077,-12.9794 -1.1493,-3.5261 -3.24726,-6.7101 -3.334,-10.5085 -4.01434,-9.2913 -5.19649,-20.0889 -11.50676,-28.2461 -1.71921,-0.693 -3.14869,-1.7739 -4.56877,-3.0145 -4.17895,-1.502 -8.11919,-3.58427 -12.77125,-3.22127 z"
     id="Gemelo-1" />
  <path
     style="fill:#f9f9f9;fill-opacity:1;stroke-width:0.634104"
     d="m 480.40778,946.2643 c -0.75478,4.43854 0.818,9.38286 1.0044,13.97033 2.39956,15.5097 0.12407,31.2787 -4.58649,46.13047 -0.62704,2.9685 -3.07624,6.4704 -1.46721,9.4364 1.92099,1.1242 3.28364,-1.6179 5.34406,-1.1939 3.90935,-0.7998 8.98179,-1.3156 10.30503,-5.8797 2.21815,-3.68 3.41889,-8.512 6.85913,-11.16927 2.99375,-3.749 8.63635,-3.4653 12.7824,-5.1719 2.60514,-1.5508 -1.00194,-4.2413 -2.20822,-5.4023 -3.84643,-3.697 -7.50752,-7.7575 -10.71413,-11.9823 -0.99778,-1.9208 -3.17256,-3.2515 -3.80247,-5.5457 -0.89469,-1.972 -2.82983,-3.0461 -3.31138,-5.2366 -3.93357,-5.6116 -5.72571,-12.59832 -9.97105,-17.92581 -0.0729,-0.031 -0.15548,-0.0509 -0.23407,-0.0297 z"
     id="NoRanks-5" />
  <path
     style="fill:#f9f9f9;fill-opacity:1;stroke-width:0.634104"
     d="m 263.9863,1002.7293 c -3.41412,0.028 -6.29203,2.0338 -7.25092,5.3528 -2.90384,6.0122 -5.97197,11.9197 -8.17434,18.2079 -3.52164,8.1413 -7.1502,16.4426 -9.36425,24.9866 -1.05004,0.2541 -2.03362,0.7803 -1.34871,2.1661 0.71361,2.474 -2.2738,3.841 -2.05589,6.3683 -3.63851,10.2261 -5.47098,20.9421 -8.31766,31.3919 -3.42051,17.2161 -5.49479,34.7356 -7.12376,52.2195 3.54618,6.5257 6.12346,13.9021 10.4912,19.8343 2.2652,4.8575 7.86155,7.4771 12.16192,10.454 0.83035,1.365 2.0119,1.4764 3.495,1.158 1.46536,0.1386 2.60117,3.1842 3.92105,0.9388 4.85965,-8.9627 7.56661,-19.0036 12.00091,-28.1408 0.6339,-3.8939 3.08176,-7.2279 3.91361,-11.0894 1.90593,-3.5969 2.82856,-7.4845 4.42883,-11.1786 4.18102,-18.4313 3.35659,-37.5284 5.91773,-56.1969 1.18021,-12.2543 3.82057,-24.3844 7.85669,-35.981 0.27552,-3.1982 -2.7071,-5.4421 -3.4789,-8.366 -2.4215,-2.4875 -2.85068,-6.2953 -4.96083,-9.0865 -2.66345,-4.9332 -5.0254,-10.7694 -10.78403,-12.7629 -0.41962,-0.1595 -0.86799,-0.3427 -1.32765,-0.2761 z"
     id="Gemelo-3" />
  <path
     style="fill:#f9f9f9;fill-opacity:1;stroke-width:0.634104"
     d="m 236.59844,995.76283 c -7.36215,0.2293 -14.33017,3.152 -21.42949,4.86717 -2.23769,1.6912 -1.04652,5.466 -1.62985,7.9016 0.20382,4.623 -0.4809,9.0122 -3.19262,12.8682 -11.45916,22.3434 -23.00755,44.9947 -28.7722,69.5763 -5.22858,22.6236 -7.42181,45.9064 -7.80912,69.0878 0.53499,2.4016 4.20691,0.022 5.6928,0.3363 9.6272,-1.3533 19.90017,-4.0742 26.23286,-12.0511 2.78111,-3.7955 6.12879,-7.2131 8.30652,-11.4758 3.22298,-10.5777 3.84203,-21.7971 6.16631,-32.6005 3.0459,-18.9546 7.95225,-37.7922 16.65277,-54.9691 4.4319,-12.7311 10.19736,-25.0898 13.37688,-38.2109 0.30203,-3.7078 -0.30642,-7.6368 -2.34198,-10.7154 -1.78741,-4.60187 -7.06595,-4.79917 -11.25288,-4.61457 z"
     id="Gemelo-4" />
  <path
     style="fill:#f9f9f9;fill-opacity:1;stroke-width:0.634104"
     d="m 269.48145,943.10864 c -8.32311,13.03926 -12.9876,29.26579 -26.09059,38.72419 -2.95983,2.5586 -6.60674,4.4504 -9.48859,6.9734 1.40593,2.3437 5.29974,1.8081 7.60677,2.8126 5.68952,1.0029 9.64355,5.3336 13.02266,9.64657 2.40868,0.6328 4.99059,-2.07737 7.63031,-1.85397 3.02623,-0.9473 5.29982,2.71977 8.08607,1.89237 1.26788,-3.84787 -0.80302,-8.15007 -1.01556,-12.08887 -1.95594,-14.8001 -1.26869,-29.8989 1.23229,-44.57304 -0.006,-0.61123 -0.18835,-1.57253 -0.98336,-1.53325 z"
     id="NoRanks-4" />
  <path
     style="fill:#f9f9f9;fill-opacity:1;stroke-width:0.634104"
     d="m 217.19263,1143.1239 c -4.95471,2.8513 -8.20563,8.011 -12.91244,11.2417 -2.01424,2.4643 -4.89964,3.5105 -7.27486,5.4952 -3.58925,1.49 -6.77461,3.7139 -10.80006,3.8406 -3.91254,1.1471 -9.06222,0.1899 -12.19117,3.1754 -2.13932,5.6151 3.20464,9.969 5.17389,14.6767 2.0823,4.0847 3.81343,8.3822 4.68321,12.8759 1.8454,25.8529 2.02062,51.8156 2.07634,77.7297 -0.19115,21.1771 -0.14791,42.3884 -1.74195,63.5182 -4.79171,0.8391 -6.05617,-1.5985 -5.12032,-6.081 0.0502,-40.2078 2.41217,-80.3903 2.1331,-120.5962 -0.32746,-9.9798 -2.46889,-20.6827 -9.56234,-28.1049 -1.76184,2.2435 -0.7483,5.9724 -1.25864,8.6946 -0.90981,39.1871 -2.53587,78.3546 -3.60298,117.5382 -0.39412,20.2144 -2.24792,40.4193 -1.66148,60.6397 0.13092,8.4184 3.77943,18.0611 12.42456,20.9528 4.85419,3.4583 10.99466,1.9216 15.63207,-1.0318 6.97599,-3.4981 13.07324,-8.986 17.36727,-15.3386 2.93416,-2.3781 3.6698,-6.6512 5.93979,-9.6349 3.80401,-7.4311 7.9199,-14.9101 10.70093,-22.7218 -0.3731,-12.4399 1.52907,-25.3839 -3.08179,-37.2895 -2.53427,-7.5468 -5.32191,-15.317 -9.92398,-21.8246 -2.43631,-1.0126 -1.88184,2.8657 -3.0058,3.983 -2.38691,4.7713 -4.32621,9.7851 -5.95587,14.8259 -2.35197,13.4193 -1.89875,27.1177 -2.15125,40.6842 -4.89674,1.0636 -6.6637,-0.7934 -5.15865,-5.6434 1.45262,-20.8477 4.93724,-41.7627 13.22078,-61.0646 5.39989,-12.9338 11.68057,-25.5428 16.45863,-38.7093 5.41849,-12.9284 10.16043,-26.227 15.52125,-39.2297 1.21192,-5.3218 4.86547,-10.0507 4.87659,-15.6055 -4.17591,-3.5579 -9.93643,-4.9782 -13.81406,-9.0632 -2.82416,-2.5204 -5.53064,-5.4382 -7.19807,-8.7487 -1.72722,-0.7824 -1.24288,-3.1043 -2.65779,-4.3087 -2.72126,-4.7251 -3.60482,-10.717 -7.05689,-14.8804 z"
     id="NoRanks-3" />
  <path
     style="fill:#f9f9f9;fill-opacity:1;stroke-width:0.634104"
     d="m 530.6915,1147.9614 c -3.11206,1.7851 -2.79051,6.4036 -4.9496,9.0998 -5.73502,10.9852 -12.42361,22.6646 -24.06686,28.2393 -3.88137,2.4663 -8.65935,2.9886 -12.56567,5.2388 0.5063,3.3828 3.12248,6.6174 4.45068,9.8689 8.35529,15.9041 17.88726,31.1792 25.19643,47.6301 5.16748,11.472 9.79692,23.207 12.65875,35.4865 3.66549,11.9358 5.61104,24.3635 7.90207,36.6294 0.41057,6.9362 2.494,13.9501 1.81462,20.8597 -1.79245,1.0225 -3.95425,-0.6427 -3.27331,-2.7432 -1.50227,-12.6208 -2.15298,-25.5091 -5.42085,-37.8159 -1.17422,-6.4035 -3.84859,-12.5923 -7.00487,-18.228 -9.60673,7.7711 -13.93958,20.4582 -13.47731,32.5806 0.0186,10.8451 0.1315,21.9796 4.40417,32.1475 5.12684,14.3625 9.65212,30.7865 23.02715,39.7938 5.97761,3.2877 14.42052,6.4452 20.25666,1.1567 7.41063,-6.3829 10.3891,-16.324 11.54144,-25.7183 4.28887,-38.7085 -1.15453,-77.5761 -3.29025,-116.2515 -1.20491,-13.6675 -1.18417,-27.4807 -3.13873,-41.0609 -0.67316,-1.999 -1.5271,1.2144 -1.58402,1.8701 -3.14846,14.5881 -5.60293,29.3703 -7.08414,44.2139 -0.94115,24.0083 -1.14631,48.0846 0.96107,72.039 0.076,6.0764 1.16061,12.3479 0.4186,18.3444 -2.26964,0.9813 -4.77652,-1.6078 -4.2721,-3.987 -1.34095,-26.8432 -1.50371,-53.7644 -0.82965,-80.6317 0.63682,-22.868 3.05691,-45.663 6.52016,-68.2451 0.47306,-7.0683 2.45596,-14.0407 2.62154,-21.095 -1.70751,-2.3174 -5.44373,-2.2629 -8.06873,-2.9228 -2.09989,0.043 -3.27506,-2.1354 -5.46668,-2.3729 -7.14398,-2.6751 -11.7248,-9.0126 -16.97962,-14.1039 -0.0961,-0.036 -0.19898,-0.043 -0.30095,-0.022 z"
     id="NoRanks-2" />
  <path
     style="fill:#f9f9f9;fill-opacity:1;stroke-width:0.634104"
     d="m 377.51076,199.9398 c -0.9479,7.67685 -0.65298,15.71571 -0.26628,23.45071 2.35373,0.15121 3.9257,-3.0532 5.64873,-4.36442 1.69235,-2.1244 3.92404,-3.77987 6.06982,-5.19544 0.78781,-1.48702 3.13377,-1.43446 3.42936,-3.48758 -0.21404,-1.61546 -3.30373,-1.15531 -4.39167,-2.22679 -2.74133,-1.95138 -5.72336,-3.49067 -7.92011,-6.22834 -0.81785,-0.64835 -1.56206,-1.61501 -2.56985,-1.94814 z"
     id="NoRanks-10" />
  <path
     style="fill:#f9f9f9;fill-opacity:1;stroke-width:0.634104"
     d="m 371.79515,199.31313 c -4.28344,2.83787 -8.09956,6.60334 -13.14528,8.23716 -1.41504,0.98221 -5.16393,0.98444 -4.98737,3.29561 2.58398,2.60235 6.48389,3.57732 9.00076,6.38718 2.89873,2.29978 6.28182,4.06222 8.64269,6.85594 2.47381,-0.0933 1.40595,-4.07544 1.69428,-5.619 -0.33172,-6.31567 0.56132,-12.93838 -0.91651,-19.08877 -0.0752,-0.0745 -0.18787,-0.0965 -0.28857,-0.0681 z"
     id="NoRanks-11" />
</svg>
