<?xml version="1.0" encoding="UTF-8" standalone="no"?>
<!-- Created with Inkscape (http://www.inkscape.org/) -->

<svg
   version="1.1"
   id="svg1"
   width="681.95593"
   height="689.61267"
   viewBox="0 0 681.95593 689.61267"
   sodipodi:docname="logo oxyra black.svg"
   inkscape:version="1.4.2 (f4327f4, 2025-05-13)"
   xmlns:inkscape="http://www.inkscape.org/namespaces/inkscape"
   xmlns:sodipodi="http://sodipodi.sourceforge.net/DTD/sodipodi-0.dtd"
   xmlns="http://www.w3.org/2000/svg"
   xmlns:svg="http://www.w3.org/2000/svg">

     <style>
    /* Por defecto (Tema Claro del navegador): Icono Negro */
    path { fill: #000000; }

    /* Cuando el navegador detecta Tema Oscuro: Icono Blanco */
    @media (prefers-color-scheme: dark) {
      path { fill: #ffffff; }
    }
  </style>

  <defs
     id="defs1" />
  <sodipodi:namedview
     id="namedview1"
     pagecolor="#ffffff"
     bordercolor="#000000"
     borderopacity="0.25"
     inkscape:showpageshadow="2"
     inkscape:pageopacity="0.0"
     inkscape:pagecheckerboard="0"
     inkscape:deskcolor="#d1d1d1"
     inkscape:zoom="0.95637199"
     inkscape:cx="339.30312"
     inkscape:cy="333.02941"
     inkscape:window-width="1920"
     inkscape:window-height="1051"
     inkscape:window-x="-9"
     inkscape:window-y="1341"
     inkscape:window-maximized="1"
     inkscape:current-layer="g1" />
  <g
     inkscape:groupmode="layer"
     inkscape:label="Image"
     id="g1"
     transform="translate(-380.51594,-102.7263)">
    <path
       d="m 1037.1859,102.75446 c -22.5527,11.33825 -43.9386,24.94559 -66.10742,37.0032 -15.17049,8.83058 -30.60884,17.21405 -45.69612,26.20156 -7.42349,2.69814 -13.13515,-5.65615 -19.22506,-8.41244 -40.71488,-26.23271 -86.84253,-44.46376 -134.87905,-51.29808 -36.04138,-3.79377 -72.76768,-4.61669 -108.65445,1.02928 -43.62712,7.84587 -85.21053,24.85769 -122.98267,47.87992 -41.09885,26.22743 -76.51184,61.33953 -103.94906,101.58015 -32.03749,49.48945 -51.22021,107.32064 -54.89714,166.15738 -0.19486,28.40513 -1.744,57.22059 5.26981,85.0403 5.2147,28.63502 13.71772,56.66953 26.71548,82.76434 11.33986,24.47054 25.71151,47.63799 42.89694,68.3866 26.86498,-27.159 54.39708,-53.73825 80.28592,-81.80941 -20.06703,-27.37008 -34.04554,-59.14441 -39.70422,-92.66314 -5.24344,-24.32499 -6.3313,-49.58359 -1.13003,-74.01699 4.37077,-26.10449 11.82257,-51.83142 24.9478,-74.9598 20.15125,-37.77523 51.54465,-69.34626 88.58347,-90.68696 7.11165,-2.88967 13.34164,-7.69337 20.76124,-10.21929 13.95134,-5.86589 28.50798,-10.47084 43.13578,-14.21537 40.18714,-7.73865 82.51304,-6.62536 121.29177,7.19217 17.53475,5.61318 34.26171,13.8926 49.88335,23.59176 9.08856,6.15261 17.37225,13.59818 26.53664,19.50527 7.86838,-5.63026 14.51061,-13.80867 21.82321,-20.43856 48.7006,-48.60742 97.64506,-97.02156 144.97131,-146.96451 0.067,-0.0347 0.737,-0.83383 0.1225,-0.64738 z"
       id="path9" />
    <path
       d="m 954.62495,265.75245 c -15.30204,15.62811 -30.94547,30.98524 -45.81523,46.99564 27.35276,40.13257 41.47396,89.03916 40.91235,137.53726 -1.86762,69.51969 -37.70723,136.7081 -93.57127,177.86408 -54.55926,40.81573 -128.35024,55.9182 -194.0435,36.39816 -31.84482,-7.68153 -60.08361,-25.41918 -85.83482,-45.06167 -3.17823,-0.44566 -5.12647,4.96551 -7.83644,6.38172 -54.74089,54.46334 -109.54075,108.8979 -163.18341,164.44003 -2.33958,2.01745 -1.79653,2.9167 0.84548,0.88021 37.70243,-22.30994 75.81299,-43.91573 113.76,-65.77797 4.94277,-4.77548 10.75128,2.82864 14.99808,4.9238 64.71594,43.17381 144.53866,63.75927 222.02273,54.93401 67.13504,-7.42087 131.54528,-35.69447 182.97495,-79.40056 43.14192,-36.05299 77.97173,-82.51172 98.23673,-135.09439 10.0843,-23.14593 15.6413,-48.02932 20.402,-72.73143 7.8627,-50.73622 4.0101,-103.12668 -10.9964,-152.22186 -11.1856,-37.8433 -29.0883,-73.8662 -52.59812,-105.5654 -3.27113,-3.15644 -6.59249,-12.47978 -10.50214,-4.56707 -9.92366,10.02181 -19.84732,20.04363 -29.77099,30.06544 z"
       id="path10" />
  </g>
</svg>
