<svg width="27" height="25" viewBox="0 0 27 25" fill="none" xmlns="http://www.w3.org/2000/svg">
<path d="M12.1406 24.1727C11.9219 24.0415 11.807 23.9048 11.7031 23.6587C11.6375 23.4946 11.6211 23.1719 11.6211 21.7993C11.6211 19.9508 11.5773 19.5462 11.2875 18.7204C10.8555 17.4844 9.95859 16.3141 8.94688 15.6579L8.61328 15.4446V8.43366V1.42819L9.14922 1.02897C9.43906 0.81569 9.89844 0.531315 10.1609 0.400065C11.0414 -0.0264977 10.7406 -0.0100915 16.8984 0.00631477L22.3672 0.022721L22.75 0.148502C23.3187 0.339909 23.7836 0.618815 24.2211 1.03444C24.6531 1.45006 24.9156 1.84381 25.107 2.36881C25.2602 2.79538 26.8242 12.661 26.8242 13.2133C26.8242 13.4048 26.7859 13.7383 26.7367 13.9571C26.4031 15.4337 25.2437 16.4782 23.6687 16.7243C23.4117 16.7626 22.1156 16.7844 19.9336 16.7844C17.2758 16.7844 16.5922 16.8008 16.6141 16.8555C16.9203 17.5665 17.0078 17.8071 17.1227 18.2391C17.3086 18.9829 17.4344 20.0165 17.3961 20.4813C17.232 22.3298 15.9031 23.8118 14.0711 24.1891C13.8195 24.2438 13.3766 24.2766 12.9773 24.2766C12.4195 24.2766 12.2773 24.2602 12.1406 24.1727Z" fill="url(#paint0_linear_18848_105359)"/>
<path d="M1.08281 15.4391C0.749219 15.3188 0.333594 14.9196 0.153125 14.5532L0 14.2415V8.17114V2.10083L0.180469 1.73442C0.371875 1.34067 0.601562 1.11646 1.01172 0.914111C1.25234 0.78833 1.29609 0.78833 3.11719 0.78833C4.91094 0.78833 4.9875 0.793799 5.23359 0.908643C5.56172 1.0563 5.96641 1.46099 6.11406 1.78911L6.23438 2.04614V8.17114V14.2961L6.08672 14.5696C5.93359 14.8704 5.56719 15.2368 5.27187 15.4008C5.10234 15.4883 4.91641 15.4993 3.19922 15.5102C1.62969 15.5211 1.27422 15.5047 1.08281 15.4391Z" fill="url(#paint1_linear_18848_105359)"/>
<defs>
<linearGradient id="paint0_linear_18848_105359" x1="17.7188" y1="0" x2="17.7188" y2="24.2766" gradientUnits="userSpaceOnUse">
<stop stop-color="#91C5FF"/>
<stop offset="1" stop-color="#3781FA"/>
</linearGradient>
<linearGradient id="paint1_linear_18848_105359" x1="3.11719" y1="0.78833" x2="3.11719" y2="15.5133" gradientUnits="userSpaceOnUse">
<stop stop-color="#91C5FF"/>
<stop offset="1" stop-color="#3781FA"/>
</linearGradient>
</defs>
</svg>
