<svg width="28" height="26" viewBox="0 0 28 26" fill="none" xmlns="http://www.w3.org/2000/svg">
<path d="M12.7148 1.01795C12.4961 1.1492 12.3812 1.28592 12.2773 1.53201C12.2117 1.69608 12.1953 2.01873 12.1953 3.39139C12.1953 5.23983 12.1516 5.64451 11.8617 6.47029C11.4297 7.70623 10.5328 8.87654 9.52109 9.53279L9.1875 9.74608V16.757V23.7625L9.72344 24.1617C10.0133 24.375 10.4727 24.6594 10.7352 24.7906C11.6156 25.2172 11.3148 25.2008 17.4727 25.1844L22.9414 25.168L23.3242 25.0422C23.893 24.8508 24.3578 24.5719 24.7953 24.1562C25.2273 23.7406 25.4898 23.3469 25.6812 22.8219C25.8344 22.3953 27.3984 12.5297 27.3984 11.9773C27.3984 11.7859 27.3602 11.4523 27.3109 11.2336C26.9773 9.75701 25.818 8.71248 24.243 8.46639C23.9859 8.42811 22.6898 8.40623 20.5078 8.40623C17.85 8.40623 17.1664 8.38983 17.1883 8.33514C17.4945 7.6242 17.582 7.38358 17.6969 6.95155C17.8828 6.20779 18.0086 5.1742 17.9703 4.70936C17.8062 2.86092 16.4773 1.37889 14.6453 1.00154C14.3937 0.946857 13.9508 0.914045 13.5516 0.914045C12.9937 0.914045 12.8516 0.93045 12.7148 1.01795Z" fill="url(#paint0_linear_18848_105355)"/>
<path d="M1.65703 9.75156C1.32344 9.87187 0.907813 10.2711 0.727344 10.6375L0.574219 10.9492V17.0195V23.0898L0.754688 23.4562C0.946094 23.85 1.17578 24.0742 1.58594 24.2766C1.82656 24.4023 1.87031 24.4023 3.69141 24.4023C5.48516 24.4023 5.56172 24.3969 5.80781 24.282C6.13594 24.1344 6.54063 23.7297 6.68828 23.4016L6.80859 23.1445V17.0195V10.8945L6.66094 10.6211C6.50781 10.3203 6.14141 9.95391 5.84609 9.78984C5.67656 9.70234 5.49062 9.69141 3.77344 9.68047C2.20391 9.66953 1.84844 9.68594 1.65703 9.75156Z" fill="url(#paint1_linear_18848_105355)"/>
<defs>
<linearGradient id="paint0_linear_18848_105355" x1="18.293" y1="25.1907" x2="18.293" y2="0.914045" gradientUnits="userSpaceOnUse">
<stop stop-color="#3781FA"/>
<stop offset="1" stop-color="#91C5FF"/>
</linearGradient>
<linearGradient id="paint1_linear_18848_105355" x1="3.69141" y1="24.4023" x2="3.69141" y2="9.67734" gradientUnits="userSpaceOnUse">
<stop stop-color="#3781FA"/>
<stop offset="1" stop-color="#91C5FF"/>
</linearGradient>
</defs>
</svg>
