<svg width="31" height="22" viewBox="0 0 31 22" fill="none" xmlns="http://www.w3.org/2000/svg">
<path d="M31 2.72856V11.9561C31 11.9561 28.9905 12.3415 28.5754 12.3958C28.1602 12.4501 26.8704 12.8572 25.9293 11.9724C24.4789 10.5828 19.3362 5.56197 19.3362 5.56197C19.013 5.30426 18.6144 5.15426 18.1983 5.13377C17.7822 5.11327 17.3703 5.22333 17.0223 5.44798C15.7159 6.12105 13.7729 7.11437 12.9646 7.49976C12.6921 7.65597 12.3836 7.74183 12.068 7.74927C11.7524 7.75672 11.4401 7.68552 11.1602 7.54234C10.8803 7.39916 10.6421 7.18868 10.4678 6.93061C10.2935 6.67254 10.1888 6.37532 10.1636 6.06677C10.1813 5.71555 10.2998 5.37638 10.5055 5.08829C10.7111 4.80021 10.9956 4.57493 11.3261 4.43838C13.1695 3.35278 17.0611 1.18159 18.683 0.356539C19.6684 -0.186259 20.377 -0.186259 21.7332 0.899337C23.3995 2.30518 24.9107 3.53733 24.9107 3.53733C25.0897 3.66251 25.2942 3.74819 25.5102 3.78848C25.7261 3.82877 25.9484 3.82272 26.1618 3.77074C28.0273 3.39078 31 2.72856 31 2.72856ZM10.5179 18.3177C10.6432 18.0357 10.6845 17.7247 10.637 17.4207C10.5896 17.1167 10.4552 16.832 10.2496 16.5997C10.044 16.3674 9.77549 16.197 9.47517 16.1082C9.17485 16.0193 8.85501 16.0157 8.55268 16.0977C8.64444 15.8196 8.66 15.5228 8.59782 15.237C8.53564 14.9512 8.39789 14.6864 8.19839 14.4693C7.98123 14.2662 7.714 14.122 7.42289 14.0506C7.13177 13.9792 6.82675 13.9832 6.53768 14.0622C6.62871 13.7837 6.64339 13.4866 6.58023 13.2007C6.51707 12.9149 6.3783 12.6504 6.17786 12.4338C5.8191 12.1089 5.34498 11.9343 4.85678 11.9475C4.36857 11.9607 3.90498 12.1605 3.565 12.5044C2.80107 13.2208 2.30839 14.5236 3.01143 15.2943C3.71446 16.0651 4.47286 15.5929 5.07071 15.4572C4.90464 16.038 4.40643 16.5808 5.02089 17.3407C5.63536 18.1006 6.48232 17.6392 7.08018 17.5035C6.91411 18.0843 6.43804 18.676 7.02482 19.3816C7.61161 20.0872 8.59696 19.7127 9.23911 19.5173C8.99 20.1415 8.45857 20.8146 9.13946 21.5745C9.82036 22.3344 11.398 21.9816 12.1675 21.2597C12.5326 20.9441 12.7551 20.4994 12.7862 20.0232C12.8173 19.547 12.6545 19.0781 12.3336 18.7194C12.0994 18.4928 11.8052 18.335 11.4843 18.264C11.1634 18.193 10.8286 18.2116 10.5179 18.3177ZM24.5509 13.5302L18.6111 7.73316C18.3363 7.4812 17.9933 7.31235 17.6231 7.24687C17.2529 7.1814 16.8713 7.22209 16.5241 7.36406C15.6937 7.7223 14.6254 8.21082 13.8171 8.57992C13.2608 8.9048 12.6396 9.10844 11.9959 9.177C11.3206 9.18331 10.6617 8.97283 10.1198 8.57766C9.57787 8.1825 9.18268 7.62435 8.9945 6.98838C8.80631 6.3524 8.83548 5.67353 9.07755 5.05533C9.31961 4.43713 9.76129 3.91355 10.3352 3.56447C11.625 2.70143 14.4427 1.21959 14.4427 1.21959C14.0881 0.854062 13.6573 0.567856 13.1796 0.380505C12.7019 0.193154 12.1887 0.109069 11.6748 0.133992C9.78161 0.133992 5.81804 2.68514 5.81804 2.68514C5.39868 2.89998 4.9348 3.01802 4.46181 3.03025C3.98883 3.04248 3.51925 2.94857 3.08893 2.75571L0 1.70268V12.233C0 12.233 0.880179 12.4826 1.66071 12.7758C1.83802 12.2689 2.13375 11.8098 2.52429 11.435C3.15426 10.8424 3.99179 10.5087 4.86482 10.5027C5.73785 10.4966 6.58011 10.8186 7.21857 11.4025C7.57383 11.7621 7.82921 12.205 7.96036 12.6889C8.44053 12.8355 8.87611 13.0966 9.22803 13.4488C9.58458 13.8152 9.83823 14.2659 9.96428 14.757C10.4704 14.911 10.9265 15.1926 11.2869 15.5736C11.6473 15.9546 11.8994 16.4217 12.018 16.9282C12.5209 17.0685 12.9772 17.3362 13.3411 17.7044C13.6807 18.0526 13.9318 18.4744 14.0742 18.9355C14.2165 19.3967 14.246 19.8842 14.1604 20.3586C14.1604 20.3586 14.6032 20.8472 14.8745 21.1131C15.1299 21.3636 15.4764 21.5043 15.8377 21.5043C16.199 21.5043 16.5454 21.3636 16.8009 21.1131C17.0564 20.8626 17.1999 20.5229 17.1999 20.1687C17.1999 19.8144 17.0564 19.4747 16.8009 19.2242C16.8009 19.2242 17.908 20.5703 19.1702 19.767C20.2773 19.0071 20.1057 18.106 19.5798 17.5958C19.7404 17.7832 19.9396 17.9351 20.1644 18.0415C20.3892 18.1479 20.6344 18.2064 20.8839 18.213C21.1334 18.2197 21.3815 18.1744 21.6119 18.0802C21.8423 17.986 22.0496 17.8449 22.2204 17.6664C22.458 17.4304 22.5971 17.1158 22.6104 16.7844C22.6237 16.453 22.5103 16.1287 22.2923 15.8751C22.2923 15.8751 23.0286 16.8576 24.5066 15.9403C25.5529 15.0718 25.0602 14.0785 24.5066 13.5574L24.5509 13.5302Z" fill="url(#paint0_linear_18848_105395)"/>
<defs>
<linearGradient id="paint0_linear_18848_105395" x1="15.5" y1="0" x2="15.5" y2="22" gradientUnits="userSpaceOnUse">
<stop stop-color="#DFBE92"/>
<stop offset="1" stop-color="#BC8F63"/>
</linearGradient>
</defs>
</svg>
