<svg width="27" height="22" viewBox="0 0 27 22" fill="none" xmlns="http://www.w3.org/2000/svg">
<path d="M6.22242 0.0650806C3.05345 0.586088 0.614567 2.97009 0.0855249 6.05929C-0.0149931 6.65924 -0.0308644 7.76441 0.0590728 8.2591C0.408241 10.2431 1.52452 12.1956 3.60895 14.4586C5.67221 16.7005 9.20093 19.4423 12.7667 21.5685L13.4968 22L14.2744 21.5369C18.5597 19.0108 22.2736 15.9953 24.4426 13.2902C25.7705 11.6325 26.654 9.88527 26.908 8.41698C27.2095 6.6645 26.7598 4.68047 25.7071 3.15955C25.3314 2.61749 24.5802 1.84913 24.03 1.43338C23.5221 1.05447 22.5169 0.538723 21.8979 0.338741C20.5595 -0.0928001 18.9882 -0.113852 17.5915 0.286112C16.1049 0.707129 14.6342 1.74388 13.7189 3.00166C13.6237 3.14376 13.5179 3.25427 13.4968 3.25427C13.4703 3.25427 13.338 3.09639 13.2005 2.90167C12.2376 1.56495 10.6082 0.522936 8.86763 0.144022C8.24865 0.0071907 6.83082 -0.0349102 6.22242 0.0650806Z" fill="url(#paint0_linear_18848_105389)"/>
<path d="M6.22242 0.0650806C3.05345 0.586088 0.614567 2.97009 0.0855249 6.05929C-0.0149931 6.65924 -0.0308644 7.76441 0.0590728 8.2591C0.408241 10.2431 1.52452 12.1956 3.60895 14.4586C5.67221 16.7005 9.20093 19.4423 12.7667 21.5685L13.4968 22L14.2744 21.5369C18.5597 19.0108 22.2736 15.9953 24.4426 13.2902C25.7705 11.6325 26.654 9.88527 26.908 8.41698C27.2095 6.6645 26.7598 4.68047 25.7071 3.15955C25.3314 2.61749 24.5802 1.84913 24.03 1.43338C23.5221 1.05447 22.5169 0.538723 21.8979 0.338741C20.5595 -0.0928001 18.9882 -0.113852 17.5915 0.286112C16.1049 0.707129 14.6342 1.74388 13.7189 3.00166C13.6237 3.14376 13.5179 3.25427 13.4968 3.25427C13.4703 3.25427 13.338 3.09639 13.2005 2.90167C12.2376 1.56495 10.6082 0.522936 8.86763 0.144022C8.24865 0.0071907 6.83082 -0.0349102 6.22242 0.0650806Z" fill="#FF0000" fill-opacity="0.3"/>
<defs>
<linearGradient id="paint0_linear_18848_105389" x1="13.5" y1="0" x2="13.5" y2="22" gradientUnits="userSpaceOnUse">
<stop stop-color="#F29393"/>
<stop offset="1" stop-color="#EF4444"/>
</linearGradient>
</defs>
</svg>
