<svg width="24" height="27" viewBox="0 0 24 27" fill="none" xmlns="http://www.w3.org/2000/svg">
<path d="M15.6572 0.00585938C16.012 -0.0271623 16.3683 0.0816343 16.6348 0.313477C16.8999 0.546571 17.0526 0.878161 17.0527 1.22656C17.0527 5.15511 18.5698 6.61228 20.3281 8.2998C22.0498 9.95045 23.9999 11.8221 24 15.9541C24 23.0773 19.7381 27 12 27C4.48928 27 0.00381026 22.6407 0 15.3408C-0.00126316 13.3563 0.975058 11.0903 1.76074 9.27148L1.9873 8.74316C2.0807 8.52612 2.23181 8.34686 2.41602 8.2168C2.84928 7.91366 3.4372 7.90512 3.88184 8.20703C3.99404 8.28303 4.08976 8.37488 4.16797 8.47656C4.35113 8.71466 4.44662 9.01662 4.41504 9.33203C4.27357 10.7422 4.40737 13.0873 5.15137 13.8838C5.30421 14.0495 5.45468 14.1133 5.68457 14.1133C6.05559 14.1132 6.21993 13.9983 6.33105 13.8867C7.10018 13.1137 6.94732 8.83643 6.94727 8.59082C6.94727 2.51084 12.6446 0.316363 15.6572 0.00585938ZM14.3281 11.5029C12.8217 11.6525 9.97363 12.7095 9.97363 15.6367C9.97383 15.7591 10.0492 17.8147 9.66504 18.1865C9.60947 18.2402 9.52697 18.2949 9.3418 18.2949C9.22702 18.2949 9.15155 18.2643 9.0752 18.1846C8.7035 17.8007 8.63632 16.6719 8.70703 15.9932C8.72282 15.8413 8.67556 15.6957 8.58398 15.5811C8.54486 15.5321 8.49654 15.4877 8.44043 15.4512C8.21816 15.306 7.92453 15.3102 7.70801 15.4561C7.61587 15.5187 7.53988 15.6054 7.49316 15.71L7.38086 15.9639C6.98802 16.8396 6.49937 17.9312 6.5 18.8867C6.50207 22.4012 8.74478 24.5 12.5 24.5C16.3691 24.5 18.5 22.6113 18.5 19.1816C18.5 17.1921 17.5249 16.2909 16.6641 15.4961C15.7849 14.6836 15.0264 13.9823 15.0264 12.0908C15.0264 11.9231 14.9499 11.7636 14.8174 11.6514C14.6841 11.5397 14.5056 11.487 14.3281 11.5029Z" fill="url(#paint0_linear_18848_105386)"/>
<defs>
<linearGradient id="paint0_linear_18848_105386" x1="12" y1="0" x2="12" y2="27" gradientUnits="userSpaceOnUse">
<stop stop-color="#FDBA74"/>
<stop offset="1" stop-color="#F97316"/>
</linearGradient>
</defs>
</svg>
