<svg width="21" height="32" viewBox="0 0 21 32" fill="none" xmlns="http://www.w3.org/2000/svg">
<path d="M12.8545 0.0289183C12.9926 0.132101 12.9926 0.132101 13.1164 0.295161C13.1385 0.4747 13.1451 0.624034 13.138 0.802525C13.1369 0.852439 13.1359 0.902353 13.1348 0.95378C13.1201 1.51285 13.0782 2.07011 13.0333 2.62735C13.0244 2.7426 13.0154 2.85786 13.0065 2.97312C12.9826 3.28224 12.9581 3.59131 12.9335 3.90038C12.9077 4.22503 12.8824 4.54972 12.857 4.8744C12.8144 5.41834 12.7715 5.96224 12.7284 6.50613C12.6785 7.13499 12.6291 7.76389 12.58 8.39281C12.5326 8.99931 12.4849 9.60578 12.4371 10.2122C12.4168 10.4699 12.3966 10.7276 12.3764 10.9853C12.3527 11.2879 12.3288 11.5905 12.3047 11.893C12.2959 12.0041 12.2871 12.1152 12.2785 12.2264C12.2667 12.3777 12.2546 12.5289 12.2424 12.6802C12.2357 12.765 12.229 12.8497 12.2221 12.937C12.1997 13.1414 12.1997 13.1414 12.1343 13.341C12.1782 13.3408 12.2222 13.3405 12.2675 13.3403C13.3369 13.3344 14.4064 13.33 15.4758 13.3272C15.993 13.3259 16.5102 13.324 17.0273 13.321C17.4781 13.3183 17.9288 13.3166 18.3795 13.316C18.6182 13.3156 18.8569 13.3148 19.0956 13.3129C19.362 13.3107 19.6283 13.3107 19.8947 13.3108C20.0136 13.3094 20.0136 13.3094 20.1349 13.3079C20.2074 13.3083 20.28 13.3086 20.3547 13.309C20.4177 13.3088 20.4807 13.3085 20.5456 13.3083C20.7627 13.3511 20.8398 13.4314 20.9737 13.6073C21.0391 13.9686 20.9839 14.157 20.7911 14.4653C20.7086 14.5851 20.6248 14.7039 20.5399 14.822C20.4732 14.9181 20.4732 14.9181 20.405 15.0161C20.3128 15.1487 20.22 15.2808 20.1268 15.4126C19.965 15.6417 19.8063 15.8728 19.6478 16.1043C19.5358 16.2678 19.4232 16.4309 19.3105 16.5939C19.0561 16.962 18.8036 17.3314 18.5511 17.7008C18.2245 18.1784 17.8973 18.6555 17.5689 19.1318C17.0651 19.8627 16.564 20.5955 16.0629 21.3283C15.5247 22.1155 14.9861 22.9023 14.4449 23.6874C14.1539 24.1096 13.8642 24.5326 13.5748 24.9559C13.2482 25.4335 12.921 25.9106 12.5926 26.3869C12.0888 27.1178 11.5877 27.8506 11.0866 28.5834C10.5704 29.3384 10.0541 30.0932 9.53562 30.8465C9.49868 30.9002 9.46175 30.9538 9.42369 31.0092C9.3552 31.1086 9.28659 31.2079 9.21786 31.3072C9.15435 31.3991 9.09123 31.4913 9.02852 31.5838C8.80925 31.9042 8.80925 31.9042 8.66395 31.978C8.19193 32.0167 8.19193 32.0167 8.00205 31.8748C7.83503 31.6549 7.84604 31.4698 7.85666 31.2039C7.85771 31.154 7.85876 31.1041 7.85984 31.0527C7.87445 30.4961 7.9163 29.9414 7.96133 29.3867C7.97029 29.2722 7.97922 29.1578 7.98811 29.0433C8.01206 28.7362 8.03655 28.4292 8.06117 28.1222C8.08695 27.7996 8.11226 27.477 8.13763 27.1544C8.18021 26.6138 8.22313 26.0734 8.26627 25.5329C8.31614 24.9082 8.36554 24.2834 8.41467 23.6587C8.46712 22.9918 8.51991 22.325 8.5728 21.6582C8.58798 21.4664 8.60311 21.2746 8.61822 21.0829C8.64192 20.7822 8.66586 20.4816 8.68996 20.1809C8.69878 20.0706 8.70752 19.9603 8.71617 19.8499C8.72799 19.6995 8.74007 19.5491 8.75223 19.3987C8.75893 19.3146 8.76563 19.2304 8.77253 19.1436C8.7902 18.9767 8.81395 18.8264 8.86038 18.6659C8.81642 18.6661 8.77246 18.6664 8.72716 18.6666C7.65772 18.6725 6.58828 18.6769 5.51883 18.6797C5.00165 18.6811 4.48448 18.6829 3.96731 18.686C3.51658 18.6886 3.06585 18.6903 2.61511 18.6909C2.37641 18.6913 2.13773 18.6921 1.89904 18.694C1.63267 18.6962 1.36633 18.6962 1.09995 18.6961C1.02068 18.6971 0.941419 18.698 0.859752 18.699C0.787219 18.6986 0.714686 18.6983 0.639955 18.6979C0.545436 18.6983 0.545437 18.6983 0.449008 18.6986C0.231738 18.6558 0.154575 18.576 0.0209114 18.3996C-0.0430994 17.9925 0.0397956 17.7799 0.270273 17.4486C0.306825 17.3986 0.343378 17.3487 0.381038 17.2972C0.45957 17.1854 0.538091 17.0736 0.616604 16.9618C0.65831 16.9034 0.700017 16.8449 0.742987 16.7847C0.918571 16.537 1.08928 16.2859 1.26013 16.0348C1.66771 15.4358 2.07926 14.8396 2.4904 14.2431C2.95665 13.5664 3.42026 12.8879 3.88409 12.2095C4.4224 11.4222 4.96117 10.6352 5.50242 9.85002C5.96864 9.17337 6.43224 8.49486 6.89606 7.81651C7.43437 7.0292 7.97314 6.24224 8.51439 5.45702C8.98061 4.78037 9.44421 4.10186 9.90803 3.42351C10.4242 2.66857 10.9405 1.91374 11.459 1.16045C11.496 1.10676 11.5329 1.05308 11.571 0.997768C11.6395 0.898338 11.7081 0.798984 11.7768 0.699724C11.8403 0.607795 11.9034 0.51558 11.9661 0.423082C12.2117 0.0643787 12.4132 -0.063338 12.8545 0.0289183Z" fill="url(#paint0_linear_18848_105390)"/>
<defs>
<linearGradient id="paint0_linear_18848_105390" x1="10.5" y1="0" x2="10.5" y2="32" gradientUnits="userSpaceOnUse">
<stop stop-color="#FEF08A"/>
<stop offset="1" stop-color="#FACC15"/>
</linearGradient>
</defs>
</svg>
