<svg width="38" height="38" viewBox="0 0 38 38" fill="none" xmlns="http://www.w3.org/2000/svg">
<path d="M17.2976 6.29481C17.4329 6.29344 17.4329 6.29344 17.5709 6.29205C18.2598 6.29093 18.8879 6.30035 19.4453 6.75404C19.7841 7.09282 19.9448 7.50303 19.9776 7.97778C19.956 8.47509 19.7883 8.8433 19.4453 9.20325C18.9198 9.65309 18.3319 9.59536 17.6832 9.57899C14.9925 9.52249 12.379 10.4572 10.3164 12.172C10.2734 12.2078 10.2304 12.2435 10.186 12.2804C8.11218 14.0352 6.78867 16.6533 6.47162 19.3431C6.23185 22.2496 6.94753 25.2539 8.85525 27.5167C8.99309 27.6741 9.13457 27.8277 9.27737 27.9806C9.31589 28.0227 9.35441 28.0647 9.39409 28.1081C10.0505 28.8193 10.7652 29.3871 11.5781 29.9103C11.6217 29.9388 11.6653 29.9673 11.7102 29.9966C12.8082 30.7045 14.0887 31.1351 15.3633 31.3947C15.4396 31.4113 15.5158 31.428 15.5944 31.4451C18.3459 31.9454 21.3509 31.2343 23.6572 29.674C26.1114 27.9378 27.7182 25.3903 28.2635 22.4374C28.3961 21.6465 28.4348 20.8522 28.4153 20.0515C28.4029 19.4538 28.422 19.0258 28.8424 18.5748C29.2561 18.1886 29.6709 18.0681 30.2323 18.0817C30.6896 18.1461 31.1052 18.3578 31.3946 18.7218C31.7383 19.31 31.7178 19.9845 31.7146 20.6469C31.7142 20.7385 31.7138 20.8301 31.7134 20.9245C31.6623 24.8395 29.9273 28.3269 27.196 31.0665C24.4006 33.7165 20.6326 34.9718 16.8229 34.8895C13.4738 34.7779 10.2584 33.4335 7.80343 31.1685C7.67473 31.0511 7.54458 30.9412 7.40798 30.8334C7.13554 30.5973 6.91149 30.3341 6.67971 30.0587C6.62298 29.9937 6.56624 29.9286 6.50779 29.8616C4.06273 27.0147 2.86202 23.2574 3.13341 19.5192C3.49483 15.5994 5.28757 12.0393 8.31252 9.50013C10.8656 7.44197 14.0176 6.29655 17.2976 6.29481Z" fill="url(#paint0_linear_18848_105391)"/>
<path d="M27.2382 3.9337C27.4998 4.07994 27.6613 4.23815 27.7578 4.52745C27.7645 4.71147 27.7671 4.89334 27.7662 5.07734C27.7662 5.13311 27.7662 5.18888 27.7662 5.24634C27.7662 5.43067 27.7656 5.61499 27.765 5.79932C27.7649 5.92713 27.7648 6.05494 27.7647 6.18275C27.7644 6.51914 27.7637 6.85553 27.7628 7.19193C27.7621 7.53519 27.7617 7.87846 27.7614 8.22172C27.7606 8.89525 27.7593 9.56877 27.7578 10.2423C27.8639 10.2416 27.8639 10.2416 27.9722 10.2408C28.6394 10.2363 29.3067 10.2329 29.9739 10.2308C30.3169 10.2296 30.6599 10.228 31.003 10.2255C31.334 10.2231 31.6651 10.2217 31.9962 10.2212C32.1225 10.2208 32.2487 10.22 32.375 10.2188C32.552 10.2171 32.7289 10.2169 32.9059 10.217C32.958 10.2162 33.0101 10.2154 33.0638 10.2146C33.461 10.2171 33.6912 10.323 33.9782 10.5902C34.1064 10.8398 34.1274 11.0853 34.0663 11.3556C33.8671 11.6831 33.6361 11.9563 33.366 12.2259C33.3266 12.2658 33.2872 12.3057 33.2467 12.3468C33.1173 12.4775 32.9874 12.6078 32.8574 12.7379C32.7664 12.8294 32.6754 12.9209 32.5844 13.0123C32.3939 13.2037 32.2031 13.3948 32.0121 13.5858C31.7688 13.8291 31.5265 14.0733 31.2845 14.3179C31.0969 14.5072 30.9087 14.6957 30.7202 14.8841C30.6307 14.9738 30.5414 15.0638 30.4523 15.1539C29.9659 15.6461 29.5047 16.1021 28.871 16.4025C28.8171 16.429 28.7632 16.4556 28.7076 16.4829C28.3026 16.6516 27.992 16.6158 27.5679 16.5309C26.29 16.2764 24.6755 16.0976 23.5012 16.8043C21.8822 17.914 20.5428 19.5299 19.2702 21.008C19.225 21.0603 19.1798 21.1127 19.1332 21.1667C19.0498 21.2638 18.967 21.3613 18.8847 21.4593C18.553 21.8467 18.2048 22.165 17.6747 22.2092C17.1667 22.2205 16.7345 22.2281 16.3281 21.8946C15.9536 21.4865 15.7977 21.1686 15.79 20.6097C15.7881 20.5274 15.7862 20.445 15.7842 20.3601C15.874 19.4497 16.8226 18.8066 17.4745 18.2559C20.2334 16.0896 20.2334 16.0896 21.6098 13.0423C21.6743 12.1855 21.6003 11.3058 21.4474 10.4622C21.3248 9.75707 21.4873 9.26376 21.8531 8.65716C22.2026 8.16499 22.6484 7.75085 23.0756 7.32718C23.1691 7.23368 23.2626 7.14014 23.3561 7.04657C23.551 6.85167 23.7463 6.65715 23.9419 6.46292C24.1924 6.21408 24.4421 5.96442 24.6915 5.71448C24.884 5.52172 25.0769 5.32933 25.2699 5.13706C25.3622 5.0451 25.4543 4.95305 25.5464 4.86088C25.6747 4.73246 25.8036 4.60454 25.9326 4.47674C25.9893 4.41977 25.9893 4.41977 26.0471 4.36166C26.4078 4.00633 26.7193 3.8341 27.2382 3.9337Z" fill="#A5B4FC"/>
<path d="M16.9221 13.1365C17.2889 13.4993 17.5067 13.9025 17.5205 14.4263C17.4938 14.9738 17.3095 15.3595 16.9126 15.7353C16.641 15.923 16.364 16.0227 16.0547 16.1331C14.7506 16.6224 13.7777 17.3798 13.1555 18.6519C12.6077 19.9392 12.6517 21.2293 13.1607 22.5124C13.7287 23.7228 14.6516 24.5126 15.8831 25.0115C17.1825 25.4146 18.4734 25.2914 19.68 24.6746C20.8669 24.0239 21.5218 22.9823 21.9539 21.7218C22.1117 21.2617 22.331 20.9294 22.7529 20.679C23.192 20.4814 23.686 20.4773 24.1463 20.6074C24.579 20.7989 24.8958 21.1276 25.0963 21.5542C25.3947 22.4466 24.9314 23.3993 24.5527 24.1997C23.566 26.0822 21.9589 27.5096 19.9271 28.1661C17.7878 28.8234 15.5721 28.612 13.5823 27.6092C13.2664 27.432 12.9782 27.2366 12.6917 27.0154C12.6335 26.9708 12.6335 26.9708 12.5741 26.9253C10.919 25.6407 9.91279 23.8666 9.53069 21.8068C9.4024 20.6118 9.43781 19.4077 9.79712 18.2576C9.81263 18.207 9.82814 18.1563 9.84412 18.1042C10.1989 16.9819 10.7932 16.0153 11.5784 15.1404C11.6275 15.0843 11.6765 15.0283 11.7271 14.9705C12.7886 13.8304 15.3684 12.0573 16.9221 13.1365Z" fill="#818CF8"/>
<defs>
<linearGradient id="paint0_linear_18848_105391" x1="17.4058" y1="6.29199" x2="17.4058" y2="34.8933" gradientUnits="userSpaceOnUse">
<stop stop-color="#A5B4FC"/>
<stop offset="1" stop-color="#6366F1"/>
</linearGradient>
</defs>
</svg>
