<svg width="24" height="25" viewBox="0 0 24 25" fill="none" xmlns="http://www.w3.org/2000/svg">
<path d="M12 20.2101C14.1217 20.2101 16.1566 19.3673 17.6569 17.867C19.1571 16.3667 20 14.3318 20 12.2101C20 10.0884 19.1571 8.05355 17.6569 6.55326C16.1566 5.05297 14.1217 4.21011 12 4.21011C9.87827 4.21011 7.84344 5.05297 6.34315 6.55326C4.84285 8.05355 4 10.0884 4 12.2101C4 14.3318 4.84285 16.3667 6.34315 17.867C7.84344 19.3673 9.87827 20.2101 12 20.2101ZM12 22.2101C6.477 22.2101 2 17.7331 2 12.2101C2 6.68711 6.477 2.21011 12 2.21011C17.523 2.21011 22 6.68711 22 12.2101C22 17.7331 17.523 22.2101 12 22.2101ZM11 11.2101V17.2101H13V11.2101H11ZM11 7.21011H13V9.21011H11V7.21011Z" fill="white"/>
</svg>
