<svg width="24" height="25" viewBox="0 0 24 25" fill="none" xmlns="http://www.w3.org/2000/svg">
<path d="M12 17.2101C11.4696 17.2101 10.9609 16.9994 10.5858 16.6243C10.2107 16.2493 10 15.7405 10 15.2101C10 14.1001 10.89 13.2101 12 13.2101C12.5304 13.2101 13.0391 13.4208 13.4142 13.7959C13.7893 14.171 14 14.6797 14 15.2101C14 15.7405 13.7893 16.2493 13.4142 16.6243C13.0391 16.9994 12.5304 17.2101 12 17.2101ZM18 20.2101V10.2101H6V20.2101H18ZM18 8.21011C18.5304 8.21011 19.0391 8.42083 19.4142 8.7959C19.7893 9.17097 20 9.67968 20 10.2101V20.2101C20 20.7405 19.7893 21.2493 19.4142 21.6243C19.0391 21.9994 18.5304 22.2101 18 22.2101H6C5.46957 22.2101 4.96086 21.9994 4.58579 21.6243C4.21071 21.2493 4 20.7405 4 20.2101V10.2101C4 9.10011 4.89 8.21011 6 8.21011H7V6.21011C7 4.88403 7.52679 3.61226 8.46447 2.67458C9.40215 1.7369 10.6739 1.21011 12 1.21011C12.6566 1.21011 13.3068 1.33944 13.9134 1.59072C14.5201 1.84199 15.0712 2.21029 15.5355 2.67458C15.9998 3.13887 16.3681 3.69007 16.6194 4.2967C16.8707 4.90332 17 5.5535 17 6.21011V8.21011H18ZM12 3.21011C11.2044 3.21011 10.4413 3.52618 9.87868 4.08879C9.31607 4.6514 9 5.41446 9 6.21011V8.21011H15V6.21011C15 5.41446 14.6839 4.6514 14.1213 4.08879C13.5587 3.52618 12.7957 3.21011 12 3.21011Z" fill="white"/>
</svg>
