<svg width="30" height="31" viewBox="0 0 30 31" fill="none" xmlns="http://www.w3.org/2000/svg">
<path d="M5 9.46011H25M12.5 14.4601V21.9601M17.5 14.4601V21.9601M6.25 9.46011L7.5 24.4601C7.5 25.1232 7.76339 25.759 8.23223 26.2279C8.70107 26.6967 9.33696 26.9601 10 26.9601H20C20.663 26.9601 21.2989 26.6967 21.7678 26.2279C22.2366 25.759 22.5 25.1232 22.5 24.4601L23.75 9.46011M11.25 9.46011V5.71011C11.25 5.37859 11.3817 5.06065 11.6161 4.82623C11.8505 4.59181 12.1685 4.46011 12.5 4.46011H17.5C17.8315 4.46011 18.1495 4.59181 18.3839 4.82623C18.6183 5.06065 18.75 5.37859 18.75 5.71011V9.46011" stroke="#FF4B4B" stroke-width="2.17" stroke-linecap="round" stroke-linejoin="round"/>
</svg>
