<svg width="25" height="25" viewBox="0 0 25 25" fill="none" xmlns="http://www.w3.org/2000/svg">
<path d="M6.49994 11.2101H10.9999V12.7101H6.49994V11.2101ZM6.49994 5.21011H15.4999V6.71011H6.49994V5.21011ZM6.49994 8.21011H15.4999V9.71011H6.49994V8.21011ZM6.49994 18.7101H10.9999V20.2101H6.49994V18.7101ZM20.7499 19.4601H16.2499C15.6532 19.4601 15.0809 19.6972 14.6589 20.1191C14.237 20.5411 13.9999 21.1134 13.9999 21.7101V23.2101H15.4999V21.7101C15.4999 21.5112 15.579 21.3204 15.7196 21.1798C15.8603 21.0391 16.051 20.9601 16.2499 20.9601H20.7499C20.9489 20.9601 21.1396 21.0391 21.2803 21.1798C21.4209 21.3204 21.4999 21.5112 21.4999 21.7101V23.2101H22.9999V21.7101C22.9999 21.1134 22.7629 20.5411 22.3409 20.1191C21.919 19.6972 21.3467 19.4601 20.7499 19.4601ZM18.4999 18.7101C19.0933 18.7101 19.6733 18.5342 20.1666 18.2045C20.66 17.8749 21.0445 17.4063 21.2716 16.8582C21.4986 16.31 21.5581 15.7068 21.4423 15.1248C21.3265 14.5429 21.0408 14.0084 20.6213 13.5888C20.2017 13.1692 19.6672 12.8835 19.0852 12.7678C18.5033 12.652 17.9001 12.7114 17.3519 12.9385C16.8037 13.1655 16.3352 13.5501 16.0055 14.0434C15.6759 14.5368 15.4999 15.1168 15.4999 15.7101C15.4999 16.5058 15.816 17.2688 16.3786 17.8314C16.9412 18.394 17.7043 18.7101 18.4999 18.7101ZM18.4999 14.2101C18.7966 14.2101 19.0866 14.2981 19.3333 14.4629C19.58 14.6277 19.7722 14.862 19.8858 15.1361C19.9993 15.4102 20.029 15.7118 19.9711 16.0027C19.9132 16.2937 19.7704 16.561 19.5606 16.7708C19.3508 16.9806 19.0835 17.1234 18.7926 17.1813C18.5016 17.2392 18.2 17.2095 17.9259 17.0959C17.6518 16.9824 17.4176 16.7901 17.2527 16.5435C17.0879 16.2968 16.9999 16.0068 16.9999 15.7101C16.9999 15.3123 17.158 14.9308 17.4393 14.6495C17.7206 14.3681 18.1021 14.2101 18.4999 14.2101Z" fill="white"/>
<path d="M10.9999 23.2101H4.99994C4.60211 23.2101 4.22058 23.0521 3.93928 22.7708C3.65797 22.4895 3.49994 22.1079 3.49994 21.7101V3.71011C3.49994 3.31229 3.65797 2.93076 3.93928 2.64945C4.22058 2.36815 4.60211 2.21011 4.99994 2.21011H16.9999C17.3978 2.21011 17.7793 2.36815 18.0606 2.64945C18.3419 2.93076 18.4999 3.31229 18.4999 3.71011V11.2101H16.9999V3.71011H4.99994V21.7101H10.9999V23.2101Z" fill="white"/>
</svg>
