<svg width="25" height="25" viewBox="0 0 25 25" fill="none" xmlns="http://www.w3.org/2000/svg">
<g clip-path="url(#clip0_4057_1199)">
<path fill-rule="evenodd" clip-rule="evenodd" d="M11.4999 4.71011C11.106 4.71011 10.7159 4.78771 10.3519 4.93848C9.98791 5.08924 9.65719 5.31022 9.37862 5.58879C9.10004 5.86737 8.87906 6.19809 8.7283 6.56206C8.57754 6.92604 8.49994 7.31615 8.49994 7.71011C8.49994 8.10408 8.57754 8.49419 8.7283 8.85816C8.87906 9.22214 9.10004 9.55286 9.37862 9.83143C9.65719 10.11 9.98791 10.331 10.3519 10.4818C10.7159 10.6325 11.106 10.7101 11.4999 10.7101C12.2956 10.7101 13.0587 10.394 13.6213 9.83143C14.1839 9.26883 14.4999 8.50576 14.4999 7.71011C14.4999 6.91446 14.1839 6.1514 13.6213 5.58879C13.0587 5.02618 12.2956 4.71011 11.4999 4.71011ZM6.49994 7.71011C6.49994 6.38403 7.02672 5.11226 7.96441 4.17458C8.90209 3.2369 10.1739 2.71011 11.4999 2.71011C12.826 2.71011 14.0978 3.2369 15.0355 4.17458C15.9732 5.11226 16.4999 6.38403 16.4999 7.71011C16.4999 9.0362 15.9732 10.308 15.0355 11.2456C14.0978 12.1833 12.826 12.7101 11.4999 12.7101C10.1739 12.7101 8.90209 12.1833 7.96441 11.2456C7.02672 10.308 6.49994 9.0362 6.49994 7.71011ZM4.91294 18.3111C4.58994 18.7211 4.49994 19.0311 4.49994 19.2101C4.49994 19.3321 4.53694 19.4611 4.75494 19.6361C5.00394 19.8361 5.43694 20.0431 6.09894 20.2181C7.41694 20.5681 9.31094 20.7101 11.4999 20.7101C11.7219 20.7101 11.9409 20.7081 12.1579 20.7051C12.4232 20.7015 12.6789 20.8035 12.869 20.9885C13.0591 21.1735 13.1679 21.4264 13.1714 21.6916C13.175 21.9568 13.0731 22.2126 12.8881 22.4027C12.7031 22.5927 12.4502 22.7015 12.1849 22.7051C11.9589 22.7081 11.7299 22.7101 11.4999 22.7101C9.27094 22.7101 7.16494 22.5701 5.58694 22.1521C4.80194 21.9441 4.06294 21.6461 3.50294 21.1961C2.90994 20.7201 2.49994 20.0551 2.49994 19.2101C2.49994 18.4231 2.85794 17.6871 3.34394 17.0711C3.83794 16.4461 4.52094 15.8711 5.32194 15.3811C6.92494 14.4051 9.10494 13.7101 11.4999 13.7101C11.9469 13.7101 12.3869 13.7341 12.8159 13.7801C13.0797 13.8081 13.3215 13.9397 13.4883 14.146C13.655 14.3523 13.7329 14.6164 13.7049 14.8801C13.677 15.1439 13.5453 15.3857 13.3391 15.5524C13.1328 15.7192 12.8687 15.7971 12.6049 15.7691C12.2449 15.7301 11.8749 15.7101 11.4999 15.7101C9.47694 15.7101 7.65694 16.3001 6.36394 17.0891C5.71694 17.4831 5.22794 17.9111 4.91294 18.3111ZM18.8159 14.7611C18.6108 14.6928 18.3891 14.6928 18.1839 14.7611L15.1839 15.7611C14.9847 15.8275 14.8115 15.9548 14.6887 16.1252C14.5659 16.2955 14.4999 16.5001 14.4999 16.7101V18.3811C14.4998 19.4507 14.8941 20.4828 15.6074 21.2799C16.3207 22.077 17.3029 22.583 18.3659 22.7011C18.4559 22.7111 18.5449 22.7111 18.6339 22.7011C19.697 22.583 20.6792 22.077 21.3925 21.2799C22.1058 20.4828 22.5001 19.4507 22.4999 18.3811V16.7101C22.5 16.5001 22.434 16.2955 22.3112 16.1252C22.1884 15.9548 22.0151 15.8275 21.8159 15.7611L18.8159 14.7611ZM16.4999 18.3811V17.4311L18.4999 16.7641L20.4999 17.4311V18.3811C20.4999 19.5481 19.6449 20.5311 18.4999 20.7021C17.9439 20.6192 17.4361 20.3394 17.0691 19.9136C16.702 19.4878 16.5 18.9443 16.4999 18.3821V18.3811Z" fill="white"/>
</g>
<defs>
<clipPath id="clip0_4057_1199">
<rect width="24" height="24" fill="white" transform="translate(0.499939 0.710114)"/>
</clipPath>
</defs>
</svg>
