<svg width="25" height="25" viewBox="0 0 25 25" fill="none" xmlns="http://www.w3.org/2000/svg">
<path fill-rule="evenodd" clip-rule="evenodd" d="M18.4999 10.25C19.0967 10.25 19.669 10.0129 20.0909 9.59099C20.5129 9.16903 20.7499 8.59674 20.7499 8C20.7499 7.40326 20.5129 6.83097 20.0909 6.40901C19.669 5.98705 19.0967 5.75 18.4999 5.75C17.9032 5.75 17.3309 5.98705 16.9089 6.40901C16.487 6.83097 16.2499 7.40326 16.2499 8C16.2499 8.59674 16.487 9.16903 16.9089 9.59099C17.3309 10.0129 17.9032 10.25 18.4999 10.25ZM18.4999 12.5C19.3416 12.4999 20.1663 12.2638 20.8805 11.8185C21.5947 11.3732 22.1697 10.7365 22.5401 9.98083C22.9106 9.22512 23.0617 8.38066 22.9763 7.54337C22.8909 6.70608 22.5724 5.90952 22.057 5.24417C21.5416 4.57882 20.8499 4.07135 20.0605 3.77941C19.2711 3.48746 18.4157 3.42274 17.5914 3.59259C16.7671 3.76245 16.0069 4.16007 15.3972 4.7403C14.7876 5.32052 14.3528 6.06009 14.1424 6.875H3.12494C2.82657 6.875 2.54042 6.99353 2.32944 7.20451C2.11847 7.41548 1.99994 7.70163 1.99994 8C1.99994 8.29837 2.11847 8.58452 2.32944 8.7955C2.54042 9.00647 2.82657 9.125 3.12494 9.125H14.1424C14.3919 10.091 14.9552 10.9468 15.744 11.5577C16.5328 12.1686 17.5022 12.5001 18.4999 12.5ZM8.74994 17C8.74994 17.5967 8.51289 18.169 8.09093 18.591C7.66897 19.0129 7.09668 19.25 6.49994 19.25C5.9032 19.25 5.33091 19.0129 4.90895 18.591C4.48699 18.169 4.24994 17.5967 4.24994 17C4.24994 16.4033 4.48699 15.831 4.90895 15.409C5.33091 14.9871 5.9032 14.75 6.49994 14.75C7.09668 14.75 7.66897 14.9871 8.09093 15.409C8.51289 15.831 8.74994 16.4033 8.74994 17ZM10.8574 18.125C10.5816 19.1835 9.92972 20.1054 9.02368 20.7183C8.11763 21.3312 7.01941 21.5933 5.93424 21.4554C4.84908 21.3176 3.85123 20.7894 3.12718 19.9694C2.40312 19.1494 2.00242 18.0939 1.99994 17C1.99957 15.9045 2.39886 14.8464 3.12294 14.0243C3.84701 13.2021 4.84614 12.6724 5.93294 12.5343C7.01975 12.3963 8.11959 12.6595 9.0262 13.2745C9.93281 13.8895 10.5839 14.8142 10.8574 15.875H21.8749C22.1733 15.875 22.4595 15.9935 22.6704 16.2045C22.8814 16.4155 22.9999 16.7016 22.9999 17C22.9999 17.2984 22.8814 17.5845 22.6704 17.7955C22.4595 18.0065 22.1733 18.125 21.8749 18.125H10.8574Z" fill="white"/>
</svg>
