<svg width="25" height="25" viewBox="0 0 25 25" fill="none" xmlns="http://www.w3.org/2000/svg">
<path d="M6.49994 6.71011C6.49994 6.4449 6.6053 6.19054 6.79283 6.00301C6.98037 5.81547 7.23472 5.71011 7.49994 5.71011H17.4999C17.7652 5.71011 18.0195 5.81547 18.207 6.00301C18.3946 6.19054 18.4999 6.4449 18.4999 6.71011C18.4999 6.97533 18.3946 7.22968 18.207 7.41722C18.0195 7.60476 17.7652 7.71011 17.4999 7.71011H7.49994C7.23472 7.71011 6.98037 7.60476 6.79283 7.41722C6.6053 7.22968 6.49994 6.97533 6.49994 6.71011ZM6.49994 10.7101C6.49994 10.4449 6.6053 10.1905 6.79283 10.003C6.98037 9.81547 7.23472 9.71011 7.49994 9.71011H17.4999C17.7652 9.71011 18.0195 9.81547 18.207 10.003C18.3946 10.1905 18.4999 10.4449 18.4999 10.7101C18.4999 10.9753 18.3946 11.2297 18.207 11.4172C18.0195 11.6048 17.7652 11.7101 17.4999 11.7101H7.49994C7.23472 11.7101 6.98037 11.6048 6.79283 11.4172C6.6053 11.2297 6.49994 10.9753 6.49994 10.7101ZM7.49994 13.7101C7.23472 13.7101 6.98037 13.8155 6.79283 14.003C6.6053 14.1905 6.49994 14.4449 6.49994 14.7101C6.49994 14.9753 6.6053 15.2297 6.79283 15.4172C6.98037 15.6048 7.23472 15.7101 7.49994 15.7101H17.4999C17.7652 15.7101 18.0195 15.6048 18.207 15.4172C18.3946 15.2297 18.4999 14.9753 18.4999 14.7101C18.4999 14.4449 18.3946 14.1905 18.207 14.003C18.0195 13.8155 17.7652 13.7101 17.4999 13.7101H7.49994ZM6.49994 18.7101C6.49994 18.4449 6.6053 18.1905 6.79283 18.003C6.98037 17.8155 7.23472 17.7101 7.49994 17.7101H11.4999C11.7652 17.7101 12.0195 17.8155 12.207 18.003C12.3946 18.1905 12.4999 18.4449 12.4999 18.7101C12.4999 18.9753 12.3946 19.2297 12.207 19.4172C12.0195 19.6048 11.7652 19.7101 11.4999 19.7101H7.49994C7.23472 19.7101 6.98037 19.6048 6.79283 19.4172C6.6053 19.2297 6.49994 18.9753 6.49994 18.7101Z" fill="white"/>
<path fill-rule="evenodd" clip-rule="evenodd" d="M2.49994 4.71011C2.49994 3.91446 2.81601 3.1514 3.37862 2.58879C3.94123 2.02618 4.70429 1.71011 5.49994 1.71011H19.4999C20.2956 1.71011 21.0587 2.02618 21.6213 2.58879C22.1839 3.1514 22.4999 3.91446 22.4999 4.71011V20.7101C22.4999 21.5058 22.1839 22.2688 21.6213 22.8314C21.0587 23.394 20.2956 23.7101 19.4999 23.7101H5.49994C4.70429 23.7101 3.94123 23.394 3.37862 22.8314C2.81601 22.2688 2.49994 21.5058 2.49994 20.7101V4.71011ZM5.49994 3.71011H19.4999C19.7652 3.71011 20.0195 3.81547 20.207 4.00301C20.3946 4.19054 20.4999 4.4449 20.4999 4.71011V20.7101C20.4999 20.9753 20.3946 21.2297 20.207 21.4172C20.0195 21.6048 19.7652 21.7101 19.4999 21.7101H5.49994C5.23472 21.7101 4.98037 21.6048 4.79283 21.4172C4.6053 21.2297 4.49994 20.9753 4.49994 20.7101V4.71011C4.49994 4.4449 4.6053 4.19054 4.79283 4.00301C4.98037 3.81547 5.23472 3.71011 5.49994 3.71011Z" fill="white"/>
</svg>
