<svg width="358" height="435" viewBox="0 0 358 435" fill="none" xmlns="http://www.w3.org/2000/svg">
<rect y="0.5" width="358" height="434" rx="24" fill="#1E1E1E"/>
<path d="M23.52 40.74C22.1867 40.74 21.0267 40.4467 20.04 39.86C19.0533 39.26 18.2867 38.4267 17.74 37.36C17.1933 36.28 16.92 35.0267 16.92 33.6C16.92 32.16 17.2 30.8933 17.76 29.8C18.32 28.6933 19.1267 27.8267 20.18 27.2C21.2333 26.5733 22.4933 26.26 23.96 26.26C25.6 26.26 26.96 26.6533 28.04 27.44C29.1333 28.2267 29.84 29.32 30.16 30.72H27.14C26.94 30.1067 26.5667 29.6267 26.02 29.28C25.4867 28.92 24.7933 28.74 23.94 28.74C23.0333 28.74 22.26 28.94 21.62 29.34C20.98 29.74 20.4933 30.3 20.16 31.02C19.8267 31.74 19.66 32.6 19.66 33.6C19.66 34.6133 19.8267 35.4733 20.16 36.18C20.4933 36.8867 20.9667 37.4267 21.58 37.8C22.2067 38.16 22.94 38.34 23.78 38.34C25.0067 38.34 25.9333 38.0133 26.56 37.36C27.2 36.6933 27.58 35.8333 27.7 34.78H24.26V32.76H30.42V40.5H27.92L27.72 38.72C27.4267 39.16 27.08 39.5333 26.68 39.84C26.2933 40.1333 25.84 40.3533 25.32 40.5C24.8 40.66 24.2 40.74 23.52 40.74ZM36.2864 40.74C35.4464 40.74 34.7531 40.6067 34.2064 40.34C33.6597 40.06 33.2531 39.6933 32.9864 39.24C32.7331 38.7733 32.6064 38.26 32.6064 37.7C32.6064 37.0867 32.7597 36.5467 33.0664 36.08C33.3864 35.6133 33.8597 35.2467 34.4864 34.98C35.1264 34.7133 35.9264 34.58 36.8864 34.58H39.3864C39.3864 34.0867 39.3197 33.68 39.1864 33.36C39.0531 33.0267 38.8464 32.78 38.5664 32.62C38.2864 32.46 37.9131 32.38 37.4464 32.38C36.9397 32.38 36.5064 32.4933 36.1464 32.72C35.7997 32.9333 35.5864 33.2667 35.5064 33.72H32.8864C32.9531 33 33.1864 32.38 33.5864 31.86C33.9997 31.3267 34.5397 30.9133 35.2064 30.62C35.8864 30.3267 36.6397 30.18 37.4664 30.18C38.4131 30.18 39.2331 30.34 39.9264 30.66C40.6197 30.98 41.1531 31.44 41.5264 32.04C41.8997 32.64 42.0864 33.38 42.0864 34.26V40.5H39.8064L39.5064 38.96C39.3597 39.2267 39.1864 39.4667 38.9864 39.68C38.7864 39.8933 38.5531 40.08 38.2864 40.24C38.0197 40.4 37.7197 40.52 37.3864 40.6C37.0531 40.6933 36.6864 40.74 36.2864 40.74ZM36.9264 38.66C37.2731 38.66 37.5797 38.6 37.8464 38.48C38.1264 38.3467 38.3664 38.1733 38.5664 37.96C38.7664 37.7333 38.9197 37.48 39.0264 37.2C39.1464 36.9067 39.2264 36.5933 39.2664 36.26V36.24H37.2064C36.7931 36.24 36.4531 36.2933 36.1864 36.4C35.9331 36.4933 35.7464 36.6333 35.6264 36.82C35.5064 37.0067 35.4464 37.22 35.4464 37.46C35.4464 37.7267 35.5064 37.9467 35.6264 38.12C35.7464 38.2933 35.9197 38.4267 36.1464 38.52C36.3731 38.6133 36.6331 38.66 36.9264 38.66ZM44.6052 40.5V30.42H46.9852L47.1852 32.06C47.4918 31.5 47.9252 31.0467 48.4852 30.7C49.0585 30.3533 49.7385 30.18 50.5252 30.18C51.3652 30.18 52.0718 30.3533 52.6452 30.7C53.2185 31.0467 53.6518 31.5533 53.9452 32.22C54.2518 32.8867 54.4052 33.7067 54.4052 34.68V40.5H51.7252V34.94C51.7252 34.14 51.5518 33.5267 51.2052 33.1C50.8718 32.6733 50.3518 32.46 49.6452 32.46C49.1918 32.46 48.7852 32.5667 48.4252 32.78C48.0785 32.9933 47.8052 33.3 47.6052 33.7C47.4052 34.0867 47.3052 34.56 47.3052 35.12V40.5H44.6052ZM60.3489 40.74C59.5089 40.74 58.8156 40.6067 58.2689 40.34C57.7222 40.06 57.3156 39.6933 57.0489 39.24C56.7956 38.7733 56.6689 38.26 56.6689 37.7C56.6689 37.0867 56.8222 36.5467 57.1289 36.08C57.4489 35.6133 57.9222 35.2467 58.5489 34.98C59.1889 34.7133 59.9889 34.58 60.9489 34.58H63.4489C63.4489 34.0867 63.3822 33.68 63.2489 33.36C63.1156 33.0267 62.9089 32.78 62.6289 32.62C62.3489 32.46 61.9756 32.38 61.5089 32.38C61.0022 32.38 60.5689 32.4933 60.2089 32.72C59.8622 32.9333 59.6489 33.2667 59.5689 33.72H56.9489C57.0156 33 57.2489 32.38 57.6489 31.86C58.0622 31.3267 58.6022 30.9133 59.2689 30.62C59.9489 30.3267 60.7022 30.18 61.5289 30.18C62.4756 30.18 63.2956 30.34 63.9889 30.66C64.6822 30.98 65.2156 31.44 65.5889 32.04C65.9622 32.64 66.1489 33.38 66.1489 34.26V40.5H63.8689L63.5689 38.96C63.4222 39.2267 63.2489 39.4667 63.0489 39.68C62.8489 39.8933 62.6156 40.08 62.3489 40.24C62.0822 40.4 61.7822 40.52 61.4489 40.6C61.1156 40.6933 60.7489 40.74 60.3489 40.74ZM60.9889 38.66C61.3356 38.66 61.6422 38.6 61.9089 38.48C62.1889 38.3467 62.4289 38.1733 62.6289 37.96C62.8289 37.7333 62.9822 37.48 63.0889 37.2C63.2089 36.9067 63.2889 36.5933 63.3289 36.26V36.24H61.2689C60.8556 36.24 60.5156 36.2933 60.2489 36.4C59.9956 36.4933 59.8089 36.6333 59.6889 36.82C59.5689 37.0067 59.5089 37.22 59.5089 37.46C59.5089 37.7267 59.5689 37.9467 59.6889 38.12C59.8089 38.2933 59.9822 38.4267 60.2089 38.52C60.4356 38.6133 60.6956 38.66 60.9889 38.66ZM68.6677 40.5V30.42H71.0477L71.2477 32.06C71.5543 31.5 71.9877 31.0467 72.5477 30.7C73.121 30.3533 73.801 30.18 74.5877 30.18C75.4277 30.18 76.1343 30.3533 76.7077 30.7C77.281 31.0467 77.7143 31.5533 78.0077 32.22C78.3143 32.8867 78.4677 33.7067 78.4677 34.68V40.5H75.7877V34.94C75.7877 34.14 75.6143 33.5267 75.2677 33.1C74.9343 32.6733 74.4143 32.46 73.7077 32.46C73.2543 32.46 72.8477 32.5667 72.4877 32.78C72.141 32.9933 71.8677 33.3 71.6677 33.7C71.4677 34.0867 71.3677 34.56 71.3677 35.12V40.5H68.6677ZM85.8914 40.74C84.8781 40.74 83.9781 40.5133 83.1914 40.06C82.4047 39.6067 81.7914 38.9867 81.3514 38.2C80.9114 37.4133 80.6914 36.5133 80.6914 35.5C80.6914 34.46 80.9114 33.5467 81.3514 32.76C81.7914 31.96 82.4047 31.3333 83.1914 30.88C83.9781 30.4133 84.8781 30.18 85.8914 30.18C87.1847 30.18 88.2714 30.52 89.1514 31.2C90.0314 31.88 90.5914 32.8133 90.8314 34H87.9714C87.8514 33.5333 87.5981 33.1667 87.2114 32.9C86.8381 32.6333 86.3914 32.5 85.8714 32.5C85.4047 32.5 84.9847 32.62 84.6114 32.86C84.2514 33.0867 83.9647 33.4267 83.7514 33.88C83.5514 34.32 83.4514 34.8467 83.4514 35.46C83.4514 35.9267 83.5114 36.3467 83.6314 36.72C83.7514 37.08 83.9181 37.3933 84.1314 37.66C84.3447 37.9133 84.5981 38.1067 84.8914 38.24C85.1981 38.3733 85.5247 38.44 85.8714 38.44C86.2181 38.44 86.5314 38.38 86.8114 38.26C87.1047 38.14 87.3514 37.9733 87.5514 37.76C87.7514 37.5333 87.8914 37.26 87.9714 36.94H90.8314C90.5914 38.1 90.0247 39.0267 89.1314 39.72C88.2514 40.4 87.1714 40.74 85.8914 40.74ZM93.2198 40.5V30.42H95.9198V40.5H93.2198ZM94.5798 29.04C94.0998 29.04 93.6998 28.9 93.3798 28.62C93.0732 28.3267 92.9198 27.96 92.9198 27.52C92.9198 27.08 93.0732 26.72 93.3798 26.44C93.6998 26.1467 94.0998 26 94.5798 26C95.0732 26 95.4732 26.1467 95.7798 26.44C96.0998 26.72 96.2598 27.08 96.2598 27.52C96.2598 27.96 96.0998 28.3267 95.7798 28.62C95.4732 28.9 95.0732 29.04 94.5798 29.04ZM102.048 40.74C101.208 40.74 100.515 40.6067 99.9681 40.34C99.4215 40.06 99.0148 39.6933 98.7481 39.24C98.4948 38.7733 98.3681 38.26 98.3681 37.7C98.3681 37.0867 98.5215 36.5467 98.8281 36.08C99.1481 35.6133 99.6215 35.2467 100.248 34.98C100.888 34.7133 101.688 34.58 102.648 34.58H105.148C105.148 34.0867 105.081 33.68 104.948 33.36C104.815 33.0267 104.608 32.78 104.328 32.62C104.048 32.46 103.675 32.38 103.208 32.38C102.701 32.38 102.268 32.4933 101.908 32.72C101.561 32.9333 101.348 33.2667 101.268 33.72H98.6481C98.7148 33 98.9481 32.38 99.3481 31.86C99.7615 31.3267 100.301 30.9133 100.968 30.62C101.648 30.3267 102.401 30.18 103.228 30.18C104.175 30.18 104.995 30.34 105.688 30.66C106.381 30.98 106.915 31.44 107.288 32.04C107.661 32.64 107.848 33.38 107.848 34.26V40.5H105.568L105.268 38.96C105.121 39.2267 104.948 39.4667 104.748 39.68C104.548 39.8933 104.315 40.08 104.048 40.24C103.781 40.4 103.481 40.52 103.148 40.6C102.815 40.6933 102.448 40.74 102.048 40.74ZM102.688 38.66C103.035 38.66 103.341 38.6 103.608 38.48C103.888 38.3467 104.128 38.1733 104.328 37.96C104.528 37.7333 104.681 37.48 104.788 37.2C104.908 36.9067 104.988 36.5933 105.028 36.26V36.24H102.968C102.555 36.24 102.215 36.2933 101.948 36.4C101.695 36.4933 101.508 36.6333 101.388 36.82C101.268 37.0067 101.208 37.22 101.208 37.46C101.208 37.7267 101.268 37.9467 101.388 38.12C101.508 38.2933 101.681 38.4267 101.908 38.52C102.135 38.6133 102.395 38.66 102.688 38.66ZM115.134 40.5V26.5H118.354L122.634 35.24L126.874 26.5H130.094V40.5H127.394V31.1L123.694 38.54H121.554L117.834 31.1V40.5H115.134ZM136.549 40.74C135.735 40.74 135.035 40.5733 134.449 40.24C133.875 39.8933 133.435 39.3933 133.129 38.74C132.822 38.0733 132.669 37.2533 132.669 36.28V30.42H135.369V36C135.369 36.8133 135.535 37.4267 135.869 37.84C136.215 38.2533 136.742 38.46 137.449 38.46C137.902 38.46 138.302 38.36 138.649 38.16C138.995 37.9467 139.269 37.6467 139.469 37.26C139.682 36.86 139.789 36.3733 139.789 35.8V30.42H142.469V40.5H140.109L139.889 38.86C139.595 39.4333 139.162 39.8933 138.589 40.24C138.015 40.5733 137.335 40.74 136.549 40.74ZM149.233 40.74C148.313 40.74 147.513 40.5933 146.833 40.3C146.153 40.0067 145.62 39.6 145.233 39.08C144.846 38.56 144.626 37.9733 144.573 37.32H147.253C147.32 37.5733 147.433 37.8067 147.593 38.02C147.753 38.22 147.966 38.38 148.233 38.5C148.5 38.62 148.82 38.68 149.193 38.68C149.553 38.68 149.846 38.6333 150.073 38.54C150.3 38.4333 150.466 38.2933 150.573 38.12C150.693 37.9467 150.753 37.7667 150.753 37.58C150.753 37.3 150.673 37.0867 150.513 36.94C150.353 36.78 150.12 36.6533 149.813 36.56C149.506 36.4667 149.133 36.3733 148.693 36.28C148.213 36.1867 147.74 36.0733 147.273 35.94C146.82 35.7933 146.413 35.6133 146.053 35.4C145.693 35.1867 145.406 34.9133 145.193 34.58C144.98 34.2467 144.873 33.8333 144.873 33.34C144.873 32.74 145.033 32.2067 145.353 31.74C145.673 31.26 146.14 30.88 146.753 30.6C147.366 30.32 148.106 30.18 148.973 30.18C150.186 30.18 151.146 30.4533 151.853 31C152.56 31.5467 152.98 32.3 153.113 33.26H150.573C150.493 32.9533 150.313 32.7133 150.033 32.54C149.766 32.3533 149.406 32.26 148.953 32.26C148.473 32.26 148.106 32.3467 147.853 32.52C147.6 32.6933 147.473 32.92 147.473 33.2C147.473 33.3867 147.553 33.5533 147.713 33.7C147.886 33.8467 148.126 33.9733 148.433 34.08C148.74 34.1733 149.113 34.2667 149.553 34.36C150.326 34.52 151.006 34.7067 151.593 34.92C152.18 35.12 152.64 35.4133 152.973 35.8C153.306 36.1733 153.473 36.72 153.473 37.44C153.473 38.08 153.3 38.6533 152.953 39.16C152.606 39.6533 152.113 40.04 151.473 40.32C150.846 40.6 150.1 40.74 149.233 40.74ZM160.638 40.74C159.624 40.74 158.724 40.5133 157.938 40.06C157.151 39.6067 156.538 38.9867 156.098 38.2C155.658 37.4133 155.438 36.5133 155.438 35.5C155.438 34.46 155.658 33.5467 156.098 32.76C156.538 31.96 157.151 31.3333 157.938 30.88C158.724 30.4133 159.624 30.18 160.638 30.18C161.931 30.18 163.018 30.52 163.898 31.2C164.778 31.88 165.338 32.8133 165.578 34H162.718C162.598 33.5333 162.344 33.1667 161.958 32.9C161.584 32.6333 161.138 32.5 160.618 32.5C160.151 32.5 159.731 32.62 159.358 32.86C158.998 33.0867 158.711 33.4267 158.498 33.88C158.298 34.32 158.198 34.8467 158.198 35.46C158.198 35.9267 158.258 36.3467 158.378 36.72C158.498 37.08 158.664 37.3933 158.878 37.66C159.091 37.9133 159.344 38.1067 159.638 38.24C159.944 38.3733 160.271 38.44 160.618 38.44C160.964 38.44 161.278 38.38 161.558 38.26C161.851 38.14 162.098 37.9733 162.298 37.76C162.498 37.5333 162.638 37.26 162.718 36.94H165.578C165.338 38.1 164.771 39.0267 163.878 39.72C162.998 40.4 161.918 40.74 160.638 40.74ZM171.666 40.74C170.853 40.74 170.153 40.5733 169.566 40.24C168.993 39.8933 168.553 39.3933 168.246 38.74C167.939 38.0733 167.786 37.2533 167.786 36.28V30.42H170.486V36C170.486 36.8133 170.653 37.4267 170.986 37.84C171.333 38.2533 171.859 38.46 172.566 38.46C173.019 38.46 173.419 38.36 173.766 38.16C174.113 37.9467 174.386 37.6467 174.586 37.26C174.799 36.86 174.906 36.3733 174.906 35.8V30.42H177.586V40.5H175.226L175.006 38.86C174.713 39.4333 174.279 39.8933 173.706 40.24C173.133 40.5733 172.453 40.74 171.666 40.74ZM180.23 40.5V26.1H182.93V40.5H180.23ZM188.962 40.74C188.122 40.74 187.429 40.6067 186.882 40.34C186.336 40.06 185.929 39.6933 185.662 39.24C185.409 38.7733 185.282 38.26 185.282 37.7C185.282 37.0867 185.436 36.5467 185.742 36.08C186.062 35.6133 186.536 35.2467 187.162 34.98C187.802 34.7133 188.602 34.58 189.562 34.58H192.062C192.062 34.0867 191.996 33.68 191.862 33.36C191.729 33.0267 191.522 32.78 191.242 32.62C190.962 32.46 190.589 32.38 190.122 32.38C189.616 32.38 189.182 32.4933 188.822 32.72C188.476 32.9333 188.262 33.2667 188.182 33.72H185.562C185.629 33 185.862 32.38 186.262 31.86C186.676 31.3267 187.216 30.9133 187.882 30.62C188.562 30.3267 189.316 30.18 190.142 30.18C191.089 30.18 191.909 30.34 192.602 30.66C193.296 30.98 193.829 31.44 194.202 32.04C194.576 32.64 194.762 33.38 194.762 34.26V40.5H192.482L192.182 38.96C192.036 39.2267 191.862 39.4667 191.662 39.68C191.462 39.8933 191.229 40.08 190.962 40.24C190.696 40.4 190.396 40.52 190.062 40.6C189.729 40.6933 189.362 40.74 188.962 40.74ZM189.602 38.66C189.949 38.66 190.256 38.6 190.522 38.48C190.802 38.3467 191.042 38.1733 191.242 37.96C191.442 37.7333 191.596 37.48 191.702 37.2C191.822 36.9067 191.902 36.5933 191.942 36.26V36.24H189.882C189.469 36.24 189.129 36.2933 188.862 36.4C188.609 36.4933 188.422 36.6333 188.302 36.82C188.182 37.0067 188.122 37.22 188.122 37.46C188.122 37.7267 188.182 37.9467 188.302 38.12C188.422 38.2933 188.596 38.4267 188.822 38.52C189.049 38.6133 189.309 38.66 189.602 38.66ZM197.281 40.5V30.42H199.681L199.941 32.28C200.181 31.84 200.481 31.4667 200.841 31.16C201.214 30.8533 201.634 30.6133 202.101 30.44C202.581 30.2667 203.108 30.18 203.681 30.18V33.04H202.761C202.361 33.04 201.988 33.0867 201.641 33.18C201.308 33.2733 201.014 33.4267 200.761 33.64C200.508 33.84 200.314 34.12 200.181 34.48C200.048 34.84 199.981 35.2933 199.981 35.84V40.5H197.281Z" fill="#F9FAFB"/>
<rect x="16" y="58.5" width="14" height="14" rx="3" fill="#22C55E"/>
<path d="M40.284 70.668C39.5933 70.668 38.9727 70.514 38.422 70.206C37.8807 69.8887 37.456 69.4547 37.148 68.904C36.8493 68.344 36.7 67.7093 36.7 67C36.7 66.2627 36.8493 65.6187 37.148 65.068C37.456 64.508 37.8807 64.0693 38.422 63.752C38.9727 63.4347 39.598 63.276 40.298 63.276C41.1753 63.276 41.9127 63.5093 42.51 63.976C43.1073 64.4333 43.49 65.0633 43.658 65.866H41.894C41.8007 65.5113 41.6047 65.2313 41.306 65.026C41.0167 64.8207 40.6713 64.718 40.27 64.718C39.9247 64.718 39.6073 64.8067 39.318 64.984C39.038 65.1613 38.814 65.418 38.646 65.754C38.4873 66.09 38.408 66.496 38.408 66.972C38.408 67.336 38.4547 67.658 38.548 67.938C38.6413 68.218 38.772 68.456 38.94 68.652C39.1173 68.8387 39.318 68.9833 39.542 69.086C39.766 69.1887 40.0087 69.24 40.27 69.24C40.5407 69.24 40.7833 69.198 40.998 69.114C41.222 69.0207 41.4087 68.8853 41.558 68.708C41.7167 68.5307 41.8287 68.3207 41.894 68.078H43.658C43.49 68.862 43.1073 69.492 42.51 69.968C41.9127 70.4347 41.1707 70.668 40.284 70.668ZM48.5678 70.668C47.8958 70.668 47.2892 70.514 46.7478 70.206C46.2158 69.8887 45.7958 69.4547 45.4878 68.904C45.1892 68.344 45.0398 67.7047 45.0398 66.986C45.0398 66.2487 45.1938 65.6047 45.5018 65.054C45.8098 64.494 46.2298 64.06 46.7618 63.752C47.3032 63.4347 47.9098 63.276 48.5818 63.276C49.2538 63.276 49.8558 63.4347 50.3878 63.752C50.9292 64.06 51.3492 64.4893 51.6478 65.04C51.9558 65.5907 52.1098 66.2347 52.1098 66.972C52.1098 67.7093 51.9558 68.3533 51.6478 68.904C51.3398 69.4547 50.9152 69.8887 50.3738 70.206C49.8418 70.514 49.2398 70.668 48.5678 70.668ZM48.5678 69.226C48.9038 69.226 49.2072 69.142 49.4778 68.974C49.7578 68.806 49.9818 68.554 50.1498 68.218C50.3178 67.882 50.4018 67.4667 50.4018 66.972C50.4018 66.4773 50.3178 66.0667 50.1498 65.74C49.9912 65.404 49.7718 65.152 49.4918 64.984C49.2212 64.816 48.9178 64.732 48.5818 64.732C48.2552 64.732 47.9518 64.816 47.6718 64.984C47.3918 65.152 47.1678 65.404 46.9998 65.74C46.8318 66.0667 46.7478 66.4773 46.7478 66.972C46.7478 67.4667 46.8318 67.882 46.9998 68.218C47.1678 68.554 47.3872 68.806 47.6578 68.974C47.9378 69.142 48.2412 69.226 48.5678 69.226ZM53.7544 70.5V63.444H55.2384L55.3644 64.62C55.5791 64.2093 55.8871 63.8827 56.2884 63.64C56.6897 63.3973 57.1657 63.276 57.7164 63.276C58.2857 63.276 58.7711 63.3973 59.1724 63.64C59.5737 63.8733 59.8817 64.2187 60.0964 64.676C60.3204 65.1333 60.4324 65.7027 60.4324 66.384V70.5H58.7524V66.538C58.7524 65.95 58.6217 65.4973 58.3604 65.18C58.0991 64.8627 57.7117 64.704 57.1984 64.704C56.8624 64.704 56.5591 64.7833 56.2884 64.942C56.0271 65.1007 55.8171 65.334 55.6584 65.642C55.5091 65.9407 55.4344 66.3047 55.4344 66.734V70.5H53.7544ZM68.9676 70.668C68.2583 70.668 67.6283 70.542 67.0776 70.29C66.5269 70.038 66.0976 69.6787 65.7896 69.212C65.4816 68.7453 65.3229 68.19 65.3136 67.546H67.0916C67.0916 67.8727 67.1663 68.1667 67.3156 68.428C67.4743 68.68 67.6889 68.8807 67.9596 69.03C68.2396 69.1793 68.5756 69.254 68.9676 69.254C69.3036 69.254 69.5929 69.2027 69.8356 69.1C70.0876 68.988 70.2789 68.834 70.4096 68.638C70.5496 68.4327 70.6196 68.1947 70.6196 67.924C70.6196 67.616 70.5449 67.364 70.3956 67.168C70.2556 66.9627 70.0596 66.79 69.8076 66.65C69.5556 66.51 69.2663 66.3887 68.9396 66.286C68.6129 66.174 68.2676 66.0573 67.9036 65.936C67.1289 65.6747 66.5456 65.3433 66.1536 64.942C65.7616 64.5313 65.5656 63.9853 65.5656 63.304C65.5656 62.7347 65.7009 62.2447 65.9716 61.834C66.2423 61.4233 66.6203 61.106 67.1056 60.882C67.6003 60.6487 68.1696 60.532 68.8136 60.532C69.4669 60.532 70.0363 60.6487 70.5216 60.882C71.0163 61.1153 71.4036 61.442 71.6836 61.862C71.9729 62.2727 72.1223 62.7673 72.1316 63.346H70.3396C70.3303 63.1033 70.2649 62.8793 70.1436 62.674C70.0223 62.4593 69.8449 62.2867 69.6116 62.156C69.3876 62.016 69.1123 61.946 68.7856 61.946C68.5056 61.9367 68.2536 61.9833 68.0296 62.086C67.8149 62.1793 67.6423 62.3193 67.5116 62.506C67.3903 62.6833 67.3296 62.9073 67.3296 63.178C67.3296 63.4393 67.3856 63.6587 67.4976 63.836C67.6189 64.004 67.7916 64.1487 68.0156 64.27C68.2396 64.382 68.5009 64.4893 68.7996 64.592C69.0983 64.6947 69.4249 64.8067 69.7796 64.928C70.2649 65.0867 70.7036 65.2827 71.0956 65.516C71.4969 65.74 71.8143 66.034 72.0476 66.398C72.2809 66.762 72.3976 67.2333 72.3976 67.812C72.3976 68.316 72.2669 68.7873 72.0056 69.226C71.7443 69.6553 71.3616 70.0053 70.8576 70.276C70.3536 70.5373 69.7236 70.668 68.9676 70.668ZM74.8291 73.58L76.5511 69.716H76.1311L73.3171 63.444H75.1511L77.2511 68.232L79.2391 63.444H81.0171L76.6071 73.58H74.8291ZM82.2329 70.5V63.444H83.7169L83.8569 64.41C84.0809 64.0553 84.3749 63.78 84.7389 63.584C85.1123 63.3787 85.5369 63.276 86.0129 63.276C86.3676 63.276 86.6849 63.3227 86.9649 63.416C87.2543 63.5093 87.5063 63.6493 87.7209 63.836C87.9449 64.0227 88.1269 64.256 88.2669 64.536C88.5283 64.144 88.8689 63.836 89.2889 63.612C89.7089 63.388 90.1663 63.276 90.6609 63.276C91.2489 63.276 91.7483 63.3973 92.1589 63.64C92.5696 63.8733 92.8823 64.2233 93.0969 64.69C93.3116 65.1473 93.4189 65.712 93.4189 66.384V70.5H91.7529V66.552C91.7529 65.9547 91.6316 65.4973 91.3889 65.18C91.1463 64.8627 90.7869 64.704 90.3109 64.704C89.9843 64.704 89.6949 64.7833 89.4429 64.942C89.2003 65.1007 89.0089 65.334 88.8689 65.642C88.7289 65.9407 88.6589 66.3093 88.6589 66.748V70.5H86.9929V66.552C86.9929 65.9547 86.8716 65.4973 86.6289 65.18C86.3863 64.8627 86.0223 64.704 85.5369 64.704C85.2289 64.704 84.9489 64.7833 84.6969 64.942C84.4543 65.1007 84.2629 65.334 84.1229 65.642C83.9829 65.9407 83.9129 66.3093 83.9129 66.748V70.5H82.2329ZM95.1939 70.5V63.444H96.6779L96.8179 64.41C97.0419 64.0553 97.3359 63.78 97.6999 63.584C98.0732 63.3787 98.4979 63.276 98.9739 63.276C99.3285 63.276 99.6459 63.3227 99.9259 63.416C100.215 63.5093 100.467 63.6493 100.682 63.836C100.906 64.0227 101.088 64.256 101.228 64.536C101.489 64.144 101.83 63.836 102.25 63.612C102.67 63.388 103.127 63.276 103.622 63.276C104.21 63.276 104.709 63.3973 105.12 63.64C105.531 63.8733 105.843 64.2233 106.058 64.69C106.273 65.1473 106.38 65.712 106.38 66.384V70.5H104.714V66.552C104.714 65.9547 104.593 65.4973 104.35 65.18C104.107 64.8627 103.748 64.704 103.272 64.704C102.945 64.704 102.656 64.7833 102.404 64.942C102.161 65.1007 101.97 65.334 101.83 65.642C101.69 65.9407 101.62 66.3093 101.62 66.748V70.5H99.9539V66.552C99.9539 65.9547 99.8325 65.4973 99.5899 65.18C99.3472 64.8627 98.9832 64.704 98.4979 64.704C98.1899 64.704 97.9099 64.7833 97.6579 64.942C97.4152 65.1007 97.2239 65.334 97.0839 65.642C96.9439 65.9407 96.8739 66.3093 96.8739 66.748V70.5H95.1939ZM111.459 70.668C110.759 70.668 110.143 70.5187 109.611 70.22C109.079 69.912 108.663 69.4827 108.365 68.932C108.066 68.3813 107.917 67.7467 107.917 67.028C107.917 66.2813 108.061 65.628 108.351 65.068C108.649 64.508 109.065 64.0693 109.597 63.752C110.138 63.4347 110.763 63.276 111.473 63.276C112.163 63.276 112.765 63.43 113.279 63.738C113.792 64.046 114.189 64.4613 114.469 64.984C114.749 65.4973 114.889 66.076 114.889 66.72C114.889 66.8133 114.889 66.916 114.889 67.028C114.889 67.14 114.879 67.2567 114.861 67.378H109.121V66.3H113.195C113.176 65.7867 113.003 65.3853 112.677 65.096C112.35 64.7973 111.944 64.648 111.459 64.648C111.113 64.648 110.796 64.7273 110.507 64.886C110.217 65.0447 109.989 65.2827 109.821 65.6C109.653 65.908 109.569 66.3 109.569 66.776V67.182C109.569 67.6207 109.648 67.9987 109.807 68.316C109.975 68.6333 110.199 68.876 110.479 69.044C110.768 69.2027 111.09 69.282 111.445 69.282C111.837 69.282 112.159 69.198 112.411 69.03C112.672 68.862 112.863 68.638 112.985 68.358H114.693C114.562 68.7967 114.347 69.1933 114.049 69.548C113.75 69.8933 113.381 70.1687 112.943 70.374C112.504 70.57 112.009 70.668 111.459 70.668ZM119.369 70.5C118.893 70.5 118.478 70.4253 118.123 70.276C117.778 70.1267 117.507 69.8793 117.311 69.534C117.115 69.1887 117.017 68.722 117.017 68.134V64.858H115.813V63.444H117.017L117.213 61.582H118.697V63.444H120.615V64.858H118.697V68.134C118.697 68.4887 118.772 68.736 118.921 68.876C119.08 69.0067 119.341 69.072 119.705 69.072H120.573V70.5H119.369ZM122.196 70.5V63.444H123.694L123.848 64.76C124.016 64.452 124.226 64.1907 124.478 63.976C124.73 63.752 125.024 63.5793 125.36 63.458C125.705 63.3367 126.083 63.276 126.494 63.276V65.054H125.906C125.626 65.054 125.36 65.0913 125.108 65.166C124.856 65.2313 124.636 65.3433 124.45 65.502C124.272 65.6513 124.132 65.8613 124.03 66.132C123.927 66.3933 123.876 66.7247 123.876 67.126V70.5H122.196ZM128.614 73.58L130.336 69.716H129.916L127.102 63.444H128.936L131.036 68.232L133.024 63.444H134.802L130.392 73.58H128.614Z" fill="#B0B0B0"/>
<rect x="16" y="84.5" width="14" height="14" rx="3" fill="#FF1A1E"/>
<path d="M40.284 96.668C39.5933 96.668 38.9727 96.514 38.422 96.206C37.8807 95.8887 37.456 95.4547 37.148 94.904C36.8493 94.344 36.7 93.7093 36.7 93C36.7 92.2627 36.8493 91.6187 37.148 91.068C37.456 90.508 37.8807 90.0693 38.422 89.752C38.9727 89.4347 39.598 89.276 40.298 89.276C41.1753 89.276 41.9127 89.5093 42.51 89.976C43.1073 90.4333 43.49 91.0633 43.658 91.866H41.894C41.8007 91.5113 41.6047 91.2313 41.306 91.026C41.0167 90.8207 40.6713 90.718 40.27 90.718C39.9247 90.718 39.6073 90.8067 39.318 90.984C39.038 91.1613 38.814 91.418 38.646 91.754C38.4873 92.09 38.408 92.496 38.408 92.972C38.408 93.336 38.4547 93.658 38.548 93.938C38.6413 94.218 38.772 94.456 38.94 94.652C39.1173 94.8387 39.318 94.9833 39.542 95.086C39.766 95.1887 40.0087 95.24 40.27 95.24C40.5407 95.24 40.7833 95.198 40.998 95.114C41.222 95.0207 41.4087 94.8853 41.558 94.708C41.7167 94.5307 41.8287 94.3207 41.894 94.078H43.658C43.49 94.862 43.1073 95.492 42.51 95.968C41.9127 96.4347 41.1707 96.668 40.284 96.668ZM48.5678 96.668C47.8958 96.668 47.2892 96.514 46.7478 96.206C46.2158 95.8887 45.7958 95.4547 45.4878 94.904C45.1892 94.344 45.0398 93.7047 45.0398 92.986C45.0398 92.2487 45.1938 91.6047 45.5018 91.054C45.8098 90.494 46.2298 90.06 46.7618 89.752C47.3032 89.4347 47.9098 89.276 48.5818 89.276C49.2538 89.276 49.8558 89.4347 50.3878 89.752C50.9292 90.06 51.3492 90.4893 51.6478 91.04C51.9558 91.5907 52.1098 92.2347 52.1098 92.972C52.1098 93.7093 51.9558 94.3533 51.6478 94.904C51.3398 95.4547 50.9152 95.8887 50.3738 96.206C49.8418 96.514 49.2398 96.668 48.5678 96.668ZM48.5678 95.226C48.9038 95.226 49.2072 95.142 49.4778 94.974C49.7578 94.806 49.9818 94.554 50.1498 94.218C50.3178 93.882 50.4018 93.4667 50.4018 92.972C50.4018 92.4773 50.3178 92.0667 50.1498 91.74C49.9912 91.404 49.7718 91.152 49.4918 90.984C49.2212 90.816 48.9178 90.732 48.5818 90.732C48.2552 90.732 47.9518 90.816 47.6718 90.984C47.3918 91.152 47.1678 91.404 46.9998 91.74C46.8318 92.0667 46.7478 92.4773 46.7478 92.972C46.7478 93.4667 46.8318 93.882 46.9998 94.218C47.1678 94.554 47.3872 94.806 47.6578 94.974C47.9378 95.142 48.2412 95.226 48.5678 95.226ZM53.7544 96.5V89.444H55.2384L55.3644 90.62C55.5791 90.2093 55.8871 89.8827 56.2884 89.64C56.6897 89.3973 57.1657 89.276 57.7164 89.276C58.2857 89.276 58.7711 89.3973 59.1724 89.64C59.5737 89.8733 59.8817 90.2187 60.0964 90.676C60.3204 91.1333 60.4324 91.7027 60.4324 92.384V96.5H58.7524V92.538C58.7524 91.95 58.6217 91.4973 58.3604 91.18C58.0991 90.8627 57.7117 90.704 57.1984 90.704C56.8624 90.704 56.5591 90.7833 56.2884 90.942C56.0271 91.1007 55.8171 91.334 55.6584 91.642C55.5091 91.9407 55.4344 92.3047 55.4344 92.734V96.5H53.7544ZM65.6216 96.5V89.444H67.1056L67.2456 90.41C67.4696 90.0553 67.7636 89.78 68.1276 89.584C68.5009 89.3787 68.9256 89.276 69.4016 89.276C69.7563 89.276 70.0736 89.3227 70.3536 89.416C70.6429 89.5093 70.8949 89.6493 71.1096 89.836C71.3336 90.0227 71.5156 90.256 71.6556 90.536C71.9169 90.144 72.2576 89.836 72.6776 89.612C73.0976 89.388 73.5549 89.276 74.0496 89.276C74.6376 89.276 75.1369 89.3973 75.5476 89.64C75.9583 89.8733 76.2709 90.2233 76.4856 90.69C76.7003 91.1473 76.8076 91.712 76.8076 92.384V96.5H75.1416V92.552C75.1416 91.9547 75.0203 91.4973 74.7776 91.18C74.5349 90.8627 74.1756 90.704 73.6996 90.704C73.3729 90.704 73.0836 90.7833 72.8316 90.942C72.5889 91.1007 72.3976 91.334 72.2576 91.642C72.1176 91.9407 72.0476 92.3093 72.0476 92.748V96.5H70.3816V92.552C70.3816 91.9547 70.2603 91.4973 70.0176 91.18C69.7749 90.8627 69.4109 90.704 68.9256 90.704C68.6176 90.704 68.3376 90.7833 68.0856 90.942C67.8429 91.1007 67.6516 91.334 67.5116 91.642C67.3716 91.9407 67.3016 92.3093 67.3016 92.748V96.5H65.6216ZM81.8865 96.668C81.1865 96.668 80.5705 96.5187 80.0385 96.22C79.5065 95.912 79.0912 95.4827 78.7925 94.932C78.4939 94.3813 78.3445 93.7467 78.3445 93.028C78.3445 92.2813 78.4892 91.628 78.7785 91.068C79.0772 90.508 79.4925 90.0693 80.0245 89.752C80.5659 89.4347 81.1912 89.276 81.9005 89.276C82.5912 89.276 83.1932 89.43 83.7065 89.738C84.2199 90.046 84.6165 90.4613 84.8965 90.984C85.1765 91.4973 85.3165 92.076 85.3165 92.72C85.3165 92.8133 85.3165 92.916 85.3165 93.028C85.3165 93.14 85.3072 93.2567 85.2885 93.378H79.5485V92.3H83.6225C83.6039 91.7867 83.4312 91.3853 83.1045 91.096C82.7779 90.7973 82.3719 90.648 81.8865 90.648C81.5412 90.648 81.2239 90.7273 80.9345 90.886C80.6452 91.0447 80.4165 91.2827 80.2485 91.6C80.0805 91.908 79.9965 92.3 79.9965 92.776V93.182C79.9965 93.6207 80.0759 93.9987 80.2345 94.316C80.4025 94.6333 80.6265 94.876 80.9065 95.044C81.1959 95.2027 81.5179 95.282 81.8725 95.282C82.2645 95.282 82.5865 95.198 82.8385 95.03C83.0999 94.862 83.2912 94.638 83.4125 94.358H85.1205C84.9899 94.7967 84.7752 95.1933 84.4765 95.548C84.1779 95.8933 83.8092 96.1687 83.3705 96.374C82.9319 96.57 82.4372 96.668 81.8865 96.668ZM89.797 96.5C89.321 96.5 88.9056 96.4253 88.551 96.276C88.2056 96.1267 87.935 95.8793 87.739 95.534C87.543 95.1887 87.445 94.722 87.445 94.134V90.858H86.241V89.444H87.445L87.641 87.582H89.125V89.444H91.043V90.858H89.125V94.134C89.125 94.4887 89.1996 94.736 89.349 94.876C89.5076 95.0067 89.769 95.072 90.133 95.072H91.001V96.5H89.797ZM95.7358 96.668C95.0638 96.668 94.4571 96.514 93.9158 96.206C93.3838 95.8887 92.9638 95.4547 92.6558 94.904C92.3571 94.344 92.2078 93.7047 92.2078 92.986C92.2078 92.2487 92.3618 91.6047 92.6698 91.054C92.9778 90.494 93.3978 90.06 93.9298 89.752C94.4711 89.4347 95.0778 89.276 95.7498 89.276C96.4218 89.276 97.0238 89.4347 97.5558 89.752C98.0971 90.06 98.5171 90.4893 98.8158 91.04C99.1238 91.5907 99.2778 92.2347 99.2778 92.972C99.2778 93.7093 99.1238 94.3533 98.8158 94.904C98.5078 95.4547 98.0831 95.8887 97.5418 96.206C97.0098 96.514 96.4078 96.668 95.7358 96.668ZM95.7358 95.226C96.0718 95.226 96.3751 95.142 96.6458 94.974C96.9258 94.806 97.1498 94.554 97.3178 94.218C97.4858 93.882 97.5698 93.4667 97.5698 92.972C97.5698 92.4773 97.4858 92.0667 97.3178 91.74C97.1591 91.404 96.9398 91.152 96.6598 90.984C96.3891 90.816 96.0858 90.732 95.7498 90.732C95.4231 90.732 95.1198 90.816 94.8398 90.984C94.5598 91.152 94.3358 91.404 94.1678 91.74C93.9998 92.0667 93.9158 92.4773 93.9158 92.972C93.9158 93.4667 93.9998 93.882 94.1678 94.218C94.3358 94.554 94.5551 94.806 94.8258 94.974C95.1058 95.142 95.4091 95.226 95.7358 95.226ZM104.058 96.668C103.405 96.668 102.822 96.5093 102.308 96.192C101.795 95.8747 101.394 95.436 101.104 94.876C100.824 94.316 100.684 93.6813 100.684 92.972C100.684 92.2627 100.829 91.6327 101.118 91.082C101.408 90.522 101.809 90.0833 102.322 89.766C102.845 89.4393 103.433 89.276 104.086 89.276C104.618 89.276 105.08 89.3787 105.472 89.584C105.874 89.78 106.191 90.06 106.424 90.424V86.42H108.104V96.5H106.592L106.424 95.478C106.275 95.6833 106.093 95.8793 105.878 96.066C105.664 96.2433 105.407 96.388 105.108 96.5C104.81 96.612 104.46 96.668 104.058 96.668ZM104.408 95.212C104.81 95.212 105.164 95.1187 105.472 94.932C105.78 94.736 106.018 94.47 106.186 94.134C106.354 93.798 106.438 93.4107 106.438 92.972C106.438 92.5333 106.354 92.146 106.186 91.81C106.018 91.474 105.78 91.2127 105.472 91.026C105.164 90.8393 104.81 90.746 104.408 90.746C104.026 90.746 103.68 90.8393 103.372 91.026C103.064 91.2127 102.822 91.474 102.644 91.81C102.476 92.146 102.392 92.5333 102.392 92.972C102.392 93.4107 102.476 93.798 102.644 94.134C102.822 94.47 103.064 94.736 103.372 94.932C103.68 95.1187 104.026 95.212 104.408 95.212ZM113.263 96.668C112.591 96.668 111.984 96.514 111.443 96.206C110.911 95.8887 110.491 95.4547 110.183 94.904C109.884 94.344 109.735 93.7047 109.735 92.986C109.735 92.2487 109.889 91.6047 110.197 91.054C110.505 90.494 110.925 90.06 111.457 89.752C111.998 89.4347 112.605 89.276 113.277 89.276C113.949 89.276 114.551 89.4347 115.083 89.752C115.624 90.06 116.044 90.4893 116.343 91.04C116.651 91.5907 116.805 92.2347 116.805 92.972C116.805 93.7093 116.651 94.3533 116.343 94.904C116.035 95.4547 115.61 95.8887 115.069 96.206C114.537 96.514 113.935 96.668 113.263 96.668ZM113.263 95.226C113.599 95.226 113.902 95.142 114.173 94.974C114.453 94.806 114.677 94.554 114.845 94.218C115.013 93.882 115.097 93.4667 115.097 92.972C115.097 92.4773 115.013 92.0667 114.845 91.74C114.686 91.404 114.467 91.152 114.187 90.984C113.916 90.816 113.613 90.732 113.277 90.732C112.95 90.732 112.647 90.816 112.367 90.984C112.087 91.152 111.863 91.404 111.695 91.74C111.527 92.0667 111.443 92.4773 111.443 92.972C111.443 93.4667 111.527 93.882 111.695 94.218C111.863 94.554 112.082 94.806 112.353 94.974C112.633 95.142 112.936 95.226 113.263 95.226ZM121.264 96.668C120.638 96.668 120.092 96.57 119.626 96.374C119.168 96.1687 118.804 95.8887 118.534 95.534C118.272 95.17 118.118 94.7547 118.072 94.288H119.752C119.798 94.484 119.882 94.666 120.004 94.834C120.125 94.9927 120.288 95.1187 120.494 95.212C120.708 95.3053 120.96 95.352 121.25 95.352C121.53 95.352 121.758 95.3147 121.936 95.24C122.113 95.156 122.244 95.0487 122.328 94.918C122.412 94.7873 122.454 94.6473 122.454 94.498C122.454 94.274 122.393 94.1013 122.272 93.98C122.15 93.8587 121.973 93.7653 121.74 93.7C121.516 93.6253 121.245 93.5553 120.928 93.49C120.592 93.4247 120.265 93.3453 119.948 93.252C119.64 93.1493 119.36 93.0233 119.108 92.874C118.865 92.7247 118.669 92.5333 118.52 92.3C118.38 92.0667 118.31 91.782 118.31 91.446C118.31 91.0353 118.417 90.6667 118.632 90.34C118.856 90.0133 119.173 89.7567 119.584 89.57C120.004 89.374 120.503 89.276 121.082 89.276C121.903 89.276 122.556 89.4673 123.042 89.85C123.536 90.2233 123.826 90.7507 123.91 91.432H122.314C122.267 91.1707 122.136 90.97 121.922 90.83C121.707 90.6807 121.422 90.606 121.068 90.606C120.704 90.606 120.424 90.676 120.228 90.816C120.041 90.9467 119.948 91.124 119.948 91.348C119.948 91.488 120.004 91.6187 120.116 91.74C120.237 91.852 120.41 91.95 120.634 92.034C120.858 92.1087 121.133 92.1833 121.46 92.258C121.982 92.3607 122.444 92.482 122.846 92.622C123.247 92.762 123.564 92.9673 123.798 93.238C124.031 93.5087 124.148 93.8913 124.148 94.386C124.157 94.834 124.04 95.2307 123.798 95.576C123.564 95.9213 123.233 96.192 122.804 96.388C122.374 96.5747 121.861 96.668 121.264 96.668ZM132.542 96.668C131.851 96.668 131.23 96.514 130.68 96.206C130.138 95.8887 129.714 95.4547 129.406 94.904C129.107 94.344 128.958 93.7093 128.958 93C128.958 92.2627 129.107 91.6187 129.406 91.068C129.714 90.508 130.138 90.0693 130.68 89.752C131.23 89.4347 131.856 89.276 132.556 89.276C133.433 89.276 134.17 89.5093 134.768 89.976C135.365 90.4333 135.748 91.0633 135.916 91.866H134.152C134.058 91.5113 133.862 91.2313 133.564 91.026C133.274 90.8207 132.929 90.718 132.528 90.718C132.182 90.718 131.865 90.8067 131.576 90.984C131.296 91.1613 131.072 91.418 130.904 91.754C130.745 92.09 130.666 92.496 130.666 92.972C130.666 93.336 130.712 93.658 130.806 93.938C130.899 94.218 131.03 94.456 131.198 94.652C131.375 94.8387 131.576 94.9833 131.8 95.086C132.024 95.1887 132.266 95.24 132.528 95.24C132.798 95.24 133.041 95.198 133.256 95.114C133.48 95.0207 133.666 94.8853 133.816 94.708C133.974 94.5307 134.086 94.3207 134.152 94.078H135.916C135.748 94.862 135.365 95.492 134.768 95.968C134.17 96.4347 133.428 96.668 132.542 96.668ZM137.536 96.5V86.42H139.216V96.5H137.536ZM143.442 96.668C142.864 96.668 142.383 96.57 142 96.374C141.618 96.178 141.333 95.9167 141.146 95.59C140.96 95.2633 140.866 94.9087 140.866 94.526C140.866 94.078 140.978 93.6907 141.202 93.364C141.436 93.0373 141.776 92.7853 142.224 92.608C142.672 92.4213 143.223 92.328 143.876 92.328H145.654C145.654 91.9547 145.603 91.6467 145.5 91.404C145.398 91.152 145.239 90.9653 145.024 90.844C144.81 90.7227 144.534 90.662 144.198 90.662C143.816 90.662 143.489 90.7507 143.218 90.928C142.948 91.096 142.78 91.3573 142.714 91.712H141.062C141.118 91.208 141.286 90.7787 141.566 90.424C141.846 90.06 142.215 89.78 142.672 89.584C143.139 89.3787 143.648 89.276 144.198 89.276C144.861 89.276 145.426 89.3927 145.892 89.626C146.359 89.85 146.714 90.1767 146.956 90.606C147.208 91.026 147.334 91.5347 147.334 92.132V96.5H145.906L145.738 95.366C145.645 95.5527 145.524 95.7253 145.374 95.884C145.234 96.0427 145.071 96.1827 144.884 96.304C144.698 96.416 144.483 96.5047 144.24 96.57C144.007 96.6353 143.741 96.668 143.442 96.668ZM143.82 95.338C144.091 95.338 144.329 95.2913 144.534 95.198C144.749 95.0953 144.931 94.9553 145.08 94.778C145.239 94.5913 145.36 94.386 145.444 94.162C145.528 93.938 145.584 93.7 145.612 93.448V93.42H144.058C143.732 93.42 143.461 93.462 143.246 93.546C143.032 93.6207 142.878 93.7327 142.784 93.882C142.691 94.0313 142.644 94.204 142.644 94.4C142.644 94.596 142.691 94.764 142.784 94.904C142.878 95.044 143.013 95.1513 143.19 95.226C143.368 95.3007 143.578 95.338 143.82 95.338ZM142.672 88.842L142.518 87.708L145.514 85.958L145.71 87.26L142.672 88.842ZM151.943 96.668C151.318 96.668 150.772 96.57 150.305 96.374C149.848 96.1687 149.484 95.8887 149.213 95.534C148.952 95.17 148.798 94.7547 148.751 94.288H150.431C150.478 94.484 150.562 94.666 150.683 94.834C150.805 94.9927 150.968 95.1187 151.173 95.212C151.388 95.3053 151.64 95.352 151.929 95.352C152.209 95.352 152.438 95.3147 152.615 95.24C152.793 95.156 152.923 95.0487 153.007 94.918C153.091 94.7873 153.133 94.6473 153.133 94.498C153.133 94.274 153.073 94.1013 152.951 93.98C152.83 93.8587 152.653 93.7653 152.419 93.7C152.195 93.6253 151.925 93.5553 151.607 93.49C151.271 93.4247 150.945 93.3453 150.627 93.252C150.319 93.1493 150.039 93.0233 149.787 92.874C149.545 92.7247 149.349 92.5333 149.199 92.3C149.059 92.0667 148.989 91.782 148.989 91.446C148.989 91.0353 149.097 90.6667 149.311 90.34C149.535 90.0133 149.853 89.7567 150.263 89.57C150.683 89.374 151.183 89.276 151.761 89.276C152.583 89.276 153.236 89.4673 153.721 89.85C154.216 90.2233 154.505 90.7507 154.589 91.432H152.993C152.947 91.1707 152.816 90.97 152.601 90.83C152.387 90.6807 152.102 90.606 151.747 90.606C151.383 90.606 151.103 90.676 150.907 90.816C150.721 90.9467 150.627 91.124 150.627 91.348C150.627 91.488 150.683 91.6187 150.795 91.74C150.917 91.852 151.089 91.95 151.313 92.034C151.537 92.1087 151.813 92.1833 152.139 92.258C152.662 92.3607 153.124 92.482 153.525 92.622C153.927 92.762 154.244 92.9673 154.477 93.238C154.711 93.5087 154.827 93.8913 154.827 94.386C154.837 94.834 154.72 95.2307 154.477 95.576C154.244 95.9213 153.913 96.192 153.483 96.388C153.054 96.5747 152.541 96.668 151.943 96.668ZM156.528 96.5V89.444H158.208V96.5H156.528ZM157.368 88.324C157.06 88.324 156.803 88.2307 156.598 88.044C156.402 87.848 156.304 87.61 156.304 87.33C156.304 87.0407 156.402 86.8073 156.598 86.63C156.803 86.4433 157.06 86.35 157.368 86.35C157.676 86.35 157.928 86.4433 158.124 86.63C158.329 86.8073 158.432 87.0407 158.432 87.33C158.432 87.61 158.329 87.848 158.124 88.044C157.928 88.2307 157.676 88.324 157.368 88.324ZM163.495 96.668C162.804 96.668 162.184 96.514 161.633 96.206C161.092 95.8887 160.667 95.4547 160.359 94.904C160.06 94.344 159.911 93.7093 159.911 93C159.911 92.2627 160.06 91.6187 160.359 91.068C160.667 90.508 161.092 90.0693 161.633 89.752C162.184 89.4347 162.809 89.276 163.509 89.276C164.386 89.276 165.124 89.5093 165.721 89.976C166.318 90.4333 166.701 91.0633 166.869 91.866H165.105C165.012 91.5113 164.816 91.2313 164.517 91.026C164.228 90.8207 163.882 90.718 163.481 90.718C163.136 90.718 162.818 90.8067 162.529 90.984C162.249 91.1613 162.025 91.418 161.857 91.754C161.698 92.09 161.619 92.496 161.619 92.972C161.619 93.336 161.666 93.658 161.759 93.938C161.852 94.218 161.983 94.456 162.151 94.652C162.328 94.8387 162.529 94.9833 162.753 95.086C162.977 95.1887 163.22 95.24 163.481 95.24C163.752 95.24 163.994 95.198 164.209 95.114C164.433 95.0207 164.62 94.8853 164.769 94.708C164.928 94.5307 165.04 94.3207 165.105 94.078H166.869C166.701 94.862 166.318 95.492 165.721 95.968C165.124 96.4347 164.382 96.668 163.495 96.668ZM171.779 96.668C171.107 96.668 170.5 96.514 169.959 96.206C169.427 95.8887 169.007 95.4547 168.699 94.904C168.4 94.344 168.251 93.7047 168.251 92.986C168.251 92.2487 168.405 91.6047 168.713 91.054C169.021 90.494 169.441 90.06 169.973 89.752C170.514 89.4347 171.121 89.276 171.793 89.276C172.465 89.276 173.067 89.4347 173.599 89.752C174.14 90.06 174.56 90.4893 174.859 91.04C175.167 91.5907 175.321 92.2347 175.321 92.972C175.321 93.7093 175.167 94.3533 174.859 94.904C174.551 95.4547 174.126 95.8887 173.585 96.206C173.053 96.514 172.451 96.668 171.779 96.668ZM171.779 95.226C172.115 95.226 172.418 95.142 172.689 94.974C172.969 94.806 173.193 94.554 173.361 94.218C173.529 93.882 173.613 93.4667 173.613 92.972C173.613 92.4773 173.529 92.0667 173.361 91.74C173.202 91.404 172.983 91.152 172.703 90.984C172.432 90.816 172.129 90.732 171.793 90.732C171.466 90.732 171.163 90.816 170.883 90.984C170.603 91.152 170.379 91.404 170.211 91.74C170.043 92.0667 169.959 92.4773 169.959 92.972C169.959 93.4667 170.043 93.882 170.211 94.218C170.379 94.554 170.598 94.806 170.869 94.974C171.149 95.142 171.452 95.226 171.779 95.226ZM179.779 96.668C179.154 96.668 178.608 96.57 178.141 96.374C177.684 96.1687 177.32 95.8887 177.049 95.534C176.788 95.17 176.634 94.7547 176.587 94.288H178.267C178.314 94.484 178.398 94.666 178.519 94.834C178.641 94.9927 178.804 95.1187 179.009 95.212C179.224 95.3053 179.476 95.352 179.765 95.352C180.045 95.352 180.274 95.3147 180.451 95.24C180.629 95.156 180.759 95.0487 180.843 94.918C180.927 94.7873 180.969 94.6473 180.969 94.498C180.969 94.274 180.909 94.1013 180.787 93.98C180.666 93.8587 180.489 93.7653 180.255 93.7C180.031 93.6253 179.761 93.5553 179.443 93.49C179.107 93.4247 178.781 93.3453 178.463 93.252C178.155 93.1493 177.875 93.0233 177.623 92.874C177.381 92.7247 177.185 92.5333 177.035 92.3C176.895 92.0667 176.825 91.782 176.825 91.446C176.825 91.0353 176.933 90.6667 177.147 90.34C177.371 90.0133 177.689 89.7567 178.099 89.57C178.519 89.374 179.019 89.276 179.597 89.276C180.419 89.276 181.072 89.4673 181.557 89.85C182.052 90.2233 182.341 90.7507 182.425 91.432H180.829C180.783 91.1707 180.652 90.97 180.437 90.83C180.223 90.6807 179.938 90.606 179.583 90.606C179.219 90.606 178.939 90.676 178.743 90.816C178.557 90.9467 178.463 91.124 178.463 91.348C178.463 91.488 178.519 91.6187 178.631 91.74C178.753 91.852 178.925 91.95 179.149 92.034C179.373 92.1087 179.649 92.1833 179.975 92.258C180.498 92.3607 180.96 92.482 181.361 92.622C181.763 92.762 182.08 92.9673 182.313 93.238C182.547 93.5087 182.663 93.8913 182.663 94.386C182.673 94.834 182.556 95.2307 182.313 95.576C182.08 95.9213 181.749 96.192 181.319 96.388C180.89 96.5747 180.377 96.668 179.779 96.668Z" fill="#B0B0B0"/>
<path d="M30.272 356.14C30.272 356.14 50.5444 366.07 68.2827 341.576C77.7909 328.447 83.3845 318.156 88.0523 305.74C92.2992 294.443 108.734 294.137 112.244 305.684L119.01 327.947C121.342 335.618 132.333 335.224 134.11 327.406V327.406C135.465 321.445 142.831 319.277 147.199 323.554L149.163 325.476C154.015 330.227 162.152 328.386 164.488 322.01L165.787 318.461C169.489 308.355 183.727 308.19 187.816 318.146V318.146C191.129 326.216 201.754 328.139 207.613 321.676L207.829 321.438C211.822 317.033 218.439 316.217 223.384 319.519L228.13 322.688C232.059 325.312 237.161 325.387 241.165 322.878L247.256 319.063C249.88 317.418 253.039 316.853 256.071 317.483L272.483 320.899C273.287 321.066 274.107 321.15 274.928 321.15L302.225 321.15" stroke="url(#paint0_linear_7948_553)" stroke-width="4"/>
<path d="M322.133 321.457C322.133 327.812 316.908 333.007 310.409 333.007C303.911 333.007 298.686 327.812 298.686 321.457C298.686 315.102 303.911 309.907 310.409 309.907C316.908 309.907 322.133 315.102 322.133 321.457Z" fill="#F9FAFB" stroke="#F43F5E" stroke-width="4"/>
<ellipse cx="27.3595" cy="358.895" rx="11.4366" ry="11.2917" fill="#F9FAFB"/>
<path d="M281.616 287.306C281.008 287.306 280.468 287.178 279.996 286.922C279.532 286.658 279.168 286.294 278.904 285.83C278.648 285.358 278.52 284.814 278.52 284.198C278.52 283.566 278.648 283.01 278.904 282.53C279.168 282.042 279.532 281.662 279.996 281.39C280.46 281.11 281 280.97 281.616 280.97C282.216 280.97 282.74 281.102 283.188 281.366C283.636 281.63 283.984 281.986 284.232 282.434C284.48 282.882 284.604 283.39 284.604 283.958C284.604 284.038 284.604 284.13 284.604 284.234C284.604 284.33 284.596 284.43 284.58 284.534H279.672V283.55H282.972C282.948 283.158 282.808 282.85 282.552 282.626C282.304 282.402 281.992 282.29 281.616 282.29C281.344 282.29 281.092 282.354 280.86 282.482C280.628 282.602 280.444 282.79 280.308 283.046C280.18 283.302 280.116 283.626 280.116 284.018V284.366C280.116 284.694 280.176 284.982 280.296 285.23C280.424 285.47 280.6 285.658 280.824 285.794C281.048 285.922 281.308 285.986 281.604 285.986C281.9 285.986 282.144 285.922 282.336 285.794C282.536 285.666 282.684 285.502 282.78 285.302H284.436C284.324 285.678 284.136 286.018 283.872 286.322C283.608 286.626 283.284 286.866 282.9 287.042C282.516 287.218 282.088 287.306 281.616 287.306ZM288.403 287.306C287.851 287.306 287.371 287.218 286.963 287.042C286.555 286.866 286.235 286.622 286.003 286.31C285.771 285.998 285.639 285.646 285.607 285.254H287.215C287.255 285.406 287.323 285.546 287.419 285.674C287.515 285.794 287.643 285.89 287.803 285.962C287.963 286.034 288.155 286.07 288.379 286.07C288.595 286.07 288.771 286.042 288.907 285.986C289.043 285.922 289.143 285.838 289.207 285.734C289.279 285.63 289.315 285.522 289.315 285.41C289.315 285.242 289.267 285.114 289.171 285.026C289.075 284.93 288.935 284.854 288.751 284.798C288.567 284.742 288.343 284.686 288.079 284.63C287.791 284.574 287.507 284.506 287.227 284.426C286.955 284.338 286.711 284.23 286.495 284.102C286.279 283.974 286.107 283.81 285.979 283.61C285.851 283.41 285.787 283.162 285.787 282.866C285.787 282.506 285.883 282.186 286.075 281.906C286.267 281.618 286.547 281.39 286.915 281.222C287.283 281.054 287.727 280.97 288.247 280.97C288.975 280.97 289.551 281.134 289.975 281.462C290.399 281.79 290.651 282.242 290.731 282.818H289.207C289.159 282.634 289.051 282.49 288.883 282.386C288.723 282.274 288.507 282.218 288.235 282.218C287.947 282.218 287.727 282.27 287.575 282.374C287.423 282.478 287.347 282.614 287.347 282.782C287.347 282.894 287.395 282.994 287.491 283.082C287.595 283.17 287.739 283.246 287.923 283.31C288.107 283.366 288.331 283.422 288.595 283.478C289.059 283.574 289.467 283.686 289.819 283.814C290.171 283.934 290.447 284.11 290.647 284.342C290.847 284.566 290.947 284.894 290.947 285.326C290.947 285.71 290.843 286.054 290.635 286.358C290.427 286.654 290.131 286.886 289.747 287.054C289.371 287.222 288.923 287.306 288.403 287.306ZM294.854 287.162C294.43 287.162 294.058 287.098 293.738 286.97C293.426 286.834 293.182 286.614 293.006 286.31C292.83 285.998 292.742 285.574 292.742 285.038V282.47H291.71V281.114H292.742L292.922 279.47H294.362V281.114H295.958V282.47H294.362V285.062C294.362 285.334 294.422 285.522 294.542 285.626C294.662 285.73 294.866 285.782 295.154 285.782H295.946V287.162H294.854ZM299.361 287.306C298.857 287.306 298.441 287.226 298.113 287.066C297.785 286.898 297.541 286.678 297.381 286.406C297.229 286.126 297.153 285.818 297.153 285.482C297.153 285.114 297.245 284.79 297.429 284.51C297.621 284.23 297.905 284.01 298.281 283.85C298.665 283.69 299.145 283.61 299.721 283.61H301.221C301.221 283.314 301.181 283.07 301.101 282.878C301.021 282.678 300.897 282.53 300.729 282.434C300.561 282.338 300.337 282.29 300.057 282.29C299.753 282.29 299.493 282.358 299.277 282.494C299.069 282.622 298.941 282.822 298.893 283.094H297.321C297.361 282.662 297.501 282.29 297.741 281.978C297.989 281.658 298.313 281.41 298.713 281.234C299.121 281.058 299.573 280.97 300.069 280.97C300.637 280.97 301.129 281.066 301.545 281.258C301.961 281.45 302.281 281.726 302.505 282.086C302.729 282.446 302.841 282.89 302.841 283.418V287.162H301.473L301.293 286.238C301.205 286.398 301.101 286.542 300.981 286.67C300.861 286.798 300.721 286.91 300.561 287.006C300.401 287.102 300.221 287.174 300.021 287.222C299.821 287.278 299.601 287.306 299.361 287.306ZM299.745 286.058C299.953 286.058 300.137 286.022 300.297 285.95C300.465 285.87 300.609 285.766 300.729 285.638C300.849 285.502 300.941 285.35 301.005 285.182C301.077 285.006 301.125 284.818 301.149 284.618V284.606H299.913C299.665 284.606 299.461 284.638 299.301 284.702C299.149 284.758 299.037 284.842 298.965 284.954C298.893 285.066 298.857 285.194 298.857 285.338C298.857 285.498 298.893 285.63 298.965 285.734C299.037 285.838 299.141 285.918 299.277 285.974C299.413 286.03 299.569 286.058 299.745 286.058ZM304.353 287.162V281.114H305.781L305.901 282.098C306.085 281.762 306.345 281.49 306.681 281.282C307.025 281.074 307.433 280.97 307.905 280.97C308.409 280.97 308.833 281.074 309.177 281.282C309.521 281.49 309.781 281.794 309.957 282.194C310.141 282.594 310.233 283.086 310.233 283.67V287.162H308.625V283.826C308.625 283.346 308.521 282.978 308.313 282.722C308.113 282.466 307.801 282.338 307.377 282.338C307.105 282.338 306.861 282.402 306.645 282.53C306.437 282.658 306.273 282.842 306.153 283.082C306.033 283.314 305.973 283.598 305.973 283.934V287.162H304.353ZM314.687 287.306C314.079 287.306 313.539 287.17 313.067 286.898C312.595 286.626 312.227 286.254 311.963 285.782C311.699 285.31 311.567 284.77 311.567 284.162C311.567 283.538 311.699 282.99 311.963 282.518C312.227 282.038 312.595 281.662 313.067 281.39C313.539 281.11 314.079 280.97 314.687 280.97C315.463 280.97 316.115 281.174 316.643 281.582C317.171 281.99 317.507 282.55 317.651 283.262H315.935C315.863 282.982 315.711 282.762 315.479 282.602C315.255 282.442 314.987 282.362 314.675 282.362C314.395 282.362 314.143 282.434 313.919 282.578C313.703 282.714 313.531 282.918 313.403 283.19C313.283 283.454 313.223 283.77 313.223 284.138C313.223 284.418 313.259 284.67 313.331 284.894C313.403 285.11 313.503 285.298 313.631 285.458C313.759 285.61 313.911 285.726 314.087 285.806C314.271 285.886 314.467 285.926 314.675 285.926C314.883 285.926 315.071 285.89 315.239 285.818C315.415 285.746 315.563 285.646 315.683 285.518C315.803 285.382 315.887 285.218 315.935 285.026H317.651C317.507 285.722 317.167 286.278 316.631 286.694C316.103 287.102 315.455 287.306 314.687 287.306ZM321.088 287.306C320.584 287.306 320.168 287.226 319.84 287.066C319.512 286.898 319.268 286.678 319.108 286.406C318.956 286.126 318.88 285.818 318.88 285.482C318.88 285.114 318.972 284.79 319.156 284.51C319.348 284.23 319.632 284.01 320.008 283.85C320.392 283.69 320.872 283.61 321.448 283.61H322.948C322.948 283.314 322.908 283.07 322.828 282.878C322.748 282.678 322.624 282.53 322.456 282.434C322.288 282.338 322.064 282.29 321.784 282.29C321.48 282.29 321.22 282.358 321.004 282.494C320.796 282.622 320.668 282.822 320.62 283.094H319.048C319.088 282.662 319.228 282.29 319.468 281.978C319.716 281.658 320.04 281.41 320.44 281.234C320.848 281.058 321.3 280.97 321.796 280.97C322.364 280.97 322.856 281.066 323.272 281.258C323.688 281.45 324.008 281.726 324.232 282.086C324.456 282.446 324.568 282.89 324.568 283.418V287.162H323.2L323.02 286.238C322.932 286.398 322.828 286.542 322.708 286.67C322.588 286.798 322.448 286.91 322.288 287.006C322.128 287.102 321.948 287.174 321.748 287.222C321.548 287.278 321.328 287.306 321.088 287.306ZM321.472 286.058C321.68 286.058 321.864 286.022 322.024 285.95C322.192 285.87 322.336 285.766 322.456 285.638C322.576 285.502 322.668 285.35 322.732 285.182C322.804 285.006 322.852 284.818 322.876 284.618V284.606H321.64C321.392 284.606 321.188 284.638 321.028 284.702C320.876 284.758 320.764 284.842 320.692 284.954C320.62 285.066 320.584 285.194 320.584 285.338C320.584 285.498 320.62 285.63 320.692 285.734C320.764 285.838 320.868 285.918 321.004 285.974C321.14 286.03 321.296 286.058 321.472 286.058ZM328.767 287.306C328.215 287.306 327.719 287.17 327.279 286.898C326.847 286.626 326.507 286.25 326.259 285.77C326.011 285.29 325.887 284.75 325.887 284.15C325.887 283.534 326.011 282.99 326.259 282.518C326.515 282.038 326.863 281.662 327.303 281.39C327.751 281.11 328.251 280.97 328.803 280.97C329.235 280.97 329.615 281.05 329.943 281.21C330.271 281.37 330.535 281.598 330.735 281.894V278.522H332.355V287.162H330.915L330.735 286.334C330.615 286.502 330.463 286.662 330.279 286.814C330.103 286.966 329.891 287.086 329.643 287.174C329.395 287.262 329.103 287.306 328.767 287.306ZM329.151 285.89C329.471 285.89 329.751 285.818 329.991 285.674C330.239 285.522 330.431 285.314 330.567 285.05C330.703 284.786 330.771 284.482 330.771 284.138C330.771 283.794 330.703 283.49 330.567 283.226C330.431 282.962 330.239 282.758 329.991 282.614C329.751 282.462 329.471 282.386 329.151 282.386C328.847 282.386 328.571 282.462 328.323 282.614C328.075 282.758 327.879 282.962 327.735 283.226C327.599 283.49 327.531 283.79 327.531 284.126C327.531 284.478 327.599 284.786 327.735 285.05C327.879 285.314 328.071 285.522 328.311 285.674C328.559 285.818 328.839 285.89 329.151 285.89ZM336.798 287.306C336.222 287.306 335.702 287.174 335.238 286.91C334.782 286.638 334.418 286.266 334.146 285.794C333.882 285.314 333.75 284.766 333.75 284.15C333.75 283.518 333.882 282.966 334.146 282.494C334.418 282.014 334.786 281.642 335.25 281.378C335.714 281.106 336.234 280.97 336.81 280.97C337.394 280.97 337.914 281.106 338.37 281.378C338.834 281.642 339.198 282.014 339.462 282.494C339.734 282.966 339.87 283.514 339.87 284.138C339.87 284.762 339.734 285.314 339.462 285.794C339.198 286.266 338.834 286.638 338.37 286.91C337.906 287.174 337.382 287.306 336.798 287.306ZM336.798 285.902C337.07 285.902 337.31 285.838 337.518 285.71C337.734 285.582 337.902 285.386 338.022 285.122C338.15 284.858 338.214 284.53 338.214 284.138C338.214 283.746 338.15 283.422 338.022 283.166C337.902 282.902 337.734 282.706 337.518 282.578C337.31 282.442 337.074 282.374 336.81 282.374C336.554 282.374 336.318 282.442 336.102 282.578C335.886 282.706 335.714 282.902 335.586 283.166C335.466 283.422 335.406 283.746 335.406 284.138C335.406 284.53 335.466 284.858 335.586 285.122C335.714 285.386 335.882 285.582 336.09 285.71C336.306 285.838 336.542 285.902 336.798 285.902Z" fill="#FF1A1E"/>
<line x1="310.197" y1="293.162" x2="310.197" y2="307.162" stroke="#FF1A1E" stroke-width="2"/>
<path d="M275.224 67.644C274.616 67.644 274.076 67.508 273.604 67.236C273.132 66.964 272.764 66.592 272.5 66.12C272.236 65.648 272.104 65.108 272.104 64.5C272.104 63.876 272.236 63.328 272.5 62.856C272.764 62.376 273.132 62 273.604 61.728C274.076 61.448 274.616 61.308 275.224 61.308C276 61.308 276.652 61.512 277.18 61.92C277.708 62.328 278.044 62.888 278.188 63.6H276.472C276.4 63.32 276.248 63.1 276.016 62.94C275.792 62.78 275.524 62.7 275.212 62.7C274.932 62.7 274.68 62.772 274.456 62.916C274.24 63.052 274.068 63.256 273.94 63.528C273.82 63.792 273.76 64.108 273.76 64.476C273.76 64.756 273.796 65.008 273.868 65.232C273.94 65.448 274.04 65.636 274.168 65.796C274.296 65.948 274.448 66.064 274.624 66.144C274.808 66.224 275.004 66.264 275.212 66.264C275.42 66.264 275.608 66.228 275.776 66.156C275.952 66.084 276.1 65.984 276.22 65.856C276.34 65.72 276.424 65.556 276.472 65.364H278.188C278.044 66.06 277.704 66.616 277.168 67.032C276.64 67.44 275.992 67.644 275.224 67.644ZM281.841 67.644C281.353 67.644 280.933 67.544 280.581 67.344C280.237 67.136 279.973 66.836 279.789 66.444C279.605 66.044 279.513 65.552 279.513 64.968V61.452H281.133V64.8C281.133 65.288 281.233 65.656 281.433 65.904C281.641 66.152 281.957 66.276 282.381 66.276C282.653 66.276 282.893 66.216 283.101 66.096C283.309 65.968 283.473 65.788 283.593 65.556C283.721 65.316 283.785 65.024 283.785 64.68V61.452H285.393V67.5H283.977L283.845 66.516C283.669 66.86 283.409 67.136 283.065 67.344C282.721 67.544 282.313 67.644 281.841 67.644ZM286.98 67.5V61.452H288.408L288.54 62.256C288.732 61.968 288.984 61.74 289.296 61.572C289.616 61.396 289.98 61.308 290.388 61.308C290.692 61.308 290.964 61.348 291.204 61.428C291.444 61.508 291.656 61.624 291.84 61.776C292.032 61.928 292.188 62.12 292.308 62.352C292.532 62.024 292.824 61.768 293.184 61.584C293.544 61.4 293.936 61.308 294.36 61.308C294.888 61.308 295.328 61.416 295.68 61.632C296.032 61.84 296.296 62.144 296.472 62.544C296.656 62.944 296.748 63.436 296.748 64.02V67.5H295.14V64.164C295.14 63.684 295.044 63.316 294.852 63.06C294.668 62.804 294.38 62.676 293.988 62.676C293.732 62.676 293.504 62.74 293.304 62.868C293.104 62.996 292.948 63.18 292.836 63.42C292.732 63.66 292.68 63.948 292.68 64.284V67.5H291.06V64.164C291.06 63.684 290.964 63.316 290.772 63.06C290.58 62.804 290.284 62.676 289.884 62.676C289.636 62.676 289.412 62.74 289.212 62.868C289.02 62.996 288.868 63.18 288.756 63.42C288.652 63.66 288.6 63.948 288.6 64.284V67.5H286.98ZM298.277 70.14V61.452H299.717L299.897 62.292C300.025 62.116 300.177 61.956 300.353 61.812C300.529 61.66 300.737 61.54 300.977 61.452C301.225 61.356 301.513 61.308 301.841 61.308C302.409 61.308 302.909 61.448 303.341 61.728C303.773 62.008 304.113 62.388 304.361 62.868C304.617 63.34 304.745 63.88 304.745 64.488C304.745 65.096 304.617 65.64 304.361 66.12C304.105 66.592 303.761 66.964 303.329 67.236C302.897 67.508 302.405 67.644 301.853 67.644C301.405 67.644 301.017 67.564 300.689 67.404C300.369 67.236 300.105 67.008 299.897 66.72V70.14H298.277ZM301.469 66.228C301.789 66.228 302.069 66.156 302.309 66.012C302.557 65.868 302.749 65.664 302.885 65.4C303.021 65.136 303.089 64.832 303.089 64.488C303.089 64.144 303.021 63.84 302.885 63.576C302.749 63.304 302.557 63.096 302.309 62.952C302.069 62.8 301.789 62.724 301.469 62.724C301.157 62.724 300.877 62.8 300.629 62.952C300.389 63.096 300.197 63.3 300.053 63.564C299.917 63.828 299.849 64.132 299.849 64.476C299.849 64.82 299.917 65.128 300.053 65.4C300.197 65.664 300.389 65.868 300.629 66.012C300.877 66.156 301.157 66.228 301.469 66.228ZM306.14 67.5V58.86H307.76V67.5H306.14ZM309.375 67.5V61.452H310.995V67.5H309.375ZM310.191 60.624C309.903 60.624 309.663 60.54 309.471 60.372C309.287 60.196 309.195 59.976 309.195 59.712C309.195 59.448 309.287 59.232 309.471 59.064C309.663 58.888 309.903 58.8 310.191 58.8C310.487 58.8 310.727 58.888 310.911 59.064C311.103 59.232 311.199 59.448 311.199 59.712C311.199 59.976 311.103 60.196 310.911 60.372C310.727 60.54 310.487 60.624 310.191 60.624ZM315.536 67.644C314.928 67.644 314.388 67.516 313.916 67.26C313.452 66.996 313.088 66.632 312.824 66.168C312.568 65.696 312.44 65.152 312.44 64.536C312.44 63.904 312.568 63.348 312.824 62.868C313.088 62.38 313.452 62 313.916 61.728C314.38 61.448 314.92 61.308 315.536 61.308C316.136 61.308 316.66 61.44 317.108 61.704C317.556 61.968 317.904 62.324 318.152 62.772C318.4 63.22 318.524 63.728 318.524 64.296C318.524 64.376 318.524 64.468 318.524 64.572C318.524 64.668 318.516 64.768 318.5 64.872H313.592V63.888H316.892C316.868 63.496 316.728 63.188 316.472 62.964C316.224 62.74 315.912 62.628 315.536 62.628C315.264 62.628 315.012 62.692 314.78 62.82C314.548 62.94 314.364 63.128 314.228 63.384C314.1 63.64 314.036 63.964 314.036 64.356V64.704C314.036 65.032 314.096 65.32 314.216 65.568C314.344 65.808 314.52 65.996 314.744 66.132C314.968 66.26 315.228 66.324 315.524 66.324C315.82 66.324 316.064 66.26 316.256 66.132C316.456 66.004 316.604 65.84 316.7 65.64H318.356C318.244 66.016 318.056 66.356 317.792 66.66C317.528 66.964 317.204 67.204 316.82 67.38C316.436 67.556 316.008 67.644 315.536 67.644ZM319.851 67.5V61.452H321.279L321.399 62.436C321.583 62.1 321.843 61.828 322.179 61.62C322.523 61.412 322.931 61.308 323.403 61.308C323.907 61.308 324.331 61.412 324.675 61.62C325.019 61.828 325.279 62.132 325.455 62.532C325.639 62.932 325.731 63.424 325.731 64.008V67.5H324.123V64.164C324.123 63.684 324.019 63.316 323.811 63.06C323.611 62.804 323.299 62.676 322.875 62.676C322.603 62.676 322.359 62.74 322.143 62.868C321.935 62.996 321.771 63.18 321.651 63.42C321.531 63.652 321.471 63.936 321.471 64.272V67.5H319.851ZM329.945 67.644C329.393 67.644 328.897 67.508 328.457 67.236C328.025 66.964 327.685 66.588 327.437 66.108C327.189 65.628 327.065 65.088 327.065 64.488C327.065 63.872 327.189 63.328 327.437 62.856C327.693 62.376 328.041 62 328.481 61.728C328.929 61.448 329.429 61.308 329.981 61.308C330.413 61.308 330.793 61.388 331.121 61.548C331.449 61.708 331.713 61.936 331.913 62.232V58.86H333.533V67.5H332.093L331.913 66.672C331.793 66.84 331.641 67 331.457 67.152C331.281 67.304 331.069 67.424 330.821 67.512C330.573 67.6 330.281 67.644 329.945 67.644ZM330.329 66.228C330.649 66.228 330.929 66.156 331.169 66.012C331.417 65.86 331.609 65.652 331.745 65.388C331.881 65.124 331.949 64.82 331.949 64.476C331.949 64.132 331.881 63.828 331.745 63.564C331.609 63.3 331.417 63.096 331.169 62.952C330.929 62.8 330.649 62.724 330.329 62.724C330.025 62.724 329.749 62.8 329.501 62.952C329.253 63.096 329.057 63.3 328.913 63.564C328.777 63.828 328.709 64.128 328.709 64.464C328.709 64.816 328.777 65.124 328.913 65.388C329.057 65.652 329.249 65.86 329.489 66.012C329.737 66.156 330.017 66.228 330.329 66.228ZM337.977 67.644C337.401 67.644 336.881 67.512 336.417 67.248C335.961 66.976 335.597 66.604 335.325 66.132C335.061 65.652 334.929 65.104 334.929 64.488C334.929 63.856 335.061 63.304 335.325 62.832C335.597 62.352 335.965 61.98 336.429 61.716C336.893 61.444 337.413 61.308 337.989 61.308C338.573 61.308 339.093 61.444 339.549 61.716C340.013 61.98 340.377 62.352 340.641 62.832C340.913 63.304 341.049 63.852 341.049 64.476C341.049 65.1 340.913 65.652 340.641 66.132C340.377 66.604 340.013 66.976 339.549 67.248C339.085 67.512 338.561 67.644 337.977 67.644ZM337.977 66.24C338.249 66.24 338.489 66.176 338.697 66.048C338.913 65.92 339.081 65.724 339.201 65.46C339.329 65.196 339.393 64.868 339.393 64.476C339.393 64.084 339.329 63.76 339.201 63.504C339.081 63.24 338.913 63.044 338.697 62.916C338.489 62.78 338.253 62.712 337.989 62.712C337.733 62.712 337.497 62.78 337.281 62.916C337.065 63.044 336.893 63.24 336.765 63.504C336.645 63.76 336.585 64.084 336.585 64.476C336.585 64.868 336.645 65.196 336.765 65.46C336.893 65.724 337.061 65.92 337.269 66.048C337.485 66.176 337.721 66.24 337.977 66.24ZM278.425 83.5C278.001 83.5 277.629 83.436 277.309 83.308C276.997 83.172 276.753 82.952 276.577 82.648C276.401 82.336 276.313 81.912 276.313 81.376V78.808H275.281V77.452H276.313L276.493 75.808H277.933V77.452H279.529V78.808H277.933V81.4C277.933 81.672 277.993 81.86 278.113 81.964C278.233 82.068 278.437 82.12 278.725 82.12H279.517V83.5H278.425ZM283.148 83.644C282.66 83.644 282.24 83.544 281.888 83.344C281.544 83.136 281.28 82.836 281.096 82.444C280.912 82.044 280.82 81.552 280.82 80.968V77.452H282.44V80.8C282.44 81.288 282.54 81.656 282.74 81.904C282.948 82.152 283.264 82.276 283.688 82.276C283.96 82.276 284.2 82.216 284.408 82.096C284.616 81.968 284.78 81.788 284.9 81.556C285.028 81.316 285.092 81.024 285.092 80.68V77.452H286.7V83.5H285.284L285.152 82.516C284.976 82.86 284.716 83.136 284.372 83.344C284.028 83.544 283.62 83.644 283.148 83.644ZM293.967 83.644C293.391 83.644 292.871 83.512 292.407 83.248C291.951 82.976 291.587 82.604 291.315 82.132C291.051 81.652 290.919 81.104 290.919 80.488C290.919 79.856 291.051 79.304 291.315 78.832C291.587 78.352 291.955 77.98 292.419 77.716C292.883 77.444 293.403 77.308 293.979 77.308C294.563 77.308 295.083 77.444 295.539 77.716C296.003 77.98 296.367 78.352 296.631 78.832C296.903 79.304 297.039 79.852 297.039 80.476C297.039 81.1 296.903 81.652 296.631 82.132C296.367 82.604 296.003 82.976 295.539 83.248C295.075 83.512 294.551 83.644 293.967 83.644ZM293.967 82.24C294.239 82.24 294.479 82.176 294.687 82.048C294.903 81.92 295.071 81.724 295.191 81.46C295.319 81.196 295.383 80.868 295.383 80.476C295.383 80.084 295.319 79.76 295.191 79.504C295.071 79.24 294.903 79.044 294.687 78.916C294.479 78.78 294.243 78.712 293.979 78.712C293.723 78.712 293.487 78.78 293.271 78.916C293.055 79.044 292.883 79.24 292.755 79.504C292.635 79.76 292.575 80.084 292.575 80.476C292.575 80.868 292.635 81.196 292.755 81.46C292.883 81.724 293.051 81.92 293.259 82.048C293.475 82.176 293.711 82.24 293.967 82.24ZM302.011 83.644C301.699 83.644 301.419 83.604 301.171 83.524C300.931 83.444 300.715 83.336 300.523 83.2C300.339 83.056 300.183 82.896 300.055 82.72L299.875 83.5H298.435V74.86H300.055V78.292C300.247 78.012 300.499 77.78 300.811 77.596C301.131 77.404 301.527 77.308 301.999 77.308C302.559 77.308 303.055 77.448 303.487 77.728C303.927 78 304.271 78.376 304.519 78.856C304.775 79.328 304.903 79.872 304.903 80.488C304.903 81.088 304.775 81.628 304.519 82.108C304.271 82.588 303.931 82.964 303.499 83.236C303.067 83.508 302.571 83.644 302.011 83.644ZM301.627 82.228C301.947 82.228 302.227 82.156 302.467 82.012C302.715 81.86 302.907 81.656 303.043 81.4C303.179 81.136 303.247 80.832 303.247 80.488C303.247 80.144 303.179 79.84 303.043 79.576C302.907 79.304 302.715 79.096 302.467 78.952C302.227 78.8 301.947 78.724 301.627 78.724C301.315 78.724 301.035 78.8 300.787 78.952C300.547 79.096 300.355 79.3 300.211 79.564C300.075 79.828 300.007 80.132 300.007 80.476C300.007 80.82 300.075 81.128 300.211 81.4C300.355 81.664 300.547 81.868 300.787 82.012C301.035 82.156 301.315 82.228 301.627 82.228ZM305.158 86.14V84.76H305.65C305.906 84.76 306.086 84.708 306.19 84.604C306.302 84.5 306.358 84.332 306.358 84.1V77.452H307.978V84.088C307.978 84.584 307.89 84.98 307.714 85.276C307.546 85.58 307.306 85.8 306.994 85.936C306.682 86.072 306.314 86.14 305.89 86.14H305.158ZM307.174 76.624C306.878 76.624 306.638 76.54 306.454 76.372C306.27 76.196 306.178 75.976 306.178 75.712C306.178 75.448 306.27 75.232 306.454 75.064C306.638 74.888 306.878 74.8 307.174 74.8C307.47 74.8 307.71 74.888 307.894 75.064C308.078 75.232 308.17 75.448 308.17 75.712C308.17 75.976 308.078 76.196 307.894 76.372C307.71 76.54 307.47 76.624 307.174 76.624ZM312.495 83.644C311.887 83.644 311.347 83.516 310.875 83.26C310.411 82.996 310.047 82.632 309.783 82.168C309.527 81.696 309.399 81.152 309.399 80.536C309.399 79.904 309.527 79.348 309.783 78.868C310.047 78.38 310.411 78 310.875 77.728C311.339 77.448 311.879 77.308 312.495 77.308C313.095 77.308 313.619 77.44 314.067 77.704C314.515 77.968 314.863 78.324 315.111 78.772C315.359 79.22 315.483 79.728 315.483 80.296C315.483 80.376 315.483 80.468 315.483 80.572C315.483 80.668 315.475 80.768 315.459 80.872H310.551V79.888H313.851C313.827 79.496 313.687 79.188 313.431 78.964C313.183 78.74 312.871 78.628 312.495 78.628C312.223 78.628 311.971 78.692 311.739 78.82C311.507 78.94 311.323 79.128 311.187 79.384C311.059 79.64 310.995 79.964 310.995 80.356V80.704C310.995 81.032 311.055 81.32 311.175 81.568C311.303 81.808 311.479 81.996 311.703 82.132C311.927 82.26 312.187 82.324 312.483 82.324C312.779 82.324 313.023 82.26 313.215 82.132C313.415 82.004 313.563 81.84 313.659 81.64H315.315C315.203 82.016 315.015 82.356 314.751 82.66C314.487 82.964 314.163 83.204 313.779 83.38C313.395 83.556 312.967 83.644 312.495 83.644ZM319.452 83.5C319.028 83.5 318.656 83.436 318.336 83.308C318.024 83.172 317.78 82.952 317.604 82.648C317.428 82.336 317.34 81.912 317.34 81.376V78.808H316.308V77.452H317.34L317.52 75.808H318.96V77.452H320.556V78.808H318.96V81.4C318.96 81.672 319.02 81.86 319.14 81.964C319.26 82.068 319.464 82.12 319.752 82.12H320.544V83.5H319.452ZM321.955 83.5V77.452H323.575V83.5H321.955ZM322.771 76.624C322.483 76.624 322.243 76.54 322.051 76.372C321.867 76.196 321.775 75.976 321.775 75.712C321.775 75.448 321.867 75.232 322.051 75.064C322.243 74.888 322.483 74.8 322.771 74.8C323.067 74.8 323.307 74.888 323.491 75.064C323.683 75.232 323.779 75.448 323.779 75.712C323.779 75.976 323.683 76.196 323.491 76.372C323.307 76.54 323.067 76.624 322.771 76.624ZM326.832 83.5L324.612 77.452H326.316L327.816 81.976L329.316 77.452H331.008L328.8 83.5H326.832ZM334.572 83.644C333.996 83.644 333.476 83.512 333.012 83.248C332.556 82.976 332.192 82.604 331.92 82.132C331.656 81.652 331.524 81.104 331.524 80.488C331.524 79.856 331.656 79.304 331.92 78.832C332.192 78.352 332.56 77.98 333.024 77.716C333.488 77.444 334.008 77.308 334.584 77.308C335.168 77.308 335.688 77.444 336.144 77.716C336.608 77.98 336.972 78.352 337.236 78.832C337.508 79.304 337.644 79.852 337.644 80.476C337.644 81.1 337.508 81.652 337.236 82.132C336.972 82.604 336.608 82.976 336.144 83.248C335.68 83.512 335.156 83.644 334.572 83.644ZM334.572 82.24C334.844 82.24 335.084 82.176 335.292 82.048C335.508 81.92 335.676 81.724 335.796 81.46C335.924 81.196 335.988 80.868 335.988 80.476C335.988 80.084 335.924 79.76 335.796 79.504C335.676 79.24 335.508 79.044 335.292 78.916C335.084 78.78 334.848 78.712 334.584 78.712C334.328 78.712 334.092 78.78 333.876 78.916C333.66 79.044 333.488 79.24 333.36 79.504C333.24 79.76 333.18 80.084 333.18 80.476C333.18 80.868 333.24 81.196 333.36 81.46C333.488 81.724 333.656 81.92 333.864 82.048C334.08 82.176 334.316 82.24 334.572 82.24Z" fill="#4ADE80"/>
<line x1="307.579" y1="90.5" x2="307.579" y2="106.5" stroke="#22C55E" stroke-width="2"/>
<path d="M25.7422 306.936L63.9723 277.406C71.2514 271.783 79.7853 268.01 88.8426 266.408L102.347 264.021C110.261 262.621 117.174 257.78 121.218 250.834V250.834C127.153 240.639 139.011 235.386 150.539 237.896V237.896C163.387 240.693 176.396 233.9 181.444 221.759L187.333 207.592C193.532 192.68 213.24 189.472 223.848 201.648V201.648C233.471 212.693 251.036 211.273 258.76 198.826L307.499 120.277" stroke="url(#paint1_linear_7948_553)" stroke-width="4"/>
<ellipse cx="27.3587" cy="304.25" rx="11.4368" ry="11.25" fill="#F9FAFB"/>
<path d="M38.2955 304.25C38.2955 310.179 33.4067 315 27.3587 315C21.3107 315 16.4219 310.179 16.4219 304.25C16.4219 298.32 21.3107 293.5 27.3587 293.5C33.4067 293.5 38.2955 298.32 38.2955 304.25Z" stroke="black" stroke-opacity="0.2"/>
<path d="M319.368 116.738C319.368 123.204 314.053 128.488 307.442 128.488C300.832 128.488 295.516 123.204 295.516 116.738C295.516 110.273 300.832 104.988 307.442 104.988C314.053 104.988 319.368 110.273 319.368 116.738Z" fill="#F9FAFB" stroke="#22C55E" stroke-width="4"/>
<path d="M25.04 382.669H337.04" stroke="url(#paint2_linear_7948_553)"/>
<line x1="94.29" y1="382.669" x2="94.29" y2="392.669" stroke="#F6F6F6" stroke-width="1.5"/>
<path d="M76.9 406.669V399.913L75.412 400.297V399.181L77.476 398.269H78.376V406.669H76.9ZM82.0679 402.493C81.6199 402.493 81.2239 402.401 80.8799 402.217C80.5439 402.033 80.2799 401.777 80.0879 401.449C79.9039 401.113 79.8119 400.729 79.8119 400.297C79.8119 399.865 79.9079 399.485 80.0999 399.157C80.2919 398.829 80.5559 398.577 80.8919 398.401C81.2359 398.217 81.6319 398.125 82.0799 398.125C82.5279 398.125 82.9239 398.217 83.2679 398.401C83.6119 398.577 83.8759 398.829 84.0599 399.157C84.2519 399.485 84.3479 399.865 84.3479 400.297C84.3479 400.729 84.2519 401.113 84.0599 401.449C83.8679 401.777 83.5999 402.033 83.2559 402.217C82.9119 402.401 82.5159 402.493 82.0679 402.493ZM82.0679 401.605C82.2759 401.605 82.4639 401.557 82.6319 401.461C82.8079 401.357 82.9479 401.209 83.0519 401.017C83.1559 400.825 83.2079 400.589 83.2079 400.309C83.2079 400.013 83.1559 399.769 83.0519 399.577C82.9479 399.385 82.8079 399.241 82.6319 399.145C82.4639 399.041 82.2759 398.989 82.0679 398.989C81.8599 398.989 81.6719 399.041 81.5039 399.145C81.3359 399.241 81.1999 399.385 81.0959 399.577C80.9999 399.769 80.9519 400.013 80.9519 400.309C80.9519 400.589 80.9999 400.825 81.0959 401.017C81.1999 401.209 81.3359 401.357 81.5039 401.461C81.6719 401.557 81.8599 401.605 82.0679 401.605ZM88.7241 406.669V398.269H90.4281L93.1161 403.693L95.7801 398.269H97.4961V406.669H96.0561V400.741L93.6801 405.493H92.5521L90.1641 400.753V406.669H88.7241ZM101.985 406.813C101.385 406.813 100.857 406.685 100.401 406.429C99.9446 406.165 99.5886 405.797 99.3326 405.325C99.0766 404.853 98.9486 404.309 98.9486 403.693C98.9486 403.053 99.0726 402.493 99.3206 402.013C99.5766 401.533 99.9326 401.157 100.389 400.885C100.853 400.613 101.389 400.477 101.997 400.477C102.589 400.477 103.105 400.609 103.545 400.873C103.985 401.137 104.325 401.493 104.565 401.941C104.805 402.381 104.925 402.877 104.925 403.429C104.925 403.509 104.925 403.597 104.925 403.693C104.925 403.789 104.917 403.889 104.901 403.993H99.9806V403.069H103.473C103.457 402.629 103.309 402.285 103.029 402.037C102.749 401.781 102.401 401.653 101.985 401.653C101.689 401.653 101.417 401.721 101.169 401.857C100.921 401.993 100.725 402.197 100.581 402.469C100.437 402.733 100.365 403.069 100.365 403.477V403.825C100.365 404.201 100.433 404.525 100.569 404.797C100.713 405.069 100.905 405.277 101.145 405.421C101.393 405.557 101.669 405.625 101.973 405.625C102.309 405.625 102.585 405.553 102.801 405.409C103.025 405.265 103.189 405.073 103.293 404.833H104.757C104.645 405.209 104.461 405.549 104.205 405.853C103.949 406.149 103.633 406.385 103.257 406.561C102.881 406.729 102.457 406.813 101.985 406.813ZM108.666 406.813C108.13 406.813 107.662 406.729 107.262 406.561C106.87 406.385 106.558 406.145 106.326 405.841C106.102 405.529 105.97 405.173 105.93 404.773H107.37C107.41 404.941 107.482 405.097 107.586 405.241C107.69 405.377 107.83 405.485 108.006 405.565C108.19 405.645 108.406 405.685 108.654 405.685C108.894 405.685 109.09 405.653 109.242 405.589C109.394 405.517 109.506 405.425 109.578 405.313C109.65 405.201 109.686 405.081 109.686 404.953C109.686 404.761 109.634 404.613 109.53 404.509C109.426 404.405 109.274 404.325 109.074 404.269C108.882 404.205 108.65 404.145 108.378 404.089C108.09 404.033 107.81 403.965 107.538 403.885C107.274 403.797 107.034 403.689 106.818 403.561C106.61 403.433 106.442 403.269 106.314 403.069C106.194 402.869 106.134 402.625 106.134 402.337C106.134 401.985 106.226 401.669 106.41 401.389C106.602 401.109 106.874 400.889 107.226 400.729C107.586 400.561 108.014 400.477 108.51 400.477C109.214 400.477 109.774 400.641 110.19 400.969C110.614 401.289 110.862 401.741 110.934 402.325H109.566C109.526 402.101 109.414 401.929 109.23 401.809C109.046 401.681 108.802 401.617 108.498 401.617C108.186 401.617 107.946 401.677 107.778 401.797C107.618 401.909 107.538 402.061 107.538 402.253C107.538 402.373 107.586 402.485 107.682 402.589C107.786 402.685 107.934 402.769 108.126 402.841C108.318 402.905 108.554 402.969 108.834 403.033C109.282 403.121 109.678 403.225 110.022 403.345C110.366 403.465 110.638 403.641 110.838 403.873C111.038 404.105 111.138 404.433 111.138 404.857C111.146 405.241 111.046 405.581 110.838 405.877C110.638 406.173 110.354 406.405 109.986 406.573C109.618 406.733 109.178 406.813 108.666 406.813Z" fill="#F6F6F6"/>
<line x1="180.29" y1="382.669" x2="180.29" y2="392.669" stroke="#F6F6F6" stroke-width="1.5"/>
<path d="M160.188 406.669V405.625C160.724 405.201 161.236 404.777 161.724 404.353C162.212 403.929 162.652 403.509 163.044 403.093C163.436 402.677 163.744 402.269 163.968 401.869C164.192 401.469 164.304 401.085 164.304 400.717C164.304 400.477 164.26 400.253 164.172 400.045C164.084 399.837 163.944 399.669 163.752 399.541C163.568 399.413 163.32 399.349 163.008 399.349C162.704 399.349 162.444 399.417 162.228 399.553C162.02 399.689 161.864 399.873 161.76 400.105C161.656 400.329 161.604 400.585 161.604 400.873H160.212C160.228 400.265 160.36 399.757 160.608 399.349C160.856 398.941 161.192 398.637 161.616 398.437C162.04 398.229 162.516 398.125 163.044 398.125C163.612 398.125 164.096 398.229 164.496 398.437C164.896 398.645 165.204 398.937 165.42 399.313C165.636 399.689 165.744 400.133 165.744 400.645C165.744 401.021 165.672 401.393 165.528 401.761C165.392 402.121 165.2 402.473 164.952 402.817C164.704 403.153 164.424 403.481 164.112 403.801C163.808 404.113 163.492 404.413 163.164 404.701C162.836 404.981 162.52 405.241 162.216 405.481H165.972V406.669H160.188ZM169.322 402.493C168.874 402.493 168.478 402.401 168.134 402.217C167.798 402.033 167.534 401.777 167.342 401.449C167.158 401.113 167.066 400.729 167.066 400.297C167.066 399.865 167.162 399.485 167.354 399.157C167.546 398.829 167.81 398.577 168.146 398.401C168.49 398.217 168.886 398.125 169.334 398.125C169.782 398.125 170.178 398.217 170.522 398.401C170.866 398.577 171.13 398.829 171.314 399.157C171.506 399.485 171.602 399.865 171.602 400.297C171.602 400.729 171.506 401.113 171.314 401.449C171.122 401.777 170.854 402.033 170.51 402.217C170.166 402.401 169.77 402.493 169.322 402.493ZM169.322 401.605C169.53 401.605 169.718 401.557 169.886 401.461C170.062 401.357 170.202 401.209 170.306 401.017C170.41 400.825 170.462 400.589 170.462 400.309C170.462 400.013 170.41 399.769 170.306 399.577C170.202 399.385 170.062 399.241 169.886 399.145C169.718 399.041 169.53 398.989 169.322 398.989C169.114 398.989 168.926 399.041 168.758 399.145C168.59 399.241 168.454 399.385 168.35 399.577C168.254 399.769 168.206 400.013 168.206 400.309C168.206 400.589 168.254 400.825 168.35 401.017C168.454 401.209 168.59 401.357 168.758 401.461C168.926 401.557 169.114 401.605 169.322 401.605ZM175.978 406.669V398.269H177.682L180.37 403.693L183.034 398.269H184.75V406.669H183.31V400.741L180.934 405.493H179.806L177.418 400.753V406.669H175.978ZM189.239 406.813C188.639 406.813 188.111 406.685 187.655 406.429C187.199 406.165 186.843 405.797 186.587 405.325C186.331 404.853 186.203 404.309 186.203 403.693C186.203 403.053 186.327 402.493 186.575 402.013C186.831 401.533 187.187 401.157 187.643 400.885C188.107 400.613 188.643 400.477 189.251 400.477C189.843 400.477 190.359 400.609 190.799 400.873C191.239 401.137 191.579 401.493 191.819 401.941C192.059 402.381 192.179 402.877 192.179 403.429C192.179 403.509 192.179 403.597 192.179 403.693C192.179 403.789 192.171 403.889 192.155 403.993H187.235V403.069H190.727C190.711 402.629 190.563 402.285 190.283 402.037C190.003 401.781 189.655 401.653 189.239 401.653C188.943 401.653 188.671 401.721 188.423 401.857C188.175 401.993 187.979 402.197 187.835 402.469C187.691 402.733 187.619 403.069 187.619 403.477V403.825C187.619 404.201 187.687 404.525 187.823 404.797C187.967 405.069 188.159 405.277 188.399 405.421C188.647 405.557 188.923 405.625 189.227 405.625C189.563 405.625 189.839 405.553 190.055 405.409C190.279 405.265 190.443 405.073 190.547 404.833H192.011C191.899 405.209 191.715 405.549 191.459 405.853C191.203 406.149 190.887 406.385 190.511 406.561C190.135 406.729 189.711 406.813 189.239 406.813ZM195.92 406.813C195.384 406.813 194.916 406.729 194.516 406.561C194.124 406.385 193.812 406.145 193.58 405.841C193.356 405.529 193.224 405.173 193.184 404.773H194.624C194.664 404.941 194.736 405.097 194.84 405.241C194.944 405.377 195.084 405.485 195.26 405.565C195.444 405.645 195.66 405.685 195.908 405.685C196.148 405.685 196.344 405.653 196.496 405.589C196.648 405.517 196.76 405.425 196.832 405.313C196.904 405.201 196.94 405.081 196.94 404.953C196.94 404.761 196.888 404.613 196.784 404.509C196.68 404.405 196.528 404.325 196.328 404.269C196.136 404.205 195.904 404.145 195.632 404.089C195.344 404.033 195.064 403.965 194.792 403.885C194.528 403.797 194.288 403.689 194.072 403.561C193.864 403.433 193.696 403.269 193.568 403.069C193.448 402.869 193.388 402.625 193.388 402.337C193.388 401.985 193.48 401.669 193.664 401.389C193.856 401.109 194.128 400.889 194.48 400.729C194.84 400.561 195.268 400.477 195.764 400.477C196.468 400.477 197.028 400.641 197.444 400.969C197.868 401.289 198.116 401.741 198.188 402.325H196.82C196.78 402.101 196.668 401.929 196.484 401.809C196.3 401.681 196.056 401.617 195.752 401.617C195.44 401.617 195.2 401.677 195.032 401.797C194.872 401.909 194.792 402.061 194.792 402.253C194.792 402.373 194.84 402.485 194.936 402.589C195.04 402.685 195.188 402.769 195.38 402.841C195.572 402.905 195.808 402.969 196.088 403.033C196.536 403.121 196.932 403.225 197.276 403.345C197.62 403.465 197.892 403.641 198.092 403.873C198.292 404.105 198.392 404.433 198.392 404.857C198.4 405.241 198.3 405.581 198.092 405.877C197.892 406.173 197.608 406.405 197.24 406.573C196.872 406.733 196.432 406.813 195.92 406.813Z" fill="#F6F6F6"/>
<line x1="267.79" y1="382.669" x2="267.79" y2="392.669" stroke="#F6F6F6" stroke-width="1.5"/>
<path d="M250.616 406.813C250.072 406.813 249.576 406.717 249.128 406.525C248.68 406.325 248.32 406.025 248.048 405.625C247.784 405.217 247.644 404.705 247.628 404.089H249.044C249.052 404.369 249.116 404.625 249.236 404.857C249.364 405.081 249.544 405.261 249.776 405.397C250.008 405.525 250.288 405.589 250.616 405.589C250.928 405.589 251.192 405.529 251.408 405.409C251.632 405.289 251.8 405.125 251.912 404.917C252.024 404.709 252.08 404.477 252.08 404.221C252.08 403.909 252.004 403.653 251.852 403.453C251.7 403.245 251.492 403.089 251.228 402.985C250.964 402.881 250.664 402.829 250.328 402.829H249.704V401.641H250.328C250.768 401.641 251.128 401.541 251.408 401.341C251.688 401.133 251.828 400.833 251.828 400.441C251.828 400.113 251.72 399.849 251.504 399.649C251.296 399.449 250.996 399.349 250.604 399.349C250.196 399.349 249.872 399.469 249.632 399.709C249.4 399.949 249.272 400.245 249.248 400.597H247.832C247.856 400.093 247.984 399.657 248.216 399.289C248.456 398.913 248.78 398.625 249.188 398.425C249.596 398.225 250.072 398.125 250.616 398.125C251.184 398.125 251.664 398.225 252.056 398.425C252.448 398.625 252.744 398.893 252.944 399.229C253.152 399.565 253.256 399.933 253.256 400.333C253.256 400.645 253.196 400.929 253.076 401.185C252.956 401.441 252.792 401.657 252.584 401.833C252.384 402.001 252.148 402.125 251.876 402.205C252.188 402.269 252.464 402.393 252.704 402.577C252.952 402.761 253.144 402.997 253.28 403.285C253.424 403.565 253.496 403.893 253.496 404.269C253.496 404.725 253.384 405.149 253.16 405.541C252.944 405.925 252.62 406.233 252.188 406.465C251.764 406.697 251.24 406.813 250.616 406.813ZM257.08 402.493C256.632 402.493 256.236 402.401 255.892 402.217C255.556 402.033 255.292 401.777 255.1 401.449C254.916 401.113 254.824 400.729 254.824 400.297C254.824 399.865 254.92 399.485 255.112 399.157C255.304 398.829 255.568 398.577 255.904 398.401C256.248 398.217 256.644 398.125 257.092 398.125C257.54 398.125 257.936 398.217 258.28 398.401C258.624 398.577 258.888 398.829 259.072 399.157C259.264 399.485 259.36 399.865 259.36 400.297C259.36 400.729 259.264 401.113 259.072 401.449C258.88 401.777 258.612 402.033 258.268 402.217C257.924 402.401 257.528 402.493 257.08 402.493ZM257.08 401.605C257.288 401.605 257.476 401.557 257.644 401.461C257.82 401.357 257.96 401.209 258.064 401.017C258.168 400.825 258.22 400.589 258.22 400.309C258.22 400.013 258.168 399.769 258.064 399.577C257.96 399.385 257.82 399.241 257.644 399.145C257.476 399.041 257.288 398.989 257.08 398.989C256.872 398.989 256.684 399.041 256.516 399.145C256.348 399.241 256.212 399.385 256.108 399.577C256.012 399.769 255.964 400.013 255.964 400.309C255.964 400.589 256.012 400.825 256.108 401.017C256.212 401.209 256.348 401.357 256.516 401.461C256.684 401.557 256.872 401.605 257.08 401.605ZM263.736 406.669V398.269H265.44L268.128 403.693L270.792 398.269H272.508V406.669H271.068V400.741L268.692 405.493H267.564L265.176 400.753V406.669H263.736ZM276.996 406.813C276.396 406.813 275.868 406.685 275.412 406.429C274.956 406.165 274.6 405.797 274.344 405.325C274.088 404.853 273.96 404.309 273.96 403.693C273.96 403.053 274.084 402.493 274.332 402.013C274.588 401.533 274.944 401.157 275.4 400.885C275.864 400.613 276.4 400.477 277.008 400.477C277.6 400.477 278.116 400.609 278.556 400.873C278.996 401.137 279.336 401.493 279.576 401.941C279.816 402.381 279.936 402.877 279.936 403.429C279.936 403.509 279.936 403.597 279.936 403.693C279.936 403.789 279.928 403.889 279.912 403.993H274.992V403.069H278.484C278.468 402.629 278.32 402.285 278.04 402.037C277.76 401.781 277.412 401.653 276.996 401.653C276.7 401.653 276.428 401.721 276.18 401.857C275.932 401.993 275.736 402.197 275.592 402.469C275.448 402.733 275.376 403.069 275.376 403.477V403.825C275.376 404.201 275.444 404.525 275.58 404.797C275.724 405.069 275.916 405.277 276.156 405.421C276.404 405.557 276.68 405.625 276.984 405.625C277.32 405.625 277.596 405.553 277.812 405.409C278.036 405.265 278.2 405.073 278.304 404.833H279.768C279.656 405.209 279.472 405.549 279.216 405.853C278.96 406.149 278.644 406.385 278.268 406.561C277.892 406.729 277.468 406.813 276.996 406.813ZM283.678 406.813C283.142 406.813 282.674 406.729 282.274 406.561C281.882 406.385 281.57 406.145 281.338 405.841C281.114 405.529 280.982 405.173 280.942 404.773H282.382C282.422 404.941 282.494 405.097 282.598 405.241C282.702 405.377 282.842 405.485 283.018 405.565C283.202 405.645 283.418 405.685 283.666 405.685C283.906 405.685 284.102 405.653 284.254 405.589C284.406 405.517 284.518 405.425 284.59 405.313C284.662 405.201 284.698 405.081 284.698 404.953C284.698 404.761 284.646 404.613 284.542 404.509C284.438 404.405 284.286 404.325 284.086 404.269C283.894 404.205 283.662 404.145 283.39 404.089C283.102 404.033 282.822 403.965 282.55 403.885C282.286 403.797 282.046 403.689 281.83 403.561C281.622 403.433 281.454 403.269 281.326 403.069C281.206 402.869 281.146 402.625 281.146 402.337C281.146 401.985 281.238 401.669 281.422 401.389C281.614 401.109 281.886 400.889 282.238 400.729C282.598 400.561 283.026 400.477 283.522 400.477C284.226 400.477 284.786 400.641 285.202 400.969C285.626 401.289 285.874 401.741 285.946 402.325H284.578C284.538 402.101 284.426 401.929 284.242 401.809C284.058 401.681 283.814 401.617 283.51 401.617C283.198 401.617 282.958 401.677 282.79 401.797C282.63 401.909 282.55 402.061 282.55 402.253C282.55 402.373 282.598 402.485 282.694 402.589C282.798 402.685 282.946 402.769 283.138 402.841C283.33 402.905 283.566 402.969 283.846 403.033C284.294 403.121 284.69 403.225 285.034 403.345C285.378 403.465 285.65 403.641 285.85 403.873C286.05 404.105 286.15 404.433 286.15 404.857C286.158 405.241 286.058 405.581 285.85 405.877C285.65 406.173 285.366 406.405 284.998 406.573C284.63 406.733 284.19 406.813 283.678 406.813Z" fill="#F6F6F6"/>
<defs>
<linearGradient id="paint0_linear_7948_553" x1="286.718" y1="351.36" x2="38.2682" y2="379.421" gradientUnits="userSpaceOnUse">
<stop stop-color="#FF1A1E"/>
<stop offset="1" stop-color="#999999"/>
</linearGradient>
<linearGradient id="paint1_linear_7948_553" x1="284.095" y1="186.119" x2="70.5837" y2="359.095" gradientUnits="userSpaceOnUse">
<stop stop-color="#22C55E"/>
<stop offset="1" stop-color="#999999"/>
</linearGradient>
<linearGradient id="paint2_linear_7948_553" x1="25.04" y1="382.781" x2="337.04" y2="382.781" gradientUnits="userSpaceOnUse">
<stop stop-color="#6D6D6D" stop-opacity="0"/>
<stop offset="0.15" stop-color="white"/>
<stop offset="0.511781" stop-color="white"/>
<stop offset="0.76" stop-color="white"/>
<stop offset="1" stop-color="#999999" stop-opacity="0"/>
</linearGradient>
</defs>
</svg>
