<svg width="79" height="79" viewBox="0 0 79 79" fill="none" xmlns="http://www.w3.org/2000/svg">
<path d="M0.959279 0.249413C0.0383711 0.709869 0 0.97847 0 8.21143C0 15.8473 0.0191856 15.924 1.30462 16.3077C1.74589 16.4612 3.26155 16.4996 5.41033 16.4612C8.67188 16.4037 8.80618 16.3845 9.28582 15.9432C9.76546 15.5019 9.78464 15.3868 9.82301 12.816L9.88057 10.1684L18.3222 24.0779C22.9651 31.7329 27.0517 38.5054 27.397 39.1194C28.2795 40.7118 29.469 46.0262 29.1621 47.043C28.9894 47.6378 28.0493 48.5971 24.0203 52.2999C21.3152 54.7748 18.7635 57.2498 18.3798 57.7869C17.9769 58.3241 17.5164 59.2067 17.3629 59.7439C17.056 60.7415 15.3485 73.3464 15.3485 74.4784C15.3676 75.3034 15.924 76.5121 16.6147 77.1644C18.5908 79.0254 22.2936 79.0254 24.2314 77.1644C25.0564 76.3778 25.2098 76.0132 26.3802 71.4663C28.0877 64.8472 28.3946 63.8304 28.8935 63.1781C29.3731 62.5642 36.1072 58.2282 37.527 57.6335C38.4479 57.2498 40.2321 57.2114 41.0955 57.5567C41.9205 57.9021 48.693 62.0845 49.2686 62.6025C50.1511 63.4083 50.4581 64.2525 51.897 69.8355C52.7028 72.9436 53.5661 75.8406 53.7963 76.2627C54.0266 76.6847 54.6021 77.2987 55.1202 77.644C58.4584 79.8887 63.3124 77.951 63.3124 74.4017C63.3124 73.5575 61.7008 61.1252 61.4706 60.1084C61.3938 59.8206 61.0869 59.0724 60.7607 58.4393C60.2619 57.48 59.3218 56.5399 54.7364 52.3382C51.7435 49.5755 49.3069 47.2157 49.3069 47.0238C49.3069 46.0646 50.7075 40.4624 51.1871 39.5223C51.8202 38.3136 68.3966 10.955 68.6843 10.6672C68.8186 10.5329 68.8762 11.3003 68.8762 12.9695C68.8762 15.406 68.8954 15.4828 69.375 15.9432C69.8547 16.3845 69.9698 16.4037 73.2505 16.4612C75.3993 16.4996 76.915 16.4612 77.3562 16.3077C78.68 15.924 78.68 15.8665 78.6225 7.96201C78.5649 0.97847 78.5649 0.97847 78.1236 0.537201C77.7016 0.115112 77.5481 0.095932 74.1139 0.0383759C70.2192 -0.0383682 69.8163 0.0191879 69.2599 0.575569C68.9146 0.920906 68.8762 1.22788 68.8762 3.74119V6.52309H39.3304H9.78464V3.8563C9.78464 2.37901 9.72709 1.03603 9.66953 0.86335C9.38175 0.153488 8.59514 0 4.94988 0C2.51331 0 1.28543 0.0767441 0.959279 0.249413ZM58.7079 9.89976C58.7079 9.95731 55.3312 14.5427 51.1871 20.0873C43.7047 30.1214 43.6664 30.1597 43.0908 30.0254C41.6519 29.7376 37.5078 29.6993 36.3183 29.9871L35.1096 30.2556L27.6656 20.26C23.5791 14.7729 20.164 10.1492 20.0681 10.0149C19.953 9.8422 23.8669 9.78465 39.3112 9.78465C49.9784 9.78465 58.7079 9.8422 58.7079 9.89976Z" fill="url(#paint0_linear_25440_33359)"/>
<path d="M36.99 11.8761C34.0162 12.8353 31.9825 15.0609 31.3494 18.0538C30.5052 22.0636 32.8459 26.0926 36.7981 27.4164C38.9853 28.1646 41.7672 27.8193 43.7049 26.5914C46.3717 24.9031 47.9257 21.4305 47.3885 18.3992C46.4868 13.4685 41.5945 10.3988 36.99 11.8761Z" fill="#EF4444"/>
<defs>
<linearGradient id="paint0_linear_25440_33359" x1="39.3203" y1="78.6047" x2="39.3203" y2="0" gradientUnits="userSpaceOnUse">
<stop stop-color="#B13333"/>
<stop offset="1" stop-color="#EF4444"/>
</linearGradient>
</defs>
</svg>
