<svg width="131" height="80" viewBox="0 0 131 80" fill="none" xmlns="http://www.w3.org/2000/svg">
<path d="M118.858 0.304428C117.167 0.74848 115.527 1.75993 114.194 3.1661C112.606 4.8683 111.888 6.69385 111.888 9.21015C111.863 10.9124 111.965 11.4057 112.657 12.8119C114.041 15.6736 116.116 17.3511 119.14 18.1159C122.957 19.0533 127.057 17.5485 129.235 14.3908C131.515 11.1344 131.464 7.03923 129.132 3.78284C127.006 0.797819 122.624 -0.682356 118.858 0.304428Z" fill="#86EFAC"/>
<path d="M84.9076 1.29169C83.1653 2.03178 82.7041 4.05469 83.9852 5.36217C84.3695 5.75689 88.2642 8.14984 92.6457 10.6908L100.614 15.2794L103.535 15.8961C106.866 16.5868 107.738 17.0062 108.404 18.215C109.634 20.4106 108.276 23.1736 105.765 23.5437C105.278 23.6177 102.818 23.2476 99.9226 22.6556C97.2066 22.1128 94.7981 21.7181 94.6443 21.7675C94.1575 21.9401 91.9283 25.2459 90.6984 27.5895C86.9575 34.7683 86.9575 38.6168 90.6984 41.2564C91.4927 41.7992 95.4386 44.0934 99.4614 46.3384L106.79 50.4088L112.99 58.9692C118.474 66.5428 119.319 67.6036 120.267 68.0476C122.471 69.0591 125.033 68.3683 126.212 66.4194C126.775 65.482 126.878 65.0873 126.775 63.8784C126.673 62.2996 127.083 62.941 117.167 49.2987L113.118 43.7481L107.814 40.7877C104.919 39.1595 102.459 37.7534 102.357 37.6547C101.896 37.2106 105.329 32.104 109.582 26.9481C111.274 24.9005 112.862 22.7296 113.093 22.1622C113.938 20.0899 113.58 17.4009 112.273 16.0688C111.965 15.7974 110.018 14.5639 107.943 13.3305C86.7525 1.02033 86.5731 0.921654 85.9069 0.94632C85.8044 0.970993 85.3432 1.119 84.9076 1.29169Z" fill="url(#paint0_linear_25440_33362)"/>
<path d="M74.5556 12.2206C73.505 13.1333 73.3257 14.3421 74.0175 15.4523C74.325 15.8963 74.8118 16.3651 75.1193 16.4884C76.2211 16.9571 105.175 22.6805 105.713 22.5571C107.43 22.1377 108.275 20.3615 107.507 18.7827C106.969 17.6972 106.379 17.4752 101.46 16.4884C97.3343 15.6743 88.4688 13.8734 81.2944 12.4179C76.1955 11.3571 75.5805 11.3325 74.5556 12.2206Z" fill="#4ADE80"/>
<path d="M77.6298 34.6694C72.7358 35.1628 64.1009 36.9637 58.8994 38.5919C38.1193 45.006 17.3647 58.8703 2.09347 76.5584C-0.0332275 79.0007 -0.212588 79.2967 0.146133 79.6421C0.504853 79.9628 0.632968 79.9134 1.35041 79.0253C5.27071 74.3134 12.6757 67.0853 18.1846 62.5954C34.5833 49.2491 52.7499 40.5654 71.0703 37.3584C72.9151 37.013 75.7337 36.6183 77.2967 36.4703C79.2952 36.2483 80.1408 36.0756 80.0127 35.8782C79.7565 35.4095 78.834 34.4967 78.6803 34.5461C78.6034 34.5461 78.1166 34.6201 77.6298 34.6694Z" fill="#22C55E"/>
<path d="M90.441 42.5885C90.441 42.6625 90.7485 43.2053 91.1072 43.7973C91.4659 44.4141 91.7221 44.9321 91.6709 44.9815C91.6453 45.0061 88.8268 44.6854 85.4445 44.2167C77.1171 43.1066 76.0666 43.1313 74.6061 44.4387C73.1968 45.6969 72.7612 48.1145 73.6324 49.718C74.068 50.5568 75.3491 51.6176 76.2203 51.8643C77.0658 52.111 99.4346 54.9727 100.485 54.9727C102.637 54.9727 104.61 53.2951 104.636 51.4449C104.662 50.4828 104.61 50.4335 102.868 49.422C98.461 46.8564 90.441 42.4405 90.441 42.5885Z" fill="#22C55E"/>
<defs>
<linearGradient id="paint0_linear_25440_33362" x1="105.032" y1="68.5107" x2="105.032" y2="0.944702" gradientUnits="userSpaceOnUse">
<stop stop-color="#22C55E"/>
<stop offset="1" stop-color="#86EFAC"/>
</linearGradient>
</defs>
</svg>
