<svg width="79" height="79" viewBox="0 0 79 79" fill="none" xmlns="http://www.w3.org/2000/svg">
<path d="M32.7739 0.201363C33.3007 0.333107 34.1567 0.66246 34.6999 0.925949C36.5602 1.88108 42.7829 5.89923 43.2439 6.47561C44.2316 7.67776 44.3304 9.04459 43.5896 11.0372C42.7665 13.2274 43.0299 13.1286 37.9924 13.1286H33.7122L33.3171 12.7169C32.9549 12.3711 32.9056 12.1735 32.9056 11.1525C32.9056 10.1315 32.8562 9.93386 32.494 9.58804C32.2471 9.32455 31.9014 9.17634 31.5886 9.17634C31.2758 9.17634 30.9301 9.32455 30.6831 9.58804C30.321 9.93386 30.2716 10.1315 30.2716 11.1689C30.2716 11.8112 30.3539 12.6511 30.4691 13.0298C30.7325 13.9355 32.0989 15.3024 33.0043 15.5659C33.4653 15.6976 35.1115 15.7635 38.0747 15.7635C40.7581 15.7635 42.6019 15.8293 42.7829 15.9282C43.1945 16.1587 43.425 16.5704 43.5896 17.4926C43.8694 19.0241 43.2274 20.6215 41.9763 21.4449C40.6593 22.3341 35.9182 23.4046 32.4611 23.6022C29.2015 23.7998 25.6128 22.8447 21.135 20.6215C19.7686 19.9463 18.4681 19.3864 18.2376 19.3864C17.217 19.3864 16.7231 20.8685 17.4968 21.5766C18.0236 22.0707 21.2173 23.668 23.1928 24.4256C24.0488 24.7549 24.7732 25.0349 24.7896 25.0513C24.8061 25.0678 24.7238 25.5289 24.5921 26.0559C24.2464 27.5874 23.8842 30.321 23.769 32.3137L23.6537 34.1251L24.8061 36.513C25.8597 38.6867 27.1437 41.6839 27.1437 41.9473C27.1437 42.0132 26.4688 42.4579 25.6292 42.9519C23.1763 44.4011 20.065 47.6782 20.065 48.8144C20.065 49.3249 20.7564 50.0166 21.2832 50.0166C21.9581 50.0166 22.1721 49.8519 22.9459 48.7815C25.1683 45.6526 29.3332 43.3965 34.5518 42.4908C36.8071 42.0956 42.2891 42.0956 44.5115 42.5073C46.3059 42.8366 48.6435 43.5283 50.1251 44.187C52.2488 45.1256 54.6358 46.9371 55.8046 48.5016C56.743 49.7531 57.0557 50.0166 57.6319 50.0166C58.2246 50.0166 58.916 49.3579 58.916 48.8144C58.916 47.8428 56.2985 44.8786 54.3395 43.6106C53.8785 43.2977 53.4834 42.9848 53.4834 42.919C53.4834 42.7049 56.0845 40.4982 57.3191 39.6748C60.6281 37.4352 64.3979 36.1507 69.0238 35.706C70.0116 35.6072 72.4809 35.5249 74.5058 35.5249H78.1933L78.5884 35.9366L79 36.3318V57.2624V78.1931L78.5884 78.5883L78.1933 79H69.1226H60.0519L59.6568 78.5883C59.3275 78.2754 59.2452 78.0119 59.2452 77.4026C59.2288 73.2363 56.1668 69.1852 51.6561 67.3572C50.7836 67.0114 50.5861 66.9785 50.1745 67.1596C49.5983 67.3902 49.3679 67.7525 49.3679 68.4276C49.3679 69.0205 49.8288 69.4487 50.9647 69.9097C52.7426 70.6179 54.6852 72.2482 55.5906 73.7962L55.9363 74.3725L54.6687 74.8501C49.9605 76.6616 44.0341 78.0613 38.4204 78.7036C35.6218 79.0165 28.4607 78.9671 26.1395 78.6212C22.0075 77.9955 18.2541 76.8592 14.6324 75.1136C11.949 73.8126 10.5168 72.9398 8.12979 71.1778C4.78794 68.6747 1.90704 65.4799 0.655907 62.8615C0.112648 61.7252 0.0632629 61.4782 0.0138779 59.8479C-0.0684357 57.7894 0.227882 51.6304 0.573593 47.7934C1.85765 33.4499 5.49582 19.4852 11.0272 7.46368C12.41 4.46654 12.8874 3.72549 14.1056 2.55627C15.1757 1.53526 16.1305 0.942413 17.5298 0.415443C18.4681 0.0696182 18.7315 0.0531464 25.1683 0.00374603C30.4691 -0.0127182 32.0331 0.0202179 32.7739 0.201363Z" fill="url(#paint0_linear_25440_33355)"/>
<defs>
<linearGradient id="paint0_linear_25440_33355" x1="39.5" y1="0" x2="39.5" y2="79" gradientUnits="userSpaceOnUse">
<stop stop-color="#91C5FF"/>
<stop offset="1" stop-color="#3781FA"/>
</linearGradient>
</defs>
</svg>
