<svg width="24" height="24" viewBox="0 0 24 24" fill="none" xmlns="http://www.w3.org/2000/svg">
<g clip-path="url(#clip0_25440_33296)">
<path d="M24 12C24 18.0683 19.0683 23 13 23C6.93167 23 2 18.0683 2 12C2 5.93167 6.93167 1 13 1C13.6692 1 14.3475 1.06417 14.9983 1.18333C15.4933 1.275 15.8233 1.75167 15.7317 2.24667C15.64 2.74167 15.1633 3.07167 14.6683 2.98C14.1275 2.87917 13.5592 2.83333 13 2.83333C7.94917 2.83333 3.83333 6.94917 3.83333 12C3.83333 17.0508 7.94917 21.1667 13 21.1667C18.0508 21.1667 22.1667 17.0508 22.1667 12C22.1667 11.4408 22.1117 10.8817 22.02 10.3317C21.9283 9.83667 22.2583 9.36 22.7533 9.26833C23.2575 9.17667 23.725 9.50667 23.8167 10.0017C23.9358 10.6525 24 11.3308 24 12ZM13.7883 6.555C14.2925 6.62833 14.7508 6.28 14.8242 5.77583C14.8975 5.27167 14.5492 4.81333 14.045 4.74C13.6967 4.69417 13.3483 4.66667 13 4.66667C8.9575 4.66667 5.66667 7.9575 5.66667 12C5.66667 16.0425 8.9575 19.3333 13 19.3333C17.0425 19.3333 20.3333 16.0425 20.3333 12C20.3333 11.6517 20.3058 11.3033 20.26 10.955C20.1867 10.4508 19.7283 10.1025 19.2242 10.1758C18.72 10.2492 18.3717 10.7075 18.445 11.2117C18.4817 11.4683 18.5 11.7342 18.5 12C18.5 15.0342 16.0342 17.5 13 17.5C9.96583 17.5 7.5 15.0342 7.5 12C7.5 8.96583 9.96583 6.5 13 6.5C13.2658 6.5 13.5317 6.51833 13.7883 6.555ZM11.7808 10.6342C12.1567 10.295 12.1933 9.7175 11.8542 9.34167C11.515 8.96583 10.9375 8.92917 10.5617 9.26833C9.7825 9.965 9.3425 10.9642 9.3425 12C9.3425 14.0258 10.9833 15.6667 13.0092 15.6667C14.0542 15.6667 15.0442 15.2175 15.7408 14.4475C16.08 14.0717 16.0433 13.4942 15.6675 13.155C15.2917 12.8158 14.7142 12.8525 14.375 13.2283C14.0267 13.6133 13.5317 13.8425 13.0092 13.8425C12.0008 13.8425 11.1758 13.0175 11.1758 12.0092C11.1758 11.4867 11.3958 10.9917 11.79 10.6433L11.7808 10.6342ZM13.275 10.4325C12.9175 10.79 12.9175 11.3675 13.275 11.725C13.4583 11.9083 13.6875 11.9908 13.9258 11.9908C14.1642 11.9908 14.3933 11.8992 14.5767 11.725L18.8942 7.4075H21.2683C21.5158 7.4075 21.745 7.30667 21.9192 7.14167L23.7525 5.30833C24.0183 5.0425 24.0917 4.64833 23.9542 4.30917C23.8167 3.97 23.4775 3.74083 23.1108 3.74083H21.2775V1.91667C21.2775 1.55 21.0575 1.21083 20.7092 1.07333C20.3608 0.926667 19.9758 1.00917 19.71 1.275L17.8767 3.10833C17.7025 3.2825 17.6108 3.51167 17.6108 3.75917V6.13333L13.2933 10.4508L13.275 10.4325Z" fill="white"/>
</g>
<defs>
<clipPath id="clip0_25440_33296">
<rect width="24" height="24" fill="white"/>
</clipPath>
</defs>
</svg>
