<svg width="71" height="80" viewBox="0 0 71 80" fill="none" xmlns="http://www.w3.org/2000/svg">
<path d="M46.3145 0.0170898C47.3644 -0.0809256 48.4186 0.242115 49.207 0.928223C49.9914 1.61785 50.4432 2.59774 50.4434 3.62842C50.4434 15.2487 54.9315 19.5578 60.1328 24.5493C65.2257 29.4319 70.994 34.9683 70.9941 47.1909C70.9941 68.2606 58.3872 79.8628 35.4971 79.8628C13.2798 79.8627 0.011346 66.9686 0 45.3765C-0.00373655 39.5064 2.88485 32.8043 5.20898 27.4243L5.87793 25.8599C6.15445 25.2175 6.60301 24.6879 7.14844 24.3032C8.43007 23.4066 10.1672 23.3809 11.4824 24.2739C11.8149 24.499 12.0994 24.7715 12.3311 25.0728C12.8726 25.7769 13.153 26.6702 13.0596 27.603C12.6411 31.774 13.0368 38.7107 15.2373 41.0669C15.6894 41.557 16.1344 41.7456 16.8145 41.7456C17.9128 41.7456 18.3987 41.405 18.7275 41.0747C21.0031 38.7877 20.5508 26.1321 20.5508 25.4097C20.551 7.42603 37.4028 0.935579 46.3145 0.0170898ZM42.3848 34.0239C37.929 34.4661 29.5029 37.5915 29.5029 46.2505C29.5031 46.6023 29.7282 52.6917 28.5908 53.7925C28.4264 53.9514 28.1836 54.1157 27.6348 54.1157C27.2948 54.1157 27.0727 54.0244 26.8467 53.7886C25.7463 52.6543 25.5477 49.3145 25.7568 47.3062C25.8035 46.8569 25.6635 46.4265 25.3926 46.0874C25.2768 45.9424 25.135 45.811 24.9688 45.7026C24.3112 45.2727 23.4425 45.2856 22.8018 45.7173C22.529 45.9026 22.3043 46.1579 22.166 46.4673L21.832 47.2202C20.67 49.8106 19.2257 53.0375 19.2275 55.8638C19.2333 66.2598 25.8673 72.4682 36.9756 72.4683C48.4203 72.4683 54.7244 66.8822 54.7246 56.7378C54.7246 50.8527 51.8394 48.1863 49.293 45.8354C46.6926 43.4323 44.4493 41.3577 44.4492 35.7632C44.4492 35.2668 44.2224 34.7945 43.8301 34.4624C43.436 34.1323 42.9095 33.9768 42.3848 34.0239Z" fill="url(#paint0_linear_25440_33356)"/>
<defs>
<linearGradient id="paint0_linear_25440_33356" x1="35" y1="15.9995" x2="35" y2="77.4995" gradientUnits="userSpaceOnUse">
<stop stop-color="#FDBA74"/>
<stop offset="1" stop-color="#F97316"/>
</linearGradient>
</defs>
</svg>
