<svg width="18" height="19" viewBox="0 0 18 19" fill="none" xmlns="http://www.w3.org/2000/svg">
<path fill-rule="evenodd" clip-rule="evenodd" d="M2.54537 18.3465C2.77799 18.5238 3.09245 18.5497 3.35095 18.4128L16.1009 11.6628C16.3465 11.5329 16.5 11.2778 16.5 11C16.5 10.7222 16.3465 10.4671 16.1009 10.3371L3.35095 3.58714C3.09245 3.45034 2.77799 3.47622 2.54537 3.65351C2.31276 3.83082 2.20444 4.12721 2.26789 4.41266L3.73173 11L2.26789 17.5873C2.20444 17.8728 2.31276 18.1692 2.54537 18.3465ZM5.10166 10.25L4.08449 5.67274L12.7304 10.25L5.10166 10.25ZM12.7304 11.75H5.10166L4.08449 16.3272L12.7304 11.75Z" fill="#121212"/>
</svg>
