<svg width="23" height="22" viewBox="0 0 23 22" fill="none" xmlns="http://www.w3.org/2000/svg">
<path d="M0.171757 1.83398C-0.0577582 2.75065 -0.0567457 6.87565 0.171757 7.33398C0.171757 7.33398 11.994 7.33398 13.0051 7.33398L22.1718 7.33398C22.4009 6.41732 22.4009 2.75065 22.1718 1.83398H13.0051C11.994 1.83398 0.171757 1.83398 0.171757 1.83398Z" fill="#6B6B6B"/>
<path d="M0.171757 9.16602C-0.0577582 10.0827 -0.0567457 14.2077 0.171757 14.666C0.171757 14.666 11.994 14.666 13.0051 14.666H22.1718C22.4009 13.7493 22.4009 10.0827 22.1718 9.16602H13.0051C11.994 9.16602 0.171757 9.16602 0.171757 9.16602Z" fill="#6B6B6B"/>
<path d="M0.171757 16.5C-0.0577582 17.4167 -0.0567457 21.5417 0.171757 22C0.171757 22 11.994 22 13.0051 22H22.1718C22.4009 21.0833 22.4009 17.4167 22.1718 16.5H13.0051C11.994 16.5 0.171757 16.5 0.171757 16.5Z" fill="#6B6B6B"/>
</svg>
