<svg width="23" height="23" viewBox="0 0 23 23" fill="none" xmlns="http://www.w3.org/2000/svg">
<path fill-rule="evenodd" clip-rule="evenodd" d="M11.5 0C5.14846 0 0 5.14846 0 11.5C0 17.8515 5.14846 23 11.5 23C17.8515 23 23 17.8515 23 11.5C23 5.14846 17.8515 0 11.5 0ZM12.3846 4.42308C12.3846 4.18846 12.2914 3.96346 12.1255 3.79756C11.9596 3.63166 11.7346 3.53846 11.5 3.53846C11.2654 3.53846 11.0404 3.63166 10.8745 3.79756C10.7086 3.96346 10.6154 4.18846 10.6154 4.42308V11.5C10.6154 11.9883 11.0117 12.3846 11.5 12.3846H16.8077C17.0423 12.3846 17.2673 12.2914 17.4332 12.1255C17.5991 11.9596 17.6923 11.7346 17.6923 11.5C17.6923 11.2654 17.5991 11.0404 17.4332 10.8745C17.2673 10.7086 17.0423 10.6154 16.8077 10.6154H12.3846V4.42308Z" fill="url(#paint0_linear_18848_105371)"/>
<defs>
<linearGradient id="paint0_linear_18848_105371" x1="11.5" y1="23" x2="11.5" y2="0" gradientUnits="userSpaceOnUse">
<stop stop-color="#3781FA"/>
<stop offset="1" stop-color="#91C5FF"/>
</linearGradient>
</defs>
</svg>
