<svg width="24" height="25" viewBox="0 0 24 25" fill="none" xmlns="http://www.w3.org/2000/svg">
<path d="M11.3956 2.70418C12.2972 1.73753 13.8133 1.68156 14.7844 2.57547C14.8886 2.29339 15.0462 2.02409 15.2662 1.78824C16.1713 0.817958 17.6965 0.764691 18.6671 1.66947L20.1348 3.03813L20.3745 2.78102C20.6574 2.47794 21.1326 2.46134 21.4359 2.74395C21.7393 3.02683 21.7564 3.50255 21.4737 3.80601L21.2339 4.06313L22.7009 5.43112C23.6715 6.33618 23.7246 7.86133 22.8197 8.832C22.5997 9.06793 22.3422 9.24384 22.068 9.36748C23.028 10.2738 23.0783 11.7907 22.1767 12.7577C21.2716 13.7282 19.7465 13.7813 18.7758 12.8764L15.6947 10.0032L9.94899 16.1647L13.0301 19.0379C14.0004 19.943 14.0536 21.4682 13.1489 22.4388C12.2471 23.4058 10.7298 23.4621 9.7587 22.5676C9.65451 22.8496 9.49748 23.1183 9.27763 23.3541C8.37248 24.3247 6.8474 24.378 5.87675 23.4728L4.40975 22.1049L4.16999 22.362C3.88702 22.6654 3.41067 22.6821 3.10722 22.3991C2.80404 22.1161 2.78793 21.6403 3.07082 21.337L3.31058 21.0799L1.84288 19.7112C0.872495 18.806 0.819052 17.2809 1.72411 16.3103C1.94394 16.0746 2.20122 15.8992 2.47516 15.7755C1.51564 14.8691 1.46628 13.3521 2.36783 12.3853C3.27297 11.415 4.79814 11.3616 5.76871 12.2666L8.84982 15.1397L14.5955 8.97824L11.5144 6.10505C10.5439 5.19989 10.4905 3.67478 11.3956 2.70418ZM3.467 13.4103C3.12776 13.7741 3.14726 14.3472 3.51159 14.687L10.773 21.4584C11.1375 21.798 11.7098 21.7769 12.049 21.4131C12.3879 21.0494 12.3685 20.4776 12.0044 20.1378L4.74305 13.3665C4.37867 13.0268 3.80628 13.0468 3.467 13.4103ZM12.4948 3.72917C12.1556 4.09297 12.1751 4.666 12.5394 5.00588L19.8008 11.7772C20.1653 12.1168 20.7376 12.0957 21.0768 11.732C21.4159 11.3682 21.3971 10.7958 21.0329 10.456L13.7715 3.68459C13.4071 3.34491 12.8341 3.36552 12.4948 3.72917ZM2.824 17.336C2.4848 17.6997 2.50368 18.2721 2.86787 18.612L6.90174 22.3737C7.2662 22.7135 7.83916 22.6929 8.17845 22.3291C8.5176 21.9652 8.49828 21.3922 8.13387 21.0524L4.1 17.2907C3.73557 16.9512 3.16322 16.9724 2.824 17.336ZM16.3661 2.8139C16.0269 3.17765 16.0457 3.75004 16.4099 4.08994L20.4438 7.85159C20.8083 8.19145 21.3812 8.17085 21.7205 7.807C22.0595 7.44314 22.0396 6.87078 21.6753 6.53101L17.6414 2.76936C17.277 2.42986 16.7053 2.45043 16.3661 2.8139Z" fill="url(#paint0_linear_18848_105402)" stroke="url(#paint1_linear_18848_105402)" stroke-width="0.4"/>
<defs>
<linearGradient id="paint0_linear_18848_105402" x1="7.5" y1="24.8218" x2="15.5" y2="1.32178" gradientUnits="userSpaceOnUse">
<stop stop-color="#22C55E"/>
<stop offset="1" stop-color="#86EFAC"/>
</linearGradient>
<linearGradient id="paint1_linear_18848_105402" x1="8.5" y1="23.8218" x2="15" y2="0.821777" gradientUnits="userSpaceOnUse">
<stop stop-color="#22C55E"/>
<stop offset="1" stop-color="#86EFAC"/>
</linearGradient>
</defs>
</svg>
