<svg width="24" height="24" viewBox="0 0 24 24" fill="none" xmlns="http://www.w3.org/2000/svg">
<path fill-rule="evenodd" clip-rule="evenodd" d="M12 0C5.37231 0 0 5.37231 0 12C0 18.6277 5.37231 24 12 24C18.6277 24 24 18.6277 24 12C24 5.37231 18.6277 0 12 0ZM11.3477 17.2677C11.5208 17.4406 11.7554 17.5376 12 17.5376C12.2446 17.5376 12.4792 17.4406 12.6523 17.2677L16.3446 13.5754C16.4353 13.4909 16.508 13.389 16.5585 13.2757C16.609 13.1625 16.6361 13.0403 16.6383 12.9163C16.6405 12.7924 16.6177 12.6693 16.5712 12.5543C16.5248 12.4394 16.4557 12.335 16.368 12.2473C16.2804 12.1597 16.176 12.0906 16.061 12.0442C15.9461 11.9977 15.823 11.9749 15.699 11.9771C15.5751 11.9793 15.4529 12.0064 15.3396 12.0569C15.2264 12.1073 15.1245 12.1801 15.04 12.2708L12.9231 14.3877V7.38462C12.9231 7.1398 12.8258 6.90501 12.6527 6.7319C12.4796 6.55879 12.2448 6.46154 12 6.46154C11.7552 6.46154 11.5204 6.55879 11.3473 6.7319C11.1742 6.90501 11.0769 7.1398 11.0769 7.38462V14.3877L8.96 12.2708C8.78502 12.1077 8.55357 12.0189 8.31444 12.0232C8.07529 12.0274 7.84713 12.1243 7.678 12.2934C7.50888 12.4625 7.412 12.6907 7.40778 12.9298C7.40356 13.169 7.49233 13.4004 7.65539 13.5754L11.3477 17.2677Z" fill="url(#paint0_linear_18848_105397)"/>
<defs>
<linearGradient id="paint0_linear_18848_105397" x1="12" y1="0" x2="12" y2="24" gradientUnits="userSpaceOnUse">
<stop stop-color="#EF4444"/>
<stop offset="1" stop-color="#B13333"/>
</linearGradient>
</defs>
</svg>
