<svg width="25" height="25" viewBox="0 0 25 25" fill="none" xmlns="http://www.w3.org/2000/svg">
<g clip-path="url(#clip0_18848_105404)">
<path d="M12.5 25C10.0277 25 7.61099 24.2669 5.55538 22.8934C3.49976 21.5198 1.89761 19.5676 0.951511 17.2835C0.0054161 14.9995 -0.242126 12.4861 0.24019 10.0614C0.722505 7.63661 1.91301 5.40932 3.66117 3.66116C5.40933 1.91301 7.63661 0.722499 10.0614 0.240184C12.4861 -0.242131 14.9995 0.00541037 17.2835 0.951506C19.5676 1.8976 21.5199 3.49976 22.8934 5.55537C24.2669 7.61099 25 10.0277 25 12.5C24.9964 15.8141 23.6783 18.9914 21.3349 21.3349C18.9915 23.6783 15.8141 24.9964 12.5 25ZM12.5 2.08333C10.4398 2.08333 8.42583 2.69426 6.71282 3.83886C4.9998 4.98346 3.66467 6.61032 2.87626 8.51371C2.08785 10.4171 1.88156 12.5116 2.28349 14.5322C2.68542 16.5528 3.67751 18.4089 5.13431 19.8657C6.59111 21.3225 8.44718 22.3146 10.4678 22.7165C12.4885 23.1184 14.5829 22.9122 16.4863 22.1237C18.3897 21.3353 20.0165 20.0002 21.1611 18.2872C22.3057 16.5742 22.9167 14.5602 22.9167 12.5C22.9136 9.73826 21.8152 7.0905 19.8624 5.13765C17.9095 3.18481 15.2617 2.08637 12.5 2.08333ZM17.7083 16.6667C17.7083 16.3904 17.5986 16.1254 17.4032 15.9301C17.2079 15.7347 16.9429 15.625 16.6667 15.625H8.33334C8.05707 15.625 7.79212 15.7347 7.59677 15.9301C7.40142 16.1254 7.29167 16.3904 7.29167 16.6667C7.29167 16.9429 7.40142 17.2079 7.59677 17.4032C7.79212 17.5986 8.05707 17.7083 8.33334 17.7083H16.6667C16.9429 17.7083 17.2079 17.5986 17.4032 17.4032C17.5986 17.2079 17.7083 16.9429 17.7083 16.6667ZM6.25001 10.4167C6.25001 11.4583 7.1823 12.2955 8.33334 12.2955C9.48438 12.2955 10.4167 11.4583 10.4167 10.4167C10.4167 9.86413 10.1972 9.33423 9.80648 8.94353C9.41578 8.55283 8.88587 8.33333 8.33334 8.33333C7.7808 8.33333 7.2509 8.55283 6.8602 8.94353C6.4695 9.33423 6.25001 9.86413 6.25001 10.4167ZM14.5833 10.4167C14.5833 11.4583 15.5 12.3371 16.6667 12.2955C17.8177 12.2955 18.75 11.4583 18.75 10.4167C18.75 9.86413 18.5305 9.33423 18.1398 8.94353C17.7491 8.55283 17.2192 8.33333 16.6667 8.33333C16.1141 8.33333 15.5842 8.55283 15.1935 8.94353C14.8028 9.33423 14.5833 9.86413 14.5833 10.4167Z" fill="#888888"/>
</g>
<defs>
<clipPath id="clip0_18848_105404">
<rect width="25" height="25" fill="white"/>
</clipPath>
</defs>
</svg>
