<svg width="24" height="25" viewBox="0 0 24 25" fill="none" xmlns="http://www.w3.org/2000/svg">
<path d="M12 0.5C5.38 0.5 0 5.88 0 12.5C0 19.12 5.38 24.5 12 24.5C18.62 24.5 24 19.12 24 12.5C24 5.88 18.62 0.5 12 0.5ZM4.24 6.2C4.77 5.55 5.37 4.97 6.04 4.48C9.49 5.14 15.76 6.75 21.78 10.45C21.92 11.11 21.99 11.8 21.99 12.51C21.99 12.66 21.99 12.81 21.98 12.96C15 8.26 7.25 6.67 4.24 6.2ZM2.02 11.87C2.11 10.5 2.47 9.21 3.05 8.05C3.67 8.13 5.31 8.37 7.51 8.91C4.97 9.97 3.16 11.07 2.03 11.87H2.02ZM20.65 7.48C16.29 5.15 11.99 3.79 8.81 3.02C9.81 2.68 10.89 2.5 12.01 2.5C15.7 2.5 18.92 4.5 20.66 7.48H20.65ZM12 22.5C7.09 22.5 3 18.95 2.16 14.28C2.74 13.8 4.4 12.53 7.22 11.23C7.08 11.46 7 11.72 7 12.01C7 12.84 7.67 13.51 8.5 13.51C9.33 13.51 10 12.84 10 12.01C10 11.29 9.49 10.69 8.82 10.54C9.42 10.3 10.06 10.06 10.74 9.83C11.86 10.19 13.06 10.62 14.28 11.13C14.1 11.38 14 11.68 14 12.01C14 12.84 14.67 13.51 15.5 13.51C16.21 13.51 16.81 13.02 16.96 12.35C18.53 13.14 20.12 14.06 21.64 15.15C20.48 19.39 16.59 22.51 11.99 22.51L12 22.5ZM16.87 17.99C16.69 18.32 16.35 18.5 16 18.5C15.84 18.5 15.67 18.46 15.52 18.38C15.5 18.38 13.91 17.5 12.01 17.5C10.11 17.5 8.51 18.37 8.49 18.38C8.01 18.64 7.4 18.47 7.13 17.99C6.86 17.51 7.03 16.9 7.52 16.63C7.6 16.58 9.57 15.5 12.01 15.5C14.45 15.5 16.42 16.58 16.5 16.63C16.98 16.9 17.16 17.51 16.89 17.99H16.87Z" fill="url(#paint0_linear_18848_105399)"/>
<defs>
<linearGradient id="paint0_linear_18848_105399" x1="12" y1="24.5" x2="12" y2="0.5" gradientUnits="userSpaceOnUse">
<stop stop-color="#EAB308"/>
<stop offset="1" stop-color="#FEF08A"/>
</linearGradient>
</defs>
</svg>
