<svg width="25" height="25" viewBox="0 0 25 25" fill="none" xmlns="http://www.w3.org/2000/svg">
<g clip-path="url(#clip0_18848_105338)">
<path d="M12.5 24.8496C19.3099 24.8496 24.8496 19.3099 24.8496 12.5C24.8496 5.69013 19.3099 0.150391 12.5 0.150391C5.69013 0.150391 0.150391 5.69013 0.150391 12.5C0.150391 19.3099 5.69013 24.8496 12.5 24.8496ZM12.5 23.0664C6.67341 23.0664 1.93359 18.3266 1.93359 12.5C1.93359 6.67341 6.67341 1.93359 12.5 1.93359C18.3266 1.93359 23.0664 6.67341 23.0664 12.5C23.0664 18.3266 18.3266 23.0664 12.5 23.0664ZM8.85449 11.3086C9.634 11.3084 10.2666 10.6751 10.2666 9.89551C10.2664 9.11611 9.63389 8.48357 8.85449 8.4834C8.07494 8.4834 7.44158 9.116 7.44141 9.89551C7.44141 10.6752 8.07484 11.3086 8.85449 11.3086ZM16.1455 11.3086C16.9252 11.3086 17.5586 10.6752 17.5586 9.89551C17.5584 9.116 16.9251 8.4834 16.1455 8.4834C15.3661 8.48357 14.7336 9.11611 14.7334 9.89551C14.7334 10.6751 15.366 11.3084 16.1455 11.3086ZM12.5 18.5986C14.0843 18.5986 15.5078 18.0476 16.5527 17.4795C17.5956 16.9125 18.2521 16.3334 18.3018 16.2891L18.3115 16.2803C18.6694 15.9509 18.6988 15.3952 18.374 15.0313H18.373C18.1975 14.8344 17.9535 14.7334 17.708 14.7334C17.5231 14.7335 17.3374 14.7902 17.1797 14.9063L17.1143 14.96L17.0098 15.0469C16.8152 15.2039 16.3599 15.5498 15.7334 15.8945C14.8994 16.3533 13.7494 16.8164 12.5 16.8164C11.2506 16.8164 10.1009 16.3536 9.2666 15.8945C8.4409 15.4402 7.91211 14.9831 7.88379 14.958C7.51567 14.6319 6.95339 14.6658 6.62598 15.0332C6.29947 15.4007 6.33044 15.9621 6.69727 16.2891H6.69824C6.74795 16.3334 7.40438 16.9125 8.44727 17.4795C9.49217 18.0476 10.9157 18.5986 12.5 18.5986Z" fill="url(#paint0_linear_18848_105338)" stroke="#1E1E1E" stroke-width="0.3"/>
</g>
<defs>
<linearGradient id="paint0_linear_18848_105338" x1="12.5" y1="25" x2="12.5" y2="0" gradientUnits="userSpaceOnUse">
<stop stop-color="#3781FA"/>
<stop offset="1" stop-color="#91C5FF"/>
</linearGradient>
<clipPath id="clip0_18848_105338">
<rect width="25" height="25" fill="white" transform="matrix(-1 0 0 1 25 0)"/>
</clipPath>
</defs>
</svg>
