<svg width="25" height="25" viewBox="0 0 25 25" fill="none" xmlns="http://www.w3.org/2000/svg">
<g clip-path="url(#clip0_18848_105335)">
<path d="M10.0908 0.387695C12.4865 -0.088806 14.9699 0.155114 17.2266 1.08984C19.4831 2.02459 21.4116 3.60784 22.7686 5.63867C24.1256 7.66962 24.8496 10.0574 24.8496 12.5L24.8457 12.8066C24.7638 15.9698 23.4714 18.9856 21.2285 21.2285C18.9132 23.5438 15.7743 24.846 12.5 24.8496L12.043 24.8418C9.76048 24.7573 7.54275 24.0408 5.63867 22.7686C3.60784 21.4116 2.02459 19.4831 1.08984 17.2266C0.155115 14.9699 -0.0888042 12.4865 0.387695 10.0908C0.864223 7.69516 2.0404 5.49476 3.76758 3.76758C5.49476 2.0404 7.69515 0.864223 10.0908 0.387695ZM12.5 1.93359C10.4103 1.93359 8.36747 2.55296 6.62988 3.71387C4.89223 4.87493 3.53708 6.52529 2.7373 8.45605C1.93754 10.3869 1.729 12.5118 2.13672 14.5615C2.54445 16.6112 3.55058 18.4939 5.02832 19.9717C6.50606 21.4494 8.3888 22.4555 10.4385 22.8633C12.4882 23.271 14.6131 23.0625 16.5439 22.2627C18.4747 21.4629 20.1251 20.1078 21.2861 18.3701C22.447 16.6325 23.0664 14.5897 23.0664 12.5L23.0527 11.9756C22.9204 9.3651 21.8258 6.88826 19.9688 5.03125C17.9878 3.05031 15.3015 1.93667 12.5 1.93359ZM8.33301 15.7754H16.667C16.9033 15.7755 17.1297 15.8691 17.2969 16.0361C17.4641 16.2034 17.5586 16.4305 17.5586 16.667C17.5585 16.9034 17.464 17.1297 17.2969 17.2969C17.1297 17.464 16.9034 17.5585 16.667 17.5586H8.33301C8.09664 17.5585 7.87027 17.464 7.70312 17.2969C7.53598 17.1297 7.44149 16.9034 7.44141 16.667C7.44141 16.4305 7.53591 16.2034 7.70312 16.0361C7.87025 15.8691 8.09672 15.7755 8.33301 15.7754ZM8.33301 8.4834C8.84576 8.4834 9.33763 8.68724 9.7002 9.0498C10.0628 9.41237 10.2666 9.90424 10.2666 10.417C10.2664 11.3613 9.41624 12.1455 8.33301 12.1455C7.24994 12.1453 6.40059 11.3612 6.40039 10.417C6.40039 9.9044 6.60345 9.41234 6.96582 9.0498C7.32831 8.68731 7.82038 8.48349 8.33301 8.4834ZM16.667 8.4834C17.1796 8.48348 17.6717 8.68731 18.0342 9.0498C18.3965 9.41234 18.5996 9.90439 18.5996 10.417C18.5994 11.3612 17.7501 12.1454 16.667 12.1455H16.6611C15.5725 12.1843 14.7336 11.3666 14.7334 10.417C14.7334 9.90424 14.9372 9.41237 15.2998 9.0498C15.6624 8.68723 16.1542 8.4834 16.667 8.4834Z" fill="url(#paint0_linear_18848_105335)" stroke="#1E1E1E" stroke-width="0.3"/>
</g>
<defs>
<linearGradient id="paint0_linear_18848_105335" x1="12.5" y1="0" x2="12.5" y2="25" gradientUnits="userSpaceOnUse">
<stop stop-color="#91C5FF"/>
<stop offset="1" stop-color="#3781FA"/>
</linearGradient>
<clipPath id="clip0_18848_105335">
<rect width="25" height="25" fill="white"/>
</clipPath>
</defs>
</svg>
