<svg width="25" height="25" viewBox="0 0 25 25" fill="none" xmlns="http://www.w3.org/2000/svg">
<g clip-path="url(#clip0_18848_105332)">
<path d="M12.5 0.150391C19.3099 0.150391 24.8496 5.69013 24.8496 12.5C24.8496 19.3099 19.3099 24.8496 12.5 24.8496C5.69013 24.8496 0.150391 19.3099 0.150391 12.5C0.150391 5.69013 5.69013 0.150391 12.5 0.150391ZM12.5 1.93359C6.67341 1.93359 1.93359 6.67341 1.93359 12.5C1.93359 18.3266 6.67341 23.0664 12.5 23.0664C18.3266 23.0664 23.0664 18.3266 23.0664 12.5C23.0664 6.67341 18.3266 1.93359 12.5 1.93359ZM12.5 14.7334H16.667C17.16 14.7336 17.5586 15.1319 17.5586 15.625C17.5586 16.1181 17.16 16.5164 16.667 16.5166H12.5C11.2506 16.5166 10.1009 16.9796 9.2666 17.4385C8.84839 17.6685 8.50635 17.8988 8.26758 18.0732C8.14818 18.1605 8.05417 18.2338 7.98926 18.2861C7.95686 18.3122 7.93164 18.3339 7.91406 18.3486C7.89721 18.3628 7.88574 18.3721 7.88574 18.3721L7.88379 18.374C7.71454 18.5246 7.50351 18.5986 7.29297 18.5986C7.0781 18.5986 6.86396 18.5214 6.69629 18.3691L6.62695 18.2998L6.56934 18.2285C6.30508 17.8629 6.35472 17.3506 6.69824 17.043C6.74894 16.9977 7.40532 16.42 8.44727 15.8535C9.49218 15.2854 10.9156 14.7334 12.5 14.7334ZM8.85449 8.4834C9.63389 8.48357 10.2664 9.11611 10.2666 9.89551C10.2666 10.6751 9.634 11.3084 8.85449 11.3086C8.07484 11.3086 7.44141 10.6752 7.44141 9.89551C7.44158 9.116 8.07494 8.4834 8.85449 8.4834ZM16.1455 8.4834C16.9251 8.4834 17.5584 9.116 17.5586 9.89551C17.5586 10.6752 16.9252 11.3086 16.1455 11.3086C15.366 11.3084 14.7334 10.6751 14.7334 9.89551C14.7336 9.11611 15.3661 8.48357 16.1455 8.4834Z" fill="url(#paint0_linear_18848_105332)" stroke="#1E1E1E" stroke-width="0.3"/>
</g>
<defs>
<linearGradient id="paint0_linear_18848_105332" x1="12.5" y1="0" x2="12.5" y2="25" gradientUnits="userSpaceOnUse">
<stop stop-color="#91C5FF"/>
<stop offset="1" stop-color="#3781FA"/>
</linearGradient>
<clipPath id="clip0_18848_105332">
<rect width="25" height="25" fill="white"/>
</clipPath>
</defs>
</svg>
