<svg width="28" height="28" viewBox="0 0 28 28" fill="none" xmlns="http://www.w3.org/2000/svg">
<path d="M9.31641 25.7358C13.9893 27.5984 19.4005 26.4892 22.9365 22.937C24.4157 21.4528 25.5298 19.5804 26.1064 17.6108L26.2148 17.2153C26.7643 15.0713 26.7643 12.9287 26.2148 10.7847C25.9999 9.95198 25.7419 9.26514 25.2988 8.36279C24.0717 5.86549 22.0919 3.896 19.5723 2.66846V2.66748C17.9818 1.88991 16.4743 1.49648 14.7061 1.39697L14.3486 1.38135C13.902 1.37051 13.2943 1.37563 13.0059 1.40186L13.0049 1.40283C11.558 1.52538 10.2565 1.85283 8.93164 2.43506L8.3623 2.70068C4.56908 4.56774 2.02698 8.16172 1.4502 12.4946C1.40827 12.8143 1.38673 13.4019 1.38672 13.9995C1.38672 14.5973 1.40826 15.1856 1.4502 15.5054C1.7145 17.4953 2.42692 19.4346 3.46387 20.9819C4.91279 23.1471 6.92645 24.7831 9.31641 25.7358ZM19.1992 23.3677C16.1996 25.0292 12.4392 25.1289 9.31348 23.6245C7.5045 22.7513 5.89858 21.287 4.83691 19.5503L4.63184 19.1997C2.79566 15.8946 2.88475 11.6718 4.83398 8.45557L5.02832 8.14795C6.09218 6.53267 7.6013 5.20097 9.31348 4.37549C10.9799 3.57099 12.8662 3.20733 14.6982 3.32568L15.0645 3.35596C19.3818 3.79605 22.9777 6.7377 24.2266 10.8569C24.5778 12.0053 24.6611 12.6435 24.6611 13.9995C24.6611 14.9606 24.6401 15.3087 24.5439 15.8403C24.3158 17.1033 23.8263 18.4383 23.2227 19.4556V19.4565C22.2805 21.0342 20.7947 22.4756 19.2002 23.3677H19.1992Z" fill="url(#paint0_linear_18848_105325)" stroke="#1E1E1E" stroke-width="0.4"/>
<path d="M19.1768 15.4309C19.3558 15.4139 19.4872 15.3711 19.6006 15.2991C19.7151 15.2263 19.825 15.1146 19.9463 14.9358V14.9348C20.11 14.6837 20.1435 14.5806 20.1436 14.5032C20.1436 14.4186 20.0984 14.276 20.0068 14.1213C19.9172 13.97 19.8027 13.8401 19.7012 13.7717L19.6992 13.7708C19.623 13.718 19.4313 13.6125 19.1699 13.4778C18.9134 13.3455 18.6016 13.1906 18.2939 13.0432C17.9862 12.8958 17.6842 12.7558 17.4473 12.6516C17.3286 12.5994 17.2277 12.5574 17.1514 12.5276C17.1132 12.5127 17.0829 12.5017 17.0605 12.4944L17.041 12.4875C16.9604 12.4792 16.7836 12.4872 16.6641 12.5071C16.5382 12.5321 16.4061 12.5893 16.293 12.6643C16.1767 12.7415 16.0963 12.8272 16.0596 12.8987V12.8997L16.0156 13.0168C15.9825 13.1485 15.9802 13.3191 16.0146 13.4983C16.0604 13.7362 16.1626 13.9434 16.2842 14.0549L16.291 14.0608C16.282 14.0518 16.2814 14.0539 16.3086 14.0715C16.3305 14.0857 16.3615 14.105 16.4014 14.1282C16.4807 14.1743 16.5898 14.2337 16.7207 14.304L17.6934 14.8059C18.3226 15.1219 18.6517 15.2838 18.8535 15.3655C18.9526 15.4056 19.0117 15.422 19.0537 15.429C19.0731 15.4322 19.0909 15.4337 19.1104 15.4338L19.1768 15.4309Z" fill="url(#paint1_linear_18848_105325)" stroke="#1E1E1E" stroke-width="0.4"/>
<path d="M8.27441 15.6592C8.345 15.6591 8.42988 15.646 8.64453 15.5566C8.86198 15.4661 9.19262 15.3071 9.74902 15.0303C10.3705 14.7168 10.6881 14.5543 10.873 14.4404C10.9629 14.3851 11.0137 14.3459 11.0488 14.3115C11.083 14.2781 11.1096 14.2433 11.1475 14.1865V14.1855C11.2244 14.0677 11.3018 13.9064 11.3594 13.7471C11.4188 13.5827 11.4482 13.4449 11.4482 13.3711C11.4482 13.2553 11.3974 13.094 11.3057 12.9385C11.2132 12.7818 11.0995 12.6663 11.0088 12.6191C10.9366 12.5824 10.8169 12.5499 10.6875 12.5352C10.5542 12.5199 10.4483 12.5277 10.3994 12.5439L10.3906 12.5459L10.3604 12.5596C10.3353 12.5705 10.301 12.5857 10.2588 12.6055C10.1741 12.645 10.0592 12.7001 9.92285 12.7666C9.65034 12.8995 9.29306 13.0771 8.91602 13.2656C8.441 13.5031 8.09049 13.6857 7.84766 13.8232C7.7261 13.8921 7.63438 13.9485 7.56836 13.9932C7.53541 14.0155 7.5101 14.0332 7.49219 14.0479C7.48342 14.055 7.47722 14.0611 7.47266 14.0654C7.46851 14.0694 7.46703 14.072 7.4668 14.0723L7.46484 14.0742L7.38867 14.1816C7.23481 14.4438 7.24798 14.7783 7.39746 15.0752C7.56813 15.4139 7.89555 15.6592 8.27441 15.6592Z" fill="url(#paint2_linear_18848_105325)" stroke="#1E1E1E" stroke-width="0.4"/>
<path d="M17.9668 21.3684H17.9678C18.1057 21.3711 18.1727 21.3661 18.2246 21.3518C18.273 21.3385 18.3229 21.3132 18.418 21.2463L18.4209 21.2444C18.7041 21.0522 18.8258 20.8658 18.8477 20.6379C18.8715 20.3899 18.7821 20.0537 18.5391 19.5569C18.4188 19.3116 18.1602 18.9777 17.8447 18.6555C17.5308 18.335 17.1786 18.0443 16.8857 17.8762L16.8848 17.8752C15.8685 17.2856 14.5283 17.0139 13.2832 17.1516H13.2842C12.0024 17.2993 10.8042 17.9011 9.91211 18.8459L9.91113 18.8469C9.5532 19.2236 9.30247 19.5656 9.15234 19.8665C9.00173 20.1683 8.95925 20.4145 8.99512 20.6086C9.04357 20.8699 9.14753 21.0553 9.28516 21.175C9.42188 21.294 9.60989 21.3635 9.85449 21.3635C10.0607 21.3635 10.2203 21.3231 10.3467 21.2512C10.472 21.1798 10.5788 21.0695 10.668 20.9055C11.1637 19.9785 12.048 19.355 13.1445 19.1311C14.0516 18.9462 15.0755 19.1246 15.8574 19.6047L15.8584 19.6038C16.0698 19.7318 16.3022 19.9234 16.5049 20.1233C16.7064 20.322 16.8915 20.5417 17 20.7307L17.001 20.7317C17.1429 20.982 17.2762 21.1354 17.4199 21.2288C17.5609 21.3202 17.7308 21.3659 17.9668 21.3684Z" fill="url(#paint3_linear_18848_105325)" stroke="#1E1E1E" stroke-width="0.4"/>
<defs>
<linearGradient id="paint0_linear_18848_105325" x1="14.0066" y1="26.8286" x2="14.0066" y2="1.17595" gradientUnits="userSpaceOnUse">
<stop stop-color="#3781FA"/>
<stop offset="1" stop-color="#91C5FF"/>
</linearGradient>
<linearGradient id="paint1_linear_18848_105325" x1="18.0669" y1="15.634" x2="18.0669" y2="12.284" gradientUnits="userSpaceOnUse">
<stop stop-color="#3781FA"/>
<stop offset="1" stop-color="#91C5FF"/>
</linearGradient>
<linearGradient id="paint2_linear_18848_105325" x1="9.36372" y1="15.8594" x2="9.36372" y2="12.3266" gradientUnits="userSpaceOnUse">
<stop stop-color="#3781FA"/>
<stop offset="1" stop-color="#91C5FF"/>
</linearGradient>
<linearGradient id="paint3_linear_18848_105325" x1="13.9171" y1="21.5696" x2="13.9171" y2="16.9168" gradientUnits="userSpaceOnUse">
<stop stop-color="#3781FA"/>
<stop offset="1" stop-color="#91C5FF"/>
</linearGradient>
</defs>
</svg>
