<svg width="24" height="24" viewBox="0 0 24 24" fill="none" xmlns="http://www.w3.org/2000/svg">
<g clip-path="url(#clip0_13919_570)">
<path d="M19 0H5C2.23858 0 0 2.23858 0 5V19C0 21.7614 2.23858 24 5 24H19C21.7614 24 24 21.7614 24 19V5C24 2.23858 21.7614 0 19 0Z" fill="#FDFDFD" fill-opacity="0.25"/>
<path d="M15.7334 4.78125C16.1179 4.75555 16.4537 5.03853 16.4932 5.42188L17.7412 17.541C17.7678 17.7987 17.9851 17.995 18.2441 17.9951H18.6221C18.9685 17.9951 19.2498 18.2757 19.25 18.6221C19.25 18.9687 18.9687 19.25 18.6221 19.25H15.6445C15.2979 19.25 15.0166 18.9687 15.0166 18.6221C15.0168 18.2757 15.2981 17.9951 15.6445 17.9951H15.9111C16.1452 17.9951 16.3287 17.7924 16.3047 17.5596L16.249 17.0215C16.2025 16.5717 15.8233 16.2296 15.3711 16.2295H8.62891C8.1767 16.2296 7.79752 16.5717 7.75098 17.0215L7.69531 17.5596C7.67133 17.7924 7.85481 17.9951 8.08887 17.9951H8.35547C8.70192 17.9951 8.98319 18.2757 8.9834 18.6221C8.9834 18.9687 8.70205 19.25 8.35547 19.25H5.37793C5.03135 19.25 4.75 18.9687 4.75 18.6221C4.75021 18.2757 5.03147 17.9951 5.37793 17.9951H5.75586C6.01488 17.995 6.23224 17.7987 6.25879 17.541L7.50684 5.42188C7.54632 5.03856 7.88216 4.75555 8.2666 4.78125C8.67093 4.8085 8.97219 5.16525 8.93066 5.56836L8.85059 6.34961C8.79142 6.92405 9.24189 7.4237 9.81934 7.42383H14.1807C14.7581 7.42365 15.2086 6.92403 15.1494 6.34961L15.0693 5.56836C15.0278 5.16522 15.329 4.80849 15.7334 4.78125ZM9.3584 12.4541C8.71269 12.4542 8.17188 12.9427 8.10547 13.585C8.02893 14.328 8.61147 14.9745 9.3584 14.9746H14.6416C15.3885 14.9744 15.9711 14.328 15.8945 13.585C15.8281 12.9427 15.2873 12.4542 14.6416 12.4541H9.3584ZM9.74707 8.67871C9.10131 8.67894 8.56032 9.16814 8.49414 9.81055C8.41786 10.5533 9.0004 11.199 9.74707 11.1992H14.252C14.9988 11.1992 15.5821 10.5535 15.5059 9.81055C15.4397 9.168 14.8979 8.67871 14.252 8.67871H9.74707Z" fill="#D1D1D1" stroke="#D1D1D1" stroke-width="0.5"/>
</g>
<defs>
<clipPath id="clip0_13919_570">
<rect width="24" height="24" fill="white"/>
</clipPath>
</defs>
</svg>
