<svg width="24" height="24" viewBox="0 0 24 24" fill="none" xmlns="http://www.w3.org/2000/svg">
<rect width="24" height="24" rx="5" fill="#FF2828" fill-opacity="0.15"/>
<path d="M11.9358 17.1285L10.6646 18.0905C10.5271 18.1936 10.3897 18.1964 10.2523 18.0991C10.1148 18.0017 10.0748 17.8729 10.132 17.7125L10.6302 16.1321L9.37613 15.2388C9.2387 15.1471 9.19862 15.0212 9.25588 14.8608C9.31314 14.7005 9.42195 14.6203 9.58228 14.6203H11.1112L11.5922 13.0398L9.15281 11.5968C8.94666 11.4708 8.78632 11.3047 8.67179 11.0986C8.55726 10.8924 8.5 10.6577 8.5 10.3942V6.37433C8.5 5.99639 8.63457 5.67285 8.90371 5.40371C9.17285 5.13457 9.49639 5 9.87433 5H13.9973C14.3753 5 14.6988 5.13457 14.9679 5.40371C15.2371 5.67285 15.3716 5.99639 15.3716 6.37433V10.3942C15.3716 10.6577 15.3144 10.8924 15.1999 11.0986C15.0853 11.3047 14.925 11.4708 14.7188 11.5968L12.2794 13.0398L12.7604 14.6203H14.2894C14.4497 14.6203 14.5585 14.7005 14.6158 14.8608C14.673 15.0212 14.6329 15.1471 14.4955 15.2388L13.2414 16.1321L13.7396 17.7125C13.7969 17.8729 13.7568 18.0017 13.6194 18.0991C13.4819 18.1964 13.3445 18.1936 13.2071 18.0905L11.9358 17.1285ZM11.2487 6.37433V11.2188L11.9358 11.6311L12.623 11.2188V6.37433H11.2487Z" fill="#FF8484"/>
</svg>
