<svg width="24" height="24" viewBox="0 0 24 24" fill="none" xmlns="http://www.w3.org/2000/svg">
<rect width="24" height="24" rx="3" fill="#4F46E5" fill-opacity="0.15"/>
<path d="M16.25 5C15.56 5 15 5.56 15 6.25V16.75C15 17.44 15.56 18 16.25 18H16.75C17.44 18 18 17.44 18 16.75V6.25C18 5.55933 17.44 5 16.75 5H16.25ZM10.5 9.25C10.5 8.55933 11.06 8 11.75 8H12.25C12.9407 8 13.5 8.56 13.5 9.25V16.75C13.5 17.44 12.94 18 12.25 18H11.75C11.4185 18 11.1005 17.8683 10.8661 17.6339C10.6317 17.3995 10.5 17.0815 10.5 16.75V9.25ZM6 12.25C6 11.5593 6.56 11 7.25 11H7.75C8.44067 11 9 11.56 9 12.25V16.75C9 17.44 8.44 18 7.75 18H7.25C6.91848 18 6.60054 17.8683 6.36612 17.6339C6.1317 17.3995 6 17.0815 6 16.75V12.25Z" fill="#4F46E5"/>
</svg>
