<svg width="167" height="139" viewBox="0 0 167 139" fill="none" xmlns="http://www.w3.org/2000/svg">
<path d="M106.228 54.8628C105.275 52.4601 104.57 51.4601 103.273 49.9299C103.232 49.8822 103.214 49.819 103.224 49.7573L103.623 47.1831C103.635 47.101 103.697 47.0325 103.777 47.0098C107.841 45.8643 109.084 49.107 111.959 52.274C111.995 52.3139 112.016 52.3659 112.016 52.4196V59.029C112.016 59.2234 111.776 59.3191 111.638 59.1806C109.745 57.2738 108.478 56.4216 106.375 55.0081L106.309 54.9639C106.273 54.9394 106.244 54.9034 106.228 54.8628Z" fill="#91C5FF"/>
<path d="M111.438 50.7887L109.969 48.6823C109.869 48.5392 109.972 48.3437 110.147 48.3437H112.75C112.934 48.3437 113.036 48.5569 112.924 48.7017C112.387 49.3975 112.107 49.9427 111.829 50.7332C111.769 50.9023 111.541 50.936 111.438 50.7887Z" fill="#91C5FF"/>
<path d="M108.797 47.286C106.349 44.0685 105.113 42.1544 103.895 38.4142C103.874 38.3484 103.886 38.2749 103.927 38.219C105.781 35.6926 106.602 33.678 108.001 30.2455L108.046 30.1356C108.079 30.054 108.159 29.9996 108.248 29.9996H113.212C118.205 29.7102 118.236 33.1696 119.829 37.2995C119.839 37.3243 119.844 37.3508 119.844 37.3773V44.7375C119.844 44.8293 119.784 44.9113 119.697 44.9418C117.1 45.8499 116.028 46.3984 114.128 47.3492C114.098 47.3644 114.064 47.3725 114.03 47.3725H108.971C108.903 47.3725 108.838 47.34 108.797 47.286Z" fill="#3781FA"/>
<path d="M125.607 29.9996C121.805 29.8778 121.993 33.5422 120.618 37.3012C120.61 37.3249 120.605 37.3502 120.605 37.3754V44.7188C120.605 44.8194 120.675 44.9066 120.774 44.9295C122.78 45.3949 124.028 45.8424 126.529 47.5497C126.565 47.5745 126.609 47.5884 126.653 47.5884H132.567C132.634 47.5884 132.699 47.5567 132.74 47.5038C134.764 44.8926 135.831 43.0555 137.32 38.3999C137.338 38.3424 137.332 38.278 137.301 38.2257C135.613 35.2947 134.585 33.3828 132.738 29.8008C132.699 29.7255 132.619 29.6784 132.534 29.6823L125.607 29.9996Z" fill="#3781FA"/>
<path d="M134.449 46.2597C135.439 44.8528 136.004 43.7158 136.638 42.1151C136.725 41.8959 137.057 41.9487 137.067 42.184L137.23 46.1412C137.235 46.2763 137.116 46.3828 136.98 46.3671C136.112 46.2657 135.494 46.3372 134.757 46.6298C134.541 46.7157 134.315 46.449 134.449 46.2597Z" fill="#3781FA"/>
<path d="M131.658 48.9072L129.227 51.2334C129.112 51.3441 128.919 51.2959 128.867 51.1451C128.492 50.0643 128.159 49.4544 127.622 48.714C127.515 48.5655 127.626 48.3566 127.81 48.3651L131.517 48.5362C131.708 48.545 131.796 48.7758 131.658 48.9072Z" fill="#91C5FF"/>
<path d="M137.193 47.1358C134.762 46.8481 132.826 48.4376 129.147 52.2729C129.108 52.313 129.086 52.3671 129.086 52.4225V59.311C129.086 59.4957 129.304 59.5948 129.445 59.474L129.581 59.3575C131.326 57.8603 132.449 56.8968 134.883 55.5077C134.93 55.4808 134.967 55.4364 134.983 55.3851C135.723 53.0968 136.184 51.7868 137.728 49.7139C137.763 49.6662 137.778 49.6055 137.768 49.5471L137.376 47.31C137.36 47.2185 137.286 47.1468 137.193 47.1358Z" fill="#91C5FF"/>
<path d="M129.086 62.9243V60.7282C129.086 60.6747 129.107 60.6224 129.143 60.5827C131.116 58.4285 132.394 57.4839 134.613 56.2956C134.762 56.2153 134.943 56.3304 134.931 56.499L134.747 59.248C134.742 59.3126 134.709 59.3719 134.656 59.4095L129.429 63.1001C129.285 63.2018 129.086 63.0996 129.086 62.9243Z" fill="#91C5FF"/>
<path d="M134.418 60.2853C132.25 61.5186 131.133 62.6298 129.16 64.3567C129.113 64.3977 129.086 64.4573 129.086 64.5193V67.3789C129.086 67.5205 129.221 67.6236 129.359 67.5857C131.278 67.0553 132.506 66.3909 134.646 64.9183C134.704 64.878 134.74 64.8113 134.74 64.7406V60.4713C134.74 60.307 134.561 60.2035 134.418 60.2853Z" fill="#91C5FF"/>
<path d="M129.047 68.3275L123.489 86.5471C123.415 86.7895 123.765 86.9452 123.905 86.7331C127.316 81.546 130.264 79.1183 135.252 75.2139C135.333 75.1507 135.359 75.0391 135.316 74.9466C134.277 72.721 134.451 70.001 134.418 66.0571C134.417 65.8763 134.204 65.7784 134.061 65.8908C131.827 67.651 130.814 67.9167 129.22 68.1767C129.138 68.1901 129.071 68.2485 129.047 68.3275Z" fill="#91C5FF"/>
<path d="M119.614 52.7824C116.448 53.0203 115.186 54.7266 112.644 56.6949C112.591 56.736 112.559 56.7995 112.559 56.8663V61.7241C112.559 61.8433 112.657 61.9399 112.777 61.9399H112.837C112.869 61.9399 112.901 61.9326 112.93 61.9192C115.42 60.7596 116.945 60.3195 119.665 59.8147C119.768 59.7956 119.844 59.7062 119.844 59.6021V52.9951C119.844 52.8716 119.739 52.773 119.614 52.7824Z" fill="#3781FA"/>
<path d="M119.844 51.716V45.8282C119.844 45.6837 119.701 45.5809 119.561 45.6238C114.796 47.0927 114.369 48.5404 112.502 50.7646C112.469 50.8036 112.45 50.8534 112.45 50.9041V55.525C112.45 55.7112 112.673 55.8092 112.813 55.6853L112.933 55.579C115.143 53.6215 116.535 52.3891 119.654 51.9312C119.762 51.9154 119.844 51.824 119.844 51.716Z" fill="#3781FA"/>
<path d="M120.605 51.7368V45.8046C120.605 45.6674 120.734 45.5653 120.869 45.5951C124.968 46.5003 126.538 47.8544 128.405 51.099C128.423 51.1315 128.433 51.1689 128.433 51.2063V55.5462C128.433 55.7288 128.218 55.8286 128.075 55.7135C124.955 53.1998 123.355 52.6059 120.77 51.9464C120.673 51.9218 120.605 51.8355 120.605 51.7368Z" fill="#3781FA"/>
<path d="M120.605 59.6102V52.9491C120.605 52.8443 120.681 52.754 120.786 52.7405C122.95 52.4615 124.921 53.9885 128.351 56.6949C128.402 56.7359 128.433 56.7987 128.433 56.8645V61.6369C128.433 61.7852 128.286 61.8893 128.145 61.8414C125.377 60.9025 123.67 60.4865 120.774 59.8207C120.676 59.798 120.605 59.7106 120.605 59.6102Z" fill="#3781FA"/>
<path d="M120.605 65.2524V60.7759C120.605 60.6481 120.717 60.5483 120.845 60.5621C123.838 60.8837 125.504 61.4636 128.3 62.6391C128.38 62.6729 128.433 62.7514 128.433 62.838V67.4587C128.433 67.5716 128.345 67.6657 128.231 67.6723C125.067 67.8555 123.542 66.6986 120.735 65.4504C120.657 65.4155 120.605 65.3378 120.605 65.2524Z" fill="#3781FA"/>
<path d="M119.844 65.2693V60.7768C119.844 60.6487 119.732 60.5487 119.604 60.5634C116.888 60.8748 115.49 61.5235 113.029 62.427C112.943 62.4584 112.885 62.5396 112.885 62.63V67.6595C112.885 67.7784 112.983 67.8752 113.103 67.8733C115.64 67.8326 117.151 66.9598 119.736 65.4559C119.802 65.4172 119.844 65.3458 119.844 65.2693Z" fill="#3781FA"/>
<path d="M106.253 59.114V56.1464C106.253 55.9841 106.427 55.8803 106.571 55.9576C108.803 57.1561 110.041 58.2235 111.967 60.5851C111.998 60.6234 112.016 60.6719 112.016 60.7212V62.9605C112.016 63.1482 111.79 63.2463 111.65 63.1203C109.758 61.4192 108.533 60.4831 106.367 59.3041C106.297 59.2661 106.253 59.193 106.253 59.114Z" fill="#91C5FF"/>
<path d="M106.253 64.6385V60.3558C106.253 60.1933 106.428 60.0896 106.571 60.168C108.737 61.3511 109.957 62.5147 112.05 64.3568C112.097 64.3977 112.124 64.4571 112.124 64.5189V67.613C112.124 67.7487 111.999 67.8508 111.866 67.8217C109.94 67.4012 108.627 66.5344 106.34 64.8108C106.286 64.77 106.253 64.7059 106.253 64.6385Z" fill="#91C5FF"/>
<path d="M120.165 66.0056C117.43 67.7572 115.906 68.3411 113.462 68.7022C113.33 68.7217 113.246 68.8537 113.284 68.9803C115.437 76.2008 116.569 80.8416 118.423 89.6344C118.428 89.6588 118.437 89.6826 118.45 89.7039L119.237 90.9719C119.276 91.0357 119.346 91.0746 119.422 91.0746H121.15C121.218 91.0746 121.282 91.0435 121.323 90.9904L122.3 89.73C122.329 89.6923 122.345 89.646 122.345 89.5984V87.761C122.345 87.7401 122.348 87.7193 122.354 87.6993L128.135 68.4675C128.176 68.3317 128.076 68.1944 127.933 68.1892C125.052 68.0843 123.337 67.6983 120.396 66.0003C120.325 65.9593 120.234 65.9613 120.165 66.0056Z" fill="#3781FA"/>
<path d="M105.715 75.0012L106.229 66.0351C106.239 65.8584 106.448 65.7688 106.587 65.8801C108.886 67.7239 110.139 68.219 112.089 68.5019C112.176 68.5145 112.248 68.577 112.27 68.6612L117.083 86.7743C117.147 87.0138 116.812 87.1585 116.676 86.9509C112.919 81.2252 110.223 79.1405 105.788 75.1745C105.739 75.1308 105.712 75.0665 105.715 75.0012Z" fill="#91C5FF"/>
<path d="M143.112 32.6973C140.886 29.6462 133.801 29.1596 133.449 29.1372C133.437 29.1365 133.426 29.1322 133.417 29.1397C133.222 29.3132 136.286 35.0072 137.784 37.661C139.312 40.3692 145.424 46.0346 145.395 44.8959C145.395 44.893 145.395 44.8936 145.395 44.8907C145.395 44.7975 145.383 35.8103 143.112 32.6973Z" fill="#3781FA"/>
<path d="M138.217 48.5106L137.814 39.8158C137.804 39.6088 138.067 39.5097 138.201 39.6686C141.05 43.0493 142.711 44.6498 145.298 45.9224C145.359 45.9523 145.403 46.0092 145.417 46.075C146.108 49.2276 148.96 50.8744 149.412 56.6762C149.416 56.7294 149.399 56.7838 149.367 56.8265C148.495 57.9752 148.31 59.1667 148.051 61.1504C148.03 61.3121 147.843 61.3937 147.708 61.2996C144.889 59.3232 143.453 58.6078 141.081 57.4257L140.924 57.3473C140.864 57.3176 140.82 57.2604 140.807 57.1957C139.75 52.085 139.187 50.3605 138.242 48.6028C138.227 48.5744 138.218 48.5428 138.217 48.5106Z" fill="#91C5FF"/>
<path d="M148.657 63.4145C148.706 60.42 149.064 59.2727 149.749 57.5578C149.801 57.4271 149.962 57.3805 150.072 57.4683C150.869 58.1008 153.619 60.4688 154.637 63.7743C155.822 67.6241 157.331 72.8214 160.212 79.1411C160.257 79.2391 160.223 79.3558 160.131 79.4135L159.269 79.9581C159.171 80.0198 159.041 79.9932 158.974 79.8997C153.509 72.2814 150.016 67.6242 148.668 63.4841C148.66 63.4617 148.657 63.438 148.657 63.4145Z" fill="#91C5FF"/>
<path d="M156.488 81.4579C152.626 73.2968 141.433 69.1718 140.845 58.5638C140.836 58.393 141.023 58.2801 141.17 58.3688L147.908 62.4213C147.968 62.4577 148.007 62.521 148.013 62.5912C148.255 65.7054 149.898 69.0011 158.302 80.3114C158.377 80.4116 158.353 80.5569 158.248 80.6245L156.807 81.5501C156.695 81.622 156.545 81.5776 156.488 81.4579Z" fill="#91C5FF"/>
<path d="M123.205 97.8274L121.925 91.4754C121.915 91.4256 121.924 91.3729 121.949 91.3284C125.709 84.5354 128.359 81.5408 133.288 77.5184C133.456 77.381 133.698 77.5474 133.626 77.7515C131.016 85.1707 127.952 89.9814 123.611 97.8862C123.514 98.0635 123.245 98.0254 123.205 97.8274Z" fill="#3D3D3D"/>
<path d="M124.702 108.98L123.334 99.6691C123.327 99.6237 123.335 99.5773 123.357 99.5368L132.543 82.3699C132.666 82.1404 133.017 82.2824 132.944 82.5318L125.126 109.01C125.06 109.232 124.735 109.209 124.702 108.98Z" fill="#3D3D3D"/>
<path d="M128.565 100.815L133.417 83.9599C133.468 83.7847 133.702 83.7466 133.809 83.8948C136.205 87.2146 138.025 88.3265 138.11 96.9015C137.003 106.861 134.914 109.087 132.06 114.349C131.955 114.541 131.658 114.479 131.643 114.261C131.15 107.402 130.349 104.653 128.578 100.968C128.555 100.921 128.55 100.866 128.565 100.815Z" fill="#3D3D3D"/>
<path d="M134.561 111.746C138.087 107.491 138.857 96.2 139.782 91.4335C139.828 91.1953 140.124 91.2267 140.138 91.4689C140.624 99.9542 141.118 105.324 139.211 111.317C139.202 111.346 139.187 111.373 139.167 111.395L135.403 115.636C135.297 115.755 135.102 115.724 135.042 115.576C134.445 114.113 134.324 113.239 134.514 111.854C134.519 111.814 134.535 111.777 134.561 111.746Z" fill="#3D3D3D"/>
<path d="M135.188 75.9866L134.612 76.3434C134.556 76.3787 134.518 76.438 134.511 76.5042L133.881 82.5536C133.874 82.6195 133.899 82.6856 133.946 82.7319C136.874 85.5802 137.418 88.108 138.469 92.103C138.523 92.3103 138.815 92.3205 138.884 92.1173L139.833 89.2898C139.844 89.2572 139.847 89.2216 139.842 89.1876C138.851 82.8639 137.633 80.3984 135.552 76.1841L135.499 76.0761C135.442 75.9612 135.297 75.9188 135.188 75.9866Z" fill="#3D3D3D"/>
<path d="M125.293 111.318L127.82 102.59C127.877 102.391 128.156 102.381 128.228 102.575C129.812 106.817 130.278 110.058 130.925 115.81C130.931 115.863 130.916 115.918 130.885 115.962C128.811 118.818 127.851 119.121 126.396 118.736C126.313 118.714 126.252 118.644 126.24 118.559L125.286 111.406C125.282 111.376 125.285 111.346 125.293 111.318Z" fill="#3D3D3D"/>
<path d="M127.228 124.795L126.309 119.73C126.284 119.59 126.399 119.465 126.542 119.471C129.737 119.602 131.161 117.435 133.385 113.625C133.495 113.438 133.787 113.507 133.804 113.722C133.897 114.948 134.088 115.632 134.471 116.435C134.503 116.501 134.5 116.578 134.462 116.641L128.703 126.201C128.625 126.33 128.441 126.343 128.347 126.225L127.272 124.892C127.249 124.864 127.234 124.831 127.228 124.795Z" fill="#3D3D3D"/>
<path d="M129.77 125.405L129.052 126.759C129.007 126.842 129.023 126.945 129.09 127.012L129.489 127.408C129.569 127.486 129.696 127.492 129.782 127.421L130.743 126.626C130.844 126.542 130.847 126.39 130.755 126.296C130.465 126.002 130.312 125.752 130.211 125.459C130.144 125.265 129.866 125.223 129.77 125.405Z" fill="#3D3D3D"/>
<path d="M130.637 123.834L134.289 118.346C134.357 118.244 134.497 118.218 134.594 118.294C136.379 119.7 135.788 121.439 134.78 124.406L134.77 124.437C134.751 124.493 134.709 124.54 134.655 124.565L131.594 125.982C131.523 126.016 131.437 126.007 131.375 125.959C130.632 125.387 130.507 124.896 130.603 123.931C130.606 123.897 130.618 123.863 130.637 123.834Z" fill="#3D3D3D"/>
<path d="M138.27 113.111L134.884 117.125C134.805 117.219 134.82 117.358 134.914 117.436C136.774 118.987 136.731 120.684 135.593 124.242C135.548 124.381 135.652 124.526 135.8 124.526H138.436C138.557 124.526 138.654 124.429 138.654 124.31V118.78V113.25C138.654 113.048 138.4 112.957 138.27 113.111Z" fill="#3D3D3D"/>
<path d="M134.362 125.527L130.17 128.024C130.104 128.063 130.064 128.133 130.064 128.209V132.34C130.064 132.381 130.076 132.422 130.098 132.456C133.993 138.596 135.886 142.347 134.745 153.287C134.742 153.319 134.745 153.352 134.756 153.382L135.322 154.989C135.387 155.172 135.644 155.182 135.724 155.004C139.66 146.211 139.642 139.045 138.669 125.699C138.661 125.587 138.566 125.497 138.452 125.497H134.474C134.434 125.497 134.396 125.507 134.362 125.527Z" fill="#3D3D3D"/>
<path d="M130.064 142.607V134.46C130.064 134.235 130.364 134.16 130.467 134.361C131.317 136.006 133.256 139.869 133.761 141.791C134.271 143.728 134.382 148.955 134.407 151.153C134.409 151.386 134.095 151.454 133.998 151.243L130.084 142.696C130.071 142.668 130.064 142.638 130.064 142.607Z" fill="#3D3D3D"/>
<path d="M135.501 158.154V156.842C135.501 156.808 135.509 156.773 135.525 156.742C139.346 149.409 140.265 143.965 140.009 133.472C140.003 133.218 140.35 133.163 140.412 133.409C142.539 141.793 141.313 147.703 139.551 157.608C139.535 157.698 139.463 157.771 139.371 157.785L135.753 158.368C135.621 158.389 135.501 158.287 135.501 158.154Z" fill="#3D3D3D"/>
<path d="M107.123 78.2914V77.5196C107.123 77.3346 107.343 77.237 107.483 77.359C112.821 82.0104 115.111 85.3318 118.826 91.3343C118.851 91.3753 118.862 91.4243 118.857 91.4721L117.97 99.2984C117.946 99.5126 117.655 99.563 117.559 99.3696L107.145 78.3867C107.13 78.3571 107.123 78.3245 107.123 78.2914Z" fill="#3D3D3D"/>
<path d="M115.956 110.664C112.843 98.9816 111.172 93.3699 108.539 84.4486C108.465 84.197 108.821 84.0541 108.941 84.2878L117.423 100.837C117.442 100.874 117.45 100.916 117.445 100.958L116.383 110.634C116.357 110.872 116.017 110.895 115.956 110.664Z" fill="#3D3D3D"/>
<path d="M101.254 89.6304C101.575 83.4994 104.34 81.8309 105.541 76.6666C105.591 76.4504 105.906 76.4275 105.978 76.6375C106.701 78.7396 107.125 80.149 107.123 82.5744C107.123 82.6276 107.102 82.6803 107.066 82.7199C104.377 85.6896 103.678 88.3177 102.723 92.7763C102.676 92.9916 102.373 93.01 102.303 92.8011L101.264 89.7103C101.256 89.6849 101.252 89.6572 101.254 89.6304Z" fill="#3D3D3D"/>
<path d="M109.103 114.826C102.082 100.062 101.066 92.8794 107.181 83.9092C107.285 83.7569 107.522 83.7953 107.569 83.9732C109.101 89.7609 109.791 93.4165 112.096 98.3519C112.114 98.3909 112.121 98.4349 112.114 98.4773L109.516 114.774C109.482 114.984 109.194 115.018 109.103 114.826Z" fill="#3D3D3D"/>
<path d="M110.283 116.451C110.834 109.92 111.443 106.571 112.385 101.056C112.424 100.826 112.754 100.812 112.811 101.039L115.702 112.613C115.709 112.641 115.71 112.671 115.705 112.7L114.653 118.965C114.636 119.062 114.556 119.137 114.456 119.142C112.771 119.229 111.855 118.418 110.333 116.609C110.297 116.566 110.279 116.508 110.283 116.451Z" fill="#3D3D3D"/>
<path d="M102.975 112.929C100.585 105.518 100.325 100.73 101.133 92.269C101.156 92.0295 101.495 92.0004 101.556 92.2331L102.551 96.018C102.554 96.0315 102.557 96.0461 102.558 96.06C102.761 99.4073 101.534 98.4194 105.818 110.498C106.405 112.526 106.269 113.579 105.616 115.167C105.558 115.308 105.374 115.344 105.265 115.236L103.028 113.016C103.004 112.992 102.985 112.962 102.975 112.929Z" fill="#3D3D3D"/>
<path d="M103.442 125.281H102.68C102.554 125.281 102.455 125.174 102.464 125.049C102.762 120.705 102.923 118.168 102.983 114.706C102.986 114.511 103.227 114.419 103.36 114.561L105.545 116.896C105.662 117.022 105.592 117.23 105.429 117.289C103.453 118.006 103.928 121.333 103.659 125.081C103.651 125.194 103.556 125.281 103.442 125.281Z" fill="#3D3D3D"/>
<path d="M104.84 119.13C104.459 120.262 104.412 123.949 104.406 124.86C104.405 124.975 104.496 125.07 104.611 125.076C106.657 125.194 107.616 125.501 108.982 126.152C109.094 126.206 109.23 126.156 109.274 126.041C109.644 125.074 109.59 124.363 109.406 123.123C109.057 120.828 108.017 119.849 106.529 118.015C106.492 117.97 106.438 117.94 106.379 117.941C106.09 117.947 105.201 118.053 104.84 119.13Z" fill="#3D3D3D"/>
<path d="M105.938 115.869C106.529 115.18 106.658 114.384 106.747 113.176C106.763 112.961 107.053 112.898 107.159 113.086C109.667 117.53 111.268 119.6 114.291 119.668C114.414 119.671 114.514 119.772 114.511 119.894C114.421 123.503 113.979 124.579 113.065 125.712C112.975 125.823 112.805 125.815 112.723 125.7L105.922 116.146C105.862 116.062 105.871 115.947 105.938 115.869Z" fill="#3D3D3D"/>
<path d="M109.811 126.507C110.184 125.633 110.275 124.927 110.282 123.922C110.284 123.702 110.578 123.618 110.694 123.807L112.393 126.59C112.429 126.649 112.435 126.721 112.408 126.785L112.004 127.748C111.953 127.87 111.805 127.918 111.691 127.85L109.899 126.783C109.804 126.726 109.767 126.608 109.811 126.507Z" fill="#3D3D3D"/>
<path d="M111.497 128.663C107.684 125.426 105.723 125.847 102.289 126.131C102.191 126.139 102.109 126.211 102.091 126.307L101.364 130.225C101.361 130.238 101.36 130.251 101.36 130.264C101.353 140.895 101.366 146.935 105.277 155.668C105.356 155.843 105.609 155.838 105.677 155.659L106.343 153.925C106.355 153.893 106.36 153.857 106.356 153.823C105.178 143.669 106.013 138.762 111.32 132.133C111.348 132.098 111.365 132.055 111.368 132.011L111.574 128.841C111.578 128.774 111.549 128.707 111.497 128.663Z" fill="#3D3D3D"/>
<path d="M110.944 133.771C110.039 135.349 107.933 139.128 107.34 141.143C106.622 143.588 106.679 151.61 106.687 152.501C106.687 152.501 110.276 144.92 110.711 143.301C111.063 141.991 111.273 136.085 111.34 133.882C111.346 133.659 111.055 133.578 110.944 133.771Z" fill="#3D3D3D"/>
<path d="M101.765 157.816C99.8832 147.687 98.9321 141.773 100.278 134.071C100.321 133.821 100.669 133.85 100.682 134.103C101.252 145.476 101.939 151.729 105.781 157.49C105.805 157.526 105.818 157.568 105.818 157.61V158.168C105.818 158.296 105.706 158.396 105.577 158.382L101.956 157.994C101.861 157.984 101.783 157.91 101.765 157.816Z" fill="#3D3D3D"/>
<path d="M96.3403 45.9874C93.3071 49.6171 92.6638 52.1266 91.8073 56.6607C91.7955 56.7233 91.8122 56.7887 91.8517 56.8389C92.6099 57.8019 92.7942 58.8616 92.9673 60.8739C92.9771 60.9877 93.0745 61.0749 93.1895 61.0691C95.4598 60.9552 97.2267 59.8511 100.285 57.8985C100.343 57.8617 100.381 57.7982 100.386 57.7303C100.649 54.2115 101.495 52.7377 102.648 49.8881C102.657 49.866 102.662 49.8422 102.663 49.8185L103.175 39.9243C103.186 39.7173 102.924 39.6168 102.789 39.7749C100.103 42.9196 98.6977 44.1314 96.3731 45.9556C96.3612 45.9649 96.3499 45.9759 96.3403 45.9874Z" fill="#91C5FF"/>
<path d="M92.9553 62.0797C91.2945 69.973 88.3294 73.7366 83.13 80.312C83.051 80.4119 83.0741 80.5592 83.1815 80.6282L84.605 81.5423C84.7209 81.6167 84.8795 81.5588 84.93 81.4313C90.2988 67.8788 97.415 73.8046 99.7618 59.1717C99.7908 58.9909 99.5952 58.8491 99.4398 58.9477C97.4344 60.2189 96.5517 61.1652 93.1254 61.9097C93.041 61.928 92.9729 61.9958 92.9553 62.0797Z" fill="#91C5FF"/>
<path d="M82.0375 79.8117L81.1677 79.1055C81.0851 79.0384 81.0648 78.9201 81.1182 78.8285C83.5737 74.6192 84.5428 72.5972 85.4784 69.721C85.4809 69.7132 85.483 69.7055 85.4846 69.6974C85.5319 69.4654 86.2751 65.8519 87.2219 63.4506C88.0325 61.3947 90.4099 58.8945 91.2021 58.0969C91.3185 57.9797 91.5154 58.0387 91.5546 58.1987C93.5311 66.2629 88.2867 71.2463 82.3556 79.7656C82.2833 79.8695 82.136 79.8917 82.0375 79.8117Z" fill="#91C5FF"/>
<path d="M103.633 37.8898C100.87 41.1517 99.2129 42.7464 96.347 44.9689C96.2107 45.0746 96.0132 44.9893 96.0041 44.818C95.9065 42.9764 95.6905 35.2306 98.7471 32.4815C101.754 29.7768 105.98 29.6516 107.071 29.6675C107.209 29.6695 107.302 29.8005 107.264 29.9324C106.459 32.737 105.678 34.5356 103.652 37.8622C103.647 37.8718 103.64 37.8813 103.633 37.8898Z" fill="#3781FA"/>
<path d="M103.861 46.0296V41.5289C103.861 41.3131 104.145 41.2309 104.262 41.4129L107.453 46.383C107.572 46.5682 107.37 46.7858 107.174 46.6854C106.258 46.2187 105.632 45.986 104.122 46.244C103.987 46.2671 103.861 46.1654 103.861 46.0296Z" fill="#3781FA"/>
<path fill-rule="evenodd" clip-rule="evenodd" d="M128.538 10.7923V11.0081H128.756C128.636 11.0081 128.538 10.9115 128.538 10.7923ZM114.951 16.943C114.914 16.922 114.877 16.9009 114.842 16.8795L114.951 16.9859V16.943ZM126.473 16.4035L126.463 16.4714C126.469 16.4272 126.49 16.3853 126.52 16.3527C126.505 16.3695 126.489 16.3865 126.473 16.4035Z" fill="#3D3D3D"/>
<path fill-rule="evenodd" clip-rule="evenodd" d="M82.6607 83.0948C82.7232 83.1569 82.7424 83.251 82.703 83.3295C82.7246 83.2863 82.745 83.2423 82.7641 83.1974L82.6607 83.0948ZM82.581 83.0158L82.4379 82.8737C82.4379 82.8737 82.3805 82.9231 82.2844 83.0047C82.371 82.9311 82.5004 82.9358 82.581 83.0158Z" fill="#3D3D3D"/>
<path fill-rule="evenodd" clip-rule="evenodd" d="M164.083 82.5432L164.093 82.55L164.102 82.5552C164.099 82.5535 164.095 82.5517 164.093 82.55C164.089 82.5478 164.087 82.5458 164.083 82.5432ZM159.59 83.4822C159.549 83.4385 159.526 83.4132 159.526 83.4132C159.526 83.4132 159.487 83.4132 159.431 83.4226C159.491 83.4125 159.549 83.4379 159.59 83.4822ZM161.225 85.4348C161.251 85.4534 161.266 85.4635 161.266 85.4635L161.316 85.4713C161.282 85.4661 161.253 85.4543 161.225 85.4348ZM169.953 93.002L169.964 93.0169C169.964 93.0169 169.969 93.0216 169.977 93.0302C169.974 93.0266 169.97 93.0229 169.967 93.0192C169.962 93.014 169.957 93.0077 169.953 93.002ZM162.743 91.5L162.679 91.3983H162.558C162.633 91.3983 162.703 91.4368 162.743 91.5ZM159.801 91.0829L159.743 90.9667C159.743 90.9667 159.683 90.9667 159.609 90.9826C159.69 90.965 159.764 91.0091 159.801 91.0829ZM159.214 91.4649C159.205 91.4905 159.2 91.5062 159.2 91.5062L159.203 91.5492C159.201 91.5204 159.204 91.4921 159.214 91.4649Z" fill="#3D3D3D"/>
<path d="M95.3801 172.328C94.9452 173.515 100.872 175.123 102.774 175.565C104.662 176.004 107.15 166.424 105.847 159.423C105.83 159.332 105.756 159.263 105.663 159.251L102.023 158.762C101.899 158.746 101.787 158.834 101.774 158.957C101.209 164.276 95.8089 171.158 95.3801 172.328Z" fill="#3D3D3D"/>
<path d="M146.152 172.328C146.479 171.249 139.955 161.969 139.524 161.322C139.19 160.821 139.175 159.547 139.186 158.994C139.188 158.858 139.067 158.75 138.931 158.77L135.68 159.245C135.576 159.26 135.498 159.341 135.495 159.445C135.441 160.927 135.074 171.41 135.28 172.112C135.501 172.868 137.889 175.889 138.868 175.997C139.846 176.105 145.826 173.407 146.152 172.328Z" fill="#3D3D3D"/>
<path d="M169.964 87.4058C169.964 87.2979 166.811 83.9528 166.485 83.8449C166.171 83.7411 164.249 82.64 164.102 82.5552L164.093 82.55L164.083 82.5432L161.387 80.5881C161.314 80.535 161.215 80.5326 161.14 80.5821L157.238 83.1296C157.173 83.1716 157.136 83.2444 157.14 83.3208L157.459 89.5477C157.46 89.5585 157.461 89.5692 157.463 89.5798L158.64 95.31C158.65 95.362 158.68 95.4084 158.723 95.4401L159.08 95.7037C159.09 95.7109 159.1 95.7173 159.111 95.7222C159.164 95.7447 159.327 95.8043 159.417 95.7146C159.519 95.6132 159.238 91.9863 159.203 91.5492L159.2 91.5062C159.2 91.5062 159.205 91.4905 159.214 91.4649C159.248 91.3742 159.332 91.1588 159.417 91.0746C159.468 91.0237 159.544 90.9968 159.609 90.9826C159.683 90.9667 159.743 90.9667 159.743 90.9667L159.801 91.0829C160.254 91.9963 163.231 97.9888 163.331 98.0885C163.44 98.1964 163.658 98.1964 163.766 98.0885C163.875 97.9806 163.984 97.8727 163.984 97.7648C163.984 97.6569 162.462 92.9522 162.462 92.6932C162.462 92.4474 162.396 92.247 162.359 92.1657C162.355 92.1576 162.35 92.1501 162.346 92.1426C162.308 92.085 162.135 91.8181 162.135 91.722C162.135 91.6141 162.353 91.3983 162.462 91.3983H162.558H162.679L162.743 91.5L166.221 97.0432C166.25 97.0907 166.298 97.125 166.353 97.1374C166.49 97.1686 166.762 97.2253 166.919 97.2253C167.137 97.2253 167.246 97.3332 167.354 97.2253C167.451 97.1297 167.376 96.7806 167.358 96.7016C167.356 96.6909 167.353 96.6826 167.349 96.6724C167.215 96.3568 164.748 90.5292 164.854 90.3193C164.962 90.1035 165.071 90.1034 165.289 90.1034C165.506 90.1034 169.746 94.096 169.964 94.096C170.181 94.096 170.507 93.7723 170.507 93.6644C170.507 93.5665 170.06 93.1137 169.977 93.0302C169.969 93.0216 169.964 93.0169 169.964 93.0169L169.953 93.002C168.754 91.3064 166.354 87.9235 166.267 87.8374C166.18 87.7511 165.832 86.3267 165.615 86.2188C165.411 86.1179 161.785 85.5452 161.316 85.4713L161.266 85.4635C161.266 85.4635 161.251 85.4534 161.225 85.4348C160.92 85.2169 158.991 83.8279 159.095 83.6291C159.168 83.489 159.328 83.4398 159.431 83.4226C159.487 83.4132 159.526 83.4132 159.526 83.4132C159.526 83.4132 159.549 83.4385 159.59 83.4822C159.843 83.7517 160.767 84.7232 161.048 84.816C161.374 84.9239 164.093 85.4635 164.636 85.4635C165.18 85.4635 169.529 87.7295 169.746 87.6216C169.964 87.5137 169.964 87.5137 169.964 87.4058Z" fill="#3D3D3D"/>
<path d="M72.6524 88.0532C72.8698 88.1611 76.8928 85.4635 77.3277 85.2476C77.7626 85.0318 79.9371 84.7081 80.372 84.4923C80.7254 84.317 81.8681 83.3583 82.2844 83.0047C82.3805 82.9231 82.4379 82.8737 82.4379 82.8737L82.581 83.0158L82.6607 83.0948L82.7641 83.1974C82.745 83.2423 82.7246 83.2863 82.703 83.3295C81.7486 85.2318 78.2724 85.5728 76.6425 86.0864C76.5926 86.1021 76.5542 86.1316 76.5276 86.1764C76.0836 86.9215 72 93.7781 72 93.8801C72 93.988 72.3479 94.2902 72.4349 94.2039C72.5219 94.1175 77.3277 88.9165 77.4364 88.9165C77.5451 88.9165 77.6538 89.0244 77.6538 89.1323C77.6538 89.236 74.7417 95.2197 74.5147 95.6858C74.5044 95.707 74.4993 95.7262 74.4965 95.7495C74.4776 95.9123 74.4052 96.5909 74.5007 96.6857C74.5775 96.7619 74.7626 96.7305 74.8648 96.7055C74.9112 96.6941 74.9479 96.6678 74.9747 96.6286C75.4189 95.9782 79.5081 89.9955 79.611 89.9955C79.7197 89.9955 79.8284 90.1034 79.8284 90.2113C79.8284 90.2923 78.911 94.0758 78.4523 95.9624C78.3007 96.586 78.1992 97.0024 78.1975 97.0094C78.1933 97.0261 78.0909 97.4432 78.1975 97.549C78.3062 97.6569 78.4149 97.7648 78.5237 97.7648H78.8499C78.9552 97.7648 79.265 96.9535 79.2843 96.9028L79.2848 96.9015C79.3063 96.8485 82.0034 90.2113 82.1117 90.2113H82.4379C82.5466 90.2113 82.5466 90.643 82.5466 90.643V91.0571C82.5466 91.0688 82.5475 91.0804 82.5494 91.0918L83.278 95.5334C83.2951 95.6379 83.386 95.7146 83.4926 95.7146H83.6262C83.6989 95.7146 83.7668 95.6785 83.8072 95.6185L83.9235 95.4452C83.9474 95.4098 83.9601 95.3681 83.9601 95.3255V95.0671C83.8569 89.7301 84.106 87.1078 84.5985 82.5704C84.607 82.492 84.5719 82.4141 84.5068 82.369L81.1432 80.0424C81.0713 79.9927 80.9776 79.9896 80.9041 80.0371C77.2371 82.4063 72.4373 87.9465 72.6524 88.0532Z" fill="#3D3D3D"/>
<path d="M112.882 10.2528C112.773 10.3607 112.338 10.6844 112.229 11.0081C112.13 11.3041 112.212 12.5923 112.227 12.8109C112.229 12.8324 112.233 12.8531 112.241 12.8731C113.022 14.8743 113.457 16.0543 114.842 16.8795C114.877 16.9009 114.914 16.922 114.951 16.943V16.9859V17.0687V19.0167C114.951 19.071 114.972 19.124 115.01 19.1637C116.843 21.1202 118.036 21.6363 120.225 22.1116C120.229 22.1124 120.233 22.1132 120.237 22.1139C120.266 22.1184 120.297 22.1171 120.325 22.1099L120.355 22.1024C122.422 21.5827 123.615 21.283 125.966 19.5874C126.014 19.553 126.046 19.5 126.054 19.4419L126.463 16.4714L126.473 16.4035C126.489 16.3865 126.505 16.3695 126.52 16.3527C128.357 14.3936 129.014 13.2313 128.979 11.2157C128.977 11.0998 128.881 11.0081 128.764 11.0081H128.756H128.538V10.7923V4.99685C128.538 4.97598 128.536 4.95839 128.53 4.93855C128.4 4.54252 126.757 -0.10161 120.928 0.0016978C115.157 0.103966 113 4.66473 112.79 5.14109C112.778 5.16939 112.774 5.19495 112.775 5.2258C112.796 5.71967 112.984 10.1509 112.882 10.2528Z" fill="#3D3D3D"/>
<path d="M120.586 22.8764C118.067 22.6784 117.141 21.9422 115.748 20.7154C115.608 20.5921 115.386 20.6901 115.386 20.8761V22.8415C115.386 22.8655 115.39 22.8894 115.398 22.9122L119.968 36.0022C120.035 36.1945 120.308 36.1946 120.378 36.0034L120.386 35.9797C122.31 30.5984 123.365 27.2262 126.009 22.9302C126.03 22.8962 126.041 22.8568 126.041 22.817V20.8414C126.041 20.6611 125.831 20.5607 125.686 20.6705C123.522 22.3198 122.395 22.71 120.624 22.8761L120.605 22.8778L120.586 22.8764Z" fill="#3D3D3D"/>
<path d="M114.738 24.3153C113.669 26.5951 112.699 27.7112 111.088 28.5445C110.866 28.6594 110.961 29.0561 111.211 29.0436C113.453 28.9314 115.008 29.0359 116.961 29.798C117.142 29.8687 117.326 29.6901 117.253 29.511L115.144 24.3225C115.072 24.1456 114.819 24.1424 114.738 24.3153Z" fill="#3D3D3D"/>
<path d="M125.777 24.3941L123.375 29.3442C123.303 29.4928 123.419 29.6634 123.585 29.6532L130.759 29.2137C131.003 29.1988 131.042 28.8508 130.809 28.7773C128.416 28.0218 127.008 27.1739 126.199 24.4349C126.141 24.2402 125.866 24.2113 125.777 24.3941Z" fill="#3D3D3D"/>
<g opacity="0.7">
<path d="M29.3001 91.7749L29.2923 91.6887C29.2923 91.6887 34.8146 96.969 36.0965 98.2401C37.3785 99.5113 39.6466 104.987 39.6466 104.987C35.4401 103.28 33.1137 103.395 28.9964 104.498C29.9852 99.336 29.7375 96.6028 29.3001 91.7749Z" fill="#3D3D3D"/>
<path d="M42.3091 81.3239C37.8977 86.7663 37.3188 90.2009 35.1104 96.0889C38.0346 99.1288 38.9604 101.338 40.3369 105.476C41.5078 106.151 42.0098 107.027 42.9008 108.605V81.9106L42.3091 81.3239Z" fill="#3D3D3D"/>
<path d="M27.0242 79.9549L27.5173 76.1414C30.6134 76.8925 32.716 77.0247 37.8715 76.1414L41.9146 80.8349C38.0639 85.3342 36.3169 86.3798 33.6312 86.7019C31.1111 86.2975 29.9353 85.6427 28.2075 83.8662L27.0242 79.9549Z" fill="#3D3D3D"/>
<path d="M32.0534 62.3541L29.2923 62.9408L32.6451 66.2654L33.6312 69.9811L42.9008 80.8349V65.4832C42.3398 63.6291 41.6491 63.0201 40.041 62.3541H32.0534Z" fill="#3D3D3D"/>
<path d="M46.2536 62.3541C44.7071 63.429 44.085 64.1083 43.4924 65.4832V81.3239L50.987 72.5235C52.5191 70.5703 52.7862 69.3151 53.1564 67.0477C54.3502 64.4715 55.2648 63.5111 57.4954 62.9408L46.2536 62.3541Z" fill="#3D3D3D"/>
<path d="M43.4924 63.6253V60.7896C44.0267 61.5078 44.3801 61.8324 45.2675 62.0608C44.3635 62.5942 44.0344 62.9589 43.4924 63.6253Z" fill="#3D3D3D"/>
<path d="M42.9008 63.6253V60.7896C42.2608 61.3967 41.8037 61.6834 40.7313 62.0608C41.6243 62.5637 42.1075 62.8935 42.9008 63.6253Z" fill="#3D3D3D"/>
<path d="M42.9008 59.2251V48.958C40.2113 49.6735 39.4371 51.4253 37.6743 53.8471C37.2606 56.9431 38.2236 58.642 33.6312 61.8652H39.2521C41.3041 61.4552 42.0763 60.8756 42.9008 59.2251Z" fill="#3D3D3D"/>
<path d="M43.4924 59.2251V48.958C45.4814 50.3781 46.1945 51.6127 47.4369 53.8471C47.3769 58.0669 48.4009 59.6771 51.1842 61.8652H45.9577C44.1801 61.0187 43.8633 60.3897 43.4924 59.2251Z" fill="#3D3D3D"/>
<path d="M42.9994 48.3713C40.0537 48.8859 39.2766 50.5051 37.6743 53.0648C36.4543 51.6926 36.2754 50.9941 35.8993 49.7403V47.589L36.3924 47.4913C36.3924 47.4913 34.5187 38.2998 42.9994 38.0064C51.48 37.7131 49.705 47.589 49.705 47.589H50.0009V49.7403L49.4092 51.4025C48.7549 51.6965 48.4623 51.8806 48.2258 52.2826L47.8314 53.2604C45.9906 49.8698 44.9297 48.8927 42.9994 48.3713Z" fill="#3D3D3D"/>
<path d="M32.6451 69.0033C30.9553 71.5358 29.7035 72.1263 27.5173 73.3057V75.3591C28.8721 75.8408 29.6875 76.0398 31.3631 76.1414L31.3727 76.1408C33.8968 75.9793 35.3136 75.8886 37.4771 75.3591C35.0837 73.0947 34.1828 71.6355 32.6451 69.0033Z" fill="#3D3D3D"/>
<path d="M20.2199 67.4388C19.0843 69.6702 18.6952 71.2297 18.938 75.1636C23.2239 74.4152 25.5727 73.8567 30.1798 70.8612C32.1002 69.3109 32.1111 68.4614 31.9548 66.9499C31.0824 64.6567 29.8892 64.2368 28.2075 62.9408C24.6866 63.6746 22.9245 64.6117 20.2199 67.4388Z" fill="#3781FA"/>
<path d="M17.3602 81.3239L18.6422 75.6525C21.2238 75.5531 22.6675 75.192 25.2492 74.1858C23.1023 78.0943 21.1677 79.4079 17.3602 81.3239Z" fill="#3781FA"/>
<path d="M26.0381 73.9902C25.4064 75.5002 24.8601 76.4069 23.3755 78.1948C23.095 81.9107 23.5941 82.5029 24.2631 84.0617C25.0539 82.044 25.528 80.9703 26.6297 79.5638C26.8645 77.162 26.9557 75.8326 27.0242 73.5013L26.0381 73.9902Z" fill="#3781FA"/>
<path d="M23.9672 84.844C22.7734 82.4985 22.8105 81.1608 22.6853 78.7815C20.1956 80.6884 19.0113 81.3188 17.0644 82.1061C17.0644 82.1061 14.0074 88.1686 14.106 88.4619C14.2046 88.7553 16.5713 91.1998 16.7685 91.2976C16.9657 91.3954 20.9102 91.8843 21.1075 91.6887C21.3047 91.4932 23.9672 84.844 23.9672 84.844Z" fill="#91C5FF"/>
<path d="M16.7685 92.0799L13.9087 89.0486C8.99597 97.7809 8.03477 102.819 5.42808 111.734C5.42808 111.734 6.51281 113.005 7.00588 113.201C7.49894 113.396 9.17535 113.787 9.17535 113.787C12.0351 105.28 19.0183 100.672 20.9102 92.2754L16.7685 92.0799Z" fill="#3D3D3D"/>
<path d="M44.4785 81.3239L43.4924 82.2039V108.605C44.1911 107.033 44.7286 106.285 46.0563 105.28C47.0202 99.966 48.4479 97.7319 52.2689 94.8178L44.4785 81.3239Z" fill="#3D3D3D"/>
<path d="M52.8606 94.5244L47.3383 84.844C49.4075 86.2169 50.5502 87.0476 53.0578 86.7996C55.5203 86.1446 56.2831 85.3126 57.6926 83.8662L56.1148 92.471L52.8606 94.5244Z" fill="#3D3D3D"/>
<path d="M39.2521 84.844C36.875 88.5718 36.056 91.1584 34.5187 95.6978C32.08 92.9375 30.9282 92.0368 28.9964 90.8087L28.2075 84.844C30.5781 86.9094 31.6839 87.051 33.6312 87.1908C35.6296 87.0884 36.7744 86.9311 39.2521 84.844Z" fill="#3D3D3D"/>
<path d="M56.1148 93.1555C48.9703 96.74 47.1586 101.076 46.8452 104.987C48.635 104.097 48.1354 103.399 56.1148 103.325V93.1555Z" fill="#3D3D3D"/>
<path d="M48.8175 76.1414L44.7744 80.8349C48.3941 85.4664 50.1698 86.209 53.1564 86.2129C55.4226 85.1233 56.5144 84.2617 58.087 82.2039L58.3829 79.9549C57.5298 78.5859 57.4794 77.5881 57.4954 75.7503C53.4124 77.3544 51.9271 76.5724 48.8175 76.1414Z" fill="#3D3D3D"/>
<path d="M53.1564 69.0033C52.7547 72.3507 51.2244 73.3515 49.4092 75.7503L54.7342 75.9458C55.7923 75.8535 56.4149 75.9028 57.1995 74.8702L57.1009 72.3279C55.0892 71.2313 54.4438 70.41 53.1564 69.0033Z" fill="#3D3D3D"/>
<path d="M58.8759 73.0124L57.6926 72.5235L58.087 77.217C58.6588 79.8643 59.2382 81.3172 60.651 83.8662C61.6725 82.0745 62.0626 80.9902 62.1301 78.7815C60.8459 77.2466 60.1338 76.0964 58.8759 73.0124Z" fill="#3781FA"/>
<path d="M59.9316 73.473L59.8621 73.3057L65.976 74.8702C66.0468 77.4533 66.2854 78.8737 67.3566 81.3239C62.5699 79.8258 61.6084 77.5106 59.9316 73.473Z" fill="#3781FA"/>
<path d="M58.4003 62.9471L58.3829 62.9408L58.3167 62.9688C55.8154 64.0275 54.3926 64.6297 53.6495 67.7321C54.1912 69.2483 54.9587 69.9623 56.6079 71.1545C60.308 72.9886 62.3573 73.5286 65.976 73.9902C65.7153 70.4838 65.1792 68.6761 63.2149 65.8743C61.9058 64.2177 60.6427 63.7599 58.4003 62.9471Z" fill="#3781FA"/>
<path d="M62.7218 79.5638C62.4664 81.7883 61.9392 82.8931 60.9468 84.844L64.2996 92.2754C65.678 92.1825 66.4513 92.1093 67.8497 91.6887C69.171 91.072 69.6608 90.5511 70.4136 89.5375L67.3566 82.2039C65.5538 81.691 64.5401 81.2751 62.7218 79.5638Z" fill="#91C5FF"/>
<path d="M64.6941 96.6756C64.1024 95.1111 64.6941 92.8621 64.6941 92.8621L68.3427 92.2754L70.808 90.222C74.6509 98.8369 76.6425 103.652 78.9928 112.125C78.9928 112.125 77.9081 113.201 77.1192 113.69C76.3303 114.179 74.7525 114.179 74.7525 114.179C71.2496 106.152 65.2857 98.2402 64.6941 96.6756Z" fill="#3D3D3D"/>
<path d="M45.2674 130.215L44.5772 124.739C47.1542 126.249 48.7316 126.845 51.3814 127.379C51.7844 135.372 52.4641 138.948 54.3398 144.002C55.7726 151.726 54.4208 153.041 52.9592 156.714L52.5648 156.029C51.7935 145.409 50.6739 139.632 45.2674 130.215Z" fill="#3D3D3D"/>
<path d="M51.9731 154.367L45.2674 131.486C45.2674 131.486 49.2119 140.58 49.705 142.144C50.1981 143.709 51.9731 154.367 51.9731 154.367Z" fill="#91C5FF"/>
<path d="M57.4954 127.379H51.9731C52.7799 137.598 53.0162 143.38 60.5524 151.922L59.8621 139.798C57.6586 134.157 57.7909 131.84 57.4954 127.379Z" fill="#3781FA"/>
<path d="M58.2843 128.846C58.2843 125.912 59.8621 122.099 59.8621 122.099V130.215V138.331C59.8621 138.331 58.2843 131.779 58.2843 128.846Z" fill="#3D3D3D"/>
<path d="M55.3259 146.153C56.0784 150.361 55.3916 151.464 54.7342 154.074L56.312 153.683C56.312 153.683 56.8051 152.411 57.2981 151.922C57.7912 151.434 59.0732 151.434 59.0732 151.434C56.8158 149.353 56.3692 148.206 55.3259 146.153Z" fill="#3D3D3D"/>
<path d="M55.9176 154.367C54.0192 155.458 53.8844 156.17 53.255 157.398C53.926 160.539 54.228 162.535 54.4384 167.176C54.7043 169.806 55.346 171.084 56.312 173.435C56.312 173.435 59.9607 172.261 60.5524 168.643C61.144 165.025 55.9176 154.367 55.9176 154.367Z" fill="#3D3D3D"/>
<path d="M58.087 152.216C57.1009 152.509 57.0023 154.074 57.0023 154.074C58.6467 158.046 59.6062 158.02 61.144 168.252C62.0564 170.051 64.4531 171.104 64.6941 170.305C64.8913 164.927 60.5524 153.096 60.5524 153.096C60.5524 153.096 59.0732 151.922 58.087 152.216Z" fill="#3D3D3D"/>
<path d="M56.312 174.119C58.7206 173.582 59.722 172.365 61.144 169.23C62.0897 170.414 62.6812 171.031 64.6941 171.381C63.4888 178.8 63.3253 183.19 63.7079 191.329L64.3982 191.524C63.9046 184.723 63.7007 180.961 65.0885 175.488C65.5055 186.174 67.3945 196.119 63.7079 197C61.1701 196.647 60.3663 194.756 59.1718 190.742C58.8432 187.558 58.9529 186.049 60.5524 184.679C61.4027 186.367 61.6368 188.022 61.9329 191.329C62.0118 191.642 62.3602 191.459 62.5246 191.329C61.4003 181.888 59.2954 179.676 56.312 174.119Z" fill="#3D3D3D"/>
<path d="M25.545 138.722V130.41V122.099C25.545 122.099 27.4844 127.229 27.4186 130.215C27.3529 133.2 25.747 138.874 25.545 138.722Z" fill="#3D3D3D"/>
<path d="M24.9533 151.434C31.0487 149.521 32.1071 141.321 34.1243 127.086L27.8131 127.379C27.8131 127.379 28.109 133.833 27.4186 135.495C26.7283 137.157 25.3478 139.993 25.3478 139.993L24.9533 151.434Z" fill="#3781FA"/>
<path d="M29.3909 152.509C28.8437 151.502 28.2167 151.302 26.9256 151.14C28.3691 149.864 28.8336 150.615 31.1659 145.567C30.7303 148.059 30.5698 149.498 31.1659 152.509C30.2644 152.009 29.9115 152.092 29.3909 152.509Z" fill="#3D3D3D"/>
<path d="M42.0132 124.348C39.1015 126.566 37.5741 126.607 34.8145 127.086C33.9917 132.466 33.6101 135.42 32.3492 140.482C30.4087 149.406 31.4178 151.486 33.0395 155.443L33.7298 154.074C35.3081 143.92 34.9807 138.036 41.323 129.335L42.0132 124.348Z" fill="#3D3D3D"/>
<path d="M40.8299 133.051C40.8299 133.051 37.3785 141.362 37.1812 142.144C36.984 142.927 34.4982 152.216 34.4982 152.216C34.4982 152.216 35.9979 142.144 36.5896 140.971C37.1812 139.798 40.8299 130.704 40.8299 130.704V133.051Z" fill="#91C5FF"/>
<path d="M24.6575 154.074V152.509C24.6575 152.509 27.2214 151.629 28.0103 151.922C28.7992 152.216 28.7992 153.683 28.7992 153.683L27.2214 157.887C25.4293 161.543 25.4289 163.896 24.6575 167.861C22.8213 170.763 21.8223 170.296 20.0227 170.697C20.3219 161.851 22.0191 159.275 24.6575 154.074Z" fill="#3D3D3D"/>
<path d="M20.0227 171.968V171.381C21.7228 170.834 22.0598 171.746 25.0519 168.643C25.8575 171.175 26.6578 172.09 28.602 172.946L25.4464 180.964C23.6826 184.516 22.9249 186.674 22.6852 191.329H23.4741C23.3724 188.219 23.3781 186.52 24.6575 184.386C25.9839 186.965 26.3564 188.473 26.038 191.329C24.6022 194.707 23.6457 196.174 21.3047 197C19.4862 196.571 19.0701 195.79 19.0366 193.773L19.7269 172.946C20.4324 174.206 20.959 174.571 20.8116 178.03L20.5158 190.742H21.3047L21.3086 190.63C21.4992 185.216 21.6071 182.149 21.3047 174.803C21.0224 173.606 20.7718 172.975 20.0227 171.968Z" fill="#3D3D3D"/>
<path d="M25.4464 168.643C26.0695 161.593 27.2438 158.726 29.3909 153.683L29.6867 153.096C29.6867 153.096 29.8839 152.803 30.1798 152.705C30.4756 152.607 31.1659 153.096 31.1659 153.096L32.7437 156.029C31.4227 158.934 31.6589 165.123 31.1659 166.492C30.6728 167.861 28.7992 172.457 28.7992 172.457C26.6006 171.739 26.3158 170.515 25.4464 168.643Z" fill="#3D3D3D"/>
<path d="M4.93502 112.419C1.46046 115.627 -0.0942079 120.437 0.00440434 120.534C0.103017 120.632 0.300241 120.534 0.300241 120.534L2.17387 118.481V119.068L1.5822 120.828L0.300241 125.326C0.300241 125.326 0.00440434 125.717 0.00440434 125.815C0.00440434 125.912 0.300241 125.815 0.300241 125.815L0.793303 125.521L1.38498 124.055L2.66694 121.219C2.66694 121.219 2.86416 121.121 3.06139 121.121C3.25861 121.121 3.25861 121.414 3.25861 121.414L3.06139 122.197L2.17387 127.281C2.17387 127.281 2.3711 127.673 2.46971 127.575C2.56832 127.477 2.86416 126.89 2.86416 126.89L3.06139 126.401L4.44196 121.806C4.44196 121.806 4.63918 121.708 4.73779 121.806C4.83641 121.903 4.73779 122.588 4.73779 122.588C4.73779 122.588 4.63918 127.868 4.73779 127.966C4.83641 128.064 5.13224 128.161 5.23085 127.966C5.32947 127.77 5.42808 126.89 5.42808 126.89L5.6253 125.521L5.92114 123.761L6.21698 122.588C6.21698 122.588 6.21698 122.197 6.4142 122.197C6.61143 122.197 6.51281 122.392 6.51281 122.392L6.71004 122.979L7.00588 125.815C7.00588 125.815 7.10449 126.792 7.2031 126.89C7.30171 126.988 7.49894 126.988 7.69616 126.89C7.89339 126.792 7.89339 126.206 7.89339 126.206L7.992 125.424C7.92944 120.848 9.37257 118.774 9.17535 114.57C7.27672 114.085 6.39933 113.538 4.93502 112.419Z" fill="#3D3D3D"/>
<path d="M79.1901 112.81C77.3818 114.774 76.4547 114.67 74.7525 115.156C74.4129 119.685 76.2924 124.709 76.3303 125.424C76.3682 126.138 76.4414 126.45 76.6262 126.89C76.6262 126.89 76.8234 126.988 76.922 126.89C77.0206 126.792 76.922 126.401 76.922 126.401L77.1192 125.228V123.175L77.3164 122.392H77.6123C77.8095 122.49 79.1901 127.77 79.1901 127.77H79.5845C79.5845 127.77 79.7817 127.966 79.979 127.77C80.1762 127.575 79.1901 122.979 79.1901 122.979V122.392C79.1901 122.392 79.3873 122.001 79.5845 122.001C79.7817 122.001 82.3457 127.477 82.6415 127.477C82.9373 127.477 82.8387 127.184 82.8387 127.184L80.9651 122.001C80.9651 122.001 80.7679 121.512 80.9651 121.414C81.1623 121.317 81.2609 121.414 81.2609 121.414L84.1207 125.228C84.1207 125.228 84.5151 125.326 84.7123 125.228C84.9096 125.13 84.7123 124.837 84.7123 124.837L81.6554 119.361C81.6554 119.361 81.2609 119.165 81.2609 118.872C81.2609 118.579 81.6554 118.481 81.6554 118.481C81.6554 118.481 84.5151 119.948 84.7123 119.85C84.9096 119.752 84.7123 119.557 84.7123 119.557L79.1901 112.81Z" fill="#3D3D3D"/>
<path d="M43.4924 109.778C45.809 106.652 45.8867 104.255 53.8467 104.107L54.1426 104.498C54.6861 111.425 56.4339 114.932 59.5336 121.153L59.5662 121.219C58.4565 123.132 58.2446 124.408 57.8898 126.695C49.6916 127.456 47.3371 125.791 43.4924 122.49V109.778Z" fill="#3D3D3D"/>
<path d="M31.0673 104.792L29.4895 112.419L25.545 121.219C27.1795 123.317 27.3792 124.532 27.8131 126.695C35.8854 126.534 39.876 126.08 42.9008 122.49V109.778C41.5125 107.337 40.3063 106.337 37.8715 104.792C34.651 104.295 33.1578 104.292 31.0673 104.792Z" fill="#3D3D3D"/>
<path d="M28.7006 105.28L30.5742 104.792L29.2923 110.756L25.545 119.654L27.4186 110.756L28.7006 105.28Z" fill="#3D3D3D"/>
<path d="M54.537 104.107H56.1148C57.0982 109.089 57.7771 111.837 59.2704 116.623C59.7385 118.064 59.8524 118.927 59.8621 120.534C57.0651 114.314 55.654 110.785 54.537 104.107Z" fill="#3D3D3D"/>
</g>
</svg>
