<svg width="167" height="141" viewBox="0 0 167 141" fill="none" xmlns="http://www.w3.org/2000/svg">
<g opacity="0.5">
<path d="M27.2961 88.0547L27.2888 87.9744C27.2888 87.9744 32.4334 92.8894 33.6277 94.0726C34.8219 95.2558 36.9349 100.353 36.9349 100.353C33.0161 98.7638 30.8488 98.8704 27.0132 99.8977C27.9343 95.0927 27.7036 92.5485 27.2961 88.0547Z" fill="#3781FA"/>
<path d="M39.4153 78.3266C35.3057 83.3925 34.7663 86.5895 32.709 92.0702C35.4332 94.8998 36.2957 96.9564 37.578 100.808C38.6689 101.436 39.1365 102.252 39.9665 103.72V78.8727L39.4153 78.3266Z" fill="#3781FA"/>
<path d="M25.1758 77.0524L25.6352 73.5027C28.5196 74.2018 30.4783 74.3249 35.2813 73.5027L39.0478 77.8715C35.4604 82.0595 33.833 83.0328 31.331 83.3326C28.9832 82.9562 27.8878 82.3467 26.2783 80.6931L25.1758 77.0524Z" fill="#3781FA"/>
<path d="M29.8611 60.6693L27.2888 61.2154L30.4123 64.3099L31.331 67.7686L39.9665 77.8715V63.5818C39.4439 61.856 38.8005 61.2892 37.3024 60.6693H29.8611Z" fill="#3781FA"/>
<path d="M43.09 60.6693C41.6493 61.6698 41.0698 62.3021 40.5177 63.5818V78.3266L47.4997 70.1351C48.927 68.317 49.1758 67.1487 49.5207 65.0381C50.6328 62.6401 51.4849 61.7461 53.5629 61.2154L43.09 60.6693Z" fill="#3781FA"/>
<path d="M40.5177 61.8525V59.213C41.0155 59.8814 41.3447 60.1836 42.1713 60.3962C41.3292 60.8927 41.0226 61.2322 40.5177 61.8525Z" fill="#3D3D3D"/>
<path d="M39.9665 61.8525V59.213C39.3703 59.7781 38.9445 60.0449 37.9454 60.3962C38.7773 60.8643 39.2275 61.1713 39.9665 61.8525Z" fill="#3D3D3D"/>
<path d="M39.9665 57.7567V48.1999C37.461 48.8659 36.7397 50.4965 35.0975 52.7508C34.7121 55.6325 35.6092 57.214 31.331 60.2142H36.5674C38.4791 59.8325 39.1984 59.293 39.9665 57.7567Z" fill="#3D3D3D"/>
<path d="M40.5177 57.7567V48.1999C42.3706 49.5217 43.0349 50.6709 44.1924 52.7508C44.1365 56.6787 45.0905 58.1775 47.6834 60.2142H42.8144C41.1583 59.4262 40.8632 58.8407 40.5177 57.7567Z" fill="#3D3D3D"/>
<path d="M40.0584 47.6538C37.3142 48.1328 36.5902 49.64 35.0975 52.0226C33.961 50.7453 33.7943 50.0951 33.4439 48.928V46.9257L33.9033 46.8346C33.9033 46.8346 32.1578 38.279 40.0584 38.006C47.959 37.7329 46.3054 46.9257 46.3054 46.9257H46.581V48.928L46.0298 50.4753C45.4202 50.749 45.1477 50.9203 44.9274 51.2945L44.5599 52.2047C42.845 49.0486 41.8567 48.1391 40.0584 47.6538Z" fill="#3D3D3D"/>
<path d="M30.4123 66.8584C28.838 69.2157 27.6719 69.7654 25.6352 70.8632V72.7745C26.8974 73.2229 27.657 73.4081 29.218 73.5027L29.227 73.5021C31.5784 73.3518 32.8982 73.2674 34.9138 72.7745C32.6842 70.6668 31.8448 69.3085 30.4123 66.8584Z" fill="#3781FA"/>
<path d="M18.837 65.4021C17.779 67.4792 17.4165 68.9308 17.6427 72.5925C21.6355 71.8959 23.8236 71.3761 28.1156 68.5877C29.9047 67.1447 29.9148 66.354 29.7692 64.9471C28.9565 62.8125 27.8448 62.4217 26.2783 61.2154C22.9982 61.8984 21.3566 62.7706 18.837 65.4021Z" fill="#3781FA"/>
<path d="M16.1728 78.3266L17.3671 73.0476C19.7722 72.955 21.1171 72.619 23.5222 71.6823C21.5222 75.3205 19.7199 76.5432 16.1728 78.3266Z" fill="#3781FA"/>
<path d="M24.2572 71.5003C23.6687 72.9059 23.1598 73.7498 21.7767 75.414C21.5154 78.8729 21.9803 79.4241 22.6036 80.8751C23.3403 78.997 23.782 77.9975 24.8084 76.6883C25.0271 74.4527 25.112 73.2152 25.1758 71.0452L24.2572 71.5003Z" fill="#3781FA"/>
<path d="M22.3279 81.6032C21.2158 79.42 21.2503 78.1749 21.1337 75.9601C18.8143 77.7351 17.711 78.3219 15.8972 79.0547C15.8972 79.0547 13.0493 84.6978 13.1412 84.9709C13.2331 85.2439 15.4379 87.5193 15.6216 87.6104C15.8053 87.7014 19.48 88.1565 19.6638 87.9744C19.8475 87.7924 22.3279 81.6032 22.3279 81.6032Z" fill="#BEDBFF"/>
<path d="M15.6216 88.3385L12.9574 85.517C8.38068 93.6451 7.48522 98.3346 5.05682 106.633C5.05682 106.633 6.06736 107.816 6.5267 107.998C6.98604 108.18 8.54779 108.544 8.54779 108.544C11.2119 100.626 17.7175 96.3365 19.48 88.5205L15.6216 88.3385Z" fill="#91C5FF"/>
<path d="M41.4364 78.3266L40.5177 79.1457V103.72C41.1686 102.257 41.6694 101.561 42.9063 100.626C43.8042 95.6791 45.1343 93.5995 48.6939 90.887L41.4364 78.3266Z" fill="#3781FA"/>
<path d="M49.2451 90.6139L44.1005 81.6032C46.0282 82.8812 47.0927 83.6543 49.4289 83.4236C51.7229 82.8138 52.4336 82.0394 53.7466 80.6931L52.2768 88.7026L49.2451 90.6139Z" fill="#BEDBFF"/>
<path d="M36.5674 81.6032C34.3529 85.0731 33.5899 87.4808 32.1578 91.7061C29.8859 89.1368 28.8128 88.2984 27.0132 87.1553L26.2783 81.6032C28.4867 83.5257 29.5169 83.6576 31.331 83.7876C33.1927 83.6923 34.2592 83.5459 36.5674 81.6032Z" fill="#BEDBFF"/>
<path d="M52.2768 89.3397C45.6209 92.6762 43.9331 96.7121 43.6412 100.353C45.3085 99.524 44.8431 98.875 52.2768 98.8055V89.3397Z" fill="#3781FA"/>
<path d="M45.4785 73.5027L41.712 77.8715C45.0841 82.1826 46.7384 82.8737 49.5207 82.8775C51.6319 81.8632 52.649 81.0612 54.1141 79.1457L54.3897 77.0524C53.5949 75.7781 53.548 74.8493 53.5629 73.1386C49.7592 74.6318 48.3755 73.9039 45.4785 73.5027Z" fill="#3781FA"/>
<path d="M49.5207 66.8584C49.1464 69.9743 47.7208 70.9058 46.0298 73.1386L50.9906 73.3206C51.9763 73.2347 52.5564 73.2806 53.2873 72.3195L53.1954 69.953C51.3213 68.9322 50.7201 68.1678 49.5207 66.8584Z" fill="#3781FA"/>
<path d="M54.849 70.5901L53.7466 70.1351L54.1141 74.5039C54.6468 76.968 55.1865 78.3204 56.5027 80.6931C57.4543 79.0253 57.8178 78.016 57.8807 75.9601C56.6843 74.5314 56.0209 73.4608 54.849 70.5901Z" fill="#3781FA"/>
<path d="M55.8325 71.0189L55.7677 70.8632L61.4635 72.3195C61.5295 74.7238 61.7518 76.0459 62.7497 78.3266C58.2904 76.9322 57.3946 74.7772 55.8325 71.0189Z" fill="#3781FA"/>
<path d="M54.4059 61.2212L54.3897 61.2154L54.3281 61.2414C51.9979 62.2269 50.6723 62.7874 49.9801 65.6752C50.4847 67.0865 51.1997 67.751 52.7361 68.8608C56.1832 70.568 58.0923 71.0706 61.4635 71.5003C61.2206 68.2365 60.7211 66.5539 58.8912 63.9459C57.6717 62.4039 56.495 61.9777 54.4059 61.2212Z" fill="#3781FA"/>
<path d="M58.4319 76.6883C58.1939 78.7589 57.7028 79.7873 56.7783 81.6032L59.9018 88.5205C61.1859 88.434 61.9063 88.3659 63.209 87.9744C64.4399 87.4004 64.8963 86.9155 65.5975 85.972L62.7497 79.1457C61.0702 78.6684 60.1258 78.2813 58.4319 76.6883Z" fill="#BEDBFF"/>
<path d="M60.2692 92.6163C59.718 91.16 60.2692 89.0666 60.2692 89.0666L63.6683 88.5205L65.965 86.6092C69.545 94.628 71.4004 99.1097 73.59 106.997C73.59 106.997 72.5795 107.998 71.8445 108.453C71.1096 108.908 69.6397 108.908 69.6397 108.908C66.3764 101.437 60.8204 94.0726 60.2692 92.6163Z" fill="#91C5FF"/>
<path d="M42.1713 123.835L41.5282 118.738C43.9291 120.144 45.3985 120.698 47.8671 121.196C48.2425 128.636 48.8758 131.964 50.6231 136.669C51.958 143.858 50.6986 145.082 49.337 148.501L48.9695 147.864C48.251 137.978 47.2079 132.601 42.1713 123.835Z" fill="#3781FA"/>
<path d="M48.4183 146.316L42.1713 125.018C42.1713 125.018 45.846 133.483 46.3054 134.939C46.7647 136.396 48.4183 146.316 48.4183 146.316Z" fill="#91C5FF"/>
<path d="M53.5629 121.196H48.4183C49.1699 130.707 49.3901 136.09 56.4108 144.041L55.7677 132.755C53.715 127.505 53.8382 125.348 53.5629 121.196Z" fill="#3781FA"/>
<path d="M54.2978 122.561C54.2978 119.83 55.7677 116.281 55.7677 116.281V123.835V131.39C55.7677 131.39 54.2978 125.291 54.2978 122.561Z" fill="#91C5FF"/>
<path d="M51.5418 138.671C52.2428 142.587 51.6031 143.614 50.9906 146.043L52.4605 145.679C52.4605 145.679 52.9198 144.496 53.3792 144.041C53.8385 143.586 55.0328 143.586 55.0328 143.586C52.9298 141.65 52.5137 140.582 51.5418 138.671Z" fill="#3D3D3D"/>
<path d="M52.093 146.316C50.3245 147.332 50.1989 147.995 49.6126 149.138C50.2377 152.062 50.519 153.919 50.715 158.24C50.9627 160.687 51.5606 161.877 52.4605 164.065C52.4605 164.065 55.8596 162.973 56.4108 159.605C56.962 156.237 52.093 146.316 52.093 146.316Z" fill="#3D3D3D"/>
<path d="M54.1141 144.314C53.1954 144.587 53.1036 146.043 53.1036 146.043C54.6355 149.741 55.5293 149.717 56.962 159.241C57.812 160.915 60.0448 161.896 60.2692 161.152C60.453 156.146 56.4108 145.133 56.4108 145.133C56.4108 145.133 55.0328 144.041 54.1141 144.314Z" fill="#3D3D3D"/>
<path d="M52.4605 164.702C54.7043 164.202 55.6373 163.069 56.962 160.151C57.843 161.253 58.394 161.828 60.2692 162.153C59.1464 169.059 58.9941 173.145 59.3506 180.721L59.9936 180.903C59.5337 174.572 59.3438 171.07 60.6367 165.976C61.0252 175.923 62.785 185.18 59.3506 186C56.9863 185.671 56.2375 183.911 55.1246 180.175C54.8185 177.211 54.9207 175.807 56.4108 174.532C57.203 176.103 57.4211 177.643 57.6969 180.721C57.7704 181.012 58.095 180.842 58.2481 180.721C57.2008 171.934 55.2398 169.875 52.4605 164.702Z" fill="#3D3D3D"/>
<path d="M23.7978 131.754V124.017V116.281C23.7978 116.281 25.6046 121.056 25.5433 123.835C25.4821 126.614 23.986 131.895 23.7978 131.754Z" fill="#91C5FF"/>
<path d="M23.2466 143.586C28.9251 141.806 29.9111 134.173 31.7903 120.923L25.9108 121.196C25.9108 121.196 26.1864 127.203 25.5433 128.75C24.9002 130.297 23.6141 132.937 23.6141 132.937L23.2466 143.586Z" fill="#3781FA"/>
<path d="M27.3806 144.587C26.8709 143.65 26.2868 143.463 25.084 143.313C26.4288 142.125 26.8615 142.824 29.0343 138.125C28.6284 140.444 28.4789 141.784 29.0343 144.587C28.1945 144.122 27.8657 144.199 27.3806 144.587Z" fill="#3D3D3D"/>
<path d="M39.1397 118.374C36.4271 120.439 35.0041 120.477 32.4334 120.923C31.6668 125.93 31.3113 128.68 30.1367 133.392C28.3289 141.698 29.269 143.634 30.7797 147.318L31.4228 146.043C32.8932 136.592 32.5882 131.115 38.4966 123.016L39.1397 118.374Z" fill="#3781FA"/>
<path d="M38.0373 126.475C38.0373 126.475 34.8219 134.211 34.6382 134.939C34.4544 135.667 32.1387 144.314 32.1387 144.314C32.1387 144.314 33.5358 134.939 34.087 133.847C34.6382 132.755 38.0373 124.29 38.0373 124.29V126.475Z" fill="#91C5FF"/>
<path d="M22.971 146.043V144.587C22.971 144.587 25.3596 143.768 26.0945 144.041C26.8294 144.314 26.8294 145.679 26.8294 145.679L25.3596 149.593C23.69 152.996 23.6897 155.187 22.971 158.877C21.2604 161.578 20.3298 161.144 18.6532 161.516C18.932 153.283 20.5131 150.885 22.971 146.043Z" fill="#3D3D3D"/>
<path d="M18.6532 162.7V162.153C20.2371 161.644 20.551 162.493 23.3385 159.605C24.089 161.962 24.8345 162.813 26.6457 163.61L23.7059 171.073C22.0628 174.38 21.3569 176.388 21.1336 180.721H21.8686C21.7738 177.826 21.7791 176.245 22.971 174.259C24.2067 176.66 24.5537 178.063 24.2571 180.721C22.9195 183.866 22.0285 185.231 19.8475 186C18.1534 185.601 17.7657 184.874 17.7345 182.996L18.3776 163.61C19.0349 164.783 19.5254 165.123 19.3882 168.343L19.1126 180.175H19.8475L19.8512 180.071C20.0287 175.031 20.1293 172.177 19.8475 165.339C19.5846 164.225 19.3511 163.637 18.6532 162.7Z" fill="#3D3D3D"/>
<path d="M23.7059 159.605C24.2864 153.042 25.3804 150.374 27.3806 145.679L27.6562 145.133C27.6562 145.133 27.84 144.86 28.1156 144.769C28.3912 144.678 29.0343 145.133 29.0343 145.133L30.5041 147.864C29.2735 150.567 29.4936 156.328 29.0343 157.603C28.5749 158.877 26.8294 163.155 26.8294 163.155C24.7812 162.487 24.5159 161.347 23.7059 159.605Z" fill="#3D3D3D"/>
<path d="M4.59748 107.27C1.36057 110.257 -0.0877645 114.733 0.0041031 114.825C0.0959707 114.916 0.279706 114.825 0.279706 114.825L2.02519 112.913V113.459L1.47398 115.098L0.279706 119.284C0.279706 119.284 0.0041031 119.648 0.0041031 119.739C0.0041031 119.83 0.279706 119.739 0.279706 119.739L0.739044 119.466L1.29025 118.101L2.48453 115.462C2.48453 115.462 2.66826 115.371 2.852 115.371C3.03573 115.371 3.03573 115.644 3.03573 115.644L2.852 116.372L2.02519 121.105C2.02519 121.105 2.20892 121.469 2.30079 121.378C2.39266 121.287 2.66826 120.741 2.66826 120.741L2.852 120.286L4.13814 116.008C4.13814 116.008 4.32188 115.917 4.41375 116.008C4.50561 116.099 4.41375 116.736 4.41375 116.736C4.41375 116.736 4.32188 121.651 4.41375 121.742C4.50561 121.833 4.78122 121.924 4.87308 121.742C4.96495 121.56 5.05682 120.741 5.05682 120.741L5.24055 119.466L5.51616 117.828L5.79176 116.736C5.79176 116.736 5.79176 116.372 5.9755 116.372C6.15923 116.372 6.06736 116.554 6.06736 116.554L6.2511 117.1L6.5267 119.739C6.5267 119.739 6.61857 120.65 6.71044 120.741C6.8023 120.832 6.98604 120.832 7.16977 120.741C7.35351 120.65 7.35351 120.104 7.35351 120.104L7.44538 119.375C7.38709 115.116 8.73152 113.186 8.54779 109.272C6.77902 108.821 5.96164 108.312 4.59748 107.27Z" fill="#3D3D3D"/>
<path d="M73.7738 107.634C72.0892 109.462 71.2255 109.366 69.6397 109.819C69.3234 114.033 71.0743 118.71 71.1096 119.375C71.1449 120.04 71.2131 120.331 71.3852 120.741C71.3852 120.741 71.5689 120.832 71.6608 120.741C71.7527 120.65 71.6608 120.286 71.6608 120.286L71.8445 119.193V117.282L72.0283 116.554H72.3039C72.4876 116.645 73.7738 121.56 73.7738 121.56H74.1412C74.1412 121.56 74.325 121.742 74.5087 121.56C74.6924 121.378 73.7738 117.1 73.7738 117.1V116.554C73.7738 116.554 73.9575 116.19 74.1412 116.19C74.325 116.19 76.7135 121.287 76.9891 121.287C77.2647 121.287 77.1729 121.014 77.1729 121.014L75.4274 116.19C75.4274 116.19 75.2436 115.735 75.4274 115.644C75.6111 115.553 75.703 115.644 75.703 115.644L78.3671 119.193C78.3671 119.193 78.7346 119.284 78.9183 119.193C79.1021 119.102 78.9183 118.829 78.9183 118.829L76.0705 113.732C76.0705 113.732 75.703 113.55 75.703 113.277C75.703 113.004 76.0705 112.913 76.0705 112.913C76.0705 112.913 78.7346 114.278 78.9183 114.187C79.1021 114.096 78.9183 113.914 78.9183 113.914L73.7738 107.634Z" fill="#3D3D3D"/>
<path d="M40.5177 104.813C42.6759 101.903 42.7482 99.6717 50.1638 99.5336L50.4394 99.8977C50.9457 106.345 52.574 109.61 55.4617 115.401L55.4921 115.462C54.4583 117.242 54.2609 118.43 53.9304 120.559C46.2929 121.267 44.0994 119.718 40.5177 116.645V104.813Z" fill="#91C5FF"/>
<path d="M28.9424 100.171L27.4725 107.27L23.7978 115.462C25.3205 117.415 25.5066 118.545 25.9108 120.559C33.431 120.409 37.1486 119.986 39.9665 116.645V104.813C38.6732 102.54 37.5495 101.609 35.2813 100.171C32.281 99.7088 30.8899 99.7061 28.9424 100.171Z" fill="#91C5FF"/>
<path d="M26.7376 100.626L28.4831 100.171L27.2888 105.723L23.7978 114.005L25.5433 105.723L26.7376 100.626Z" fill="#91C5FF"/>
<path d="M50.8069 99.5336H52.2768C53.1929 104.171 53.8253 106.729 55.2165 111.184C55.6526 112.525 55.7587 113.328 55.7677 114.825C53.1621 109.035 51.8475 105.749 50.8069 99.5336Z" fill="#91C5FF"/>
</g>
<path d="M104.747 55.798C103.78 53.3543 103.064 52.3372 101.747 50.781C101.706 50.7324 101.687 50.6682 101.697 50.6055L102.102 47.9873C102.115 47.9039 102.177 47.8341 102.259 47.8111C106.384 46.6461 107.646 49.9441 110.564 53.165C110.601 53.2056 110.622 53.2585 110.622 53.3131V60.0351C110.622 60.2329 110.379 60.3302 110.239 60.1894C108.317 58.25 107.03 57.3834 104.896 55.9458L104.829 55.9008C104.792 55.8759 104.763 55.8393 104.747 55.798Z" fill="#91C5FF"/>
<path d="M110.035 51.6545L108.544 49.5121C108.442 49.3666 108.547 49.1677 108.725 49.1677H111.368C111.554 49.1677 111.657 49.3846 111.544 49.5319C110.999 50.2395 110.714 50.794 110.432 51.598C110.372 51.77 110.14 51.8042 110.035 51.6545Z" fill="#91C5FF"/>
<path d="M107.354 48.092C104.87 44.8197 103.614 42.873 102.379 39.069C102.357 39.0021 102.369 38.9273 102.411 38.8704C104.293 36.301 105.126 34.252 106.547 30.7611L106.592 30.6492C106.626 30.5663 106.707 30.511 106.797 30.511H111.836C116.905 30.2166 116.937 33.7349 118.554 37.9353C118.564 37.9605 118.569 37.9875 118.569 38.0144V45.5001C118.569 45.5934 118.508 45.6769 118.42 45.7079C115.783 46.6315 114.695 47.1893 112.766 48.1563C112.736 48.1717 112.701 48.18 112.667 48.18H107.531C107.462 48.18 107.396 48.1469 107.354 48.092Z" fill="#3781FA"/>
<path d="M124.419 30.511C120.559 30.387 120.75 34.1139 119.355 37.937C119.346 37.9612 119.342 37.9868 119.342 38.0125V45.4811C119.342 45.5834 119.413 45.6721 119.513 45.6954C121.549 46.1687 122.816 46.6238 125.355 48.3602C125.392 48.3854 125.436 48.3995 125.481 48.3995H131.485C131.553 48.3995 131.618 48.3674 131.66 48.3135C133.715 45.6578 134.798 43.7894 136.31 39.0544C136.328 38.996 136.322 38.9305 136.291 38.8772C134.576 35.8963 133.533 33.9518 131.659 30.3088C131.619 30.2321 131.538 30.1843 131.451 30.1883L124.419 30.511Z" fill="#3781FA"/>
<path d="M133.395 47.0482C134.401 45.6174 134.974 44.461 135.617 42.833C135.706 42.6101 136.043 42.6637 136.053 42.9031L136.218 46.9277C136.224 47.0651 136.102 47.1735 135.965 47.1574C135.083 47.0543 134.456 47.1271 133.708 47.4246C133.489 47.5119 133.259 47.2408 133.395 47.0482Z" fill="#3781FA"/>
<path d="M130.562 49.7408L128.095 52.1067C127.977 52.2193 127.781 52.1702 127.728 52.0169C127.348 50.9177 127.01 50.2974 126.465 49.5444C126.356 49.3933 126.469 49.1808 126.655 49.1895L130.419 49.3636C130.613 49.3725 130.702 49.6072 130.562 49.7408Z" fill="#91C5FF"/>
<path d="M136.181 47.9393C133.712 47.6467 131.748 49.2632 128.012 53.1639C127.973 53.2047 127.951 53.2597 127.951 53.316V60.322C127.951 60.5098 128.173 60.6106 128.316 60.4878L128.453 60.3693C130.225 58.8465 131.365 57.8666 133.836 56.4539C133.884 56.4265 133.921 56.3813 133.937 56.3291C134.689 54.0018 135.156 52.6695 136.724 50.5613C136.76 50.5128 136.775 50.4511 136.765 50.3917L136.367 48.1164C136.35 48.0233 136.275 47.9505 136.181 47.9393Z" fill="#91C5FF"/>
<path d="M127.951 63.9968V61.7634C127.951 61.7089 127.972 61.6557 128.009 61.6154C130.012 59.4244 131.309 58.4638 133.561 57.2551C133.713 57.1735 133.896 57.2905 133.885 57.462L133.697 60.2579C133.693 60.3237 133.659 60.384 133.605 60.4222L128.3 64.1757C128.153 64.2791 127.951 64.1752 127.951 63.9968Z" fill="#91C5FF"/>
<path d="M133.364 61.3129C131.163 62.5672 130.029 63.6973 128.026 65.4537C127.979 65.4954 127.951 65.556 127.951 65.6191V68.5275C127.951 68.6714 128.088 68.7763 128.228 68.7377C130.176 68.1983 131.423 67.5225 133.595 66.0248C133.654 65.9839 133.69 65.916 133.69 65.8442V61.5021C133.69 61.3349 133.509 61.2297 133.364 61.3129Z" fill="#91C5FF"/>
<path d="M127.911 69.4922L122.27 88.0224C122.194 88.2689 122.55 88.4272 122.691 88.2115C126.154 82.936 129.146 80.4669 134.211 76.4959C134.293 76.4317 134.319 76.3182 134.275 76.2241C133.221 73.9606 133.397 71.1942 133.364 67.183C133.362 66.9992 133.146 66.8996 133.001 67.0139C130.733 68.8042 129.705 69.0744 128.087 69.3389C128.004 69.3525 127.935 69.4119 127.911 69.4922Z" fill="#91C5FF"/>
<path d="M118.336 53.6821C115.121 53.9241 113.84 55.6594 111.26 57.6613C111.206 57.7031 111.174 57.7677 111.174 57.8356V62.7762C111.174 62.8974 111.273 62.9957 111.395 62.9957H111.456C111.488 62.9957 111.521 62.9883 111.55 62.9746C114.077 61.7953 115.626 61.3477 118.387 60.8343C118.492 60.8148 118.569 60.7239 118.569 60.6181V53.8985C118.569 53.7728 118.462 53.6726 118.336 53.6821Z" fill="#3781FA"/>
<path d="M118.569 52.5975V46.6094C118.569 46.4624 118.423 46.3578 118.282 46.4014C113.445 47.8955 113.011 49.3678 111.116 51.6299C111.082 51.6695 111.063 51.7202 111.063 51.7718V56.4715C111.063 56.6608 111.289 56.7605 111.431 56.6344L111.553 56.5264C113.797 54.5355 115.209 53.2821 118.376 52.8164C118.486 52.8003 118.569 52.7074 118.569 52.5975Z" fill="#3781FA"/>
<path d="M119.342 52.6187V46.5854C119.342 46.4458 119.472 46.342 119.61 46.3723C123.771 47.2929 125.364 48.6701 127.259 51.97C127.278 52.0031 127.289 52.0411 127.289 52.0792V56.493C127.289 56.6788 127.07 56.7803 126.925 56.6632C123.757 54.1066 122.133 53.5026 119.509 52.8318C119.411 52.8068 119.342 52.7191 119.342 52.6187Z" fill="#3781FA"/>
<path d="M119.342 60.6263V53.8516C119.342 53.745 119.419 53.6532 119.525 53.6395C121.722 53.3558 123.722 54.9087 127.204 57.6613C127.257 57.7029 127.289 57.7669 127.289 57.8338V62.6876C127.289 62.8384 127.139 62.9443 126.995 62.8955C124.185 61.9406 122.453 61.5175 119.513 60.8404C119.413 60.8173 119.342 60.7284 119.342 60.6263Z" fill="#3781FA"/>
<path d="M119.342 66.3647V61.8119C119.342 61.6819 119.455 61.5804 119.585 61.5944C122.623 61.9215 124.315 62.5113 127.153 63.7068C127.235 63.7411 127.289 63.8211 127.289 63.9091V68.6085C127.289 68.7234 127.198 68.8191 127.083 68.8258C123.871 69.0121 122.322 67.8355 119.474 66.5661C119.394 66.5306 119.342 66.4516 119.342 66.3647Z" fill="#3781FA"/>
<path d="M118.569 66.3818V61.8128C118.569 61.6825 118.455 61.5808 118.325 61.5958C115.568 61.9124 114.149 62.5722 111.65 63.4911C111.563 63.5231 111.505 63.6056 111.505 63.6976V68.8128C111.505 68.9338 111.604 69.0322 111.725 69.0302C114.301 68.9889 115.836 68.1011 118.459 66.5716C118.527 66.5322 118.569 66.4597 118.569 66.3818Z" fill="#3781FA"/>
<path d="M104.772 60.1216V57.1034C104.772 56.9383 104.949 56.8328 105.095 56.9114C107.361 58.1303 108.617 59.216 110.572 61.6178C110.604 61.6568 110.622 61.7061 110.622 61.7562V64.0337C110.622 64.2246 110.393 64.3244 110.251 64.1962C108.33 62.4662 107.087 61.5141 104.888 60.315C104.817 60.2763 104.772 60.202 104.772 60.1216Z" fill="#91C5FF"/>
<path d="M104.772 65.7403V61.3846C104.772 61.2193 104.949 61.1139 105.095 61.1936C107.294 62.3968 108.532 63.5803 110.657 65.4538C110.705 65.4954 110.732 65.5558 110.732 65.6187V68.7655C110.732 68.9035 110.605 69.0074 110.47 68.9777C108.515 68.5501 107.182 67.6685 104.86 65.9155C104.805 65.8741 104.772 65.8088 104.772 65.7403Z" fill="#91C5FF"/>
<path d="M118.895 67.1307C116.118 68.9121 114.571 69.506 112.09 69.8733C111.956 69.8931 111.871 70.0274 111.909 70.1561C114.096 77.4997 115.244 82.2196 117.126 91.1623C117.131 91.1871 117.141 91.2113 117.154 91.2329L117.952 92.5226C117.993 92.5875 118.064 92.627 118.14 92.627H119.895C119.964 92.627 120.028 92.5954 120.07 92.5413L121.062 91.2595C121.091 91.2211 121.108 91.1741 121.108 91.1257V89.2569C121.108 89.2357 121.111 89.2145 121.117 89.1942L126.986 69.6346C127.027 69.4964 126.926 69.3568 126.781 69.3515C123.855 69.2448 122.115 68.8522 119.129 67.1254C119.057 67.0836 118.965 67.0856 118.895 67.1307Z" fill="#3781FA"/>
<path d="M104.226 76.2797L104.747 67.1607C104.757 66.981 104.97 66.8899 105.111 67.003C107.445 68.8783 108.716 69.3819 110.697 69.6695C110.785 69.6823 110.857 69.7459 110.88 69.8315L115.767 88.2534C115.831 88.497 115.491 88.6442 115.353 88.4331C111.539 82.6097 108.802 80.4895 104.3 76.4559C104.25 76.4114 104.222 76.346 104.226 76.2797Z" fill="#91C5FF"/>
<path d="M142.189 33.2546C139.929 30.1515 132.738 29.6567 132.38 29.6339C132.368 29.6332 132.356 29.6288 132.348 29.6364C132.15 29.8129 135.26 35.6039 136.781 38.3029C138.332 41.0573 144.536 46.8193 144.507 45.6611C144.507 45.6582 144.507 45.6588 144.507 45.6559C144.507 45.5611 144.495 36.4207 142.189 33.2546Z" fill="#3781FA"/>
<path d="M137.22 49.3374L136.811 40.4944C136.801 40.284 137.068 40.1832 137.204 40.3447C140.096 43.7831 141.782 45.4108 144.409 46.7052C144.47 46.7356 144.515 46.7935 144.53 46.8604C145.231 50.0667 148.126 51.7416 148.585 57.6423C148.589 57.6964 148.572 57.7518 148.539 57.7951C147.654 58.9634 147.466 60.1752 147.203 62.1927C147.182 62.3572 146.992 62.4402 146.855 62.3445C143.993 60.3344 142.536 59.6068 140.127 58.4045L139.968 58.3248C139.907 58.2946 139.863 58.2365 139.849 58.1706C138.776 52.9728 138.205 51.2189 137.246 49.4313C137.23 49.4023 137.222 49.3702 137.22 49.3374Z" fill="#91C5FF"/>
<path d="M147.819 64.4954C147.869 61.4499 148.231 60.2831 148.927 58.5389C148.98 58.406 149.143 58.3586 149.255 58.4479C150.064 59.0912 152.856 61.4995 153.889 64.8614C155.092 68.7768 156.624 74.0627 159.549 80.4901C159.594 80.5898 159.559 80.7084 159.467 80.7672L158.591 81.3211C158.492 81.3838 158.36 81.3568 158.292 81.2616C152.744 73.5134 149.198 68.7769 147.829 64.5662C147.822 64.5435 147.819 64.5193 147.819 64.4954Z" fill="#91C5FF"/>
<path d="M155.768 82.8464C151.847 74.5461 140.485 70.3509 139.889 59.5621C139.879 59.3884 140.069 59.2735 140.218 59.3637L147.058 63.4853C147.119 63.5223 147.159 63.5867 147.164 63.6581C147.41 66.8254 149.079 70.1772 157.61 81.6804C157.686 81.7822 157.662 81.93 157.555 81.9988L156.092 82.9402C155.978 83.0132 155.826 82.9681 155.768 82.8464Z" fill="#91C5FF"/>
<path d="M121.981 99.495L120.682 93.0347C120.672 92.984 120.68 92.9304 120.705 92.8851C124.523 85.9763 127.213 82.9307 132.216 78.8397C132.387 78.7 132.633 78.8692 132.56 79.0768C129.91 86.6225 126.799 91.5152 122.393 99.5547C122.295 99.735 122.022 99.6963 121.981 99.495Z" fill="#91C5FF"/>
<path d="M123.5 110.838L122.111 101.368C122.105 101.322 122.113 101.275 122.135 101.233L131.46 83.7739C131.585 83.5405 131.942 83.6849 131.867 83.9386L123.931 110.868C123.864 111.094 123.534 111.071 123.5 110.838Z" fill="#91C5FF"/>
<path d="M127.422 102.534L132.348 85.391C132.399 85.2128 132.637 85.1741 132.745 85.3248C135.177 88.7012 137.026 89.8321 137.112 98.5533C135.988 108.682 133.868 110.946 130.97 116.298C130.864 116.493 130.562 116.43 130.546 116.209C130.046 109.233 129.233 106.437 127.435 102.69C127.412 102.641 127.407 102.585 127.422 102.534Z" fill="#3781FA"/>
<path d="M133.509 113.651C137.088 109.323 137.87 97.8398 138.809 92.992C138.856 92.7498 139.156 92.7817 139.17 93.028C139.663 101.658 140.165 107.119 138.23 113.215C138.221 113.244 138.205 113.271 138.185 113.294L134.364 117.607C134.256 117.728 134.058 117.696 133.997 117.546C133.391 116.058 133.268 115.169 133.461 113.761C133.466 113.72 133.483 113.683 133.509 113.651Z" fill="#3781FA"/>
<path d="M134.145 77.2819L133.561 77.6448C133.503 77.6806 133.465 77.741 133.458 77.8083L132.818 83.9608C132.811 84.0278 132.837 84.095 132.885 84.1421C135.857 87.0389 136.41 89.6099 137.476 93.673C137.531 93.8838 137.828 93.8942 137.897 93.6875L138.861 90.8118C138.872 90.7786 138.875 90.7424 138.87 90.7079C137.864 84.2763 136.628 81.7688 134.515 77.4827L134.461 77.3728C134.403 77.256 134.256 77.2129 134.145 77.2819Z" fill="#3781FA"/>
<path d="M124.1 113.215L126.666 104.339C126.724 104.137 127.006 104.126 127.08 104.323C128.688 108.638 129.161 111.934 129.818 117.784C129.824 117.838 129.809 117.894 129.777 117.938C127.672 120.843 126.697 121.151 125.22 120.76C125.136 120.738 125.074 120.666 125.062 120.579L124.094 113.305C124.09 113.275 124.092 113.244 124.1 113.215Z" fill="#3781FA"/>
<path d="M126.065 126.923L125.132 121.771C125.106 121.629 125.223 121.502 125.368 121.508C128.612 121.64 130.057 119.437 132.315 115.562C132.426 115.371 132.723 115.442 132.74 115.661C132.835 116.908 133.029 117.603 133.418 118.42C133.45 118.487 133.447 118.565 133.408 118.629L127.562 128.352C127.483 128.484 127.296 128.496 127.2 128.377L126.109 127.021C126.086 126.992 126.071 126.959 126.065 126.923Z" fill="#3D3D3D"/>
<path d="M128.645 127.542L127.916 128.919C127.871 129.005 127.887 129.109 127.955 129.177L128.36 129.579C128.441 129.66 128.57 129.665 128.658 129.593L129.633 128.784C129.736 128.699 129.739 128.544 129.646 128.449C129.351 128.149 129.195 127.895 129.093 127.598C129.025 127.4 128.743 127.357 128.645 127.542Z" fill="#3D3D3D"/>
<path d="M129.526 125.945L133.233 120.364C133.302 120.26 133.444 120.233 133.543 120.311C135.355 121.74 134.755 123.509 133.732 126.526L133.721 126.558C133.702 126.615 133.659 126.663 133.605 126.688L130.497 128.13C130.424 128.164 130.338 128.155 130.274 128.106C129.52 127.524 129.394 127.024 129.491 126.043C129.494 126.008 129.506 125.974 129.526 125.945Z" fill="#3D3D3D"/>
<path d="M137.274 115.039L133.836 119.122C133.756 119.217 133.772 119.358 133.867 119.438C135.755 121.016 135.712 122.741 134.556 126.36C134.511 126.502 134.617 126.648 134.767 126.648H137.443C137.565 126.648 137.664 126.55 137.664 126.429V120.804V115.18C137.664 114.975 137.406 114.882 137.274 115.039Z" fill="#3D3D3D"/>
<path d="M133.307 127.667L129.051 130.206C128.985 130.245 128.944 130.317 128.944 130.394V134.596C128.944 134.638 128.956 134.679 128.979 134.714C132.932 140.959 134.854 144.773 133.696 155.9C133.692 155.933 133.696 155.966 133.707 155.997L134.282 157.631C134.348 157.817 134.609 157.827 134.689 157.646C138.685 148.703 138.667 141.415 137.679 127.842C137.671 127.727 137.574 127.636 137.459 127.636H133.42C133.38 127.636 133.341 127.647 133.307 127.667Z" fill="#3D3D3D"/>
<path d="M128.944 145.038V136.752C128.944 136.523 129.248 136.447 129.353 136.651C130.216 138.325 132.184 142.253 132.697 144.207C133.214 146.178 133.327 151.494 133.352 153.73C133.355 153.966 133.036 154.035 132.937 153.821L128.964 145.129C128.951 145.1 128.944 145.069 128.944 145.038Z" fill="#3D3D3D"/>
<path d="M134.463 160.85V159.516C134.463 159.48 134.472 159.445 134.488 159.414C138.367 151.956 139.299 146.419 139.04 135.747C139.033 135.489 139.386 135.433 139.449 135.683C141.608 144.21 140.363 150.221 138.574 160.294C138.558 160.386 138.485 160.46 138.392 160.475L134.719 161.067C134.585 161.089 134.463 160.986 134.463 160.85Z" fill="#3D3D3D"/>
<path d="M105.655 79.6259V78.841C105.655 78.6528 105.879 78.5535 106.021 78.6776C111.44 83.4083 113.765 86.7863 117.535 92.8911C117.561 92.9328 117.573 92.9826 117.567 93.0313L116.666 100.991C116.642 101.209 116.346 101.26 116.249 101.063L105.678 79.7229C105.663 79.6927 105.655 79.6595 105.655 79.6259Z" fill="#91C5FF"/>
<path d="M114.622 112.55C111.462 100.669 109.766 94.9614 107.093 85.8881C107.018 85.6322 107.379 85.4869 107.5 85.7245L116.111 102.556C116.13 102.594 116.138 102.636 116.134 102.679L115.056 112.52C115.029 112.762 114.684 112.785 114.622 112.55Z" fill="#91C5FF"/>
<path d="M99.6969 91.1582C100.023 84.9226 102.83 83.2257 104.049 77.9734C104.1 77.7535 104.42 77.7302 104.493 77.9438C105.227 80.0817 105.657 81.5152 105.655 83.9819C105.655 84.0361 105.634 84.0896 105.598 84.1299C102.867 87.1503 102.158 89.8231 101.188 94.3577C101.141 94.5767 100.833 94.5954 100.762 94.383L99.7079 91.2395C99.6992 91.2136 99.6955 91.1854 99.6969 91.1582Z" fill="#3781FA"/>
<path d="M107.665 116.783C100.538 101.767 99.506 94.4626 105.714 85.3395C105.819 85.1846 106.06 85.2237 106.108 85.4046C107.663 91.2909 108.363 95.0088 110.704 100.028C110.722 100.068 110.729 100.113 110.722 100.156L108.084 116.73C108.05 116.943 107.757 116.978 107.665 116.783Z" fill="#3781FA"/>
<path d="M108.863 118.436C109.422 111.793 110.041 108.388 110.997 102.779C111.037 102.544 111.372 102.53 111.429 102.762L114.364 114.532C114.371 114.561 114.372 114.591 114.367 114.621L113.299 120.993C113.282 121.092 113.201 121.167 113.1 121.173C111.389 121.261 110.459 120.437 108.914 118.597C108.877 118.552 108.859 118.494 108.863 118.436Z" fill="#3781FA"/>
<path d="M101.444 114.854C99.0182 107.317 98.754 102.447 99.5744 93.8418C99.5977 93.5982 99.9418 93.5686 100.004 93.8052L101.014 97.6547C101.017 97.6684 101.02 97.6832 101.021 97.6974C101.227 101.102 99.9814 100.097 104.331 112.381C104.926 114.444 104.789 115.515 104.126 117.13C104.066 117.274 103.879 117.31 103.769 117.2L101.499 114.943C101.474 114.918 101.455 114.887 101.444 114.854Z" fill="#3781FA"/>
<path d="M101.919 127.416H101.145C101.017 127.416 100.916 127.307 100.925 127.18C101.228 122.763 101.391 120.182 101.452 116.661C101.456 116.463 101.7 116.369 101.836 116.514L104.053 118.889C104.173 119.016 104.101 119.229 103.936 119.288C101.93 120.017 102.411 123.402 102.138 127.214C102.13 127.328 102.034 127.416 101.919 127.416Z" fill="#3D3D3D"/>
<path d="M103.337 121.161C102.951 122.312 102.903 126.062 102.897 126.988C102.896 127.105 102.988 127.201 103.105 127.208C105.182 127.328 106.156 127.64 107.542 128.303C107.656 128.357 107.794 128.307 107.839 128.189C108.214 127.206 108.16 126.483 107.973 125.221C107.619 122.888 106.563 121.892 105.052 120.027C105.014 119.98 104.96 119.951 104.9 119.952C104.607 119.957 103.705 120.065 103.337 121.161Z" fill="#3D3D3D"/>
<path d="M104.453 117.844C105.052 117.143 105.183 116.333 105.273 115.105C105.29 114.886 105.584 114.822 105.691 115.014C108.237 119.533 109.863 121.638 112.932 121.708C113.057 121.711 113.158 121.814 113.155 121.938C113.064 125.608 112.615 126.703 111.687 127.855C111.596 127.967 111.423 127.96 111.34 127.843L104.436 118.126C104.375 118.04 104.384 117.924 104.453 117.844Z" fill="#3D3D3D"/>
<path d="M108.383 128.663C108.763 127.775 108.855 127.056 108.862 126.035C108.864 125.811 109.163 125.725 109.28 125.917L111.005 128.748C111.042 128.808 111.047 128.881 111.02 128.946L110.61 129.926C110.558 130.049 110.408 130.098 110.292 130.029L108.473 128.944C108.377 128.886 108.34 128.766 108.383 128.663Z" fill="#3D3D3D"/>
<path d="M110.096 130.856C106.225 127.564 104.234 127.992 100.748 128.28C100.648 128.289 100.565 128.362 100.547 128.46L99.8088 132.445C99.8064 132.458 99.8051 132.472 99.8051 132.485C99.7977 143.296 99.8106 149.44 103.781 158.322C103.861 158.5 104.118 158.495 104.188 158.313L104.863 156.549C104.876 156.516 104.88 156.48 104.876 156.445C103.681 146.118 104.528 141.127 109.916 134.385C109.944 134.35 109.961 134.306 109.964 134.262L110.173 131.037C110.178 130.969 110.148 130.9 110.096 130.856Z" fill="#3D3D3D"/>
<path d="M109.534 136.051C108.615 137.656 106.477 141.5 105.876 143.549C105.146 146.035 105.204 154.194 105.213 155.1C105.213 155.1 108.856 147.39 109.297 145.744C109.655 144.411 109.868 138.404 109.936 136.164C109.943 135.938 109.647 135.855 109.534 136.051Z" fill="#3D3D3D"/>
<path d="M100.216 160.507C98.3057 150.205 97.3402 144.19 98.7062 136.356C98.7504 136.102 99.1038 136.131 99.1167 136.389C99.6956 147.955 100.392 154.316 104.293 160.175C104.317 160.211 104.33 160.253 104.33 160.297V160.864C104.33 160.994 104.216 161.096 104.086 161.082L100.41 160.687C100.313 160.676 100.234 160.602 100.216 160.507Z" fill="#3D3D3D"/>
<path d="M94.7091 46.7713C91.6299 50.4629 90.9769 53.0151 90.1074 57.6265C90.0954 57.6901 90.1124 57.7567 90.1525 57.8077C90.9222 58.7872 91.1092 59.865 91.285 61.9115C91.2949 62.0273 91.3938 62.1159 91.5106 62.11C93.8152 61.9942 95.6089 60.8713 98.714 58.8854C98.7726 58.848 98.8108 58.7834 98.816 58.7143C99.0835 55.1356 99.9415 53.6367 101.112 50.7385C101.121 50.716 101.126 50.6918 101.128 50.6677L101.648 40.6048C101.658 40.3944 101.392 40.2921 101.255 40.4528C98.5285 43.6512 97.1022 44.8836 94.7424 46.7389C94.7303 46.7484 94.7189 46.7595 94.7091 46.7713Z" fill="#91C5FF"/>
<path d="M91.2728 63.1379C89.5869 71.1657 86.5768 74.9934 81.2986 81.681C81.2185 81.7826 81.2419 81.9324 81.3509 82.0025L82.796 82.9322C82.9136 83.0079 83.0746 82.949 83.1259 82.8193C88.5761 69.0358 95.8001 75.0627 98.1824 60.1803C98.2119 59.9964 98.0133 59.8522 97.8555 59.9524C95.8198 61.2453 94.9237 62.2078 91.4455 62.965C91.3598 62.9836 91.2907 63.0526 91.2728 63.1379Z" fill="#91C5FF"/>
<path d="M80.1896 81.1722L79.3066 80.4539C79.2228 80.3857 79.2021 80.2654 79.2564 80.1721C81.749 75.8911 82.7328 73.8347 83.6826 70.9095C83.6852 70.9015 83.6873 70.8936 83.689 70.8854C83.7369 70.6495 84.4914 66.9744 85.4525 64.5321C86.2754 62.4412 88.6888 59.8984 89.493 59.0872C89.6112 58.9679 89.8111 59.028 89.8509 59.1907C91.8574 67.3924 86.5334 72.4607 80.5125 81.1253C80.4391 81.2309 80.2895 81.2535 80.1896 81.1722Z" fill="#91C5FF"/>
<path d="M102.112 38.5356C99.3072 41.8531 97.6252 43.475 94.7159 45.7354C94.5776 45.8429 94.377 45.7562 94.3678 45.5819C94.2687 43.709 94.0494 35.8311 97.1523 33.0351C100.205 30.2844 104.494 30.1571 105.602 30.1732C105.743 30.1752 105.836 30.3085 105.798 30.4427C104.981 33.2951 104.189 35.1243 102.132 38.5076C102.126 38.5173 102.119 38.527 102.112 38.5356Z" fill="#3781FA"/>
<path d="M102.344 46.8142V42.2368C102.344 42.0173 102.632 41.9337 102.751 42.1188L105.99 47.1736C106.111 47.362 105.906 47.5833 105.707 47.4812C104.777 47.0065 104.141 46.7699 102.609 47.0323C102.472 47.0557 102.344 46.9523 102.344 46.8142Z" fill="#3781FA"/>
<path fill-rule="evenodd" clip-rule="evenodd" d="M127.616 11.1958C127.495 11.1958 127.395 11.0975 127.395 10.9763C127.395 11.0975 127.494 11.1958 127.616 11.1958ZM113.602 17.2754C113.602 17.2485 113.587 17.2236 113.564 17.2102C113.539 17.196 113.515 17.1816 113.491 17.1672L113.602 17.2754ZM125.346 16.6322C125.315 16.6653 125.295 16.7072 125.289 16.7522C125.295 16.7072 125.315 16.6646 125.346 16.6314C125.346 16.6317 125.346 16.6319 125.346 16.6322Z" fill="#3D3D3D"/>
<path fill-rule="evenodd" clip-rule="evenodd" d="M80.8651 84.7499C80.9051 84.67 80.8857 84.5743 80.8222 84.5112C80.8856 84.5743 80.9052 84.67 80.8651 84.7499ZM80.4402 84.4196C80.5283 84.3446 80.6594 84.3493 80.7414 84.4309C80.6595 84.3494 80.5282 84.3447 80.4402 84.4196Z" fill="#3D3D3D"/>
<path fill-rule="evenodd" clip-rule="evenodd" d="M163.478 83.9502L163.488 83.9571L163.497 83.9624C163.494 83.9607 163.491 83.9588 163.488 83.9571C163.484 83.9549 163.482 83.9528 163.478 83.9502ZM158.917 84.9052C158.876 84.8606 158.817 84.8344 158.757 84.8443C158.756 84.8444 158.756 84.8445 158.756 84.8445C158.817 84.8343 158.875 84.8602 158.917 84.9052ZM160.577 86.891C160.604 86.91 160.618 86.9202 160.618 86.9202L160.669 86.9282C160.635 86.9229 160.605 86.9109 160.577 86.891ZM169.437 94.5872L169.448 94.6024C169.448 94.6024 169.453 94.6072 169.462 94.6159C169.458 94.6123 169.455 94.6086 169.451 94.6048C169.447 94.5995 169.442 94.593 169.437 94.5872ZM162.118 93.0597L162.053 92.9562H161.93C162.007 92.9562 162.077 92.9954 162.118 93.0597ZM159.131 92.6354L159.073 92.5173C159.073 92.5173 159.011 92.5173 158.937 92.5335C159.019 92.5156 159.094 92.5604 159.131 92.6354ZM158.536 93.024C158.526 93.05 158.521 93.066 158.521 93.066L158.524 93.1097C158.522 93.0804 158.526 93.0516 158.536 93.024Z" fill="#3D3D3D"/>
<path d="M93.7344 175.265C93.2929 176.473 99.3093 178.108 101.24 178.558C103.157 179.004 105.683 169.261 104.36 162.14C104.342 162.047 104.267 161.978 104.173 161.965L100.478 161.469C100.352 161.452 100.238 161.541 100.225 161.667C99.6511 167.076 94.1697 174.075 93.7344 175.265Z" fill="#3D3D3D"/>
<path d="M145.276 175.265C145.607 174.168 138.985 164.73 138.547 164.071C138.209 163.562 138.193 162.267 138.204 161.705C138.206 161.566 138.083 161.456 137.945 161.477L134.645 161.96C134.539 161.975 134.46 162.057 134.457 162.163C134.403 163.67 134.03 174.332 134.238 175.046C134.463 175.814 136.887 178.887 137.881 178.997C138.874 179.107 144.945 176.363 145.276 175.265Z" fill="#3D3D3D"/>
<path d="M169.448 88.8957C169.448 88.7859 166.247 85.3838 165.916 85.2741C165.598 85.1685 163.647 84.0487 163.497 83.9624L163.488 83.9571L163.478 83.9502L160.742 81.9618C160.667 81.9077 160.567 81.9053 160.49 81.9556L156.529 84.5465C156.464 84.5893 156.426 84.6633 156.43 84.741L156.754 91.0741C156.755 91.085 156.756 91.096 156.758 91.1067L157.952 96.9346C157.963 96.9875 157.993 97.0347 158.037 97.0669L158.399 97.335C158.409 97.3424 158.42 97.3489 158.431 97.3538C158.484 97.3768 158.65 97.4374 158.742 97.3461C158.845 97.2429 158.559 93.5543 158.524 93.1097L158.521 93.066C158.521 93.066 158.526 93.05 158.536 93.024C158.57 92.9317 158.656 92.7126 158.742 92.627C158.794 92.5753 158.87 92.5479 158.937 92.5335C159.011 92.5173 159.073 92.5173 159.073 92.5173L159.131 92.6354C159.592 93.5644 162.613 99.6591 162.715 99.7605C162.826 99.8702 163.046 99.8702 163.157 99.7605C163.267 99.6507 163.377 99.541 163.377 99.4312C163.377 99.3215 161.832 94.5366 161.832 94.2732C161.832 94.0232 161.766 93.8194 161.728 93.7367C161.724 93.7284 161.719 93.7209 161.714 93.7132C161.676 93.6547 161.501 93.3832 161.501 93.2855C161.501 93.1757 161.722 92.9562 161.832 92.9562H161.93H162.053L162.118 93.0597L165.648 98.6974C165.678 98.7457 165.726 98.7805 165.782 98.7932C165.922 98.8249 166.198 98.8825 166.358 98.8825C166.578 98.8825 166.689 98.9923 166.799 98.8825C166.897 98.7854 166.822 98.4302 166.803 98.35C166.8 98.339 166.798 98.3306 166.793 98.3202C166.658 97.9993 164.153 92.0723 164.26 91.8588C164.371 91.6393 164.481 91.6393 164.702 91.6393C164.923 91.6393 169.227 95.6999 169.448 95.6999C169.669 95.6999 170 95.3707 170 95.2609C170 95.1614 169.546 94.7009 169.462 94.6159C169.453 94.6072 169.448 94.6024 169.448 94.6024L169.437 94.5872C168.22 92.8628 165.783 89.4222 165.695 89.3346C165.607 89.2468 165.254 87.7982 165.033 87.6885C164.827 87.5858 161.146 87.0034 160.669 86.9282L160.618 86.9202C160.618 86.9202 160.604 86.91 160.577 86.891C160.268 86.6695 158.309 85.2567 158.414 85.0546C158.488 84.9121 158.651 84.8621 158.756 84.8445C158.756 84.8445 158.756 84.8444 158.757 84.8443C158.817 84.8344 158.876 84.8606 158.917 84.9052C159.174 85.1793 160.112 86.1673 160.397 86.2618C160.728 86.3715 163.488 86.9202 164.04 86.9202C164.592 86.9202 169.007 89.2249 169.227 89.1151C169.448 89.0054 169.448 89.0054 169.448 88.8957Z" fill="#3D3D3D"/>
<path d="M70.6623 89.5541C70.883 89.6639 74.9669 86.9202 75.4084 86.7007C75.8499 86.4812 78.0574 86.152 78.4989 85.9325C78.8576 85.7542 80.0176 84.7791 80.4402 84.4196C80.5283 84.3446 80.6594 84.3493 80.7414 84.4309L80.8222 84.5112C80.8856 84.5743 80.9052 84.67 80.8651 84.7499C79.8963 86.6846 76.3675 87.0314 74.7129 87.5538C74.6622 87.5698 74.6232 87.5998 74.5962 87.6453C74.1454 88.4032 70 95.3766 70 95.4804C70 95.5901 70.3532 95.8974 70.4415 95.8096C70.5298 95.7218 75.4084 90.4321 75.5188 90.4321C75.6291 90.4321 75.7395 90.5418 75.7395 90.6516C75.7395 90.7571 72.7832 96.8428 72.5528 97.3168C72.5424 97.3383 72.5371 97.3579 72.5344 97.3816C72.5152 97.5471 72.4416 98.2373 72.5386 98.3338C72.6165 98.4113 72.8044 98.3794 72.9082 98.3539C72.9553 98.3423 72.9925 98.3156 73.0198 98.2756C73.4707 97.6142 77.6219 91.5295 77.7263 91.5295C77.8366 91.5295 77.947 91.6393 77.947 91.749C77.947 91.8313 77.0157 95.6793 76.5501 97.5982C76.3962 98.2324 76.2931 98.6559 76.2914 98.663C76.2872 98.68 76.1832 99.1042 76.2914 99.2118C76.4018 99.3215 76.5121 99.4312 76.6225 99.4312H76.9536C77.0606 99.4312 77.3747 98.6073 77.3942 98.5558L77.3946 98.5546L77.3951 98.5533C77.417 98.4993 80.155 91.749 80.2649 91.749H80.596C80.7064 91.749 80.7064 92.188 80.7064 92.188V92.6093C80.7064 92.6211 80.7074 92.6329 80.7093 92.6445L81.4489 97.1618C81.4663 97.2681 81.5585 97.3461 81.6667 97.3461H81.8024C81.8762 97.3461 81.9451 97.3094 81.9861 97.2483L82.1042 97.0721C82.1284 97.0361 82.1413 96.9937 82.1413 96.9504V96.6876C82.0365 91.2596 82.2894 88.5926 82.7894 83.9778C82.798 83.8981 82.7624 83.8189 82.6963 83.773L79.2818 81.4068C79.2087 81.3562 79.1137 81.353 79.039 81.4013C75.3164 83.811 70.4439 89.4456 70.6623 89.5541Z" fill="#3D3D3D"/>
<path d="M111.501 10.4276C111.391 10.5373 110.949 10.8665 110.839 11.1958C110.738 11.4968 110.822 12.8069 110.837 13.0293C110.838 13.0511 110.843 13.0722 110.851 13.0925C111.643 15.1278 112.085 16.328 113.491 17.1672C113.515 17.1816 113.539 17.196 113.564 17.2102C113.587 17.2236 113.602 17.2485 113.602 17.2754V17.3597V19.3409C113.602 19.3961 113.624 19.45 113.661 19.4904C115.523 21.4802 116.734 22.0051 118.955 22.4885C118.959 22.4893 118.964 22.4902 118.968 22.4908C118.998 22.4954 119.028 22.4941 119.057 22.4868L119.088 22.4791C121.186 21.9506 122.397 21.6458 124.784 19.9213C124.832 19.8863 124.865 19.8323 124.873 19.7733L125.289 16.7522C125.295 16.7072 125.315 16.6653 125.346 16.6322C125.346 16.6319 125.346 16.6317 125.346 16.6314C127.211 14.639 127.878 13.4568 127.843 11.4069C127.841 11.289 127.743 11.1958 127.624 11.1958H127.616C127.495 11.1958 127.395 11.0975 127.395 10.9763V5.08202C127.395 5.0608 127.393 5.04291 127.386 5.02273C127.255 4.61995 125.586 -0.103342 119.669 0.00172674C113.811 0.105738 111.621 4.74425 111.408 5.22872C111.396 5.2575 111.391 5.2835 111.393 5.31487C111.414 5.81716 111.605 10.3239 111.501 10.4276Z" fill="#3D3D3D"/>
<path d="M119.322 23.2663C116.765 23.0649 115.825 22.3162 114.411 21.0685C114.269 20.9431 114.044 21.0427 114.044 21.232V23.2308C114.044 23.2553 114.048 23.2796 114.056 23.3027L118.695 36.6159C118.763 36.8115 119.04 36.8116 119.111 36.6171L119.119 36.5929C121.072 31.1199 122.143 27.6903 124.828 23.3211C124.849 23.2865 124.86 23.2464 124.86 23.2059V21.1967C124.86 21.0133 124.646 20.9111 124.5 21.0228C122.303 22.7002 121.159 23.0971 119.361 23.266L119.342 23.2678L119.322 23.2663Z" fill="#3D3D3D"/>
<path d="M113.386 24.7298C112.301 27.0484 111.315 28.1835 109.68 29.0311C109.455 29.148 109.551 29.5514 109.805 29.5386C112.081 29.4246 113.66 29.5309 115.643 30.3059C115.826 30.3778 116.013 30.1962 115.939 30.0141L113.797 24.7371C113.724 24.5572 113.468 24.5539 113.386 24.7298Z" fill="#3D3D3D"/>
<path d="M124.592 24.8099L122.154 29.8444C122.081 29.9955 122.198 30.169 122.366 30.1587L129.649 29.7117C129.897 29.6965 129.936 29.3426 129.7 29.2678C127.271 28.4995 125.841 27.6371 125.02 24.8514C124.961 24.6534 124.682 24.624 124.592 24.8099Z" fill="#3D3D3D"/>
</svg>
