<svg width="167" height="139" viewBox="0 0 167 139" fill="none" xmlns="http://www.w3.org/2000/svg">
<path d="M27.2961 88.0547L27.2888 87.9744C27.2888 87.9744 32.4334 92.8894 33.6277 94.0726C34.8219 95.2558 36.9349 100.353 36.9349 100.353C33.0161 98.7638 30.8488 98.8704 27.0132 99.8977C27.9343 95.0927 27.7036 92.5485 27.2961 88.0547Z" fill="#3D3D3D"/>
<path d="M39.4153 78.3266C35.3057 83.3925 34.7663 86.5895 32.709 92.0702C35.4332 94.8998 36.2957 96.9564 37.578 100.808C38.6689 101.436 39.1365 102.252 39.9665 103.72V78.8727L39.4153 78.3266Z" fill="#3D3D3D"/>
<path d="M25.1758 77.0524L25.6352 73.5027C28.5196 74.2018 30.4783 74.3249 35.2813 73.5027L39.0478 77.8715C35.4604 82.0595 33.833 83.0328 31.331 83.3326C28.9832 82.9562 27.8878 82.3467 26.2783 80.6931L25.1758 77.0524Z" fill="#3D3D3D"/>
<path d="M29.8611 60.6693L27.2888 61.2154L30.4123 64.3099L31.331 67.7686L39.9665 77.8715V63.5818C39.4439 61.856 38.8005 61.2892 37.3024 60.6693H29.8611Z" fill="#3D3D3D"/>
<path d="M43.09 60.6693C41.6493 61.6698 41.0698 62.3021 40.5177 63.5818V78.3266L47.4997 70.1351C48.927 68.317 49.1758 67.1487 49.5207 65.0381C50.6328 62.6401 51.4849 61.7461 53.5629 61.2154L43.09 60.6693Z" fill="#3D3D3D"/>
<path d="M40.5177 61.8525V59.213C41.0155 59.8814 41.3447 60.1836 42.1713 60.3962C41.3292 60.8927 41.0226 61.2322 40.5177 61.8525Z" fill="#3D3D3D"/>
<path d="M39.9665 61.8525V59.213C39.3703 59.7781 38.9445 60.0449 37.9454 60.3962C38.7773 60.8643 39.2275 61.1713 39.9665 61.8525Z" fill="#3D3D3D"/>
<path d="M39.9665 57.7567V48.1999C37.461 48.8659 36.7397 50.4965 35.0975 52.7508C34.7121 55.6325 35.6092 57.214 31.331 60.2142H36.5674C38.4791 59.8325 39.1984 59.293 39.9665 57.7567Z" fill="#3D3D3D"/>
<path d="M40.5177 57.7567V48.1999C42.3706 49.5217 43.0349 50.6709 44.1924 52.7508C44.1365 56.6787 45.0905 58.1775 47.6834 60.2142H42.8144C41.1583 59.4262 40.8632 58.8407 40.5177 57.7567Z" fill="#3D3D3D"/>
<path d="M40.0584 47.6538C37.3142 48.1328 36.5902 49.64 35.0975 52.0226C33.961 50.7453 33.7943 50.0951 33.4439 48.928V46.9257L33.9033 46.8346C33.9033 46.8346 32.1578 38.279 40.0584 38.006C47.959 37.7329 46.3054 46.9257 46.3054 46.9257H46.581V48.928L46.0298 50.4753C45.4202 50.749 45.1477 50.9203 44.9274 51.2945L44.5599 52.2047C42.845 49.0486 41.8567 48.1391 40.0584 47.6538Z" fill="#3D3D3D"/>
<path d="M30.4123 66.8584C28.838 69.2157 27.6719 69.7654 25.6352 70.8632V72.7745C26.8974 73.2229 27.657 73.4081 29.218 73.5027L29.227 73.5021C31.5784 73.3518 32.8982 73.2674 34.9138 72.7745C32.6842 70.6668 31.8448 69.3085 30.4123 66.8584Z" fill="#3D3D3D"/>
<path d="M18.837 65.4021C17.779 67.4792 17.4165 68.9308 17.6427 72.5925C21.6355 71.8959 23.8236 71.3761 28.1156 68.5877C29.9047 67.1447 29.9148 66.354 29.7692 64.9471C28.9565 62.8125 27.8448 62.4217 26.2783 61.2154C22.9982 61.8984 21.3566 62.7706 18.837 65.4021Z" fill="#3D3D3D"/>
<path d="M16.1728 78.3266L17.3671 73.0476C19.7722 72.955 21.1171 72.619 23.5222 71.6823C21.5222 75.3205 19.7199 76.5432 16.1728 78.3266Z" fill="#3D3D3D"/>
<path d="M24.2572 71.5003C23.6687 72.9059 23.1598 73.7498 21.7767 75.414C21.5154 78.8729 21.9803 79.4241 22.6036 80.8751C23.3403 78.997 23.782 77.9975 24.8084 76.6883C25.0271 74.4527 25.112 73.2152 25.1758 71.0452L24.2572 71.5003Z" fill="#3D3D3D"/>
<path d="M22.3279 81.6032C21.2158 79.42 21.2503 78.1749 21.1337 75.9601C18.8143 77.7351 17.711 78.3219 15.8972 79.0547C15.8972 79.0547 13.0493 84.6978 13.1412 84.9709C13.2331 85.2439 15.4379 87.5193 15.6216 87.6104C15.8053 87.7014 19.48 88.1565 19.6638 87.9744C19.8475 87.7924 22.3279 81.6032 22.3279 81.6032Z" fill="#3D3D3D"/>
<path d="M15.6216 88.3385L12.9574 85.517C8.38068 93.6451 7.48522 98.3346 5.05682 106.633C5.05682 106.633 6.06736 107.816 6.5267 107.998C6.98604 108.18 8.54779 108.544 8.54779 108.544C11.2119 100.626 17.7175 96.3365 19.48 88.5205L15.6216 88.3385Z" fill="#3D3D3D"/>
<path d="M41.4364 78.3266L40.5177 79.1457V103.72C41.1686 102.257 41.6694 101.561 42.9063 100.626C43.8042 95.6791 45.1343 93.5995 48.6939 90.887L41.4364 78.3266Z" fill="#3D3D3D"/>
<path d="M49.2451 90.6139L44.1005 81.6032C46.0282 82.8812 47.0927 83.6543 49.4289 83.4236C51.7229 82.8138 52.4336 82.0394 53.7466 80.6931L52.2768 88.7026L49.2451 90.6139Z" fill="#3D3D3D"/>
<path d="M36.5674 81.6032C34.3529 85.0731 33.5899 87.4808 32.1578 91.7061C29.8859 89.1368 28.8128 88.2984 27.0132 87.1553L26.2783 81.6032C28.4867 83.5257 29.5169 83.6576 31.331 83.7876C33.1927 83.6923 34.2592 83.5459 36.5674 81.6032Z" fill="#3D3D3D"/>
<path d="M52.2768 89.3397C45.6209 92.6762 43.9331 96.7121 43.6412 100.353C45.3085 99.524 44.8431 98.875 52.2768 98.8055V89.3397Z" fill="#3D3D3D"/>
<path d="M45.4785 73.5027L41.712 77.8715C45.0841 82.1826 46.7384 82.8737 49.5207 82.8775C51.6319 81.8632 52.649 81.0612 54.1141 79.1457L54.3897 77.0524C53.5949 75.7781 53.548 74.8493 53.5629 73.1386C49.7592 74.6318 48.3755 73.9039 45.4785 73.5027Z" fill="#3D3D3D"/>
<path d="M49.5207 66.8584C49.1464 69.9743 47.7208 70.9058 46.0298 73.1386L50.9906 73.3206C51.9763 73.2347 52.5564 73.2806 53.2873 72.3195L53.1954 69.953C51.3213 68.9322 50.7201 68.1678 49.5207 66.8584Z" fill="#3D3D3D"/>
<path d="M54.849 70.5901L53.7466 70.1351L54.1141 74.5039C54.6468 76.968 55.1865 78.3204 56.5027 80.6931C57.4543 79.0253 57.8178 78.016 57.8807 75.9601C56.6843 74.5314 56.0209 73.4608 54.849 70.5901Z" fill="#3D3D3D"/>
<path d="M55.8325 71.0189L55.7677 70.8632L61.4635 72.3195C61.5295 74.7238 61.7518 76.0459 62.7497 78.3266C58.2904 76.9322 57.3946 74.7772 55.8325 71.0189Z" fill="#3D3D3D"/>
<path d="M54.4059 61.2212L54.3897 61.2154L54.3281 61.2414C51.9979 62.2269 50.6723 62.7874 49.9801 65.6752C50.4847 67.0865 51.1997 67.751 52.7361 68.8608C56.1832 70.568 58.0923 71.0706 61.4635 71.5003C61.2206 68.2365 60.7211 66.5539 58.8912 63.9459C57.6717 62.4039 56.495 61.9777 54.4059 61.2212Z" fill="#3D3D3D"/>
<path d="M58.4319 76.6883C58.1939 78.7589 57.7028 79.7873 56.7783 81.6032L59.9018 88.5205C61.1859 88.434 61.9063 88.3659 63.209 87.9744C64.4399 87.4004 64.8963 86.9155 65.5975 85.972L62.7497 79.1457C61.0702 78.6684 60.1258 78.2813 58.4319 76.6883Z" fill="#3D3D3D"/>
<path d="M60.2692 92.6163C59.718 91.16 60.2692 89.0666 60.2692 89.0666L63.6683 88.5205L65.965 86.6092C69.545 94.628 71.4004 99.1097 73.59 106.997C73.59 106.997 72.5795 107.998 71.8445 108.453C71.1096 108.908 69.6397 108.908 69.6397 108.908C66.3764 101.437 60.8204 94.0726 60.2692 92.6163Z" fill="#3D3D3D"/>
<path d="M42.1713 123.835L41.5282 118.738C43.9291 120.144 45.3985 120.698 47.8671 121.196C48.2425 128.636 48.8758 131.964 50.6231 136.669C51.958 143.858 50.6986 145.082 49.337 148.501L48.9695 147.864C48.251 137.978 47.2079 132.601 42.1713 123.835Z" fill="#3781FA"/>
<path d="M48.4183 146.316L42.1713 125.018C42.1713 125.018 45.846 133.483 46.3054 134.939C46.7647 136.396 48.4183 146.316 48.4183 146.316Z" fill="#91C5FF"/>
<path d="M53.5629 121.196H48.4183C49.1699 130.707 49.3901 136.09 56.4108 144.041L55.7677 132.755C53.715 127.505 53.8382 125.348 53.5629 121.196Z" fill="#3781FA"/>
<path d="M54.2978 122.561C54.2978 119.83 55.7677 116.281 55.7677 116.281V123.835V131.39C55.7677 131.39 54.2978 125.291 54.2978 122.561Z" fill="#91C5FF"/>
<path d="M51.5418 138.671C52.2428 142.587 51.6031 143.614 50.9906 146.043L52.4605 145.679C52.4605 145.679 52.9198 144.496 53.3792 144.041C53.8385 143.586 55.0328 143.586 55.0328 143.586C52.9298 141.65 52.5137 140.582 51.5418 138.671Z" fill="#3D3D3D"/>
<path d="M52.093 146.316C50.3245 147.332 50.1989 147.995 49.6126 149.138C50.2377 152.062 50.519 153.919 50.715 158.24C50.9627 160.687 51.5606 161.877 52.4605 164.065C52.4605 164.065 55.8596 162.973 56.4108 159.605C56.962 156.237 52.093 146.316 52.093 146.316Z" fill="#3D3D3D"/>
<path d="M52.093 146.316C50.3245 147.332 50.1989 147.995 49.6126 149.138C50.2377 152.062 50.519 153.919 50.715 158.24C50.9627 160.687 51.5606 161.877 52.4605 164.065C52.4605 164.065 55.8596 162.973 56.4108 159.605C56.962 156.237 52.093 146.316 52.093 146.316Z" fill="#3781FA"/>
<path d="M54.1141 144.314C53.1954 144.587 53.1036 146.043 53.1036 146.043C54.6355 149.741 55.5293 149.717 56.962 159.241C57.812 160.915 60.0448 161.896 60.2692 161.152C60.453 156.146 56.4108 145.133 56.4108 145.133C56.4108 145.133 55.0328 144.041 54.1141 144.314Z" fill="#3D3D3D"/>
<path d="M54.1141 144.314C53.1954 144.587 53.1036 146.043 53.1036 146.043C54.6355 149.741 55.5293 149.717 56.962 159.241C57.812 160.915 60.0448 161.896 60.2692 161.152C60.453 156.146 56.4108 145.133 56.4108 145.133C56.4108 145.133 55.0328 144.041 54.1141 144.314Z" fill="#3781FA"/>
<path d="M52.4605 164.702C54.7043 164.202 55.6373 163.069 56.962 160.151C57.843 161.253 58.394 161.828 60.2692 162.153C59.1464 169.059 58.9941 173.145 59.3506 180.721L59.9936 180.903C59.5337 174.572 59.3438 171.07 60.6367 165.976C61.0252 175.923 62.785 185.18 59.3506 186C56.9863 185.671 56.2375 183.911 55.1246 180.175C54.8185 177.211 54.9207 175.807 56.4108 174.532C57.203 176.103 57.4211 177.643 57.6969 180.721C57.7704 181.012 58.095 180.842 58.2481 180.721C57.2008 171.934 55.2398 169.875 52.4605 164.702Z" fill="#3D3D3D"/>
<path d="M52.4605 164.702C54.7043 164.202 55.6373 163.069 56.962 160.151C57.843 161.253 58.394 161.828 60.2692 162.153C59.1464 169.059 58.9941 173.145 59.3506 180.721L59.9936 180.903C59.5337 174.572 59.3438 171.07 60.6367 165.976C61.0252 175.923 62.785 185.18 59.3506 186C56.9863 185.671 56.2375 183.911 55.1246 180.175C54.8185 177.211 54.9207 175.807 56.4108 174.532C57.203 176.103 57.4211 177.643 57.6969 180.721C57.7704 181.012 58.095 180.842 58.2481 180.721C57.2008 171.934 55.2398 169.875 52.4605 164.702Z" fill="#3781FA"/>
<path d="M23.7978 131.754V124.017V116.281C23.7978 116.281 25.6046 121.056 25.5433 123.835C25.4821 126.614 23.986 131.895 23.7978 131.754Z" fill="#91C5FF"/>
<path d="M23.2466 143.586C28.9251 141.806 29.9111 134.173 31.7903 120.923L25.9108 121.196C25.9108 121.196 26.1864 127.203 25.5433 128.75C24.9002 130.297 23.6141 132.937 23.6141 132.937L23.2466 143.586Z" fill="#3781FA"/>
<path d="M27.3806 144.587C26.8709 143.65 26.2868 143.463 25.084 143.313C26.4288 142.125 26.8615 142.824 29.0343 138.125C28.6284 140.444 28.4789 141.784 29.0343 144.587C28.1945 144.122 27.8657 144.199 27.3806 144.587Z" fill="#3D3D3D"/>
<path d="M39.1397 118.374C36.4271 120.439 35.0041 120.477 32.4334 120.923C31.6668 125.93 31.3113 128.68 30.1367 133.392C28.3289 141.698 29.269 143.634 30.7797 147.318L31.4228 146.043C32.8932 136.592 32.5882 131.115 38.4966 123.016L39.1397 118.374Z" fill="#3781FA"/>
<path d="M38.0373 126.475C38.0373 126.475 34.8219 134.211 34.6382 134.939C34.4544 135.667 32.1387 144.314 32.1387 144.314C32.1387 144.314 33.5358 134.939 34.087 133.847C34.6382 132.755 38.0373 124.29 38.0373 124.29V126.475Z" fill="#91C5FF"/>
<path d="M22.971 146.043V144.587C22.971 144.587 25.3596 143.768 26.0945 144.041C26.8294 144.314 26.8294 145.679 26.8294 145.679L25.3596 149.593C23.69 152.996 23.6897 155.187 22.971 158.877C21.2604 161.578 20.3298 161.144 18.6532 161.516C18.932 153.283 20.5131 150.885 22.971 146.043Z" fill="#3D3D3D"/>
<path d="M22.971 146.043V144.587C22.971 144.587 25.3596 143.768 26.0945 144.041C26.8294 144.314 26.8294 145.679 26.8294 145.679L25.3596 149.593C23.69 152.996 23.6897 155.187 22.971 158.877C21.2604 161.578 20.3298 161.144 18.6532 161.516C18.932 153.283 20.5131 150.885 22.971 146.043Z" fill="#3781FA"/>
<path d="M18.6532 162.7V162.153C20.2371 161.644 20.551 162.493 23.3385 159.605C24.089 161.962 24.8345 162.813 26.6457 163.61L23.7059 171.073C22.0628 174.38 21.3569 176.388 21.1336 180.721H21.8686C21.7738 177.826 21.7791 176.245 22.971 174.259C24.2067 176.66 24.5537 178.063 24.2571 180.721C22.9195 183.866 22.0285 185.231 19.8475 186C18.1534 185.601 17.7657 184.874 17.7345 182.996L18.3776 163.61C19.0349 164.783 19.5254 165.123 19.3882 168.343L19.1126 180.175H19.8475L19.8512 180.071C20.0287 175.031 20.1293 172.177 19.8475 165.339C19.5846 164.225 19.3511 163.637 18.6532 162.7Z" fill="#3D3D3D"/>
<path d="M18.6532 162.7V162.153C20.2371 161.644 20.551 162.493 23.3385 159.605C24.089 161.962 24.8345 162.813 26.6457 163.61L23.7059 171.073C22.0628 174.38 21.3569 176.388 21.1336 180.721H21.8686C21.7738 177.826 21.7791 176.245 22.971 174.259C24.2067 176.66 24.5537 178.063 24.2571 180.721C22.9195 183.866 22.0285 185.231 19.8475 186C18.1534 185.601 17.7657 184.874 17.7345 182.996L18.3776 163.61C19.0349 164.783 19.5254 165.123 19.3882 168.343L19.1126 180.175H19.8475L19.8512 180.071C20.0287 175.031 20.1293 172.177 19.8475 165.339C19.5846 164.225 19.3511 163.637 18.6532 162.7Z" fill="#3781FA"/>
<path d="M23.7059 159.605C24.2864 153.042 25.3804 150.374 27.3806 145.679L27.6562 145.133C27.6562 145.133 27.84 144.86 28.1156 144.769C28.3912 144.678 29.0343 145.133 29.0343 145.133L30.5041 147.864C29.2735 150.567 29.4936 156.328 29.0343 157.603C28.5749 158.877 26.8294 163.155 26.8294 163.155C24.7812 162.487 24.5159 161.347 23.7059 159.605Z" fill="#3D3D3D"/>
<path d="M23.7059 159.605C24.2864 153.042 25.3804 150.374 27.3806 145.679L27.6562 145.133C27.6562 145.133 27.84 144.86 28.1156 144.769C28.3912 144.678 29.0343 145.133 29.0343 145.133L30.5041 147.864C29.2735 150.567 29.4936 156.328 29.0343 157.603C28.5749 158.877 26.8294 163.155 26.8294 163.155C24.7812 162.487 24.5159 161.347 23.7059 159.605Z" fill="#3781FA"/>
<path d="M4.59748 107.27C1.36057 110.257 -0.0877645 114.733 0.0041031 114.825C0.0959707 114.916 0.279706 114.825 0.279706 114.825L2.02519 112.913V113.459L1.47398 115.098L0.279706 119.284C0.279706 119.284 0.0041031 119.648 0.0041031 119.739C0.0041031 119.83 0.279706 119.739 0.279706 119.739L0.739044 119.466L1.29025 118.101L2.48453 115.462C2.48453 115.462 2.66826 115.371 2.852 115.371C3.03573 115.371 3.03573 115.644 3.03573 115.644L2.852 116.372L2.02519 121.105C2.02519 121.105 2.20892 121.469 2.30079 121.378C2.39266 121.287 2.66826 120.741 2.66826 120.741L2.852 120.286L4.13814 116.008C4.13814 116.008 4.32188 115.917 4.41375 116.008C4.50561 116.099 4.41375 116.736 4.41375 116.736C4.41375 116.736 4.32188 121.651 4.41375 121.742C4.50561 121.833 4.78122 121.924 4.87308 121.742C4.96495 121.56 5.05682 120.741 5.05682 120.741L5.24055 119.466L5.51616 117.828L5.79176 116.736C5.79176 116.736 5.79176 116.372 5.9755 116.372C6.15923 116.372 6.06736 116.554 6.06736 116.554L6.2511 117.1L6.5267 119.739C6.5267 119.739 6.61857 120.65 6.71044 120.741C6.8023 120.832 6.98604 120.832 7.16977 120.741C7.35351 120.65 7.35351 120.104 7.35351 120.104L7.44538 119.375C7.38709 115.116 8.73152 113.186 8.54779 109.272C6.77902 108.821 5.96164 108.312 4.59748 107.27Z" fill="#3D3D3D"/>
<path d="M73.7738 107.634C72.0892 109.462 71.2255 109.366 69.6397 109.819C69.3234 114.033 71.0743 118.71 71.1096 119.375C71.1449 120.04 71.2131 120.331 71.3852 120.741C71.3852 120.741 71.5689 120.832 71.6608 120.741C71.7527 120.65 71.6608 120.286 71.6608 120.286L71.8445 119.193V117.282L72.0283 116.554H72.3039C72.4876 116.645 73.7738 121.56 73.7738 121.56H74.1412C74.1412 121.56 74.325 121.742 74.5087 121.56C74.6924 121.378 73.7738 117.1 73.7738 117.1V116.554C73.7738 116.554 73.9575 116.19 74.1412 116.19C74.325 116.19 76.7135 121.287 76.9891 121.287C77.2647 121.287 77.1729 121.014 77.1729 121.014L75.4274 116.19C75.4274 116.19 75.2436 115.735 75.4274 115.644C75.6111 115.553 75.703 115.644 75.703 115.644L78.3671 119.193C78.3671 119.193 78.7346 119.284 78.9183 119.193C79.1021 119.102 78.9183 118.829 78.9183 118.829L76.0705 113.732C76.0705 113.732 75.703 113.55 75.703 113.277C75.703 113.004 76.0705 112.913 76.0705 112.913C76.0705 112.913 78.7346 114.278 78.9183 114.187C79.1021 114.096 78.9183 113.914 78.9183 113.914L73.7738 107.634Z" fill="#3D3D3D"/>
<path d="M40.5177 104.813C42.6759 101.903 42.7482 99.6717 50.1638 99.5336L50.4394 99.8977C50.9457 106.345 52.574 109.61 55.4617 115.401L55.4921 115.462C54.4583 117.242 54.2609 118.43 53.9304 120.559C46.2929 121.267 44.0994 119.718 40.5177 116.645V104.813Z" fill="#91C5FF"/>
<path d="M28.9424 100.171L27.4725 107.27L23.7978 115.462C25.3205 117.415 25.5066 118.545 25.9108 120.559C33.431 120.409 37.1486 119.986 39.9665 116.645V104.813C38.6732 102.54 37.5495 101.609 35.2813 100.171C32.281 99.7088 30.8899 99.7061 28.9424 100.171Z" fill="#91C5FF"/>
<path d="M26.7376 100.626L28.4831 100.171L27.2888 105.723L23.7978 114.005L25.5433 105.723L26.7376 100.626Z" fill="#91C5FF"/>
<path d="M50.8069 99.5336H52.2768C53.1929 104.171 53.8253 106.729 55.2165 111.184C55.6526 112.525 55.7587 113.328 55.7677 114.825C53.1621 109.035 51.8475 105.749 50.8069 99.5336Z" fill="#91C5FF"/>
<path d="M106.747 55.798C105.78 53.3543 105.064 52.3372 103.747 50.781C103.706 50.7324 103.687 50.6682 103.697 50.6055L104.102 47.9873C104.115 47.9039 104.177 47.8341 104.259 47.8111C108.384 46.6461 109.646 49.9441 112.564 53.165C112.601 53.2056 112.622 53.2585 112.622 53.3131V60.0351C112.622 60.2329 112.379 60.3302 112.239 60.1894C110.317 58.25 109.03 57.3834 106.896 55.9458L106.829 55.9008C106.792 55.8759 106.763 55.8393 106.747 55.798Z" fill="#3D3D3D"/>
<path d="M112.035 51.6545L110.544 49.5121C110.442 49.3666 110.547 49.1677 110.725 49.1677H113.368C113.554 49.1677 113.657 49.3846 113.544 49.5319C112.999 50.2395 112.714 50.794 112.432 51.598C112.372 51.77 112.14 51.8042 112.035 51.6545Z" fill="#3D3D3D"/>
<path d="M109.354 48.092C106.87 44.8197 105.614 42.873 104.379 39.069C104.357 39.0021 104.369 38.9273 104.411 38.8704C106.293 36.301 107.126 34.252 108.547 30.7611L108.592 30.6492C108.626 30.5663 108.707 30.511 108.797 30.511H113.836C118.905 30.2166 118.937 33.7349 120.554 37.9353C120.564 37.9605 120.569 37.9875 120.569 38.0144V45.5001C120.569 45.5934 120.508 45.6769 120.42 45.7079C117.783 46.6315 116.695 47.1893 114.766 48.1563C114.736 48.1717 114.701 48.18 114.667 48.18H109.531C109.462 48.18 109.396 48.1469 109.354 48.092Z" fill="#3D3D3D"/>
<path d="M126.419 30.511C122.559 30.387 122.75 34.1139 121.355 37.937C121.346 37.9612 121.342 37.9868 121.342 38.0125V45.4811C121.342 45.5834 121.413 45.6721 121.513 45.6954C123.549 46.1687 124.816 46.6238 127.355 48.3602C127.392 48.3854 127.436 48.3995 127.481 48.3995H133.485C133.553 48.3995 133.618 48.3674 133.66 48.3135C135.715 45.6578 136.798 43.7894 138.31 39.0544C138.328 38.996 138.322 38.9305 138.291 38.8772C136.576 35.8963 135.533 33.9518 133.659 30.3088C133.619 30.2321 133.538 30.1843 133.451 30.1883L126.419 30.511Z" fill="#3D3D3D"/>
<path d="M135.395 47.0482C136.401 45.6174 136.974 44.461 137.617 42.833C137.706 42.6101 138.043 42.6637 138.053 42.9031L138.218 46.9277C138.224 47.0651 138.102 47.1735 137.965 47.1574C137.083 47.0543 136.456 47.1271 135.708 47.4246C135.489 47.5119 135.259 47.2408 135.395 47.0482Z" fill="#3D3D3D"/>
<path d="M132.562 49.7408L130.095 52.1067C129.977 52.2193 129.781 52.1702 129.728 52.0169C129.348 50.9177 129.01 50.2974 128.465 49.5444C128.356 49.3933 128.469 49.1808 128.655 49.1895L132.419 49.3636C132.613 49.3725 132.702 49.6072 132.562 49.7408Z" fill="#3D3D3D"/>
<path d="M138.181 47.9393C135.712 47.6467 133.748 49.2632 130.012 53.1639C129.973 53.2047 129.951 53.2597 129.951 53.316V60.322C129.951 60.5098 130.173 60.6106 130.316 60.4878L130.453 60.3693C132.225 58.8465 133.365 57.8666 135.836 56.4539C135.884 56.4265 135.921 56.3813 135.937 56.3291C136.689 54.0018 137.156 52.6695 138.724 50.5613C138.76 50.5128 138.775 50.4511 138.765 50.3917L138.367 48.1164C138.35 48.0233 138.275 47.9505 138.181 47.9393Z" fill="#3D3D3D"/>
<path d="M129.951 63.9968V61.7634C129.951 61.7089 129.972 61.6557 130.009 61.6154C132.012 59.4244 133.309 58.4638 135.561 57.2551C135.713 57.1735 135.896 57.2905 135.885 57.462L135.697 60.2579C135.693 60.3237 135.659 60.384 135.605 60.4222L130.3 64.1757C130.153 64.2791 129.951 64.1752 129.951 63.9968Z" fill="#3D3D3D"/>
<path d="M135.364 61.3129C133.163 62.5672 132.029 63.6973 130.026 65.4537C129.979 65.4954 129.951 65.556 129.951 65.6191V68.5275C129.951 68.6714 130.088 68.7763 130.228 68.7377C132.176 68.1983 133.423 67.5225 135.595 66.0248C135.654 65.9839 135.69 65.916 135.69 65.8442V61.5021C135.69 61.3349 135.509 61.2297 135.364 61.3129Z" fill="#3D3D3D"/>
<path d="M129.911 69.4922L124.27 88.0224C124.194 88.2689 124.55 88.4272 124.691 88.2115C128.154 82.936 131.146 80.4669 136.211 76.4959C136.293 76.4317 136.319 76.3182 136.275 76.2241C135.221 73.9606 135.397 71.1942 135.364 67.183C135.362 66.9992 135.146 66.8996 135.001 67.0139C132.733 68.8042 131.705 69.0744 130.087 69.3389C130.004 69.3525 129.935 69.4119 129.911 69.4922Z" fill="#3D3D3D"/>
<path d="M120.336 53.6821C117.121 53.9241 115.84 55.6594 113.26 57.6613C113.206 57.7031 113.174 57.7677 113.174 57.8356V62.7762C113.174 62.8974 113.273 62.9957 113.395 62.9957H113.456C113.488 62.9957 113.521 62.9883 113.55 62.9746C116.077 61.7953 117.626 61.3477 120.387 60.8343C120.492 60.8148 120.569 60.7239 120.569 60.6181V53.8985C120.569 53.7728 120.462 53.6726 120.336 53.6821Z" fill="#3D3D3D"/>
<path d="M120.569 52.5975V46.6094C120.569 46.4624 120.423 46.3578 120.282 46.4014C115.445 47.8955 115.011 49.3678 113.116 51.6299C113.082 51.6695 113.063 51.7202 113.063 51.7718V56.4715C113.063 56.6608 113.289 56.7605 113.431 56.6344L113.553 56.5264C115.797 54.5355 117.209 53.2821 120.376 52.8164C120.486 52.8003 120.569 52.7074 120.569 52.5975Z" fill="#3D3D3D"/>
<path d="M121.342 52.6187V46.5854C121.342 46.4458 121.472 46.342 121.61 46.3723C125.771 47.2929 127.364 48.6701 129.259 51.97C129.278 52.0031 129.289 52.0411 129.289 52.0792V56.493C129.289 56.6788 129.07 56.7803 128.925 56.6632C125.757 54.1066 124.133 53.5026 121.509 52.8318C121.411 52.8068 121.342 52.7191 121.342 52.6187Z" fill="#3D3D3D"/>
<path d="M121.342 60.6263V53.8516C121.342 53.745 121.419 53.6532 121.525 53.6395C123.722 53.3558 125.722 54.9087 129.204 57.6613C129.257 57.7029 129.289 57.7669 129.289 57.8338V62.6876C129.289 62.8384 129.139 62.9443 128.995 62.8955C126.185 61.9406 124.453 61.5175 121.513 60.8404C121.413 60.8173 121.342 60.7284 121.342 60.6263Z" fill="#3D3D3D"/>
<path d="M121.342 66.3647V61.8119C121.342 61.6819 121.455 61.5804 121.585 61.5944C124.623 61.9215 126.315 62.5113 129.153 63.7068C129.235 63.7411 129.289 63.8211 129.289 63.9091V68.6085C129.289 68.7234 129.198 68.8191 129.083 68.8258C125.871 69.0121 124.322 67.8355 121.474 66.5661C121.394 66.5306 121.342 66.4516 121.342 66.3647Z" fill="#3D3D3D"/>
<path d="M120.569 66.3818V61.8128C120.569 61.6825 120.455 61.5808 120.325 61.5958C117.568 61.9124 116.149 62.5722 113.65 63.4911C113.563 63.5231 113.505 63.6056 113.505 63.6976V68.8128C113.505 68.9338 113.604 69.0322 113.725 69.0302C116.301 68.9889 117.836 68.1011 120.459 66.5716C120.527 66.5322 120.569 66.4597 120.569 66.3818Z" fill="#3D3D3D"/>
<path d="M106.772 60.1216V57.1034C106.772 56.9383 106.949 56.8328 107.095 56.9114C109.361 58.1303 110.617 59.216 112.572 61.6178C112.604 61.6568 112.622 61.7061 112.622 61.7562V64.0337C112.622 64.2246 112.393 64.3244 112.251 64.1962C110.33 62.4662 109.087 61.5141 106.888 60.315C106.817 60.2763 106.772 60.202 106.772 60.1216Z" fill="#3D3D3D"/>
<path d="M106.772 65.7403V61.3846C106.772 61.2193 106.949 61.1139 107.095 61.1936C109.294 62.3968 110.532 63.5803 112.657 65.4538C112.705 65.4954 112.732 65.5558 112.732 65.6187V68.7655C112.732 68.9035 112.605 69.0074 112.47 68.9777C110.515 68.5501 109.182 67.6685 106.86 65.9155C106.805 65.8741 106.772 65.8088 106.772 65.7403Z" fill="#3D3D3D"/>
<path d="M120.895 67.1307C118.118 68.9121 116.571 69.506 114.09 69.8733C113.956 69.8931 113.871 70.0274 113.909 70.1561C116.096 77.4997 117.244 82.2196 119.126 91.1623C119.131 91.1871 119.141 91.2113 119.154 91.2329L119.952 92.5226C119.993 92.5875 120.064 92.627 120.14 92.627H121.895C121.964 92.627 122.028 92.5954 122.07 92.5413L123.062 91.2595C123.091 91.2211 123.108 91.1741 123.108 91.1257V89.2569C123.108 89.2357 123.111 89.2145 123.117 89.1942L128.986 69.6346C129.027 69.4964 128.926 69.3568 128.781 69.3515C125.855 69.2448 124.115 68.8522 121.129 67.1254C121.057 67.0836 120.965 67.0856 120.895 67.1307Z" fill="#3D3D3D"/>
<path d="M106.226 76.2797L106.747 67.1607C106.757 66.981 106.97 66.8899 107.111 67.003C109.445 68.8783 110.716 69.3819 112.697 69.6695C112.785 69.6823 112.857 69.7459 112.88 69.8315L117.767 88.2534C117.831 88.497 117.491 88.6442 117.353 88.4331C113.539 82.6097 110.802 80.4895 106.3 76.4559C106.25 76.4114 106.222 76.346 106.226 76.2797Z" fill="#3D3D3D"/>
<path d="M144.189 33.2546C141.929 30.1515 134.738 29.6567 134.38 29.6339C134.368 29.6332 134.356 29.6288 134.348 29.6364C134.15 29.8129 137.26 35.6039 138.781 38.3029C140.332 41.0573 146.536 46.8193 146.507 45.6611C146.507 45.6582 146.507 45.6588 146.507 45.6559C146.507 45.5611 146.495 36.4207 144.189 33.2546Z" fill="#3D3D3D"/>
<path d="M139.22 49.3374L138.811 40.4944C138.801 40.284 139.068 40.1832 139.204 40.3447C142.096 43.7831 143.782 45.4108 146.409 46.7052C146.47 46.7356 146.515 46.7935 146.53 46.8604C147.231 50.0667 150.126 51.7416 150.585 57.6423C150.589 57.6964 150.572 57.7518 150.539 57.7951C149.654 58.9634 149.466 60.1752 149.203 62.1927C149.182 62.3572 148.992 62.4402 148.855 62.3445C145.993 60.3344 144.536 59.6068 142.127 58.4045L141.968 58.3248C141.907 58.2946 141.863 58.2365 141.849 58.1706C140.776 52.9728 140.205 51.2189 139.246 49.4313C139.23 49.4023 139.222 49.3702 139.22 49.3374Z" fill="#3D3D3D"/>
<path d="M149.819 64.4954C149.869 61.4499 150.231 60.2831 150.927 58.5389C150.98 58.406 151.143 58.3586 151.255 58.4479C152.064 59.0912 154.856 61.4995 155.889 64.8614C157.092 68.7768 158.624 74.0627 161.549 80.4901C161.594 80.5898 161.559 80.7084 161.467 80.7672L160.591 81.3211C160.492 81.3838 160.36 81.3568 160.292 81.2616C154.744 73.5134 151.198 68.7769 149.829 64.5662C149.822 64.5435 149.819 64.5193 149.819 64.4954Z" fill="#3D3D3D"/>
<path d="M157.768 82.8464C153.847 74.5461 142.485 70.3509 141.889 59.5621C141.879 59.3884 142.069 59.2735 142.218 59.3637L149.058 63.4853C149.119 63.5223 149.159 63.5867 149.164 63.6581C149.41 66.8254 151.079 70.1772 159.61 81.6804C159.686 81.7822 159.662 81.93 159.555 81.9988L158.092 82.9402C157.978 83.0132 157.826 82.9681 157.768 82.8464Z" fill="#3D3D3D"/>
<path d="M123.981 99.495L122.682 93.0347C122.672 92.984 122.68 92.9304 122.705 92.8851C126.523 85.9763 129.213 82.9307 134.216 78.8397C134.387 78.7 134.633 78.8692 134.56 79.0768C131.91 86.6225 128.799 91.5152 124.393 99.5547C124.295 99.735 124.022 99.6963 123.981 99.495Z" fill="#91C5FF"/>
<path d="M125.5 110.838L124.111 101.368C124.105 101.322 124.113 101.275 124.135 101.233L133.46 83.7739C133.585 83.5405 133.942 83.6849 133.867 83.9386L125.931 110.868C125.864 111.094 125.534 111.071 125.5 110.838Z" fill="#91C5FF"/>
<path d="M129.422 102.534L134.348 85.391C134.399 85.2128 134.637 85.1741 134.745 85.3248C137.177 88.7012 139.026 89.8321 139.112 98.5533C137.988 108.682 135.868 110.946 132.97 116.298C132.864 116.493 132.562 116.43 132.546 116.209C132.046 109.233 131.233 106.437 129.435 102.69C129.412 102.641 129.407 102.585 129.422 102.534Z" fill="#3781FA"/>
<path d="M135.509 113.651C139.088 109.323 139.87 97.8398 140.809 92.992C140.856 92.7498 141.156 92.7817 141.17 93.028C141.663 101.658 142.165 107.119 140.23 113.215C140.221 113.244 140.205 113.271 140.185 113.294L136.364 117.607C136.256 117.728 136.058 117.696 135.997 117.546C135.391 116.058 135.268 115.169 135.461 113.761C135.466 113.72 135.483 113.683 135.509 113.651Z" fill="#3781FA"/>
<path d="M136.145 77.2819L135.561 77.6448C135.503 77.6806 135.465 77.741 135.458 77.8083L134.818 83.9608C134.811 84.0278 134.837 84.095 134.885 84.1421C137.857 87.0389 138.41 89.6099 139.476 93.673C139.531 93.8838 139.828 93.8942 139.897 93.6875L140.861 90.8118C140.872 90.7786 140.875 90.7424 140.87 90.7079C139.864 84.2763 138.628 81.7688 136.515 77.4827L136.461 77.3728C136.403 77.256 136.256 77.2129 136.145 77.2819Z" fill="#3781FA"/>
<path d="M126.1 113.215L128.666 104.339C128.724 104.137 129.006 104.126 129.08 104.323C130.688 108.638 131.161 111.934 131.818 117.784C131.824 117.838 131.809 117.894 131.777 117.938C129.672 120.843 128.697 121.151 127.22 120.76C127.136 120.738 127.074 120.666 127.062 120.579L126.094 113.305C126.09 113.275 126.092 113.244 126.1 113.215Z" fill="#3781FA"/>
<path d="M128.065 126.923L127.132 121.771C127.106 121.629 127.223 121.502 127.368 121.508C130.612 121.64 132.057 119.437 134.315 115.562C134.426 115.371 134.723 115.442 134.74 115.661C134.835 116.908 135.029 117.603 135.418 118.42C135.45 118.487 135.447 118.565 135.408 118.629L129.562 128.352C129.483 128.484 129.296 128.496 129.2 128.377L128.109 127.021C128.086 126.992 128.071 126.959 128.065 126.923Z" fill="#3D3D3D"/>
<path d="M130.645 127.542L129.916 128.919C129.871 129.005 129.887 129.109 129.955 129.177L130.36 129.579C130.441 129.66 130.57 129.665 130.658 129.593L131.633 128.784C131.736 128.699 131.739 128.544 131.646 128.449C131.351 128.149 131.195 127.895 131.093 127.598C131.025 127.4 130.743 127.357 130.645 127.542Z" fill="#3D3D3D"/>
<path d="M131.526 125.945L135.233 120.364C135.302 120.26 135.444 120.233 135.543 120.311C137.355 121.74 136.755 123.509 135.732 126.526L135.721 126.558C135.702 126.615 135.659 126.663 135.605 126.688L132.497 128.13C132.424 128.164 132.338 128.155 132.274 128.106C131.52 127.524 131.394 127.024 131.491 126.043C131.494 126.008 131.506 125.974 131.526 125.945Z" fill="#3D3D3D"/>
<path d="M139.274 115.039L135.836 119.122C135.756 119.217 135.772 119.358 135.867 119.438C137.755 121.016 137.712 122.741 136.556 126.36C136.511 126.502 136.617 126.648 136.767 126.648H139.443C139.565 126.648 139.664 126.55 139.664 126.429V120.804V115.18C139.664 114.975 139.406 114.882 139.274 115.039Z" fill="#3D3D3D"/>
<path d="M135.307 127.667L131.051 130.206C130.985 130.245 130.944 130.317 130.944 130.394V134.596C130.944 134.638 130.956 134.679 130.979 134.714C134.932 140.959 136.854 144.773 135.696 155.9C135.692 155.933 135.696 155.966 135.707 155.997L136.282 157.631C136.348 157.817 136.609 157.827 136.689 157.646C140.685 148.703 140.667 141.415 139.679 127.842C139.671 127.727 139.574 127.636 139.459 127.636H135.42C135.38 127.636 135.341 127.647 135.307 127.667Z" fill="#3D3D3D"/>
<path d="M130.944 145.038V136.752C130.944 136.523 131.248 136.447 131.353 136.651C132.216 138.325 134.184 142.253 134.697 144.207C135.214 146.178 135.327 151.494 135.352 153.73C135.355 153.966 135.036 154.035 134.937 153.821L130.964 145.129C130.951 145.1 130.944 145.069 130.944 145.038Z" fill="#3D3D3D"/>
<path d="M136.463 160.85V159.516C136.463 159.48 136.472 159.445 136.488 159.414C140.367 151.956 141.299 146.419 141.04 135.747C141.033 135.489 141.386 135.433 141.449 135.683C143.608 144.21 142.363 150.221 140.574 160.294C140.558 160.386 140.485 160.46 140.392 160.475L136.719 161.067C136.585 161.089 136.463 160.986 136.463 160.85Z" fill="#3D3D3D"/>
<path d="M107.655 79.6259V78.841C107.655 78.6528 107.879 78.5535 108.021 78.6776C113.44 83.4083 115.765 86.7863 119.535 92.8911C119.561 92.9328 119.573 92.9826 119.567 93.0313L118.666 100.991C118.642 101.209 118.346 101.26 118.249 101.063L107.678 79.7229C107.663 79.6927 107.655 79.6595 107.655 79.6259Z" fill="#91C5FF"/>
<path d="M116.622 112.55C113.462 100.669 111.766 94.9614 109.093 85.8881C109.018 85.6322 109.379 85.4869 109.5 85.7245L118.111 102.556C118.13 102.594 118.138 102.636 118.134 102.679L117.056 112.52C117.029 112.762 116.684 112.785 116.622 112.55Z" fill="#91C5FF"/>
<path d="M101.697 91.1582C102.023 84.9226 104.83 83.2257 106.049 77.9734C106.1 77.7535 106.42 77.7302 106.493 77.9438C107.227 80.0817 107.657 81.5152 107.655 83.9819C107.655 84.0361 107.634 84.0896 107.598 84.1299C104.867 87.1503 104.158 89.8231 103.188 94.3577C103.141 94.5767 102.833 94.5954 102.762 94.383L101.708 91.2395C101.699 91.2136 101.695 91.1854 101.697 91.1582Z" fill="#3781FA"/>
<path d="M109.665 116.783C102.538 101.767 101.506 94.4626 107.714 85.3395C107.819 85.1846 108.06 85.2237 108.108 85.4046C109.663 91.2909 110.363 95.0088 112.704 100.028C112.722 100.068 112.729 100.113 112.722 100.156L110.084 116.73C110.05 116.943 109.757 116.978 109.665 116.783Z" fill="#3781FA"/>
<path d="M110.863 118.436C111.422 111.793 112.041 108.388 112.997 102.779C113.037 102.544 113.372 102.53 113.429 102.762L116.364 114.532C116.371 114.561 116.372 114.591 116.367 114.621L115.299 120.993C115.282 121.092 115.201 121.167 115.1 121.173C113.389 121.261 112.459 120.437 110.914 118.597C110.877 118.552 110.859 118.494 110.863 118.436Z" fill="#3781FA"/>
<path d="M103.444 114.854C101.018 107.317 100.754 102.447 101.574 93.8418C101.598 93.5982 101.942 93.5686 102.004 93.8052L103.014 97.6547C103.017 97.6684 103.02 97.6832 103.021 97.6974C103.227 101.102 101.981 100.097 106.331 112.381C106.926 114.444 106.789 115.515 106.126 117.13C106.066 117.274 105.879 117.31 105.769 117.2L103.499 114.943C103.474 114.918 103.455 114.887 103.444 114.854Z" fill="#3781FA"/>
<path d="M103.919 127.416H103.145C103.017 127.416 102.916 127.307 102.925 127.18C103.228 122.763 103.391 120.182 103.452 116.661C103.456 116.463 103.7 116.369 103.836 116.514L106.053 118.889C106.173 119.016 106.101 119.229 105.936 119.288C103.93 120.017 104.411 123.402 104.138 127.214C104.13 127.328 104.034 127.416 103.919 127.416Z" fill="#3D3D3D"/>
<path d="M105.337 121.161C104.951 122.312 104.903 126.062 104.897 126.988C104.896 127.105 104.988 127.201 105.105 127.208C107.182 127.328 108.156 127.64 109.542 128.303C109.656 128.357 109.794 128.307 109.839 128.189C110.214 127.206 110.16 126.483 109.973 125.221C109.619 122.888 108.563 121.892 107.052 120.027C107.014 119.98 106.96 119.951 106.9 119.952C106.607 119.957 105.705 120.065 105.337 121.161Z" fill="#3D3D3D"/>
<path d="M106.453 117.844C107.052 117.143 107.183 116.333 107.273 115.105C107.29 114.886 107.584 114.822 107.691 115.014C110.237 119.533 111.863 121.638 114.932 121.708C115.057 121.711 115.158 121.814 115.155 121.938C115.064 125.608 114.615 126.703 113.687 127.855C113.596 127.967 113.423 127.96 113.34 127.843L106.436 118.126C106.375 118.04 106.384 117.924 106.453 117.844Z" fill="#3D3D3D"/>
<path d="M110.383 128.663C110.763 127.775 110.855 127.056 110.862 126.035C110.864 125.811 111.163 125.725 111.28 125.917L113.005 128.748C113.042 128.808 113.047 128.881 113.02 128.946L112.61 129.926C112.558 130.049 112.408 130.098 112.292 130.029L110.473 128.944C110.377 128.886 110.34 128.766 110.383 128.663Z" fill="#3D3D3D"/>
<path d="M112.096 130.856C108.225 127.564 106.234 127.992 102.748 128.28C102.648 128.289 102.565 128.362 102.547 128.46L101.809 132.445C101.806 132.458 101.805 132.472 101.805 132.485C101.798 143.296 101.811 149.44 105.781 158.322C105.861 158.5 106.118 158.495 106.188 158.313L106.863 156.549C106.876 156.516 106.88 156.48 106.876 156.445C105.681 146.118 106.528 141.127 111.916 134.385C111.944 134.35 111.961 134.306 111.964 134.262L112.173 131.037C112.178 130.969 112.148 130.9 112.096 130.856Z" fill="#3D3D3D"/>
<path d="M111.534 136.051C110.615 137.656 108.477 141.5 107.876 143.549C107.146 146.035 107.204 154.194 107.213 155.1C107.213 155.1 110.856 147.39 111.297 145.744C111.655 144.411 111.868 138.404 111.936 136.164C111.943 135.938 111.647 135.855 111.534 136.051Z" fill="#3D3D3D"/>
<path d="M102.216 160.507C100.306 150.205 99.3402 144.19 100.706 136.356C100.75 136.102 101.104 136.131 101.117 136.389C101.696 147.955 102.392 154.316 106.293 160.175C106.317 160.211 106.33 160.253 106.33 160.297V160.864C106.33 160.994 106.216 161.096 106.086 161.082L102.41 160.687C102.313 160.676 102.234 160.602 102.216 160.507Z" fill="#3D3D3D"/>
<path d="M96.7091 46.7713C93.6299 50.4629 92.9769 53.0151 92.1074 57.6265C92.0954 57.6901 92.1124 57.7567 92.1525 57.8077C92.9222 58.7872 93.1092 59.865 93.285 61.9115C93.2949 62.0273 93.3938 62.1159 93.5106 62.11C95.8152 61.9942 97.6089 60.8713 100.714 58.8854C100.773 58.848 100.811 58.7834 100.816 58.7143C101.083 55.1356 101.942 53.6367 103.112 50.7385C103.121 50.716 103.126 50.6918 103.128 50.6677L103.648 40.6048C103.658 40.3944 103.392 40.2921 103.255 40.4528C100.529 43.6512 99.1022 44.8836 96.7424 46.7389C96.7303 46.7484 96.7189 46.7595 96.7091 46.7713Z" fill="#3D3D3D"/>
<path d="M93.2728 63.1379C91.5869 71.1657 88.5768 74.9934 83.2986 81.681C83.2185 81.7826 83.2419 81.9324 83.3509 82.0025L84.796 82.9322C84.9136 83.0079 85.0746 82.949 85.1259 82.8193C90.5761 69.0358 97.8001 75.0627 100.182 60.1803C100.212 59.9964 100.013 59.8522 99.8555 59.9524C97.8198 61.2453 96.9237 62.2078 93.4455 62.965C93.3598 62.9836 93.2907 63.0526 93.2728 63.1379Z" fill="#3D3D3D"/>
<path d="M82.1896 81.1722L81.3066 80.4539C81.2228 80.3857 81.2021 80.2654 81.2564 80.1721C83.749 75.8911 84.7328 73.8347 85.6826 70.9095C85.6852 70.9015 85.6873 70.8936 85.689 70.8854C85.7369 70.6495 86.4914 66.9744 87.4525 64.5321C88.2754 62.4412 90.6888 59.8984 91.493 59.0872C91.6112 58.9679 91.8111 59.028 91.8509 59.1907C93.8574 67.3924 88.5334 72.4607 82.5125 81.1253C82.4391 81.2309 82.2895 81.2535 82.1896 81.1722Z" fill="#3D3D3D"/>
<path d="M104.112 38.5356C101.307 41.8531 99.6252 43.475 96.7159 45.7354C96.5776 45.8429 96.377 45.7562 96.3678 45.5819C96.2687 43.709 96.0494 35.8311 99.1523 33.0351C102.205 30.2844 106.494 30.1571 107.602 30.1732C107.743 30.1752 107.836 30.3085 107.798 30.4427C106.981 33.2951 106.189 35.1243 104.132 38.5076C104.126 38.5173 104.119 38.527 104.112 38.5356Z" fill="#3D3D3D"/>
<path d="M104.344 46.8142V42.2368C104.344 42.0173 104.632 41.9337 104.751 42.1188L107.99 47.1736C108.111 47.362 107.906 47.5833 107.707 47.4812C106.777 47.0065 106.141 46.7699 104.609 47.0323C104.472 47.0557 104.344 46.9523 104.344 46.8142Z" fill="#3D3D3D"/>
<path fill-rule="evenodd" clip-rule="evenodd" d="M129.616 11.1958C129.495 11.1958 129.395 11.0975 129.395 10.9763C129.395 11.0975 129.494 11.1958 129.616 11.1958ZM115.602 17.2754C115.602 17.2485 115.587 17.2236 115.564 17.2102C115.539 17.196 115.515 17.1816 115.491 17.1672L115.602 17.2754ZM127.346 16.6322C127.315 16.6653 127.295 16.7072 127.289 16.7522C127.295 16.7072 127.315 16.6646 127.346 16.6314C127.346 16.6317 127.346 16.6319 127.346 16.6322Z" fill="#3D3D3D"/>
<path fill-rule="evenodd" clip-rule="evenodd" d="M82.8651 84.7499C82.9051 84.67 82.8857 84.5743 82.8222 84.5112C82.8856 84.5743 82.9052 84.67 82.8651 84.7499ZM82.4402 84.4196C82.5283 84.3446 82.6594 84.3493 82.7414 84.4309C82.6595 84.3494 82.5282 84.3447 82.4402 84.4196Z" fill="#3D3D3D"/>
<path fill-rule="evenodd" clip-rule="evenodd" d="M165.478 83.9502L165.488 83.9571L165.497 83.9624C165.494 83.9607 165.491 83.9588 165.488 83.9571C165.484 83.9549 165.482 83.9528 165.478 83.9502ZM160.917 84.9052C160.876 84.8606 160.817 84.8344 160.757 84.8443C160.756 84.8444 160.756 84.8445 160.756 84.8445C160.817 84.8343 160.875 84.8602 160.917 84.9052ZM162.577 86.891C162.604 86.91 162.618 86.9202 162.618 86.9202L162.669 86.9282C162.635 86.9229 162.605 86.9109 162.577 86.891ZM171.437 94.5872L171.448 94.6024C171.448 94.6024 171.453 94.6072 171.462 94.6159C171.458 94.6123 171.455 94.6086 171.451 94.6048C171.447 94.5995 171.442 94.593 171.437 94.5872ZM164.118 93.0597L164.053 92.9562H163.93C164.007 92.9562 164.077 92.9954 164.118 93.0597ZM161.131 92.6354L161.073 92.5173C161.073 92.5173 161.011 92.5173 160.937 92.5335C161.019 92.5156 161.094 92.5604 161.131 92.6354ZM160.536 93.024C160.526 93.05 160.521 93.066 160.521 93.066L160.524 93.1097C160.522 93.0804 160.526 93.0516 160.536 93.024Z" fill="#3D3D3D"/>
<path d="M95.7344 175.265C95.2929 176.473 101.309 178.108 103.24 178.558C105.157 179.004 107.683 169.261 106.36 162.14C106.342 162.047 106.267 161.978 106.173 161.965L102.478 161.469C102.352 161.452 102.238 161.541 102.225 161.667C101.651 167.076 96.1697 174.075 95.7344 175.265Z" fill="#3D3D3D"/>
<path d="M147.276 175.265C147.607 174.168 140.985 164.73 140.547 164.071C140.209 163.562 140.193 162.267 140.204 161.705C140.206 161.566 140.083 161.456 139.945 161.477L136.645 161.96C136.539 161.975 136.46 162.057 136.457 162.163C136.403 163.67 136.03 174.332 136.238 175.046C136.463 175.814 138.887 178.887 139.881 178.997C140.874 179.107 146.945 176.363 147.276 175.265Z" fill="#3D3D3D"/>
<path d="M171.448 88.8957C171.448 88.7859 168.247 85.3838 167.916 85.2741C167.598 85.1685 165.647 84.0487 165.497 83.9624L165.488 83.9571L165.478 83.9502L162.742 81.9618C162.667 81.9077 162.567 81.9053 162.49 81.9556L158.529 84.5465C158.464 84.5893 158.426 84.6633 158.43 84.741L158.754 91.0741C158.755 91.085 158.756 91.096 158.758 91.1067L159.952 96.9346C159.963 96.9875 159.993 97.0347 160.037 97.0669L160.399 97.335C160.409 97.3424 160.42 97.3489 160.431 97.3538C160.484 97.3768 160.65 97.4374 160.742 97.3461C160.845 97.2429 160.559 93.5543 160.524 93.1097L160.521 93.066C160.521 93.066 160.526 93.05 160.536 93.024C160.57 92.9317 160.656 92.7126 160.742 92.627C160.794 92.5753 160.87 92.5479 160.937 92.5335C161.011 92.5173 161.073 92.5173 161.073 92.5173L161.131 92.6354C161.592 93.5644 164.613 99.6591 164.715 99.7605C164.826 99.8702 165.046 99.8702 165.157 99.7605C165.267 99.6507 165.377 99.541 165.377 99.4312C165.377 99.3215 163.832 94.5366 163.832 94.2732C163.832 94.0232 163.766 93.8194 163.728 93.7367C163.724 93.7284 163.719 93.7209 163.714 93.7132C163.676 93.6547 163.501 93.3832 163.501 93.2855C163.501 93.1757 163.722 92.9562 163.832 92.9562H163.93H164.053L164.118 93.0597L167.648 98.6974C167.678 98.7457 167.726 98.7805 167.782 98.7932C167.922 98.8249 168.198 98.8825 168.358 98.8825C168.578 98.8825 168.689 98.9923 168.799 98.8825C168.897 98.7854 168.822 98.4302 168.803 98.35C168.8 98.339 168.798 98.3306 168.793 98.3202C168.658 97.9993 166.153 92.0723 166.26 91.8588C166.371 91.6393 166.481 91.6393 166.702 91.6393C166.923 91.6393 171.227 95.6999 171.448 95.6999C171.669 95.6999 172 95.3707 172 95.2609C172 95.1614 171.546 94.7009 171.462 94.6159C171.453 94.6072 171.448 94.6024 171.448 94.6024L171.437 94.5872C170.22 92.8628 167.783 89.4222 167.695 89.3346C167.607 89.2468 167.254 87.7982 167.033 87.6885C166.827 87.5858 163.146 87.0034 162.669 86.9282L162.618 86.9202C162.618 86.9202 162.604 86.91 162.577 86.891C162.268 86.6695 160.309 85.2567 160.414 85.0546C160.488 84.9121 160.651 84.8621 160.756 84.8445C160.756 84.8445 160.756 84.8444 160.757 84.8443C160.817 84.8344 160.876 84.8606 160.917 84.9052C161.174 85.1793 162.112 86.1673 162.397 86.2618C162.728 86.3715 165.488 86.9202 166.04 86.9202C166.592 86.9202 171.007 89.2249 171.227 89.1151C171.448 89.0054 171.448 89.0054 171.448 88.8957Z" fill="#3D3D3D"/>
<path d="M72.6623 89.5541C72.883 89.6639 76.9669 86.9202 77.4084 86.7007C77.8499 86.4812 80.0574 86.152 80.4989 85.9325C80.8576 85.7542 82.0176 84.7791 82.4402 84.4196C82.5283 84.3446 82.6594 84.3493 82.7414 84.4309L82.8222 84.5112C82.8856 84.5743 82.9052 84.67 82.8651 84.7499C81.8963 86.6846 78.3675 87.0314 76.7129 87.5538C76.6622 87.5698 76.6232 87.5998 76.5962 87.6453C76.1454 88.4032 72 95.3766 72 95.4804C72 95.5901 72.3532 95.8974 72.4415 95.8096C72.5298 95.7218 77.4084 90.4321 77.5188 90.4321C77.6291 90.4321 77.7395 90.5418 77.7395 90.6516C77.7395 90.7571 74.7832 96.8428 74.5528 97.3168C74.5424 97.3383 74.5371 97.3579 74.5344 97.3816C74.5152 97.5471 74.4416 98.2373 74.5386 98.3338C74.6165 98.4113 74.8044 98.3794 74.9082 98.3539C74.9553 98.3423 74.9925 98.3156 75.0198 98.2756C75.4707 97.6142 79.6219 91.5295 79.7263 91.5295C79.8366 91.5295 79.947 91.6393 79.947 91.749C79.947 91.8313 79.0157 95.6793 78.5501 97.5982C78.3962 98.2324 78.2931 98.6559 78.2914 98.663C78.2872 98.68 78.1832 99.1042 78.2914 99.2118C78.4018 99.3215 78.5121 99.4312 78.6225 99.4312H78.9536C79.0606 99.4312 79.3747 98.6073 79.3942 98.5558L79.3946 98.5546L79.3951 98.5533C79.417 98.4993 82.155 91.749 82.2649 91.749H82.596C82.7064 91.749 82.7064 92.188 82.7064 92.188V92.6093C82.7064 92.6211 82.7074 92.6329 82.7093 92.6445L83.4489 97.1618C83.4663 97.2681 83.5585 97.3461 83.6667 97.3461H83.8024C83.8762 97.3461 83.9451 97.3094 83.9861 97.2483L84.1042 97.0721C84.1284 97.0361 84.1413 96.9937 84.1413 96.9504V96.6876C84.0365 91.2596 84.2894 88.5926 84.7894 83.9778C84.798 83.8981 84.7624 83.8189 84.6963 83.773L81.2818 81.4068C81.2087 81.3562 81.1137 81.353 81.039 81.4013C77.3164 83.811 72.4439 89.4456 72.6623 89.5541Z" fill="#3D3D3D"/>
<path d="M113.501 10.4276C113.391 10.5373 112.949 10.8665 112.839 11.1958C112.738 11.4968 112.822 12.8069 112.837 13.0293C112.838 13.0511 112.843 13.0722 112.851 13.0925C113.643 15.1278 114.085 16.328 115.491 17.1672C115.515 17.1816 115.539 17.196 115.564 17.2102C115.587 17.2236 115.602 17.2485 115.602 17.2754V17.3597V19.3409C115.602 19.3961 115.624 19.45 115.661 19.4904C117.523 21.4802 118.734 22.0051 120.955 22.4885C120.959 22.4893 120.964 22.4902 120.968 22.4908C120.998 22.4954 121.028 22.4941 121.057 22.4868L121.088 22.4791C123.186 21.9506 124.397 21.6458 126.784 19.9213C126.832 19.8863 126.865 19.8323 126.873 19.7733L127.289 16.7522C127.295 16.7072 127.315 16.6653 127.346 16.6322C127.346 16.6319 127.346 16.6317 127.346 16.6314C129.211 14.639 129.878 13.4568 129.843 11.4069C129.841 11.289 129.743 11.1958 129.624 11.1958H129.616C129.495 11.1958 129.395 11.0975 129.395 10.9763V5.08202C129.395 5.0608 129.393 5.04291 129.386 5.02273C129.255 4.61995 127.586 -0.103342 121.669 0.00172674C115.811 0.105738 113.621 4.74425 113.408 5.22872C113.396 5.2575 113.391 5.2835 113.393 5.31487C113.414 5.81716 113.605 10.3239 113.501 10.4276Z" fill="#3D3D3D"/>
<path d="M121.322 23.2663C118.765 23.0649 117.825 22.3162 116.411 21.0685C116.269 20.9431 116.044 21.0427 116.044 21.232V23.2308C116.044 23.2553 116.048 23.2796 116.056 23.3027L120.695 36.6159C120.763 36.8115 121.04 36.8116 121.111 36.6171L121.119 36.5929C123.072 31.1199 124.143 27.6903 126.828 23.3211C126.849 23.2865 126.86 23.2464 126.86 23.2059V21.1967C126.86 21.0133 126.646 20.9111 126.5 21.0228C124.303 22.7002 123.159 23.0971 121.361 23.266L121.342 23.2678L121.322 23.2663Z" fill="#3D3D3D"/>
<path d="M115.386 24.7298C114.301 27.0484 113.315 28.1835 111.68 29.0311C111.455 29.148 111.551 29.5514 111.805 29.5386C114.081 29.4246 115.66 29.5309 117.643 30.3059C117.826 30.3778 118.013 30.1962 117.939 30.0141L115.797 24.7371C115.724 24.5572 115.468 24.5539 115.386 24.7298Z" fill="#3D3D3D"/>
<path d="M126.592 24.8099L124.154 29.8444C124.081 29.9955 124.198 30.169 124.366 30.1587L131.649 29.7117C131.897 29.6965 131.936 29.3426 131.7 29.2678C129.271 28.4995 127.841 27.6371 127.02 24.8514C126.961 24.6534 126.682 24.624 126.592 24.8099Z" fill="#3D3D3D"/>
</svg>
