<svg width="167" height="142" viewBox="0 0 167 142" fill="none" xmlns="http://www.w3.org/2000/svg">
<g opacity="0.5">
<path d="M29.5346 84.6932C28.7126 82.6045 28.1042 81.7352 26.9846 80.405C26.9497 80.3635 26.934 80.3086 26.9422 80.255L27.2866 78.0171C27.2976 77.9458 27.3506 77.8862 27.4201 77.8665C30.9263 76.8707 31.9989 79.6896 34.4797 82.4427C34.5109 82.4774 34.5286 82.5227 34.5286 82.5693V88.315C34.5286 88.484 34.3218 88.5672 34.2031 88.4468C32.5693 86.7891 31.4757 86.0484 29.6617 84.8196L29.6049 84.7812C29.5735 84.7599 29.5485 84.7285 29.5346 84.6932Z" fill="#3D3D3D"/>
<path d="M34.0301 81.1516L32.7622 79.3204C32.6761 79.196 32.7652 79.026 32.9165 79.026H35.1625C35.3211 79.026 35.4089 79.2114 35.3124 79.3373C34.8489 79.9421 34.6073 80.4161 34.3675 81.1033C34.3162 81.2503 34.1188 81.2796 34.0301 81.1516Z" fill="#3D3D3D"/>
<path d="M53.8855 77.2144C54.7405 75.9914 55.2277 75.0029 55.7748 73.6115C55.8498 73.4209 56.1366 73.4668 56.1449 73.6714L56.2854 77.1114C56.2902 77.2288 56.1868 77.3214 56.07 77.3077C55.3206 77.2196 54.7877 77.2818 54.1519 77.5362C53.9654 77.6108 53.7704 77.379 53.8855 77.2144Z" fill="#3D3D3D"/>
<path d="M51.4778 79.5159L49.3804 81.5381C49.2806 81.6343 49.1143 81.5924 49.0692 81.4614C48.7457 80.5218 48.4586 79.9916 47.9954 79.348C47.9025 79.2189 47.9983 79.0373 48.1572 79.0447L51.3563 79.1934C51.5207 79.2011 51.5963 79.4017 51.4778 79.5159Z" fill="#3D3D3D"/>
<path d="M56.254 77.9761C54.1556 77.726 52.4854 79.1077 49.3106 82.4418C49.2774 82.4766 49.2582 82.5237 49.2582 82.5718V88.5602C49.2582 88.7207 49.4468 88.8068 49.5682 88.7019L49.6854 88.6006C51.1912 87.299 52.1601 86.4614 54.2605 85.2539C54.3011 85.2305 54.3325 85.1919 54.3469 85.1472C54.9853 83.158 55.3826 82.0192 56.7151 80.2172C56.7458 80.1757 56.7587 80.123 56.7499 80.0722L56.4116 78.1274C56.3978 78.0479 56.3342 77.9856 56.254 77.9761Z" fill="#3D3D3D"/>
<path d="M49.2582 91.7012V89.7922C49.2582 89.7456 49.276 89.7001 49.3073 89.6657C51.0102 87.7929 52.1128 86.9718 54.0271 85.9388C54.1564 85.869 54.3118 85.969 54.302 86.1156L54.1427 88.5054C54.1389 88.5616 54.1102 88.6131 54.0643 88.6458L49.5546 91.8541C49.4304 91.9424 49.2582 91.8536 49.2582 91.7012Z" fill="#3D3D3D"/>
<path d="M53.859 89.4071C51.9885 90.4792 51.0249 91.4452 49.3223 92.9465C49.2819 92.9821 49.2582 93.0339 49.2582 93.0878V95.5738C49.2582 95.6968 49.375 95.7864 49.4936 95.7534C51.15 95.2924 52.2093 94.7148 54.0556 93.4346C54.106 93.3996 54.1368 93.3416 54.1368 93.2802V89.5688C54.1368 89.426 53.983 89.336 53.859 89.4071Z" fill="#3D3D3D"/>
<path d="M49.2242 96.3983L44.4291 112.237C44.3653 112.448 44.6673 112.583 44.7876 112.399C47.7308 107.889 50.2745 105.779 54.579 102.385C54.6487 102.33 54.6713 102.233 54.634 102.152C53.7375 100.218 53.8876 97.8532 53.8593 94.4246C53.858 94.2675 53.6741 94.1824 53.551 94.2801C51.6234 95.8103 50.7495 96.0412 49.3741 96.2673C49.3033 96.2789 49.245 96.3297 49.2242 96.3983Z" fill="#3D3D3D"/>
<path d="M41.0854 82.8847C38.3529 83.0915 37.2642 84.5748 35.0709 86.2859C35.0252 86.3217 34.9977 86.3768 34.9977 86.4349V90.6579C34.9977 90.7615 35.0817 90.8455 35.1853 90.8455H35.2372C35.2648 90.8455 35.2925 90.8392 35.3175 90.8275C37.4659 89.8194 38.7824 89.4369 41.1293 88.998C41.2183 88.9814 41.2836 88.9037 41.2836 88.8132V83.0696C41.2836 82.9622 41.1925 82.8766 41.0854 82.8847Z" fill="#3D3D3D"/>
<path d="M41.2836 81.9576V76.8393C41.2836 76.7136 41.1598 76.6243 41.0398 76.6616C36.9282 77.9386 36.559 79.1971 34.9482 81.1306C34.92 81.1645 34.9039 81.2078 34.9039 81.2519V85.2689C34.9039 85.4307 35.0955 85.5159 35.2163 85.4082L35.3198 85.3159C37.2272 83.6142 38.428 82.5428 41.12 82.1447C41.2129 82.131 41.2836 82.0515 41.2836 81.9576Z" fill="#3D3D3D"/>
<path d="M41.9403 81.9758V76.8188C41.9403 76.6995 42.0516 76.6107 42.1681 76.6366C45.7053 77.4235 47.0593 78.6007 48.6704 81.4213C48.6865 81.4495 48.6953 81.4821 48.6953 81.5146V85.2873C48.6953 85.4461 48.5095 85.5329 48.3862 85.4328C45.6936 83.2475 44.3133 82.7313 42.0823 82.1579C41.9992 82.1366 41.9403 82.0616 41.9403 81.9758Z" fill="#3D3D3D"/>
<path d="M41.9403 88.8202V83.0296C41.9403 82.9385 42.0058 82.86 42.0962 82.8483C43.9639 82.6058 45.6641 83.9332 48.6237 86.2859C48.6685 86.3215 48.6953 86.3762 48.6953 86.4334V90.5821C48.6953 90.7111 48.5681 90.8015 48.4461 90.7598C46.0576 89.9436 44.5847 89.582 42.0864 89.0032C42.0014 88.9835 41.9403 88.9076 41.9403 88.8202Z" fill="#3D3D3D"/>
<path d="M41.9403 93.7251V89.8336C41.9403 89.7225 42.0369 89.6358 42.1473 89.6477C44.7295 89.9273 46.1678 90.4314 48.5802 91.4533C48.6495 91.4827 48.6953 91.551 48.6953 91.6262V95.6431C48.6953 95.7412 48.6185 95.8231 48.5205 95.8288C45.7904 95.988 44.4741 94.9823 42.0526 93.8973C41.9849 93.8669 41.9403 93.7994 41.9403 93.7251Z" fill="#3D3D3D"/>
<path d="M41.2836 93.7398V89.8344C41.2836 89.723 41.1867 89.6361 41.0761 89.6489C38.7328 89.9196 37.5267 90.4835 35.4027 91.269C35.3289 91.2962 35.2792 91.3668 35.2792 91.4454V95.8176C35.2792 95.921 35.3632 96.0052 35.4666 96.0035C37.6557 95.9682 38.9602 95.2094 41.1901 93.902C41.2476 93.8684 41.2836 93.8063 41.2836 93.7398Z" fill="#3D3D3D"/>
<path d="M29.5562 88.3889V85.8091C29.5562 85.668 29.7067 85.5778 29.8308 85.6449C31.7567 86.6868 32.8247 87.6148 34.4865 89.6677C34.5134 89.701 34.5286 89.7432 34.5286 89.7861V91.7327C34.5286 91.8959 34.3343 91.9812 34.2133 91.8716C32.5802 90.3929 31.5238 89.5791 29.6547 88.5541C29.5944 88.5211 29.5562 88.4576 29.5562 88.3889Z" fill="#3D3D3D"/>
<path d="M29.5562 93.1914V89.4684C29.5562 89.3271 29.707 89.237 29.8309 89.3051C31.6998 90.3336 32.7521 91.3452 34.5587 92.9465C34.5989 92.9821 34.6224 93.0338 34.6224 93.0875V95.7772C34.6224 95.8952 34.5145 95.984 34.3993 95.9586C32.7374 95.5931 31.6048 94.8396 29.631 93.3412C29.5843 93.3058 29.5562 93.25 29.5562 93.1914Z" fill="#3D3D3D"/>
<path d="M41.5606 94.3798C39.2004 95.9026 37.8853 96.4102 35.7765 96.7241C35.663 96.741 35.5905 96.8558 35.623 96.9658C37.4813 103.243 38.4575 107.277 40.0571 114.921C40.0616 114.942 40.0697 114.963 40.0811 114.981L40.7595 116.084C40.7937 116.139 40.8542 116.173 40.9193 116.173H42.4108C42.4691 116.173 42.524 116.146 42.5595 116.1L43.4025 115.004C43.4277 114.971 43.4414 114.931 43.4414 114.89V113.292C43.4414 113.274 43.444 113.256 43.4492 113.239L48.4379 96.52C48.4731 96.402 48.3868 96.2826 48.2636 96.2781C45.7771 96.1869 44.2979 95.8514 41.7599 94.3753C41.6985 94.3396 41.6203 94.3413 41.5606 94.3798Z" fill="#3D3D3D"/>
<path d="M29.0922 102.2L29.5351 94.4055C29.5439 94.2519 29.7248 94.174 29.8444 94.2708C31.8279 95.8736 32.909 96.304 34.5921 96.5499C34.667 96.5609 34.7288 96.6152 34.7481 96.6884L38.9016 112.435C38.9565 112.643 38.6677 112.768 38.5502 112.588C35.308 107.611 32.982 105.798 29.1547 102.351C29.1124 102.313 29.089 102.257 29.0922 102.2Z" fill="#3D3D3D"/>
<path d="M61.3608 65.4244C59.4399 62.772 53.327 62.349 53.0227 62.3295C53.013 62.3289 53.003 62.3252 52.9957 62.3317C52.8276 62.4825 55.4714 67.4324 56.7637 69.7394C58.0825 72.0937 63.3557 77.0188 63.3312 76.0288L63.331 76.0243C63.331 75.9433 63.3208 68.1306 61.3608 65.4244Z" fill="#3D3D3D"/>
<path d="M57.137 79.1711L56.7894 71.6126C56.7812 71.4327 57.0077 71.3465 57.1233 71.4846C59.5816 74.4235 61.0147 75.8148 63.2473 76.9212C63.2997 76.9472 63.3377 76.9967 63.3501 77.0539C63.946 79.7944 66.4074 81.226 66.7969 86.2697C66.8004 86.3159 66.7863 86.3632 66.7584 86.4003C66.0061 87.3989 65.846 88.4347 65.6228 90.1592C65.6046 90.2997 65.4429 90.3706 65.3271 90.2889C62.8943 88.5707 61.6555 87.9489 59.6083 86.9212L59.4727 86.8531C59.4213 86.8273 59.3836 86.7776 59.3721 86.7213C58.4599 82.2784 57.9743 80.7793 57.1591 79.2513C57.1459 79.2266 57.1383 79.1991 57.137 79.1711Z" fill="#3D3D3D"/>
<path d="M66.1461 92.1274C66.1884 89.5243 66.4967 88.5269 67.0881 87.036C67.1332 86.9224 67.2714 86.8819 67.3669 86.9582C68.0548 87.5081 70.4275 89.5666 71.3056 92.4402C72.3284 95.7869 73.6302 100.305 76.1165 105.799C76.1551 105.884 76.1255 105.985 76.0466 106.036L75.3025 106.509C75.2183 106.563 75.1059 106.54 75.0479 106.458C70.3323 99.8355 67.3186 95.7869 66.155 92.1879C66.1487 92.1685 66.1458 92.1478 66.1461 92.1274Z" fill="#3D3D3D"/>
<path d="M72.903 107.813C69.5703 100.718 59.9118 97.1323 59.4053 87.9106C59.3972 87.7621 59.5584 87.664 59.6856 87.741L65.4992 91.2639C65.5515 91.2956 65.585 91.3507 65.5897 91.4117C65.7986 94.1189 67.2169 96.9839 74.4685 106.816C74.5327 106.903 74.5126 107.03 74.4218 107.088L73.178 107.893C73.0814 107.955 72.9519 107.917 72.903 107.813Z" fill="#3D3D3D"/>
<path d="M44.1841 122.043L43.0795 116.521C43.0709 116.478 43.0782 116.432 43.0995 116.393C46.3441 110.488 48.6308 107.885 52.8838 104.388C53.029 104.269 53.2378 104.413 53.1758 104.591C50.9236 111.04 48.2796 115.223 44.5345 122.094C44.4505 122.248 44.2185 122.215 44.1841 122.043Z" fill="#3D3D3D"/>
<path d="M45.4752 131.738L44.2946 123.644C44.2889 123.605 44.2959 123.564 44.3146 123.529L52.2412 108.606C52.3472 108.406 52.6506 108.53 52.587 108.746L45.841 131.764C45.7843 131.957 45.5043 131.938 45.4752 131.738Z" fill="#3D3D3D"/>
<path d="M48.8086 124.641L52.9958 109.988C53.0393 109.836 53.2413 109.802 53.3336 109.931C55.4009 112.817 56.9717 113.784 57.0452 121.238C56.0894 129.896 54.2876 131.831 51.8242 136.406C51.7343 136.572 51.4778 136.518 51.4643 136.329C51.0392 130.367 50.3483 127.977 48.82 124.774C48.8003 124.732 48.796 124.685 48.8086 124.641Z" fill="#3D3D3D"/>
<path d="M53.9827 134.143C57.0251 130.444 57.6896 120.628 58.4876 116.485C58.5275 116.278 58.7827 116.305 58.7946 116.516C59.2138 123.892 59.6401 128.56 57.9953 133.77C57.9875 133.795 57.9745 133.818 57.9572 133.838L54.709 137.524C54.6177 137.628 54.4495 137.601 54.3977 137.473C53.8827 136.2 53.7778 135.441 53.9417 134.237C53.9464 134.202 53.9604 134.17 53.9827 134.143Z" fill="#3D3D3D"/>
<path d="M54.5232 103.057L54.0269 103.367C53.9778 103.397 53.9457 103.449 53.9397 103.507L53.3956 108.765C53.3897 108.823 53.4112 108.88 53.4523 108.92C55.9784 111.396 56.4481 113.594 57.3545 117.067C57.4015 117.247 57.6535 117.256 57.7124 117.079L58.5319 114.621C58.5413 114.593 58.5438 114.562 58.5392 114.532C57.6842 109.035 56.6336 106.892 54.8378 103.228L54.7918 103.134C54.7428 103.034 54.6176 102.998 54.5232 103.057Z" fill="#3D3D3D"/>
<path d="M45.9853 133.771L48.1658 126.184C48.2155 126.011 48.4555 126.001 48.5179 126.17C49.8845 129.858 50.2865 132.675 50.845 137.676C50.8502 137.722 50.8374 137.77 50.8103 137.808C49.0209 140.29 48.1928 140.554 46.9373 140.22C46.8652 140.201 46.8126 140.139 46.8028 140.065L45.9797 133.847C45.9763 133.821 45.9782 133.795 45.9853 133.771Z" fill="#3D3D3D"/>
<path d="M47.6548 145.487L46.8621 141.083C46.8403 140.962 46.9399 140.853 47.0629 140.858C49.8198 140.972 51.0486 139.088 52.9682 135.776C53.0624 135.614 53.3149 135.674 53.329 135.861C53.4096 136.927 53.5746 137.521 53.9051 138.219C53.9322 138.276 53.9295 138.344 53.897 138.398L48.9278 146.709C48.8606 146.821 48.702 146.832 48.6202 146.73L47.693 145.571C47.6735 145.547 47.6604 145.518 47.6548 145.487Z" fill="#3D3D3D"/>
<path d="M49.8484 146.017L49.2287 147.194C49.1905 147.266 49.204 147.356 49.2621 147.414L49.6061 147.758C49.6747 147.826 49.7844 147.831 49.8589 147.769L50.6884 147.078C50.7756 147.005 50.7781 146.873 50.6988 146.792C50.4483 146.536 50.3161 146.318 50.2291 146.064C50.1713 145.895 49.9315 145.859 49.8484 146.017Z" fill="#3D3D3D"/>
<path d="M50.5969 144.651L53.7477 139.881C53.8064 139.792 53.9277 139.769 54.0112 139.835C55.5514 141.057 55.0416 142.569 54.172 145.148L54.1627 145.175C54.1463 145.224 54.1105 145.265 54.064 145.286L51.4228 146.519C51.3608 146.548 51.2873 146.541 51.2333 146.499C50.592 146.001 50.4847 145.574 50.567 144.735C50.5699 144.705 50.5803 144.676 50.5969 144.651Z" fill="#3D3D3D"/>
<path d="M57.1827 135.33L54.2609 138.819C54.193 138.9 54.206 139.021 54.287 139.09C55.8917 140.438 55.8553 141.913 54.8727 145.006C54.8342 145.127 54.9242 145.252 55.0517 145.252H57.3266C57.4302 145.252 57.5143 145.168 57.5143 145.065V135.45C57.5143 135.275 57.2953 135.195 57.1827 135.33Z" fill="#3D3D3D"/>
<path d="M53.8107 146.123L50.1937 148.293C50.1371 148.327 50.1026 148.388 50.1026 148.454V152.046C50.1026 152.081 50.1129 152.117 50.1318 152.146C53.4924 157.484 55.1257 160.745 54.1412 170.256C54.1384 170.283 54.1415 170.312 54.1506 170.338L54.6396 171.735C54.6954 171.894 54.9172 171.902 54.9858 171.748C58.3822 164.104 58.3666 157.875 57.527 146.273C57.5199 146.175 57.4381 146.097 57.3398 146.097H53.9073C53.8733 146.097 53.8399 146.106 53.8107 146.123Z" fill="#3D3D3D"/>
<path d="M50.1026 160.971V153.889C50.1026 153.693 50.3608 153.628 50.4501 153.802C51.1832 155.233 52.8565 158.591 53.2924 160.261C53.7319 161.946 53.8283 166.489 53.8494 168.4C53.8516 168.602 53.5804 168.662 53.4969 168.478L50.1194 161.049C50.1083 161.024 50.1026 160.998 50.1026 160.971Z" fill="#3D3D3D"/>
<path d="M54.7935 174.487V173.346C54.7935 173.316 54.801 173.286 54.8148 173.259C58.1116 166.884 58.9041 162.151 58.6836 153.029C58.6783 152.809 58.9778 152.761 59.0316 152.975C60.8668 160.263 59.8089 165.401 58.2882 174.011C58.2744 174.09 58.212 174.153 58.1332 174.166L55.0112 174.672C54.8971 174.69 54.7935 174.602 54.7935 174.487Z" fill="#3D3D3D"/>
<path d="M30.3068 105.06V104.389C30.3068 104.228 30.497 104.143 30.6179 104.25C35.2239 108.293 37.2 111.18 40.405 116.399C40.4269 116.434 40.4367 116.477 40.432 116.518L39.6665 123.322C39.6455 123.508 39.3945 123.552 39.3117 123.384L30.3261 105.143C30.3134 105.117 30.3068 105.089 30.3068 105.06Z" fill="#3D3D3D"/>
<path d="M37.9285 133.202C35.2426 123.046 33.801 118.168 31.529 110.413C31.465 110.194 31.7719 110.07 31.8752 110.273L39.1942 124.659C39.2107 124.692 39.2174 124.728 39.2135 124.765L38.2973 133.176C38.2747 133.383 37.9817 133.403 37.9285 133.202Z" fill="#3D3D3D"/>
<path d="M25.2424 114.917C25.5193 109.588 27.9055 108.137 28.9415 103.648C28.9849 103.46 29.2568 103.44 29.3191 103.622C29.9428 105.45 30.3082 106.675 30.3069 108.783C30.3069 108.83 30.289 108.876 30.2581 108.91C27.9373 111.492 27.3346 113.776 26.5098 117.652C26.47 117.839 26.208 117.855 26.1475 117.674L25.2517 114.987C25.2443 114.965 25.2411 114.941 25.2424 114.917Z" fill="#3D3D3D"/>
<path d="M32.0151 136.82C25.9574 123.985 25.0801 117.742 30.3568 109.944C30.4464 109.811 30.6513 109.845 30.6919 109.999C32.0136 115.031 32.6088 118.209 34.5981 122.499C34.6138 122.533 34.6193 122.571 34.6135 122.608L32.3715 136.775C32.3427 136.957 32.0937 136.987 32.0151 136.82Z" fill="#3D3D3D"/>
<path d="M33.034 138.233C33.5088 132.555 34.0348 129.644 34.8471 124.85C34.8811 124.649 35.166 124.638 35.215 124.835L37.7091 134.896C37.7153 134.921 37.7163 134.947 37.7121 134.972L36.8042 140.418C36.7901 140.503 36.7204 140.568 36.6348 140.572C35.1803 140.648 34.3903 139.943 33.0771 138.37C33.0456 138.333 33.0299 138.282 33.034 138.233Z" fill="#3D3D3D"/>
<path d="M26.7276 135.171C24.6655 128.729 24.4409 124.567 25.1383 117.211C25.158 117.003 25.4505 116.978 25.5033 117.18L26.3618 120.47C26.3648 120.482 26.3668 120.495 26.3675 120.507C26.5433 123.417 25.4842 122.558 29.181 133.058C29.6871 134.821 29.5704 135.736 29.0067 137.117C28.9565 137.24 28.7973 137.271 28.7034 137.177L26.7737 135.247C26.7526 135.226 26.7367 135.2 26.7276 135.171Z" fill="#3D3D3D"/>
<path d="M27.131 145.909H26.4734C26.3648 145.909 26.2789 145.816 26.2863 145.707C26.5437 141.931 26.6825 139.725 26.7343 136.716C26.7373 136.547 26.9451 136.466 27.0602 136.59L28.9452 138.62C29.0466 138.729 28.9855 138.911 28.8456 138.962C27.1404 139.584 27.5497 142.477 27.3175 145.736C27.3106 145.833 27.229 145.909 27.131 145.909Z" fill="#3D3D3D"/>
<path d="M28.3366 140.562C28.0086 141.546 27.9673 144.751 27.9621 145.543C27.9614 145.643 28.0398 145.725 28.1395 145.731C29.9044 145.834 30.7324 146.1 31.9108 146.666C32.0078 146.713 32.1252 146.67 32.1634 146.569C32.4822 145.729 32.436 145.111 32.2769 144.033C31.9758 142.038 31.0782 141.187 29.7942 139.593C29.7622 139.553 29.7156 139.528 29.6646 139.529C29.4159 139.533 28.6489 139.625 28.3366 140.562Z" fill="#3D3D3D"/>
<path d="M29.2848 137.727C29.7946 137.128 29.9053 136.436 29.9824 135.386C29.9962 135.199 30.2461 135.144 30.3377 135.308C32.5018 139.171 33.8838 140.97 36.4923 141.03C36.5981 141.032 36.6847 141.12 36.6821 141.226C36.6042 144.363 36.2231 145.299 35.4337 146.284C35.3568 146.38 35.2098 146.374 35.1389 146.273L29.2702 137.968C29.2184 137.895 29.2266 137.795 29.2848 137.727Z" fill="#3D3D3D"/>
<path d="M32.626 146.975C32.9482 146.215 33.0264 145.601 33.033 144.728C33.0345 144.536 33.2886 144.464 33.3879 144.627L34.8545 147.047C34.8856 147.098 34.8903 147.161 34.8673 147.216L34.5183 148.054C34.4743 148.159 34.3468 148.201 34.2486 148.142L32.702 147.215C32.6202 147.166 32.5887 147.063 32.626 146.975Z" fill="#3D3D3D"/>
<path d="M34.0812 148.849C30.7911 146.035 29.0986 146.401 26.1355 146.648C26.0509 146.655 25.9804 146.717 25.965 146.801L25.3375 150.207C25.3354 150.218 25.3344 150.23 25.3344 150.241C25.328 159.482 25.339 164.734 28.7141 172.325C28.7818 172.477 29.0001 172.473 29.0594 172.317L29.6337 170.81C29.6445 170.782 29.6482 170.751 29.6447 170.721C28.6289 161.894 29.3487 157.628 33.9285 151.865C33.9524 151.835 33.967 151.798 33.9695 151.76L34.1473 149.004C34.1511 148.945 34.1259 148.887 34.0812 148.849Z" fill="#3D3D3D"/>
<path d="M33.6042 153.29C32.8228 154.662 31.0054 157.947 30.4944 159.698C29.8745 161.824 29.9234 168.797 29.9308 169.572C29.9308 169.572 33.0275 162.981 33.4028 161.574C33.7066 160.435 33.8874 155.301 33.9453 153.386C33.9511 153.192 33.7001 153.122 33.6042 153.29Z" fill="#3D3D3D"/>
<path d="M25.684 174.193C24.0598 165.387 23.2391 160.246 24.4002 153.55C24.4379 153.333 24.7382 153.358 24.7492 153.578C25.2413 163.465 25.8334 168.901 29.1492 173.909C29.1697 173.94 29.1808 173.976 29.1808 174.013V174.498C29.1808 174.61 29.084 174.697 28.973 174.685L25.8486 174.347C25.7662 174.338 25.699 174.274 25.684 174.193Z" fill="#3D3D3D"/>
<path d="M21.0027 76.9777C18.3854 80.1331 17.8304 82.3146 17.0913 86.2562C17.0811 86.3106 17.0956 86.3675 17.1296 86.4111C17.7839 87.2482 17.9429 88.1695 18.0923 89.9187C18.1007 90.0177 18.1848 90.0935 18.284 90.0885C20.2429 89.9895 21.7676 89.0297 24.4069 87.3323C24.4567 87.3002 24.4892 87.245 24.4936 87.186C24.7209 84.1271 25.4503 82.8459 26.4452 80.3687C26.4529 80.3495 26.4575 80.3288 26.4586 80.3081L26.9005 71.7069C26.9097 71.527 26.6832 71.4396 26.5668 71.577C24.2493 74.3108 23.0369 75.3642 21.031 76.95C21.0208 76.9581 21.0111 76.9677 21.0027 76.9777Z" fill="#3D3D3D"/>
<path d="M18.0819 90.9671C16.6489 97.8288 14.0903 101.101 9.60382 106.817C9.53569 106.904 9.55563 107.032 9.64829 107.092L10.8766 107.886C10.9766 107.951 11.1134 107.901 11.157 107.79C15.7897 96.0083 21.9301 101.16 23.9551 88.4391C23.9801 88.2819 23.8113 88.1586 23.6772 88.2443C21.9468 89.3494 21.1851 90.172 18.2287 90.8192C18.1559 90.8352 18.0971 90.8941 18.0819 90.9671Z" fill="#3D3D3D"/>
<path d="M8.66113 106.382L7.91064 105.768C7.83937 105.71 7.82178 105.607 7.86792 105.527C9.98668 101.868 10.8229 100.11 11.6302 97.6098C11.6324 97.6029 11.6342 97.5963 11.6356 97.5892C11.6764 97.3876 12.3177 94.2463 13.1347 92.1588C13.8341 90.3715 15.8855 88.1981 16.5691 87.5047C16.6696 87.4028 16.8394 87.4541 16.8732 87.5932C18.5788 94.6036 14.0534 98.9357 8.93564 106.342C8.87323 106.432 8.7461 106.451 8.66113 106.382Z" fill="#3D3D3D"/>
<path d="M27.295 69.9383C24.9111 72.7739 23.4814 74.1602 21.0085 76.0923C20.8909 76.1842 20.7205 76.1101 20.7127 75.9611C20.6284 74.3602 20.442 67.6266 23.0795 65.2367C25.6743 62.8856 29.3203 62.7767 30.2621 62.7905C30.3814 62.7922 30.4609 62.9061 30.4282 63.0208C29.7335 65.4589 29.0605 67.0224 27.3122 69.9143C27.3072 69.9226 27.3013 69.9309 27.295 69.9383Z" fill="#3D3D3D"/>
<path d="M27.4922 77.0144V73.1018C27.4922 72.9142 27.7372 72.8428 27.8381 73.001L30.5914 77.3215C30.694 77.4826 30.5205 77.6717 30.3506 77.5845C29.5603 77.1787 29.02 76.9765 27.7173 77.2008C27.6009 77.2208 27.4922 77.1324 27.4922 77.0144Z" fill="#3D3D3D"/>
<path fill-rule="evenodd" clip-rule="evenodd" d="M48.9735 46.5696C48.8699 46.5696 48.7859 46.4856 48.7859 46.382C48.7859 46.4856 48.8699 46.5696 48.9735 46.5696ZM37.0617 51.7662C37.0617 51.7431 37.0493 51.7218 37.0293 51.7103C37.0083 51.6982 36.9876 51.6859 36.967 51.6736L37.0617 51.7662ZM47.044 51.2162C47.0175 51.2446 47.0005 51.2805 46.9952 51.3189C47.0005 51.2805 47.0181 51.2441 47.0445 51.2157C47.0443 51.2158 47.0441 51.216 47.044 51.2162Z" fill="#3D3D3D"/>
<path fill-rule="evenodd" clip-rule="evenodd" d="M9.23536 109.44C9.26937 109.372 9.25281 109.29 9.19887 109.236C9.25281 109.29 9.26937 109.372 9.23536 109.44ZM8.87415 109.158C8.94895 109.094 9.06055 109.098 9.13016 109.167C9.06055 109.098 8.94895 109.094 8.87415 109.158Z" fill="#3D3D3D"/>
<path fill-rule="evenodd" clip-rule="evenodd" d="M79.4566 108.756L79.4647 108.762L79.4725 108.767C79.4699 108.765 79.4669 108.764 79.4647 108.762C79.4618 108.76 79.4596 108.759 79.4566 108.756ZM75.5798 109.573C75.5443 109.535 75.4936 109.512 75.4423 109.521C75.4941 109.512 75.544 109.534 75.5798 109.573ZM76.9906 111.27C77.0131 111.286 77.0254 111.295 77.0254 111.295L77.0685 111.302C77.0397 111.297 77.0143 111.287 76.9906 111.27ZM84.5218 117.848L84.5309 117.861C84.5309 117.861 84.535 117.865 84.5424 117.873C84.5393 117.87 84.5363 117.867 84.5335 117.863C84.5296 117.859 84.5253 117.853 84.5218 117.848ZM78.3001 116.543L78.245 116.454H78.1408C78.2056 116.454 78.2659 116.488 78.3001 116.543ZM75.7617 116.18L75.7119 116.079C75.7119 116.079 75.6595 116.079 75.5962 116.093C75.666 116.078 75.7301 116.116 75.7617 116.18ZM75.2555 116.512C75.2474 116.534 75.2428 116.548 75.2428 116.548L75.2458 116.585C75.2438 116.56 75.2469 116.536 75.2555 116.512Z" fill="#3D3D3D"/>
<path d="M20.1742 186.808C19.7989 187.84 24.9129 189.238 26.5539 189.622C28.1831 190.004 30.3304 181.676 29.2057 175.589C29.1911 175.51 29.1271 175.45 29.0473 175.439L25.906 175.015C25.7993 175.001 25.7027 175.077 25.6914 175.184C25.2034 179.808 20.5442 185.79 20.1742 186.808Z" fill="#3D3D3D"/>
<path d="M63.9845 186.808C64.266 185.87 58.6369 177.803 58.2648 177.24C57.9772 176.805 57.9641 175.697 57.973 175.217C57.9752 175.098 57.8708 175.005 57.7536 175.022L54.948 175.435C54.8585 175.448 54.7913 175.518 54.7881 175.608C54.7423 176.897 54.4253 186.01 54.6027 186.62C54.7935 187.277 56.8543 189.903 57.6987 189.997C58.543 190.091 63.7031 187.746 63.9845 186.808Z" fill="#3D3D3D"/>
<path d="M84.5309 112.983C84.5309 112.89 81.8102 109.982 81.5287 109.888C81.2581 109.798 79.6 108.84 79.4725 108.767L79.4647 108.762L79.4566 108.756L77.1305 107.057C77.0673 107.011 76.982 107.008 76.9166 107.051L73.55 109.266C73.4944 109.303 73.4623 109.366 73.4657 109.432L73.741 114.845C73.7415 114.855 73.7427 114.864 73.7445 114.873L74.7594 119.855C74.7686 119.9 74.7942 119.94 74.8313 119.968L75.1395 120.197C75.148 120.203 75.1569 120.209 75.1665 120.213C75.2117 120.233 75.3524 120.284 75.4305 120.206C75.5186 120.118 75.2754 116.965 75.2458 116.585L75.2428 116.548C75.2428 116.548 75.2474 116.534 75.2555 116.512C75.2841 116.433 75.3573 116.246 75.4305 116.173C75.4747 116.129 75.5397 116.105 75.5962 116.093C75.6595 116.079 75.7119 116.079 75.7119 116.079L75.7617 116.18C76.1529 116.974 78.7213 122.183 78.8079 122.27C78.9018 122.364 79.0894 122.364 79.1832 122.27C79.277 122.176 79.3709 122.083 79.3709 121.989C79.3709 121.895 78.0574 117.805 78.0574 117.58C78.0574 117.366 78.0011 117.192 77.9686 117.121C77.9653 117.114 77.9615 117.108 77.9573 117.101C77.9246 117.051 77.7759 116.819 77.7759 116.736C77.7759 116.642 77.9636 116.454 78.0574 116.454H78.1408H78.245L78.3001 116.543L81.3009 121.361C81.3267 121.403 81.3674 121.433 81.4148 121.443C81.5337 121.47 81.7681 121.52 81.904 121.52C82.0916 121.52 82.1854 121.613 82.2792 121.52C82.3623 121.437 82.2983 121.133 82.2825 121.065C82.2804 121.055 82.2781 121.048 82.2744 121.039C82.159 120.765 80.0301 115.699 80.1214 115.516C80.2152 115.329 80.3091 115.329 80.4967 115.329C80.6843 115.329 84.3433 118.799 84.5309 118.799C84.7185 118.799 85 118.518 85 118.424C85 118.339 84.6143 117.945 84.5424 117.873C84.535 117.865 84.5309 117.861 84.5309 117.861L84.5218 117.848C83.4867 116.374 81.4159 113.433 81.3411 113.359C81.266 113.284 80.9658 112.045 80.7781 111.952C80.6027 111.864 77.4738 111.366 77.0685 111.302L77.0254 111.295C77.0254 111.295 77.0131 111.286 76.9906 111.27C76.7275 111.081 75.0628 109.873 75.1522 109.7C75.2152 109.578 75.3532 109.536 75.4423 109.521C75.4936 109.512 75.5443 109.535 75.5798 109.573C75.7978 109.807 76.5956 110.651 76.8377 110.732C77.1192 110.826 79.4647 111.295 79.9338 111.295C80.4029 111.295 84.1556 113.265 84.3433 113.171C84.5309 113.077 84.5309 113.077 84.5309 112.983Z" fill="#3D3D3D"/>
<path d="M0.562914 113.546C0.750552 113.64 4.22185 111.295 4.59713 111.107C4.97241 110.92 6.84879 110.638 7.22406 110.451C7.52894 110.298 8.51495 109.465 8.87415 109.158C8.94895 109.094 9.06055 109.098 9.13016 109.167L9.19887 109.236C9.25281 109.29 9.26937 109.372 9.23536 109.44C8.41184 111.094 5.41235 111.39 4.00594 111.836C3.96286 111.85 3.92973 111.876 3.90673 111.915C3.52363 112.562 0 118.523 0 118.612C0 118.706 0.300221 118.968 0.375276 118.893C0.450331 118.818 4.59713 114.297 4.69095 114.297C4.78477 114.297 4.87859 114.391 4.87859 114.484C4.87859 114.574 2.36572 119.776 2.16991 120.181C2.16102 120.2 2.15656 120.217 2.15422 120.237C2.13789 120.378 2.07536 120.968 2.15784 121.051C2.22406 121.117 2.38377 121.09 2.47199 121.068C2.51204 121.058 2.54364 121.035 2.56679 121.001C2.95012 120.436 6.47861 115.235 6.56733 115.235C6.66115 115.235 6.75497 115.329 6.75497 115.422C6.75497 115.493 5.96337 118.782 5.56757 120.422C5.43675 120.964 5.34915 121.326 5.34768 121.332C5.34411 121.347 5.25574 121.709 5.34768 121.801C5.4415 121.895 5.53532 121.989 5.62914 121.989H5.9106C6.00148 121.989 6.26847 121.284 6.28506 121.24L6.28587 121.238C6.30446 121.192 8.63172 115.422 8.72517 115.422H9.00662C9.10044 115.422 9.10044 115.798 9.10044 115.798V116.158C9.10044 116.168 9.10126 116.178 9.10288 116.188L9.73154 120.049C9.74632 120.14 9.82474 120.206 9.91674 120.206H10.032C10.0948 120.206 10.1534 120.175 10.1882 120.123L10.2886 119.972C10.3091 119.941 10.3201 119.905 10.3201 119.868V119.644C10.231 115.004 10.446 112.724 10.871 108.78C10.8783 108.712 10.848 108.644 10.7918 108.605L7.88951 106.582C7.82741 106.539 7.74662 106.536 7.68319 106.578C4.51898 108.637 0.377312 113.453 0.562914 113.546Z" fill="#3D3D3D"/>
<path d="M35.2759 45.9129C35.1821 46.0067 34.8068 46.2882 34.713 46.5696C34.6272 46.8269 34.6983 47.9467 34.7111 48.1368C34.7124 48.1554 34.7166 48.1734 34.7233 48.1908C35.3966 49.9305 35.7723 50.9563 36.967 51.6736C36.9876 51.6859 37.0083 51.6982 37.0293 51.7103C37.0493 51.7218 37.0617 51.7431 37.0617 51.7662V51.8382V53.5316C37.0617 53.5788 37.08 53.6248 37.1122 53.6594C38.6945 55.3602 39.7237 55.8089 41.6121 56.222C41.6155 56.2227 41.6193 56.2235 41.6228 56.224C41.648 56.228 41.6742 56.2268 41.6988 56.2205L41.7246 56.214C43.5083 55.7623 44.5372 55.5017 46.566 54.0277C46.6072 53.9978 46.6352 53.9517 46.6421 53.9012L46.9952 51.3189C47.0005 51.2805 47.0175 51.2446 47.044 51.2162C47.0441 51.216 47.0443 51.2158 47.0445 51.2157C48.6294 49.5127 49.1965 48.5022 49.1663 46.75C49.1645 46.6493 49.0815 46.5696 48.9807 46.5696H48.9735C48.8699 46.5696 48.7859 46.4856 48.7859 46.382V41.3438C48.7859 41.3257 48.7841 41.3104 48.7785 41.2932C48.6668 40.9489 47.2485 36.9117 42.2185 37.0015C37.2392 37.0904 35.3779 41.0551 35.197 41.4692C35.1862 41.4938 35.1826 41.5161 35.1838 41.5429C35.2022 41.9722 35.3645 45.8244 35.2759 45.9129Z" fill="#3D3D3D"/>
<path d="M41.924 56.8868C39.7499 56.7147 38.951 56.0747 37.7493 55.0083C37.6283 54.9011 37.437 54.9863 37.437 55.148V56.8565C37.437 56.8774 37.4405 56.8982 37.4473 56.918L41.3904 68.2974C41.4483 68.4645 41.6843 68.4647 41.7441 68.2984L41.7514 68.2778C43.4112 63.5997 44.3219 60.6683 46.6034 56.9337C46.6214 56.9041 46.6313 56.8698 46.6313 56.8352V55.1178C46.6313 54.9611 46.4493 54.8738 46.3249 54.9692C44.4576 56.403 43.4848 56.7422 41.9565 56.8866L41.9403 56.8881L41.924 56.8868Z" fill="#3D3D3D"/>
<path d="M36.878 58.1378C35.9554 60.1196 35.118 61.0898 33.7282 61.8143C33.5366 61.9142 33.6188 62.259 33.8346 62.2481C35.7689 62.1506 37.1109 62.2415 38.7962 62.904C38.9525 62.9654 39.111 62.8101 39.0481 62.6545L37.2279 58.144C37.1658 57.9902 36.948 57.9874 36.878 58.1378Z" fill="#3D3D3D"/>
<path d="M46.4031 58.2062L44.3308 62.5095C44.2686 62.6386 44.3684 62.7869 44.5114 62.7781L50.7017 62.396C50.9122 62.3831 50.9458 62.0805 50.7449 62.0166C48.68 61.3599 47.4653 60.6228 46.7668 58.2417C46.7171 58.0724 46.4796 58.0473 46.4031 58.2062Z" fill="#3D3D3D"/>
<path d="M27.5218 70.3942C28.5723 73.6456 29.6394 75.3095 31.751 78.1066C31.7864 78.1535 31.8424 78.1818 31.9012 78.1818H36.2665C36.2959 78.1818 36.3252 78.1747 36.3514 78.1615C37.9905 77.335 38.9154 76.8582 41.157 76.0687C41.2322 76.0422 41.2836 75.9709 41.2836 75.8912V69.4928C41.2836 69.4698 41.2792 69.4467 41.271 69.4252C39.8961 65.8349 39.8694 62.8276 35.5606 63.0792H31.2776C31.2012 63.0792 31.132 63.1265 31.1033 63.1974L31.0646 63.293C29.8573 66.2769 29.1487 68.0282 27.549 70.2245C27.5137 70.273 27.5033 70.337 27.5218 70.3942Z" fill="#3D3D3D"/>
<path d="M46.256 63.0792C42.9753 62.9733 43.1379 66.1588 41.9517 69.4266C41.9442 69.4473 41.9403 69.4692 41.9403 69.4912V75.8749C41.9403 75.9623 42.001 76.0382 42.0861 76.0581C43.8168 76.4626 44.8937 76.8516 47.0515 78.3358C47.0829 78.3574 47.1207 78.3694 47.1588 78.3694H52.262C52.3202 78.3694 52.3755 78.342 52.4109 78.2959C54.1573 76.026 55.0784 74.4289 56.3632 70.3817C56.379 70.3318 56.3733 70.2757 56.3473 70.2303C54.89 67.6823 54.0033 66.0203 52.4098 62.9064C52.3762 62.8409 52.307 62.8 52.2335 62.8034L46.256 63.0792Z" fill="#3D3D3D"/>
</g>
<path d="M102.206 63.2448L102.197 63.1434C102.197 63.1434 108.644 69.3535 110.141 70.8485C111.638 72.3435 114.285 78.7836 114.285 78.7836C109.375 76.7759 106.659 76.9106 101.852 78.2086C103.006 72.1373 102.717 68.9228 102.206 63.2448Z" fill="#3D3D3D"/>
<path d="M117.394 50.9532C112.244 57.3541 111.568 61.3935 108.99 68.3184C112.404 71.8937 113.484 74.4922 115.091 79.3586C116.458 80.1526 117.044 81.1831 118.085 83.0386V51.6432L117.394 50.9532Z" fill="#3D3D3D"/>
<path d="M99.5495 49.3432L100.125 44.8581C103.74 45.7415 106.194 45.897 112.213 44.8581L116.933 50.3782C112.438 55.6698 110.398 56.8995 107.263 57.2783C104.321 56.8028 102.948 56.0327 100.931 53.9433L99.5495 49.3432Z" fill="#3D3D3D"/>
<path d="M105.421 28.6429L102.197 29.3329L106.112 33.243L107.263 37.613L118.085 50.3782V32.323C117.43 30.1424 116.623 29.4262 114.746 28.6429H105.421Z" fill="#3D3D3D"/>
<path d="M121.999 28.6429C120.193 29.9071 119.467 30.706 118.775 32.323V50.9532L127.525 40.6031C129.314 38.3059 129.625 36.8297 130.058 34.163C131.451 31.1332 132.519 30.0036 135.123 29.3329L121.999 28.6429Z" fill="#3D3D3D"/>
<path d="M118.775 30.1379V26.8029C119.399 27.6475 119.812 28.0292 120.848 28.2979C119.792 28.9253 119.408 29.3541 118.775 30.1379Z" fill="#3D3D3D"/>
<path d="M118.085 30.1379V26.8029C117.337 27.5169 116.804 27.8541 115.552 28.2979C116.594 28.8893 117.159 29.2773 118.085 30.1379Z" fill="#3D3D3D"/>
<path d="M118.085 24.9629V12.8877C114.945 13.7292 114.041 15.7895 111.983 18.6378C111.5 22.279 112.624 24.2771 107.263 28.0679H113.825C116.221 27.5857 117.122 26.904 118.085 24.9629Z" fill="#3D3D3D"/>
<path d="M118.775 24.9629V12.8877C121.097 14.5579 121.93 16.0099 123.38 18.6378C123.31 23.6007 124.506 25.4945 127.755 28.0679H121.654C119.578 27.0723 119.208 26.3325 118.775 24.9629Z" fill="#3D3D3D"/>
<path d="M118.2 12.1977C114.761 12.803 113.854 14.7073 111.983 17.7178C110.559 16.1039 110.35 15.2824 109.911 13.8077V11.2777L110.486 11.1627C110.486 11.1627 108.299 0.352541 118.2 0.00753633C128.101 -0.337468 126.028 11.2777 126.028 11.2777H126.374V13.8077L125.683 15.7627C124.919 16.1085 124.577 16.325 124.301 16.7978L123.841 17.9478C121.692 13.9601 120.453 12.8109 118.2 12.1977Z" fill="#3D3D3D"/>
<path d="M106.112 36.463C104.139 39.4414 102.677 40.136 100.125 41.5231V43.9381C101.707 44.5046 102.659 44.7386 104.615 44.8581L104.626 44.8574C107.573 44.6675 109.227 44.5608 111.753 43.9381C108.959 41.2749 107.907 39.5588 106.112 36.463Z" fill="#3D3D3D"/>
<path d="M91.6058 34.623C90.28 37.2474 89.8258 39.0815 90.1092 43.7081C95.1128 42.828 97.8549 42.1711 103.233 38.648C105.475 36.8248 105.488 35.8256 105.306 34.048C104.287 31.351 102.894 30.8571 100.931 29.3329C96.8205 30.196 94.7633 31.298 91.6058 34.623Z" fill="#3D3D3D"/>
<path d="M88.2672 50.9532L89.7638 44.2831C92.7778 44.1662 94.4632 43.7416 97.4772 42.5581C94.9708 47.155 92.7122 48.6999 88.2672 50.9532Z" fill="#3D3D3D"/>
<path d="M98.3982 42.3281C97.6608 44.104 97.023 45.1704 95.2898 47.2732C94.9623 51.6435 95.5449 52.3399 96.326 54.1732C97.2493 51.8002 97.8027 50.5374 99.089 48.8832C99.363 46.0585 99.4695 44.4949 99.5495 41.7531L98.3982 42.3281Z" fill="#3D3D3D"/>
<path d="M95.9806 55.0933C94.5868 52.3347 94.6302 50.7615 94.484 47.9632C91.5774 50.2058 90.1948 50.9473 87.9218 51.8732C87.9218 51.8732 84.3529 59.0033 84.4681 59.3483C84.5832 59.6933 87.3462 62.5684 87.5764 62.6834C87.8067 62.7984 92.4117 63.3734 92.642 63.1434C92.8722 62.9134 95.9806 55.0933 95.9806 55.0933Z" fill="#3D3D3D"/>
<path d="M87.5764 63.6034L84.2378 60.0383C78.5024 70.3083 77.3802 76.2335 74.337 86.7187C74.337 86.7187 75.6034 88.2137 76.179 88.4437C76.7547 88.6737 78.7118 89.1337 78.7118 89.1337C82.0504 79.1286 90.203 73.709 92.4117 63.8334L87.5764 63.6034Z" fill="#3D3D3D"/>
<path d="M119.927 50.9532L118.775 51.9882V83.0386C119.591 81.19 120.219 80.3101 121.769 79.1286C122.894 72.8783 124.561 70.2507 129.021 66.8234L119.927 50.9532Z" fill="#3D3D3D"/>
<path d="M129.712 66.4784L123.265 55.0933C125.681 56.708 127.015 57.6849 129.942 57.3933C132.817 56.6229 133.708 55.6444 135.353 53.9433L133.511 64.0634L129.712 66.4784Z" fill="#3D3D3D"/>
<path d="M113.825 55.0933C111.05 59.4775 110.094 62.5196 108.299 67.8584C105.452 64.6121 104.107 63.5527 101.852 62.1083L100.931 55.0933C103.699 57.5224 104.99 57.6889 107.263 57.8533C109.596 57.7329 110.932 57.5479 113.825 55.0933Z" fill="#3D3D3D"/>
<path d="M133.511 64.8684C125.17 69.0841 123.055 74.1835 122.69 78.7836C124.779 77.7364 124.196 76.9164 133.511 76.8285V64.8684Z" fill="#3D3D3D"/>
<path d="M124.992 44.8581L120.272 50.3782C124.498 55.8253 126.571 56.6986 130.058 56.7033C132.703 55.4218 133.978 54.4084 135.814 51.9882L136.159 49.3432C135.163 47.7331 135.104 46.5595 135.123 44.3981C130.357 46.2847 128.622 45.365 124.992 44.8581Z" fill="#3D3D3D"/>
<path d="M130.058 36.463C129.589 40.3999 127.802 41.577 125.683 44.3981L131.9 44.6281C133.135 44.5196 133.862 44.5775 134.778 43.3631L134.663 40.3731C132.314 39.0833 131.561 38.1175 130.058 36.463Z" fill="#3D3D3D"/>
<path d="M136.735 41.1781L135.353 40.6031L135.814 46.1231C136.481 49.2366 137.158 50.9454 138.807 53.9433C140 51.8361 140.455 50.5608 140.534 47.9632C139.035 46.1579 138.203 44.8052 136.735 41.1781Z" fill="#3D3D3D"/>
<path d="M137.967 41.7198L137.886 41.5231L145.024 43.3631C145.107 46.4011 145.385 48.0715 146.636 50.9532C141.047 49.1914 139.925 46.4685 137.967 41.7198Z" fill="#3D3D3D"/>
<path d="M136.18 29.3403L136.159 29.3329L136.082 29.3658C133.162 30.611 131.501 31.3193 130.633 34.968C131.266 36.7511 132.162 37.5909 134.087 38.993C138.407 41.1501 140.799 41.7852 145.024 42.3281C144.719 38.2042 144.094 36.0782 141.8 32.783C140.272 30.8346 138.797 30.2962 136.18 29.3403Z" fill="#3D3D3D"/>
<path d="M141.225 48.8832C140.927 51.4995 140.311 52.7988 139.152 55.0933L143.067 63.8334C144.676 63.7241 145.579 63.638 147.211 63.1434C148.754 62.4181 149.326 61.8054 150.205 60.6133L146.636 51.9882C144.531 51.3851 143.347 50.8959 141.225 48.8832Z" fill="#3D3D3D"/>
<path d="M143.527 69.0084C142.837 67.1684 143.527 64.5234 143.527 64.5234L147.787 63.8334L150.665 61.4183C155.151 71.5503 157.476 77.2129 160.22 87.1787C160.22 87.1787 158.954 88.4437 158.033 89.0187C157.112 89.5937 155.27 89.5937 155.27 89.5937C151.181 80.1532 144.218 70.8485 143.527 69.0084Z" fill="#3D3D3D"/>
<path d="M120.848 108.454L120.042 102.014C123.05 103.79 124.892 104.49 127.985 105.119C128.456 114.519 129.249 118.725 131.439 124.669C133.112 133.753 131.534 135.3 129.827 139.619L129.367 138.814C128.466 126.323 127.159 119.529 120.848 108.454Z" fill="#3D3D3D"/>
<path d="M128.676 136.859L120.848 109.949C120.848 109.949 125.453 120.644 126.028 122.484C126.604 124.324 128.676 136.859 128.676 136.859Z" fill="#3D3D3D"/>
<path d="M135.123 105.119H128.676C129.618 117.137 129.894 123.938 138.692 133.984L137.886 119.724C135.314 113.09 135.468 110.365 135.123 105.119Z" fill="#3D3D3D"/>
<path d="M136.044 106.844C136.044 103.394 137.886 98.9088 137.886 98.9088V108.454V117.999C137.886 117.999 136.044 110.294 136.044 106.844Z" fill="#3D3D3D"/>
<path d="M132.59 127.199C133.469 132.147 132.667 133.445 131.9 136.514L133.742 136.054C133.742 136.054 134.317 134.559 134.893 133.984C135.468 133.409 136.965 133.409 136.965 133.409C134.33 130.963 133.808 129.613 132.59 127.199Z" fill="#3D3D3D"/>
<path d="M133.281 136.859C131.065 138.142 130.908 138.98 130.173 140.424C130.956 144.118 131.309 146.466 131.554 151.925C131.865 155.017 132.614 156.52 133.742 159.285C133.742 159.285 138.001 157.905 138.692 153.65C139.383 149.394 133.281 136.859 133.281 136.859Z" fill="#3D3D3D"/>
<path d="M135.814 134.329C134.663 134.674 134.547 136.514 134.547 136.514C136.467 141.186 137.587 141.156 139.383 153.19C140.448 155.305 143.246 156.544 143.527 155.605C143.758 149.28 138.692 135.364 138.692 135.364C138.692 135.364 136.965 133.984 135.814 134.329Z" fill="#3D3D3D"/>
<path d="M133.742 160.09C136.553 159.458 137.723 158.027 139.383 154.34C140.487 155.732 141.177 156.458 143.527 156.87C142.12 165.595 141.929 170.758 142.376 180.33L143.182 180.56C142.606 172.561 142.368 168.136 143.988 161.7C144.475 174.268 146.68 185.964 142.376 187C139.413 186.585 138.475 184.361 137.08 179.64C136.697 175.895 136.825 174.121 138.692 172.51C139.685 174.495 139.958 176.441 140.304 180.33C140.396 180.698 140.803 180.483 140.995 180.33C139.682 169.227 137.225 166.626 133.742 160.09Z" fill="#3D3D3D"/>
<path d="M97.8226 118.459V108.684V98.9088C97.8226 98.9088 100.087 104.943 100.01 108.454C99.9332 111.965 98.0585 118.638 97.8226 118.459Z" fill="#3D3D3D"/>
<path d="M97.1318 133.409C104.248 131.16 105.484 121.515 107.838 104.774L100.47 105.119C100.47 105.119 100.816 112.709 100.01 114.664C99.2041 116.619 97.5923 119.954 97.5923 119.954L97.1318 133.409Z" fill="#3D3D3D"/>
<path d="M102.312 134.674C101.674 133.49 100.942 133.254 99.4343 133.064C101.12 131.564 101.662 132.447 104.385 126.509C103.876 129.44 103.689 131.133 104.385 134.674C103.332 134.086 102.92 134.183 102.312 134.674Z" fill="#3D3D3D"/>
<path d="M117.048 101.554C113.649 104.162 111.866 104.211 108.644 104.774C107.684 111.101 107.238 114.576 105.766 120.529C103.501 131.024 104.679 133.47 106.572 138.124L107.378 136.514C109.221 124.572 108.838 117.652 116.243 107.419L117.048 101.554Z" fill="#3D3D3D"/>
<path d="M115.667 111.789C115.667 111.789 111.638 121.564 111.407 122.484C111.177 123.404 108.275 134.329 108.275 134.329C108.275 134.329 110.026 122.484 110.717 121.104C111.407 119.724 115.667 109.029 115.667 109.029V111.789Z" fill="#3D3D3D"/>
<path d="M96.7864 136.514V134.674C96.7864 134.674 99.7797 133.639 100.701 133.984C101.622 134.329 101.622 136.054 101.622 136.054L99.7797 140.999C97.6875 145.299 97.6871 148.067 96.7864 152.73C94.6427 156.142 93.4765 155.594 91.3756 156.065C91.7249 145.662 93.7063 142.632 96.7864 136.514Z" fill="#3D3D3D"/>
<path d="M91.3756 157.56V156.87C93.3604 156.226 93.7538 157.298 97.2469 153.65C98.1875 156.628 99.1217 157.703 101.391 158.71L97.7074 168.14C95.6483 172.317 94.7637 174.855 94.4839 180.33H95.4049C95.2861 176.672 95.2928 174.674 96.7864 172.165C98.335 175.198 98.7698 176.971 98.3982 180.33C96.7219 184.303 95.6053 186.028 92.8722 187C90.7492 186.495 90.2634 185.577 90.2243 183.205L91.0302 158.71C91.8539 160.191 92.4686 160.621 92.2966 164.69L91.9512 179.64H92.8722L92.8768 179.508C93.0993 173.141 93.2253 169.534 92.8722 160.895C92.5427 159.486 92.2501 158.744 91.3756 157.56Z" fill="#3D3D3D"/>
<path d="M97.7074 153.65C98.4349 145.357 99.8059 141.986 102.312 136.054L102.658 135.364C102.658 135.364 102.888 135.019 103.233 134.904C103.579 134.789 104.385 135.364 104.385 135.364L106.227 138.814C104.685 142.23 104.96 149.51 104.385 151.12C103.809 152.73 101.622 158.135 101.622 158.135C99.055 157.291 98.7224 155.85 97.7074 153.65Z" fill="#3D3D3D"/>
<path d="M73.7614 87.5237C69.705 91.2971 67.89 96.9538 68.0051 97.0688C68.1203 97.1838 68.3505 97.0688 68.3505 97.0688L70.5379 94.6538V95.3438L69.8471 97.4138L68.3505 102.704C68.3505 102.704 68.0051 103.164 68.0051 103.279C68.0051 103.394 68.3505 103.279 68.3505 103.279L68.9261 102.934L69.6169 101.209L71.1135 97.8738C71.1135 97.8738 71.3438 97.7588 71.574 97.7588C71.8043 97.7588 71.8043 98.1038 71.8043 98.1038L71.574 99.0238L70.5379 105.004C70.5379 105.004 70.7681 105.464 70.8833 105.349C70.9984 105.234 71.3438 104.544 71.3438 104.544L71.574 103.969L73.1858 98.5638C73.1858 98.5638 73.416 98.4488 73.5312 98.5638C73.6463 98.6788 73.5312 99.4838 73.5312 99.4838C73.5312 99.4838 73.416 105.694 73.5312 105.809C73.6463 105.924 73.9917 106.039 74.1068 105.809C74.2219 105.579 74.337 104.544 74.337 104.544L74.5673 102.934L74.9127 100.864L75.258 99.4838C75.258 99.4838 75.258 99.0238 75.4883 99.0238C75.7185 99.0238 75.6034 99.2538 75.6034 99.2538L75.8337 99.9438L76.179 103.279C76.179 103.279 76.2942 104.429 76.4093 104.544C76.5244 104.659 76.7547 104.659 76.9849 104.544C77.2152 104.429 77.2152 103.739 77.2152 103.739L77.3303 102.819C77.2572 97.4372 78.942 94.9988 78.7118 90.0537C76.4952 89.4837 75.4709 88.8398 73.7614 87.5237Z" fill="#3D3D3D"/>
<path d="M160.451 87.9837C158.34 90.2936 157.257 90.1721 155.27 90.7437C154.874 96.0693 157.068 101.979 157.112 102.819C157.156 103.659 157.242 104.026 157.457 104.544C157.457 104.544 157.688 104.659 157.803 104.544C157.918 104.429 157.803 103.969 157.803 103.969L158.033 102.589V100.174L158.263 99.2538H158.609C158.839 99.3688 160.451 105.579 160.451 105.579H160.911C160.911 105.579 161.141 105.809 161.372 105.579C161.602 105.349 160.451 99.9438 160.451 99.9438V99.2538C160.451 99.2538 160.681 98.7938 160.911 98.7938C161.141 98.7938 164.135 105.234 164.48 105.234C164.825 105.234 164.71 104.889 164.71 104.889L162.523 98.7938C162.523 98.7938 162.293 98.2188 162.523 98.1038C162.753 97.9888 162.868 98.1038 162.868 98.1038L166.207 102.589C166.207 102.589 166.667 102.704 166.898 102.589C167.128 102.474 166.898 102.129 166.898 102.129L163.329 95.6888C163.329 95.6888 162.868 95.4588 162.868 95.1138C162.868 94.7688 163.329 94.6538 163.329 94.6538C163.329 94.6538 166.667 96.3788 166.898 96.2638C167.128 96.1488 166.898 95.9188 166.898 95.9188L160.451 87.9837Z" fill="#3D3D3D"/>
<path d="M118.775 84.4187C121.48 80.7422 121.571 77.9231 130.863 77.7486L131.209 78.2086C131.843 86.3548 133.884 90.4803 137.503 97.7968L137.541 97.8738C136.245 100.124 135.998 101.624 135.584 104.314C126.013 105.209 123.264 103.251 118.775 99.3689V84.4187Z" fill="#3D3D3D"/>
<path d="M104.27 78.5536L102.428 87.5237L97.8226 97.8738C99.7308 100.341 99.9639 101.77 100.47 104.314C109.895 104.125 114.553 103.591 118.085 99.3689V84.4187C116.464 81.5475 115.056 80.3709 112.213 78.5536C108.453 77.97 106.71 77.9664 104.27 78.5536Z" fill="#3D3D3D"/>
<path d="M101.507 79.1286L103.694 78.5536L102.197 85.5687L97.8226 96.0338L100.01 85.5687L101.507 79.1286Z" fill="#3D3D3D"/>
<path d="M131.669 77.7486H133.511C134.659 83.6082 135.452 86.8402 137.195 92.4688C137.742 94.1638 137.875 95.178 137.886 97.0688C134.621 89.7531 132.973 85.6021 131.669 77.7486Z" fill="#3D3D3D"/>
</svg>
