<svg width="167" height="135" viewBox="0 0 167 135" fill="none" xmlns="http://www.w3.org/2000/svg">
<g opacity="0.75">
<path d="M29.5346 81.6932C28.7126 79.6045 28.1042 78.7352 26.9846 77.405C26.9497 77.3635 26.934 77.3086 26.9422 77.255L27.2866 75.0171C27.2976 74.9458 27.3506 74.8862 27.4201 74.8665C30.9263 73.8707 31.9989 76.6896 34.4797 79.4427C34.5109 79.4774 34.5286 79.5227 34.5286 79.5693V85.315C34.5286 85.484 34.3218 85.5672 34.2031 85.4468C32.5693 83.7891 31.4757 83.0484 29.6617 81.8196L29.6049 81.7812C29.5735 81.7599 29.5485 81.7285 29.5346 81.6932Z" fill="#3D3D3D"/>
<path d="M34.0301 78.1516L32.7622 76.3204C32.6761 76.196 32.7652 76.026 32.9165 76.026H35.1625C35.3211 76.026 35.4089 76.2114 35.3124 76.3373C34.8489 76.9421 34.6073 77.4161 34.3675 78.1033C34.3162 78.2503 34.1188 78.2796 34.0301 78.1516Z" fill="#3D3D3D"/>
<path d="M53.8855 74.2144C54.7405 72.9914 55.2277 72.0029 55.7748 70.6115C55.8498 70.4209 56.1366 70.4668 56.1449 70.6714L56.2854 74.1114C56.2902 74.2288 56.1868 74.3214 56.07 74.3077C55.3206 74.2196 54.7877 74.2818 54.1519 74.5362C53.9654 74.6108 53.7704 74.379 53.8855 74.2144Z" fill="#3781FA"/>
<path d="M51.4778 76.5159L49.3804 78.5381C49.2806 78.6343 49.1143 78.5924 49.0692 78.4614C48.7457 77.5218 48.4586 76.9916 47.9954 76.348C47.9025 76.2189 47.9983 76.0373 48.1572 76.0447L51.3563 76.1935C51.5207 76.2011 51.5963 76.4017 51.4778 76.5159Z" fill="#3D3D3D"/>
<path d="M56.254 74.9761C54.1556 74.726 52.4854 76.1077 49.3106 79.4418C49.2774 79.4766 49.2582 79.5237 49.2582 79.5718V85.5602C49.2582 85.7207 49.4468 85.8068 49.5682 85.7019L49.6854 85.6006C51.1912 84.299 52.1601 83.4614 54.2605 82.2539C54.3011 82.2305 54.3325 82.1919 54.3469 82.1472C54.9853 80.158 55.3826 79.0192 56.7151 77.2172C56.7458 77.1757 56.7587 77.123 56.7499 77.0722L56.4116 75.1274C56.3978 75.0479 56.3342 74.9856 56.254 74.9761Z" fill="#3D3D3D"/>
<path d="M49.2582 88.7012V86.7922C49.2582 86.7456 49.276 86.7001 49.3073 86.6657C51.0102 84.7929 52.1128 83.9718 54.0271 82.9388C54.1564 82.869 54.3118 82.969 54.302 83.1156L54.1427 85.5054C54.1389 85.5616 54.1102 85.6131 54.0643 85.6458L49.5546 88.8541C49.4304 88.9424 49.2582 88.8536 49.2582 88.7012Z" fill="#3D3D3D"/>
<path d="M53.859 86.4071C51.9885 87.4792 51.0249 88.4452 49.3223 89.9465C49.2819 89.9821 49.2582 90.0339 49.2582 90.0878V92.5737C49.2582 92.6968 49.375 92.7864 49.4936 92.7534C51.15 92.2924 52.2093 91.7148 54.0556 90.4346C54.106 90.3996 54.1368 90.3416 54.1368 90.2802V86.5688C54.1368 86.426 53.9829 86.336 53.859 86.4071Z" fill="#3D3D3D"/>
<path d="M49.2242 93.3983L44.4291 109.237C44.3653 109.448 44.6673 109.583 44.7877 109.399C47.7308 104.889 50.2745 102.779 54.579 99.3848C54.6487 99.3299 54.6713 99.2329 54.634 99.1525C53.7375 97.2177 53.8876 94.8532 53.8593 91.4246C53.858 91.2675 53.6741 91.1824 53.551 91.2801C51.6234 92.8103 50.7495 93.0412 49.3741 93.2673C49.3033 93.2789 49.245 93.3297 49.2242 93.3983Z" fill="#3D3D3D"/>
<path d="M41.0854 79.8847C38.3529 80.0915 37.2642 81.5748 35.0709 83.2859C35.0252 83.3217 34.9977 83.3768 34.9977 83.4349V87.6579C34.9977 87.7615 35.0817 87.8455 35.1853 87.8455H35.2372C35.2648 87.8455 35.2925 87.8392 35.3175 87.8275C37.4659 86.8194 38.7824 86.4369 41.1293 85.998C41.2183 85.9814 41.2836 85.9037 41.2836 85.8132V80.0696C41.2836 79.9622 41.1925 79.8766 41.0854 79.8847Z" fill="#353535"/>
<path d="M41.2836 78.9576V73.8393C41.2836 73.7136 41.1598 73.6243 41.0398 73.6616C36.9282 74.9386 36.559 76.1971 34.9482 78.1306C34.92 78.1645 34.9039 78.2078 34.9039 78.2519V82.2689C34.9039 82.4307 35.0955 82.5159 35.2163 82.4082L35.3198 82.3159C37.2272 80.6142 38.428 79.5428 41.12 79.1447C41.2129 79.131 41.2836 79.0516 41.2836 78.9576Z" fill="#353535"/>
<path d="M41.9403 78.9758V73.8188C41.9403 73.6995 42.0516 73.6107 42.1681 73.6366C45.7053 74.4235 47.0593 75.6007 48.6704 78.4213C48.6865 78.4495 48.6953 78.4821 48.6953 78.5146V82.2873C48.6953 82.4461 48.5095 82.5329 48.3862 82.4328C45.6936 80.2475 44.3133 79.7313 42.0823 79.1579C41.9992 79.1366 41.9403 79.0616 41.9403 78.9758Z" fill="#353535"/>
<path d="M41.9403 85.8202V80.0296C41.9403 79.9385 42.0058 79.86 42.0962 79.8483C43.9639 79.6058 45.6641 80.9332 48.6237 83.2859C48.6684 83.3215 48.6953 83.3762 48.6953 83.4334V87.5821C48.6953 87.7111 48.5681 87.8015 48.4461 87.7598C46.0576 86.9436 44.5847 86.582 42.0864 86.0032C42.0014 85.9835 41.9403 85.9076 41.9403 85.8202Z" fill="#353535"/>
<path d="M41.9403 90.7251V86.8336C41.9403 86.7225 42.0369 86.6358 42.1473 86.6477C44.7295 86.9273 46.1678 87.4314 48.5802 88.4533C48.6495 88.4827 48.6953 88.551 48.6953 88.6262V92.6431C48.6953 92.7412 48.6185 92.8231 48.5205 92.8288C45.7904 92.988 44.4741 91.9823 42.0526 90.8973C41.9848 90.8669 41.9403 90.7994 41.9403 90.7251Z" fill="#353535"/>
<path d="M41.2836 90.7398V86.8344C41.2836 86.723 41.1867 86.6361 41.0761 86.6489C38.7328 86.9196 37.5267 87.4835 35.4027 88.269C35.3289 88.2962 35.2792 88.3668 35.2792 88.4454V92.8176C35.2792 92.921 35.3632 93.0052 35.4666 93.0035C37.6557 92.9682 38.9602 92.2094 41.1901 90.902C41.2476 90.8684 41.2836 90.8063 41.2836 90.7398Z" fill="#353535"/>
<path d="M29.5562 85.3889V82.8091C29.5562 82.668 29.7067 82.5778 29.8308 82.6449C31.7567 83.6868 32.8247 84.6148 34.4865 86.6677C34.5134 86.701 34.5286 86.7432 34.5286 86.7861V88.7327C34.5286 88.8959 34.3343 88.9812 34.2133 88.8716C32.5802 87.3929 31.5238 86.5791 29.6547 85.5541C29.5944 85.5211 29.5562 85.4576 29.5562 85.3889Z" fill="#3D3D3D"/>
<path d="M29.5562 90.1914V86.4684C29.5562 86.3271 29.707 86.237 29.8309 86.3051C31.6998 87.3336 32.7521 88.3452 34.5587 89.9465C34.5988 89.9821 34.6224 90.0338 34.6224 90.0875V92.7772C34.6224 92.8952 34.5145 92.984 34.3993 92.9586C32.7374 92.5931 31.6048 91.8396 29.631 90.3412C29.5843 90.3058 29.5562 90.25 29.5562 90.1914Z" fill="#3D3D3D"/>
<path d="M41.5606 91.3798C39.2004 92.9026 37.8853 93.4102 35.7766 93.7241C35.663 93.741 35.5905 93.8558 35.6231 93.9658C37.4813 100.243 38.4575 104.277 40.0571 111.921C40.0616 111.942 40.0697 111.963 40.0811 111.981L40.7595 113.084C40.7937 113.139 40.8542 113.173 40.9193 113.173H42.4108C42.4691 113.173 42.524 113.146 42.5595 113.1L43.4025 112.004C43.4277 111.971 43.4414 111.931 43.4414 111.89V110.292C43.4414 110.274 43.444 110.256 43.4492 110.239L48.4379 93.52C48.4731 93.402 48.3868 93.2826 48.2636 93.2781C45.7771 93.1869 44.2979 92.8514 41.7599 91.3753C41.6985 91.3396 41.6203 91.3413 41.5606 91.3798Z" fill="#3D3D3D"/>
<path d="M29.0922 99.1999L29.5351 91.4055C29.5439 91.2519 29.7248 91.174 29.8444 91.2708C31.8279 92.8736 32.909 93.304 34.5921 93.5499C34.667 93.5609 34.7288 93.6152 34.7481 93.6884L38.9016 109.435C38.9565 109.643 38.6677 109.768 38.5502 109.588C35.308 104.611 32.982 102.798 29.1547 99.3506C29.1124 99.3125 29.089 99.2567 29.0922 99.1999Z" fill="#3D3D3D"/>
<path d="M61.3608 62.4244C59.4399 59.772 53.327 59.349 53.0227 59.3295C53.013 59.3289 53.003 59.3252 52.9957 59.3317C52.8276 59.4825 55.4714 64.4324 56.7637 66.7394C58.0825 69.0937 63.3557 74.0188 63.3312 73.0288L63.331 73.0243C63.331 72.9433 63.3208 65.1306 61.3608 62.4244Z" fill="#3D3D3D"/>
<path d="M57.137 76.1711L56.7894 68.6126C56.7812 68.4327 57.0077 68.3465 57.1233 68.4846C59.5816 71.4235 61.0147 72.8148 63.2473 73.9212C63.2997 73.9472 63.3377 73.9967 63.3501 74.0539C63.946 76.7944 66.4074 78.226 66.7969 83.2697C66.8004 83.3159 66.7863 83.3632 66.7584 83.4003C66.0061 84.3989 65.846 85.4347 65.6228 87.1592C65.6046 87.2997 65.4429 87.3706 65.3271 87.2889C62.8943 85.5707 61.6555 84.9489 59.6083 83.9212L59.4727 83.8531C59.4213 83.8273 59.3836 83.7776 59.3721 83.7213C58.4599 79.2784 57.9743 77.7793 57.1591 76.2513C57.1459 76.2266 57.1383 76.1991 57.137 76.1711Z" fill="#3781FA"/>
<path d="M66.1461 89.1274C66.1884 86.5243 66.4967 85.5269 67.0881 84.036C67.1332 83.9224 67.2714 83.8819 67.3669 83.9582C68.0548 84.5081 70.4275 86.5666 71.3056 89.4402C72.3284 92.7869 73.6302 97.305 76.1165 102.799C76.1551 102.884 76.1255 102.985 76.0466 103.036L75.3025 103.509C75.2183 103.563 75.1059 103.54 75.048 103.458C70.3323 96.8355 67.3186 92.7869 66.155 89.1879C66.1487 89.1685 66.1458 89.1478 66.1461 89.1274Z" fill="#3781FA"/>
<path d="M72.903 104.813C69.5703 97.7182 59.9118 94.1323 59.4053 84.9106C59.3972 84.7621 59.5584 84.664 59.6856 84.741L65.4992 88.2639C65.5515 88.2956 65.585 88.3507 65.5897 88.4117C65.7986 91.1189 67.2169 93.9839 74.4685 103.816C74.5327 103.903 74.5126 104.03 74.4218 104.088L73.178 104.893C73.0814 104.955 72.9519 104.917 72.903 104.813Z" fill="#3781FA"/>
<path d="M44.1841 119.043L43.0795 113.521C43.0709 113.478 43.0782 113.432 43.0995 113.393C46.3441 107.488 48.6308 104.885 52.8838 101.388C53.029 101.269 53.2378 101.413 53.1758 101.591C50.9236 108.04 48.2796 112.223 44.5345 119.094C44.4505 119.248 44.2185 119.215 44.1841 119.043Z" fill="#3D3D3D"/>
<path d="M45.4752 128.738L44.2947 120.644C44.2889 120.605 44.2959 120.564 44.3146 120.529L52.2412 105.606C52.3472 105.406 52.6506 105.53 52.587 105.746L45.841 128.764C45.7843 128.957 45.5043 128.938 45.4752 128.738Z" fill="#3D3D3D"/>
<path d="M48.8086 121.641L52.9958 106.988C53.0393 106.836 53.2413 106.802 53.3336 106.931C55.4009 109.817 56.9717 110.784 57.0452 118.238C56.0894 126.896 54.2876 128.831 51.8242 133.406C51.7343 133.572 51.4778 133.518 51.4643 133.329C51.0392 127.367 50.3483 124.977 48.82 121.774C48.8003 121.732 48.796 121.685 48.8086 121.641Z" fill="#3D3D3D"/>
<path d="M53.9827 131.143C57.0251 127.444 57.6896 117.628 58.4876 113.485C58.5275 113.278 58.7827 113.305 58.7946 113.516C59.2138 120.892 59.6401 125.56 57.9953 130.77C57.9875 130.795 57.9745 130.818 57.9572 130.838L54.709 134.524C54.6177 134.628 54.4495 134.601 54.3977 134.473C53.8827 133.2 53.7778 132.441 53.9417 131.237C53.9464 131.202 53.9604 131.17 53.9827 131.143Z" fill="#3D3D3D"/>
<path d="M54.5232 100.057L54.0269 100.367C53.9778 100.397 53.9457 100.449 53.9397 100.507L53.3956 105.765C53.3897 105.823 53.4112 105.88 53.4523 105.92C55.9784 108.396 56.4481 110.594 57.3545 114.067C57.4015 114.247 57.6535 114.256 57.7124 114.079L58.5319 111.621C58.5413 111.593 58.5438 111.562 58.5392 111.532C57.6842 106.035 56.6336 103.892 54.8378 100.228L54.7918 100.134C54.7428 100.034 54.6176 99.9976 54.5232 100.057Z" fill="#3D3D3D"/>
<path d="M45.9853 130.771L48.1658 123.184C48.2155 123.011 48.4555 123.001 48.5179 123.17C49.8845 126.858 50.2865 129.675 50.845 134.676C50.8502 134.722 50.8374 134.77 50.8103 134.808C49.0209 137.29 48.1928 137.554 46.9373 137.22C46.8652 137.201 46.8126 137.139 46.8028 137.065L45.9797 130.847C45.9763 130.821 45.9782 130.795 45.9853 130.771Z" fill="#3D3D3D"/>
<path d="M47.6548 142.487L46.8621 138.083C46.8403 137.962 46.9399 137.853 47.0629 137.858C49.8198 137.972 51.0486 136.088 52.9682 132.776C53.0624 132.614 53.3149 132.674 53.329 132.861C53.4096 133.927 53.5746 134.521 53.9051 135.219C53.9322 135.276 53.9295 135.344 53.897 135.398L48.9278 143.709C48.8606 143.821 48.702 143.832 48.6202 143.73L47.693 142.571C47.6735 142.547 47.6604 142.518 47.6548 142.487Z" fill="#3D3D3D"/>
<path d="M49.8484 143.017L49.2287 144.194C49.1905 144.266 49.204 144.356 49.2621 144.414L49.6061 144.758C49.6747 144.826 49.7844 144.831 49.8589 144.769L50.6884 144.078C50.7756 144.005 50.7781 143.873 50.6988 143.792C50.4483 143.536 50.3161 143.318 50.2291 143.064C50.1713 142.895 49.9315 142.859 49.8484 143.017Z" fill="#3D3D3D"/>
<path d="M50.5969 141.651L53.7477 136.881C53.8064 136.792 53.9277 136.769 54.0112 136.835C55.5514 138.057 55.0416 139.569 54.172 142.148L54.1627 142.175C54.1463 142.224 54.1105 142.265 54.064 142.286L51.4228 143.519C51.3608 143.548 51.2873 143.541 51.2333 143.499C50.592 143.001 50.4847 142.574 50.567 141.735C50.5699 141.705 50.5803 141.676 50.5969 141.651Z" fill="#3D3D3D"/>
<path d="M57.1827 132.33L54.2609 135.819C54.193 135.9 54.206 136.021 54.287 136.09C55.8917 137.438 55.8553 138.913 54.8727 142.006C54.8342 142.127 54.9242 142.252 55.0517 142.252H57.3266C57.4302 142.252 57.5143 142.168 57.5143 142.065V132.45C57.5143 132.275 57.2953 132.195 57.1827 132.33Z" fill="#3D3D3D"/>
<path d="M53.8107 143.123L50.1937 145.293C50.1371 145.327 50.1026 145.388 50.1026 145.454V149.046C50.1026 149.081 50.1129 149.117 50.1318 149.146C53.4924 154.484 55.1257 157.745 54.1412 167.256C54.1384 167.283 54.1415 167.312 54.1507 167.338L54.6396 168.735C54.6954 168.894 54.9172 168.902 54.9858 168.748C58.3822 161.104 58.3666 154.875 57.527 143.273C57.5199 143.175 57.4381 143.097 57.3398 143.097H53.9073C53.8733 143.097 53.8399 143.106 53.8107 143.123Z" fill="#3D3D3D"/>
<path d="M50.1026 157.971V150.889C50.1026 150.693 50.3608 150.628 50.4501 150.802C51.1832 152.233 52.8565 155.591 53.2924 157.261C53.7319 158.946 53.8283 163.489 53.8494 165.4C53.8516 165.602 53.5804 165.662 53.4969 165.478L50.1194 158.049C50.1083 158.024 50.1026 157.998 50.1026 157.971Z" fill="#3D3D3D"/>
<path d="M54.7935 171.487V170.346C54.7935 170.316 54.801 170.286 54.8148 170.259C58.1116 163.884 58.9041 159.151 58.6836 150.029C58.6783 149.809 58.9778 149.761 59.0316 149.975C60.8668 157.263 59.8089 162.401 58.2882 171.011C58.2744 171.09 58.212 171.153 58.1332 171.166L55.0112 171.672C54.8971 171.69 54.7935 171.602 54.7935 171.487Z" fill="#3D3D3D"/>
<path d="M30.3068 102.06V101.389C30.3068 101.228 30.497 101.143 30.6179 101.25C35.2239 105.293 37.2 108.18 40.405 113.399C40.4269 113.434 40.4367 113.477 40.432 113.518L39.6665 120.322C39.6455 120.508 39.3945 120.552 39.3117 120.384L30.3261 102.143C30.3134 102.117 30.3068 102.089 30.3068 102.06Z" fill="#3D3D3D"/>
<path d="M37.9285 130.202C35.2426 120.046 33.801 115.168 31.529 107.413C31.465 107.194 31.7719 107.07 31.8752 107.273L39.1942 121.659C39.2107 121.692 39.2174 121.728 39.2135 121.765L38.2973 130.176C38.2747 130.383 37.9817 130.403 37.9285 130.202Z" fill="#3D3D3D"/>
<path d="M25.2424 111.917C25.5193 106.588 27.9055 105.137 28.9415 100.648C28.9849 100.46 29.2568 100.44 29.3191 100.622C29.9428 102.45 30.3082 103.675 30.3069 105.783C30.3069 105.83 30.289 105.876 30.2581 105.91C27.9373 108.492 27.3346 110.776 26.5098 114.652C26.47 114.839 26.208 114.855 26.1475 114.674L25.2517 111.987C25.2443 111.965 25.2411 111.941 25.2424 111.917Z" fill="#3D3D3D"/>
<path d="M32.0151 133.82C25.9574 120.985 25.0801 114.742 30.3568 106.944C30.4464 106.811 30.6513 106.845 30.6919 106.999C32.0136 112.031 32.6088 115.209 34.5981 119.499C34.6138 119.533 34.6193 119.571 34.6135 119.608L32.3715 133.775C32.3427 133.957 32.0937 133.987 32.0151 133.82Z" fill="#3D3D3D"/>
<path d="M33.034 135.233C33.5088 129.555 34.0348 126.644 34.8471 121.85C34.8811 121.649 35.166 121.638 35.215 121.835L37.7091 131.896C37.7153 131.921 37.7163 131.947 37.7121 131.972L36.8042 137.418C36.7901 137.503 36.7204 137.568 36.6348 137.572C35.1803 137.648 34.3903 136.943 33.0771 135.37C33.0456 135.333 33.0299 135.282 33.034 135.233Z" fill="#3D3D3D"/>
<path d="M26.7276 132.171C24.6655 125.729 24.4409 121.567 25.1383 114.211C25.158 114.003 25.4505 113.978 25.5033 114.18L26.3618 117.47C26.3648 117.482 26.3668 117.495 26.3675 117.507C26.5433 120.417 25.4842 119.558 29.181 130.058C29.6871 131.821 29.5704 132.736 29.0067 134.117C28.9565 134.24 28.7973 134.271 28.7034 134.177L26.7737 132.247C26.7526 132.226 26.7367 132.2 26.7276 132.171Z" fill="#3D3D3D"/>
<path d="M27.131 142.909H26.4734C26.3648 142.909 26.2789 142.816 26.2863 142.707C26.5437 138.931 26.6825 136.725 26.7344 133.716C26.7373 133.547 26.9451 133.466 27.0602 133.59L28.9452 135.62C29.0466 135.729 28.9855 135.911 28.8456 135.962C27.1404 136.584 27.5497 139.477 27.3175 142.736C27.3106 142.833 27.229 142.909 27.131 142.909Z" fill="#3D3D3D"/>
<path d="M28.3366 137.562C28.0086 138.546 27.9673 141.751 27.9621 142.543C27.9614 142.643 28.0398 142.725 28.1395 142.731C29.9044 142.834 30.7324 143.1 31.9108 143.666C32.0078 143.713 32.1252 143.67 32.1634 143.569C32.4822 142.729 32.436 142.111 32.2769 141.033C31.9758 139.038 31.0782 138.187 29.7942 136.593C29.7622 136.553 29.7156 136.528 29.6646 136.529C29.4159 136.533 28.6489 136.625 28.3366 137.562Z" fill="#3D3D3D"/>
<path d="M29.2848 134.727C29.7946 134.128 29.9053 133.436 29.9824 132.386C29.9962 132.199 30.2461 132.144 30.3377 132.308C32.5018 136.171 33.8838 137.97 36.4923 138.03C36.5981 138.032 36.6847 138.12 36.6821 138.226C36.6042 141.363 36.2231 142.299 35.4337 143.284C35.3568 143.38 35.2098 143.374 35.1389 143.273L29.2702 134.968C29.2184 134.895 29.2266 134.795 29.2848 134.727Z" fill="#3D3D3D"/>
<path d="M32.626 143.975C32.9482 143.215 33.0264 142.601 33.033 141.728C33.0345 141.536 33.2886 141.464 33.3879 141.627L34.8545 144.047C34.8856 144.098 34.8903 144.161 34.8673 144.216L34.5183 145.054C34.4743 145.159 34.3468 145.201 34.2486 145.142L32.702 144.215C32.6202 144.166 32.5887 144.063 32.626 143.975Z" fill="#3D3D3D"/>
<path d="M34.0812 145.849C30.7911 143.035 29.0986 143.401 26.1355 143.648C26.0509 143.655 25.9804 143.717 25.965 143.801L25.3375 147.207C25.3354 147.218 25.3344 147.23 25.3344 147.241C25.328 156.482 25.339 161.734 28.7141 169.325C28.7818 169.477 29.0001 169.473 29.0594 169.317L29.6337 167.81C29.6445 167.782 29.6482 167.751 29.6447 167.721C28.6289 158.894 29.3487 154.628 33.9285 148.865C33.9524 148.835 33.967 148.798 33.9695 148.76L34.1473 146.004C34.1511 145.945 34.1259 145.887 34.0812 145.849Z" fill="#3D3D3D"/>
<path d="M33.6042 150.29C32.8228 151.662 31.0054 154.947 30.4944 156.698C29.8745 158.824 29.9234 165.797 29.9308 166.572C29.9308 166.572 33.0275 159.981 33.4028 158.574C33.7066 157.435 33.8874 152.301 33.9453 150.386C33.9511 150.192 33.7001 150.122 33.6042 150.29Z" fill="#3D3D3D"/>
<path d="M25.684 171.193C24.0598 162.387 23.2391 157.246 24.4002 150.55C24.4379 150.333 24.7382 150.358 24.7492 150.578C25.2413 160.465 25.8334 165.901 29.1492 170.909C29.1697 170.94 29.1808 170.976 29.1808 171.013V171.498C29.1808 171.61 29.084 171.697 28.973 171.685L25.8486 171.347C25.7662 171.338 25.699 171.274 25.684 171.193Z" fill="#3D3D3D"/>
<path d="M21.0027 73.9777C18.3854 77.1331 17.8304 79.3146 17.0913 83.2562C17.0811 83.3106 17.0956 83.3675 17.1296 83.4111C17.7839 84.2482 17.9429 85.1695 18.0923 86.9188C18.1007 87.0177 18.1848 87.0935 18.284 87.0885C20.2429 86.9895 21.7676 86.0297 24.4069 84.3323C24.4567 84.3002 24.4892 84.245 24.4936 84.186C24.7209 81.1271 25.4503 79.8459 26.4452 77.3687C26.4529 77.3495 26.4575 77.3288 26.4586 77.3081L26.9005 68.7069C26.9097 68.527 26.6832 68.4396 26.5668 68.577C24.2493 71.3108 23.0369 72.3642 21.031 73.95C21.0208 73.9581 21.0111 73.9677 21.0027 73.9777Z" fill="#3781FA"/>
<path d="M18.0819 87.967C16.6489 94.8288 14.0903 98.1005 9.60382 103.817C9.53569 103.904 9.55563 104.032 9.64829 104.092L10.8766 104.886C10.9766 104.951 11.1134 104.901 11.157 104.79C15.7897 93.0083 21.9301 98.1597 23.9551 85.4391C23.9801 85.2819 23.8113 85.1586 23.6772 85.2443C21.9468 86.3494 21.1851 87.172 18.2287 87.8192C18.1559 87.8352 18.0971 87.8941 18.0819 87.967Z" fill="#3781FA"/>
<path d="M8.66113 103.382L7.91064 102.768C7.83937 102.71 7.82178 102.607 7.86792 102.527C9.98668 98.8678 10.8229 97.1101 11.6302 94.6098C11.6324 94.6029 11.6342 94.5963 11.6356 94.5892C11.6764 94.3876 12.3177 91.2463 13.1347 89.1588C13.8341 87.3715 15.8855 85.1981 16.5691 84.5047C16.6696 84.4028 16.8394 84.4541 16.8732 84.5932C18.5788 91.6036 14.0534 95.9357 8.93564 103.342C8.87323 103.432 8.7461 103.451 8.66113 103.382Z" fill="#3781FA"/>
<path d="M27.295 66.9383C24.9111 69.7739 23.4814 71.1602 21.0085 73.0923C20.8909 73.1842 20.7205 73.1101 20.7127 72.9611C20.6284 71.3602 20.442 64.6266 23.0795 62.2367C25.6743 59.8856 29.3203 59.7767 30.2621 59.7905C30.3814 59.7922 30.4609 59.9061 30.4282 60.0208C29.7335 62.4589 29.0605 64.0224 27.3122 66.9143C27.3072 66.9226 27.3013 66.9309 27.295 66.9383Z" fill="#3D3D3D"/>
<path d="M27.4922 74.0144V70.1018C27.4922 69.9142 27.7372 69.8428 27.8381 70.001L30.5914 74.3215C30.694 74.4826 30.5205 74.6717 30.3506 74.5845C29.5603 74.1787 29.02 73.9765 27.7173 74.2008C27.6009 74.2208 27.4922 74.1324 27.4922 74.0144Z" fill="#3781FA"/>
<path fill-rule="evenodd" clip-rule="evenodd" d="M48.9735 43.5696C48.8699 43.5696 48.7859 43.4856 48.7859 43.382C48.7859 43.4856 48.8699 43.5696 48.9735 43.5696ZM37.0617 48.7662C37.0617 48.7431 37.0493 48.7218 37.0293 48.7103C37.0083 48.6982 36.9876 48.6859 36.967 48.6736L37.0617 48.7662ZM47.044 48.2162C47.0175 48.2446 47.0005 48.2805 46.9952 48.3189C47.0005 48.2805 47.0181 48.2441 47.0445 48.2157C47.0443 48.2158 47.0441 48.216 47.044 48.2162Z" fill="#3781FA"/>
<path fill-rule="evenodd" clip-rule="evenodd" d="M9.23536 106.44C9.26937 106.372 9.25281 106.29 9.19887 106.236C9.25281 106.29 9.26937 106.372 9.23536 106.44ZM8.87415 106.158C8.94895 106.094 9.06055 106.098 9.13016 106.167C9.06056 106.098 8.94895 106.094 8.87415 106.158Z" fill="#3781FA"/>
<path fill-rule="evenodd" clip-rule="evenodd" d="M79.4566 105.756L79.4647 105.762L79.4725 105.767C79.4699 105.765 79.4669 105.764 79.4647 105.762C79.4618 105.76 79.4596 105.759 79.4566 105.756ZM75.5798 106.573C75.5443 106.535 75.4936 106.512 75.4423 106.521C75.4941 106.512 75.544 106.534 75.5798 106.573ZM76.9906 108.27C77.0131 108.286 77.0254 108.295 77.0254 108.295L77.0685 108.302C77.0397 108.297 77.0143 108.287 76.9906 108.27ZM84.5218 114.848L84.5309 114.861C84.5309 114.861 84.535 114.865 84.5424 114.873C84.5393 114.87 84.5363 114.867 84.5335 114.863C84.5296 114.859 84.5253 114.853 84.5218 114.848ZM78.3001 113.543L78.245 113.454H78.1408C78.2056 113.454 78.2659 113.488 78.3001 113.543ZM75.7617 113.18L75.7119 113.079C75.7119 113.079 75.6595 113.079 75.5962 113.093C75.666 113.078 75.7301 113.116 75.7617 113.18ZM75.2555 113.512C75.2474 113.534 75.2428 113.548 75.2428 113.548L75.2458 113.585C75.2438 113.56 75.2469 113.536 75.2555 113.512Z" fill="#3781FA"/>
<path d="M20.1742 183.808C19.7989 184.84 24.9129 186.238 26.5539 186.622C28.1831 187.004 30.3304 178.676 29.2057 172.589C29.1911 172.51 29.1271 172.45 29.0473 172.439L25.906 172.015C25.7993 172.001 25.7027 172.077 25.6914 172.184C25.2034 176.808 20.5442 182.79 20.1742 183.808Z" fill="#3D3D3D"/>
<path d="M63.9846 183.808C64.266 182.87 58.6369 174.803 58.2648 174.24C57.9772 173.805 57.9641 172.697 57.973 172.217C57.9752 172.098 57.8708 172.005 57.7536 172.022L54.948 172.435C54.8585 172.448 54.7913 172.518 54.7881 172.608C54.7423 173.897 54.4253 183.01 54.6026 183.62C54.7935 184.277 56.8543 186.903 57.6987 186.997C58.543 187.091 63.7031 184.746 63.9846 183.808Z" fill="#3D3D3D"/>
<path d="M84.5309 109.983C84.5309 109.89 81.8102 106.982 81.5287 106.888C81.2581 106.798 79.6 105.84 79.4725 105.767L79.4647 105.762L79.4566 105.756L77.1305 104.057C77.0673 104.011 76.982 104.008 76.9166 104.051L73.55 106.266C73.4944 106.303 73.4623 106.366 73.4657 106.432L73.741 111.845C73.7415 111.855 73.7427 111.864 73.7445 111.873L74.7594 116.855C74.7686 116.9 74.7942 116.94 74.8313 116.968L75.1395 117.197C75.148 117.203 75.1569 117.209 75.1665 117.213C75.2117 117.233 75.3524 117.284 75.4305 117.206C75.5186 117.118 75.2754 113.965 75.2458 113.585L75.2428 113.548C75.2428 113.548 75.2474 113.534 75.2555 113.512C75.2841 113.433 75.3573 113.246 75.4305 113.173C75.4747 113.129 75.5397 113.105 75.5962 113.093C75.6595 113.079 75.7119 113.079 75.7119 113.079L75.7617 113.18C76.1529 113.974 78.7213 119.183 78.8079 119.27C78.9018 119.364 79.0894 119.364 79.1832 119.27C79.277 119.176 79.3709 119.083 79.3709 118.989C79.3709 118.895 78.0574 114.805 78.0574 114.58C78.0574 114.366 78.0011 114.192 77.9686 114.121C77.9653 114.114 77.9615 114.108 77.9573 114.101C77.9246 114.051 77.7759 113.819 77.7759 113.736C77.7759 113.642 77.9636 113.454 78.0574 113.454H78.1408H78.245L78.3001 113.543L81.3009 118.361C81.3267 118.403 81.3674 118.433 81.4148 118.443C81.5337 118.47 81.7681 118.52 81.904 118.52C82.0916 118.52 82.1854 118.613 82.2792 118.52C82.3623 118.437 82.2983 118.133 82.2825 118.065C82.2804 118.055 82.2781 118.048 82.2744 118.039C82.159 117.765 80.0301 112.699 80.1214 112.516C80.2152 112.329 80.3091 112.329 80.4967 112.329C80.6843 112.329 84.3433 115.799 84.5309 115.799C84.7185 115.799 85 115.518 85 115.424C85 115.339 84.6143 114.945 84.5424 114.873C84.535 114.865 84.5309 114.861 84.5309 114.861L84.5218 114.848C83.4867 113.374 81.4159 110.433 81.3411 110.359C81.266 110.284 80.9658 109.045 80.7781 108.952C80.6027 108.864 77.4738 108.366 77.0685 108.302L77.0254 108.295C77.0254 108.295 77.0131 108.286 76.9906 108.27C76.7275 108.081 75.0628 106.873 75.1522 106.7C75.2152 106.578 75.3532 106.536 75.4423 106.521C75.4936 106.512 75.5443 106.535 75.5798 106.573C75.7978 106.807 76.5956 107.651 76.8377 107.732C77.1192 107.826 79.4647 108.295 79.9338 108.295C80.4029 108.295 84.1556 110.265 84.3433 110.171C84.5309 110.077 84.5309 110.077 84.5309 109.983Z" fill="#3D3D3D"/>
<path d="M0.562914 110.546C0.750552 110.64 4.22185 108.295 4.59713 108.107C4.97241 107.92 6.84879 107.638 7.22406 107.451C7.52894 107.298 8.51495 106.465 8.87415 106.158C8.94895 106.094 9.06055 106.098 9.13016 106.167L9.19887 106.236C9.25281 106.29 9.26937 106.372 9.23536 106.44C8.41184 108.094 5.41235 108.39 4.00594 108.836C3.96286 108.85 3.92973 108.876 3.90673 108.915C3.52363 109.562 0 115.523 0 115.612C0 115.706 0.300221 115.968 0.375276 115.893C0.450331 115.818 4.59713 111.297 4.69095 111.297C4.78477 111.297 4.87859 111.391 4.87859 111.484C4.87859 111.574 2.36572 116.776 2.16991 117.181C2.16102 117.2 2.15656 117.217 2.15422 117.237C2.13789 117.378 2.07536 117.968 2.15784 118.051C2.22406 118.117 2.38377 118.09 2.47199 118.068C2.51204 118.058 2.54364 118.035 2.56679 118.001C2.95012 117.436 6.47861 112.235 6.56733 112.235C6.66115 112.235 6.75497 112.329 6.75497 112.422C6.75497 112.493 5.96337 115.782 5.56757 117.422C5.43675 117.964 5.34915 118.326 5.34768 118.332C5.34411 118.347 5.25574 118.709 5.34768 118.801C5.4415 118.895 5.53532 118.989 5.62914 118.989H5.9106C6.00148 118.989 6.26847 118.284 6.28506 118.24L6.28587 118.238C6.30446 118.192 8.63172 112.422 8.72517 112.422H9.00662C9.10044 112.422 9.10044 112.798 9.10044 112.798V113.158C9.10044 113.168 9.10126 113.178 9.10288 113.188L9.73154 117.049C9.74632 117.14 9.82474 117.206 9.91674 117.206H10.032C10.0948 117.206 10.1534 117.175 10.1882 117.123L10.2886 116.972C10.3091 116.941 10.3201 116.905 10.3201 116.868V116.644C10.231 112.004 10.446 109.724 10.871 105.78C10.8783 105.712 10.848 105.644 10.7918 105.605L7.88951 103.582C7.82741 103.539 7.74662 103.536 7.68319 103.578C4.51898 105.637 0.377312 110.453 0.562914 110.546Z" fill="#3D3D3D"/>
<path d="M35.2759 42.9129C35.1821 43.0067 34.8068 43.2882 34.713 43.5696C34.6272 43.8269 34.6983 44.9467 34.7111 45.1368C34.7124 45.1554 34.7166 45.1734 34.7233 45.1908C35.3966 46.9305 35.7723 47.9563 36.967 48.6736C36.9876 48.6859 37.0083 48.6982 37.0293 48.7103C37.0493 48.7218 37.0617 48.7431 37.0617 48.7662V48.8382V50.5316C37.0617 50.5788 37.08 50.6249 37.1122 50.6594C38.6945 52.3602 39.7237 52.8089 41.6121 53.222C41.6155 53.2227 41.6193 53.2235 41.6228 53.224C41.648 53.228 41.6742 53.2268 41.6988 53.2205L41.7246 53.214C43.5083 52.7623 44.5372 52.5017 46.566 51.0277C46.6072 50.9978 46.6352 50.9517 46.6421 50.9012L46.9952 48.3189C47.0005 48.2805 47.0175 48.2446 47.044 48.2162C47.0441 48.216 47.0443 48.2158 47.0445 48.2157C48.6294 46.5127 49.1965 45.5022 49.1663 43.75C49.1645 43.6493 49.0815 43.5696 48.9807 43.5696H48.9735C48.8699 43.5696 48.7859 43.4856 48.7859 43.382V38.3438C48.7859 38.3257 48.7841 38.3104 48.7785 38.2932C48.6668 37.9489 47.2485 33.9117 42.2185 34.0015C37.2392 34.0904 35.3779 38.0551 35.197 38.4692C35.1862 38.4938 35.1826 38.5161 35.1838 38.5429C35.2022 38.9722 35.3645 42.8244 35.2759 42.9129Z" fill="#3D3D3D"/>
<path d="M41.924 53.8868C39.7499 53.7147 38.951 53.0747 37.7493 52.0083C37.6283 51.9011 37.437 51.9863 37.437 52.148V53.8565C37.437 53.8774 37.4405 53.8982 37.4473 53.918L41.3904 65.2974C41.4483 65.4645 41.6843 65.4647 41.7441 65.2984L41.7514 65.2778C43.4112 60.5997 44.3219 57.6683 46.6034 53.9337C46.6214 53.9041 46.6313 53.8698 46.6313 53.8352V52.1178C46.6313 51.9611 46.4493 51.8738 46.3249 51.9692C44.4576 53.403 43.4848 53.7422 41.9565 53.8866L41.9403 53.8881L41.924 53.8868Z" fill="#3D3D3D"/>
<path d="M36.878 55.1378C35.9554 57.1196 35.118 58.0898 33.7282 58.8143C33.5366 58.9142 33.6188 59.259 33.8346 59.2481C35.7689 59.1506 37.1109 59.2415 38.7962 59.904C38.9525 59.9654 39.111 59.8101 39.0481 59.6545L37.2279 55.144C37.1658 54.9902 36.9479 54.9874 36.878 55.1378Z" fill="#353535"/>
<path d="M46.4031 55.2062L44.3308 59.5095C44.2686 59.6386 44.3684 59.7869 44.5114 59.7781L50.7017 59.396C50.9122 59.3831 50.9458 59.0805 50.7449 59.0166C48.68 58.3599 47.4653 57.6228 46.7668 55.2417C46.7171 55.0724 46.4796 55.0473 46.4031 55.2062Z" fill="#353535"/>
<path d="M27.5218 67.3942C28.5723 70.6456 29.6394 72.3095 31.751 75.1066C31.7864 75.1535 31.8424 75.1818 31.9012 75.1818H36.2665C36.2959 75.1818 36.3252 75.1747 36.3514 75.1615C37.9905 74.335 38.9154 73.8582 41.157 73.0687C41.2322 73.0422 41.2836 72.9709 41.2836 72.8912V66.4928C41.2836 66.4698 41.2792 66.4467 41.271 66.4252C39.8961 62.8349 39.8694 59.8276 35.5606 60.0792H31.2776C31.2012 60.0792 31.132 60.1265 31.1033 60.1974L31.0646 60.293C29.8573 63.2769 29.1487 65.0282 27.549 67.2245C27.5137 67.273 27.5033 67.337 27.5218 67.3942Z" fill="#3D3D3D"/>
<path d="M46.256 60.0792C42.9753 59.9733 43.1379 63.1588 41.9517 66.4266C41.9442 66.4473 41.9403 66.4692 41.9403 66.4912V72.8749C41.9403 72.9623 42.001 73.0382 42.0861 73.0581C43.8168 73.4626 44.8937 73.8516 47.0515 75.3358C47.0829 75.3574 47.1207 75.3694 47.1588 75.3694H52.262C52.3202 75.3694 52.3755 75.342 52.4109 75.2959C54.1573 73.026 55.0784 71.4289 56.3632 67.3817C56.379 67.3318 56.3733 67.2757 56.3473 67.2303C54.89 64.6823 54.0033 63.0203 52.4098 59.9064C52.3762 59.8409 52.307 59.8 52.2335 59.8034L46.256 60.0792Z" fill="#3D3D3D"/>
</g>
<path d="M102.206 63.2448L102.197 63.1434C102.197 63.1434 108.644 69.3535 110.141 70.8485C111.638 72.3435 114.285 78.7836 114.285 78.7836C109.375 76.7759 106.659 76.9106 101.852 78.2086C103.006 72.1374 102.717 68.9228 102.206 63.2448Z" fill="#3781FA"/>
<path d="M117.394 50.9532C112.244 57.3541 111.568 61.3935 108.99 68.3184C112.404 71.8937 113.484 74.4922 115.091 79.3586C116.458 80.1526 117.044 81.1831 118.085 83.0386V51.6432L117.394 50.9532Z" fill="#3781FA"/>
<path d="M99.5495 49.3432L100.125 44.8581C103.74 45.7415 106.194 45.897 112.213 44.8581L116.933 50.3782C112.438 55.6698 110.398 56.8995 107.263 57.2783C104.321 56.8028 102.948 56.0327 100.931 53.9433L99.5495 49.3432Z" fill="#3781FA"/>
<path d="M105.421 28.6429L102.197 29.3329L106.112 33.243L107.263 37.613L118.085 50.3782V32.323C117.43 30.1424 116.623 29.4262 114.746 28.6429H105.421Z" fill="#3D3D3D"/>
<path d="M121.999 28.6429C120.193 29.9071 119.467 30.706 118.775 32.323V50.9532L127.525 40.6031C129.314 38.3059 129.625 36.8297 130.058 34.163C131.451 31.1332 132.519 30.0036 135.123 29.3329L121.999 28.6429Z" fill="#3D3D3D"/>
<path d="M118.775 30.1379V26.8029C119.399 27.6475 119.812 28.0292 120.848 28.2979C119.792 28.9253 119.408 29.3541 118.775 30.1379Z" fill="#3D3D3D"/>
<path d="M118.085 30.1379V26.8029C117.337 27.5169 116.804 27.8541 115.552 28.2979C116.594 28.8893 117.159 29.2773 118.085 30.1379Z" fill="#3D3D3D"/>
<path d="M118.085 24.9629V12.8877C114.945 13.7292 114.041 15.7895 111.983 18.6378C111.5 22.279 112.624 24.2771 107.263 28.0679H113.825C116.221 27.5857 117.122 26.904 118.085 24.9629Z" fill="#3D3D3D"/>
<path d="M118.775 24.9629V12.8877C121.097 14.5579 121.93 16.0099 123.38 18.6378C123.31 23.6007 124.506 25.4945 127.755 28.0679H121.654C119.578 27.0723 119.208 26.3325 118.775 24.9629Z" fill="#3D3D3D"/>
<path d="M118.2 12.1977C114.761 12.803 113.854 14.7073 111.983 17.7178C110.559 16.1039 110.35 15.2824 109.911 13.8077V11.2777L110.486 11.1627C110.486 11.1627 108.299 0.352541 118.2 0.00753633C128.101 -0.337468 126.028 11.2777 126.028 11.2777H126.374V13.8077L125.683 15.7627C124.919 16.1085 124.577 16.325 124.301 16.7978L123.841 17.9478C121.692 13.9601 120.453 12.8109 118.2 12.1977Z" fill="#3D3D3D"/>
<path d="M106.112 36.463C104.139 39.4414 102.677 40.136 100.125 41.5231V43.9381C101.707 44.5046 102.659 44.7386 104.615 44.8581L104.626 44.8574C107.573 44.6675 109.227 44.5608 111.753 43.9381C108.959 41.2749 107.907 39.5588 106.112 36.463Z" fill="#3781FA"/>
<path d="M91.6058 34.623C90.28 37.2474 89.8258 39.0815 90.1092 43.7081C95.1128 42.828 97.8549 42.1711 103.233 38.648C105.475 36.8248 105.488 35.8256 105.306 34.048C104.287 31.351 102.894 30.8571 100.931 29.3329C96.8205 30.196 94.7633 31.298 91.6058 34.623Z" fill="#3D3D3D"/>
<path d="M88.2672 50.9532L89.7638 44.2831C92.7778 44.1662 94.4632 43.7416 97.4772 42.5581C94.9708 47.155 92.7122 48.6999 88.2672 50.9532Z" fill="#3781FA"/>
<path d="M98.3982 42.3281C97.6608 44.104 97.023 45.1704 95.2898 47.2732C94.9623 51.6435 95.5449 52.3399 96.326 54.1732C97.2493 51.8002 97.8027 50.5374 99.089 48.8832C99.3631 46.0585 99.4695 44.4949 99.5495 41.7531L98.3982 42.3281Z" fill="#3781FA"/>
<path d="M95.9806 55.0933C94.5868 52.3347 94.6302 50.7615 94.484 47.9632C91.5774 50.2058 90.1948 50.9473 87.9218 51.8732C87.9218 51.8732 84.3529 59.0033 84.4681 59.3483C84.5832 59.6933 87.3462 62.5684 87.5765 62.6834C87.8067 62.7984 92.4117 63.3734 92.642 63.1434C92.8722 62.9134 95.9806 55.0933 95.9806 55.0933Z" fill="#91C5FF"/>
<path d="M87.5765 63.6034L84.2378 60.0383C78.5024 70.3083 77.3802 76.2335 74.337 86.7187C74.337 86.7187 75.6034 88.2137 76.179 88.4437C76.7547 88.6737 78.7118 89.1337 78.7118 89.1337C82.0504 79.1286 90.203 73.709 92.4117 63.8334L87.5765 63.6034Z" fill="#3781FA"/>
<path d="M119.927 50.9532L118.775 51.9882V83.0386C119.591 81.19 120.219 80.3101 121.769 79.1286C122.894 72.8783 124.561 70.2507 129.021 66.8234L119.927 50.9532Z" fill="#3781FA"/>
<path d="M129.712 66.4784L123.265 55.0933C125.681 56.708 127.015 57.6849 129.942 57.3933C132.817 56.6229 133.708 55.6444 135.353 53.9433L133.511 64.0634L129.712 66.4784Z" fill="#91C5FF"/>
<path d="M113.825 55.0933C111.05 59.4775 110.094 62.5196 108.299 67.8584C105.452 64.6121 104.107 63.5527 101.852 62.1083L100.931 55.0933C103.699 57.5224 104.99 57.6889 107.263 57.8533C109.596 57.7329 110.932 57.5479 113.825 55.0933Z" fill="#91C5FF"/>
<path d="M133.511 64.8684C125.17 69.0841 123.055 74.1835 122.69 78.7836C124.779 77.7364 124.196 76.9164 133.511 76.8285V64.8684Z" fill="#3781FA"/>
<path d="M124.992 44.8581L120.272 50.3782C124.498 55.8253 126.571 56.6986 130.058 56.7033C132.703 55.4218 133.978 54.4084 135.814 51.9882L136.159 49.3432C135.163 47.7331 135.104 46.5595 135.123 44.3981C130.357 46.2847 128.622 45.365 124.992 44.8581Z" fill="#3781FA"/>
<path d="M130.058 36.463C129.589 40.3999 127.802 41.577 125.683 44.3981L131.9 44.6281C133.135 44.5196 133.862 44.5775 134.778 43.3631L134.663 40.3731C132.314 39.0833 131.561 38.1175 130.058 36.463Z" fill="#3781FA"/>
<path d="M136.735 41.1781L135.353 40.6031L135.814 46.1231C136.481 49.2366 137.158 50.9454 138.807 53.9433C140 51.8361 140.455 50.5608 140.534 47.9632C139.035 46.1579 138.203 44.8052 136.735 41.1781Z" fill="#3781FA"/>
<path d="M137.967 41.7198L137.886 41.5231L145.024 43.3631C145.107 46.4011 145.385 48.0715 146.636 50.9532C141.047 49.1914 139.925 46.4685 137.967 41.7198Z" fill="#3781FA"/>
<path d="M136.18 29.3403L136.159 29.3329L136.082 29.3658C133.162 30.611 131.501 31.3193 130.633 34.968C131.266 36.7511 132.162 37.5909 134.087 38.993C138.407 41.1501 140.799 41.7852 145.024 42.3281C144.72 38.2043 144.094 36.0782 141.8 32.783C140.272 30.8346 138.798 30.2962 136.18 29.3403Z" fill="#3D3D3D"/>
<path d="M141.225 48.8832C140.927 51.4995 140.311 52.7988 139.153 55.0933L143.067 63.8334C144.676 63.7241 145.579 63.638 147.211 63.1434C148.754 62.418 149.326 61.8054 150.205 60.6133L146.636 51.9882C144.531 51.3851 143.347 50.8959 141.225 48.8832Z" fill="#91C5FF"/>
<path d="M143.527 69.0084C142.837 67.1684 143.527 64.5234 143.527 64.5234L147.787 63.8334L150.665 61.4183C155.151 71.5503 157.476 77.2129 160.22 87.1787C160.22 87.1787 158.954 88.4437 158.033 89.0187C157.112 89.5937 155.27 89.5937 155.27 89.5937C151.181 80.1532 144.218 70.8485 143.527 69.0084Z" fill="#3781FA"/>
<path d="M120.848 108.454L120.042 102.014C123.05 103.79 124.892 104.49 127.985 105.119C128.456 114.519 129.249 118.725 131.439 124.669C133.112 133.753 131.534 135.3 129.827 139.619L129.367 138.814C128.466 126.323 127.159 119.529 120.848 108.454Z" fill="#3D3D3D"/>
<path d="M128.676 136.859L120.848 109.949C120.848 109.949 125.453 120.644 126.028 122.484C126.604 124.324 128.676 136.859 128.676 136.859Z" fill="#3D3D3D"/>
<path d="M135.123 105.119H128.676C129.618 117.137 129.894 123.938 138.692 133.984L137.886 119.724C135.314 113.09 135.468 110.365 135.123 105.119Z" fill="#3D3D3D"/>
<path d="M136.044 106.844C136.044 103.394 137.886 98.9088 137.886 98.9088V108.454V117.999C137.886 117.999 136.044 110.294 136.044 106.844Z" fill="#3D3D3D"/>
<path d="M132.59 127.199C133.469 132.147 132.667 133.445 131.9 136.514L133.742 136.054C133.742 136.054 134.317 134.559 134.893 133.984C135.468 133.409 136.965 133.409 136.965 133.409C134.33 130.963 133.808 129.613 132.59 127.199Z" fill="#3D3D3D"/>
<path d="M133.281 136.859C131.065 138.142 130.908 138.98 130.173 140.424C130.956 144.118 131.309 146.466 131.554 151.925C131.865 155.017 132.614 156.52 133.742 159.285C133.742 159.285 138.001 157.905 138.692 153.65C139.383 149.395 133.281 136.859 133.281 136.859Z" fill="#3D3D3D"/>
<path d="M135.814 134.329C134.663 134.674 134.547 136.514 134.547 136.514C136.467 141.186 137.587 141.156 139.383 153.19C140.448 155.305 143.246 156.544 143.527 155.605C143.758 149.28 138.692 135.364 138.692 135.364C138.692 135.364 136.965 133.984 135.814 134.329Z" fill="#3D3D3D"/>
<path d="M133.742 160.09C136.553 159.458 137.723 158.027 139.383 154.34C140.487 155.732 141.177 156.458 143.527 156.87C142.12 165.595 141.929 170.758 142.376 180.33L143.182 180.56C142.606 172.561 142.368 168.136 143.988 161.7C144.475 174.268 146.68 185.964 142.376 187C139.413 186.585 138.475 184.361 137.08 179.64C136.697 175.895 136.825 174.121 138.692 172.51C139.685 174.495 139.958 176.441 140.304 180.33C140.396 180.698 140.803 180.483 140.995 180.33C139.682 169.227 137.225 166.626 133.742 160.09Z" fill="#3D3D3D"/>
<path d="M97.8226 118.459V108.684V98.9088C97.8226 98.9088 100.087 104.943 100.01 108.454C99.9332 111.965 98.0585 118.638 97.8226 118.459Z" fill="#3D3D3D"/>
<path d="M97.1318 133.409C104.248 131.16 105.484 121.515 107.838 104.774L100.47 105.119C100.47 105.119 100.816 112.709 100.01 114.664C99.2041 116.619 97.5923 119.954 97.5923 119.954L97.1318 133.409Z" fill="#3D3D3D"/>
<path d="M102.312 134.674C101.674 133.49 100.942 133.254 99.4343 133.064C101.12 131.564 101.662 132.447 104.385 126.509C103.876 129.44 103.689 131.133 104.385 134.674C103.332 134.086 102.92 134.183 102.312 134.674Z" fill="#3D3D3D"/>
<path d="M117.048 101.554C113.649 104.162 111.866 104.211 108.644 104.774C107.684 111.101 107.238 114.576 105.766 120.529C103.501 131.024 104.679 133.47 106.572 138.124L107.378 136.514C109.221 124.572 108.838 117.652 116.243 107.419L117.048 101.554Z" fill="#3D3D3D"/>
<path d="M115.667 111.789C115.667 111.789 111.638 121.564 111.407 122.484C111.177 123.404 108.275 134.329 108.275 134.329C108.275 134.329 110.026 122.484 110.717 121.104C111.407 119.724 115.667 109.029 115.667 109.029V111.789Z" fill="#3D3D3D"/>
<path d="M96.7864 136.514V134.674C96.7864 134.674 99.7797 133.639 100.701 133.984C101.622 134.329 101.622 136.054 101.622 136.054L99.7797 140.999C97.6875 145.299 97.6871 148.067 96.7864 152.73C94.6427 156.142 93.4765 155.594 91.3756 156.065C91.7249 145.662 93.7063 142.632 96.7864 136.514Z" fill="#3D3D3D"/>
<path d="M91.3756 157.56V156.87C93.3604 156.226 93.7538 157.298 97.2469 153.65C98.1875 156.628 99.1217 157.703 101.391 158.71L97.7074 168.14C95.6483 172.317 94.7637 174.855 94.4839 180.33H95.4049C95.2862 176.672 95.2928 174.674 96.7864 172.165C98.335 175.198 98.7698 176.971 98.3982 180.33C96.7219 184.303 95.6053 186.028 92.8722 187C90.7492 186.495 90.2634 185.577 90.2243 183.205L91.0302 158.71C91.8539 160.191 92.4686 160.621 92.2966 164.69L91.9512 179.64H92.8722L92.8768 179.508C93.0993 173.141 93.2253 169.534 92.8722 160.895C92.5427 159.486 92.2502 158.744 91.3756 157.56Z" fill="#3D3D3D"/>
<path d="M97.7074 153.65C98.4349 145.357 99.8059 141.986 102.312 136.054L102.658 135.364C102.658 135.364 102.888 135.019 103.233 134.904C103.579 134.789 104.385 135.364 104.385 135.364L106.227 138.814C104.685 142.23 104.96 149.51 104.385 151.12C103.809 152.73 101.622 158.135 101.622 158.135C99.055 157.291 98.7224 155.85 97.7074 153.65Z" fill="#3D3D3D"/>
<path d="M73.7614 87.5237C69.705 91.2971 67.89 96.9538 68.0051 97.0688C68.1203 97.1838 68.3505 97.0688 68.3505 97.0688L70.5379 94.6538V95.3438L69.8471 97.4138L68.3505 102.704C68.3505 102.704 68.0051 103.164 68.0051 103.279C68.0051 103.394 68.3505 103.279 68.3505 103.279L68.9261 102.934L69.6169 101.209L71.1135 97.8738C71.1135 97.8738 71.3438 97.7588 71.574 97.7588C71.8043 97.7588 71.8043 98.1038 71.8043 98.1038L71.574 99.0238L70.5379 105.004C70.5379 105.004 70.7681 105.464 70.8833 105.349C70.9984 105.234 71.3438 104.544 71.3438 104.544L71.574 103.969L73.1858 98.5638C73.1858 98.5638 73.416 98.4488 73.5312 98.5638C73.6463 98.6788 73.5312 99.4838 73.5312 99.4838C73.5312 99.4838 73.416 105.694 73.5312 105.809C73.6463 105.924 73.9917 106.039 74.1068 105.809C74.2219 105.579 74.337 104.544 74.337 104.544L74.5673 102.934L74.9127 100.864L75.258 99.4838C75.258 99.4838 75.258 99.0238 75.4883 99.0238C75.7185 99.0238 75.6034 99.2538 75.6034 99.2538L75.8337 99.9438L76.179 103.279C76.179 103.279 76.2942 104.429 76.4093 104.544C76.5244 104.659 76.7547 104.659 76.9849 104.544C77.2152 104.429 77.2152 103.739 77.2152 103.739L77.3303 102.819C77.2572 97.4372 78.942 94.9988 78.7118 90.0537C76.4952 89.4837 75.4709 88.8398 73.7614 87.5237Z" fill="#3D3D3D"/>
<path d="M160.451 87.9837C158.34 90.2936 157.257 90.1721 155.27 90.7437C154.874 96.0693 157.068 101.979 157.112 102.819C157.156 103.659 157.242 104.026 157.457 104.544C157.457 104.544 157.688 104.659 157.803 104.544C157.918 104.429 157.803 103.969 157.803 103.969L158.033 102.589V100.174L158.263 99.2538H158.609C158.839 99.3688 160.451 105.579 160.451 105.579H160.911C160.911 105.579 161.141 105.809 161.372 105.579C161.602 105.349 160.451 99.9438 160.451 99.9438V99.2538C160.451 99.2538 160.681 98.7938 160.911 98.7938C161.141 98.7938 164.135 105.234 164.48 105.234C164.825 105.234 164.71 104.889 164.71 104.889L162.523 98.7938C162.523 98.7938 162.293 98.2188 162.523 98.1038C162.753 97.9888 162.868 98.1038 162.868 98.1038L166.207 102.589C166.207 102.589 166.667 102.704 166.898 102.589C167.128 102.474 166.898 102.129 166.898 102.129L163.329 95.6888C163.329 95.6888 162.868 95.4588 162.868 95.1138C162.868 94.7688 163.329 94.6538 163.329 94.6538C163.329 94.6538 166.667 96.3788 166.898 96.2638C167.128 96.1488 166.898 95.9188 166.898 95.9188L160.451 87.9837Z" fill="#3D3D3D"/>
<path d="M118.775 84.4187C121.48 80.7422 121.571 77.9231 130.863 77.7486L131.209 78.2086C131.843 86.3548 133.884 90.4803 137.503 97.7968L137.541 97.8738C136.245 100.124 135.998 101.624 135.584 104.314C126.013 105.209 123.264 103.251 118.775 99.3689V84.4187Z" fill="#3D3D3D"/>
<path d="M104.27 78.5536L102.428 87.5237L97.8226 97.8738C99.7308 100.341 99.964 101.77 100.47 104.314C109.895 104.125 114.553 103.591 118.085 99.3689V84.4187C116.464 81.5475 115.056 80.3709 112.213 78.5536C108.453 77.97 106.71 77.9664 104.27 78.5536Z" fill="#3D3D3D"/>
<path d="M101.507 79.1286L103.694 78.5536L102.197 85.5687L97.8226 96.0338L100.01 85.5687L101.507 79.1286Z" fill="#3D3D3D"/>
<path d="M131.669 77.7486H133.511C134.659 83.6082 135.452 86.8402 137.195 92.4687C137.742 94.1638 137.875 95.178 137.886 97.0688C134.621 89.7531 132.973 85.6021 131.669 77.7486Z" fill="#3D3D3D"/>
</svg>
