<svg width="157" height="146" viewBox="0 0 157 146" fill="none" xmlns="http://www.w3.org/2000/svg">
<path d="M97.7466 55.798C96.7795 53.3543 96.0637 52.3372 94.7466 50.781C94.7055 50.7324 94.687 50.6682 94.6968 50.6055L95.1019 47.9873C95.1148 47.9039 95.1772 47.8341 95.2589 47.8111C99.3839 46.6461 100.646 49.9441 103.564 53.165C103.601 53.2056 103.622 53.2585 103.622 53.3131V60.0351C103.622 60.2329 103.379 60.3302 103.239 60.1894C101.317 58.25 100.03 57.3834 97.8961 55.9458L97.8293 55.9008C97.7924 55.8759 97.763 55.8393 97.7466 55.798Z" fill="#91C5FF"/>
<path d="M103.035 51.6545L101.544 49.5121C101.442 49.3666 101.547 49.1677 101.725 49.1677H104.368C104.554 49.1677 104.657 49.3846 104.544 49.5319C103.999 50.2395 103.714 50.794 103.432 51.598C103.372 51.77 103.14 51.8042 103.035 51.6545Z" fill="#91C5FF"/>
<path d="M100.354 48.092C97.8699 44.8197 96.6145 42.873 95.3785 39.069C95.3568 39.0021 95.369 38.9273 95.4106 38.8704C97.2926 36.301 98.1262 34.252 99.5466 30.7611L99.5921 30.6492C99.6258 30.5663 99.7072 30.511 99.7972 30.511H104.836C109.905 30.2166 109.937 33.7349 111.554 37.9353C111.564 37.9605 111.569 37.9875 111.569 38.0144V45.5001C111.569 45.5934 111.508 45.6769 111.42 45.7079C108.783 46.6315 107.695 47.1893 105.766 48.1563C105.736 48.1717 105.701 48.18 105.667 48.18H100.531C100.462 48.18 100.396 48.1469 100.354 48.092Z" fill="#3781FA"/>
<path d="M117.419 30.511C113.559 30.387 113.75 34.1139 112.355 37.937C112.346 37.9612 112.342 37.9868 112.342 38.0125V45.4811C112.342 45.5834 112.413 45.6721 112.513 45.6954C114.549 46.1687 115.816 46.6238 118.355 48.3602C118.392 48.3854 118.436 48.3995 118.481 48.3995H124.485C124.553 48.3995 124.618 48.3674 124.66 48.3135C126.715 45.6578 127.798 43.7894 129.31 39.0544C129.328 38.996 129.322 38.9305 129.291 38.8772C127.576 35.8963 126.533 33.9518 124.659 30.3088C124.619 30.2321 124.538 30.1843 124.451 30.1883L117.419 30.511Z" fill="#3781FA"/>
<path d="M126.395 47.0482C127.401 45.6174 127.974 44.461 128.617 42.833C128.706 42.6101 129.043 42.6637 129.053 42.9031L129.218 46.9277C129.224 47.0651 129.102 47.1735 128.965 47.1574C128.083 47.0543 127.456 47.1271 126.708 47.4246C126.489 47.5119 126.259 47.2408 126.395 47.0482Z" fill="#3781FA"/>
<path d="M123.562 49.7408L121.095 52.1067C120.977 52.2193 120.781 52.1702 120.728 52.0169C120.348 50.9177 120.01 50.2974 119.465 49.5444C119.356 49.3933 119.469 49.1808 119.655 49.1895L123.419 49.3636C123.613 49.3725 123.702 49.6072 123.562 49.7408Z" fill="#91C5FF"/>
<path d="M129.181 47.9393C126.712 47.6467 124.748 49.2632 121.012 53.1639C120.973 53.2047 120.951 53.2597 120.951 53.316V60.322C120.951 60.5098 121.173 60.6106 121.316 60.4878L121.453 60.3693C123.225 58.8465 124.365 57.8666 126.836 56.4539C126.884 56.4265 126.921 56.3813 126.937 56.3291C127.689 54.0018 128.156 52.6695 129.724 50.5613C129.76 50.5128 129.775 50.4511 129.765 50.3917L129.367 48.1164C129.35 48.0233 129.275 47.9505 129.181 47.9393Z" fill="#91C5FF"/>
<path d="M120.951 63.9968V61.7634C120.951 61.7089 120.972 61.6557 121.009 61.6154C123.012 59.4244 124.309 58.4638 126.561 57.2551C126.713 57.1735 126.896 57.2905 126.885 57.462L126.697 60.2579C126.693 60.3237 126.659 60.384 126.605 60.4222L121.3 64.1757C121.153 64.2791 120.951 64.1752 120.951 63.9968Z" fill="#91C5FF"/>
<path d="M126.364 61.3129C124.163 62.5672 123.029 63.6973 121.026 65.4537C120.979 65.4954 120.951 65.556 120.951 65.6191V68.5275C120.951 68.6714 121.088 68.7763 121.228 68.7377C123.176 68.1983 124.423 67.5225 126.595 66.0248C126.654 65.9839 126.69 65.916 126.69 65.8442V61.5021C126.69 61.3349 126.509 61.2297 126.364 61.3129Z" fill="#91C5FF"/>
<path d="M120.911 69.4922L115.27 88.0224C115.194 88.2689 115.55 88.4272 115.691 88.2115C119.154 82.936 122.146 80.4669 127.211 76.4959C127.293 76.4317 127.319 76.3182 127.275 76.2241C126.221 73.9606 126.397 71.1942 126.364 67.183C126.362 66.9992 126.146 66.8996 126.001 67.0139C123.733 68.8042 122.705 69.0744 121.087 69.3389C121.004 69.3525 120.935 69.4119 120.911 69.4922Z" fill="#91C5FF"/>
<path d="M111.336 53.6821C108.121 53.9241 106.84 55.6594 104.26 57.6613C104.206 57.7031 104.174 57.7677 104.174 57.8356V62.7762C104.174 62.8974 104.273 62.9957 104.395 62.9957H104.456C104.488 62.9957 104.521 62.9883 104.55 62.9746C107.077 61.7953 108.626 61.3477 111.387 60.8343C111.492 60.8148 111.569 60.7239 111.569 60.6181V53.8985C111.569 53.7728 111.462 53.6726 111.336 53.6821Z" fill="#3781FA"/>
<path d="M111.569 52.5975V46.6094C111.569 46.4624 111.423 46.3578 111.282 46.4014C106.445 47.8955 106.011 49.3678 104.116 51.6299C104.082 51.6695 104.063 51.7202 104.063 51.7718V56.4715C104.063 56.6608 104.289 56.7605 104.431 56.6344L104.553 56.5264C106.797 54.5355 108.209 53.2821 111.376 52.8164C111.486 52.8003 111.569 52.7074 111.569 52.5975Z" fill="#3781FA"/>
<path d="M112.342 52.6187V46.5854C112.342 46.4458 112.472 46.342 112.61 46.3723C116.771 47.2929 118.364 48.6701 120.259 51.97C120.278 52.0031 120.289 52.0411 120.289 52.0792V56.493C120.289 56.6788 120.07 56.7803 119.925 56.6632C116.757 54.1066 115.133 53.5026 112.509 52.8318C112.411 52.8068 112.342 52.7191 112.342 52.6187Z" fill="#3781FA"/>
<path d="M112.342 60.6263V53.8516C112.342 53.745 112.419 53.6532 112.525 53.6395C114.722 53.3558 116.722 54.9087 120.204 57.6613C120.257 57.7029 120.289 57.7669 120.289 57.8338V62.6876C120.289 62.8384 120.139 62.9443 119.995 62.8955C117.185 61.9406 115.453 61.5175 112.513 60.8404C112.413 60.8173 112.342 60.7284 112.342 60.6263Z" fill="#3781FA"/>
<path d="M112.342 66.3647V61.8119C112.342 61.6819 112.455 61.5804 112.585 61.5944C115.623 61.9215 117.315 62.5113 120.153 63.7068C120.235 63.7411 120.289 63.8211 120.289 63.9091V68.6085C120.289 68.7234 120.198 68.8191 120.083 68.8258C116.871 69.0121 115.322 67.8355 112.474 66.5661C112.394 66.5306 112.342 66.4516 112.342 66.3647Z" fill="#3781FA"/>
<path d="M111.569 66.3818V61.8128C111.569 61.6825 111.455 61.5808 111.325 61.5958C108.568 61.9124 107.149 62.5722 104.65 63.4911C104.563 63.5231 104.505 63.6056 104.505 63.6976V68.8128C104.505 68.9338 104.604 69.0322 104.725 69.0302C107.301 68.9889 108.836 68.1011 111.459 66.5716C111.527 66.5322 111.569 66.4597 111.569 66.3818Z" fill="#3781FA"/>
<path d="M97.772 60.1216V57.1034C97.772 56.9383 97.949 56.8328 98.095 56.9114C100.361 58.1303 101.617 59.216 103.572 61.6178C103.604 61.6568 103.622 61.7061 103.622 61.7562V64.0337C103.622 64.2246 103.393 64.3244 103.251 64.1962C101.33 62.4662 100.087 61.5141 97.8878 60.315C97.8169 60.2763 97.772 60.202 97.772 60.1216Z" fill="#91C5FF"/>
<path d="M97.772 65.7403V61.3846C97.772 61.2193 97.9494 61.1139 98.0951 61.1936C100.294 62.3968 101.532 63.5803 103.657 65.4538C103.705 65.4954 103.732 65.5558 103.732 65.6187V68.7655C103.732 68.9035 103.605 69.0074 103.47 68.9777C101.515 68.5501 100.182 67.6685 97.8599 65.9155C97.805 65.8741 97.772 65.8088 97.772 65.7403Z" fill="#91C5FF"/>
<path d="M111.895 67.1307C109.118 68.9121 107.571 69.506 105.09 69.8733C104.956 69.8931 104.871 70.0274 104.909 70.1561C107.096 77.4997 108.244 82.2196 110.126 91.1623C110.131 91.1871 110.141 91.2113 110.154 91.2329L110.952 92.5226C110.993 92.5875 111.064 92.627 111.14 92.627H112.895C112.964 92.627 113.028 92.5954 113.07 92.5413L114.062 91.2595C114.091 91.2211 114.108 91.1741 114.108 91.1257V89.2569C114.108 89.2357 114.111 89.2145 114.117 89.1942L119.986 69.6346C120.027 69.4964 119.926 69.3568 119.781 69.3515C116.855 69.2448 115.115 68.8522 112.129 67.1254C112.057 67.0836 111.965 67.0856 111.895 67.1307Z" fill="#3781FA"/>
<path d="M97.2261 76.2797L97.7472 67.1607C97.7575 66.981 97.9703 66.8899 98.1111 67.003C100.445 68.8783 101.716 69.3819 103.697 69.6695C103.785 69.6823 103.857 69.7459 103.88 69.8315L108.767 88.2534C108.831 88.497 108.491 88.6442 108.353 88.4331C104.539 82.6097 101.802 80.4895 97.2996 76.4559C97.2499 76.4114 97.2223 76.346 97.2261 76.2797Z" fill="#91C5FF"/>
<path d="M135.189 33.2546C132.929 30.1515 125.738 29.6567 125.38 29.6339C125.368 29.6332 125.356 29.6288 125.348 29.6364C125.15 29.8129 128.26 35.6039 129.781 38.3029C131.332 41.0573 137.536 46.8193 137.507 45.6611C137.507 45.6582 137.507 45.6588 137.507 45.6559C137.507 45.5611 137.495 36.4207 135.189 33.2546Z" fill="#3781FA"/>
<path d="M130.22 49.3374L129.811 40.4944C129.801 40.284 130.068 40.1832 130.204 40.3447C133.096 43.7831 134.782 45.4108 137.409 46.7052C137.47 46.7356 137.515 46.7935 137.53 46.8604C138.231 50.0667 141.126 51.7416 141.585 57.6423C141.589 57.6964 141.572 57.7518 141.539 57.7951C140.654 58.9634 140.466 60.1752 140.203 62.1927C140.182 62.3572 139.992 62.4402 139.855 62.3445C136.993 60.3344 135.536 59.6068 133.127 58.4045L132.968 58.3248C132.907 58.2946 132.863 58.2365 132.849 58.1706C131.776 52.9728 131.205 51.2189 130.246 49.4313C130.23 49.4023 130.222 49.3702 130.22 49.3374Z" fill="#91C5FF"/>
<path d="M140.819 64.4954C140.869 61.4499 141.231 60.2831 141.927 58.5389C141.98 58.406 142.143 58.3586 142.255 58.4479C143.064 59.0912 145.856 61.4995 146.889 64.8614C148.092 68.7768 149.624 74.0627 152.549 80.4901C152.594 80.5898 152.559 80.7084 152.467 80.7672L151.591 81.3211C151.492 81.3838 151.36 81.3568 151.292 81.2616C145.744 73.5134 142.198 68.7769 140.829 64.5662C140.822 64.5435 140.819 64.5193 140.819 64.4954Z" fill="#91C5FF"/>
<path d="M148.768 82.8464C144.847 74.5461 133.485 70.3509 132.889 59.5621C132.879 59.3884 133.069 59.2735 133.218 59.3637L140.058 63.4853C140.119 63.5223 140.159 63.5867 140.164 63.6581C140.41 66.8254 142.079 70.1772 150.61 81.6804C150.686 81.7822 150.662 81.93 150.555 81.9988L149.092 82.9402C148.978 83.0132 148.826 82.9681 148.768 82.8464Z" fill="#91C5FF"/>
<path d="M114.981 99.495L113.682 93.0347C113.672 92.984 113.68 92.9304 113.705 92.8851C117.523 85.9763 120.213 82.9307 125.216 78.8397C125.387 78.7 125.633 78.8692 125.56 79.0768C122.91 86.6225 119.799 91.5152 115.393 99.5547C115.295 99.735 115.022 99.6963 114.981 99.495Z" fill="#3D3D3D"/>
<path d="M116.5 110.838L115.111 101.368C115.105 101.322 115.113 101.275 115.135 101.233L124.46 83.7739C124.585 83.5405 124.942 83.6849 124.867 83.9386L116.931 110.868C116.864 111.094 116.534 111.071 116.5 110.838Z" fill="#3D3D3D"/>
<path d="M120.422 102.534L125.348 85.391C125.399 85.2128 125.637 85.1741 125.745 85.3248C128.177 88.7012 130.026 89.8321 130.112 98.5533C128.988 108.682 126.868 110.946 123.97 116.298C123.864 116.493 123.562 116.43 123.546 116.209C123.046 109.233 122.233 106.437 120.435 102.69C120.412 102.641 120.407 102.585 120.422 102.534Z" fill="#3D3D3D"/>
<path d="M126.509 113.651C130.088 109.323 130.87 97.8398 131.809 92.992C131.856 92.7498 132.156 92.7817 132.17 93.028C132.663 101.658 133.165 107.119 131.23 113.215C131.221 113.244 131.205 113.271 131.185 113.294L127.364 117.607C127.256 117.728 127.058 117.696 126.997 117.546C126.391 116.058 126.268 115.169 126.461 113.761C126.466 113.72 126.483 113.683 126.509 113.651Z" fill="#3D3D3D"/>
<path d="M127.145 77.2819L126.561 77.6448C126.503 77.6806 126.465 77.741 126.458 77.8083L125.818 83.9608C125.811 84.0278 125.837 84.095 125.885 84.1421C128.857 87.0389 129.41 89.6099 130.476 93.673C130.531 93.8838 130.828 93.8942 130.897 93.6875L131.861 90.8118C131.872 90.7786 131.875 90.7424 131.87 90.7079C130.864 84.2763 129.628 81.7688 127.515 77.4827L127.461 77.3728C127.403 77.256 127.256 77.2129 127.145 77.2819Z" fill="#3D3D3D"/>
<path d="M117.1 113.215L119.666 104.339C119.724 104.137 120.006 104.126 120.08 104.323C121.688 108.638 122.161 111.934 122.818 117.784C122.824 117.838 122.809 117.894 122.777 117.938C120.672 120.843 119.697 121.151 118.22 120.76C118.136 120.738 118.074 120.666 118.062 120.579L117.094 113.305C117.09 113.275 117.092 113.244 117.1 113.215Z" fill="#3D3D3D"/>
<path d="M119.065 126.923L118.132 121.771C118.106 121.629 118.223 121.502 118.368 121.508C121.612 121.64 123.057 119.437 125.315 115.562C125.426 115.371 125.723 115.442 125.74 115.661C125.835 116.908 126.029 117.603 126.418 118.42C126.45 118.487 126.447 118.565 126.408 118.629L120.562 128.352C120.483 128.484 120.296 128.496 120.2 128.377L119.109 127.021C119.086 126.992 119.071 126.959 119.065 126.923Z" fill="#3D3D3D"/>
<path d="M121.645 127.542L120.916 128.919C120.871 129.005 120.887 129.109 120.955 129.177L121.36 129.579C121.441 129.66 121.57 129.665 121.658 129.593L122.633 128.784C122.736 128.699 122.739 128.544 122.646 128.449C122.351 128.149 122.195 127.895 122.093 127.598C122.025 127.4 121.743 127.357 121.645 127.542Z" fill="#3D3D3D"/>
<path d="M122.526 125.945L126.233 120.364C126.302 120.26 126.444 120.233 126.543 120.311C128.355 121.74 127.755 123.509 126.732 126.526L126.721 126.558C126.702 126.615 126.659 126.663 126.605 126.688L123.497 128.13C123.424 128.164 123.338 128.155 123.274 128.106C122.52 127.524 122.394 127.024 122.491 126.043C122.494 126.008 122.506 125.974 122.526 125.945Z" fill="#3D3D3D"/>
<path d="M130.274 115.039L126.836 119.122C126.756 119.217 126.772 119.358 126.867 119.438C128.755 121.016 128.712 122.741 127.556 126.36C127.511 126.502 127.617 126.648 127.767 126.648H130.443C130.565 126.648 130.664 126.55 130.664 126.429V120.804V115.18C130.664 114.975 130.406 114.882 130.274 115.039Z" fill="#3D3D3D"/>
<path d="M126.307 127.667L122.051 130.206C121.985 130.245 121.944 130.317 121.944 130.394V134.596C121.944 134.638 121.956 134.679 121.979 134.714C125.932 140.959 127.854 144.773 126.696 155.9C126.692 155.933 126.696 155.966 126.707 155.997L127.282 157.631C127.348 157.817 127.609 157.827 127.689 157.646C131.685 148.703 131.667 141.415 130.679 127.842C130.671 127.727 130.574 127.636 130.459 127.636H126.42C126.38 127.636 126.341 127.647 126.307 127.667Z" fill="#3D3D3D"/>
<path d="M121.944 145.038V136.752C121.944 136.523 122.248 136.447 122.353 136.651C123.216 138.325 125.184 142.253 125.697 144.207C126.214 146.178 126.327 151.494 126.352 153.73C126.355 153.966 126.036 154.035 125.937 153.821L121.964 145.129C121.951 145.1 121.944 145.069 121.944 145.038Z" fill="#3D3D3D"/>
<path d="M127.463 160.85V159.516C127.463 159.48 127.472 159.445 127.488 159.414C131.367 151.956 132.299 146.419 132.04 135.747C132.033 135.489 132.386 135.433 132.449 135.683C134.608 144.21 133.363 150.221 131.574 160.294C131.558 160.386 131.485 160.46 131.392 160.475L127.719 161.067C127.585 161.089 127.463 160.986 127.463 160.85Z" fill="#3D3D3D"/>
<path d="M98.655 79.6259V78.841C98.655 78.6528 98.8788 78.5535 99.021 78.6776C104.44 83.4083 106.765 86.7863 110.535 92.8911C110.561 92.9328 110.573 92.9826 110.567 93.0313L109.666 100.991C109.642 101.209 109.346 101.26 109.249 101.063L98.6777 79.7229C98.6628 79.6927 98.655 79.6595 98.655 79.6259Z" fill="#3D3D3D"/>
<path d="M107.622 112.55C104.462 100.669 102.766 94.9614 100.093 85.8881C100.018 85.6322 100.379 85.4869 100.5 85.7245L109.111 102.556C109.13 102.594 109.138 102.636 109.134 102.679L108.056 112.52C108.029 112.762 107.684 112.785 107.622 112.55Z" fill="#3D3D3D"/>
<path d="M92.6969 91.1582C93.0227 84.9226 95.83 83.2257 97.0488 77.9734C97.0998 77.7535 97.4197 77.7302 97.493 77.9438C98.2269 80.0817 98.6567 81.5152 98.6552 83.9819C98.6552 84.0361 98.6341 84.0896 98.5977 84.1299C95.8674 87.1503 95.1583 89.8231 94.188 94.3577C94.1412 94.5767 93.8329 94.5954 93.7617 94.383L92.7079 91.2395C92.6992 91.2136 92.6955 91.1854 92.6969 91.1582Z" fill="#3D3D3D"/>
<path d="M100.665 116.783C93.5381 101.767 92.506 94.4626 98.7138 85.3395C98.8193 85.1846 99.0604 85.2237 99.1082 85.4046C100.663 91.2909 101.363 95.0088 103.704 100.028C103.722 100.068 103.729 100.113 103.722 100.156L101.084 116.73C101.05 116.943 100.757 116.978 100.665 116.783Z" fill="#3D3D3D"/>
<path d="M101.863 118.436C102.422 111.793 103.041 108.388 103.997 102.779C104.037 102.544 104.372 102.53 104.429 102.762L107.364 114.532C107.371 114.561 107.372 114.591 107.367 114.621L106.299 120.993C106.282 121.092 106.201 121.167 106.1 121.173C104.389 121.261 103.459 120.437 101.914 118.597C101.877 118.552 101.859 118.494 101.863 118.436Z" fill="#3D3D3D"/>
<path d="M94.4442 114.854C92.0182 107.317 91.754 102.447 92.5744 93.8418C92.5977 93.5982 92.9418 93.5686 93.0039 93.8052L94.0138 97.6547C94.0174 97.6684 94.0197 97.6832 94.0206 97.6974C94.2274 101.102 92.9814 100.097 97.3305 112.381C97.926 114.444 97.7887 115.515 97.1255 117.13C97.0665 117.274 96.8792 117.31 96.7687 117.2L94.4985 114.943C94.4737 114.918 94.4549 114.887 94.4442 114.854Z" fill="#3D3D3D"/>
<path d="M94.9189 127.416H94.1452C94.0174 127.416 93.9164 127.307 93.9251 127.18C94.2279 122.763 94.3912 120.182 94.4522 116.661C94.4556 116.463 94.7001 116.369 94.8356 116.514L97.0532 118.889C97.1725 119.016 97.1006 119.229 96.936 119.288C94.9299 120.017 95.4114 123.402 95.1383 127.214C95.1301 127.328 95.0341 127.416 94.9189 127.416Z" fill="#3D3D3D"/>
<path d="M96.3372 121.161C95.9513 122.312 95.9027 126.062 95.8965 126.988C95.8958 127.105 95.9879 127.201 96.1053 127.208C98.1816 127.328 99.1558 127.64 100.542 128.303C100.656 128.357 100.794 128.307 100.839 128.189C101.214 127.206 101.16 126.483 100.973 125.221C100.619 122.888 99.5626 121.892 98.052 120.027C98.0144 119.98 97.9595 119.951 97.8995 119.952C97.6069 119.957 96.7045 120.065 96.3372 121.161Z" fill="#3D3D3D"/>
<path d="M97.4527 117.844C98.0524 117.143 98.1827 116.333 98.2735 115.105C98.2896 114.886 98.5836 114.822 98.6914 115.014C101.237 119.533 102.863 121.638 105.932 121.708C106.057 121.711 106.158 121.814 106.155 121.938C106.064 125.608 105.615 126.703 104.687 127.855C104.596 127.967 104.423 127.96 104.34 127.843L97.4355 118.126C97.3746 118.04 97.3842 117.924 97.4527 117.844Z" fill="#3D3D3D"/>
<path d="M101.383 128.663C101.763 127.775 101.855 127.056 101.862 126.035C101.864 125.811 102.163 125.725 102.28 125.917L104.005 128.748C104.042 128.808 104.047 128.881 104.02 128.946L103.61 129.926C103.558 130.049 103.408 130.098 103.292 130.029L101.473 128.944C101.377 128.886 101.34 128.766 101.383 128.663Z" fill="#3D3D3D"/>
<path d="M103.096 130.856C99.2248 127.564 97.2337 127.992 93.7476 128.28C93.6481 128.289 93.5652 128.362 93.5471 128.46L92.8088 132.445C92.8064 132.458 92.8051 132.472 92.8051 132.485C92.7977 143.296 92.8106 149.44 96.7813 158.322C96.8609 158.5 97.1178 158.495 97.1875 158.313L97.8632 156.549C97.8758 156.516 97.8802 156.48 97.8761 156.445C96.6811 146.118 97.5279 141.127 102.916 134.385C102.944 134.35 102.961 134.306 102.964 134.262L103.173 131.037C103.178 130.969 103.148 130.9 103.096 130.856Z" fill="#3D3D3D"/>
<path d="M102.534 136.051C101.615 137.656 99.4769 141.5 98.8758 143.549C98.1464 146.035 98.2039 154.194 98.2127 155.1C98.2127 155.1 101.856 147.39 102.297 145.744C102.655 144.411 102.868 138.404 102.936 136.164C102.943 135.938 102.647 135.855 102.534 136.051Z" fill="#3D3D3D"/>
<path d="M93.2165 160.507C91.3057 150.205 90.3402 144.19 91.7062 136.356C91.7504 136.102 92.1038 136.131 92.1167 136.389C92.6956 147.955 93.3922 154.316 97.2932 160.175C97.3172 160.211 97.3303 160.253 97.3303 160.297V160.864C97.3303 160.994 97.2164 161.096 97.0859 161.082L93.4102 160.687C93.3131 160.676 93.2342 160.602 93.2165 160.507Z" fill="#3D3D3D"/>
<path d="M87.7091 46.7713C84.6299 50.4629 83.9769 53.0151 83.1074 57.6265C83.0954 57.6901 83.1124 57.7567 83.1525 57.8077C83.9222 58.7872 84.1092 59.865 84.285 61.9115C84.2949 62.0273 84.3938 62.1159 84.5106 62.11C86.8152 61.9942 88.6089 60.8713 91.714 58.8854C91.7726 58.848 91.8108 58.7834 91.816 58.7143C92.0835 55.1356 92.9415 53.6367 94.112 50.7385C94.121 50.716 94.1265 50.6918 94.1277 50.6677L94.6476 40.6048C94.6585 40.3944 94.392 40.2921 94.255 40.4528C91.5285 43.6512 90.1022 44.8836 87.7424 46.7389C87.7303 46.7484 87.7189 46.7595 87.7091 46.7713Z" fill="#91C5FF"/>
<path d="M84.2728 63.1379C82.5869 71.1657 79.5768 74.9934 74.2986 81.681C74.2185 81.7826 74.2419 81.9324 74.3509 82.0025L75.796 82.9322C75.9136 83.0079 76.0746 82.949 76.1259 82.8193C81.5761 69.0358 88.8001 75.0627 91.1824 60.1803C91.2119 59.9964 91.0133 59.8522 90.8555 59.9524C88.8198 61.2453 87.9237 62.2078 84.4455 62.965C84.3598 62.9836 84.2907 63.0526 84.2728 63.1379Z" fill="#91C5FF"/>
<path d="M73.1896 81.1722L72.3066 80.4539C72.2228 80.3857 72.2021 80.2654 72.2564 80.1721C74.749 75.8911 75.7328 73.8347 76.6826 70.9095C76.6852 70.9015 76.6873 70.8936 76.689 70.8854C76.7369 70.6495 77.4914 66.9744 78.4525 64.5321C79.2754 62.4412 81.6888 59.8984 82.493 59.0872C82.6112 58.9679 82.8111 59.028 82.8509 59.1907C84.8574 67.3924 79.5334 72.4607 73.5125 81.1253C73.4391 81.2309 73.2895 81.2535 73.1896 81.1722Z" fill="#91C5FF"/>
<path d="M95.1118 38.5356C92.3072 41.8531 90.6252 43.475 87.7159 45.7354C87.5776 45.8429 87.377 45.7562 87.3678 45.5819C87.2687 43.709 87.0494 35.8311 90.1523 33.0351C93.205 30.2844 97.4945 30.1571 98.6025 30.1732C98.7428 30.1752 98.8364 30.3085 98.7979 30.4427C97.9806 33.2951 97.1888 35.1243 95.132 38.5076C95.1261 38.5173 95.1191 38.527 95.1118 38.5356Z" fill="#3781FA"/>
<path d="M95.3437 46.8142V42.2368C95.3437 42.0173 95.632 41.9337 95.7507 42.1188L98.9899 47.1736C99.1106 47.362 98.9064 47.5833 98.7065 47.4812C97.7768 47.0065 97.1411 46.7699 95.6086 47.0323C95.4717 47.0557 95.3437 46.9523 95.3437 46.8142Z" fill="#3781FA"/>
<path fill-rule="evenodd" clip-rule="evenodd" d="M120.616 11.1958C120.495 11.1958 120.395 11.0975 120.395 10.9763C120.395 11.0975 120.494 11.1958 120.616 11.1958ZM106.602 17.2754C106.602 17.2485 106.587 17.2236 106.564 17.2102C106.539 17.196 106.515 17.1816 106.491 17.1672L106.602 17.2754ZM118.346 16.6322C118.315 16.6653 118.295 16.7072 118.289 16.7522C118.295 16.7072 118.315 16.6646 118.346 16.6314C118.346 16.6317 118.346 16.6319 118.346 16.6322Z" fill="#3D3D3D"/>
<path fill-rule="evenodd" clip-rule="evenodd" d="M73.8651 84.7499C73.9051 84.67 73.8857 84.5743 73.8222 84.5112C73.8856 84.5743 73.9052 84.67 73.8651 84.7499ZM73.4402 84.4196C73.5283 84.3446 73.6594 84.3493 73.7414 84.4309C73.6595 84.3494 73.5282 84.3447 73.4402 84.4196Z" fill="#3D3D3D"/>
<path fill-rule="evenodd" clip-rule="evenodd" d="M156.478 83.9502L156.488 83.9571L156.497 83.9624C156.494 83.9607 156.491 83.9588 156.488 83.9571C156.484 83.9549 156.482 83.9528 156.478 83.9502ZM151.917 84.9052C151.876 84.8606 151.817 84.8344 151.757 84.8443C151.756 84.8444 151.756 84.8445 151.756 84.8445C151.817 84.8343 151.875 84.8602 151.917 84.9052ZM153.577 86.891C153.604 86.91 153.618 86.9202 153.618 86.9202L153.669 86.9282C153.635 86.9229 153.605 86.9109 153.577 86.891ZM162.437 94.5872L162.448 94.6024C162.448 94.6024 162.453 94.6072 162.462 94.6159C162.458 94.6123 162.455 94.6086 162.451 94.6048C162.447 94.5995 162.442 94.593 162.437 94.5872ZM155.118 93.0597L155.053 92.9562H154.93C155.007 92.9562 155.077 92.9954 155.118 93.0597ZM152.131 92.6354L152.073 92.5173C152.073 92.5173 152.011 92.5173 151.937 92.5335C152.019 92.5156 152.094 92.5604 152.131 92.6354ZM151.536 93.024C151.526 93.05 151.521 93.066 151.521 93.066L151.524 93.1097C151.522 93.0804 151.526 93.0516 151.536 93.024Z" fill="#3D3D3D"/>
<path d="M86.7344 175.265C86.2929 176.473 92.3093 178.108 94.2399 178.558C96.1566 179.004 98.6828 169.261 97.3596 162.14C97.3424 162.047 97.2672 161.978 97.1733 161.965L93.4776 161.469C93.3521 161.452 93.2385 161.541 93.2252 161.667C92.6511 167.076 87.1697 174.075 86.7344 175.265Z" fill="#3D3D3D"/>
<path d="M138.276 175.265C138.607 174.168 131.985 164.73 131.547 164.071C131.209 163.562 131.193 162.267 131.204 161.705C131.206 161.566 131.083 161.456 130.945 161.477L127.645 161.96C127.539 161.975 127.46 162.057 127.457 162.163C127.403 163.67 127.03 174.332 127.238 175.046C127.463 175.814 129.887 178.887 130.881 178.997C131.874 179.107 137.945 176.363 138.276 175.265Z" fill="#3D3D3D"/>
<path d="M162.448 88.8957C162.448 88.7859 159.247 85.3838 158.916 85.2741C158.598 85.1685 156.647 84.0487 156.497 83.9624L156.488 83.9571L156.478 83.9502L153.742 81.9618C153.667 81.9077 153.567 81.9053 153.49 81.9556L149.529 84.5465C149.464 84.5893 149.426 84.6633 149.43 84.741L149.754 91.0741C149.755 91.085 149.756 91.096 149.758 91.1067L150.952 96.9346C150.963 96.9875 150.993 97.0347 151.037 97.0669L151.399 97.335C151.409 97.3424 151.42 97.3489 151.431 97.3538C151.484 97.3768 151.65 97.4374 151.742 97.3461C151.845 97.2429 151.559 93.5543 151.524 93.1097L151.521 93.066C151.521 93.066 151.526 93.05 151.536 93.024C151.57 92.9317 151.656 92.7126 151.742 92.627C151.794 92.5753 151.87 92.5479 151.937 92.5335C152.011 92.5173 152.073 92.5173 152.073 92.5173L152.131 92.6354C152.592 93.5644 155.613 99.6591 155.715 99.7605C155.826 99.8702 156.046 99.8702 156.157 99.7605C156.267 99.6507 156.377 99.541 156.377 99.4312C156.377 99.3215 154.832 94.5366 154.832 94.2732C154.832 94.0232 154.766 93.8194 154.728 93.7367C154.724 93.7284 154.719 93.7209 154.714 93.7132C154.676 93.6547 154.501 93.3832 154.501 93.2855C154.501 93.1757 154.722 92.9562 154.832 92.9562H154.93H155.053L155.118 93.0597L158.648 98.6974C158.678 98.7457 158.726 98.7805 158.782 98.7932C158.922 98.8249 159.198 98.8825 159.358 98.8825C159.578 98.8825 159.689 98.9923 159.799 98.8825C159.897 98.7854 159.822 98.4302 159.803 98.35C159.8 98.339 159.798 98.3306 159.793 98.3202C159.658 97.9993 157.153 92.0723 157.26 91.8588C157.371 91.6393 157.481 91.6393 157.702 91.6393C157.923 91.6393 162.227 95.6999 162.448 95.6999C162.669 95.6999 163 95.3707 163 95.2609C163 95.1614 162.546 94.7009 162.462 94.6159C162.453 94.6072 162.448 94.6024 162.448 94.6024L162.437 94.5872C161.22 92.8628 158.783 89.4222 158.695 89.3346C158.607 89.2468 158.254 87.7982 158.033 87.6885C157.827 87.5858 154.146 87.0034 153.669 86.9282L153.618 86.9202C153.618 86.9202 153.604 86.91 153.577 86.891C153.268 86.6695 151.309 85.2567 151.414 85.0546C151.488 84.9121 151.651 84.8621 151.756 84.8445C151.756 84.8445 151.756 84.8444 151.757 84.8443C151.817 84.8344 151.876 84.8606 151.917 84.9052C152.174 85.1793 153.112 86.1673 153.397 86.2618C153.728 86.3715 156.488 86.9202 157.04 86.9202C157.592 86.9202 162.007 89.2249 162.227 89.1151C162.448 89.0054 162.448 89.0054 162.448 88.8957Z" fill="#3D3D3D"/>
<path d="M63.6623 89.5541C63.883 89.6639 67.9669 86.9202 68.4084 86.7007C68.8499 86.4812 71.0574 86.152 71.4989 85.9325C71.8576 85.7542 73.0176 84.7791 73.4402 84.4196C73.5283 84.3446 73.6594 84.3493 73.7414 84.4309L73.8222 84.5112C73.8856 84.5743 73.9052 84.67 73.8651 84.7499C72.8963 86.6846 69.3675 87.0314 67.7129 87.5538C67.6622 87.5698 67.6232 87.5998 67.5962 87.6453C67.1454 88.4032 63 95.3766 63 95.4804C63 95.5901 63.3532 95.8974 63.4415 95.8096C63.5298 95.7218 68.4084 90.4321 68.5188 90.4321C68.6291 90.4321 68.7395 90.5418 68.7395 90.6516C68.7395 90.7571 65.7832 96.8428 65.5528 97.3168C65.5424 97.3383 65.5371 97.3579 65.5344 97.3816C65.5152 97.5471 65.4416 98.2373 65.5386 98.3338C65.6165 98.4113 65.8044 98.3794 65.9082 98.3539C65.9553 98.3423 65.9925 98.3156 66.0198 98.2756C66.4707 97.6142 70.6219 91.5295 70.7263 91.5295C70.8366 91.5295 70.947 91.6393 70.947 91.749C70.947 91.8313 70.0157 95.6793 69.5501 97.5982C69.3962 98.2324 69.2931 98.6559 69.2914 98.663C69.2872 98.68 69.1832 99.1042 69.2914 99.2118C69.4018 99.3215 69.5121 99.4312 69.6225 99.4312H69.9536C70.0606 99.4312 70.3747 98.6073 70.3942 98.5558L70.3946 98.5546L70.3951 98.5533C70.417 98.4993 73.155 91.749 73.2649 91.749H73.596C73.7064 91.749 73.7064 92.188 73.7064 92.188V92.6093C73.7064 92.6211 73.7074 92.6329 73.7093 92.6445L74.4489 97.1618C74.4663 97.2681 74.5585 97.3461 74.6667 97.3461H74.8024C74.8762 97.3461 74.9451 97.3094 74.9861 97.2483L75.1042 97.0721C75.1284 97.0361 75.1413 96.9937 75.1413 96.9504V96.6876C75.0365 91.2596 75.2894 88.5926 75.7894 83.9778C75.798 83.8981 75.7624 83.8189 75.6963 83.773L72.2818 81.4068C72.2087 81.3562 72.1137 81.353 72.039 81.4013C68.3164 83.811 63.4439 89.4456 63.6623 89.5541Z" fill="#3D3D3D"/>
<path d="M104.501 10.4276C104.391 10.5373 103.949 10.8665 103.839 11.1958C103.738 11.4968 103.822 12.8069 103.837 13.0293C103.838 13.0511 103.843 13.0722 103.851 13.0925C104.643 15.1278 105.085 16.328 106.491 17.1672C106.515 17.1816 106.539 17.196 106.564 17.2102C106.587 17.2236 106.602 17.2485 106.602 17.2754V17.3597V19.3409C106.602 19.3961 106.624 19.45 106.661 19.4904C108.523 21.4802 109.734 22.0051 111.955 22.4885C111.959 22.4893 111.964 22.4902 111.968 22.4908C111.998 22.4954 112.028 22.4941 112.057 22.4868L112.088 22.4791C114.186 21.9506 115.397 21.6458 117.784 19.9213C117.832 19.8863 117.865 19.8323 117.873 19.7733L118.289 16.7522C118.295 16.7072 118.315 16.6653 118.346 16.6322C118.346 16.6319 118.346 16.6317 118.346 16.6314C120.211 14.639 120.878 13.4568 120.843 11.4069C120.841 11.289 120.743 11.1958 120.624 11.1958H120.616C120.495 11.1958 120.395 11.0975 120.395 10.9763V5.08202C120.395 5.0608 120.393 5.04291 120.386 5.02273C120.255 4.61995 118.586 -0.103342 112.669 0.00172674C106.811 0.105738 104.621 4.74425 104.408 5.22872C104.396 5.2575 104.391 5.2835 104.393 5.31487C104.414 5.81716 104.605 10.3239 104.501 10.4276Z" fill="#3D3D3D"/>
<path d="M112.322 23.2663C109.765 23.0649 108.825 22.3162 107.411 21.0685C107.269 20.9431 107.044 21.0427 107.044 21.232V23.2308C107.044 23.2553 107.048 23.2796 107.056 23.3027L111.695 36.6159C111.763 36.8115 112.04 36.8116 112.111 36.6171L112.119 36.5929C114.072 31.1199 115.143 27.6903 117.828 23.3211C117.849 23.2865 117.86 23.2464 117.86 23.2059V21.1967C117.86 21.0133 117.646 20.9111 117.5 21.0228C115.303 22.7002 114.159 23.0971 112.361 23.266L112.342 23.2678L112.322 23.2663Z" fill="#3D3D3D"/>
<path d="M106.386 24.7298C105.301 27.0484 104.315 28.1835 102.68 29.0311C102.455 29.148 102.551 29.5514 102.805 29.5386C105.081 29.4246 106.66 29.5309 108.643 30.3059C108.826 30.3778 109.013 30.1962 108.939 30.0141L106.797 24.7371C106.724 24.5572 106.468 24.5539 106.386 24.7298Z" fill="#3D3D3D"/>
<path d="M117.592 24.8099L115.154 29.8444C115.081 29.9955 115.198 30.169 115.366 30.1587L122.649 29.7117C122.897 29.6965 122.936 29.3426 122.7 29.2678C120.271 28.4995 118.841 27.6371 118.02 24.8514C117.961 24.6534 117.682 24.624 117.592 24.8099Z" fill="#3D3D3D"/>
<g opacity="0.75">
<path d="M27.2961 87.0547L27.2888 86.9744C27.2888 86.9744 32.4334 91.8894 33.6277 93.0726C34.8219 94.2558 36.9349 99.3528 36.9349 99.3528C33.0161 97.7638 30.8488 97.8704 27.0132 98.8977C27.9343 94.0927 27.7036 91.5485 27.2961 87.0547Z" fill="#3781FA"/>
<path d="M39.4153 77.3266C35.3057 82.3925 34.7663 85.5895 32.709 91.0702C35.4332 93.8998 36.2957 95.9564 37.578 99.8079C38.6689 100.436 39.1365 101.252 39.9665 102.72V77.8727L39.4153 77.3266Z" fill="#3781FA"/>
<path d="M25.1758 76.0524L25.6352 72.5027C28.5196 73.2018 30.4783 73.3249 35.2813 72.5027L39.0478 76.8715C35.4604 81.0595 33.833 82.0328 31.331 82.3326C28.9832 81.9562 27.8878 81.3467 26.2783 79.6931L25.1758 76.0524Z" fill="#3781FA"/>
<path d="M29.8611 59.6693L27.2888 60.2154L30.4123 63.31L31.331 66.7686L39.9665 76.8715V62.5818C39.4439 60.856 38.8005 60.2892 37.3024 59.6693H29.8611Z" fill="#3781FA"/>
<path d="M43.09 59.6693C41.6493 60.6698 41.0698 61.3021 40.5177 62.5818V77.3266L47.4997 69.1351C48.927 67.317 49.1758 66.1487 49.5207 64.0381C50.6328 61.6401 51.4849 60.7461 53.5629 60.2154L43.09 59.6693Z" fill="#3781FA"/>
<path d="M40.5177 60.8525V58.213C41.0155 58.8814 41.3447 59.1836 42.1713 59.3962C41.3292 59.8927 41.0226 60.2322 40.5177 60.8525Z" fill="#3D3D3D"/>
<path d="M39.9665 60.8525V58.213C39.3703 58.7781 38.9445 59.0449 37.9454 59.3962C38.7773 59.8643 39.2275 60.1713 39.9665 60.8525Z" fill="#3D3D3D"/>
<path d="M39.9665 56.7567V47.1999C37.461 47.8659 36.7397 49.4965 35.0975 51.7508C34.7121 54.6325 35.6092 56.214 31.331 59.2142H36.5674C38.4791 58.8325 39.1984 58.293 39.9665 56.7567Z" fill="#3D3D3D"/>
<path d="M40.5177 56.7567V47.1999C42.3706 48.5217 43.0349 49.6709 44.1924 51.7508C44.1365 55.6787 45.0905 57.1775 47.6834 59.2142H42.8144C41.1583 58.4262 40.8632 57.8407 40.5177 56.7567Z" fill="#3D3D3D"/>
<path d="M40.0584 46.6538C37.3142 47.1328 36.5902 48.64 35.0975 51.0226C33.961 49.7453 33.7943 49.0951 33.4439 47.928V45.9257L33.9033 45.8346C33.9033 45.8346 32.1578 37.279 40.0584 37.006C47.959 36.7329 46.3054 45.9257 46.3054 45.9257H46.581V47.928L46.0298 49.4753C45.4202 49.749 45.1477 49.9203 44.9274 50.2945L44.5599 51.2047C42.845 48.0486 41.8567 47.1391 40.0584 46.6538Z" fill="#3D3D3D"/>
<path d="M30.4123 65.8584C28.838 68.2157 27.6719 68.7654 25.6352 69.8632V71.7745C26.8974 72.2229 27.657 72.4081 29.218 72.5027L29.227 72.5021C31.5784 72.3518 32.8982 72.2674 34.9138 71.7745C32.6842 69.6668 31.8448 68.3085 30.4123 65.8584Z" fill="#3781FA"/>
<path d="M18.837 64.4021C17.779 66.4792 17.4165 67.9308 17.6427 71.5925C21.6355 70.8959 23.8236 70.3761 28.1156 67.5877C29.9047 66.1447 29.9148 65.354 29.7692 63.9471C28.9565 61.8125 27.8448 61.4217 26.2783 60.2154C22.9982 60.8984 21.3566 61.7706 18.837 64.4021Z" fill="#3781FA"/>
<path d="M16.1728 77.3266L17.3671 72.0476C19.7722 71.955 21.1171 71.619 23.5222 70.6823C21.5222 74.3205 19.7199 75.5432 16.1728 77.3266Z" fill="#3781FA"/>
<path d="M24.2572 70.5003C23.6687 71.9059 23.1598 72.7498 21.7767 74.414C21.5154 77.8729 21.9803 78.4241 22.6036 79.8751C23.3403 77.997 23.782 76.9975 24.8084 75.6883C25.0271 73.4527 25.112 72.2152 25.1758 70.0452L24.2572 70.5003Z" fill="#3781FA"/>
<path d="M22.3279 80.6032C21.2158 78.42 21.2503 77.1749 21.1337 74.9601C18.8143 76.7351 17.711 77.3219 15.8972 78.0547C15.8972 78.0547 13.0493 83.6978 13.1412 83.9709C13.2331 84.2439 15.4379 86.5193 15.6216 86.6104C15.8053 86.7014 19.48 87.1565 19.6638 86.9744C19.8475 86.7924 22.3279 80.6032 22.3279 80.6032Z" fill="#BEDBFF"/>
<path d="M15.6216 87.3385L12.9574 84.517C8.38068 92.6451 7.48522 97.3346 5.05682 105.633C5.05682 105.633 6.06736 106.816 6.5267 106.998C6.98604 107.18 8.54779 107.544 8.54779 107.544C11.2119 99.6258 17.7175 95.3365 19.48 87.5205L15.6216 87.3385Z" fill="#91C5FF"/>
<path d="M41.4364 77.3266L40.5177 78.1457V102.72C41.1686 101.257 41.6694 100.561 42.9063 99.6258C43.8042 94.6791 45.1343 92.5995 48.6939 89.887L41.4364 77.3266Z" fill="#3781FA"/>
<path d="M49.2451 89.6139L44.1005 80.6032C46.0282 81.8812 47.0927 82.6543 49.4289 82.4236C51.7229 81.8138 52.4336 81.0394 53.7466 79.6931L52.2768 87.7026L49.2451 89.6139Z" fill="#BEDBFF"/>
<path d="M36.5674 80.6032C34.3529 84.0731 33.5899 86.4808 32.1578 90.7061C29.8859 88.1368 28.8128 87.2984 27.0132 86.1553L26.2783 80.6032C28.4867 82.5257 29.5169 82.6576 31.331 82.7876C33.1927 82.6923 34.2592 82.5459 36.5674 80.6032Z" fill="#BEDBFF"/>
<path d="M52.2768 88.3397C45.6209 91.6762 43.9331 95.7121 43.6412 99.3528C45.3085 98.524 44.8431 97.875 52.2768 97.8055V88.3397Z" fill="#3781FA"/>
<path d="M45.4785 72.5027L41.712 76.8715C45.0841 81.1826 46.7384 81.8737 49.5207 81.8775C51.6319 80.8632 52.649 80.0612 54.1141 78.1457L54.3897 76.0524C53.5949 74.7781 53.548 73.8493 53.5629 72.1386C49.7592 73.6318 48.3755 72.9039 45.4785 72.5027Z" fill="#3781FA"/>
<path d="M49.5207 65.8584C49.1464 68.9743 47.7208 69.9058 46.0298 72.1386L50.9906 72.3206C51.9763 72.2348 52.5564 72.2806 53.2873 71.3195L53.1954 68.953C51.3213 67.9322 50.7201 67.1678 49.5207 65.8584Z" fill="#3781FA"/>
<path d="M54.849 69.5901L53.7466 69.1351L54.1141 73.5039C54.6468 75.968 55.1865 77.3204 56.5027 79.6931C57.4543 78.0253 57.8178 77.0161 57.8807 74.9601C56.6843 73.5314 56.0209 72.4608 54.849 69.5901Z" fill="#3781FA"/>
<path d="M55.8325 70.0189L55.7677 69.8632L61.4635 71.3195C61.5294 73.7238 61.7518 75.0459 62.7497 77.3266C58.2904 75.9322 57.3946 73.7772 55.8325 70.0189Z" fill="#3781FA"/>
<path d="M54.4059 60.2212L54.3897 60.2154L54.3281 60.2414C51.9979 61.2269 50.6723 61.7874 49.9801 64.6752C50.4847 66.0865 51.1997 66.7511 52.7361 67.8608C56.1832 69.568 58.0923 70.0706 61.4635 70.5003C61.2206 67.2365 60.7211 65.5539 58.8912 62.9459C57.6717 61.4039 56.495 60.9778 54.4059 60.2212Z" fill="#3781FA"/>
<path d="M58.4319 75.6883C58.1939 77.7589 57.7028 78.7873 56.7783 80.6032L59.9018 87.5205C61.1859 87.434 61.9063 87.3659 63.209 86.9744C64.4399 86.4004 64.8963 85.9155 65.5975 84.972L62.7497 78.1457C61.0702 77.6684 60.1258 77.2813 58.4319 75.6883Z" fill="#BEDBFF"/>
<path d="M60.2692 91.6163C59.718 90.16 60.2692 88.0666 60.2692 88.0666L63.6683 87.5205L65.965 85.6092C69.545 93.628 71.4004 98.1097 73.59 105.997C73.59 105.997 72.5795 106.998 71.8445 107.453C71.1096 107.908 69.6397 107.908 69.6397 107.908C66.3764 100.437 60.8204 93.0726 60.2692 91.6163Z" fill="#91C5FF"/>
<path d="M42.1713 122.835L41.5282 117.738C43.9291 119.144 45.3985 119.698 47.8671 120.196C48.2425 127.636 48.8758 130.964 50.6231 135.669C51.958 142.858 50.6986 144.082 49.337 147.501L48.9695 146.864C48.251 136.978 47.2079 131.601 42.1713 122.835Z" fill="#3D3D3D"/>
<path d="M48.4183 145.316L42.1713 124.018C42.1713 124.018 45.846 132.483 46.3054 133.939C46.7647 135.396 48.4183 145.316 48.4183 145.316Z" fill="#3D3D3D"/>
<path d="M53.5629 120.196H48.4183C49.1699 129.707 49.3901 135.09 56.4108 143.041L55.7677 131.755C53.715 126.505 53.8382 124.348 53.5629 120.196Z" fill="#3D3D3D"/>
<path d="M54.2978 121.561C54.2978 118.83 55.7677 115.281 55.7677 115.281V122.835V130.39C55.7677 130.39 54.2978 124.292 54.2978 121.561Z" fill="#3D3D3D"/>
<path d="M51.5418 137.671C52.2428 141.587 51.603 142.614 50.9906 145.043L52.4605 144.679C52.4605 144.679 52.9198 143.496 53.3792 143.041C53.8385 142.586 55.0328 142.586 55.0328 142.586C52.9298 140.65 52.5137 139.582 51.5418 137.671Z" fill="#3D3D3D"/>
<path d="M52.093 145.316C50.3245 146.332 50.1989 146.995 49.6126 148.138C50.2377 151.062 50.519 152.919 50.715 157.24C50.9627 159.687 51.5606 160.877 52.4605 163.065C52.4605 163.065 55.8596 161.973 56.4108 158.605C56.962 155.237 52.093 145.316 52.093 145.316Z" fill="#3D3D3D"/>
<path d="M54.1141 143.314C53.1954 143.587 53.1036 145.043 53.1036 145.043C54.6355 148.741 55.5293 148.717 56.962 158.241C57.812 159.915 60.0448 160.896 60.2692 160.152C60.453 155.146 56.4108 144.133 56.4108 144.133C56.4108 144.133 55.0328 143.041 54.1141 143.314Z" fill="#3D3D3D"/>
<path d="M52.4605 163.702C54.7043 163.202 55.6373 162.069 56.962 159.151C57.843 160.253 58.394 160.828 60.2692 161.153C59.1464 168.059 58.9941 172.145 59.3506 179.721L59.9936 179.903C59.5337 173.572 59.3438 170.07 60.6367 164.976C61.0252 174.923 62.7849 184.18 59.3506 185C56.9863 184.671 56.2375 182.911 55.1246 179.175C54.8185 176.211 54.9207 174.807 56.4108 173.532C57.203 175.103 57.4211 176.643 57.6969 179.721C57.7704 180.012 58.095 179.842 58.2481 179.721C57.2008 170.934 55.2398 168.875 52.4605 163.702Z" fill="#3D3D3D"/>
<path d="M23.7978 130.754V123.017V115.281C23.7978 115.281 25.6046 120.056 25.5433 122.835C25.4821 125.614 23.986 130.895 23.7978 130.754Z" fill="#3D3D3D"/>
<path d="M23.2466 142.586C28.9251 140.806 29.9111 133.173 31.7903 119.923L25.9108 120.196C25.9108 120.196 26.1864 126.203 25.5433 127.75C24.9002 129.297 23.6141 131.937 23.6141 131.937L23.2466 142.586Z" fill="#3D3D3D"/>
<path d="M27.3806 143.587C26.8709 142.65 26.2867 142.463 25.084 142.313C26.4288 141.125 26.8615 141.824 29.0343 137.125C28.6284 139.444 28.4789 140.784 29.0343 143.587C28.1945 143.122 27.8657 143.199 27.3806 143.587Z" fill="#3D3D3D"/>
<path d="M39.1397 117.374C36.4271 119.439 35.0041 119.477 32.4334 119.923C31.6668 124.93 31.3113 127.68 30.1367 132.392C28.3289 140.698 29.269 142.634 30.7797 146.318L31.4228 145.043C32.8932 135.592 32.5882 130.115 38.4966 122.016L39.1397 117.374Z" fill="#3D3D3D"/>
<path d="M38.0373 125.475C38.0373 125.475 34.8219 133.211 34.6382 133.939C34.4544 134.667 32.1387 143.314 32.1387 143.314C32.1387 143.314 33.5358 133.939 34.087 132.847C34.6382 131.755 38.0373 123.29 38.0373 123.29V125.475Z" fill="#3D3D3D"/>
<path d="M22.971 145.043V143.587C22.971 143.587 25.3596 142.768 26.0945 143.041C26.8294 143.314 26.8294 144.679 26.8294 144.679L25.3596 148.593C23.69 151.996 23.6897 154.187 22.971 157.877C21.2604 160.578 20.3298 160.144 18.6532 160.516C18.932 152.283 20.5131 149.885 22.971 145.043Z" fill="#3D3D3D"/>
<path d="M18.6532 161.7V161.153C20.2371 160.644 20.551 161.493 23.3385 158.605C24.089 160.962 24.8345 161.813 26.6457 162.61L23.7059 170.073C22.0628 173.38 21.3569 175.388 21.1336 179.721H21.8686C21.7738 176.826 21.7791 175.245 22.971 173.259C24.2067 175.66 24.5537 177.063 24.2571 179.721C22.9195 182.866 22.0284 184.231 19.8475 185C18.1534 184.601 17.7657 183.874 17.7345 181.996L18.3776 162.61C19.0349 163.783 19.5254 164.123 19.3882 167.343L19.1126 179.175H19.8475L19.8512 179.071C20.0287 174.031 20.1293 171.177 19.8475 164.339C19.5846 163.225 19.3511 162.637 18.6532 161.7Z" fill="#3D3D3D"/>
<path d="M23.7059 158.605C24.2864 152.042 25.3804 149.374 27.3806 144.679L27.6562 144.133C27.6562 144.133 27.84 143.86 28.1156 143.769C28.3912 143.678 29.0343 144.133 29.0343 144.133L30.5041 146.864C29.2735 149.567 29.4936 155.328 29.0343 156.603C28.5749 157.877 26.8294 162.155 26.8294 162.155C24.7812 161.487 24.5159 160.347 23.7059 158.605Z" fill="#3D3D3D"/>
<path d="M4.59748 106.27C1.36057 109.257 -0.0877645 113.734 0.0041031 113.825C0.0959707 113.916 0.279706 113.825 0.279706 113.825L2.02519 111.913V112.459L1.47398 114.098L0.279706 118.284C0.279706 118.284 0.0041031 118.648 0.0041031 118.739C0.0041031 118.83 0.279706 118.739 0.279706 118.739L0.739044 118.466L1.29025 117.101L2.48453 114.462C2.48453 114.462 2.66826 114.371 2.852 114.371C3.03573 114.371 3.03573 114.644 3.03573 114.644L2.852 115.372L2.02519 120.105C2.02519 120.105 2.20892 120.469 2.30079 120.378C2.39266 120.287 2.66826 119.741 2.66826 119.741L2.852 119.286L4.13814 115.008C4.13814 115.008 4.32188 114.917 4.41375 115.008C4.50561 115.099 4.41375 115.736 4.41375 115.736C4.41375 115.736 4.32188 120.651 4.41375 120.742C4.50561 120.833 4.78122 120.924 4.87308 120.742C4.96495 120.56 5.05682 119.741 5.05682 119.741L5.24055 118.466L5.51616 116.828L5.79176 115.736C5.79176 115.736 5.79176 115.372 5.97549 115.372C6.15923 115.372 6.06736 115.554 6.06736 115.554L6.2511 116.1L6.5267 118.739C6.5267 118.739 6.61857 119.65 6.71044 119.741C6.8023 119.832 6.98604 119.832 7.16977 119.741C7.35351 119.65 7.35351 119.104 7.35351 119.104L7.44538 118.375C7.38709 114.116 8.73152 112.186 8.54779 108.272C6.77902 107.821 5.96164 107.312 4.59748 106.27Z" fill="#3D3D3D"/>
<path d="M73.7738 106.634C72.0892 108.462 71.2255 108.366 69.6397 108.819C69.3234 113.033 71.0743 117.71 71.1096 118.375C71.1449 119.04 71.2131 119.331 71.3852 119.741C71.3852 119.741 71.5689 119.832 71.6608 119.741C71.7527 119.65 71.6608 119.286 71.6608 119.286L71.8445 118.193V116.282L72.0283 115.554H72.3039C72.4876 115.645 73.7738 120.56 73.7738 120.56H74.1412C74.1412 120.56 74.325 120.742 74.5087 120.56C74.6924 120.378 73.7738 116.1 73.7738 116.1V115.554C73.7738 115.554 73.9575 115.19 74.1412 115.19C74.325 115.19 76.7135 120.287 76.9891 120.287C77.2647 120.287 77.1729 120.014 77.1729 120.014L75.4274 115.19C75.4274 115.19 75.2436 114.735 75.4274 114.644C75.6111 114.553 75.703 114.644 75.703 114.644L78.3671 118.193C78.3671 118.193 78.7346 118.284 78.9183 118.193C79.1021 118.102 78.9183 117.829 78.9183 117.829L76.0704 112.732C76.0704 112.732 75.703 112.55 75.703 112.277C75.703 112.004 76.0704 111.913 76.0704 111.913C76.0704 111.913 78.7346 113.278 78.9183 113.187C79.1021 113.096 78.9183 112.914 78.9183 112.914L73.7738 106.634Z" fill="#3D3D3D"/>
<path d="M40.5177 103.813C42.6759 100.903 42.7482 98.6718 50.1638 98.5336L50.4394 98.8977C50.9457 105.345 52.574 108.61 55.4617 114.401L55.4921 114.462C54.4583 116.242 54.2609 117.43 53.9304 119.559C46.2929 120.267 44.0994 118.718 40.5177 115.645V103.813Z" fill="#353535"/>
<path d="M28.9424 99.1707L27.4725 106.27L23.7978 114.462C25.3205 116.415 25.5066 117.545 25.9108 119.559C33.431 119.409 37.1486 118.986 39.9665 115.645V103.813C38.6732 101.54 37.5495 100.609 35.2813 99.1707C32.281 98.7088 30.8899 98.7061 28.9424 99.1707Z" fill="#353535"/>
<path d="M26.7376 99.6258L28.4831 99.1707L27.2888 104.723L23.7978 113.005L25.5433 104.723L26.7376 99.6258Z" fill="#353535"/>
<path d="M50.8069 98.5336H52.2768C53.1929 103.171 53.8253 105.729 55.2165 110.184C55.6526 111.525 55.7587 112.328 55.7677 113.825C53.1621 108.035 51.8475 104.749 50.8069 98.5336Z" fill="#353535"/>
</g>
</svg>
