<svg xmlns="http://www.w3.org/2000/svg" width="34" height="37" viewBox="0 0 34 37" fill="none">
  <g filter="url(#filter0_d_34714_6803)">
    <path d="M4 7.22895L16.7841 0L29.5682 7.22895V21.7709L16.7841 28.9999L4 21.7709V7.22895Z" fill="#A0A0A0"/>
  </g>
  <path d="M5.73438 8.49621L16.785 2.4541L27.8357 8.49621V20.6507L16.785 26.6928L5.73438 20.6507V8.49621Z" fill="#121212"/>
  <path d="M16.2205 10.126C16.4127 9.75358 16.9457 9.75358 17.1379 10.126L18.3589 12.4918C18.408 12.5872 18.4857 12.6647 18.5811 12.7139L20.9498 13.9333C21.3228 14.1252 21.3228 14.6577 20.9498 14.8497L18.5811 16.069C18.4857 16.1181 18.408 16.1958 18.3589 16.2911L17.1379 18.657C16.9457 19.0293 16.4127 19.0293 16.2205 18.657L14.9996 16.2911C14.9504 16.1958 14.8727 16.1181 14.7773 16.069L12.4085 14.8497C12.0357 14.6577 12.0357 14.1252 12.4085 13.9333L14.7773 12.7139C14.8727 12.6647 14.9504 12.5872 14.9996 12.4918L16.2205 10.126Z" fill="#212121"/>
  <path d="M16.2205 10.126C16.4127 9.75358 16.9457 9.75358 17.1379 10.126L18.3589 12.4918C18.408 12.5872 18.4857 12.6647 18.5811 12.7139L20.9498 13.9333C21.3228 14.1252 21.3228 14.6577 20.9498 14.8497L18.5811 16.069C18.4857 16.1181 18.408 16.1958 18.3589 16.2911L17.1379 18.657C16.9457 19.0293 16.4127 19.0293 16.2205 18.657L14.9996 16.2911C14.9504 16.1958 14.8727 16.1181 14.7773 16.069L12.4085 14.8497C12.0357 14.6577 12.0357 14.1252 12.4085 13.9333L14.7773 12.7139C14.8727 12.6647 14.9504 12.5872 14.9996 12.4918L16.2205 10.126Z" fill="#A7A7A7"/>
  <defs>
    <filter id="filter0_d_34714_6803" x="0" y="0" width="33.5664" height="37" filterUnits="userSpaceOnUse" color-interpolation-filters="sRGB">
      <feFlood flood-opacity="0" result="BackgroundImageFix"/>
      <feColorMatrix in="SourceAlpha" type="matrix" values="0 0 0 0 0 0 0 0 0 0 0 0 0 0 0 0 0 0 127 0" result="hardAlpha"/>
      <feOffset dy="4"/>
      <feGaussianBlur stdDeviation="2"/>
      <feComposite in2="hardAlpha" operator="out"/>
      <feColorMatrix type="matrix" values="0 0 0 0 0 0 0 0 0 0 0 0 0 0 0 0 0 0 0.25 0"/>
      <feBlend mode="normal" in2="BackgroundImageFix" result="effect1_dropShadow_34714_6803"/>
      <feBlend mode="normal" in="SourceGraphic" in2="effect1_dropShadow_34714_6803" result="shape"/>
    </filter>
  </defs>
</svg>
