<svg width="76" height="85" viewBox="0 0 76 85" fill="none" xmlns="http://www.w3.org/2000/svg">
<g filter="url(#filter0_d_34714_7916)">
<path d="M4 18.953L37.5176 0L71.0351 18.953V57.0794L37.5176 76.0325L4 57.0794V18.953Z" fill="#222222"/>
</g>
<path d="M8.53906 22.2764L37.5119 6.43506L66.4847 22.2764V54.1432L37.5119 69.9846L8.53906 54.1432V22.2764Z" fill="#121212"/>
<path d="M36.0321 26.5482C36.5359 25.5718 37.9334 25.5718 38.4373 26.5482L41.6385 32.7511C41.7674 33.0009 41.971 33.2044 42.2211 33.3332L48.4315 36.5303C49.4094 37.0335 49.4094 38.4296 48.4315 38.9328L42.2211 42.1298C41.971 42.2585 41.7674 42.4622 41.6385 42.7121L38.4373 48.9149C37.9334 49.8912 36.5359 49.8912 36.0321 48.9149L32.831 42.7121C32.7021 42.4622 32.4984 42.2585 32.2483 42.1298L26.0378 38.9328C25.0603 38.4296 25.0603 37.0335 26.0378 36.5303L32.2483 33.3332C32.4984 33.2044 32.7021 33.0009 32.831 32.7511L36.0321 26.5482Z" fill="#212121"/>
<path d="M36.0321 26.5482C36.5359 25.5718 37.9334 25.5718 38.4373 26.5482L41.6385 32.7511C41.7674 33.0009 41.971 33.2044 42.2211 33.3332L48.4315 36.5303C49.4094 37.0335 49.4094 38.4296 48.4315 38.9328L42.2211 42.1298C41.971 42.2585 41.7674 42.4622 41.6385 42.7121L38.4373 48.9149C37.9334 49.8912 36.5359 49.8912 36.0321 48.9149L32.831 42.7121C32.7021 42.4622 32.4984 42.2585 32.2483 42.1298L26.0378 38.9328C25.0603 38.4296 25.0603 37.0335 26.0378 36.5303L32.2483 33.3332C32.4984 33.2044 32.7021 33.0009 32.831 32.7511L36.0321 26.5482Z" fill="#686868"/>
<path d="M34.5207 25.2156C35.8358 23.3702 38.6268 23.3702 39.9419 25.2156L40.2024 25.6384L43.309 31.6582L49.34 34.7651C51.7539 36.008 51.7539 39.4568 49.34 40.6996L43.309 43.8028L40.2024 49.8266C38.9581 52.2371 35.5049 52.2371 34.2605 49.8266L31.1499 43.8028L25.1227 40.6996C22.7091 39.4568 22.7091 36.008 25.1227 34.7651L31.1499 31.6582L34.2605 25.6384L34.5207 25.2156Z" stroke="#2A2A2A"/>
<defs>
<filter id="filter0_d_34714_7916" x="0" y="0" width="75.0352" height="84.0322" filterUnits="userSpaceOnUse" color-interpolation-filters="sRGB">
<feFlood flood-opacity="0" result="BackgroundImageFix"/>
<feColorMatrix in="SourceAlpha" type="matrix" values="0 0 0 0 0 0 0 0 0 0 0 0 0 0 0 0 0 0 127 0" result="hardAlpha"/>
<feOffset dy="4"/>
<feGaussianBlur stdDeviation="2"/>
<feComposite in2="hardAlpha" operator="out"/>
<feColorMatrix type="matrix" values="0 0 0 0 0 0 0 0 0 0 0 0 0 0 0 0 0 0 0.25 0"/>
<feBlend mode="normal" in2="BackgroundImageFix" result="effect1_dropShadow_34714_7916"/>
<feBlend mode="normal" in="SourceGraphic" in2="effect1_dropShadow_34714_7916" result="shape"/>
</filter>
</defs>
</svg>
