<svg width="24" height="24" viewBox="0 0 24 24" fill="none" xmlns="http://www.w3.org/2000/svg">
<g clip-path="url(#clip0_23945_4715)">
<path d="M19.152 0H4.848C2.169 0 0 2.169 0 4.848V19.155C0 21.831 2.169 24 4.848 24H19.155C21.831 24 24.003 21.831 24.003 19.152V4.848C24 2.169 21.831 0 19.152 0Z" fill="url(#paint0_linear_23945_4715)"/>
<path d="M11.8973 5.5158L12.3833 4.6758C12.6833 4.1508 13.3523 3.9738 13.8773 4.2738C14.4023 4.5738 14.5793 5.2428 14.2793 5.7678L9.59627 13.8738H12.9833C14.0813 13.8738 14.6963 15.1638 14.2193 16.0578H4.28927C3.68327 16.0578 3.19727 15.5718 3.19727 14.9658C3.19727 14.3598 3.68327 13.8738 4.28927 13.8738H7.07327L10.6373 7.6968L9.52427 5.7648C9.22427 5.2398 9.40127 4.5768 9.92627 4.2708C10.4513 3.9708 11.1143 4.1478 11.4203 4.6728L11.8973 5.5158ZM7.68527 17.1828L6.63527 19.0038C6.33527 19.5288 5.66627 19.7058 5.14127 19.4058C4.61627 19.1058 4.43927 18.4368 4.73927 17.9118L5.51927 16.5618C6.40127 16.2888 7.11827 16.4988 7.68527 17.1828ZM16.7273 13.8798H19.5683C20.1743 13.8798 20.6603 14.3658 20.6603 14.9718C20.6603 15.5778 20.1743 16.0638 19.5683 16.0638H17.9903L19.0553 17.9118C19.3553 18.4368 19.1783 19.0998 18.6533 19.4058C18.1283 19.7058 17.4653 19.5288 17.1593 19.0038C15.3653 15.8928 14.0183 13.5648 13.1243 12.0138C12.2093 10.4358 12.8633 8.8518 13.5083 8.3148C14.2253 9.5448 15.2963 11.4018 16.7273 13.8798Z" fill="white"/>
</g>
<defs>
<linearGradient id="paint0_linear_23945_4715" x1="12.0015" y1="0" x2="12.0015" y2="24" gradientUnits="userSpaceOnUse">
<stop stop-color="#18BFFB"/>
<stop offset="1" stop-color="#2072F3"/>
</linearGradient>
<clipPath id="clip0_23945_4715">
<rect width="24" height="24" fill="white"/>
</clipPath>
</defs>
</svg>
