<svg width="70" height="71" viewBox="0 0 70 71" fill="none" xmlns="http://www.w3.org/2000/svg">
<path d="M34.9024 2.50086e-10C35.3626 -7.65802e-08 35.8228 -7.55607e-08 36.3291 0.0288615C36.8764 0.169413 37.3776 0.281102 37.8996 0.409837C38.3181 0.630776 38.7158 0.83467 39.1234 1.05381C39.1834 1.09992 39.2335 1.13079 39.2993 1.1847C39.6252 1.47873 39.9354 1.74971 40.2538 2.04357C40.3602 2.17255 40.4584 2.27866 40.5638 2.40998C41.1087 3.10574 41.429 3.88501 41.687 4.71995C41.6941 4.77754 41.7036 4.80948 41.7119 4.86628C41.7313 4.95253 41.7519 5.0139 41.7704 5.10423C41.7784 5.18986 41.7886 5.24654 41.7965 5.32789C41.8125 5.41378 41.8306 5.47502 41.8433 5.56443C41.8439 5.64909 41.8501 5.70557 41.85 5.7975C41.8288 6.2697 41.8137 6.70645 41.7889 7.1729C41.7236 7.48841 41.6681 7.77422 41.5924 8.0781C41.3101 8.94277 40.8544 9.68009 40.2897 10.3673C40.2516 10.3819 40.2424 10.4006 40.2226 10.4379C39.5568 11.1762 38.7518 11.6644 37.8496 12.0533C37.535 12.1395 37.2499 12.2259 36.9327 12.3116C36.4896 12.3601 36.0785 12.4093 35.6334 12.4523C35.241 12.4174 34.8826 12.3886 34.5015 12.3423C34.0852 12.2142 33.6916 12.1035 33.276 11.9772C32.9575 11.8092 32.6612 11.6569 32.3523 11.484C32.3093 11.4545 32.2788 11.4456 32.2354 11.4137C31.8943 11.1282 31.5662 10.8657 31.2292 10.5786C31.1006 10.4249 30.9808 10.2957 30.8555 10.1427C30.5154 9.53726 30.181 8.9555 29.8445 8.34461C29.546 7.4897 29.4493 6.63489 29.4829 5.73219C29.5551 5.33877 29.6197 4.97541 29.6959 4.58457C30.0403 3.86637 30.3733 3.17566 30.7279 2.46983C30.9122 2.25143 31.0748 2.04814 31.2609 1.83491C31.5037 1.63037 31.7229 1.43578 31.9667 1.23378C32.1159 1.1315 32.2404 1.03661 32.3883 0.933642C32.707 0.768471 33.0024 0.61138 33.3266 0.453297C33.8711 0.301537 34.3868 0.150769 34.9024 2.50086e-10Z" fill="#FEF08A"/>
<path d="M0 16.7818C0 16.0248 0 15.2678 0.030041 14.4813C0.362577 14.4483 0.665071 14.4449 0.997293 14.4454C1.32865 14.4468 1.63027 14.4441 1.96168 14.4463C2.29449 14.4479 2.59752 14.4446 2.93028 14.4454C3.26164 14.4468 3.56326 14.4441 3.89467 14.4463C4.22748 14.4479 4.53051 14.4446 4.86327 14.4454C5.19462 14.4468 5.49625 14.4441 5.82765 14.4463C6.16047 14.4479 6.46351 14.4446 6.79618 14.4454C7.07754 14.4495 7.32928 14.4495 7.55277 14.4495C7.59183 14.8753 7.62595 15.2474 7.6578 15.6413C7.66313 15.6909 7.67075 15.7188 7.67564 15.7676C7.69014 15.8401 7.70734 15.8918 7.72331 15.9676C7.76988 16.1257 7.81768 16.2598 7.86615 16.418C7.90995 16.5469 7.95307 16.6516 8.00151 16.7692C7.89896 16.7774 7.81601 16.7839 7.70335 16.7857C7.39186 16.7856 7.11007 16.7902 6.79871 16.7897C6.44611 16.7864 6.12309 16.7885 5.77036 16.7857C5.45887 16.7856 5.17708 16.7902 4.86572 16.7897C4.51312 16.7864 4.1901 16.7885 3.83737 16.7857C3.52588 16.7856 3.2441 16.7902 2.93273 16.7897C2.58013 16.7864 2.25711 16.7885 1.90438 16.7857C1.59289 16.7856 1.3111 16.7902 0.99974 16.7897C0.646777 16.7835 0.323388 16.7827 0 16.7818Z" fill="#FCD34D"/>
<path d="M70.0001 14.4511C70.0001 15.2081 70.0001 15.9652 69.9702 16.7518C69.659 16.7863 69.3777 16.7912 69.0669 16.7909C68.7142 16.7876 68.3911 16.7896 68.0383 16.7869C67.7268 16.7867 67.445 16.7914 67.1336 16.7909C66.781 16.7876 66.4579 16.7896 66.1051 16.7869C65.7936 16.7867 65.5118 16.7914 65.2004 16.7909C64.8478 16.7876 64.5247 16.7896 64.172 16.7869C63.8605 16.7867 63.5786 16.7914 63.2673 16.7909C62.9146 16.7876 62.5915 16.7896 62.2439 16.7867C62.1772 16.739 62.0958 16.6907 62.1008 16.6547C62.1133 16.5647 62.1651 16.4803 62.219 16.3782C62.4833 15.7512 62.5398 15.1087 62.5722 14.4563C62.8121 14.4501 63.0237 14.4452 63.2649 14.4453C63.5961 14.4476 63.8978 14.445 64.2293 14.4472C64.5621 14.4488 64.8652 14.4456 65.198 14.4464C65.5294 14.4477 65.831 14.4451 66.1625 14.4472C66.4953 14.4488 66.7984 14.4456 67.1312 14.4464C67.4626 14.4477 67.7642 14.4451 68.0957 14.4472C68.4285 14.4488 68.7316 14.4456 69.0644 14.4464C69.3961 14.4506 69.6981 14.4508 70.0001 14.4511Z" fill="#FCD34D"/>
<path d="M34.4148 14.6328C34.8218 14.6302 35.1922 14.6335 35.599 14.6318C36.0076 14.6308 36.3797 14.6348 36.7884 14.6328C37.1953 14.6302 37.5657 14.6335 37.9726 14.6318C38.3812 14.6308 38.7533 14.6348 39.1984 14.6378C39.6418 14.6335 40.0122 14.6302 40.4192 14.6328C40.8278 14.6348 41.1999 14.6308 41.6085 14.6318C42.0154 14.6335 42.3858 14.6302 42.7927 14.6328C43.2014 14.6348 43.5735 14.6308 43.9821 14.6318C44.3889 14.6335 44.7593 14.6302 45.1662 14.6328C45.5749 14.6348 45.947 14.6308 46.3556 14.6318C46.7625 14.6334 47.1328 14.6302 47.5398 14.6328C47.9484 14.6348 48.3205 14.6308 48.7291 14.6318C49.136 14.6335 49.5064 14.6302 49.9133 14.6328C50.322 14.6348 50.6941 14.6308 51.1027 14.6318C51.5096 14.6334 51.8799 14.6302 52.2869 14.6328C52.6955 14.6348 53.0676 14.6308 53.4719 14.6318C53.7513 14.6768 53.908 14.604 54.009 14.3444C54.1303 14.0321 54.3117 13.7435 54.4859 13.4314C54.5471 13.3556 54.5895 13.2929 54.6561 13.2174C54.7694 13.1086 54.8542 13.0078 54.9486 12.9173C55.5251 12.365 56.2386 12.2106 57.0087 12.2055C57.0138 12.2022 57.0255 12.1986 57.0434 12.2225C57.4353 12.4096 57.8092 12.5727 58.1931 12.7572C58.2541 12.8139 58.3051 12.8493 58.3664 12.906C58.4458 12.9896 58.515 13.0518 58.5935 13.1361C58.648 13.2008 58.6933 13.2433 58.7462 13.3086C58.8024 13.3937 58.851 13.456 58.9045 13.547C59.2592 14.2241 59.4046 14.9091 59.1651 15.6205C59.0034 16.1011 58.771 16.5578 58.5508 17.0439C58.1972 17.7706 57.8632 18.4787 57.5067 19.2061C57.0815 20.0826 56.6786 20.9398 56.2563 21.8157C56.1223 22.0868 56.0078 22.3392 55.8734 22.6082C55.8132 22.7195 55.7729 22.8141 55.7108 22.9262C55.5382 23.2828 55.3873 23.6219 55.2142 23.981C54.792 24.8563 54.392 25.7118 53.9711 26.583C53.9122 26.6946 53.8742 26.7904 53.8158 26.9034C53.732 27.0675 53.6686 27.2144 53.5888 27.3832C53.5223 27.521 53.4722 27.6368 53.4042 27.765C53.3737 27.8187 53.3613 27.8601 53.3265 27.9171C52.8424 28.7108 52.2347 29.0081 51.3728 28.778C50.9299 28.6598 50.5228 28.4062 50.0802 28.1912C49.2118 27.736 48.3626 27.3033 47.4982 26.8484C46.9892 26.5806 46.4953 26.335 45.988 26.0707C45.9322 26.0376 45.8898 26.0233 45.8301 25.9889C45.6377 25.8811 45.4627 25.7934 45.265 25.689C44.4296 25.2468 43.6169 24.8213 42.7705 24.3782C42.7705 24.7488 42.7705 25.0607 42.7638 25.4092C42.7607 25.8201 42.7644 26.1943 42.7631 26.6052C42.7623 27.0141 42.7664 27.3863 42.7638 27.7951C42.7607 28.206 42.7644 28.5802 42.7631 28.9911C42.7623 29.4 42.7664 29.7723 42.7638 30.1811C42.7607 30.592 42.7644 30.9662 42.7631 31.377C42.7623 31.786 42.7664 32.1582 42.7638 32.5671C42.7607 32.9779 42.7644 33.3521 42.7632 33.763C42.7623 34.1719 42.7664 34.5441 42.7638 34.9529C42.7607 35.3638 42.7644 35.738 42.7631 36.1489C42.7623 36.5578 42.7664 36.93 42.7642 37.329C42.7619 37.3919 42.7659 37.428 42.7669 37.4948C43.1176 38.5963 43.4714 39.667 43.8301 40.7672C43.8948 40.9594 43.9545 41.1221 44.0127 41.3144C44.0708 41.5087 44.1305 41.6735 44.1916 41.8681C44.3685 42.4105 44.5442 42.923 44.7213 43.4661C44.8292 43.7979 44.9356 44.099 45.0431 44.4274C45.0731 44.5365 45.1019 44.6184 45.1308 44.7311C45.2362 45.0595 45.3417 45.357 45.4481 45.6855C45.7091 46.4925 45.9692 47.2686 46.227 48.0729C46.2585 48.1874 46.2924 48.2736 46.3269 48.3869C46.3739 48.5297 46.4204 48.6453 46.465 48.7892C46.5119 48.9545 46.5607 49.0916 46.6159 49.2599C46.7582 49.7226 46.8939 50.1541 47.028 50.6077C47.0339 50.6872 47.0414 50.7448 47.0474 50.8351C47.0589 50.9097 47.0719 50.9514 47.0799 51.0253C47.0833 51.1637 47.0916 51.2699 47.0835 51.403C46.952 51.8904 46.837 52.3508 46.7059 52.8325C46.6184 52.9736 46.5469 53.0934 46.4546 53.2291C46.2122 53.4989 45.9906 53.7528 45.7464 54.0205C45.5267 54.2383 45.3296 54.4425 45.1074 54.6547C44.9157 54.8417 44.749 55.0207 44.5597 55.2134C44.3399 55.4313 44.1428 55.6355 43.9206 55.8477C43.7289 56.0347 43.5622 56.2137 43.3729 56.4064C43.1532 56.6242 42.956 56.8284 42.7339 57.0406C42.5421 57.2276 42.3754 57.4066 42.1861 57.5993C41.9664 57.8172 41.7693 58.0214 41.5471 58.2336C41.3554 58.4206 41.1887 58.5996 40.9993 58.7923C40.7797 59.0107 40.5826 59.2155 40.3602 59.4288C40.2089 59.5795 40.083 59.7216 39.9337 59.8901C39.6848 59.4658 39.4701 59.0996 39.244 58.7078C38.9912 58.264 38.7497 57.8459 38.5053 57.4025C38.3681 57.1486 38.2339 56.9199 38.0931 56.6642C37.9895 56.4763 37.8925 56.3154 37.7921 56.1295C37.6141 55.7985 37.4395 55.4924 37.2541 55.1593C37.1065 54.9061 36.9696 54.68 36.8324 54.4332C36.8093 54.3806 36.7865 54.3487 36.7594 54.2937C36.725 54.2352 36.6949 54.2 36.6638 54.1412C36.6373 54.0802 36.6119 54.0428 36.582 53.9779C36.4021 53.7575 36.457 53.6129 36.6237 53.4244C37.4689 52.4676 38.296 51.4948 39.1513 50.5168C39.2084 50.4534 39.2439 50.4008 39.3042 50.3344C39.5551 50.1243 39.4117 49.9539 39.2905 49.7542C39.2292 49.6149 39.1693 49.5032 39.1084 49.3628C38.8534 48.8056 38.5994 48.2772 38.3477 47.7223C38.2665 47.5396 38.1831 47.3833 38.0971 47.1984C37.9936 46.9651 37.8926 46.7604 37.7936 46.5286C37.6563 46.2192 37.517 45.9369 37.3759 45.6254C36.9979 44.7948 36.6216 43.9933 36.2405 43.1642C36.0474 42.731 35.859 42.3255 35.6216 41.8143C35.4203 42.7442 35.2439 43.5596 35.0453 44.3955C34.9354 44.8243 34.8475 45.2326 34.7398 45.6645C34.6797 45.9141 34.6394 46.1401 34.5841 46.3828C34.5602 46.4423 34.5513 46.4851 34.5336 46.553C34.5231 46.6133 34.5216 46.6485 34.5027 46.7072C34.4284 46.9814 34.3716 47.2322 34.3036 47.5121C34.0878 48.423 33.8834 49.3048 33.6701 50.2065C33.6632 50.2409 33.665 50.2553 33.6528 50.2965C33.542 50.755 33.4451 51.1869 33.3331 51.645C33.2161 52.1067 33.1379 52.5495 33.0042 52.9748C32.9109 53.2716 32.9847 53.4841 33.1891 53.7121C33.2898 53.8975 33.3868 54.0551 33.4876 54.2391C33.6727 54.5786 33.854 54.8918 34.0402 55.2324C34.1463 55.4288 34.2475 55.5976 34.3546 55.7939C34.4723 56.0117 34.5842 56.202 34.699 56.4199C35.1909 57.2983 35.6799 58.1491 36.1764 59.0244C36.3505 59.3361 36.5171 59.6231 36.6935 59.9398C36.7357 60.0219 36.7681 60.0743 36.8041 60.1517C37.0004 60.5059 37.1932 60.8351 37.389 61.1919C37.6201 61.6026 37.8482 61.9858 38.0808 62.3969C38.5538 63.2494 39.0222 64.074 39.4942 64.9238C39.6365 65.2778 39.7753 65.6066 39.9134 65.9689C39.9446 66.4035 39.9765 66.8046 39.9988 67.2369C39.9044 67.6165 39.8194 67.9648 39.7344 68.313C39.3524 69.0839 38.84 69.7309 38.0286 70.1315C37.74 70.2314 37.4689 70.3103 37.1683 70.3991C36.4509 70.5392 35.7872 70.4452 35.1124 70.1845C34.8935 70.0617 34.7031 69.9445 34.4858 69.8199C34.2889 69.6613 34.1189 69.5102 33.9174 69.3206C33.7054 69.0666 33.5249 68.851 33.3384 68.6077C33.2379 68.4147 33.1432 68.2495 33.0458 68.0591C32.9278 67.8378 32.8126 67.6415 32.6946 67.4207C32.6459 67.3303 32.6 67.2644 32.5525 67.1786C32.5428 67.148 32.5348 67.1374 32.5175 67.1016C32.3641 66.8287 32.2199 66.5809 32.0742 66.3073C32.0033 66.1678 31.9339 66.054 31.8572 65.9116C31.3973 65.0788 30.9447 64.2746 30.4905 63.4422C30.1702 62.8489 29.8514 62.2839 29.5298 61.6945C29.4811 61.6041 29.4352 61.5382 29.3877 61.4497C29.3595 61.3922 29.333 61.3574 29.3031 61.2941C29.0382 60.8083 28.7768 60.3507 28.5132 59.8649C28.2823 59.4354 28.0535 59.0343 27.8175 58.6085C27.6774 58.3547 27.5445 58.1257 27.4073 57.8707C27.3326 57.7279 27.2622 57.6111 27.1886 57.4714C27.1601 57.4124 27.1349 57.3763 27.1028 57.3128C27.045 57.2076 26.9941 57.1299 26.941 57.0276C26.8804 56.9049 26.822 56.8067 26.7611 56.6846C26.7118 56.5966 26.665 56.5324 26.6179 56.4467C26.6093 56.4135 26.6011 56.4018 26.5836 56.3649C26.4302 56.092 26.2861 55.8442 26.1398 55.5683C26.0636 55.3937 25.9896 55.2472 25.9135 55.0691C25.853 54.6939 25.7948 54.3503 25.7432 53.9741C25.7603 53.8093 25.7706 53.6771 25.7939 53.5261C25.8062 53.4621 25.8055 53.4168 25.8152 53.3414C25.8494 53.1447 25.8733 52.978 25.9114 52.7833C25.9935 52.3507 26.0615 51.9461 26.1383 51.5163C26.1488 51.4557 26.1503 51.4204 26.168 51.3652C26.1923 51.2781 26.2004 51.211 26.2181 51.1153C26.2288 51.027 26.2299 50.9673 26.2502 50.8822C26.2987 50.664 26.3281 50.4714 26.3686 50.2519C26.4312 49.8941 26.4827 49.5631 26.5475 49.205C26.6522 48.6668 26.7435 48.1555 26.8446 47.6131C26.8839 47.3653 26.9134 47.1485 26.9615 46.9073C27.0631 46.3947 27.146 45.9065 27.2394 45.3879C27.2793 45.1665 27.3089 44.9755 27.3564 44.7599C27.4071 44.5117 27.44 44.2882 27.4822 44.0358C27.4972 43.9479 27.5028 43.8888 27.5206 43.8063C27.5358 43.7484 27.5389 43.7139 27.5524 43.6527C27.6894 42.8976 27.8159 42.1693 27.9522 41.4108C27.9858 41.2143 28.0096 41.048 28.0477 40.8537C28.1289 40.4477 28.1959 40.0697 28.2709 39.6599C28.3347 39.2791 28.3904 38.9301 28.4643 38.5557C28.542 37.7823 28.6497 37.0344 28.6534 36.2861C28.6726 32.432 28.6652 28.5778 28.6652 24.7236C28.6652 24.6667 28.6406 24.6098 28.621 24.5246C28.5404 24.5845 28.4892 24.6226 28.4095 24.6622C27.6349 25.0596 26.8888 25.4554 26.1142 25.8543C25.147 26.356 24.2083 26.8546 23.2424 27.3538C23.0246 27.4597 22.834 27.565 22.6156 27.6745C22.5076 27.7247 22.4272 27.7708 22.3217 27.8198C21.996 27.9869 21.6956 28.1511 21.3666 28.3183C20.9526 28.5213 20.5671 28.7213 20.1497 28.9254C19.7549 28.9294 19.3921 28.9293 19.0181 28.9087C18.9621 28.8781 18.9172 28.868 18.8555 28.8373C18.5727 28.5207 18.256 28.2559 18.0524 27.9216C17.7344 27.3992 17.4929 26.8296 17.2151 26.2532C16.8665 25.5162 16.5217 24.8061 16.1737 24.0675C15.7866 23.2445 15.4028 22.45 15.0149 21.6291C14.7026 20.9649 14.3951 20.3269 14.0858 19.6898C14.0239 19.5622 13.9553 19.4378 13.8857 19.2841C13.4899 18.4681 13.0982 17.6801 12.7036 16.8651C12.5604 16.5283 12.4202 16.2184 12.2794 15.8774C12.2486 15.3911 12.2184 14.936 12.2021 14.4534C12.3033 14.1778 12.3905 13.9297 12.4987 13.6612C12.7382 13.3642 12.9566 13.0877 13.2009 12.8012C13.798 12.3729 14.4722 12.389 15.13 12.3406C15.1894 12.3363 15.2574 12.3673 15.3123 12.3981C15.6972 12.6146 16.0798 12.8354 16.4783 13.0771C16.6263 13.24 16.7592 13.3807 16.8986 13.5481C17.0515 13.8319 17.2253 14.0775 17.3359 14.3492C17.4392 14.6028 17.5847 14.6887 17.8733 14.6305C18.28 14.6333 18.6504 14.6301 19.0573 14.6328C19.466 14.6348 19.8381 14.6308 20.2467 14.6318C20.6535 14.6334 21.0239 14.6302 21.4308 14.6328C21.8395 14.6348 22.2116 14.6308 22.6202 14.6318C23.0271 14.6334 23.3974 14.6302 23.8044 14.6328C24.213 14.6348 24.5851 14.6308 24.9937 14.6318C25.4006 14.6334 25.771 14.6302 26.1779 14.6328C26.5866 14.6348 26.9587 14.6308 27.3673 14.6318C27.7742 14.6334 28.1445 14.6302 28.5515 14.6328C28.9601 14.6348 29.3322 14.6308 29.7408 14.6318C30.1477 14.6334 30.5181 14.6302 30.8885 14.6269C31.2605 14.6308 31.6326 14.6348 32.0413 14.6328C32.4482 14.6302 32.8186 14.6334 33.2255 14.6318C33.6341 14.6308 34.0062 14.6348 34.4148 14.6328ZM19.4116 18.4114C19.5816 18.7446 19.7515 19.0779 19.9372 19.4625C20.2767 20.1368 20.6163 20.811 20.9724 21.5184C21.3283 21.2233 21.649 20.9575 22.0212 20.6789C22.2769 20.4732 22.5325 20.2675 22.8371 20.0478C23.0664 19.8604 23.2956 19.6729 23.5749 19.4704C23.6937 19.3709 23.8125 19.2714 23.9838 19.1613C24.6662 18.6265 25.3487 18.0917 26.0861 17.5138C25.6542 17.5138 25.3043 17.5138 24.8817 17.5016C24.5113 17.5048 24.1409 17.5081 23.6976 17.4995C23.3515 17.5053 23.0055 17.511 22.5869 17.5038C22.1903 17.5063 21.7936 17.5088 21.324 17.4995C20.9781 17.5053 20.6321 17.511 20.2134 17.5038C19.8038 17.5038 19.3941 17.5038 18.9287 17.5038C19.1094 17.8343 19.2532 18.0973 19.4116 18.4114ZM48.6958 17.5038C48.2992 17.5063 47.9025 17.5088 47.4329 17.4995C47.0871 17.505 46.7413 17.5104 46.3235 17.5027C45.9962 17.5027 45.6689 17.5027 45.2397 17.5027C46.0608 18.1031 46.7821 18.6306 47.5415 19.1921C47.6514 19.2676 47.7613 19.343 47.9001 19.4656C48.1644 19.6571 48.4286 19.8485 48.7206 20.0857C49.2892 20.5064 49.8578 20.927 50.4595 21.3721C50.5478 21.1695 50.6197 21.0044 50.7344 20.7964C51.1611 19.9364 51.5878 19.0764 52.0581 18.1827C52.168 17.9648 52.2778 17.7468 52.3938 17.5168C51.9536 17.5168 51.5478 17.5168 51.0694 17.5038C50.6727 17.5063 50.2761 17.5088 49.8065 17.4995C49.4605 17.5053 49.1145 17.511 48.6958 17.5038Z" fill="url(#paint0_linear_21895_8401)"/>
<defs>
<linearGradient id="paint0_linear_21895_8401" x1="35.7425" y1="12.2031" x2="35.7425" y2="70.4639" gradientUnits="userSpaceOnUse">
<stop stop-color="#FEF08A"/>
<stop offset="1" stop-color="#EAB308"/>
</linearGradient>
</defs>
</svg>
