<svg width="25" height="25" viewBox="0 0 25 25" fill="none" xmlns="http://www.w3.org/2000/svg">
<g clip-path="url(#clip0_29969_45775)">
<path d="M10.1569 14.0839H11.786C11.786 17.2091 11.2714 19.18 10.9475 20.3342H8.77465C8.91943 19.8654 9.30692 18.5414 9.53399 17.0768L8.48195 15.9163C9.19546 15.2704 9.8371 14.4787 9.84335 14.4704L10.1569 14.0839ZM22.2022 -0.5H9.70273C7.97989 -0.5 6.57786 0.902142 6.57786 2.62513V6.79197C7.21742 6.79197 7.80594 6.55238 8.27571 6.15028C8.8986 5.61692 9.81315 5.61692 10.436 6.15028C10.9058 6.55238 11.4943 6.79197 12.1339 6.79197C12.7734 6.79197 13.362 6.55238 13.8317 6.15028C14.4546 5.61692 15.3692 5.61692 15.9921 6.15028C16.4618 6.55238 17.0503 6.79197 17.6899 6.79197C18.3295 6.79197 18.918 6.55238 19.3877 6.15028C20.0106 5.61692 20.9252 5.61692 21.5481 6.15028C21.746 6.32008 21.9689 6.45237 22.2043 6.55863V19.2925H20.2585C19.9898 20.5446 19.7034 21.5988 19.4544 22.4176H25.3281V2.62513C25.3281 0.902142 23.9251 -0.5 22.2022 -0.5ZM18.9846 10.0952L19.0753 10.8807C19.0773 17.9497 16.9722 23.2937 16.8826 23.5177L16.49 24.5H0.328125V22.2145C0.855186 21.2124 2.33221 16.2997 2.40825 10.9359L2.41866 10.2411L3.09051 9.65355C4.30921 8.61184 6.07164 8.6108 7.28617 9.65146C7.42783 9.7723 7.66011 9.9171 7.96739 9.9171C8.27467 9.9171 8.50695 9.7723 8.64757 9.65146C9.86314 8.6108 11.6266 8.6108 12.8411 9.65146C12.9828 9.7723 13.2151 9.9171 13.5224 9.9171C13.8296 9.9171 14.0619 9.7723 14.2036 9.65146C15.4181 8.61184 17.1816 8.6108 18.3961 9.65146L18.9846 10.0963V10.0952ZM15.9254 12.2672C14.4036 13.3454 12.237 13.2516 10.8079 12.0245C10.7704 11.9922 10.7194 11.9922 10.6798 12.0245C9.22775 13.2693 7.02055 13.3454 5.49458 12.2182C5.32687 15.8965 4.66961 19.2248 4.01755 21.3759H14.3213C14.8327 19.78 15.7556 16.3872 15.9254 12.2672Z" fill="url(#paint0_linear_29969_45775)"/>
</g>
<defs>
<linearGradient id="paint0_linear_29969_45775" x1="12.8281" y1="-0.5" x2="12.8281" y2="24.5" gradientUnits="userSpaceOnUse">
<stop stop-color="#91C5FF"/>
<stop offset="1" stop-color="#3781FA"/>
</linearGradient>
<clipPath id="clip0_29969_45775">
<rect width="25" height="25" fill="white"/>
</clipPath>
</defs>
</svg>
