<svg width="84" height="81" viewBox="0 0 84 81" fill="none" xmlns="http://www.w3.org/2000/svg">
<path d="M36.6699 68.3634C34.6483 68.3611 32.7337 67.5661 31.3376 66.1495L15.0953 49.3775C14.4066 48.6728 13.8689 47.8342 13.5132 46.91C13.1576 45.9859 12.991 44.9947 13.0231 43.9937C13.0553 42.9928 13.2854 42.0016 13.7004 41.0774C14.1154 40.1533 14.7069 39.3147 15.4409 38.6099L16.2386 37.8049C17.7229 36.3833 19.69 35.5859 21.7132 35.5859C23.7363 35.5859 25.6522 36.3833 27.0453 37.8049L43.2877 54.5768C43.9762 55.2816 44.5141 56.1202 44.8697 57.0443C45.2254 57.9685 45.3919 58.9597 45.3598 59.9606C45.3277 60.9616 45.0975 61.9528 44.6826 62.877C44.2676 63.8011 43.6759 64.6397 42.9421 65.3444L42.1443 66.1495C40.6574 67.5661 38.6917 68.3611 36.6699 68.3634ZM21.5851 40.6226C21.2491 40.6185 20.9136 40.6816 20.5983 40.8084C20.283 40.9352 19.9942 41.1227 19.7491 41.3605L18.9178 42.1656C18.6696 42.4054 18.4697 42.6905 18.3294 43.0042C18.1892 43.3178 18.1113 43.6539 18.1004 43.9937C18.0895 44.3332 18.1458 44.6696 18.2659 44.9833C18.386 45.2969 18.5677 45.582 18.8005 45.8219L35.0428 62.5938C35.5175 63.0812 36.1725 63.355 36.8642 63.355C37.5559 63.355 38.2282 63.0812 38.7345 62.5938L39.5323 61.7888C39.7863 61.5493 39.9912 61.2622 40.1339 60.9452C40.2767 60.6282 40.3547 60.2874 40.3634 59.9439C40.3759 59.6054 40.3192 59.27 40.1963 58.9584C40.0738 58.6467 39.8875 58.366 39.6496 58.1325L23.4073 41.3605C23.1713 41.1217 22.8887 40.9335 22.5759 40.8071C22.2632 40.6803 21.9264 40.6175 21.5851 40.6226Z" fill="url(#paint0_linear_21895_8392)"/>
<path d="M61.2866 44.8494C59.2614 44.8347 57.3477 44.0279 55.9554 42.602L39.7131 25.83C38.3287 24.3963 37.5876 22.4542 37.6526 20.4294C37.7176 18.4047 38.5833 16.4625 40.0597 15.0288L40.891 14.2238C42.3697 12.8042 44.331 12.0078 46.3487 12.0078C48.3664 12.0078 50.2767 12.8042 51.6642 14.2238L67.9065 30.9958C69.2809 32.4281 70.0155 34.3629 69.9508 36.3796C69.8861 38.3962 69.0272 40.331 67.5609 41.7634L66.7296 42.5684C65.2594 43.9987 63.3064 44.8169 61.2866 44.8494ZM46.2029 17.075C45.864 17.0713 45.5256 17.1379 45.2096 17.2707C44.8932 17.4035 44.606 17.5996 44.3658 17.8465L43.5356 18.6181C43.0322 19.1083 42.7371 19.7716 42.7149 20.463C42.6927 21.1544 42.9453 21.8176 43.4172 22.3079L59.6595 39.0799C60.1342 39.5673 60.7892 39.841 61.4809 39.841C62.1726 39.841 62.8449 39.5673 63.3512 39.0799L64.149 38.2748C64.4018 38.0413 64.6062 37.7602 64.7487 37.449C64.8916 37.1373 64.9698 36.8019 64.979 36.4634C64.9924 36.1199 64.9362 35.7791 64.8138 35.4621C64.6914 35.1452 64.505 34.858 64.2663 34.6185L48.024 17.8465C47.7909 17.6018 47.5098 17.4075 47.1973 17.275C46.8844 17.1425 46.5466 17.0746 46.2029 17.075Z" fill="#6EAEFE"/>
<path d="M67.0971 34.2491C65.0754 34.2467 63.1607 33.4519 61.7648 32.0352L50.6886 20.5632C50 19.8584 49.4621 19.0197 49.1065 18.0957C48.7508 17.1716 48.5843 16.1804 48.6164 15.1794C48.6486 14.1783 48.8787 13.1871 49.2937 12.263C49.7086 11.339 50.3004 10.5003 51.0341 9.79555L51.8319 8.9905C53.3122 7.56072 55.2811 6.75781 57.3069 6.75781C59.3326 6.75781 61.2501 7.56072 62.6386 8.9905L73.7494 20.429C75.1256 21.8669 75.8611 23.8075 75.7962 25.8296C75.7313 27.8517 74.8712 29.7922 73.4028 31.2301L72.5715 32.0352C71.0845 33.4519 69.1189 34.2467 67.0971 34.2491ZM57.1459 11.7746C56.4539 11.7845 55.7838 12.0609 55.2753 12.5462L54.4754 13.4183C54.227 13.6582 54.0273 13.9432 53.887 14.2569C53.7467 14.5706 53.6688 14.9068 53.6579 15.2464C53.647 15.586 53.7033 15.9223 53.8234 16.236C53.9436 16.5497 54.1251 16.8347 54.358 17.0746L65.4364 28.4795C65.9114 28.9671 66.5661 29.2407 67.2578 29.2407C67.9495 29.2407 68.6218 28.9671 69.1281 28.4795L69.9258 27.6745C70.1792 27.434 70.3834 27.1469 70.5268 26.8301C70.6702 26.5134 70.7496 26.1732 70.7606 25.8296C70.7717 25.4859 70.7141 25.1458 70.5911 24.829C70.468 24.5122 70.2822 24.2251 70.0443 23.9846L58.967 12.5462C58.4941 12.0548 57.8392 11.7774 57.1459 11.7746Z" fill="url(#paint1_linear_21895_8392)"/>
<path d="M25.8228 73.7946C24.8039 73.803 23.8005 73.6051 22.873 73.213C21.9454 72.8212 21.1129 72.2429 20.4255 71.5136L9.41539 60.0751C8.72577 59.3674 8.18743 58.5261 7.83142 57.5993C7.47542 56.6724 7.30873 55.6785 7.34095 54.6746C7.37317 53.6706 7.60365 52.6767 8.01915 51.7499C8.43465 50.823 9.02699 49.9818 9.76204 49.274L10.5598 48.4689C12.0441 47.0473 14.0112 46.25 16.0344 46.25C18.0575 46.25 19.9734 47.0473 21.3665 48.4689L32.4427 59.941C33.1314 60.6457 33.6691 61.4843 34.0247 62.4085C34.3804 63.3326 34.5469 64.3238 34.5148 65.3248C34.4827 66.3257 34.2525 67.3169 33.8375 68.2411C33.4226 69.1652 32.831 70.0038 32.0971 70.7086L31.2994 71.5136C30.5722 72.2335 29.7135 72.8057 28.7732 73.1972C27.8329 73.589 26.8299 73.7919 25.8228 73.7946ZM15.8716 51.3202C15.5306 51.3151 15.1898 51.3779 14.8689 51.5047C14.548 51.6315 14.2534 51.8193 14.0021 52.0581L13.2043 52.8632C12.9511 53.1037 12.7467 53.3908 12.6034 53.7075C12.46 54.0245 12.3805 54.3646 12.3695 54.7081C12.3584 55.0516 12.4161 55.3921 12.5392 55.7087C12.6622 56.0254 12.8481 56.3125 13.0859 56.553L24.1632 67.9915C24.3955 68.232 24.6745 68.4225 24.9842 68.5527C25.2938 68.6828 25.6281 68.7499 25.9679 68.7499C26.3077 68.7499 26.6463 68.6828 26.9644 68.5527C27.2824 68.4225 27.5736 68.232 27.8214 67.9915L28.6559 67.0858C28.9041 66.846 29.104 66.5609 29.2443 66.2472C29.3845 65.9336 29.4623 65.5971 29.4732 65.2577C29.4841 64.9182 29.4279 64.5818 29.3078 64.2681C29.1877 63.9545 29.006 63.6694 28.7732 63.4295L17.6949 52.0246C17.4588 51.7858 17.1763 51.5979 16.8636 51.4711C16.5508 51.3443 16.2141 51.2816 15.8727 51.2866L15.8716 51.3202Z" fill="#3781FA"/>
<path d="M37.9954 50.1437C37.7452 50.1491 37.4982 50.1043 37.2704 50.0119C37.0423 49.9196 36.8385 49.782 36.6715 49.6078L31.1511 44.2244C30.9775 44.0566 30.8416 43.8556 30.7516 43.634C30.6615 43.4123 30.6191 43.1741 30.6268 42.9334C30.6346 42.6927 30.6923 42.4545 30.7965 42.2328C30.9008 42.0111 31.0495 41.8102 31.234 41.6423L43.5199 30.1692C43.6981 29.9949 43.9107 29.8572 44.1447 29.765C44.3784 29.6727 44.6284 29.6278 44.8782 29.6333C45.1283 29.6278 45.3754 29.6727 45.6032 29.765C45.8312 29.8572 46.0351 29.9949 46.202 30.1692L51.6687 35.65C51.8425 35.8178 51.9782 36.0188 52.0683 36.2404C52.1583 36.4621 52.2008 36.7003 52.1931 36.941C52.1853 37.1817 52.1276 37.4199 52.0233 37.6416C51.919 37.8633 51.7704 38.0642 51.5858 38.2321L39.3521 49.6565C39.1699 49.8219 38.9555 49.9505 38.722 50.0343C38.4886 50.1184 38.2412 50.1554 37.9954 50.1437ZM35.3201 42.8359L38.14 45.6373L47.5566 36.8436L44.7335 34.1397L35.3201 42.8359Z" fill="url(#paint2_linear_21895_8392)"/>
<defs>
<linearGradient id="paint0_linear_21895_8392" x1="36.0926" y1="45.9652" x2="24.3025" y2="57.3599" gradientUnits="userSpaceOnUse">
<stop stop-color="#5DA5FD"/>
<stop offset="1" stop-color="#3781FA"/>
</linearGradient>
<linearGradient id="paint1_linear_21895_8392" x1="68.7617" y1="15.1955" x2="57.351" y2="26.5779" gradientUnits="userSpaceOnUse">
<stop stop-color="#91C5FF"/>
<stop offset="1" stop-color="#6EAEFE"/>
</linearGradient>
<linearGradient id="paint2_linear_21895_8392" x1="48.8632" y1="32.838" x2="33.9629" y2="47.9058" gradientUnits="userSpaceOnUse">
<stop stop-color="#73B2FF"/>
<stop offset="1" stop-color="#539CFC"/>
</linearGradient>
</defs>
</svg>
