<svg width="14" height="14" viewBox="0 0 14 14" fill="none" xmlns="http://www.w3.org/2000/svg">
<path d="M3.44683 8.65473L2.60883 12.1701C2.42816 12.9267 3.2515 13.5254 3.9155 13.1201L3.65498 12.6933M3.44683 8.65473L3.65498 12.6933M3.44683 8.65473L0.702164 6.3034M3.44683 8.65473L0.702164 6.3034M3.65498 12.6933L6.73955 10.8094L7.00016 10.6502L7.26078 10.8094L10.3453 12.6933C10.3454 12.6933 10.3454 12.6933 10.3454 12.6934C10.6299 12.8669 10.9826 12.6108 10.9051 12.2861L10.9051 12.286L10.0671 8.77067L9.99632 8.47366L10.2282 8.27502L12.9728 5.92371C12.9728 5.9237 12.9729 5.92369 12.9729 5.92368C13.2266 5.70626 13.0914 5.2917 12.759 5.26514L12.7588 5.26512L9.15614 4.97579L8.85176 4.95135L8.7345 4.6694L7.34651 1.3321C7.34651 1.33209 7.3465 1.33208 7.3465 1.33207C7.21863 1.02473 6.7817 1.02473 6.65383 1.33207C6.65382 1.33208 6.65382 1.33209 6.65382 1.3321L5.26583 4.6694L5.14857 4.95135L4.84419 4.97579L1.24152 5.26512L1.24132 5.26514C0.908918 5.2917 0.773744 5.70629 1.02749 5.92371L3.77213 8.27502L4.004 8.47366L3.9332 8.77067L3.0952 12.286L3.09516 12.2862C3.01774 12.6104 3.37066 12.8667 3.65488 12.6934C3.65491 12.6933 3.65495 12.6933 3.65498 12.6933ZM0.702164 6.3034C0.110831 5.79673 0.425498 4.82873 1.2015 4.76673M0.702164 6.3034L1.2015 4.76673M1.2015 4.76673L4.80416 4.4774L1.2015 4.76673Z" stroke="#FACC15"/>
</svg>
