<svg width="91" height="91" viewBox="0 0 91 91" fill="none" xmlns="http://www.w3.org/2000/svg">
<path d="M37.1465 0.177734C34.4094 0.337695 32.4187 0.62207 30.6236 1.08418C28.7219 1.56406 24.0652 3.80352 23.301 4.58555C22.7678 5.13652 22.7144 5.27871 22.8033 5.93633C22.9277 6.825 23.7453 7.64258 24.5096 7.64258C24.7939 7.64258 26.1447 7.10938 27.4955 6.46953C28.8463 5.82969 30.4103 5.1543 30.9613 4.95879C32.7209 4.37227 35.3158 4.07012 39.9014 3.91016C48.6637 3.64355 52.6805 4.23008 59.9498 6.825C61.2117 7.26934 62.4025 7.64258 62.6158 7.64258C64.1621 7.64258 65.0152 5.49199 63.8955 4.44336C63.3978 3.98125 59.4344 2.52383 56.3418 1.6707C50.8676 0.159961 45.1267 -0.284375 37.1465 0.177734Z" fill="white"/>
<path d="M37.3242 7.82073C31.9389 8.46058 28.0465 9.54476 23.9053 11.5532C18.4666 14.1836 13.3301 18.7869 13.3301 21.0086C13.3301 22.0217 14.0943 22.7504 15.1252 22.7504C15.8361 22.7504 15.9605 22.6793 16.7959 21.7373C19.6574 18.5203 21.7902 16.8674 25.3271 15.1256C29.7705 12.9217 33.7695 11.9086 39.1371 11.5709C46.282 11.1088 53.5158 12.5129 59.8609 15.5522C63.3979 17.2584 67.1303 19.9422 68.3211 21.6485C69.192 22.9282 70.4006 23.1237 71.3781 22.1461C72.5334 20.9909 72.0535 19.7645 69.4764 17.3295C64.6953 12.8328 56.6262 9.33148 48.166 8.06956C45.9799 7.74964 39.2615 7.58968 37.3242 7.82073Z" fill="white"/>
<path d="M38.5684 15.6411C36.1334 16.0499 34.7827 16.4054 32.6143 17.1874C21.7725 21.0798 13.5967 30.9618 11.8371 42.3013C11.375 45.3227 11.2862 47.4911 11.6239 48.202C12.2637 49.5351 14.0411 49.6772 14.8586 48.4331C15.0541 48.1487 15.1963 47.2956 15.2852 45.8204C15.4629 43.3499 15.6229 42.3013 16.1561 40.2395C18.4844 31.1395 25.5227 23.5858 34.4805 20.5644C36.9866 19.729 38.5328 19.4091 41.5366 19.1602C48.326 18.5915 55.0444 20.3155 59.701 23.8347C62.6692 26.0741 64.9975 28.8823 68.7121 34.7476C69.7608 36.4005 71.0405 38.3378 71.5737 39.031C74.6129 43.1011 78.292 44.7362 79.4295 42.5323C79.9627 41.4659 79.4651 40.5595 77.8477 39.7063C75.8926 38.6755 75.1639 37.769 70.294 30.1798C64.4998 21.1509 58.0659 16.7786 48.7526 15.5522C45.8911 15.179 41.0034 15.2145 38.5684 15.6411Z" fill="white"/>
<path d="M41.3943 22.9451C36.9332 23.2828 32.4721 25.0069 28.7041 27.8328C26.9623 29.1303 24.4385 31.7963 23.2299 33.6092C19.0531 39.901 18.0045 46.7082 19.9951 54.5641C20.8305 57.8877 20.866 61.0514 20.0662 63.1664C19.1775 65.5481 17.6313 67.1477 15.0719 68.3385C13.49 69.0672 12.9746 69.6182 12.9746 70.578C12.9746 71.0934 13.099 71.3778 13.5256 71.7866C14.2898 72.5686 15.0896 72.533 16.9914 71.6444C19.8174 70.3114 21.808 68.3741 23.1055 65.708C24.7229 62.3489 24.9184 58.7053 23.7275 53.7998C22.75 49.8541 22.59 47.8457 22.9455 44.8776C23.3543 41.5184 24.9006 37.6971 26.9801 34.9067C30.1438 30.641 35.3158 27.584 40.5945 26.8553C44.558 26.3043 49.3035 27.0508 52.6982 28.7393C57.5859 31.192 61.3895 35.4932 63.2734 40.683C63.7356 41.9627 63.9666 42.2116 67.2725 45.0375C72.2668 49.3387 76.7813 52.9289 77.3322 53.0356C78.9318 53.3555 80.176 51.1871 79.074 49.9963C78.843 49.7475 77.1367 48.2901 75.2705 46.7793C73.4221 45.2508 70.8094 43.0825 69.4941 41.9627C67.1303 39.9721 67.0947 39.9188 66.5438 38.5858C65.2285 35.3332 63.5223 32.7028 61.1051 30.25C55.9152 24.9535 48.9125 22.3586 41.3943 22.9451Z" fill="white"/>
<path d="M73.2182 23.1297C72.5072 23.4496 72.0273 24.3383 72.1695 25.0848C72.2406 25.3869 72.5961 26.1512 72.9693 26.791C73.8047 28.1951 75.0666 30.7189 75.742 32.3541C76.3463 33.776 76.8617 34.2559 77.8037 34.2559C78.3191 34.2559 78.6391 34.1137 79.0656 33.7404C79.901 32.9939 79.8476 32.1941 78.7812 29.7947C77.7148 27.3953 75.9375 24.1783 75.3332 23.5562C74.7467 22.952 73.9646 22.792 73.2182 23.1297Z" fill="white"/>
<path d="M40.4701 30.6592C36.5777 31.4057 32.6854 33.8584 30.1793 37.1465C29.0596 38.6217 27.6732 41.4477 27.1756 43.2783C26.9268 44.2381 26.7668 45.4467 26.7135 47.0107C26.6424 49.1969 26.6779 49.5346 27.4244 53.4092C28.5797 59.3277 28.7041 60.3053 28.7041 64.0732C28.7041 66.7393 28.633 67.6812 28.402 68.5699C27.9398 70.2406 27.2645 71.5203 26.3047 72.5512C25.2561 73.7064 24.0297 74.4529 21.5592 75.466C19.4441 76.3191 19.0354 76.7102 19.0176 77.7232C19.0176 78.6652 19.9418 79.625 20.8127 79.625C21.6125 79.6072 24.5629 78.4342 26.1803 77.4744C28.0287 76.3902 30.1438 74.2041 30.9791 72.4979C33.0941 68.2145 33.1475 62.1182 31.1391 52.6094C30.0727 47.4906 30.2859 44.718 32.01 41.4121C33.3963 38.7461 35.3336 36.8266 37.9463 35.5291C39.9547 34.5516 41.3232 34.2316 43.5449 34.2494C45.9088 34.2494 47.4195 34.6049 49.5879 35.6713C51.0098 36.3822 51.5252 36.7555 52.876 38.1062C54.6355 39.8658 55.3998 41.1277 56.3063 43.6693C56.5906 44.4691 57.0883 45.5711 57.426 46.1221C58.6879 48.2193 62.3848 52.0051 67.0059 55.933C70.7916 59.15 74.8795 62.3848 75.2883 62.4914C76.5147 62.7936 77.6699 61.9937 77.6699 60.8385C77.6699 59.9143 77.2789 59.4166 75.2172 57.7637C67.3436 51.4719 62.1537 46.5842 60.6785 44.1137C60.4475 43.7404 60.0209 42.7451 59.7188 41.9098C57.2305 35.0492 51.2586 30.6769 44.0781 30.4637C42.6029 30.4281 41.3943 30.4814 40.4701 30.6592Z" fill="white"/>
<path d="M41.6787 38.6039C38.7816 39.1549 36.009 41.5543 34.8004 44.5936C34.4627 45.4289 34.3916 45.9266 34.3916 47.7217C34.3916 50.2633 34.6227 51.1164 36.3467 54.6533C39.9725 62.1182 46.9219 69.6541 59.3455 79.6072C61.976 81.7045 62.3314 81.9355 62.9535 81.9355C63.4867 81.9355 63.7711 81.8111 64.1621 81.4201C65.3352 80.2648 65.0863 79.4117 63.0779 77.7943C51.5785 68.4455 46.0688 63.0246 42.1764 57.2305C40.0969 54.1557 38.3906 50.4766 38.0174 48.3615C37.6619 46.4242 38.3195 44.6824 39.8836 43.225C40.8789 42.3008 41.7143 41.9453 43.1895 41.8209C44.5758 41.7143 45.9977 42.1408 47.1174 43.0295C48.0238 43.7404 48.5037 44.5047 49.1436 46.2109C51.1342 51.6141 56.324 57.4615 66.7037 66.0639C70.6494 69.352 71.3604 69.8674 72.0357 70.0273C72.8533 70.2051 73.6531 69.8496 74.0086 69.1564C74.684 67.8768 74.3641 67.3969 71.2004 64.8375C63.0602 58.2613 57.4793 52.7871 54.6533 48.6281C54.1201 47.8461 53.3025 46.2998 52.8582 45.2334C51.8629 42.8873 51.383 42.1408 49.9611 40.8434C47.7572 38.7994 44.8246 37.9996 41.6787 38.6039Z" fill="white"/>
<path d="M42.7273 45.6949C42.2297 45.9437 41.7676 46.7791 41.7676 47.4012C41.7676 48.8053 43.385 52.3066 45.4111 55.3637C48.6459 60.2158 53.1781 64.6059 62.0293 71.4486C64.0377 73.0127 66.0994 74.6123 66.6148 75.0211C67.3613 75.6254 67.6813 75.7676 68.2855 75.7676C69.2986 75.7676 70.0273 74.9855 70.0273 73.9014C70.0273 73.2437 69.9207 73.066 69.1031 72.2484C68.5877 71.7686 66.366 69.9557 64.1621 68.2672C58.8834 64.1615 56.3596 62.0287 53.6402 59.2561C49.4102 54.9549 47.4729 52.1822 45.8555 48.1299C45.4467 47.0812 44.9668 46.1037 44.7891 45.9437C44.3803 45.5705 43.225 45.4461 42.7273 45.6949Z" fill="white"/>
<path d="M12.1216 53.5869C11.8195 53.8357 11.5351 54.2623 11.464 54.5467C11.2507 55.542 12.0861 58.5813 13.2414 61.034C13.7568 62.1182 14.3433 62.5625 15.3031 62.5625C15.9962 62.5625 17.0626 61.5672 17.0626 60.9096C17.0626 60.6607 16.7427 59.6832 16.3695 58.7234C15.9785 57.7459 15.5341 56.3951 15.3742 55.7197C14.9831 54.1201 14.7876 53.6936 14.1833 53.3914C13.4546 53.0182 12.7081 53.0893 12.1216 53.5869Z" fill="white"/>
<path d="M35.2448 64.6067C34.4627 64.9444 34.0717 65.602 34.1784 66.4196C34.2317 66.7928 34.3739 67.8237 34.4983 68.6946C35.1559 73.3512 32.4899 80.4961 29.2907 82.7178C28.7752 83.0733 28.2598 83.3576 28.1354 83.3576C27.8155 83.3576 26.8202 84.2641 26.6424 84.7262C26.287 85.686 27.0334 86.9479 28.0821 87.1434C29.4151 87.41 32.2055 85.6326 33.9473 83.3932C36.6489 79.9629 38.2663 74.9686 38.284 70.1164C38.3018 66.544 37.8752 65.0865 36.6666 64.5889C35.9735 64.2867 35.9557 64.2867 35.2448 64.6067Z" fill="white"/>
<path d="M43.8116 76.1059C40.8079 77.2256 38.8173 81.1891 38.053 87.5698C37.822 89.5071 38.0175 90.2713 38.9061 90.7157C40.3458 91.4621 41.7677 90.4313 41.7677 88.6184C41.7677 86.7877 42.9585 82.3977 43.8294 81.0291C44.5225 79.9272 45.0913 79.5717 46.0333 79.7139C47.8817 79.9983 49.2503 81.0824 51.5075 84.0151C53.2849 86.3434 53.7114 86.8055 54.4223 87.0721C55.6309 87.5342 57.0706 86.2367 56.7862 84.9571C56.7151 84.6727 56.3063 83.9795 55.862 83.4108C55.4177 82.842 54.7778 81.9356 54.4401 81.4024C53.0182 79.2162 50.4944 77.2612 47.9884 76.408C46.6554 75.9637 44.5936 75.8037 43.8116 76.1059Z" fill="white"/>
</svg>
