<svg width="60" height="60" viewBox="0 0 60 60" fill="none" xmlns="http://www.w3.org/2000/svg">
<path d="M45.956 49.2424C46.682 49.2424 47.2705 48.654 47.2705 47.928C47.2705 47.202 46.682 46.6135 45.956 46.6135H44.7345C44.4633 45.3461 43.3345 44.3927 41.9872 44.3927H38.4858V43.7316C38.4858 41.6867 36.8221 40.0228 34.777 40.0228H31.3146V38.4866H34.8173C36.8402 38.4866 38.4858 36.8408 38.4858 34.8182V19.7761C38.4858 17.7535 36.8401 16.1078 34.8173 16.1078H34.1936C34.245 15.967 34.2731 15.8153 34.2731 15.6568C34.2731 14.9308 33.6846 14.3423 32.9586 14.3423H27.0413C26.3153 14.3423 25.7268 14.9308 25.7268 15.6568C25.7268 15.8153 25.7549 15.967 25.8062 16.1078H25.1825C23.1595 16.1078 21.5138 17.7535 21.5138 19.7761V34.8183C21.5138 36.841 23.1595 38.4867 25.1825 38.4867H28.6856V40.023H25.223C23.1778 40.023 21.5139 41.6867 21.5139 43.7317V44.3928H18.0125C16.6652 44.3928 15.5364 45.3462 15.2654 46.6136H14.0436C13.3176 46.6136 12.7291 47.2021 12.7291 47.9281C12.7291 48.6541 13.3176 49.2426 14.0436 49.2426H15.2654C15.5364 50.5102 16.6652 51.4635 18.0125 51.4635H24.7351V57.3706H22.8283C22.1023 57.3706 21.5138 57.9591 21.5138 58.6851C21.5138 59.4111 22.1023 59.9996 22.8283 59.9996H26.0168C26.0385 60.0001 26.0604 60.0001 26.0823 59.9996H33.9176C33.9285 59.9999 33.9393 60 33.9502 60C33.9612 60 33.9721 59.9999 33.9829 59.9996H37.1712C37.8972 59.9996 38.4857 59.4111 38.4857 58.6851C38.4857 57.9591 37.8972 57.3706 37.1712 57.3706H35.2647V51.4635H41.987C43.3345 51.4635 44.4633 50.5102 44.7343 49.2426L45.956 49.2424ZM25.1825 35.8576C24.6092 35.8576 24.1428 35.3913 24.1428 34.8182V19.7761C24.1428 19.203 24.6092 18.7367 25.1825 18.7367H34.8173C35.3905 18.7367 35.8568 19.203 35.8568 19.7761V34.8183C35.8568 35.3914 35.3904 35.8577 34.8173 35.8577H25.1825V35.8576ZM24.1428 43.7316C24.1428 43.1362 24.6273 42.6518 25.2229 42.6518H34.777C35.3724 42.6518 35.8568 43.1362 35.8568 43.7316V44.3927H33.2377C31.8907 44.3927 30.762 45.3461 30.4908 46.6135H29.5092C29.238 45.3461 28.1092 44.3927 26.7621 44.3927H24.1428V43.7316ZM26.9422 48.6543C26.9422 48.7501 26.8581 48.8344 26.7621 48.8344H26.0496H18.0125C17.9165 48.8344 17.8324 48.7503 17.8324 48.6543V47.2018C17.8324 47.1059 17.9165 47.0217 18.0125 47.0217H26.7621C26.858 47.0217 26.9422 47.1058 26.9422 47.2018V48.6543ZM32.6359 57.3705H27.3641V51.3983C28.4353 51.1637 29.2797 50.3156 29.5092 49.2424H30.4908C30.7203 50.3158 31.5647 51.1638 32.6359 51.3985V57.3705ZM42.1675 48.6543C42.1675 48.7501 42.0832 48.8344 41.9872 48.8344H33.9504H33.2377C33.1419 48.8344 33.0578 48.7503 33.0578 48.6543V47.2018C33.0578 47.1059 33.1418 47.0217 33.2377 47.0217H41.9872C42.0832 47.0217 42.1675 47.1058 42.1675 47.2018V48.6543ZM60 8.48531C60 9.21131 59.4115 9.79978 58.6855 9.79978H58.2889V11.5947C58.2889 12.3207 57.7005 12.9091 56.9745 12.9091C56.7129 12.9091 56.4693 12.8328 56.2645 12.7012V13.1278C56.2645 13.8538 55.676 14.4422 54.95 14.4422C54.224 14.4422 53.6355 13.8538 53.6355 13.1278V9.79978H51.6131V57.3705H54.941C55.667 57.3705 56.2555 57.959 56.2555 58.685C56.2555 59.411 55.667 59.9994 54.941 59.9994H50.3313C50.3204 59.9997 50.3096 59.9999 50.2986 59.9999C50.2877 59.9999 50.2768 59.9997 50.266 59.9994H45.6563C44.9303 59.9994 44.3418 59.411 44.3418 58.685C44.3418 57.959 44.9303 57.3705 45.6563 57.3705H48.9841V9.79978H11.0154V57.3705H14.3434C15.0695 57.3705 15.6579 57.959 15.6579 58.685C15.6579 59.411 15.0695 59.9994 14.3434 59.9994H9.73374C9.71201 60 9.69015 60 9.66829 59.9994H5.05858C4.33256 59.9994 3.74408 59.411 3.74408 58.685C3.74408 57.959 4.33256 57.3705 5.05858 57.3705H8.38645V9.79978H6.36435V13.1278C6.36435 13.8538 5.77587 14.4422 5.04986 14.4422C4.32384 14.4422 3.73537 13.8538 3.73537 13.1278V12.7012C3.53058 12.8328 3.28692 12.9091 3.0254 12.9091C2.29939 12.9091 1.71091 12.3207 1.71091 11.5947V9.79978H1.31449C0.588477 9.79978 0 9.21131 0 8.48531C0 7.7593 0.588477 7.17083 1.31449 7.17083H1.71078V5.37608C1.71078 4.65007 2.29925 4.0616 3.02527 4.0616C3.28678 4.0616 3.53045 4.13798 3.73523 4.26957V3.84312C3.73523 3.11711 4.32371 2.52864 5.04972 2.52864C5.77573 2.52864 6.36421 3.11711 6.36421 3.84312V7.17097H8.38645V1.31448C8.38645 0.588471 8.97493 0 9.70094 0C10.427 0 11.0154 0.588471 11.0154 1.31448V7.17083H48.9841V1.31448C48.9841 0.588471 49.5726 0 50.2986 0C51.0247 0 51.6131 0.588471 51.6131 1.31448V7.17083H53.6355V3.84298C53.6355 3.11697 54.224 2.5285 54.95 2.5285C55.676 2.5285 56.2645 3.11697 56.2645 3.84298V4.26943C56.4693 4.13784 56.7129 4.06146 56.9745 4.06146C57.7005 4.06146 58.2889 4.64993 58.2889 5.37594V7.17083H58.6855C59.4115 7.17083 60 7.7593 60 8.48531Z" fill="url(#paint0_linear_21895_8409)"/>
<defs>
<linearGradient id="paint0_linear_21895_8409" x1="30" y1="0" x2="30" y2="60" gradientUnits="userSpaceOnUse">
<stop stop-color="#FB923C"/>
<stop offset="1" stop-color="#EA580C"/>
</linearGradient>
</defs>
</svg>
