<svg width="55" height="49" viewBox="0 0 55 49" fill="none" xmlns="http://www.w3.org/2000/svg">
<path d="M51.9298 27.5188C53.5532 27.5188 54.9856 26.1793 54.9856 24.4474C55.0811 23.5862 54.6991 22.8207 53.9351 22.1509L48.893 17.7016V6.1238C48.893 4.43019 47.5275 3.0619 45.8372 3.0619H42.7814C41.0912 3.0619 39.7256 4.43019 39.7256 6.1238V9.63542L29.5555 0.669791C28.9825 0.191369 28.2185 0 27.5501 0C26.8816 0 26.1177 0.0956844 25.4492 0.765476L0.954942 22.1509C0.286483 22.8207 0 23.5862 0 24.4474C0 26.1697 1.33692 27.5188 3.05582 27.5188H6.11163V34.188C6.10208 34.2742 6.10208 34.3603 6.10208 34.456V45.1726C6.10208 47.2873 7.81143 49 9.92185 49H11.4498C11.5644 49 11.6789 48.9904 11.7935 48.9809C11.9368 48.9904 12.08 49 12.2233 49H15.2695H17.5614C19.6718 49 21.3812 47.2873 21.3812 45.1726V42.8762V36.7524C21.3812 35.0588 22.7467 33.6905 24.437 33.6905H30.5486C32.2389 33.6905 33.6044 35.0588 33.6044 36.7524V42.8762V45.1726C33.6044 47.2873 35.3138 49 37.4242 49H39.716H42.8196C42.9533 49 43.087 49 43.2207 48.9904C43.3257 49 43.4308 49 43.5358 49H45.0637C47.1742 49 48.8835 47.2873 48.8835 45.1726V43.6225C48.9121 43.3738 48.9312 43.1154 48.9312 42.8475L48.8644 27.5188H51.9202H51.9298Z" fill="url(#paint0_linear_21895_8388)"/>
<defs>
<linearGradient id="paint0_linear_21895_8388" x1="27.5" y1="0" x2="27.5" y2="49" gradientUnits="userSpaceOnUse">
<stop stop-color="#4ADE80"/>
<stop offset="1" stop-color="#16A34A"/>
</linearGradient>
</defs>
</svg>
