<svg width="24" height="24" viewBox="0 0 24 24" fill="none" xmlns="http://www.w3.org/2000/svg">
<g clip-path="url(#clip0_23945_4704)">
<path d="M12.0039 0C6.99409 0 5.52887 0.00517035 5.24405 0.0287546C4.21595 0.114293 3.57618 0.276208 2.87927 0.62326C2.34209 0.890125 1.91848 1.19935 1.5004 1.63285C0.738995 2.42347 0.277559 3.39614 0.110473 4.55222C0.0292888 5.11353 0.00561386 5.228 0.0008063 8.09494C-0.00100788 9.05065 0.0008063 10.3082 0.0008063 11.9953C0.0008063 17.0025 0.00643061 18.4666 0.0303777 18.751C0.113467 19.7517 0.270302 20.3813 0.602569 21.0699C1.23753 22.3882 2.45031 23.3778 3.87897 23.7471C4.3736 23.8745 4.91994 23.9447 5.6213 23.9779C5.91856 23.9907 8.9475 24 11.9783 24C15.0091 24 18.04 23.9964 18.3297 23.9816C19.1419 23.9433 19.6135 23.88 20.1349 23.7452C21.5728 23.3742 22.7634 22.3993 23.4113 21.0625C23.737 20.3904 23.9022 19.7369 23.977 18.7884C23.9933 18.5816 24.0001 15.2847 24.0001 11.9922C24.0001 8.69906 23.9926 5.40824 23.9765 5.20142C23.9008 4.23764 23.7356 3.58953 23.3992 2.90468C23.1233 2.34391 22.8169 1.92511 22.372 1.49697C21.5782 0.738551 20.6073 0.276934 19.4503 0.11003C18.8897 0.0289362 18.7782 0.00498898 15.9097 0H12.0039Z" fill="url(#paint0_radial_23945_4704)"/>
<path d="M12.0039 0C6.99409 0 5.52887 0.00517035 5.24405 0.0287546C4.21595 0.114293 3.57618 0.276208 2.87927 0.62326C2.34209 0.890125 1.91848 1.19935 1.5004 1.63285C0.738995 2.42347 0.277559 3.39614 0.110473 4.55222C0.0292888 5.11353 0.00561386 5.228 0.0008063 8.09494C-0.00100788 9.05065 0.0008063 10.3082 0.0008063 11.9953C0.0008063 17.0025 0.00643061 18.4666 0.0303777 18.751C0.113467 19.7517 0.270302 20.3813 0.602569 21.0699C1.23753 22.3882 2.45031 23.3778 3.87897 23.7471C4.3736 23.8745 4.91994 23.9447 5.6213 23.9779C5.91856 23.9907 8.9475 24 11.9783 24C15.0091 24 18.04 23.9964 18.3297 23.9816C19.1419 23.9433 19.6135 23.88 20.1349 23.7452C21.5728 23.3742 22.7634 22.3993 23.4113 21.0625C23.737 20.3904 23.9022 19.7369 23.977 18.7884C23.9933 18.5816 24.0001 15.2847 24.0001 11.9922C24.0001 8.69906 23.9926 5.40824 23.9765 5.20142C23.9008 4.23764 23.7356 3.58953 23.3992 2.90468C23.1233 2.34391 22.8169 1.92511 22.372 1.49697C21.5782 0.738551 20.6073 0.276934 19.4503 0.11003C18.8897 0.0289362 18.7782 0.00498898 15.9097 0H12.0039Z" fill="url(#paint1_radial_23945_4704)"/>
<path d="M12.0039 0C6.99409 0 5.52887 0.00517035 5.24405 0.0287546C4.21595 0.114293 3.57618 0.276208 2.87927 0.62326C2.34209 0.890125 1.91848 1.19935 1.5004 1.63285C0.738995 2.42347 0.277559 3.39614 0.110473 4.55222C0.0292888 5.11353 0.00561386 5.228 0.0008063 8.09494C-0.00100788 9.05065 0.0008063 10.3082 0.0008063 11.9953C0.0008063 17.0025 0.00643061 18.4666 0.0303777 18.751C0.113467 19.7517 0.270302 20.3813 0.602569 21.0699C1.23753 22.3882 2.45031 23.3778 3.87897 23.7471C4.3736 23.8745 4.91994 23.9447 5.6213 23.9779C5.91856 23.9907 8.9475 24 11.9783 24C15.0091 24 18.04 23.9964 18.3297 23.9816C19.1419 23.9433 19.6135 23.88 20.1349 23.7452C21.5728 23.3742 22.7634 22.3993 23.4113 21.0625C23.737 20.3904 23.9022 19.7369 23.977 18.7884C23.9933 18.5816 24.0001 15.2847 24.0001 11.9922C24.0001 8.69906 23.9926 5.40824 23.9765 5.20142C23.9008 4.23764 23.7356 3.58953 23.3992 2.90468C23.1233 2.34391 22.8169 1.92511 22.372 1.49697C21.5782 0.738551 20.6073 0.276934 19.4503 0.11003C18.8897 0.0289362 18.7782 0.00498898 15.9097 0H12.0039Z" fill="url(#paint2_radial_23945_4704)"/>
<path d="M12.0039 0C6.99409 0 5.52887 0.00517035 5.24405 0.0287546C4.21595 0.114293 3.57618 0.276208 2.87927 0.62326C2.34209 0.890125 1.91848 1.19935 1.5004 1.63285C0.738995 2.42347 0.277559 3.39614 0.110473 4.55222C0.0292888 5.11353 0.00561386 5.228 0.0008063 8.09494C-0.00100788 9.05065 0.0008063 10.3082 0.0008063 11.9953C0.0008063 17.0025 0.00643061 18.4666 0.0303777 18.751C0.113467 19.7517 0.270302 20.3813 0.602569 21.0699C1.23753 22.3882 2.45031 23.3778 3.87897 23.7471C4.3736 23.8745 4.91994 23.9447 5.6213 23.9779C5.91856 23.9907 8.9475 24 11.9783 24C15.0091 24 18.04 23.9964 18.3297 23.9816C19.1419 23.9433 19.6135 23.88 20.1349 23.7452C21.5728 23.3742 22.7634 22.3993 23.4113 21.0625C23.737 20.3904 23.9022 19.7369 23.977 18.7884C23.9933 18.5816 24.0001 15.2847 24.0001 11.9922C24.0001 8.69906 23.9926 5.40824 23.9765 5.20142C23.9008 4.23764 23.7356 3.58953 23.3992 2.90468C23.1233 2.34391 22.8169 1.92511 22.372 1.49697C21.5782 0.738551 20.6073 0.276934 19.4503 0.11003C18.8897 0.0289362 18.7782 0.00498898 15.9097 0H12.0039Z" fill="url(#paint3_radial_23945_4704)"/>
<path d="M12.0042 3.08203C9.58081 3.08203 9.27658 3.09264 8.32477 3.13591C7.37487 3.17945 6.72648 3.32967 6.15901 3.55018C5.57212 3.77786 5.07431 4.08264 4.57831 4.57836C4.08196 5.074 3.77699 5.57144 3.54841 6.15778C3.32708 6.7249 3.1765 7.37301 3.13387 8.32191C3.09124 9.27309 3.08008 9.57714 3.08008 11.9988C3.08008 14.4204 3.09087 14.7234 3.13396 15.6745C3.17768 16.6238 3.32808 17.2718 3.5485 17.8387C3.77663 18.4251 4.0815 18.9227 4.57768 19.4183C5.07349 19.9143 5.57139 20.2196 6.15783 20.4474C6.72566 20.6679 7.37423 20.8182 8.32404 20.8617C9.27585 20.9049 9.57981 20.9156 12.0031 20.9156C14.4267 20.9156 14.7299 20.9049 15.6818 20.8617C16.6317 20.8181 17.281 20.6679 17.8486 20.4474C18.4353 20.2197 18.9324 19.9143 19.4282 19.4183C19.9246 18.9227 20.2296 18.4251 20.4582 17.8389C20.6776 17.2718 20.8282 16.6236 20.8727 15.6748C20.9155 14.7236 20.9267 14.4204 20.9267 11.9988C20.9267 9.57714 20.9155 9.27327 20.8728 8.3221C20.8282 7.37283 20.6776 6.7249 20.4582 6.15797C20.2296 5.57144 19.9246 5.074 19.4282 4.57836C18.9319 4.08237 18.4355 3.77768 17.8481 3.55018C17.2793 3.32967 16.6304 3.17936 15.6804 3.13591C14.7286 3.09264 14.4256 3.08203 12.0015 3.08203H12.0042ZM11.2037 4.68894C11.4413 4.68857 11.7064 4.68894 12.0042 4.68894C14.3867 4.68894 14.6692 4.69746 15.61 4.74019C16.48 4.77992 16.9523 4.92523 17.2667 5.04724C17.6832 5.20888 17.9801 5.40209 18.2922 5.71413C18.6045 6.02617 18.7979 6.32342 18.96 6.73959C19.0821 7.05344 19.2277 7.5254 19.2673 8.39475C19.31 9.33477 19.3193 9.61705 19.3193 11.9968C19.3193 14.3764 19.3101 14.6587 19.2673 15.5988C19.2274 16.4681 19.0821 16.94 18.96 17.2539C18.7983 17.67 18.6045 17.9663 18.2922 18.2782C17.9799 18.5903 17.6834 18.7834 17.2667 18.9451C16.9526 19.0677 16.48 19.2127 15.61 19.2524C14.6694 19.295 14.3867 19.3044 12.0042 19.3044C9.62145 19.3044 9.33916 19.2951 8.39842 19.2524C7.52835 19.2122 7.05621 19.067 6.74145 18.9449C6.32509 18.7834 6.02757 18.5901 5.71526 18.278C5.40295 17.966 5.20965 17.6695 5.04746 17.2532C4.92537 16.9392 4.77987 16.4674 4.74023 15.598C4.69742 14.658 4.68889 14.3756 4.68889 11.9945C4.68889 9.61343 4.69742 9.3325 4.74023 8.39249C4.77996 7.52313 4.92528 7.05127 5.04746 6.73705C5.20919 6.32088 5.40295 6.02363 5.71526 5.71159C6.02757 5.39946 6.325 5.20634 6.74145 5.04424C7.05603 4.9217 7.52835 4.77674 8.39842 4.73683C9.22161 4.69964 9.54063 4.68857 11.2037 4.68667V4.68894ZM16.7675 6.16949C16.1762 6.16949 15.6967 6.64816 15.6967 7.23912C15.6967 7.82982 16.1762 8.30912 16.7675 8.30912C17.3586 8.30912 17.8382 7.82982 17.8382 7.23912C17.8382 6.64834 17.3586 6.16912 16.7674 6.16912L16.7675 6.16949ZM12.0042 7.41963C9.47341 7.41963 7.42167 9.46993 7.42167 11.9988C7.42167 14.5277 9.4735 16.577 12.0043 16.577C14.5351 16.577 16.586 14.5277 16.586 11.9988C16.586 9.46993 14.5348 7.41963 12.004 7.41963H12.0042ZM12.0042 9.02654C13.6469 9.02654 14.9787 10.3572 14.9787 11.9988C14.9787 13.6403 13.6468 14.971 12.0042 14.971C10.3615 14.971 9.02976 13.6403 9.02976 11.9988C9.02976 10.3571 10.3614 9.02654 12.0042 9.02654Z" fill="white"/>
</g>
<defs>
<radialGradient id="paint0_radial_23945_4704" cx="0" cy="0" r="1" gradientTransform="matrix(-14.7591 4.16241 -2.99886 -10.6332 23.2252 11.249)" gradientUnits="userSpaceOnUse">
<stop stop-color="#FF005F"/>
<stop offset="1" stop-color="#FC01D8"/>
</radialGradient>
<radialGradient id="paint1_radial_23945_4704" cx="0" cy="0" r="1" gradientUnits="userSpaceOnUse" gradientTransform="translate(6.37488 25.8485) rotate(-90) scale(19.1575 20.3257)">
<stop stop-color="#FFCC00"/>
<stop offset="0.124" stop-color="#FFCC00"/>
<stop offset="0.567" stop-color="#FE4A05"/>
<stop offset="0.694" stop-color="#FF0F3F"/>
<stop offset="1" stop-color="#FE0657" stop-opacity="0"/>
</radialGradient>
<radialGradient id="paint2_radial_23945_4704" cx="0" cy="0" r="1" gradientTransform="matrix(3.97637 -6.85141 8.91975 5.17681 12.6064 23.6615)" gradientUnits="userSpaceOnUse">
<stop stop-color="#FFCC00"/>
<stop offset="1" stop-color="#FFCC00" stop-opacity="0"/>
</radialGradient>
<radialGradient id="paint3_radial_23945_4704" cx="0" cy="0" r="1" gradientTransform="matrix(-14.5969 4.11025 -1.4 -4.97326 3.25634 0.977197)" gradientUnits="userSpaceOnUse">
<stop stop-color="#780CFF"/>
<stop offset="1" stop-color="#820BFF" stop-opacity="0"/>
</radialGradient>
<clipPath id="clip0_23945_4704">
<rect width="24" height="24" fill="white"/>
</clipPath>
</defs>
</svg>
