<svg width="402" height="465" viewBox="0 0 402 465" fill="none" xmlns="http://www.w3.org/2000/svg">
<g opacity="0.5">
<line x1="139.049" y1="278.467" x2="139.049" y2="458.467" stroke="white" stroke-width="0.5" stroke-dasharray="1 1"/>
<line x1="201.049" y1="328.467" x2="201.049" y2="458.467" stroke="white" stroke-width="0.5" stroke-dasharray="1 1"/>
<line x1="263.049" y1="299.467" x2="263.049" y2="458.467" stroke="white" stroke-width="0.5" stroke-dasharray="1 1"/>
<line x1="325.049" y1="256.467" x2="325.049" y2="458.467" stroke="white" stroke-width="0.5" stroke-dasharray="1 1"/>
</g>
<path d="M265.501 201.542C237.61 201.542 250.001 164.042 229.501 158.322C209.001 152.602 205.696 264.265 185.001 264.265C164.306 264.265 154.755 127.751 141 127.751C133.986 127.751 121.001 177.297 109.001 213.665C91.0012 213.665 93.5005 211.119 76.0004 219.463C58.5003 227.807 64.0001 245.766 56.5001 262.157C39.9804 271.479 6.50004 262.157 0 264.265V465L27.6795 464.854L402 462.875V0C402 0 392.525 41.1505 370.958 41.1505C349.39 41.1505 333.585 25.719 312.433 67.8983C291.282 110.077 293.393 201.542 265.501 201.542Z" fill="url(#paint0_linear_8505_575)" fill-opacity="0.5"/>
<path d="M265.501 201.542C237.61 201.542 250.001 164.042 229.501 158.322C209.001 152.602 205.696 264.265 185.001 264.265C164.306 264.265 154.755 127.751 141 127.751C133.986 127.751 121.001 177.297 109.001 213.665C91.0012 213.665 93.5005 211.119 76.0004 219.463C58.5003 227.807 64.0001 245.766 56.5001 262.157C39.9804 271.479 6.50004 262.157 0 264.265V465L27.6795 464.854L402 462.875V0C402 0 392.525 41.1505 370.958 41.1505C349.39 41.1505 333.585 25.719 312.433 67.8983C291.282 110.077 293.393 201.542 265.501 201.542Z" fill="url(#paint1_linear_8505_575)"/>
<path d="M0.500244 264.968H57.0013C57.0013 264.968 57.0013 231 74.0002 221.228C90.9992 211.455 98.0002 217.539 107.5 214.377C117 211.215 128.247 128.478 142.001 128.478C155.756 128.478 164.306 264.968 185.001 264.968C205.696 264.968 208 157.462 228.5 159.57C249 161.678 237.109 202.872 265 202.872C292.891 202.872 291.282 110.807 312.434 68.6357C333.585 26.464 349.391 41.8927 370.958 41.8927C392.525 41.8927 402 0.749512 402 0.749512" stroke="url(#paint2_linear_8505_575)" stroke-width="4"/>
<g filter="url(#filter0_d_8505_575)">
<path d="M141.264 436.472C140.34 436.472 139.528 436.262 138.828 435.842C138.137 435.422 137.601 434.838 137.218 434.092C136.835 433.336 136.644 432.454 136.644 431.446C136.644 430.447 136.84 429.565 137.232 428.8C137.624 428.025 138.184 427.423 138.912 426.994C139.649 426.555 140.522 426.336 141.53 426.336C142.669 426.336 143.611 426.611 144.358 427.162C145.114 427.703 145.604 428.459 145.828 429.43H143.938C143.798 428.944 143.523 428.566 143.112 428.296C142.701 428.025 142.169 427.89 141.516 427.89C140.853 427.89 140.284 428.034 139.808 428.324C139.341 428.604 138.982 429.014 138.73 429.556C138.487 430.088 138.366 430.722 138.366 431.46C138.366 432.197 138.487 432.832 138.73 433.364C138.982 433.896 139.337 434.302 139.794 434.582C140.251 434.852 140.788 434.988 141.404 434.988C142.319 434.988 143.009 434.731 143.476 434.218C143.943 433.704 144.218 433.037 144.302 432.216H141.768V430.942H145.996V436.304H144.456L144.316 434.96C144.101 435.277 143.854 435.552 143.574 435.786C143.294 436.01 142.963 436.182 142.58 436.304C142.207 436.416 141.768 436.472 141.264 436.472ZM150.104 436.472C149.526 436.472 149.045 436.374 148.662 436.178C148.28 435.982 147.995 435.72 147.808 435.394C147.622 435.067 147.528 434.712 147.528 434.33C147.528 433.882 147.64 433.494 147.864 433.168C148.098 432.841 148.438 432.589 148.886 432.412C149.334 432.225 149.885 432.132 150.538 432.132H152.316C152.316 431.758 152.265 431.45 152.162 431.208C152.06 430.956 151.901 430.769 151.686 430.648C151.472 430.526 151.196 430.466 150.86 430.466C150.478 430.466 150.151 430.554 149.88 430.732C149.61 430.9 149.442 431.161 149.376 431.516H147.724C147.78 431.012 147.948 430.582 148.228 430.228C148.508 429.864 148.877 429.584 149.334 429.388C149.801 429.182 150.31 429.08 150.86 429.08C151.523 429.08 152.088 429.196 152.554 429.43C153.021 429.654 153.376 429.98 153.618 430.41C153.87 430.83 153.996 431.338 153.996 431.936V436.304H152.568L152.4 435.17C152.307 435.356 152.186 435.529 152.036 435.688C151.896 435.846 151.733 435.986 151.546 436.108C151.36 436.22 151.145 436.308 150.902 436.374C150.669 436.439 150.403 436.472 150.104 436.472ZM150.482 435.142C150.753 435.142 150.991 435.095 151.196 435.002C151.411 434.899 151.593 434.759 151.742 434.582C151.901 434.395 152.022 434.19 152.106 433.966C152.19 433.742 152.246 433.504 152.274 433.252V433.224H150.72C150.394 433.224 150.123 433.266 149.908 433.35C149.694 433.424 149.54 433.536 149.446 433.686C149.353 433.835 149.306 434.008 149.306 434.204C149.306 434.4 149.353 434.568 149.446 434.708C149.54 434.848 149.675 434.955 149.852 435.03C150.03 435.104 150.24 435.142 150.482 435.142ZM155.792 436.304V429.248H157.276L157.402 430.424C157.616 430.013 157.924 429.686 158.326 429.444C158.727 429.201 159.203 429.08 159.754 429.08C160.323 429.08 160.808 429.201 161.21 429.444C161.611 429.677 161.919 430.022 162.134 430.48C162.358 430.937 162.47 431.506 162.47 432.188V436.304H160.79V432.342C160.79 431.754 160.659 431.301 160.398 430.984C160.136 430.666 159.749 430.508 159.236 430.508C158.9 430.508 158.596 430.587 158.326 430.746C158.064 430.904 157.854 431.138 157.696 431.446C157.546 431.744 157.472 432.108 157.472 432.538V436.304H155.792ZM166.593 436.472C166.014 436.472 165.533 436.374 165.151 436.178C164.768 435.982 164.483 435.72 164.297 435.394C164.11 435.067 164.017 434.712 164.017 434.33C164.017 433.882 164.129 433.494 164.353 433.168C164.586 432.841 164.927 432.589 165.375 432.412C165.823 432.225 166.373 432.132 167.027 432.132H168.805C168.805 431.758 168.753 431.45 168.651 431.208C168.548 430.956 168.389 430.769 168.175 430.648C167.96 430.526 167.685 430.466 167.349 430.466C166.966 430.466 166.639 430.554 166.369 430.732C166.098 430.9 165.93 431.161 165.865 431.516H164.213C164.269 431.012 164.437 430.582 164.717 430.228C164.997 429.864 165.365 429.584 165.823 429.388C166.289 429.182 166.798 429.08 167.349 429.08C168.011 429.08 168.576 429.196 169.043 429.43C169.509 429.654 169.864 429.98 170.107 430.41C170.359 430.83 170.485 431.338 170.485 431.936V436.304H169.057L168.889 435.17C168.795 435.356 168.674 435.529 168.525 435.688C168.385 435.846 168.221 435.986 168.035 436.108C167.848 436.22 167.633 436.308 167.391 436.374C167.157 436.439 166.891 436.472 166.593 436.472ZM166.971 435.142C167.241 435.142 167.479 435.095 167.685 435.002C167.899 434.899 168.081 434.759 168.231 434.582C168.389 434.395 168.511 434.19 168.595 433.966C168.679 433.742 168.735 433.504 168.763 433.252V433.224H167.209C166.882 433.224 166.611 433.266 166.397 433.35C166.182 433.424 166.028 433.536 165.935 433.686C165.841 433.835 165.795 434.008 165.795 434.204C165.795 434.4 165.841 434.568 165.935 434.708C166.028 434.848 166.163 434.955 166.341 435.03C166.518 435.104 166.728 435.142 166.971 435.142ZM172.28 436.304V429.248H173.764L173.89 430.424C174.104 430.013 174.412 429.686 174.814 429.444C175.215 429.201 175.691 429.08 176.242 429.08C176.811 429.08 177.296 429.201 177.698 429.444C178.099 429.677 178.407 430.022 178.622 430.48C178.846 430.937 178.958 431.506 178.958 432.188V436.304H177.278V432.342C177.278 431.754 177.147 431.301 176.886 430.984C176.624 430.666 176.237 430.508 175.724 430.508C175.388 430.508 175.084 430.587 174.814 430.746C174.552 430.904 174.342 431.138 174.184 431.446C174.034 431.744 173.96 432.108 173.96 432.538V436.304H172.28ZM184.075 436.472C183.384 436.472 182.764 436.318 182.213 436.01C181.672 435.692 181.247 435.258 180.939 434.708C180.64 434.148 180.491 433.513 180.491 432.804C180.491 432.066 180.64 431.422 180.939 430.872C181.247 430.312 181.672 429.873 182.213 429.556C182.764 429.238 183.389 429.08 184.089 429.08C184.966 429.08 185.704 429.313 186.301 429.78C186.898 430.237 187.281 430.867 187.449 431.67H185.685C185.592 431.315 185.396 431.035 185.097 430.83C184.808 430.624 184.462 430.522 184.061 430.522C183.716 430.522 183.398 430.61 183.109 430.788C182.829 430.965 182.605 431.222 182.437 431.558C182.278 431.894 182.199 432.3 182.199 432.776C182.199 433.14 182.246 433.462 182.339 433.742C182.432 434.022 182.563 434.26 182.731 434.456C182.908 434.642 183.109 434.787 183.333 434.89C183.557 434.992 183.8 435.044 184.061 435.044C184.332 435.044 184.574 435.002 184.789 434.918C185.013 434.824 185.2 434.689 185.349 434.512C185.508 434.334 185.62 434.124 185.685 433.882H187.449C187.281 434.666 186.898 435.296 186.301 435.772C185.704 436.238 184.962 436.472 184.075 436.472ZM189.139 436.304V429.248H190.819V436.304H189.139ZM189.979 428.128C189.671 428.128 189.414 428.034 189.209 427.848C189.013 427.652 188.915 427.414 188.915 427.134C188.915 426.844 189.013 426.611 189.209 426.434C189.414 426.247 189.671 426.154 189.979 426.154C190.287 426.154 190.539 426.247 190.735 426.434C190.94 426.611 191.043 426.844 191.043 427.134C191.043 427.414 190.94 427.652 190.735 427.848C190.539 428.034 190.287 428.128 189.979 428.128ZM195.112 436.472C194.534 436.472 194.053 436.374 193.67 436.178C193.288 435.982 193.003 435.72 192.816 435.394C192.63 435.067 192.536 434.712 192.536 434.33C192.536 433.882 192.648 433.494 192.872 433.168C193.106 432.841 193.446 432.589 193.894 432.412C194.342 432.225 194.893 432.132 195.546 432.132H197.324C197.324 431.758 197.273 431.45 197.17 431.208C197.068 430.956 196.909 430.769 196.694 430.648C196.48 430.526 196.204 430.466 195.868 430.466C195.486 430.466 195.159 430.554 194.888 430.732C194.618 430.9 194.45 431.161 194.384 431.516H192.732C192.788 431.012 192.956 430.582 193.236 430.228C193.516 429.864 193.885 429.584 194.342 429.388C194.809 429.182 195.318 429.08 195.868 429.08C196.531 429.08 197.096 429.196 197.562 429.43C198.029 429.654 198.384 429.98 198.626 430.41C198.878 430.83 199.004 431.338 199.004 431.936V436.304H197.576L197.408 435.17C197.315 435.356 197.194 435.529 197.044 435.688C196.904 435.846 196.741 435.986 196.554 436.108C196.368 436.22 196.153 436.308 195.91 436.374C195.677 436.439 195.411 436.472 195.112 436.472ZM195.49 435.142C195.761 435.142 195.999 435.095 196.204 435.002C196.419 434.899 196.601 434.759 196.75 434.582C196.909 434.395 197.03 434.19 197.114 433.966C197.198 433.742 197.254 433.504 197.282 433.252V433.224H195.728C195.402 433.224 195.131 433.266 194.916 433.35C194.702 433.424 194.548 433.536 194.454 433.686C194.361 433.835 194.314 434.008 194.314 434.204C194.314 434.4 194.361 434.568 194.454 434.708C194.548 434.848 194.683 434.955 194.86 435.03C195.038 435.104 195.248 435.142 195.49 435.142ZM204.273 436.304V426.504H206.261L209.397 432.832L212.505 426.504H214.507V436.304H212.827V429.388L210.055 434.932H208.739L205.953 429.402V436.304H204.273ZM219.058 436.472C218.489 436.472 217.999 436.36 217.588 436.136C217.187 435.902 216.879 435.557 216.664 435.1C216.449 434.633 216.342 434.059 216.342 433.378V429.248H218.022V433.21C218.022 433.816 218.148 434.278 218.4 434.596C218.661 434.904 219.053 435.058 219.576 435.058C219.912 435.058 220.211 434.978 220.472 434.82C220.743 434.661 220.953 434.432 221.102 434.134C221.261 433.826 221.34 433.452 221.34 433.014V429.248H223.02V436.304H221.536L221.41 435.128C221.195 435.538 220.883 435.865 220.472 436.108C220.071 436.35 219.599 436.472 219.058 436.472ZM227.703 436.472C227.078 436.472 226.532 436.374 226.065 436.178C225.608 435.972 225.244 435.692 224.973 435.338C224.712 434.974 224.558 434.558 224.511 434.092H226.191C226.238 434.288 226.322 434.47 226.443 434.638C226.565 434.796 226.728 434.922 226.933 435.016C227.148 435.109 227.4 435.156 227.689 435.156C227.969 435.156 228.198 435.118 228.375 435.044C228.553 434.96 228.683 434.852 228.767 434.722C228.851 434.591 228.893 434.451 228.893 434.302C228.893 434.078 228.833 433.905 228.711 433.784C228.59 433.662 228.413 433.569 228.179 433.504C227.955 433.429 227.685 433.359 227.367 433.294C227.031 433.228 226.705 433.149 226.387 433.056C226.079 432.953 225.799 432.827 225.547 432.678C225.305 432.528 225.109 432.337 224.959 432.104C224.819 431.87 224.749 431.586 224.749 431.25C224.749 430.839 224.857 430.47 225.071 430.144C225.295 429.817 225.613 429.56 226.023 429.374C226.443 429.178 226.943 429.08 227.521 429.08C228.343 429.08 228.996 429.271 229.481 429.654C229.976 430.027 230.265 430.554 230.349 431.236H228.753C228.707 430.974 228.576 430.774 228.361 430.634C228.147 430.484 227.862 430.41 227.507 430.41C227.143 430.41 226.863 430.48 226.667 430.62C226.481 430.75 226.387 430.928 226.387 431.152C226.387 431.292 226.443 431.422 226.555 431.544C226.677 431.656 226.849 431.754 227.073 431.838C227.297 431.912 227.573 431.987 227.899 432.062C228.422 432.164 228.884 432.286 229.285 432.426C229.687 432.566 230.004 432.771 230.237 433.042C230.471 433.312 230.587 433.695 230.587 434.19C230.597 434.638 230.48 435.034 230.237 435.38C230.004 435.725 229.673 435.996 229.243 436.192C228.814 436.378 228.301 436.472 227.703 436.472ZM235.563 436.472C234.873 436.472 234.252 436.318 233.701 436.01C233.16 435.692 232.735 435.258 232.427 434.708C232.129 434.148 231.979 433.513 231.979 432.804C231.979 432.066 232.129 431.422 232.427 430.872C232.735 430.312 233.16 429.873 233.701 429.556C234.252 429.238 234.877 429.08 235.577 429.08C236.455 429.08 237.192 429.313 237.789 429.78C238.387 430.237 238.769 430.867 238.937 431.67H237.173C237.08 431.315 236.884 431.035 236.585 430.83C236.296 430.624 235.951 430.522 235.549 430.522C235.204 430.522 234.887 430.61 234.597 430.788C234.317 430.965 234.093 431.222 233.925 431.558C233.767 431.894 233.687 432.3 233.687 432.776C233.687 433.14 233.734 433.462 233.827 433.742C233.921 434.022 234.051 434.26 234.219 434.456C234.397 434.642 234.597 434.787 234.821 434.89C235.045 434.992 235.288 435.044 235.549 435.044C235.82 435.044 236.063 435.002 236.277 434.918C236.501 434.824 236.688 434.689 236.837 434.512C236.996 434.334 237.108 434.124 237.173 433.882H238.937C238.769 434.666 238.387 435.296 237.789 435.772C237.192 436.238 236.45 436.472 235.563 436.472ZM243.175 436.472C242.606 436.472 242.116 436.36 241.705 436.136C241.304 435.902 240.996 435.557 240.781 435.1C240.566 434.633 240.459 434.059 240.459 433.378V429.248H242.139V433.21C242.139 433.816 242.265 434.278 242.517 434.596C242.778 434.904 243.17 435.058 243.693 435.058C244.029 435.058 244.328 434.978 244.589 434.82C244.86 434.661 245.07 434.432 245.219 434.134C245.378 433.826 245.457 433.452 245.457 433.014V429.248H247.137V436.304H245.653L245.527 435.128C245.312 435.538 245 435.865 244.589 436.108C244.188 436.35 243.716 436.472 243.175 436.472ZM249.006 436.304V426.224H250.686V436.304H249.006ZM254.913 436.472C254.334 436.472 253.854 436.374 253.471 436.178C253.088 435.982 252.804 435.72 252.617 435.394C252.43 435.067 252.337 434.712 252.337 434.33C252.337 433.882 252.449 433.494 252.673 433.168C252.906 432.841 253.247 432.589 253.695 432.412C254.143 432.225 254.694 432.132 255.347 432.132H257.125C257.125 431.758 257.074 431.45 256.971 431.208C256.868 430.956 256.71 430.769 256.495 430.648C256.28 430.526 256.005 430.466 255.669 430.466C255.286 430.466 254.96 430.554 254.689 430.732C254.418 430.9 254.25 431.161 254.185 431.516H252.533C252.589 431.012 252.757 430.582 253.037 430.228C253.317 429.864 253.686 429.584 254.143 429.388C254.61 429.182 255.118 429.08 255.669 429.08C256.332 429.08 256.896 429.196 257.363 429.43C257.83 429.654 258.184 429.98 258.427 430.41C258.679 430.83 258.805 431.338 258.805 431.936V436.304H257.377L257.209 435.17C257.116 435.356 256.994 435.529 256.845 435.688C256.705 435.846 256.542 435.986 256.355 436.108C256.168 436.22 255.954 436.308 255.711 436.374C255.478 436.439 255.212 436.472 254.913 436.472ZM255.291 435.142C255.562 435.142 255.8 435.095 256.005 435.002C256.22 434.899 256.402 434.759 256.551 434.582C256.71 434.395 256.831 434.19 256.915 433.966C256.999 433.742 257.055 433.504 257.083 433.252V433.224H255.529C255.202 433.224 254.932 433.266 254.717 433.35C254.502 433.424 254.348 433.536 254.255 433.686C254.162 433.835 254.115 434.008 254.115 434.204C254.115 434.4 254.162 434.568 254.255 434.708C254.348 434.848 254.484 434.955 254.661 435.03C254.838 435.104 255.048 435.142 255.291 435.142ZM260.6 436.304V429.248H262.098L262.252 430.564C262.42 430.256 262.63 429.994 262.882 429.78C263.134 429.556 263.428 429.383 263.764 429.262C264.109 429.14 264.487 429.08 264.898 429.08V430.858H264.31C264.03 430.858 263.764 430.895 263.512 430.97C263.26 431.035 263.041 431.147 262.854 431.306C262.677 431.455 262.537 431.665 262.434 431.936C262.331 432.197 262.28 432.528 262.28 432.93V436.304H260.6Z" fill="#F9FAFB"/>
</g>
<circle cx="36.7115" cy="265.341" r="9.8414" fill="#F9FAFB" stroke="#E11D48" stroke-width="3"/>
<path fill-rule="evenodd" clip-rule="evenodd" d="M34.0883 282.226C35.2312 280.168 38.1912 280.168 39.334 282.226L41.1142 285.432C41.2156 285.615 41.2957 285.802 41.3558 285.99C41.5294 286.534 41.9698 287.024 42.5406 287.024H60.7114C64.0251 287.024 66.7114 289.71 66.7114 293.024V312.783C66.7114 316.097 64.0251 318.783 60.7114 318.783H12.7114C9.39772 318.783 6.71143 316.097 6.71143 312.783V293.024C6.71143 289.71 9.39772 287.024 12.7114 287.024H30.8818C31.4525 287.024 31.8929 286.534 32.0665 285.99C32.1266 285.802 32.2067 285.615 32.3082 285.432L34.0883 282.226Z" fill="#F43F5E"/>
<path d="M25.8516 306.783V296.703H27.5316V300.819C27.7649 300.437 28.0822 300.133 28.4836 299.909C28.8849 299.676 29.3376 299.559 29.8416 299.559C30.4202 299.559 30.9102 299.681 31.3116 299.923C31.7129 300.157 32.0162 300.507 32.2216 300.973C32.4362 301.431 32.5436 302.005 32.5436 302.695V306.783H30.8776V302.849C30.8776 302.243 30.7469 301.781 30.4856 301.463C30.2336 301.146 29.8462 300.987 29.3236 300.987C28.9876 300.987 28.6842 301.071 28.4136 301.239C28.1429 301.398 27.9282 301.631 27.7696 301.939C27.6109 302.238 27.5316 302.607 27.5316 303.045V306.783H25.8516ZM37.6181 306.951C36.9461 306.951 36.3395 306.797 35.7981 306.489C35.2661 306.172 34.8461 305.738 34.5381 305.187C34.2395 304.627 34.0901 303.988 34.0901 303.269C34.0901 302.532 34.2441 301.888 34.5521 301.337C34.8601 300.777 35.2801 300.343 35.8121 300.035C36.3535 299.718 36.9601 299.559 37.6321 299.559C38.3041 299.559 38.9061 299.718 39.4381 300.035C39.9795 300.343 40.3995 300.773 40.6981 301.323C41.0061 301.874 41.1601 302.518 41.1601 303.255C41.1601 303.993 41.0061 304.637 40.6981 305.187C40.3901 305.738 39.9655 306.172 39.4241 306.489C38.8921 306.797 38.2901 306.951 37.6181 306.951ZM37.6181 305.509C37.9541 305.509 38.2575 305.425 38.5281 305.257C38.8081 305.089 39.0321 304.837 39.2001 304.501C39.3681 304.165 39.4521 303.75 39.4521 303.255C39.4521 302.761 39.3681 302.35 39.2001 302.023C39.0415 301.687 38.8221 301.435 38.5421 301.267C38.2715 301.099 37.9681 301.015 37.6321 301.015C37.3055 301.015 37.0021 301.099 36.7221 301.267C36.4421 301.435 36.2181 301.687 36.0501 302.023C35.8821 302.35 35.7981 302.761 35.7981 303.255C35.7981 303.75 35.8821 304.165 36.0501 304.501C36.2181 304.837 36.4375 305.089 36.7081 305.257C36.9881 305.425 37.2915 305.509 37.6181 305.509ZM43.0435 309.863L44.7655 305.999H44.3455L41.5315 299.727H43.3655L45.4655 304.515L47.4535 299.727H49.2315L44.8215 309.863H43.0435Z" fill="white"/>
<circle cx="342.997" cy="40.3414" r="9.8414" fill="#F9FAFB" stroke="#3781FA" stroke-width="3"/>
<defs>
<filter id="filter0_d_8505_575" x="128.844" y="422.354" width="143.854" height="25.9179" filterUnits="userSpaceOnUse" color-interpolation-filters="sRGB">
<feFlood flood-opacity="0" result="BackgroundImageFix"/>
<feColorMatrix in="SourceAlpha" type="matrix" values="0 0 0 0 0 0 0 0 0 0 0 0 0 0 0 0 0 0 127 0" result="hardAlpha"/>
<feOffset dy="4"/>
<feGaussianBlur stdDeviation="3.9"/>
<feComposite in2="hardAlpha" operator="out"/>
<feColorMatrix type="matrix" values="0 0 0 0 0 0 0 0 0 0 0 0 0 0 0 0 0 0 0.25 0"/>
<feBlend mode="normal" in2="BackgroundImageFix" result="effect1_dropShadow_8505_575"/>
<feBlend mode="normal" in="SourceGraphic" in2="effect1_dropShadow_8505_575" result="shape"/>
</filter>
<linearGradient id="paint0_linear_8505_575" x1="325.592" y1="31.3562" x2="-57.2862" y2="187.872" gradientUnits="userSpaceOnUse">
<stop stop-color="#3781FA"/>
<stop offset="1" stop-color="#F43F5E"/>
</linearGradient>
<linearGradient id="paint1_linear_8505_575" x1="201" y1="-4.24347e-07" x2="201" y2="456.77" gradientUnits="userSpaceOnUse">
<stop offset="0.604825" stop-opacity="0"/>
<stop offset="1" stop-color="#141414"/>
</linearGradient>
<linearGradient id="paint2_linear_8505_575" x1="378.855" y1="83.0357" x2="-42.101" y2="281.374" gradientUnits="userSpaceOnUse">
<stop stop-color="#B0B0B0"/>
<stop offset="0.101032" stop-color="#3781FA"/>
<stop offset="0.248663" stop-color="#3781FA"/>
<stop offset="1" stop-color="#F43F5E"/>
</linearGradient>
</defs>
</svg>
