<svg width="20" height="24" viewBox="0 0 20 24" fill="none" xmlns="http://www.w3.org/2000/svg">
<g clip-path="url(#clip0_23945_4696)">
<path d="M7.78756 9.44916V8.51244C7.48439 8.4685 7.17668 8.44141 6.86272 8.44141C3.0788 8.44141 0 11.7061 0 15.719C0 18.1812 1.15987 20.3598 2.93006 21.677C1.78778 20.3767 1.0872 18.6351 1.0872 16.7219C1.0872 12.7668 4.07857 9.54126 7.78812 9.44916H7.78756Z" fill="#25F4EE"/>
<path d="M7.9488 20.0467C9.63723 20.0467 11.0145 18.6223 11.077 16.8482L11.0832 1.00354H13.8129C13.7561 0.677854 13.7249 0.343141 13.7249 0H9.9966L9.99035 15.8447C9.9279 17.6188 8.55059 19.0431 6.86216 19.0431C6.33758 19.0431 5.84308 18.9041 5.4082 18.6614C5.97764 19.4988 6.90304 20.0467 7.9488 20.0467ZM18.9122 6.38122V5.50049C17.871 5.50049 16.9008 5.1724 16.0872 4.60953C16.8116 5.49146 17.7955 6.12777 18.9122 6.38122Z" fill="#25F4EE"/>
<path d="M16.0886 4.6105C15.2949 3.64429 14.8129 2.38309 14.8129 1.00391H13.8142C14.0771 2.51011 14.9202 3.80261 16.0886 4.6105ZM6.86295 12.3974C5.13478 12.3974 3.72852 13.8885 3.72852 15.721C3.72852 16.9973 4.4115 18.1062 5.409 18.6624C5.03713 18.1158 4.81572 17.4476 4.81572 16.724C4.81572 14.8915 6.22199 13.4003 7.95016 13.4003C8.27263 13.4003 8.58204 13.4569 8.87499 13.5538V9.51741C8.57182 9.47347 8.26411 9.44638 7.95016 9.44638C7.89566 9.44638 7.84229 9.44939 7.78835 9.45059V12.5503C7.49541 12.4534 7.18599 12.3968 6.86352 12.3968L6.86295 12.3974Z" fill="#FE2C55"/>
<path d="M18.913 6.38281V9.45543C16.9799 9.45543 15.1881 8.79985 13.7256 7.68675V15.7217C13.7256 19.7346 10.6468 22.9987 6.86292 22.9987C5.40045 22.9987 4.04471 22.5098 2.92969 21.6797C4.18324 23.107 5.96932 24.0016 7.94956 24.0016C11.734 24.0016 14.8123 20.7369 14.8123 16.7246V8.69028C16.2748 9.80339 18.0665 10.459 19.9996 10.459V6.50502C19.6266 6.50502 19.2633 6.46228 18.913 6.38281Z" fill="#FE2C55"/>
<path d="M13.7247 15.721V7.68612C15.1872 8.79923 16.979 9.4548 18.9121 9.4548V6.38219C17.7954 6.12875 16.8115 5.49303 16.0871 4.6105C14.9187 3.80261 14.0756 2.51072 13.8127 1.00391H11.0831L11.0769 16.8486C11.0144 18.6227 9.63709 20.047 7.94866 20.047C6.9029 20.047 5.9775 19.4992 5.40807 18.6618C4.41057 18.105 3.72759 16.9961 3.72759 15.7204C3.72759 13.8879 5.13385 12.3968 6.86202 12.3968C7.1845 12.3968 7.49391 12.4534 7.78686 12.5503V9.45059C4.07731 9.5427 1.08594 12.7682 1.08594 16.7234C1.08594 18.6365 1.78652 20.3781 2.92879 21.6784C4.04324 22.508 5.39955 22.9974 6.86202 22.9974C10.6459 22.9974 13.7247 19.7328 13.7247 15.7204V15.721Z" fill="white"/>
</g>
<defs>
<clipPath id="clip0_23945_4696">
<rect width="20" height="24" fill="white"/>
</clipPath>
</defs>
</svg>
