<svg width="44" height="44" viewBox="0 0 44 44" fill="none" xmlns="http://www.w3.org/2000/svg">
<g clip-path="url(#clip0_22180_3804)">
<path d="M1.83301 29.833C2.56886 29.833 3.16699 30.4311 3.16699 31.167V34.833C3.16699 38.1415 5.85852 40.833 9.16699 40.833H12.833C13.5689 40.833 14.167 41.4311 14.167 42.167C14.1668 42.9027 13.5688 43.5 12.833 43.5H9.16699C4.38864 43.5 0.5 39.6114 0.5 34.833V31.167C0.5 30.4312 1.0973 29.8332 1.83301 29.833ZM42.167 29.833C42.9027 29.8332 43.5 30.4312 43.5 31.167V34.833C43.5 39.6114 39.6114 43.5 34.833 43.5H31.167C30.4312 43.5 29.8332 42.9027 29.833 42.167C29.833 41.4311 30.4311 40.833 31.167 40.833H34.833C38.1415 40.833 40.833 38.1415 40.833 34.833V31.167C40.833 30.4311 41.4311 29.833 42.167 29.833ZM9.16699 0.5H12.833C13.5688 0.5 14.1668 1.0973 14.167 1.83301C14.167 2.56887 13.5689 3.16699 12.833 3.16699H9.16699C5.85852 3.16699 3.16699 5.85852 3.16699 9.16699V12.833C3.16699 13.5689 2.56887 14.167 1.83301 14.167C1.0973 14.1668 0.5 13.5688 0.5 12.833V9.16699C0.5 4.38863 4.38863 0.5 9.16699 0.5ZM31.167 0.5H34.833C39.6114 0.5 43.5 4.38864 43.5 9.16699V12.833C43.5 13.5688 42.9027 14.1668 42.167 14.167C41.4311 14.167 40.833 13.5689 40.833 12.833V9.16699C40.833 5.85852 38.1415 3.16699 34.833 3.16699H31.167C30.4311 3.16699 29.833 2.56886 29.833 1.83301C29.8332 1.0973 30.4312 0.5 31.167 0.5Z" fill="#F9FAFB" stroke="#292929"/>
<g clip-path="url(#clip1_22180_3804)">
<path d="M18.334 17.4167C18.334 18.3891 18.7203 19.3218 19.4079 20.0094C20.0956 20.697 21.0282 21.0833 22.0007 21.0833C22.9731 21.0833 23.9057 20.697 24.5934 20.0094C25.281 19.3218 25.6673 18.3891 25.6673 17.4167C25.6673 16.4442 25.281 15.5116 24.5934 14.8239C23.9057 14.1363 22.9731 13.75 22.0007 13.75C21.0282 13.75 20.0956 14.1363 19.4079 14.8239C18.7203 15.5116 18.334 16.4442 18.334 17.4167Z" stroke="#F9FAFB" stroke-linecap="round" stroke-linejoin="round"/>
<path d="M16.5 30.25V28.4167C16.5 27.4442 16.8863 26.5116 17.5739 25.8239C18.2616 25.1363 19.1942 24.75 20.1667 24.75H23.8333C24.8058 24.75 25.7384 25.1363 26.4261 25.8239C27.1137 26.5116 27.5 27.4442 27.5 28.4167V30.25" stroke="#F9FAFB" stroke-linecap="round" stroke-linejoin="round"/>
</g>
</g>
<defs>
<clipPath id="clip0_22180_3804">
<rect width="44" height="44" fill="white"/>
</clipPath>
<clipPath id="clip1_22180_3804">
<rect width="22" height="22" fill="white" transform="translate(11 11)"/>
</clipPath>
</defs>
</svg>
