<svg fill="none" height="55" viewBox="0 0 56 55" width="56" xmlns="http://www.w3.org/2000/svg">
    <path
        d="M28.0007 29.7917V20.625M49.0007 13.75L44.334 9.16671M23.334 4.58337H32.6673M28.0007 48.125C23.0499 48.125 18.302 46.1935 14.8013 42.7553C11.3006 39.3172 9.33398 34.654 9.33398 29.7917C9.33398 24.9294 11.3006 20.2663 14.8013 16.8281C18.302 13.3899 23.0499 11.4584 28.0007 11.4584C32.9514 11.4584 37.6993 13.3899 41.2 16.8281C44.7007 20.2663 46.6673 24.9294 46.6673 29.7917C46.6673 34.654 44.7007 39.3172 41.2 42.7553C37.6993 46.1935 32.9514 48.125 28.0007 48.125Z"
        stroke="white" stroke-linecap="round" stroke-linejoin="round" stroke-width="4" />
</svg>
