<svg fill="none" height="55" viewBox="0 0 55 55" width="55" xmlns="http://www.w3.org/2000/svg">
    <path
        d="M10.4294 15.7288C10.466 14.2151 11.3231 12.8608 12.8265 12.6854C13.2596 12.6362 13.7569 12.6041 14.3229 12.6041C14.889 12.6041 15.3862 12.6362 15.8194 12.6866C17.3239 12.8608 18.1798 14.2151 18.2165 15.7288C18.2703 17.9563 18.3333 21.7902 18.3333 27.4999C18.3333 33.2096 18.2703 37.0436 18.2165 39.2711C18.1798 40.7847 17.3227 42.1391 15.8194 42.3144C15.3862 42.3637 14.889 42.3958 14.3229 42.3958C13.7569 42.3958 13.2596 42.3637 12.8265 42.3144C11.322 42.1391 10.466 40.7847 10.4294 39.2711C10.3755 37.0436 10.3125 33.2096 10.3125 27.4999C10.3125 21.7902 10.3755 17.9563 10.4294 15.7288ZM44.5706 15.7288C44.534 14.2151 43.6769 12.8608 42.1735 12.6854C41.7404 12.6362 41.2431 12.6041 40.6771 12.6041C40.111 12.6041 39.6138 12.6362 39.1806 12.6866C37.6761 12.8608 36.8202 14.2151 36.7835 15.7288C36.7297 17.9563 36.6667 21.7902 36.6667 27.4999C36.6667 33.2096 36.7297 37.0436 36.7835 39.2711C36.8202 40.7847 37.6773 42.1391 39.1806 42.3144C39.6138 42.3637 40.111 42.3958 40.6771 42.3958C41.2431 42.3958 41.7404 42.3637 42.1735 42.3144C43.678 42.1391 44.534 40.7847 44.5706 39.2711C44.6245 37.0436 44.6875 33.2096 44.6875 27.4999C44.6875 21.7902 44.6245 17.9563 44.5706 15.7288Z"
        stroke="white" stroke-linecap="round" stroke-linejoin="round" stroke-width="2.6875" />
    <path
        d="M18.3253 30.9168C24.4417 30.9497 30.5583 30.9447 36.6747 30.9019M36.6735 24.0968C33.9075 24.0773 30.486 24.0624 26.353 24.0624C23.2959 24.0624 20.6261 24.0704 18.3242 24.083M3.50052 21.545C3.54177 19.8377 4.62802 18.3963 6.33531 18.3413C6.69502 18.33 7.05498 18.33 7.41469 18.3413C9.12198 18.3963 10.2082 19.8366 10.2495 21.545C10.2839 22.9464 10.3125 24.9092 10.3125 27.4999C10.3125 30.0906 10.2827 32.0535 10.2495 33.4548C10.2082 35.1621 9.12198 36.6036 7.41469 36.6586C7.05498 36.6699 6.69502 36.6699 6.33531 36.6586C4.62802 36.6036 3.54177 35.1632 3.50052 33.4548C3.46615 32.0535 3.4375 30.0906 3.4375 27.4999C3.4375 24.9092 3.46729 22.9464 3.50052 21.545ZM51.4995 21.545C51.4582 19.8377 50.372 18.3963 48.6647 18.3413C48.305 18.33 47.945 18.33 47.5853 18.3413C45.878 18.3963 44.7918 19.8366 44.7505 21.545C44.7161 22.9464 44.6875 24.9092 44.6875 27.4999C44.6875 30.0906 44.7173 32.0535 44.7505 33.4548C44.7918 35.1621 45.878 36.6036 47.5853 36.6586C47.945 36.6699 48.305 36.6699 48.6647 36.6586C50.372 36.6036 51.4582 35.1632 51.4995 33.4548C51.5339 32.0535 51.5625 30.0906 51.5625 27.4999C51.5625 24.9092 51.5327 22.9464 51.4995 21.545Z"
        stroke="white" stroke-linecap="round" stroke-linejoin="round" stroke-width="2.6875" />
</svg>
