<svg width="41" height="40" viewBox="0 0 41 40" fill="none" xmlns="http://www.w3.org/2000/svg">
<path d="M19.9753 1.42384e-10C20.2387 -4.36003e-08 20.5021 -4.30199e-08 20.7919 0.0164321C21.1051 0.0964536 21.3919 0.160043 21.6907 0.233337C21.9302 0.359127 22.1578 0.475212 22.391 0.599978C22.4254 0.626231 22.4541 0.643804 22.4918 0.674498C22.6783 0.8419 22.8558 0.99618 23.038 1.16349C23.0989 1.23692 23.1551 1.29733 23.2154 1.3721C23.5273 1.76823 23.7106 2.21189 23.8582 2.68726C23.8623 2.72005 23.8677 2.73824 23.8725 2.77058C23.8836 2.81968 23.8954 2.85462 23.906 2.90605C23.9106 2.9548 23.9164 2.98708 23.9209 3.03339C23.9301 3.08229 23.9405 3.11716 23.9477 3.16806C23.9481 3.21626 23.9516 3.24842 23.9515 3.30076C23.9394 3.5696 23.9308 3.81826 23.9166 4.08383C23.8792 4.26346 23.8475 4.42618 23.8041 4.5992C23.6426 5.09149 23.3818 5.51127 23.0586 5.90254C23.0367 5.91085 23.0315 5.9215 23.0201 5.94275C22.6391 6.36307 22.1784 6.64103 21.662 6.86245C21.482 6.91153 21.3189 6.96069 21.1373 7.00951C20.8837 7.03713 20.6484 7.0651 20.3937 7.08961C20.1691 7.06975 19.964 7.05335 19.7459 7.02699C19.5076 6.95404 19.2824 6.89104 19.0445 6.81912C18.8623 6.72348 18.6927 6.63676 18.5159 6.53832C18.4913 6.52152 18.4738 6.51646 18.449 6.49832C18.2538 6.33577 18.066 6.18628 17.8731 6.02285C17.7995 5.93533 17.731 5.86176 17.6592 5.77468C17.4646 5.42996 17.2732 5.09874 17.0806 4.75094C16.9098 4.2642 16.8544 3.77752 16.8737 3.26357C16.915 3.03959 16.952 2.83271 16.9956 2.61018C17.1927 2.20129 17.3833 1.80803 17.5862 1.40618C17.6917 1.28183 17.7848 1.16609 17.8913 1.04469C18.0302 0.928237 18.1557 0.817447 18.2952 0.702443C18.3806 0.644208 18.4519 0.590184 18.5365 0.531561C18.7189 0.437523 18.8879 0.348084 19.0735 0.258081C19.3851 0.171678 19.6802 0.0858388 19.9753 1.42384e-10Z" fill="#7C8288"/>
<path d="M-6.10352e-05 9.55593C-6.10352e-05 9.12494 -6.10352e-05 8.69395 0.0171318 8.24616C0.207447 8.22738 0.380568 8.22542 0.570704 8.22575C0.760342 8.22651 0.932966 8.22499 1.12263 8.22622C1.31311 8.22714 1.48654 8.2253 1.67698 8.22575C1.86662 8.22651 2.03924 8.22499 2.22891 8.22622C2.41938 8.22714 2.59281 8.2253 2.78326 8.22575C2.97289 8.22652 3.14552 8.22499 3.33519 8.22622C3.52566 8.22714 3.6991 8.2253 3.88949 8.22575C4.05051 8.22804 4.19459 8.22804 4.32249 8.22804C4.34485 8.4705 4.36438 8.68237 4.3826 8.90658C4.38566 8.93483 4.39001 8.95075 4.39282 8.9785C4.40111 9.01979 4.41096 9.04924 4.4201 9.09239C4.44675 9.1824 4.47411 9.25872 4.50185 9.3488C4.52691 9.42219 4.55159 9.48181 4.57932 9.54879C4.52063 9.5534 4.47315 9.55714 4.40867 9.55814C4.2304 9.55807 4.06913 9.56075 3.89094 9.56042C3.68914 9.55857 3.50427 9.55972 3.3024 9.55814C3.12413 9.55807 2.96286 9.56075 2.78466 9.56042C2.58286 9.55857 2.39799 9.55972 2.19612 9.55814C2.01785 9.55807 1.85658 9.56075 1.67838 9.56042C1.47659 9.55857 1.29171 9.55972 1.08984 9.55814C0.911572 9.55807 0.750302 9.56075 0.572104 9.56042C0.370098 9.55692 0.185019 9.55643 -6.10352e-05 9.55593Z" fill="#7C8288"/>
<path d="M40.062 8.22828C40.062 8.65931 40.062 9.09034 40.0448 9.53821C39.8667 9.55784 39.7058 9.56063 39.5279 9.56043C39.326 9.55858 39.1411 9.55973 38.9392 9.55815C38.7609 9.55808 38.5996 9.56075 38.4214 9.56042C38.2196 9.55858 38.0347 9.55973 37.8328 9.55815C37.6545 9.55808 37.4933 9.56075 37.315 9.56042C37.1132 9.55858 36.9283 9.55973 36.7264 9.55815C36.5482 9.55808 36.3869 9.56075 36.2087 9.56042C36.0068 9.55858 35.8219 9.55973 35.623 9.55803C35.5848 9.53087 35.5382 9.50342 35.5411 9.48289C35.5482 9.43167 35.5779 9.38359 35.6087 9.32547C35.76 8.96848 35.7923 8.60267 35.8109 8.23127C35.9482 8.22775 36.0693 8.22496 36.2073 8.22501C36.3969 8.22634 36.5695 8.22483 36.7592 8.22609C36.9497 8.22702 37.1232 8.22517 37.3136 8.22563C37.5033 8.22639 37.6759 8.22486 37.8656 8.22609C38.0561 8.22702 38.2296 8.22517 38.42 8.22563C38.6097 8.22639 38.7823 8.22486 38.972 8.2261C39.1625 8.22702 39.336 8.22517 39.5264 8.22563C39.7163 8.22804 39.8891 8.22816 40.062 8.22828Z" fill="#7C8288"/>
<path d="M19.7438 8.213C19.9767 8.21149 20.1887 8.21337 20.4216 8.21243C20.6554 8.21187 20.8683 8.21413 21.1022 8.213C21.3351 8.21149 21.5471 8.21337 21.78 8.21243C22.0138 8.21187 22.2268 8.21413 22.4815 8.21582C22.7353 8.21337 22.9473 8.21149 23.1802 8.213C23.4141 8.21413 23.627 8.21187 23.8609 8.21243C24.0937 8.21337 24.3057 8.21149 24.5386 8.213C24.7725 8.21413 24.9854 8.21187 25.2193 8.21243C25.4521 8.21337 25.6641 8.21149 25.897 8.213C26.1309 8.21413 26.3438 8.21187 26.5777 8.21243C26.8105 8.21337 27.0225 8.21149 27.2554 8.213C27.4893 8.21413 27.7022 8.21187 27.9361 8.21243C28.1689 8.21337 28.3809 8.21149 28.6138 8.213C28.8477 8.21413 29.0607 8.21187 29.2945 8.21243C29.5274 8.21337 29.7393 8.21149 29.9722 8.213C30.2061 8.21413 30.4191 8.21187 30.6504 8.21241C30.8103 8.23807 30.9 8.19661 30.9578 8.04877C31.0273 7.87101 31.1311 7.70667 31.2308 7.529C31.2658 7.48582 31.2901 7.45015 31.3282 7.40717C31.393 7.34519 31.4415 7.28782 31.4956 7.2363C31.8255 6.92187 32.2339 6.83393 32.6746 6.83106C32.6775 6.82915 32.6842 6.82711 32.6945 6.84072C32.9187 6.94721 33.1328 7.0401 33.3525 7.14512C33.3874 7.17741 33.4165 7.19756 33.4516 7.22988C33.4971 7.27745 33.5367 7.31286 33.5816 7.36089C33.6128 7.39769 33.6387 7.42187 33.669 7.45907C33.7012 7.50753 33.729 7.54297 33.7596 7.59479C33.9626 7.98031 34.0458 8.37028 33.9088 8.77531C33.8162 9.04897 33.6832 9.30897 33.5571 9.58571C33.3548 9.9995 33.1636 10.4026 32.9596 10.8168C32.7162 11.3158 32.4857 11.8038 32.244 12.3025C32.1673 12.4569 32.1017 12.6006 32.0248 12.7537C31.9904 12.8171 31.9673 12.8709 31.9318 12.9348C31.833 13.1378 31.7467 13.3309 31.6476 13.5353C31.406 14.0337 31.177 14.5207 30.9361 15.0167C30.9024 15.0803 30.8807 15.1348 30.8473 15.1992C30.7993 15.2926 30.763 15.3762 30.7173 15.4723C30.6793 15.5508 30.6506 15.6167 30.6117 15.6897C30.5943 15.7203 30.5871 15.7438 30.5672 15.7763C30.2902 16.2282 29.9424 16.3975 29.4491 16.2665C29.1956 16.1991 28.9626 16.0548 28.7093 15.9324C28.2123 15.6732 27.7263 15.4268 27.2316 15.1678C26.9403 15.0154 26.6577 14.8755 26.3673 14.7251C26.3354 14.7062 26.3111 14.6981 26.2769 14.6785C26.1668 14.6171 26.0667 14.5672 25.9535 14.5077C25.4754 14.256 25.0103 14.0138 24.5259 13.7615C24.5259 13.9724 24.5259 14.15 24.522 14.3485C24.5203 14.5824 24.5224 14.7954 24.5217 15.0294C24.5212 15.2622 24.5236 15.4741 24.522 15.7069C24.5203 15.9408 24.5224 16.1538 24.5217 16.3878C24.5212 16.6206 24.5236 16.8325 24.522 17.0653C24.5203 17.2992 24.5224 17.5123 24.5217 17.7462C24.5212 17.979 24.5236 18.1909 24.522 18.4237C24.5203 18.6576 24.5224 18.8707 24.5217 19.1046C24.5212 19.3374 24.5236 19.5493 24.522 19.7821C24.5203 20.016 24.5224 20.2291 24.5217 20.463C24.5212 20.6958 24.5236 20.9077 24.5223 21.1349C24.521 21.1707 24.5233 21.1912 24.5238 21.2293C24.7246 21.8564 24.927 22.466 25.1323 23.0924C25.1693 23.2018 25.2035 23.2945 25.2368 23.4039C25.2701 23.5146 25.3042 23.6084 25.3392 23.7192C25.4405 24.028 25.541 24.3198 25.6424 24.629C25.7041 24.8179 25.765 24.9893 25.8265 25.1763C25.8437 25.2384 25.8602 25.2851 25.8767 25.3492C25.937 25.5362 25.9974 25.7056 26.0583 25.8926C26.2077 26.352 26.3566 26.7939 26.5041 27.2518C26.5221 27.317 26.5415 27.3661 26.5613 27.4306C26.5882 27.5119 26.6148 27.5777 26.6403 27.6596C26.6671 27.7538 26.695 27.8318 26.7267 27.9276C26.8081 28.191 26.8858 28.4367 26.9625 28.695C26.9659 28.7403 26.9702 28.773 26.9736 28.8245C26.9802 28.8669 26.9876 28.8907 26.9922 28.9328C26.9941 29.0115 26.9989 29.072 26.9943 29.1478C26.919 29.4253 26.8532 29.6874 26.7782 29.9617C26.7281 30.042 26.6872 30.1102 26.6343 30.1875C26.4956 30.3411 26.3688 30.4857 26.229 30.638C26.1033 30.7621 25.9905 30.8783 25.8633 30.9991C25.7536 31.1056 25.6582 31.2075 25.5498 31.3172C25.4241 31.4413 25.3113 31.5575 25.1841 31.6783C25.0744 31.7848 24.979 31.8867 24.8706 31.9964C24.7449 32.1205 24.6321 32.2367 24.5049 32.3575C24.3952 32.464 24.2998 32.5659 24.1914 32.6756C24.0657 32.7997 23.9529 32.9159 23.8257 33.0367C23.716 33.1432 23.6206 33.2451 23.5122 33.3548C23.3865 33.4792 23.2737 33.5958 23.1464 33.7172C23.0598 33.803 22.9878 33.8839 22.9023 33.9799C22.7599 33.7383 22.637 33.5298 22.5076 33.3067C22.3629 33.054 22.2247 32.816 22.0848 32.5636C22.0063 32.419 21.9295 32.2888 21.8489 32.1432C21.7896 32.0362 21.7341 31.9446 21.6767 31.8388C21.5748 31.6503 21.4749 31.476 21.3688 31.2864C21.2843 31.1423 21.2059 31.0135 21.1274 30.873C21.1142 30.8431 21.1011 30.8249 21.0857 30.7936C21.066 30.7603 21.0487 30.7402 21.0309 30.7068C21.0158 30.6721 21.0012 30.6507 20.9841 30.6138C20.8812 30.4883 20.9126 30.406 21.008 30.2986C21.4917 29.7539 21.9651 29.2001 22.4545 28.6432C22.4873 28.6071 22.5075 28.5772 22.5421 28.5394C22.6856 28.4198 22.6036 28.3228 22.5342 28.2091C22.4991 28.1297 22.4649 28.0661 22.43 27.9862C22.2841 27.669 22.1387 27.3681 21.9946 27.0522C21.9482 26.9482 21.9004 26.8592 21.8513 26.754C21.792 26.6211 21.7342 26.5046 21.6776 26.3726C21.599 26.1964 21.5192 26.0357 21.4385 25.8584C21.2221 25.3854 21.0068 24.9292 20.7887 24.4571C20.6782 24.2105 20.5703 23.9796 20.4344 23.6886C20.3193 24.218 20.2183 24.6822 20.1046 25.1581C20.0417 25.4023 19.9915 25.6347 19.9298 25.8806C19.8954 26.0227 19.8723 26.1514 19.8407 26.2896C19.827 26.3235 19.8219 26.3478 19.8118 26.3865C19.8058 26.4208 19.8049 26.4409 19.7941 26.4743C19.7516 26.6304 19.7191 26.7732 19.6802 26.9325C19.5567 27.4512 19.4396 27.9532 19.3176 28.4666C19.3136 28.4861 19.3147 28.4944 19.3077 28.5178C19.2443 28.7789 19.1888 29.0247 19.1247 29.2856C19.0578 29.5484 19.013 29.8006 18.9365 30.0427C18.8831 30.2117 18.9254 30.3326 19.0423 30.4625C19.0999 30.568 19.1555 30.6578 19.2132 30.7625C19.3191 30.9558 19.4228 31.1341 19.5294 31.3281C19.5901 31.4398 19.648 31.5359 19.7093 31.6477C19.7767 31.7717 19.8407 31.8801 19.9064 32.0041C20.188 32.5042 20.4678 32.9886 20.752 33.487C20.8516 33.6644 20.947 33.8279 21.048 34.0082C21.0721 34.0549 21.0906 34.0847 21.1112 34.1288C21.2236 34.3305 21.3339 34.5179 21.446 34.721C21.5782 34.9549 21.7088 35.173 21.8419 35.4071C22.1126 35.8924 22.3807 36.3619 22.6508 36.8458C22.7323 37.0473 22.8117 37.2345 22.8907 37.4408C22.9086 37.6882 22.9268 37.9165 22.9396 38.1627C22.8856 38.3788 22.8369 38.5771 22.7883 38.7754C22.5697 39.2142 22.2764 39.5826 21.812 39.8107C21.6469 39.8676 21.4917 39.9125 21.3197 39.963C20.9091 40.0428 20.5292 39.9893 20.1431 39.8409C20.0178 39.771 19.9088 39.7042 19.7844 39.6333C19.6717 39.543 19.5744 39.457 19.4591 39.349C19.3378 39.2044 19.2345 39.0817 19.1278 38.9432C19.0702 38.8333 19.016 38.7392 18.9603 38.6308C18.8928 38.5048 18.8268 38.393 18.7593 38.2673C18.7314 38.2159 18.7052 38.1784 18.678 38.1295C18.6725 38.1121 18.6678 38.106 18.6579 38.0857C18.5701 37.9303 18.4876 37.7892 18.4043 37.6335C18.3637 37.554 18.3239 37.4892 18.2801 37.4081C18.0168 36.934 17.7578 36.4762 17.4979 36.0022C17.3146 35.6644 17.1321 35.3428 16.9481 35.0071C16.9202 34.9557 16.8939 34.9182 16.8667 34.8678C16.8506 34.8351 16.8354 34.8152 16.8183 34.7792C16.6667 34.5026 16.5171 34.2421 16.3662 33.9655C16.2341 33.721 16.1032 33.4926 15.9681 33.2502C15.8879 33.1057 15.8119 32.9753 15.7333 32.8301C15.6905 32.7488 15.6502 32.6823 15.6081 32.6028C15.5918 32.5692 15.5774 32.5487 15.559 32.5125C15.526 32.4526 15.4968 32.4083 15.4664 32.3501C15.4318 32.2802 15.3983 32.2244 15.3635 32.1548C15.3353 32.1047 15.3085 32.0682 15.2815 32.0194C15.2766 32.0005 15.2719 31.9938 15.2619 31.9728C15.1741 31.8174 15.0916 31.6763 15.0079 31.5193C14.9643 31.4199 14.9219 31.3365 14.8784 31.2351C14.8438 31.0215 14.8104 30.8258 14.781 30.6116C14.7907 30.5178 14.7966 30.4425 14.8099 30.3566C14.817 30.3201 14.8166 30.2943 14.8221 30.2514C14.8417 30.1394 14.8554 30.0445 14.8772 29.9337C14.9242 29.6874 14.9631 29.457 15.007 29.2123C15.013 29.1778 15.0139 29.1577 15.0241 29.1263C15.0379 29.0767 15.0426 29.0385 15.0527 28.984C15.0588 28.9337 15.0595 28.8997 15.0711 28.8513C15.0989 28.7271 15.1156 28.6174 15.1388 28.4924C15.1747 28.2887 15.2041 28.1003 15.2412 27.8964C15.3012 27.5899 15.3534 27.2988 15.4113 26.99C15.4338 26.8489 15.4507 26.7255 15.4782 26.5882C15.5363 26.2964 15.5838 26.0184 15.6372 25.7231C15.6601 25.5971 15.677 25.4884 15.7042 25.3656C15.7332 25.2243 15.752 25.0971 15.7762 24.9534C15.7848 24.9033 15.788 24.8697 15.7982 24.8227C15.8069 24.7897 15.8086 24.7701 15.8164 24.7352C15.8947 24.3053 15.9671 23.8907 16.0452 23.4588C16.0644 23.3469 16.078 23.2522 16.0998 23.1416C16.1463 22.9105 16.1846 22.6953 16.2275 22.462C16.2641 22.2452 16.296 22.0464 16.3382 21.8333C16.3827 21.393 16.4444 20.9672 16.4465 20.5411C16.4574 18.3468 16.4532 16.1524 16.4532 13.9581C16.4532 13.9257 16.4392 13.8933 16.4279 13.8448C16.3818 13.8789 16.3525 13.9006 16.3069 13.9232C15.8636 14.1494 15.4366 14.3747 14.9933 14.6018C14.4397 14.8875 13.9025 15.1714 13.3497 15.4556C13.225 15.5159 13.1159 15.5759 12.991 15.6382C12.9291 15.6668 12.8831 15.693 12.8227 15.7209C12.6364 15.816 12.4644 15.9095 12.2761 16.0047C12.0392 16.1203 11.8186 16.2342 11.5797 16.3504C11.3537 16.3527 11.1461 16.3526 10.9321 16.3408C10.9 16.3234 10.8743 16.3177 10.839 16.3002C10.6771 16.1199 10.4959 15.9692 10.3794 15.7788C10.1974 15.4814 10.0592 15.1572 9.90019 14.829C9.70065 14.4094 9.50335 14.0051 9.30414 13.5846C9.08261 13.116 8.86298 12.6637 8.64098 12.1963C8.46225 11.8181 8.28625 11.4549 8.10925 11.0921C8.0738 11.0195 8.03455 10.9487 7.99468 10.8611C7.76817 10.3966 7.54402 9.94795 7.31816 9.48393C7.2362 9.29216 7.15596 9.11575 7.0754 8.92158C7.05778 8.64473 7.04048 8.38563 7.03119 8.11084C7.08908 7.95392 7.13896 7.81269 7.20091 7.65981C7.33798 7.49074 7.46298 7.33332 7.60278 7.1702C7.94454 6.92633 8.33036 6.93549 8.70683 6.90798C8.74081 6.90549 8.77972 6.92313 8.81115 6.94071C9.03147 7.06396 9.25043 7.18966 9.4785 7.32727C9.56321 7.42004 9.63923 7.50011 9.71906 7.59542C9.80654 7.75698 9.90598 7.89685 9.96931 8.05151C10.0284 8.19592 10.1117 8.24483 10.2769 8.21167C10.5096 8.2133 10.7216 8.21145 10.9545 8.213C11.1884 8.21413 11.4013 8.21187 11.6352 8.21243C11.868 8.21337 12.08 8.21149 12.3129 8.213C12.5468 8.21413 12.7597 8.21187 12.9936 8.21243C13.2264 8.21337 13.4384 8.21149 13.6713 8.213C13.9052 8.21413 14.1181 8.21187 14.352 8.21243C14.5849 8.21337 14.7968 8.21149 15.0297 8.213C15.2636 8.21413 15.4766 8.21187 15.7104 8.21243C15.9433 8.21337 16.1552 8.21149 16.3881 8.213C16.622 8.21413 16.835 8.21187 17.0688 8.21243C17.3017 8.21337 17.5137 8.21149 17.7256 8.20961C17.9386 8.21187 18.1515 8.21413 18.3854 8.213C18.6183 8.21149 18.8303 8.21337 19.0632 8.21243C19.297 8.21187 19.5099 8.21413 19.7438 8.213ZM11.1573 10.3643C11.2545 10.554 11.3518 10.7438 11.4581 10.9627C11.6524 11.3466 11.8467 11.7305 12.0505 12.1332C12.2542 11.9653 12.4377 11.8139 12.6508 11.6553C12.7971 11.5382 12.9434 11.421 13.1177 11.296C13.2489 11.1893 13.3802 11.0825 13.54 10.9672C13.608 10.9106 13.676 10.854 13.774 10.7913C14.1646 10.4868 14.5551 10.1823 14.9772 9.85326C14.73 9.85326 14.5297 9.85326 14.2879 9.84631C14.0759 9.84816 13.8639 9.85 13.6102 9.84512C13.4121 9.8484 13.2141 9.85168 12.9745 9.84759C12.7475 9.84901 12.5205 9.85043 12.2518 9.84512C12.0538 9.8484 11.8558 9.85168 11.6161 9.84759C11.3817 9.84759 11.1473 9.84759 10.8809 9.84759C10.9843 10.0357 11.0666 10.1855 11.1573 10.3643ZM27.917 9.84759C27.69 9.84901 27.463 9.85043 27.1943 9.84512C26.9964 9.84824 26.7984 9.85136 26.5593 9.84697C26.372 9.84697 26.1847 9.84697 25.9391 9.84697C26.4089 10.1888 26.8218 10.4891 27.2564 10.8088C27.3193 10.8518 27.3822 10.8947 27.4616 10.9645C27.6129 11.0735 27.7641 11.1825 27.9312 11.3176C28.2566 11.5571 28.582 11.7965 28.9264 12.05C28.9769 11.9346 29.0181 11.8406 29.0838 11.7222C29.328 11.2326 29.5722 10.7429 29.8413 10.2341C29.9042 10.11 29.9671 9.98594 30.0334 9.85497C29.7815 9.85497 29.5492 9.85497 29.2754 9.84759C29.0484 9.84901 28.8214 9.85043 28.5527 9.84512C28.3546 9.8484 28.1566 9.85168 27.917 9.84759Z" fill="#7C8288"/>
</svg>
