<svg width="36" height="36" viewBox="0 0 36 36" fill="none" xmlns="http://www.w3.org/2000/svg">
<g clip-path="url(#clip0_5655_2992)">
<path d="M27.5737 29.5455C28.0093 29.5455 28.3624 29.1925 28.3624 28.7568C28.3624 28.3212 28.0093 27.9682 27.5737 27.9682H26.8408C26.6781 27.2077 26.0008 26.6357 25.1924 26.6357H23.0916V26.239C23.0916 25.0121 22.0934 24.0138 20.8664 24.0138H18.7889V23.092H20.8905C22.1043 23.092 23.0916 22.1045 23.0916 20.891V11.8657C23.0916 10.6521 22.1042 9.66468 20.8905 9.66468H20.5163C20.5471 9.58025 20.564 9.48917 20.564 9.39412C20.564 8.95851 20.2109 8.60543 19.7753 8.60543H16.225C15.7894 8.60543 15.4363 8.95851 15.4363 9.39412C15.4363 9.48917 15.4531 9.58025 15.4839 9.66468H15.1097C13.8959 9.66468 12.9085 10.6521 12.9085 11.8657V20.891C12.9085 22.1046 13.8959 23.0921 15.1097 23.0921H17.2116V24.0138H15.134C13.9069 24.0138 12.9086 25.0121 12.9086 26.2391V26.6358H10.8078C9.99939 26.6358 9.32211 27.2078 9.15947 27.9682H8.42641C7.9908 27.9682 7.63772 28.3213 7.63772 28.7569C7.63772 29.1925 7.9908 29.5456 8.42641 29.5456H9.15947C9.32211 30.3062 9.99939 30.8782 10.8078 30.8782H14.8413V34.4225H13.6972C13.2616 34.4225 12.9085 34.7755 12.9085 35.2111C12.9085 35.6467 13.2616 35.9998 13.6972 35.9998H15.6103C15.6233 36.0002 15.6364 36.0002 15.6496 35.9998H20.3507C20.3573 36 20.3638 36.0001 20.3703 36.0001C20.3769 36.0001 20.3834 36 20.3899 35.9998H22.3029C22.7385 35.9998 23.0915 35.6467 23.0915 35.2111C23.0915 34.7755 22.7385 34.4225 22.3029 34.4225H21.159V30.8782H25.1924C26.0008 30.8782 26.6781 30.3062 26.8407 29.5456L27.5737 29.5455ZM15.1097 21.5146C14.7657 21.5146 14.4859 21.2348 14.4859 20.891V11.8657C14.4859 11.5218 14.7657 11.2421 15.1097 11.2421H20.8905C21.2345 11.2421 21.5142 11.5218 21.5142 11.8657V20.891C21.5142 21.2349 21.2344 21.5147 20.8905 21.5147H15.1097V21.5146ZM14.4859 26.239C14.4859 25.8818 14.7766 25.5911 15.1339 25.5911H20.8664C21.2236 25.5911 21.5142 25.8818 21.5142 26.239V26.6357H19.9428C19.1346 26.6357 18.4574 27.2077 18.2947 27.9682H17.7057C17.543 27.2077 16.8657 26.6357 16.0574 26.6357H14.4859V26.239ZM16.1655 29.1926C16.1655 29.2501 16.115 29.3007 16.0574 29.3007H15.63H10.8078C10.7501 29.3007 10.6997 29.2502 10.6997 29.1926V28.3212C10.6997 28.2636 10.7501 28.2131 10.8078 28.2131H16.0574C16.115 28.2131 16.1655 28.2635 16.1655 28.3212V29.1926ZM19.5817 34.4224H16.4186V30.8391C17.0614 30.6983 17.568 30.1894 17.7057 29.5455H18.2947C18.4324 30.1895 18.939 30.6983 19.5817 30.8391V34.4224ZM25.3006 29.1926C25.3006 29.2501 25.2501 29.3007 25.1924 29.3007H20.3704H19.9428C19.8853 29.3007 19.8348 29.2502 19.8348 29.1926V28.3212C19.8348 28.2636 19.8852 28.2131 19.9428 28.2131H25.1924C25.2501 28.2131 25.3006 28.2635 25.3006 28.3212V29.1926ZM36.0001 5.09119C36.0001 5.5268 35.647 5.87988 35.2114 5.87988H34.9734V6.95682C34.9734 7.39242 34.6203 7.74551 34.1847 7.74551C34.0278 7.74551 33.8816 7.69968 33.7588 7.62073V7.87668C33.7588 8.31228 33.4057 8.66537 32.9701 8.66537C32.5345 8.66537 32.1814 8.31228 32.1814 7.87668V5.87988H30.968V34.4224H32.9647C33.4003 34.4224 33.7534 34.7755 33.7534 35.2111C33.7534 35.6467 33.4003 35.9997 32.9647 35.9997H30.1989C30.1923 35.9999 30.1858 36 30.1793 36C30.1727 36 30.1662 35.9999 30.1597 35.9997H27.3939C26.9583 35.9997 26.6052 35.6467 26.6052 35.2111C26.6052 34.7755 26.9583 34.4224 27.3939 34.4224H29.3906V5.87988H6.60952V34.4224H8.60631C9.04192 34.4224 9.395 34.7755 9.395 35.2111C9.395 35.6467 9.04192 35.9997 8.60631 35.9997H5.84051C5.82747 36.0001 5.81435 36.0001 5.80124 35.9997H3.03543C2.59982 35.9997 2.24674 35.6467 2.24674 35.2111C2.24674 34.7755 2.59982 34.4224 3.03543 34.4224H5.03214V5.87988H3.81889V7.87668C3.81889 8.31228 3.4658 8.66537 3.0302 8.66537C2.59459 8.66537 2.24151 8.31228 2.24151 7.87668V7.62073C2.11864 7.69968 1.97244 7.74551 1.81554 7.74551C1.37993 7.74551 1.02685 7.39242 1.02685 6.95682V5.87988H0.788994C0.353389 5.87988 0.000305176 5.5268 0.000305176 5.09119C0.000305176 4.65559 0.353389 4.30251 0.788994 4.30251H1.02676V3.22565C1.02676 2.79005 1.37985 2.43697 1.81545 2.43697C1.97236 2.43697 2.11856 2.48279 2.24143 2.56174V2.30588C2.24143 1.87027 2.59451 1.51719 3.03012 1.51719C3.46572 1.51719 3.8188 1.87027 3.8188 2.30588V4.30259H5.03214V0.788689C5.03214 0.353084 5.38522 0 5.82083 0C6.25643 0 6.60952 0.353084 6.60952 0.788689V4.30251H29.3906V0.788689C29.3906 0.353084 29.7437 0 30.1793 0C30.6149 0 30.968 0.353084 30.968 0.788689V4.30251H32.1814V2.30579C32.1814 1.87019 32.5345 1.51711 32.9701 1.51711C33.4057 1.51711 33.7588 1.87019 33.7588 2.30579V2.56166C33.8816 2.48271 34.0278 2.43688 34.1847 2.43688C34.6203 2.43688 34.9734 2.78997 34.9734 3.22557V4.30251H35.2114C35.647 4.30251 36.0001 4.65559 36.0001 5.09119Z" fill="#7C8288"/>
</g>
<defs>
<clipPath id="clip0_5655_2992">
<rect width="36" height="36" fill="white"/>
</clipPath>
</defs>
</svg>
