<svg width="42" height="42" viewBox="0 0 42 42" fill="none" xmlns="http://www.w3.org/2000/svg">
<path d="M25.725 11.025C25.4043 11.3522 25.2247 11.792 25.2247 12.25C25.2247 12.7081 25.4043 13.1479 25.725 13.475L28.525 16.275C28.8521 16.5957 29.2919 16.7753 29.75 16.7753C30.2081 16.7753 30.6479 16.5957 30.975 16.275L37.5725 9.67753C38.4524 11.6221 38.7189 13.7887 38.3363 15.8885C37.9537 17.9884 36.9402 19.9218 35.431 21.431C33.9217 22.9403 31.9883 23.9537 29.8885 24.3363C27.7886 24.7189 25.6221 24.4525 23.6775 23.5725L11.585 35.665C10.8888 36.3612 9.94456 36.7523 8.95999 36.7523C7.97543 36.7523 7.03118 36.3612 6.33499 35.665C5.6388 34.9688 5.24768 34.0246 5.24768 33.04C5.24768 32.0555 5.6388 31.1112 6.33499 30.415L18.4275 18.3225C17.5475 16.3779 17.2811 14.2114 17.6637 12.1115C18.0463 10.0117 19.0597 8.0783 20.569 6.56904C22.0783 5.05978 24.0116 4.04632 26.1115 3.66372C28.2113 3.28113 30.3779 3.54756 32.3225 4.42753L25.7425 11.0075L25.725 11.025Z" fill="#7C8288"/>
</svg>
