<svg width="31" height="28" viewBox="0 0 31 28" fill="none" xmlns="http://www.w3.org/2000/svg">
<g id="Frame" clip-path="url(#clip0_5383_6772)">
<path id="Vector" d="M29.1476 15.4186C30.059 15.4186 30.8632 14.668 30.8632 13.6976C30.9168 13.2151 30.7023 12.7863 30.2734 12.411L27.4428 9.91806V3.43111C27.4428 2.48219 26.6761 1.71556 25.7272 1.71556H24.0117C23.0627 1.71556 22.2961 2.48219 22.2961 3.43111V5.39864L16.5865 0.375278C16.2649 0.107222 15.836 0 15.4607 0C15.0854 0 14.6565 0.0536111 14.2813 0.428889L0.530007 12.411C0.15473 12.7863 -0.00610352 13.2151 -0.00610352 13.6976C-0.00610352 14.6626 0.744452 15.4186 1.70945 15.4186H3.42501V19.1553C3.41965 19.2035 3.41965 19.2518 3.41965 19.3054V25.3098C3.41965 26.4946 4.37928 27.4543 5.56409 27.4543H6.42187C6.4862 27.4543 6.55053 27.4489 6.61487 27.4435C6.69528 27.4489 6.7757 27.4543 6.85612 27.4543H8.56631H9.85298C11.0378 27.4543 11.9974 26.4946 11.9974 25.3098V24.0231V20.592C11.9974 19.6431 12.7641 18.8765 13.713 18.8765H17.1441C18.093 18.8765 18.8596 19.6431 18.8596 20.592V24.0231V25.3098C18.8596 26.4946 19.8193 27.4543 21.0041 27.4543H22.2907H24.0331C24.1082 27.4543 24.1832 27.4543 24.2583 27.4489C24.3172 27.4543 24.3762 27.4543 24.4352 27.4543H25.293C26.4778 27.4543 27.4374 26.4946 27.4374 25.3098V24.4413C27.4535 24.3019 27.4642 24.1572 27.4642 24.0071L27.4267 15.4186H29.1422H29.1476Z" fill="#7C8288"/>
</g>
<defs>
<clipPath id="clip0_5383_6772">
<rect width="30.88" height="27.4489" fill="white" transform="translate(-0.00610352)"/>
</clipPath>
</defs>
</svg>
