<svg width="42" height="41" viewBox="0 0 42 41" fill="none" xmlns="http://www.w3.org/2000/svg">
<path d="M18.3029 34.7864C17.2989 34.7852 16.3482 34.3904 15.6549 33.687L7.58883 25.3579C7.24681 25.0079 6.97979 24.5915 6.80317 24.1325C6.62655 23.6736 6.54383 23.1814 6.55978 22.6843C6.57574 22.1872 6.69005 21.695 6.89613 21.236C7.10221 20.7771 7.39596 20.3607 7.76044 20.0107L8.1566 19.6109C8.89373 18.9049 9.8706 18.5089 10.8753 18.5089C11.88 18.5089 12.8315 18.9049 13.5233 19.6109L21.5893 27.9399C21.9312 28.2899 22.1984 28.7064 22.375 29.1653C22.5516 29.6242 22.6343 30.1165 22.6183 30.6135C22.6024 31.1106 22.4881 31.6029 22.282 32.0618C22.0759 32.5207 21.7821 32.9372 21.4177 33.2872L21.0215 33.687C20.2831 34.3904 19.3069 34.7852 18.3029 34.7864ZM10.8117 21.0102C10.6449 21.0082 10.4782 21.0395 10.3216 21.1024C10.165 21.1654 10.0217 21.2585 9.89994 21.3766L9.4871 21.7764C9.36385 21.8955 9.26455 22.0371 9.19491 22.1929C9.12526 22.3486 9.08662 22.5155 9.0812 22.6843C9.07579 22.8529 9.10371 23.02 9.16336 23.1757C9.22301 23.3315 9.31322 23.4731 9.42883 23.5922L17.4949 31.9212C17.7306 32.1632 18.0559 32.2992 18.3994 32.2992C18.7429 32.2992 19.0768 32.1632 19.3282 31.9212L19.7244 31.5214C19.8505 31.4025 19.9522 31.2599 20.0231 31.1025C20.094 30.945 20.1328 30.7758 20.1371 30.6052C20.1433 30.4371 20.1152 30.2706 20.0541 30.1158C19.9933 29.961 19.9007 29.8216 19.7826 29.7057L11.7166 21.3766C11.5994 21.258 11.4591 21.1646 11.3038 21.1018C11.1484 21.0388 10.9812 21.0077 10.8117 21.0102Z" fill="#7C8288"/>
<path d="M30.5277 23.1091C29.5219 23.1017 28.5716 22.7011 27.8802 21.993L19.8141 13.6639C19.1267 12.952 18.7586 11.9875 18.7909 10.982C18.8232 9.97649 19.2531 9.012 19.9863 8.30004L20.3991 7.90024C21.1334 7.19529 22.1074 6.79977 23.1094 6.79977C24.1114 6.79977 25.0601 7.19529 25.7491 7.90024L33.8151 16.2293C34.4977 16.9406 34.8625 17.9014 34.8303 18.9029C34.7982 19.9044 34.3717 20.8652 33.6435 21.5765L33.2307 21.9763C32.5006 22.6866 31.5307 23.0929 30.5277 23.1091ZM23.037 9.31618C22.8687 9.31431 22.7007 9.34741 22.5437 9.41336C22.3866 9.47931 22.244 9.57668 22.1247 9.69931L21.7124 10.0825C21.4624 10.3259 21.3159 10.6553 21.3049 10.9986C21.2938 11.342 21.4193 11.6714 21.6536 11.9148L29.7196 20.2439C29.9554 20.4859 30.2807 20.6219 30.6242 20.6219C30.9677 20.6219 31.3015 20.4859 31.553 20.2439L31.9491 19.8441C32.0747 19.7282 32.1762 19.5886 32.247 19.434C32.3179 19.2792 32.3568 19.1126 32.3613 18.9446C32.368 18.774 32.3401 18.6047 32.2793 18.4473C32.2185 18.2899 32.1259 18.1473 32.0074 18.0284L23.9414 9.69931C23.8256 9.57776 23.6861 9.48128 23.5308 9.41548C23.3754 9.34969 23.2077 9.31595 23.037 9.31618Z" fill="#7C8288"/>
<path d="M33.4133 17.8451C32.4093 17.844 31.4585 17.4493 30.7652 16.7457L25.2647 11.0486C24.9228 10.6986 24.6557 10.2822 24.4791 9.82329C24.3025 9.36439 24.2198 8.87217 24.2357 8.37502C24.2517 7.87788 24.366 7.38565 24.572 6.92677C24.7781 6.46787 25.072 6.0514 25.4364 5.7014L25.8325 5.3016C26.5676 4.59157 27.5454 4.19284 28.5514 4.19284C29.5574 4.19284 30.5096 4.59157 31.1992 5.3016L36.7169 10.982C37.4003 11.6961 37.7655 12.6598 37.7333 13.664C37.7011 14.6681 37.274 15.6318 36.5447 16.3459L36.1319 16.7457C35.3935 17.4493 34.4173 17.844 33.4133 17.8451ZM28.4715 6.68422C28.1278 6.68912 27.7951 6.82638 27.5425 7.06736L27.1453 7.50047C27.022 7.61961 26.9227 7.76112 26.8531 7.91691C26.7834 8.07269 26.7447 8.23969 26.7393 8.40834C26.7339 8.57698 26.7619 8.74398 26.8215 8.89977C26.8812 9.05555 26.9713 9.19706 27.087 9.3162L32.5886 14.98C32.8245 15.2221 33.1496 15.358 33.4931 15.358C33.8366 15.358 34.1705 15.2221 34.4219 14.98L34.8181 14.5802C34.9439 14.4607 35.0453 14.3182 35.1165 14.1609C35.1877 14.0035 35.2272 13.8346 35.2326 13.664C35.2381 13.4933 35.2095 13.3244 35.1484 13.1671C35.0873 13.0098 34.995 12.8672 34.8769 12.7478L29.3758 7.06736C29.141 6.82337 28.8158 6.68559 28.4715 6.68422Z" fill="#7C8288"/>
<path d="M12.9163 37.485C12.4103 37.4892 11.912 37.3909 11.4514 37.1961C10.9907 37.0016 10.5773 36.7144 10.236 36.3523L4.76828 30.6718C4.42581 30.3204 4.15847 29.9026 3.98168 29.4423C3.80488 28.982 3.7221 28.4885 3.73811 27.9899C3.75411 27.4913 3.86856 26.9977 4.0749 26.5375C4.28124 26.0772 4.5754 25.6594 4.94043 25.3079L5.33659 24.9081C6.07372 24.2022 7.05059 23.8062 8.05529 23.8062C9.05998 23.8062 10.0114 24.2022 10.7033 24.9081L16.2038 30.6052C16.5458 30.9552 16.8128 31.3717 16.9894 31.8306C17.166 32.2895 17.2487 32.7818 17.2328 33.2788C17.2168 33.7759 17.1025 34.2682 16.8964 34.7271C16.6904 35.186 16.3966 35.6025 16.0321 35.9525L15.636 36.3523C15.2749 36.7097 14.8484 36.9939 14.3815 37.1883C13.9145 37.3829 13.4164 37.4837 12.9163 37.485ZM7.97448 26.3241C7.80513 26.3216 7.63588 26.3527 7.47653 26.4157C7.31717 26.4787 7.17088 26.572 7.04606 26.6906L6.64989 27.0904C6.52411 27.2098 6.42263 27.3524 6.35145 27.5096C6.28027 27.6671 6.24076 27.836 6.23529 28.0065C6.22981 28.1771 6.25847 28.3462 6.31956 28.5035C6.38064 28.6607 6.47297 28.8033 6.59108 28.9227L12.0921 34.6032C12.2075 34.7226 12.346 34.8172 12.4998 34.8818C12.6536 34.9465 12.8196 34.9798 12.9884 34.9798C13.1571 34.9798 13.3252 34.9465 13.4832 34.8818C13.6411 34.8172 13.7857 34.7226 13.9088 34.6032L14.3232 34.1534C14.4465 34.0343 14.5458 33.8927 14.6154 33.7369C14.6851 33.5812 14.7237 33.4141 14.7291 33.2455C14.7345 33.0769 14.7066 32.9099 14.647 32.7541C14.5873 32.5984 14.4971 32.4568 14.3815 32.3377L8.87992 26.6739C8.7627 26.5553 8.62239 26.462 8.46708 26.399C8.31177 26.3361 8.14453 26.3049 7.97502 26.3074L7.97448 26.3241Z" fill="#7C8288"/>
<path d="M18.4764 27.8233C18.3116 27.827 18.1489 27.7963 17.9989 27.7332C17.8488 27.6701 17.7147 27.5759 17.6048 27.4568L13.973 23.7754C13.8587 23.6606 13.7694 23.5232 13.7103 23.3716C13.6511 23.22 13.6234 23.0571 13.6287 22.8925C13.634 22.7279 13.6722 22.565 13.741 22.4134C13.8099 22.2618 13.908 22.1244 14.0296 22.0096L22.1314 14.1637C22.2489 14.0445 22.3891 13.9504 22.5433 13.8873C22.6973 13.8242 22.862 13.7935 23.0265 13.7972C23.1913 13.7935 23.354 13.8242 23.504 13.8873C23.6541 13.9504 23.7883 14.0445 23.8981 14.1637L27.4945 17.9118C27.6088 18.0265 27.6981 18.164 27.7572 18.3155C27.8163 18.4671 27.8441 18.6301 27.8388 18.7946C27.8335 18.9592 27.7953 19.1221 27.7264 19.2737C27.6576 19.4253 27.5595 19.5627 27.4378 19.6775L19.3704 27.4902C19.2503 27.6033 19.109 27.6912 18.9551 27.7485C18.8013 27.806 18.6383 27.8313 18.4764 27.8233ZM16.7201 22.8259L18.5753 24.7416L24.785 18.728L22.9276 16.879L16.7201 22.8259Z" fill="#7C8288"/>
</svg>
