<svg width="24" height="24" viewBox="0 0 24 24" fill="none" xmlns="http://www.w3.org/2000/svg">
<g clip-path="url(#clip0_18848_105414)">
<path d="M24 2V24H18V2C18 0.897 18.897 0 20 0H22C23.103 0 24 0.897 24 2ZM13 6H11C9.897 6 9 6.897 9 8V24H15V8C15 6.897 14.103 6 13 6ZM4 12H2C0.897 12 0 12.897 0 14V24H6V14C6 12.897 5.103 12 4 12Z" fill="#454545"/>
<path d="M13 6H11C9.897 6 9 6.897 9 8V24H15V8C15 6.897 14.103 6 13 6ZM4 12H2C0.897 12 0 12.897 0 14V24H6V14C6 12.897 5.103 12 4 12Z" fill="#3781FA"/>
</g>
<defs>
<clipPath id="clip0_18848_105414">
<rect width="24" height="24" fill="white"/>
</clipPath>
</defs>
</svg>
