<svg width="252" height="252" viewBox="0 0 252 252" fill="none" xmlns="http://www.w3.org/2000/svg">
<g id="female_24dp_E8EAED_FILL0_wght400_GRAD0_opsz24 1">
<path id="Vector" d="M115.5 220.5V199.5H94.5V178.5H115.5V156.45C101.675 154 90.3438 147.394 81.5063 136.631C72.6688 125.869 68.25 113.4 68.25 99.225C68.25 83.3 73.8938 69.7813 85.1813 58.6688C96.4688 47.5563 110.075 42 126 42C141.925 42 155.531 47.5563 166.819 58.6688C178.106 69.7813 183.75 83.3 183.75 99.225C183.75 113.4 179.331 125.869 170.494 136.631C161.656 147.394 150.325 154 136.5 156.45V178.5H157.5V199.5H136.5V220.5H115.5ZM126 136.5C136.15 136.5 144.813 132.913 151.988 125.738C159.163 118.563 162.75 109.9 162.75 99.75C162.75 89.6 159.163 80.9375 151.988 73.7625C144.813 66.5875 136.15 63 126 63C115.85 63 107.188 66.5875 100.013 73.7625C92.8375 80.9375 89.25 89.6 89.25 99.75C89.25 109.9 92.8375 118.563 100.013 125.738C107.188 132.913 115.85 136.5 126 136.5Z" fill="#FDA4AF"/>
</g>
</svg>
