<svg width="252" height="252" viewBox="0 0 252 252" fill="none" xmlns="http://www.w3.org/2000/svg">
<g id="male_24dp_E8EAED_FILL0_wght400_GRAD0_opsz24 1">
<path id="Vector" d="M210 42V105H189V77.9625L147.262 119.438C150.587 124.337 153.125 129.544 154.875 135.056C156.625 140.569 157.5 146.3 157.5 152.25C157.5 168.35 151.9 182 140.7 193.2C129.5 204.4 115.85 210 99.75 210C83.65 210 70 204.4 58.8 193.2C47.6 182 42 168.35 42 152.25C42 136.15 47.6 122.5 58.8 111.3C70 100.1 83.65 94.5 99.75 94.5C105.525 94.5 111.212 95.3312 116.812 96.9937C122.412 98.6562 127.575 101.237 132.3 104.737L174.037 63H147V42H210ZM99.75 115.5C89.6 115.5 80.9375 119.087 73.7625 126.262C66.5875 133.437 63 142.1 63 152.25C63 162.4 66.5875 171.062 73.7625 178.237C80.9375 185.412 89.6 189 99.75 189C109.9 189 118.562 185.412 125.737 178.237C132.912 171.062 136.5 162.4 136.5 152.25C136.5 142.1 132.912 133.437 125.737 126.262C118.562 119.087 109.9 115.5 99.75 115.5Z" fill="#BEDBFF"/>
</g>
</svg>
