<svg width="30" height="30" viewBox="0 0 30 30" fill="none" xmlns="http://www.w3.org/2000/svg">
<g clip-path="url(#clip0_24294_1894)">
<path d="M12.4928 17.0839H14.1219C14.1219 20.2091 13.6074 22.18 13.2834 23.3342H11.1106C11.2554 22.8654 11.6429 21.5414 11.8699 20.0768L10.8179 18.9163C11.5314 18.2704 12.173 17.4787 12.1793 17.4704L12.4928 17.0839ZM24.5382 2.5H12.0387C10.3158 2.5 8.9138 3.90214 8.9138 5.62513V9.79197C9.55336 9.79197 10.1419 9.55238 10.6116 9.15028C11.2345 8.61692 12.1491 8.61692 12.772 9.15028C13.2417 9.55238 13.8303 9.79197 14.4698 9.79197C15.1094 9.79197 15.6979 9.55238 16.1677 9.15028C16.7906 8.61692 17.7051 8.61692 18.328 9.15028C18.7978 9.55238 19.3863 9.79197 20.0258 9.79197C20.6654 9.79197 21.2539 9.55238 21.7237 9.15028C22.3466 8.61692 23.2611 8.61692 23.884 9.15028C24.0819 9.32008 24.3048 9.45237 24.5402 9.55863V22.2925H22.5945C22.3257 23.5446 22.0393 24.5988 21.7903 25.4176H27.6641V5.62513C27.6641 3.90214 26.261 2.5 24.5382 2.5ZM21.3206 13.0952L21.4112 13.8807C21.4133 20.9497 19.3082 26.2937 19.2186 26.5177L18.8259 27.5H2.66406V25.2145C3.19112 24.2124 4.66815 19.2997 4.74418 13.9359L4.7546 13.2411L5.42645 12.6535C6.64515 11.6118 8.40757 11.6108 9.62211 12.6515C9.76377 12.7723 9.99605 12.9171 10.3033 12.9171C10.6106 12.9171 10.8429 12.7723 10.9835 12.6515C12.1991 11.6108 13.9625 11.6108 15.1771 12.6515C15.3187 12.7723 15.551 12.9171 15.8583 12.9171C16.1656 12.9171 16.3979 12.7723 16.5395 12.6515C17.7541 11.6118 19.5175 11.6108 20.7321 12.6515L21.3206 13.0963V13.0952ZM18.2613 15.2672C16.7395 16.3454 14.5729 16.2516 13.1438 15.0245C13.1063 14.9922 13.0553 14.9922 13.0157 15.0245C11.5637 16.2693 9.35649 16.3454 7.83051 15.2182C7.66281 18.8965 7.00555 22.2248 6.35349 24.3759H16.6572C17.1687 22.78 18.0915 19.3872 18.2613 15.2672Z" fill="url(#paint0_linear_24294_1894)"/>
</g>
<defs>
<linearGradient id="paint0_linear_24294_1894" x1="15.1641" y1="2.5" x2="15.1641" y2="27.5" gradientUnits="userSpaceOnUse">
<stop stop-color="#91C5FF"/>
<stop offset="1" stop-color="#3781FA"/>
</linearGradient>
<clipPath id="clip0_24294_1894">
<rect width="25" height="25" fill="white" transform="translate(2.33203 3)"/>
</clipPath>
</defs>
</svg>
