<svg width="30" height="30" viewBox="0 0 30 30" fill="none" xmlns="http://www.w3.org/2000/svg">
<path d="M15.4987 25.9154C21.2517 25.9154 25.9154 21.2517 25.9154 15.4987C25.9154 9.74573 21.2517 5.08203 15.4987 5.08203C9.74573 5.08203 5.08203 9.74573 5.08203 15.4987C5.08203 21.2517 9.74573 25.9154 15.4987 25.9154Z" stroke="url(#paint0_linear_24294_1892)" stroke-width="2.5" stroke-linecap="round" stroke-linejoin="round"/>
<path d="M20.5 11.125L15.5 15.5" stroke="url(#paint1_linear_24294_1892)" stroke-width="1.7" stroke-linecap="round" stroke-linejoin="round"/>
<rect x="12.8359" y="1" width="6" height="1" rx="0.5" stroke="url(#paint2_linear_24294_1892)"/>
<rect x="24.2266" y="4.94965" width="3.17999" height="0.635998" rx="0.317999" transform="rotate(44 24.2266 4.94965)" stroke="url(#paint3_linear_24294_1892)" stroke-width="0.635998"/>
<defs>
<linearGradient id="paint0_linear_24294_1892" x1="15.4987" y1="5.08203" x2="15.4987" y2="25.9154" gradientUnits="userSpaceOnUse">
<stop stop-color="#91C5FF"/>
<stop offset="1" stop-color="#3781FA"/>
</linearGradient>
<linearGradient id="paint1_linear_24294_1892" x1="18" y1="11.125" x2="18" y2="15.5" gradientUnits="userSpaceOnUse">
<stop stop-color="#91C5FF"/>
<stop offset="1" stop-color="#3781FA"/>
</linearGradient>
<linearGradient id="paint2_linear_24294_1892" x1="15.8359" y1="0.5" x2="15.8359" y2="2.5" gradientUnits="userSpaceOnUse">
<stop stop-color="#91C5FF"/>
<stop offset="1" stop-color="#3781FA"/>
</linearGradient>
<linearGradient id="paint3_linear_24294_1892" x1="26.1267" y1="4.5" x2="26.1267" y2="5.772" gradientUnits="userSpaceOnUse">
<stop stop-color="#91C5FF"/>
<stop offset="1" stop-color="#3781FA"/>
</linearGradient>
</defs>
</svg>
