<svg width="388" height="340" viewBox="0 0 388 340" fill="none" xmlns="http://www.w3.org/2000/svg">
<mask id="mask0_24285_1832" style="mask-type:alpha" maskUnits="userSpaceOnUse" x="0" y="0" width="388" height="340">
<path d="M0 0H388V340H0V0Z" fill="url(#paint0_linear_24285_1832)"/>
</mask>
<g mask="url(#mask0_24285_1832)">
<path d="M20.6445 251.031C20.6445 251.031 45.3159 173.313 116.067 216.193C186.819 259.073 184.118 83.7922 258.651 113.808C333.183 143.825 322.279 70.4526 352.626 65.0312" stroke="url(#paint1_linear_24285_1832)" stroke-width="4"/>
<path opacity="0.6" d="M404.5 25.5L417.5 178.5C417.5 178.5 336.469 185.5 309.04 180C285.868 186 257.699 185.398 251.57 184.418C238.553 182.337 243.995 185.073 228.173 191C221.494 193.502 178.695 251.47 165.603 259.851C147.681 271.324 136.068 255.541 136.068 255.541C136.068 255.541 93.5873 207.973 94.8111 208.5C119.793 219.264 160.818 225.368 165.603 199.653C192.462 160.172 215.668 93.3597 263.173 114.373C310.678 135.387 317.325 105.541 325.895 96.5926C341.832 79.9514 380.835 30.0551 404.5 25.5Z" fill="url(#paint2_linear_24285_1832)"/>
<g filter="url(#filter0_f_24285_1832)">
<path d="M20.6445 251.031C20.6445 251.031 45.3159 173.313 116.067 216.193C186.819 259.073 184.118 83.7922 258.651 113.808C333.183 143.825 322.279 70.4526 352.626 65.0312" stroke="url(#paint3_linear_24285_1832)" stroke-width="4"/>
</g>
<path d="M344.5 55.5C351.127 55.5 356.5 60.8726 356.5 67.5C356.5 74.1274 351.127 79.5 344.5 79.5C337.873 79.5 332.5 74.1274 332.5 67.5C332.5 60.8726 337.873 55.5 344.5 55.5Z" fill="url(#paint4_linear_24285_1832)" stroke="#121212" stroke-width="3"/>
<g filter="url(#filter1_f_24285_1832)">
<path d="M22.6797 246.937C22.6797 246.937 69.4498 157.174 119.779 237.261C170.107 317.348 204.168 175.986 249.413 183.13C294.658 190.275 291.608 181.141 306.351 179.529C321.093 177.918 333.278 186.811 351.061 183.512" stroke="url(#paint5_linear_24285_1832)" stroke-width="4"/>
</g>
<path d="M22.6797 246.937C22.6797 246.937 69.4498 157.174 119.779 237.261C170.107 317.348 204.168 175.986 249.413 183.13C294.658 190.275 291.608 181.141 306.351 179.529C321.093 177.918 333.278 186.811 351.061 183.512" stroke="url(#paint6_linear_24285_1832)" stroke-width="4"/>
<path opacity="0.6" d="M121.917 238.414C71.1812 158.049 -6 274.5 -6 274.5L-16.4141 378.5L406.5 387L390 180.159C373.209 183.26 324.53 178.814 309.485 180.16C298.062 181.181 283.962 191.299 258.749 185.014C200.326 170.451 172.652 318.779 121.917 238.414Z" fill="url(#paint7_linear_24285_1832)"/>
<path d="M246.623 144.144C245.783 144.144 245.059 143.964 244.451 143.604C243.851 143.236 243.387 142.728 243.059 142.08C242.739 141.424 242.579 140.668 242.579 139.812C242.579 138.956 242.739 138.2 243.059 137.544C243.387 136.888 243.851 136.376 244.451 136.008C245.059 135.64 245.783 135.456 246.623 135.456C247.639 135.456 248.471 135.708 249.119 136.212C249.767 136.716 250.171 137.428 250.331 138.348H248.567C248.463 137.9 248.243 137.552 247.907 137.304C247.579 137.048 247.147 136.92 246.611 136.92C246.115 136.92 245.687 137.04 245.327 137.28C244.975 137.512 244.703 137.844 244.511 138.276C244.319 138.7 244.223 139.212 244.223 139.812C244.223 140.404 244.319 140.916 244.511 141.348C244.703 141.78 244.975 142.112 245.327 142.344C245.687 142.576 246.115 142.692 246.611 142.692C247.147 142.692 247.579 142.576 247.907 142.344C248.235 142.104 248.451 141.772 248.555 141.348H250.331C250.171 142.22 249.767 142.904 249.119 143.4C248.471 143.896 247.639 144.144 246.623 144.144ZM254.535 144.144C253.959 144.144 253.439 144.012 252.975 143.748C252.519 143.476 252.155 143.104 251.883 142.632C251.619 142.152 251.487 141.604 251.487 140.988C251.487 140.356 251.619 139.804 251.883 139.332C252.155 138.852 252.523 138.48 252.987 138.216C253.451 137.944 253.971 137.808 254.547 137.808C255.131 137.808 255.651 137.944 256.107 138.216C256.571 138.48 256.935 138.852 257.199 139.332C257.471 139.804 257.607 140.352 257.607 140.976C257.607 141.6 257.471 142.152 257.199 142.632C256.935 143.104 256.571 143.476 256.107 143.748C255.643 144.012 255.119 144.144 254.535 144.144ZM254.535 142.74C254.807 142.74 255.047 142.676 255.255 142.548C255.471 142.42 255.639 142.224 255.759 141.96C255.887 141.696 255.951 141.368 255.951 140.976C255.951 140.584 255.887 140.26 255.759 140.004C255.639 139.74 255.471 139.544 255.255 139.416C255.047 139.28 254.811 139.212 254.547 139.212C254.291 139.212 254.055 139.28 253.839 139.416C253.623 139.544 253.451 139.74 253.323 140.004C253.203 140.26 253.143 140.584 253.143 140.976C253.143 141.368 253.203 141.696 253.323 141.96C253.451 142.224 253.619 142.42 253.827 142.548C254.043 142.676 254.279 142.74 254.535 142.74ZM259.003 144V137.952H260.431L260.551 138.936C260.735 138.6 260.995 138.328 261.331 138.12C261.675 137.912 262.083 137.808 262.555 137.808C263.059 137.808 263.483 137.912 263.827 138.12C264.171 138.328 264.431 138.632 264.607 139.032C264.791 139.432 264.883 139.924 264.883 140.508V144H263.275V140.664C263.275 140.184 263.171 139.816 262.963 139.56C262.763 139.304 262.451 139.176 262.027 139.176C261.755 139.176 261.511 139.24 261.295 139.368C261.087 139.496 260.923 139.68 260.803 139.92C260.683 140.152 260.623 140.436 260.623 140.772V144H259.003ZM272.161 144.144C271.553 144.144 271.009 144.04 270.529 143.832C270.057 143.624 269.681 143.32 269.401 142.92C269.129 142.52 268.989 142.036 268.981 141.468H270.697C270.705 141.716 270.769 141.94 270.889 142.14C271.009 142.34 271.173 142.5 271.381 142.62C271.597 142.732 271.853 142.788 272.149 142.788C272.405 142.788 272.625 142.748 272.809 142.668C273.001 142.58 273.149 142.46 273.253 142.308C273.357 142.156 273.409 141.976 273.409 141.768C273.409 141.528 273.349 141.328 273.229 141.168C273.117 141.008 272.957 140.872 272.749 140.76C272.549 140.648 272.313 140.548 272.041 140.46C271.777 140.364 271.497 140.264 271.201 140.16C270.537 139.944 270.029 139.656 269.677 139.296C269.333 138.936 269.161 138.46 269.161 137.868C269.161 137.364 269.281 136.932 269.521 136.572C269.769 136.212 270.109 135.936 270.541 135.744C270.973 135.552 271.465 135.456 272.017 135.456C272.585 135.456 273.081 135.556 273.505 135.756C273.937 135.948 274.277 136.228 274.525 136.596C274.781 136.964 274.913 137.396 274.921 137.892H273.193C273.185 137.708 273.129 137.536 273.025 137.376C272.929 137.208 272.793 137.076 272.617 136.98C272.441 136.876 272.233 136.824 271.993 136.824C271.785 136.816 271.593 136.848 271.417 136.92C271.249 136.992 271.113 137.1 271.009 137.244C270.913 137.38 270.865 137.552 270.865 137.76C270.865 137.96 270.913 138.128 271.009 138.264C271.113 138.4 271.253 138.52 271.429 138.624C271.605 138.72 271.813 138.812 272.053 138.9C272.293 138.98 272.553 139.064 272.833 139.152C273.249 139.296 273.633 139.468 273.985 139.668C274.337 139.86 274.617 140.112 274.825 140.424C275.033 140.736 275.137 141.148 275.137 141.66C275.137 142.1 275.021 142.508 274.789 142.884C274.557 143.26 274.221 143.564 273.781 143.796C273.349 144.028 272.809 144.144 272.161 144.144ZM277.244 146.64L278.708 143.328H278.348L275.924 137.952H277.688L279.416 141.852L280.976 137.952H282.692L278.96 146.64H277.244ZM283.718 144V137.952H285.146L285.278 138.756C285.47 138.468 285.722 138.24 286.034 138.072C286.354 137.896 286.718 137.808 287.126 137.808C287.43 137.808 287.702 137.848 287.942 137.928C288.182 138.008 288.394 138.124 288.578 138.276C288.77 138.428 288.926 138.62 289.046 138.852C289.27 138.524 289.562 138.268 289.922 138.084C290.282 137.9 290.674 137.808 291.098 137.808C291.626 137.808 292.066 137.916 292.418 138.132C292.77 138.34 293.034 138.644 293.21 139.044C293.394 139.444 293.486 139.936 293.486 140.52V144H291.878V140.664C291.878 140.184 291.782 139.816 291.59 139.56C291.406 139.304 291.118 139.176 290.726 139.176C290.47 139.176 290.242 139.24 290.042 139.368C289.842 139.496 289.686 139.68 289.574 139.92C289.47 140.16 289.418 140.448 289.418 140.784V144H287.798V140.664C287.798 140.184 287.702 139.816 287.51 139.56C287.318 139.304 287.022 139.176 286.622 139.176C286.374 139.176 286.15 139.24 285.95 139.368C285.758 139.496 285.606 139.68 285.494 139.92C285.39 140.16 285.338 140.448 285.338 140.784V144H283.718ZM295.015 144V137.952H296.443L296.575 138.756C296.767 138.468 297.019 138.24 297.331 138.072C297.651 137.896 298.015 137.808 298.423 137.808C298.727 137.808 298.999 137.848 299.239 137.928C299.479 138.008 299.691 138.124 299.875 138.276C300.067 138.428 300.223 138.62 300.343 138.852C300.567 138.524 300.859 138.268 301.219 138.084C301.579 137.9 301.971 137.808 302.395 137.808C302.923 137.808 303.363 137.916 303.715 138.132C304.067 138.34 304.331 138.644 304.507 139.044C304.691 139.444 304.783 139.936 304.783 140.52V144H303.175V140.664C303.175 140.184 303.079 139.816 302.887 139.56C302.703 139.304 302.415 139.176 302.023 139.176C301.767 139.176 301.539 139.24 301.339 139.368C301.139 139.496 300.983 139.68 300.871 139.92C300.767 140.16 300.715 140.448 300.715 140.784V144H299.095V140.664C299.095 140.184 298.999 139.816 298.807 139.56C298.615 139.304 298.319 139.176 297.919 139.176C297.671 139.176 297.447 139.24 297.247 139.368C297.055 139.496 296.903 139.68 296.791 139.92C296.687 140.16 296.635 140.448 296.635 140.784V144H295.015ZM309.216 144.144C308.608 144.144 308.068 144.016 307.596 143.76C307.132 143.496 306.768 143.132 306.504 142.668C306.248 142.196 306.12 141.652 306.12 141.036C306.12 140.404 306.248 139.848 306.504 139.368C306.768 138.88 307.132 138.5 307.596 138.228C308.06 137.948 308.6 137.808 309.216 137.808C309.816 137.808 310.34 137.94 310.788 138.204C311.236 138.468 311.584 138.824 311.832 139.272C312.08 139.72 312.204 140.228 312.204 140.796C312.204 140.876 312.204 140.968 312.204 141.072C312.204 141.168 312.196 141.268 312.18 141.372H307.272V140.388H310.572C310.548 139.996 310.408 139.688 310.152 139.464C309.904 139.24 309.592 139.128 309.216 139.128C308.944 139.128 308.692 139.192 308.46 139.32C308.228 139.44 308.044 139.628 307.908 139.884C307.78 140.14 307.716 140.464 307.716 140.856V141.204C307.716 141.532 307.776 141.82 307.896 142.068C308.024 142.308 308.2 142.496 308.424 142.632C308.648 142.76 308.908 142.824 309.204 142.824C309.5 142.824 309.744 142.76 309.936 142.632C310.136 142.504 310.284 142.34 310.38 142.14H312.036C311.924 142.516 311.736 142.856 311.472 143.16C311.208 143.464 310.884 143.704 310.5 143.88C310.116 144.056 309.688 144.144 309.216 144.144ZM316.172 144C315.748 144 315.376 143.936 315.056 143.808C314.744 143.672 314.5 143.452 314.324 143.148C314.148 142.836 314.06 142.412 314.06 141.876V139.308H313.028V137.952H314.06L314.24 136.308H315.68V137.952H317.276V139.308H315.68V141.9C315.68 142.172 315.74 142.36 315.86 142.464C315.98 142.568 316.184 142.62 316.472 142.62H317.264V144H316.172ZM318.64 144V137.952H320.08L320.236 139.068C320.38 138.804 320.56 138.58 320.776 138.396C321 138.212 321.252 138.068 321.532 137.964C321.82 137.86 322.136 137.808 322.48 137.808V139.524H321.928C321.688 139.524 321.464 139.552 321.256 139.608C321.056 139.664 320.88 139.756 320.728 139.884C320.576 140.004 320.46 140.172 320.38 140.388C320.3 140.604 320.26 140.876 320.26 141.204V144H318.64ZM324.318 146.64L325.782 143.328H325.422L322.998 137.952H324.762L326.49 141.852L328.05 137.952H329.766L326.034 146.64H324.318Z" fill="#3781FA"/>
<circle cx="21.5" cy="245.5" r="13.5" fill="url(#paint8_linear_24285_1832)"/>
<path d="M349.5 171.5C356.127 171.5 361.5 176.873 361.5 183.5C361.5 190.127 356.127 195.5 349.5 195.5C342.873 195.5 337.5 190.127 337.5 183.5C337.5 176.873 342.873 171.5 349.5 171.5Z" fill="url(#paint9_linear_24285_1832)" stroke="#121212" stroke-width="3"/>
<line opacity="0.7" x1="14.9975" y1="181.5" x2="349.993" y2="179.856" stroke="#EF4444" stroke-dasharray="5 5"/>
<path d="M14.0944 174V166.3H19.1544V167.499H15.5794V169.512H18.8244V170.667H15.5794V172.801H19.1544V174H14.0944ZM22.7405 174.132C22.2345 174.132 21.7945 174.051 21.4205 173.89C21.0465 173.729 20.7532 173.505 20.5405 173.219C20.3279 172.933 20.2069 172.61 20.1775 172.251H21.6515C21.6882 172.39 21.7505 172.519 21.8385 172.636C21.9265 172.746 22.0439 172.834 22.1905 172.9C22.3372 172.966 22.5132 172.999 22.7185 172.999C22.9165 172.999 23.0779 172.973 23.2025 172.922C23.3272 172.863 23.4189 172.786 23.4775 172.691C23.5435 172.596 23.5765 172.497 23.5765 172.394C23.5765 172.24 23.5325 172.123 23.4445 172.042C23.3565 171.954 23.2282 171.884 23.0595 171.833C22.8909 171.782 22.6855 171.73 22.4435 171.679C22.1795 171.628 21.9192 171.565 21.6625 171.492C21.4132 171.411 21.1895 171.312 20.9915 171.195C20.7935 171.078 20.6359 170.927 20.5185 170.744C20.4012 170.561 20.3425 170.333 20.3425 170.062C20.3425 169.732 20.4305 169.439 20.6065 169.182C20.7825 168.918 21.0392 168.709 21.3765 168.555C21.7139 168.401 22.1209 168.324 22.5975 168.324C23.2649 168.324 23.7929 168.474 24.1815 168.775C24.5702 169.076 24.8012 169.49 24.8745 170.018H23.4775C23.4335 169.849 23.3345 169.717 23.1805 169.622C23.0339 169.519 22.8359 169.468 22.5865 169.468C22.3225 169.468 22.1209 169.516 21.9815 169.611C21.8422 169.706 21.7725 169.831 21.7725 169.985C21.7725 170.088 21.8165 170.179 21.9045 170.26C21.9999 170.341 22.1319 170.41 22.3005 170.469C22.4692 170.52 22.6745 170.572 22.9165 170.623C23.3419 170.711 23.7159 170.814 24.0385 170.931C24.3612 171.041 24.6142 171.202 24.7975 171.415C24.9809 171.62 25.0725 171.921 25.0725 172.317C25.0725 172.669 24.9772 172.984 24.7865 173.263C24.5959 173.534 24.3245 173.747 23.9725 173.901C23.6279 174.055 23.2172 174.132 22.7405 174.132ZM28.6542 174C28.2655 174 27.9245 173.941 27.6312 173.824C27.3452 173.699 27.1215 173.498 26.9602 173.219C26.7988 172.933 26.7182 172.544 26.7182 172.053V169.699H25.7722V168.456H26.7182L26.8832 166.949H28.2032V168.456H29.6662V169.699H28.2032V172.075C28.2032 172.324 28.2582 172.497 28.3682 172.592C28.4782 172.687 28.6652 172.735 28.9292 172.735H29.6552V174H28.6542ZM32.7859 174.132C32.3239 174.132 31.9426 174.059 31.6419 173.912C31.3413 173.758 31.1176 173.556 30.9709 173.307C30.8316 173.05 30.7619 172.768 30.7619 172.46C30.7619 172.123 30.8463 171.826 31.0149 171.569C31.1909 171.312 31.4513 171.111 31.7959 170.964C32.1479 170.817 32.5879 170.744 33.1159 170.744H34.4909C34.4909 170.473 34.4543 170.249 34.3809 170.073C34.3076 169.89 34.1939 169.754 34.0399 169.666C33.8859 169.578 33.6806 169.534 33.4239 169.534C33.1453 169.534 32.9069 169.596 32.7089 169.721C32.5183 169.838 32.4009 170.022 32.3569 170.271H30.9159C30.9526 169.875 31.0809 169.534 31.3009 169.248C31.5283 168.955 31.8253 168.727 32.1919 168.566C32.5659 168.405 32.9803 168.324 33.4349 168.324C33.9556 168.324 34.4066 168.412 34.7879 168.588C35.1693 168.764 35.4626 169.017 35.6679 169.347C35.8733 169.677 35.9759 170.084 35.9759 170.568V174H34.7219L34.5569 173.153C34.4763 173.3 34.3809 173.432 34.2709 173.549C34.1609 173.666 34.0326 173.769 33.8859 173.857C33.7393 173.945 33.5743 174.011 33.3909 174.055C33.2076 174.106 33.0059 174.132 32.7859 174.132ZM33.1379 172.988C33.3286 172.988 33.4973 172.955 33.6439 172.889C33.7979 172.816 33.9299 172.72 34.0399 172.603C34.1499 172.478 34.2343 172.339 34.2929 172.185C34.3589 172.024 34.4029 171.851 34.4249 171.668V171.657H33.2919C33.0646 171.657 32.8776 171.686 32.7309 171.745C32.5916 171.796 32.4889 171.873 32.4229 171.976C32.3569 172.079 32.3239 172.196 32.3239 172.328C32.3239 172.475 32.3569 172.596 32.4229 172.691C32.4889 172.786 32.5843 172.86 32.7089 172.911C32.8336 172.962 32.9766 172.988 33.1379 172.988ZM37.3613 174V168.456H38.6703L38.7803 169.358C38.9489 169.05 39.1873 168.801 39.4953 168.61C39.8106 168.419 40.1846 168.324 40.6173 168.324C41.0793 168.324 41.4679 168.419 41.7833 168.61C42.0986 168.801 42.3369 169.079 42.4983 169.446C42.6669 169.813 42.7513 170.264 42.7513 170.799V174H41.2773V170.942C41.2773 170.502 41.1819 170.165 40.9913 169.93C40.8079 169.695 40.5219 169.578 40.1333 169.578C39.8839 169.578 39.6603 169.637 39.4623 169.754C39.2716 169.871 39.1213 170.04 39.0113 170.26C38.9013 170.473 38.8463 170.733 38.8463 171.041V174H37.3613ZM46.8343 174.132C46.277 174.132 45.782 174.007 45.3493 173.758C44.9166 173.509 44.5793 173.168 44.3373 172.735C44.0953 172.302 43.9743 171.807 43.9743 171.25C43.9743 170.678 44.0953 170.176 44.3373 169.743C44.5793 169.303 44.9166 168.958 45.3493 168.709C45.782 168.452 46.277 168.324 46.8343 168.324C47.5456 168.324 48.1433 168.511 48.6273 168.885C49.1113 169.259 49.4193 169.772 49.5513 170.425H47.9783C47.9123 170.168 47.773 169.967 47.5603 169.82C47.355 169.673 47.1093 169.6 46.8233 169.6C46.5666 169.6 46.3356 169.666 46.1303 169.798C45.9323 169.923 45.7746 170.11 45.6573 170.359C45.5473 170.601 45.4923 170.891 45.4923 171.228C45.4923 171.485 45.5253 171.716 45.5913 171.921C45.6573 172.119 45.749 172.291 45.8663 172.438C45.9836 172.577 46.123 172.684 46.2843 172.757C46.453 172.83 46.6326 172.867 46.8233 172.867C47.014 172.867 47.1863 172.834 47.3403 172.768C47.5016 172.702 47.6373 172.61 47.7473 172.493C47.8573 172.368 47.9343 172.218 47.9783 172.042H49.5513C49.4193 172.68 49.1077 173.19 48.6163 173.571C48.1323 173.945 47.5383 174.132 46.8343 174.132ZM52.702 174.132C52.24 174.132 51.8586 174.059 51.558 173.912C51.2573 173.758 51.0336 173.556 50.887 173.307C50.7476 173.05 50.678 172.768 50.678 172.46C50.678 172.123 50.7623 171.826 50.931 171.569C51.107 171.312 51.3673 171.111 51.712 170.964C52.064 170.817 52.504 170.744 53.032 170.744H54.407C54.407 170.473 54.3703 170.249 54.297 170.073C54.2236 169.89 54.11 169.754 53.956 169.666C53.802 169.578 53.5966 169.534 53.34 169.534C53.0613 169.534 52.823 169.596 52.625 169.721C52.4343 169.838 52.317 170.022 52.273 170.271H50.832C50.8686 169.875 50.997 169.534 51.217 169.248C51.4443 168.955 51.7413 168.727 52.108 168.566C52.482 168.405 52.8963 168.324 53.351 168.324C53.8716 168.324 54.3226 168.412 54.704 168.588C55.0853 168.764 55.3786 169.017 55.584 169.347C55.7893 169.677 55.892 170.084 55.892 170.568V174H54.638L54.473 173.153C54.3923 173.3 54.297 173.432 54.187 173.549C54.077 173.666 53.9486 173.769 53.802 173.857C53.6553 173.945 53.4903 174.011 53.307 174.055C53.1236 174.106 52.922 174.132 52.702 174.132ZM53.054 172.988C53.2446 172.988 53.4133 172.955 53.56 172.889C53.714 172.816 53.846 172.72 53.956 172.603C54.066 172.478 54.1503 172.339 54.209 172.185C54.275 172.024 54.319 171.851 54.341 171.668V171.657H53.208C52.9806 171.657 52.7936 171.686 52.647 171.745C52.5076 171.796 52.405 171.873 52.339 171.976C52.273 172.079 52.24 172.196 52.24 172.328C52.24 172.475 52.273 172.596 52.339 172.691C52.405 172.786 52.5003 172.86 52.625 172.911C52.7496 172.962 52.8926 172.988 53.054 172.988ZM57.2773 174V168.456H58.5863L58.7073 169.193C58.8833 168.929 59.1143 168.72 59.4003 168.566C59.6936 168.405 60.0273 168.324 60.4013 168.324C60.6799 168.324 60.9293 168.361 61.1493 168.434C61.3693 168.507 61.5636 168.614 61.7323 168.753C61.9083 168.892 62.0513 169.068 62.1613 169.281C62.3666 168.98 62.6343 168.746 62.9643 168.577C63.2943 168.408 63.6536 168.324 64.0423 168.324C64.5263 168.324 64.9296 168.423 65.2523 168.621C65.5749 168.812 65.8169 169.09 65.9783 169.457C66.1469 169.824 66.2313 170.275 66.2313 170.81V174H64.7573V170.942C64.7573 170.502 64.6693 170.165 64.4933 169.93C64.3246 169.695 64.0606 169.578 63.7013 169.578C63.4666 169.578 63.2576 169.637 63.0743 169.754C62.8909 169.871 62.7479 170.04 62.6453 170.26C62.5499 170.48 62.5023 170.744 62.5023 171.052V174H61.0173V170.942C61.0173 170.502 60.9293 170.165 60.7533 169.93C60.5773 169.695 60.3059 169.578 59.9393 169.578C59.7119 169.578 59.5066 169.637 59.3233 169.754C59.1473 169.871 59.0079 170.04 58.9053 170.26C58.8099 170.48 58.7623 170.744 58.7623 171.052V174H57.2773ZM67.6657 174V168.456H69.1507V174H67.6657ZM68.4137 167.697C68.1497 167.697 67.9297 167.62 67.7537 167.466C67.5851 167.305 67.5007 167.103 67.5007 166.861C67.5007 166.619 67.5851 166.421 67.7537 166.267C67.9297 166.106 68.1497 166.025 68.4137 166.025C68.6851 166.025 68.9051 166.106 69.0737 166.267C69.2497 166.421 69.3377 166.619 69.3377 166.861C69.3377 167.103 69.2497 167.305 69.0737 167.466C68.9051 167.62 68.6851 167.697 68.4137 167.697ZM73.3133 174.132C72.756 174.132 72.261 174.015 71.8283 173.78C71.403 173.538 71.0693 173.204 70.8273 172.779C70.5926 172.346 70.4753 171.848 70.4753 171.283C70.4753 170.704 70.5926 170.194 70.8273 169.754C71.0693 169.307 71.403 168.958 71.8283 168.709C72.2536 168.452 72.7486 168.324 73.3133 168.324C73.8633 168.324 74.3436 168.445 74.7543 168.687C75.165 168.929 75.484 169.255 75.7113 169.666C75.9386 170.077 76.0523 170.542 76.0523 171.063C76.0523 171.136 76.0523 171.221 76.0523 171.316C76.0523 171.404 76.045 171.496 76.0303 171.591H71.5313V170.689H74.5563C74.5343 170.33 74.406 170.047 74.1713 169.842C73.944 169.637 73.658 169.534 73.3133 169.534C73.064 169.534 72.833 169.593 72.6203 169.71C72.4076 169.82 72.239 169.992 72.1143 170.227C71.997 170.462 71.9383 170.759 71.9383 171.118V171.437C71.9383 171.738 71.9933 172.002 72.1033 172.229C72.2206 172.449 72.382 172.621 72.5873 172.746C72.7926 172.863 73.031 172.922 73.3023 172.922C73.5736 172.922 73.7973 172.863 73.9733 172.746C74.1566 172.629 74.2923 172.478 74.3803 172.295H75.8983C75.7956 172.64 75.6233 172.951 75.3813 173.23C75.1393 173.509 74.8423 173.729 74.4903 173.89C74.1383 174.051 73.746 174.132 73.3133 174.132ZM77.2685 174V168.456H78.5775L78.6875 169.358C78.8561 169.05 79.0945 168.801 79.4025 168.61C79.7178 168.419 80.0918 168.324 80.5245 168.324C80.9865 168.324 81.3751 168.419 81.6905 168.61C82.0058 168.801 82.2441 169.079 82.4055 169.446C82.5741 169.813 82.6585 170.264 82.6585 170.799V174H81.1845V170.942C81.1845 170.502 81.0891 170.165 80.8985 169.93C80.7151 169.695 80.4291 169.578 80.0405 169.578C79.7911 169.578 79.5675 169.637 79.3695 169.754C79.1788 169.871 79.0285 170.04 78.9185 170.26C78.8085 170.473 78.7535 170.733 78.7535 171.041V174H77.2685ZM86.5545 174C86.1659 174 85.8249 173.941 85.5315 173.824C85.2455 173.699 85.0219 173.498 84.8605 173.219C84.6992 172.933 84.6185 172.544 84.6185 172.053V169.699H83.6725V168.456H84.6185L84.7835 166.949H86.1035V168.456H87.5665V169.699H86.1035V172.075C86.1035 172.324 86.1585 172.497 86.2685 172.592C86.3785 172.687 86.5655 172.735 86.8295 172.735H87.5555V174H86.5545ZM91.2947 174.132C90.7667 174.132 90.29 174.011 89.8647 173.769C89.4467 173.52 89.113 173.179 88.8637 172.746C88.6217 172.306 88.5007 171.804 88.5007 171.239C88.5007 170.66 88.6217 170.154 88.8637 169.721C89.113 169.281 89.4504 168.94 89.8757 168.698C90.301 168.449 90.7777 168.324 91.3057 168.324C91.841 168.324 92.3177 168.449 92.7357 168.698C93.161 168.94 93.4947 169.281 93.7367 169.721C93.986 170.154 94.1107 170.656 94.1107 171.228C94.1107 171.8 93.986 172.306 93.7367 172.746C93.4947 173.179 93.161 173.52 92.7357 173.769C92.3104 174.011 91.83 174.132 91.2947 174.132ZM91.2947 172.845C91.544 172.845 91.764 172.786 91.9547 172.669C92.1527 172.552 92.3067 172.372 92.4167 172.13C92.534 171.888 92.5927 171.587 92.5927 171.228C92.5927 170.869 92.534 170.572 92.4167 170.337C92.3067 170.095 92.1527 169.915 91.9547 169.798C91.764 169.673 91.5477 169.611 91.3057 169.611C91.071 169.611 90.8547 169.673 90.6567 169.798C90.4587 169.915 90.301 170.095 90.1837 170.337C90.0737 170.572 90.0187 170.869 90.0187 171.228C90.0187 171.587 90.0737 171.888 90.1837 172.13C90.301 172.372 90.455 172.552 90.6457 172.669C90.8437 172.786 91.06 172.845 91.2947 172.845Z" fill="#EF4444"/>
<path d="M252.396 209.144C251.788 209.144 251.244 209.04 250.764 208.832C250.292 208.624 249.916 208.32 249.636 207.92C249.364 207.52 249.224 207.036 249.216 206.468H250.932C250.94 206.716 251.004 206.94 251.124 207.14C251.244 207.34 251.408 207.5 251.616 207.62C251.832 207.732 252.088 207.788 252.384 207.788C252.64 207.788 252.86 207.748 253.044 207.668C253.236 207.58 253.384 207.46 253.488 207.308C253.592 207.156 253.644 206.976 253.644 206.768C253.644 206.528 253.584 206.328 253.464 206.168C253.352 206.008 253.192 205.872 252.984 205.76C252.784 205.648 252.548 205.548 252.276 205.46C252.012 205.364 251.732 205.264 251.436 205.16C250.772 204.944 250.264 204.656 249.912 204.296C249.568 203.936 249.396 203.46 249.396 202.868C249.396 202.364 249.516 201.932 249.756 201.572C250.004 201.212 250.344 200.936 250.776 200.744C251.208 200.552 251.7 200.456 252.252 200.456C252.82 200.456 253.316 200.556 253.74 200.756C254.172 200.948 254.512 201.228 254.76 201.596C255.016 201.964 255.148 202.396 255.156 202.892H253.428C253.42 202.708 253.364 202.536 253.26 202.376C253.164 202.208 253.028 202.076 252.852 201.98C252.676 201.876 252.468 201.824 252.228 201.824C252.02 201.816 251.828 201.848 251.652 201.92C251.484 201.992 251.348 202.1 251.244 202.244C251.148 202.38 251.1 202.552 251.1 202.76C251.1 202.96 251.148 203.128 251.244 203.264C251.348 203.4 251.488 203.52 251.664 203.624C251.84 203.72 252.048 203.812 252.288 203.9C252.528 203.98 252.788 204.064 253.068 204.152C253.484 204.296 253.868 204.468 254.22 204.668C254.572 204.86 254.852 205.112 255.06 205.424C255.268 205.736 255.372 206.148 255.372 206.66C255.372 207.1 255.256 207.508 255.024 207.884C254.792 208.26 254.456 208.564 254.016 208.796C253.584 209.028 253.044 209.144 252.396 209.144ZM256.746 209V202.952H258.366V209H256.746ZM257.562 202.124C257.274 202.124 257.034 202.04 256.842 201.872C256.658 201.696 256.566 201.476 256.566 201.212C256.566 200.948 256.658 200.732 256.842 200.564C257.034 200.388 257.274 200.3 257.562 200.3C257.858 200.3 258.098 200.388 258.282 200.564C258.474 200.732 258.57 200.948 258.57 201.212C258.57 201.476 258.474 201.696 258.282 201.872C258.098 202.04 257.858 202.124 257.562 202.124ZM260.003 209V202.952H261.431L261.551 203.936C261.735 203.6 261.995 203.328 262.331 203.12C262.675 202.912 263.083 202.808 263.555 202.808C264.059 202.808 264.483 202.912 264.827 203.12C265.171 203.328 265.431 203.632 265.607 204.032C265.791 204.432 265.883 204.924 265.883 205.508V209H264.275V205.664C264.275 205.184 264.171 204.816 263.963 204.56C263.763 204.304 263.451 204.176 263.027 204.176C262.755 204.176 262.511 204.24 262.295 204.368C262.087 204.496 261.923 204.68 261.803 204.92C261.683 205.152 261.623 205.436 261.623 205.772V209H260.003ZM273.161 209.144C272.553 209.144 272.009 209.04 271.529 208.832C271.057 208.624 270.681 208.32 270.401 207.92C270.129 207.52 269.989 207.036 269.981 206.468H271.697C271.705 206.716 271.769 206.94 271.889 207.14C272.009 207.34 272.173 207.5 272.381 207.62C272.597 207.732 272.853 207.788 273.149 207.788C273.405 207.788 273.625 207.748 273.809 207.668C274.001 207.58 274.149 207.46 274.253 207.308C274.357 207.156 274.409 206.976 274.409 206.768C274.409 206.528 274.349 206.328 274.229 206.168C274.117 206.008 273.957 205.872 273.749 205.76C273.549 205.648 273.313 205.548 273.041 205.46C272.777 205.364 272.497 205.264 272.201 205.16C271.537 204.944 271.029 204.656 270.677 204.296C270.333 203.936 270.161 203.46 270.161 202.868C270.161 202.364 270.281 201.932 270.521 201.572C270.769 201.212 271.109 200.936 271.541 200.744C271.973 200.552 272.465 200.456 273.017 200.456C273.585 200.456 274.081 200.556 274.505 200.756C274.937 200.948 275.277 201.228 275.525 201.596C275.781 201.964 275.913 202.396 275.921 202.892H274.193C274.185 202.708 274.129 202.536 274.025 202.376C273.929 202.208 273.793 202.076 273.617 201.98C273.441 201.876 273.233 201.824 272.993 201.824C272.785 201.816 272.593 201.848 272.417 201.92C272.249 201.992 272.113 202.1 272.009 202.244C271.913 202.38 271.865 202.552 271.865 202.76C271.865 202.96 271.913 203.128 272.009 203.264C272.113 203.4 272.253 203.52 272.429 203.624C272.605 203.72 272.813 203.812 273.053 203.9C273.293 203.98 273.553 204.064 273.833 204.152C274.249 204.296 274.633 204.468 274.985 204.668C275.337 204.86 275.617 205.112 275.825 205.424C276.033 205.736 276.137 206.148 276.137 206.66C276.137 207.1 276.021 207.508 275.789 207.884C275.557 208.26 275.221 208.564 274.781 208.796C274.349 209.028 273.809 209.144 273.161 209.144ZM278.244 211.64L279.708 208.328H279.348L276.924 202.952H278.688L280.416 206.852L281.976 202.952H283.692L279.96 211.64H278.244ZM284.718 209V202.952H286.146L286.278 203.756C286.47 203.468 286.722 203.24 287.034 203.072C287.354 202.896 287.718 202.808 288.126 202.808C288.43 202.808 288.702 202.848 288.942 202.928C289.182 203.008 289.394 203.124 289.578 203.276C289.77 203.428 289.926 203.62 290.046 203.852C290.27 203.524 290.562 203.268 290.922 203.084C291.282 202.9 291.674 202.808 292.098 202.808C292.626 202.808 293.066 202.916 293.418 203.132C293.77 203.34 294.034 203.644 294.21 204.044C294.394 204.444 294.486 204.936 294.486 205.52V209H292.878V205.664C292.878 205.184 292.782 204.816 292.59 204.56C292.406 204.304 292.118 204.176 291.726 204.176C291.47 204.176 291.242 204.24 291.042 204.368C290.842 204.496 290.686 204.68 290.574 204.92C290.47 205.16 290.418 205.448 290.418 205.784V209H288.798V205.664C288.798 205.184 288.702 204.816 288.51 204.56C288.318 204.304 288.022 204.176 287.622 204.176C287.374 204.176 287.15 204.24 286.95 204.368C286.758 204.496 286.606 204.68 286.494 204.92C286.39 205.16 286.338 205.448 286.338 205.784V209H284.718ZM296.015 209V202.952H297.443L297.575 203.756C297.767 203.468 298.019 203.24 298.331 203.072C298.651 202.896 299.015 202.808 299.423 202.808C299.727 202.808 299.999 202.848 300.239 202.928C300.479 203.008 300.691 203.124 300.875 203.276C301.067 203.428 301.223 203.62 301.343 203.852C301.567 203.524 301.859 203.268 302.219 203.084C302.579 202.9 302.971 202.808 303.395 202.808C303.923 202.808 304.363 202.916 304.715 203.132C305.067 203.34 305.331 203.644 305.507 204.044C305.691 204.444 305.783 204.936 305.783 205.52V209H304.175V205.664C304.175 205.184 304.079 204.816 303.887 204.56C303.703 204.304 303.415 204.176 303.023 204.176C302.767 204.176 302.539 204.24 302.339 204.368C302.139 204.496 301.983 204.68 301.871 204.92C301.767 205.16 301.715 205.448 301.715 205.784V209H300.095V205.664C300.095 205.184 299.999 204.816 299.807 204.56C299.615 204.304 299.319 204.176 298.919 204.176C298.671 204.176 298.447 204.24 298.247 204.368C298.055 204.496 297.903 204.68 297.791 204.92C297.687 205.16 297.635 205.448 297.635 205.784V209H296.015ZM310.216 209.144C309.608 209.144 309.068 209.016 308.596 208.76C308.132 208.496 307.768 208.132 307.504 207.668C307.248 207.196 307.12 206.652 307.12 206.036C307.12 205.404 307.248 204.848 307.504 204.368C307.768 203.88 308.132 203.5 308.596 203.228C309.06 202.948 309.6 202.808 310.216 202.808C310.816 202.808 311.34 202.94 311.788 203.204C312.236 203.468 312.584 203.824 312.832 204.272C313.08 204.72 313.204 205.228 313.204 205.796C313.204 205.876 313.204 205.968 313.204 206.072C313.204 206.168 313.196 206.268 313.18 206.372H308.272V205.388H311.572C311.548 204.996 311.408 204.688 311.152 204.464C310.904 204.24 310.592 204.128 310.216 204.128C309.944 204.128 309.692 204.192 309.46 204.32C309.228 204.44 309.044 204.628 308.908 204.884C308.78 205.14 308.716 205.464 308.716 205.856V206.204C308.716 206.532 308.776 206.82 308.896 207.068C309.024 207.308 309.2 207.496 309.424 207.632C309.648 207.76 309.908 207.824 310.204 207.824C310.5 207.824 310.744 207.76 310.936 207.632C311.136 207.504 311.284 207.34 311.38 207.14H313.036C312.924 207.516 312.736 207.856 312.472 208.16C312.208 208.464 311.884 208.704 311.5 208.88C311.116 209.056 310.688 209.144 310.216 209.144ZM317.172 209C316.748 209 316.376 208.936 316.056 208.808C315.744 208.672 315.5 208.452 315.324 208.148C315.148 207.836 315.06 207.412 315.06 206.876V204.308H314.028V202.952H315.06L315.24 201.308H316.68V202.952H318.276V204.308H316.68V206.9C316.68 207.172 316.74 207.36 316.86 207.464C316.98 207.568 317.184 207.62 317.472 207.62H318.264V209H317.172ZM319.64 209V202.952H321.08L321.236 204.068C321.38 203.804 321.56 203.58 321.776 203.396C322 203.212 322.252 203.068 322.532 202.964C322.82 202.86 323.136 202.808 323.48 202.808V204.524H322.928C322.688 204.524 322.464 204.552 322.256 204.608C322.056 204.664 321.88 204.756 321.728 204.884C321.576 205.004 321.46 205.172 321.38 205.388C321.3 205.604 321.26 205.876 321.26 206.204V209H319.64ZM325.318 211.64L326.782 208.328H326.422L323.998 202.952H325.762L327.49 206.852L329.05 202.952H330.766L327.034 211.64H325.318Z" fill="#EF4444"/>
</g>
<defs>
<filter id="filter0_f_24285_1832" x="8.63828" y="52.9625" width="354.438" height="208.774" filterUnits="userSpaceOnUse" color-interpolation-filters="sRGB">
<feFlood flood-opacity="0" result="BackgroundImageFix"/>
<feBlend mode="normal" in="SourceGraphic" in2="BackgroundImageFix" result="shape"/>
<feGaussianBlur stdDeviation="5.05" result="effect1_foregroundBlur_24285_1832"/>
</filter>
<filter id="filter1_f_24285_1832" x="8.80625" y="165.232" width="354.72" height="110.774" filterUnits="userSpaceOnUse" color-interpolation-filters="sRGB">
<feFlood flood-opacity="0" result="BackgroundImageFix"/>
<feBlend mode="normal" in="SourceGraphic" in2="BackgroundImageFix" result="shape"/>
<feGaussianBlur stdDeviation="6.05" result="effect1_foregroundBlur_24285_1832"/>
</filter>
<linearGradient id="paint0_linear_24285_1832" x1="194" y1="1.12031e-07" x2="190.706" y2="339.987" gradientUnits="userSpaceOnUse">
<stop offset="0.649038" stop-color="#D9D9D9"/>
<stop offset="0.870192" stop-color="#A6A6A6" stop-opacity="0.3"/>
<stop offset="1" stop-color="#737373" stop-opacity="0"/>
</linearGradient>
<linearGradient id="paint1_linear_24285_1832" x1="361.51" y1="57.3989" x2="154.36" y2="231.774" gradientUnits="userSpaceOnUse">
<stop offset="0.101032" stop-color="#3781FA"/>
<stop offset="1" stop-color="#91C5FF"/>
</linearGradient>
<linearGradient id="paint2_linear_24285_1832" x1="386" y1="145" x2="33.072" y2="228.937" gradientUnits="userSpaceOnUse">
<stop stop-color="#64A3FD" stop-opacity="0"/>
<stop offset="0.3125" stop-color="#3781FA" stop-opacity="0.3"/>
<stop offset="1" stop-color="#91C5FF" stop-opacity="0"/>
</linearGradient>
<linearGradient id="paint3_linear_24285_1832" x1="361.51" y1="57.3989" x2="154.36" y2="231.774" gradientUnits="userSpaceOnUse">
<stop offset="0.101032" stop-color="#3781FA"/>
<stop offset="1" stop-color="#91C5FF"/>
</linearGradient>
<linearGradient id="paint4_linear_24285_1832" x1="350.652" y1="63.4908" x2="338.283" y2="74.6862" gradientUnits="userSpaceOnUse">
<stop stop-color="#91C5FF"/>
<stop offset="1" stop-color="#3781FA"/>
</linearGradient>
<linearGradient id="paint5_linear_24285_1832" x1="286.562" y1="213.091" x2="46.2348" y2="394.556" gradientUnits="userSpaceOnUse">
<stop offset="0.101032" stop-color="#EF4444"/>
<stop offset="1" stop-color="#F29393"/>
</linearGradient>
<linearGradient id="paint6_linear_24285_1832" x1="350.914" y1="179.078" x2="115.26" y2="248.699" gradientUnits="userSpaceOnUse">
<stop offset="0.101032" stop-color="#EF4444"/>
<stop offset="1" stop-color="#F29393"/>
</linearGradient>
<linearGradient id="paint7_linear_24285_1832" x1="7.79581" y1="265.5" x2="386.122" y2="240.33" gradientUnits="userSpaceOnUse">
<stop stop-color="#F29393" stop-opacity="0"/>
<stop offset="0.548077" stop-color="#EF4444" stop-opacity="0.3"/>
<stop offset="1" stop-color="#F16C6C" stop-opacity="0"/>
</linearGradient>
<linearGradient id="paint8_linear_24285_1832" x1="21.5" y1="232" x2="21.5" y2="259" gradientUnits="userSpaceOnUse">
<stop stop-color="#FF6868"/>
<stop offset="1" stop-color="#993F3F"/>
</linearGradient>
<linearGradient id="paint9_linear_24285_1832" x1="355.652" y1="179.491" x2="343.283" y2="190.686" gradientUnits="userSpaceOnUse">
<stop stop-color="#F29393"/>
<stop offset="1" stop-color="#EF4444"/>
</linearGradient>
</defs>
</svg>
