<svg width="388" height="340" viewBox="0 0 388 340" fill="none" xmlns="http://www.w3.org/2000/svg">
<mask id="mask0_26457_11142" style="mask-type:alpha" maskUnits="userSpaceOnUse" x="0" y="0" width="388" height="340">
<path d="M0 0H388V340H0V0Z" fill="url(#paint0_linear_26457_11142)"/>
</mask>
<g mask="url(#mask0_26457_11142)">
<path d="M20.6465 251.031C20.6465 251.031 45.3178 173.313 116.069 216.193C186.821 259.073 184.12 83.7922 258.652 113.808C333.185 143.825 322.281 70.4526 352.628 65.0312" stroke="url(#paint1_linear_26457_11142)" stroke-width="4"/>
<path opacity="0.6" d="M404.502 25.5L417.502 178.5C417.502 178.5 336.471 185.5 309.042 180C285.87 186 257.701 185.398 251.572 184.418C238.555 182.337 243.997 185.073 228.175 191C221.496 193.502 178.697 251.47 165.605 259.851C147.683 271.324 136.07 255.541 136.07 255.541C136.07 255.541 93.5893 207.973 94.8131 208.5C119.795 219.264 160.82 225.368 165.605 199.653C192.464 160.172 215.67 93.3597 263.175 114.373C310.68 135.387 317.327 105.541 325.897 96.5926C341.834 79.9514 380.836 30.0551 404.502 25.5Z" fill="url(#paint2_linear_26457_11142)"/>
<g filter="url(#filter0_f_26457_11142)">
<path d="M20.6465 251.031C20.6465 251.031 45.3178 173.313 116.069 216.193C186.821 259.073 184.12 83.7922 258.652 113.808C333.185 143.825 322.281 70.4526 352.628 65.0312" stroke="url(#paint3_linear_26457_11142)" stroke-width="4"/>
</g>
<path d="M344.502 55.5C351.129 55.5 356.502 60.8726 356.502 67.5C356.502 74.1274 351.129 79.5 344.502 79.5C337.875 79.5 332.502 74.1274 332.502 67.5C332.502 60.8726 337.875 55.5 344.502 55.5Z" fill="url(#paint4_linear_26457_11142)" stroke="#121212" stroke-width="3"/>
<g filter="url(#filter1_f_26457_11142)">
<path d="M22.6816 246.937C22.6816 246.937 69.4518 157.174 119.781 237.261C170.109 317.348 204.17 175.986 249.415 183.13C294.66 190.275 291.61 181.141 306.353 179.529C321.095 177.918 333.28 186.811 351.063 183.512" stroke="url(#paint5_linear_26457_11142)" stroke-width="4"/>
</g>
<path d="M22.6816 246.937C22.6816 246.937 69.4518 157.174 119.781 237.261C170.109 317.348 204.17 175.986 249.415 183.13C294.66 190.275 291.61 181.141 306.353 179.529C321.095 177.918 333.28 186.811 351.063 183.512" stroke="url(#paint6_linear_26457_11142)" stroke-width="4"/>
<path opacity="0.6" d="M121.921 238.414C71.1851 158.049 8 277.5 8 277.5L10 296H388L390.004 180.159C373.213 183.26 324.534 178.814 309.488 180.16C298.066 181.181 283.966 191.299 258.753 185.014C200.33 170.451 172.656 318.779 121.921 238.414Z" fill="url(#paint7_linear_26457_11142)"/>
<path d="M259.024 145L256.816 136.6H258.544L260.008 143.164L261.736 136.6H263.524L265.204 143.164L266.68 136.6H268.42L266.152 145H264.22L262.612 138.88L260.944 145H259.024ZM269.543 145V138.952H271.163V145H269.543ZM270.359 138.124C270.071 138.124 269.831 138.04 269.639 137.872C269.455 137.696 269.363 137.476 269.363 137.212C269.363 136.948 269.455 136.732 269.639 136.564C269.831 136.388 270.071 136.3 270.359 136.3C270.655 136.3 270.895 136.388 271.079 136.564C271.271 136.732 271.367 136.948 271.367 137.212C271.367 137.476 271.271 137.696 271.079 137.872C270.895 138.04 270.655 138.124 270.359 138.124ZM275.524 145C275.1 145 274.728 144.936 274.408 144.808C274.096 144.672 273.852 144.452 273.676 144.148C273.5 143.836 273.412 143.412 273.412 142.876V140.308H272.38V138.952H273.412L273.592 137.308H275.032V138.952H276.628V140.308H275.032V142.9C275.032 143.172 275.092 143.36 275.212 143.464C275.332 143.568 275.536 143.62 275.824 143.62H276.616V145H275.524ZM277.991 145V136.36H279.611V139.852C279.811 139.532 280.075 139.28 280.403 139.096C280.739 138.904 281.127 138.808 281.567 138.808C282.071 138.808 282.495 138.916 282.839 139.132C283.183 139.34 283.443 139.644 283.619 140.044C283.795 140.444 283.883 140.94 283.883 141.532V145H282.275V141.676C282.275 141.196 282.175 140.828 281.975 140.572C281.775 140.308 281.459 140.176 281.027 140.176C280.763 140.176 280.523 140.24 280.307 140.368C280.091 140.496 279.919 140.684 279.791 140.932C279.671 141.172 279.611 141.46 279.611 141.796V145H277.991ZM291.161 145.144C290.553 145.144 290.009 145.04 289.529 144.832C289.057 144.624 288.681 144.32 288.401 143.92C288.129 143.52 287.989 143.036 287.981 142.468H289.697C289.705 142.716 289.769 142.94 289.889 143.14C290.009 143.34 290.173 143.5 290.381 143.62C290.597 143.732 290.853 143.788 291.149 143.788C291.405 143.788 291.625 143.748 291.809 143.668C292.001 143.58 292.149 143.46 292.253 143.308C292.357 143.156 292.409 142.976 292.409 142.768C292.409 142.528 292.349 142.328 292.229 142.168C292.117 142.008 291.957 141.872 291.749 141.76C291.549 141.648 291.313 141.548 291.041 141.46C290.777 141.364 290.497 141.264 290.201 141.16C289.537 140.944 289.029 140.656 288.677 140.296C288.333 139.936 288.161 139.46 288.161 138.868C288.161 138.364 288.281 137.932 288.521 137.572C288.769 137.212 289.109 136.936 289.541 136.744C289.973 136.552 290.465 136.456 291.017 136.456C291.585 136.456 292.081 136.556 292.505 136.756C292.937 136.948 293.277 137.228 293.525 137.596C293.781 137.964 293.913 138.396 293.921 138.892H292.193C292.185 138.708 292.129 138.536 292.025 138.376C291.929 138.208 291.793 138.076 291.617 137.98C291.441 137.876 291.233 137.824 290.993 137.824C290.785 137.816 290.593 137.848 290.417 137.92C290.249 137.992 290.113 138.1 290.009 138.244C289.913 138.38 289.865 138.552 289.865 138.76C289.865 138.96 289.913 139.128 290.009 139.264C290.113 139.4 290.253 139.52 290.429 139.624C290.605 139.72 290.813 139.812 291.053 139.9C291.293 139.98 291.553 140.064 291.833 140.152C292.249 140.296 292.633 140.468 292.985 140.668C293.337 140.86 293.617 141.112 293.825 141.424C294.033 141.736 294.137 142.148 294.137 142.66C294.137 143.1 294.021 143.508 293.789 143.884C293.557 144.26 293.221 144.564 292.781 144.796C292.349 145.028 291.809 145.144 291.161 145.144ZM296.244 147.64L297.708 144.328H297.348L294.924 138.952H296.688L298.416 142.852L299.976 138.952H301.692L297.96 147.64H296.244ZM302.718 145V138.952H304.146L304.278 139.756C304.47 139.468 304.722 139.24 305.034 139.072C305.354 138.896 305.718 138.808 306.126 138.808C306.43 138.808 306.702 138.848 306.942 138.928C307.182 139.008 307.394 139.124 307.578 139.276C307.77 139.428 307.926 139.62 308.046 139.852C308.27 139.524 308.562 139.268 308.922 139.084C309.282 138.9 309.674 138.808 310.098 138.808C310.626 138.808 311.066 138.916 311.418 139.132C311.77 139.34 312.034 139.644 312.21 140.044C312.394 140.444 312.486 140.936 312.486 141.52V145H310.878V141.664C310.878 141.184 310.782 140.816 310.59 140.56C310.406 140.304 310.118 140.176 309.726 140.176C309.47 140.176 309.242 140.24 309.042 140.368C308.842 140.496 308.686 140.68 308.574 140.92C308.47 141.16 308.418 141.448 308.418 141.784V145H306.798V141.664C306.798 141.184 306.702 140.816 306.51 140.56C306.318 140.304 306.022 140.176 305.622 140.176C305.374 140.176 305.15 140.24 304.95 140.368C304.758 140.496 304.606 140.68 304.494 140.92C304.39 141.16 304.338 141.448 304.338 141.784V145H302.718ZM314.015 145V138.952H315.443L315.575 139.756C315.767 139.468 316.019 139.24 316.331 139.072C316.651 138.896 317.015 138.808 317.423 138.808C317.727 138.808 317.999 138.848 318.239 138.928C318.479 139.008 318.691 139.124 318.875 139.276C319.067 139.428 319.223 139.62 319.343 139.852C319.567 139.524 319.859 139.268 320.219 139.084C320.579 138.9 320.971 138.808 321.395 138.808C321.923 138.808 322.363 138.916 322.715 139.132C323.067 139.34 323.331 139.644 323.507 140.044C323.691 140.444 323.783 140.936 323.783 141.52V145H322.175V141.664C322.175 141.184 322.079 140.816 321.887 140.56C321.703 140.304 321.415 140.176 321.023 140.176C320.767 140.176 320.539 140.24 320.339 140.368C320.139 140.496 319.983 140.68 319.871 140.92C319.767 141.16 319.715 141.448 319.715 141.784V145H318.095V141.664C318.095 141.184 317.999 140.816 317.807 140.56C317.615 140.304 317.319 140.176 316.919 140.176C316.671 140.176 316.447 140.24 316.247 140.368C316.055 140.496 315.903 140.68 315.791 140.92C315.687 141.16 315.635 141.448 315.635 141.784V145H314.015ZM328.216 145.144C327.608 145.144 327.068 145.016 326.596 144.76C326.132 144.496 325.768 144.132 325.504 143.668C325.248 143.196 325.12 142.652 325.12 142.036C325.12 141.404 325.248 140.848 325.504 140.368C325.768 139.88 326.132 139.5 326.596 139.228C327.06 138.948 327.6 138.808 328.216 138.808C328.816 138.808 329.34 138.94 329.788 139.204C330.236 139.468 330.584 139.824 330.832 140.272C331.08 140.72 331.204 141.228 331.204 141.796C331.204 141.876 331.204 141.968 331.204 142.072C331.204 142.168 331.196 142.268 331.18 142.372H326.272V141.388H329.572C329.548 140.996 329.408 140.688 329.152 140.464C328.904 140.24 328.592 140.128 328.216 140.128C327.944 140.128 327.692 140.192 327.46 140.32C327.228 140.44 327.044 140.628 326.908 140.884C326.78 141.14 326.716 141.464 326.716 141.856V142.204C326.716 142.532 326.776 142.82 326.896 143.068C327.024 143.308 327.2 143.496 327.424 143.632C327.648 143.76 327.908 143.824 328.204 143.824C328.5 143.824 328.744 143.76 328.936 143.632C329.136 143.504 329.284 143.34 329.38 143.14H331.036C330.924 143.516 330.736 143.856 330.472 144.16C330.208 144.464 329.884 144.704 329.5 144.88C329.116 145.056 328.688 145.144 328.216 145.144ZM335.172 145C334.748 145 334.376 144.936 334.056 144.808C333.744 144.672 333.5 144.452 333.324 144.148C333.148 143.836 333.06 143.412 333.06 142.876V140.308H332.028V138.952H333.06L333.24 137.308H334.68V138.952H336.276V140.308H334.68V142.9C334.68 143.172 334.74 143.36 334.86 143.464C334.98 143.568 335.184 143.62 335.472 143.62H336.264V145H335.172ZM337.64 145V138.952H339.08L339.236 140.068C339.38 139.804 339.56 139.58 339.776 139.396C340 139.212 340.252 139.068 340.532 138.964C340.82 138.86 341.136 138.808 341.48 138.808V140.524H340.928C340.688 140.524 340.464 140.552 340.256 140.608C340.056 140.664 339.88 140.756 339.728 140.884C339.576 141.004 339.46 141.172 339.38 141.388C339.3 141.604 339.26 141.876 339.26 142.204V145H337.64ZM343.318 147.64L344.782 144.328H344.422L341.998 138.952H343.762L345.49 142.852L347.05 138.952H348.766L345.034 147.64H343.318Z" fill="#3781FA"/>
<circle cx="21.502" cy="245.5" r="13.5" fill="url(#paint8_linear_26457_11142)"/>
<path d="M349.502 171.5C356.129 171.5 361.502 176.873 361.502 183.5C361.502 190.127 356.129 195.5 349.502 195.5C342.875 195.5 337.502 190.127 337.502 183.5C337.502 176.873 342.875 171.5 349.502 171.5Z" fill="url(#paint9_linear_26457_11142)" stroke="#121212" stroke-width="3"/>
<line opacity="0.7" x1="14.9995" y1="181.5" x2="349.995" y2="179.856" stroke="#EF4444" stroke-dasharray="5 5"/>
<path d="M16.761 174V166.3H19.643C20.2663 166.3 20.7833 166.406 21.194 166.619C21.6046 166.832 21.909 167.118 22.107 167.477C22.305 167.836 22.404 168.247 22.404 168.709C22.404 169.134 22.3086 169.527 22.118 169.886C21.9273 170.245 21.6266 170.539 21.216 170.766C20.8053 170.986 20.281 171.096 19.643 171.096H18.246V174H16.761ZM18.246 169.897H19.555C20.0316 169.897 20.3726 169.791 20.578 169.578C20.7906 169.358 20.897 169.068 20.897 168.709C20.897 168.328 20.7906 168.034 20.578 167.829C20.3726 167.616 20.0316 167.51 19.555 167.51H18.246V169.897ZM23.4848 174V166.08H24.9698V174H23.4848ZM28.2874 174.132C27.8254 174.132 27.4441 174.059 27.1434 173.912C26.8427 173.758 26.6191 173.556 26.4724 173.307C26.3331 173.05 26.2634 172.768 26.2634 172.46C26.2634 172.123 26.3477 171.826 26.5164 171.569C26.6924 171.312 26.9527 171.111 27.2974 170.964C27.6494 170.817 28.0894 170.744 28.6174 170.744H29.9924C29.9924 170.473 29.9557 170.249 29.8824 170.073C29.8091 169.89 29.6954 169.754 29.5414 169.666C29.3874 169.578 29.1821 169.534 28.9254 169.534C28.6467 169.534 28.4084 169.596 28.2104 169.721C28.0197 169.838 27.9024 170.022 27.8584 170.271H26.4174C26.4541 169.875 26.5824 169.534 26.8024 169.248C27.0297 168.955 27.3267 168.727 27.6934 168.566C28.0674 168.405 28.4817 168.324 28.9364 168.324C29.4571 168.324 29.9081 168.412 30.2894 168.588C30.6707 168.764 30.9641 169.017 31.1694 169.347C31.3747 169.677 31.4774 170.084 31.4774 170.568V174H30.2234L30.0584 173.153C29.9777 173.3 29.8824 173.432 29.7724 173.549C29.6624 173.666 29.5341 173.769 29.3874 173.857C29.2407 173.945 29.0757 174.011 28.8924 174.055C28.7091 174.106 28.5074 174.132 28.2874 174.132ZM28.6394 172.988C28.8301 172.988 28.9987 172.955 29.1454 172.889C29.2994 172.816 29.4314 172.72 29.5414 172.603C29.6514 172.478 29.7357 172.339 29.7944 172.185C29.8604 172.024 29.9044 171.851 29.9264 171.668V171.657H28.7934C28.5661 171.657 28.3791 171.686 28.2324 171.745C28.0931 171.796 27.9904 171.873 27.9244 171.976C27.8584 172.079 27.8254 172.196 27.8254 172.328C27.8254 172.475 27.8584 172.596 27.9244 172.691C27.9904 172.786 28.0857 172.86 28.2104 172.911C28.3351 172.962 28.4781 172.988 28.6394 172.988ZM35.2953 174C34.9066 174 34.5656 173.941 34.2723 173.824C33.9863 173.699 33.7626 173.498 33.6013 173.219C33.4399 172.933 33.3593 172.544 33.3593 172.053V169.699H32.4133V168.456H33.3593L33.5243 166.949H34.8443V168.456H36.3073V169.699H34.8443V172.075C34.8443 172.324 34.8993 172.497 35.0093 172.592C35.1193 172.687 35.3063 172.735 35.5703 172.735H36.2963V174H35.2953ZM40.0794 174.132C39.5221 174.132 39.0271 174.015 38.5944 173.78C38.1691 173.538 37.8354 173.204 37.5934 172.779C37.3587 172.346 37.2414 171.848 37.2414 171.283C37.2414 170.704 37.3587 170.194 37.5934 169.754C37.8354 169.307 38.1691 168.958 38.5944 168.709C39.0197 168.452 39.5147 168.324 40.0794 168.324C40.6294 168.324 41.1097 168.445 41.5204 168.687C41.9311 168.929 42.2501 169.255 42.4774 169.666C42.7047 170.077 42.8184 170.542 42.8184 171.063C42.8184 171.136 42.8184 171.221 42.8184 171.316C42.8184 171.404 42.8111 171.496 42.7964 171.591H38.2974V170.689H41.3224C41.3004 170.33 41.1721 170.047 40.9374 169.842C40.7101 169.637 40.4241 169.534 40.0794 169.534C39.8301 169.534 39.5991 169.593 39.3864 169.71C39.1737 169.82 39.0051 169.992 38.8804 170.227C38.7631 170.462 38.7044 170.759 38.7044 171.118V171.437C38.7044 171.738 38.7594 172.002 38.8694 172.229C38.9867 172.449 39.1481 172.621 39.3534 172.746C39.5587 172.863 39.7971 172.922 40.0684 172.922C40.3397 172.922 40.5634 172.863 40.7394 172.746C40.9227 172.629 41.0584 172.478 41.1464 172.295H42.6644C42.5617 172.64 42.3894 172.951 42.1474 173.23C41.9054 173.509 41.6084 173.729 41.2564 173.89C40.9044 174.051 40.5121 174.132 40.0794 174.132ZM45.9046 174.132C45.4426 174.132 45.0613 174.059 44.7606 173.912C44.4599 173.758 44.2363 173.556 44.0896 173.307C43.9503 173.05 43.8806 172.768 43.8806 172.46C43.8806 172.123 43.9649 171.826 44.1336 171.569C44.3096 171.312 44.5699 171.111 44.9146 170.964C45.2666 170.817 45.7066 170.744 46.2346 170.744H47.6096C47.6096 170.473 47.5729 170.249 47.4996 170.073C47.4263 169.89 47.3126 169.754 47.1586 169.666C47.0046 169.578 46.7993 169.534 46.5426 169.534C46.2639 169.534 46.0256 169.596 45.8276 169.721C45.6369 169.838 45.5196 170.022 45.4756 170.271H44.0346C44.0713 169.875 44.1996 169.534 44.4196 169.248C44.6469 168.955 44.9439 168.727 45.3106 168.566C45.6846 168.405 46.0989 168.324 46.5536 168.324C47.0743 168.324 47.5253 168.412 47.9066 168.588C48.2879 168.764 48.5813 169.017 48.7866 169.347C48.9919 169.677 49.0946 170.084 49.0946 170.568V174H47.8406L47.6756 173.153C47.5949 173.3 47.4996 173.432 47.3896 173.549C47.2796 173.666 47.1513 173.769 47.0046 173.857C46.8579 173.945 46.6929 174.011 46.5096 174.055C46.3263 174.106 46.1246 174.132 45.9046 174.132ZM46.2566 172.988C46.4473 172.988 46.6159 172.955 46.7626 172.889C46.9166 172.816 47.0486 172.72 47.1586 172.603C47.2686 172.478 47.3529 172.339 47.4116 172.185C47.4776 172.024 47.5216 171.851 47.5436 171.668V171.657H46.4106C46.1833 171.657 45.9963 171.686 45.8496 171.745C45.7103 171.796 45.6076 171.873 45.5416 171.976C45.4756 172.079 45.4426 172.196 45.4426 172.328C45.4426 172.475 45.4756 172.596 45.5416 172.691C45.6076 172.786 45.7029 172.86 45.8276 172.911C45.9523 172.962 46.0953 172.988 46.2566 172.988ZM52.5479 174.132C52.1006 174.132 51.7156 174.04 51.3929 173.857C51.0776 173.666 50.8356 173.391 50.6669 173.032C50.4982 172.665 50.4139 172.214 50.4139 171.679V168.456H51.8989V171.525C51.8989 171.972 51.9906 172.31 52.1739 172.537C52.3646 172.764 52.6542 172.878 53.0429 172.878C53.2922 172.878 53.5122 172.823 53.7029 172.713C53.8936 172.596 54.0439 172.431 54.1539 172.218C54.2712 171.998 54.3299 171.73 54.3299 171.415V168.456H55.8039V174H54.5059L54.3849 173.098C54.2236 173.413 53.9852 173.666 53.6699 173.857C53.3546 174.04 52.9806 174.132 52.5479 174.132Z" fill="#EF4444"/>
<path d="M239.114 236L236.906 227.6H238.634L240.098 234.164L241.826 227.6H243.614L245.294 234.164L246.77 227.6H248.51L246.242 236H244.31L242.702 229.88L241.034 236H239.114ZM249.633 236V229.952H251.253V236H249.633ZM250.449 229.124C250.161 229.124 249.921 229.04 249.729 228.872C249.545 228.696 249.453 228.476 249.453 228.212C249.453 227.948 249.545 227.732 249.729 227.564C249.921 227.388 250.161 227.3 250.449 227.3C250.745 227.3 250.985 227.388 251.169 227.564C251.361 227.732 251.457 227.948 251.457 228.212C251.457 228.476 251.361 228.696 251.169 228.872C250.985 229.04 250.745 229.124 250.449 229.124ZM255.614 236C255.19 236 254.818 235.936 254.498 235.808C254.186 235.672 253.942 235.452 253.766 235.148C253.59 234.836 253.502 234.412 253.502 233.876V231.308H252.47V229.952H253.502L253.682 228.308H255.122V229.952H256.718V231.308H255.122V233.9C255.122 234.172 255.182 234.36 255.302 234.464C255.422 234.568 255.626 234.62 255.914 234.62H256.706V236H255.614ZM258.081 236V227.36H259.701V230.852C259.901 230.532 260.165 230.28 260.493 230.096C260.829 229.904 261.217 229.808 261.657 229.808C262.161 229.808 262.585 229.916 262.929 230.132C263.273 230.34 263.533 230.644 263.709 231.044C263.885 231.444 263.973 231.94 263.973 232.532V236H262.365V232.676C262.365 232.196 262.265 231.828 262.065 231.572C261.865 231.308 261.549 231.176 261.117 231.176C260.853 231.176 260.613 231.24 260.397 231.368C260.181 231.496 260.009 231.684 259.881 231.932C259.761 232.172 259.701 232.46 259.701 232.796V236H258.081ZM268.355 236.144C267.779 236.144 267.259 236.012 266.795 235.748C266.339 235.476 265.975 235.104 265.703 234.632C265.439 234.152 265.307 233.604 265.307 232.988C265.307 232.356 265.439 231.804 265.703 231.332C265.975 230.852 266.343 230.48 266.807 230.216C267.271 229.944 267.791 229.808 268.367 229.808C268.951 229.808 269.471 229.944 269.927 230.216C270.391 230.48 270.755 230.852 271.019 231.332C271.291 231.804 271.427 232.352 271.427 232.976C271.427 233.6 271.291 234.152 271.019 234.632C270.755 235.104 270.391 235.476 269.927 235.748C269.463 236.012 268.939 236.144 268.355 236.144ZM268.355 234.74C268.627 234.74 268.867 234.676 269.075 234.548C269.291 234.42 269.459 234.224 269.579 233.96C269.707 233.696 269.771 233.368 269.771 232.976C269.771 232.584 269.707 232.26 269.579 232.004C269.459 231.74 269.291 231.544 269.075 231.416C268.867 231.28 268.631 231.212 268.367 231.212C268.111 231.212 267.875 231.28 267.659 231.416C267.443 231.544 267.271 231.74 267.143 232.004C267.023 232.26 266.963 232.584 266.963 232.976C266.963 233.368 267.023 233.696 267.143 233.96C267.271 234.224 267.439 234.42 267.647 234.548C267.863 234.676 268.099 234.74 268.355 234.74ZM275.079 236.144C274.591 236.144 274.171 236.044 273.819 235.844C273.475 235.636 273.211 235.336 273.027 234.944C272.843 234.544 272.751 234.052 272.751 233.468V229.952H274.371V233.3C274.371 233.788 274.471 234.156 274.671 234.404C274.879 234.652 275.195 234.776 275.619 234.776C275.891 234.776 276.131 234.716 276.339 234.596C276.547 234.468 276.711 234.288 276.831 234.056C276.959 233.816 277.023 233.524 277.023 233.18V229.952H278.631V236H277.215L277.083 235.016C276.907 235.36 276.647 235.636 276.303 235.844C275.959 236.044 275.551 236.144 275.079 236.144ZM282.942 236C282.518 236 282.146 235.936 281.826 235.808C281.514 235.672 281.27 235.452 281.094 235.148C280.918 234.836 280.83 234.412 280.83 233.876V231.308H279.798V229.952H280.83L281.01 228.308H282.45V229.952H284.046V231.308H282.45V233.9C282.45 234.172 282.51 234.36 282.63 234.464C282.75 234.568 282.954 234.62 283.242 234.62H284.034V236H282.942ZM291.161 236.144C290.553 236.144 290.009 236.04 289.529 235.832C289.057 235.624 288.681 235.32 288.401 234.92C288.129 234.52 287.989 234.036 287.981 233.468H289.697C289.705 233.716 289.769 233.94 289.889 234.14C290.009 234.34 290.173 234.5 290.381 234.62C290.597 234.732 290.853 234.788 291.149 234.788C291.405 234.788 291.625 234.748 291.809 234.668C292.001 234.58 292.149 234.46 292.253 234.308C292.357 234.156 292.409 233.976 292.409 233.768C292.409 233.528 292.349 233.328 292.229 233.168C292.117 233.008 291.957 232.872 291.749 232.76C291.549 232.648 291.313 232.548 291.041 232.46C290.777 232.364 290.497 232.264 290.201 232.16C289.537 231.944 289.029 231.656 288.677 231.296C288.333 230.936 288.161 230.46 288.161 229.868C288.161 229.364 288.281 228.932 288.521 228.572C288.769 228.212 289.109 227.936 289.541 227.744C289.973 227.552 290.465 227.456 291.017 227.456C291.585 227.456 292.081 227.556 292.505 227.756C292.937 227.948 293.277 228.228 293.525 228.596C293.781 228.964 293.913 229.396 293.921 229.892H292.193C292.185 229.708 292.129 229.536 292.025 229.376C291.929 229.208 291.793 229.076 291.617 228.98C291.441 228.876 291.233 228.824 290.993 228.824C290.785 228.816 290.593 228.848 290.417 228.92C290.249 228.992 290.113 229.1 290.009 229.244C289.913 229.38 289.865 229.552 289.865 229.76C289.865 229.96 289.913 230.128 290.009 230.264C290.113 230.4 290.253 230.52 290.429 230.624C290.605 230.72 290.813 230.812 291.053 230.9C291.293 230.98 291.553 231.064 291.833 231.152C292.249 231.296 292.633 231.468 292.985 231.668C293.337 231.86 293.617 232.112 293.825 232.424C294.033 232.736 294.137 233.148 294.137 233.66C294.137 234.1 294.021 234.508 293.789 234.884C293.557 235.26 293.221 235.564 292.781 235.796C292.349 236.028 291.809 236.144 291.161 236.144ZM296.244 238.64L297.708 235.328H297.348L294.924 229.952H296.688L298.416 233.852L299.976 229.952H301.692L297.96 238.64H296.244ZM302.718 236V229.952H304.146L304.278 230.756C304.47 230.468 304.722 230.24 305.034 230.072C305.354 229.896 305.718 229.808 306.126 229.808C306.43 229.808 306.702 229.848 306.942 229.928C307.182 230.008 307.394 230.124 307.578 230.276C307.77 230.428 307.926 230.62 308.046 230.852C308.27 230.524 308.562 230.268 308.922 230.084C309.282 229.9 309.674 229.808 310.098 229.808C310.626 229.808 311.066 229.916 311.418 230.132C311.77 230.34 312.034 230.644 312.21 231.044C312.394 231.444 312.486 231.936 312.486 232.52V236H310.878V232.664C310.878 232.184 310.782 231.816 310.59 231.56C310.406 231.304 310.118 231.176 309.726 231.176C309.47 231.176 309.242 231.24 309.042 231.368C308.842 231.496 308.686 231.68 308.574 231.92C308.47 232.16 308.418 232.448 308.418 232.784V236H306.798V232.664C306.798 232.184 306.702 231.816 306.51 231.56C306.318 231.304 306.022 231.176 305.622 231.176C305.374 231.176 305.15 231.24 304.95 231.368C304.758 231.496 304.606 231.68 304.494 231.92C304.39 232.16 304.338 232.448 304.338 232.784V236H302.718ZM314.015 236V229.952H315.443L315.575 230.756C315.767 230.468 316.019 230.24 316.331 230.072C316.651 229.896 317.015 229.808 317.423 229.808C317.727 229.808 317.999 229.848 318.239 229.928C318.479 230.008 318.691 230.124 318.875 230.276C319.067 230.428 319.223 230.62 319.343 230.852C319.567 230.524 319.859 230.268 320.219 230.084C320.579 229.9 320.971 229.808 321.395 229.808C321.923 229.808 322.363 229.916 322.715 230.132C323.067 230.34 323.331 230.644 323.507 231.044C323.691 231.444 323.783 231.936 323.783 232.52V236H322.175V232.664C322.175 232.184 322.079 231.816 321.887 231.56C321.703 231.304 321.415 231.176 321.023 231.176C320.767 231.176 320.539 231.24 320.339 231.368C320.139 231.496 319.983 231.68 319.871 231.92C319.767 232.16 319.715 232.448 319.715 232.784V236H318.095V232.664C318.095 232.184 317.999 231.816 317.807 231.56C317.615 231.304 317.319 231.176 316.919 231.176C316.671 231.176 316.447 231.24 316.247 231.368C316.055 231.496 315.903 231.68 315.791 231.92C315.687 232.16 315.635 232.448 315.635 232.784V236H314.015ZM328.216 236.144C327.608 236.144 327.068 236.016 326.596 235.76C326.132 235.496 325.768 235.132 325.504 234.668C325.248 234.196 325.12 233.652 325.12 233.036C325.12 232.404 325.248 231.848 325.504 231.368C325.768 230.88 326.132 230.5 326.596 230.228C327.06 229.948 327.6 229.808 328.216 229.808C328.816 229.808 329.34 229.94 329.788 230.204C330.236 230.468 330.584 230.824 330.832 231.272C331.08 231.72 331.204 232.228 331.204 232.796C331.204 232.876 331.204 232.968 331.204 233.072C331.204 233.168 331.196 233.268 331.18 233.372H326.272V232.388H329.572C329.548 231.996 329.408 231.688 329.152 231.464C328.904 231.24 328.592 231.128 328.216 231.128C327.944 231.128 327.692 231.192 327.46 231.32C327.228 231.44 327.044 231.628 326.908 231.884C326.78 232.14 326.716 232.464 326.716 232.856V233.204C326.716 233.532 326.776 233.82 326.896 234.068C327.024 234.308 327.2 234.496 327.424 234.632C327.648 234.76 327.908 234.824 328.204 234.824C328.5 234.824 328.744 234.76 328.936 234.632C329.136 234.504 329.284 234.34 329.38 234.14H331.036C330.924 234.516 330.736 234.856 330.472 235.16C330.208 235.464 329.884 235.704 329.5 235.88C329.116 236.056 328.688 236.144 328.216 236.144ZM335.172 236C334.748 236 334.376 235.936 334.056 235.808C333.744 235.672 333.5 235.452 333.324 235.148C333.148 234.836 333.06 234.412 333.06 233.876V231.308H332.028V229.952H333.06L333.24 228.308H334.68V229.952H336.276V231.308H334.68V233.9C334.68 234.172 334.74 234.36 334.86 234.464C334.98 234.568 335.184 234.62 335.472 234.62H336.264V236H335.172ZM337.64 236V229.952H339.08L339.236 231.068C339.38 230.804 339.56 230.58 339.776 230.396C340 230.212 340.252 230.068 340.532 229.964C340.82 229.86 341.136 229.808 341.48 229.808V231.524H340.928C340.688 231.524 340.464 231.552 340.256 231.608C340.056 231.664 339.88 231.756 339.728 231.884C339.576 232.004 339.46 232.172 339.38 232.388C339.3 232.604 339.26 232.876 339.26 233.204V236H337.64ZM343.318 238.64L344.782 235.328H344.422L341.998 229.952H343.762L345.49 233.852L347.05 229.952H348.766L345.034 238.64H343.318Z" fill="#EF4444"/>
</g>
<defs>
<filter id="filter0_f_26457_11142" x="8.64023" y="52.9625" width="354.438" height="208.774" filterUnits="userSpaceOnUse" color-interpolation-filters="sRGB">
<feFlood flood-opacity="0" result="BackgroundImageFix"/>
<feBlend mode="normal" in="SourceGraphic" in2="BackgroundImageFix" result="shape"/>
<feGaussianBlur stdDeviation="5.05" result="effect1_foregroundBlur_26457_11142"/>
</filter>
<filter id="filter1_f_26457_11142" x="8.81016" y="165.232" width="354.718" height="110.774" filterUnits="userSpaceOnUse" color-interpolation-filters="sRGB">
<feFlood flood-opacity="0" result="BackgroundImageFix"/>
<feBlend mode="normal" in="SourceGraphic" in2="BackgroundImageFix" result="shape"/>
<feGaussianBlur stdDeviation="6.05" result="effect1_foregroundBlur_26457_11142"/>
</filter>
<linearGradient id="paint0_linear_26457_11142" x1="194" y1="1.12031e-07" x2="190.706" y2="339.987" gradientUnits="userSpaceOnUse">
<stop offset="0.649038" stop-color="#D9D9D9"/>
<stop offset="0.870192" stop-color="#A6A6A6" stop-opacity="0.3"/>
<stop offset="1" stop-color="#737373" stop-opacity="0"/>
</linearGradient>
<linearGradient id="paint1_linear_26457_11142" x1="361.512" y1="57.3989" x2="154.362" y2="231.774" gradientUnits="userSpaceOnUse">
<stop offset="0.101032" stop-color="#3781FA"/>
<stop offset="1" stop-color="#91C5FF"/>
</linearGradient>
<linearGradient id="paint2_linear_26457_11142" x1="386.002" y1="145" x2="33.074" y2="228.937" gradientUnits="userSpaceOnUse">
<stop stop-color="#64A3FD" stop-opacity="0"/>
<stop offset="0.3125" stop-color="#3781FA" stop-opacity="0.3"/>
<stop offset="1" stop-color="#91C5FF" stop-opacity="0"/>
</linearGradient>
<linearGradient id="paint3_linear_26457_11142" x1="361.512" y1="57.3989" x2="154.362" y2="231.774" gradientUnits="userSpaceOnUse">
<stop offset="0.101032" stop-color="#3781FA"/>
<stop offset="1" stop-color="#91C5FF"/>
</linearGradient>
<linearGradient id="paint4_linear_26457_11142" x1="350.654" y1="63.4908" x2="338.285" y2="74.6862" gradientUnits="userSpaceOnUse">
<stop stop-color="#91C5FF"/>
<stop offset="1" stop-color="#3781FA"/>
</linearGradient>
<linearGradient id="paint5_linear_26457_11142" x1="286.564" y1="213.091" x2="46.2367" y2="394.556" gradientUnits="userSpaceOnUse">
<stop offset="0.101032" stop-color="#EF4444"/>
<stop offset="1" stop-color="#F29393"/>
</linearGradient>
<linearGradient id="paint6_linear_26457_11142" x1="350.916" y1="179.078" x2="115.262" y2="248.699" gradientUnits="userSpaceOnUse">
<stop offset="0.101032" stop-color="#EF4444"/>
<stop offset="1" stop-color="#F29393"/>
</linearGradient>
<linearGradient id="paint7_linear_26457_11142" x1="7.79974" y1="265.5" x2="386.126" y2="240.33" gradientUnits="userSpaceOnUse">
<stop stop-color="#F29393" stop-opacity="0"/>
<stop offset="0.548077" stop-color="#EF4444" stop-opacity="0.3"/>
<stop offset="1" stop-color="#F16C6C" stop-opacity="0"/>
</linearGradient>
<linearGradient id="paint8_linear_26457_11142" x1="21.502" y1="232" x2="21.502" y2="259" gradientUnits="userSpaceOnUse">
<stop stop-color="#FF6868"/>
<stop offset="1" stop-color="#993F3F"/>
</linearGradient>
<linearGradient id="paint9_linear_26457_11142" x1="355.654" y1="179.491" x2="343.285" y2="190.686" gradientUnits="userSpaceOnUse">
<stop stop-color="#F29393"/>
<stop offset="1" stop-color="#EF4444"/>
</linearGradient>
</defs>
</svg>
