<svg width="24" height="24" viewBox="0 0 24 24" fill="none" xmlns="http://www.w3.org/2000/svg">
<g clip-path="url(#clip0_12746_876)">
<g clip-path="url(#clip1_12746_876)">
<g filter="url(#filter0_d_12746_876)">
<path d="M14.0854 19.9057C12.8419 20.7933 11.1581 20.7933 9.91462 19.9057L3.96272 15.657C2.71924 14.7692 2.19892 13.1958 2.67389 11.7595L4.94731 4.88488C5.42228 3.44862 6.7845 2.47619 8.32153 2.47619H15.6785C17.2155 2.47619 18.5777 3.44862 19.0527 4.88488L21.3261 11.7595C21.8011 13.1958 21.2808 14.7692 20.0373 15.657L14.0854 19.9057Z" fill="url(#paint0_linear_12746_876)"/>
<path d="M8.3213 3.42857H15.6787C16.7619 3.42867 17.7495 4.11551 18.0986 5.17057L20.3721 12.0456C20.7226 13.1054 20.3334 14.2557 19.4375 14.8952L13.4854 19.1438C12.5974 19.7774 11.4026 19.7774 10.5147 19.1438L4.56251 14.8952C3.66661 14.2557 3.27745 13.1054 3.62794 12.0456L5.90138 5.17057C6.25049 4.11551 7.2381 3.42867 8.3213 3.42857Z" stroke="black" stroke-opacity="0.24" stroke-width="2"/>
</g>
<path d="M11.6976 8.65177C11.8243 8.41767 12.1757 8.41767 12.3024 8.65177L13.1074 10.1391C13.1398 10.199 13.191 10.2478 13.2539 10.2787L14.8156 11.0453C15.0615 11.166 15.0615 11.5007 14.8156 11.6213L13.2539 12.388C13.191 12.4189 13.1398 12.4676 13.1074 12.5275L12.3024 14.0149C12.1757 14.2491 11.8243 14.2491 11.6976 14.0149L10.8926 12.5275C10.8602 12.4676 10.809 12.4189 10.7461 12.388L9.18436 11.6213C8.93855 11.5007 8.93855 11.166 9.18436 11.0453L10.7461 10.2787C10.809 10.2478 10.8602 10.199 10.8926 10.1391L11.6976 8.65177Z" fill="#F9FAFB"/>
<g clip-path="url(#paint1_angular_12746_876_clip_path)" data-figma-skip-parse="true"><g transform="matrix(0 0.00285714 -0.003 0 12 11.3333)"><foreignObject x="-1350.01" y="-1350.01" width="2700.01" height="2700.01"><div xmlns="http://www.w3.org/1999/xhtml" style="background:conic-gradient(from 90deg,rgba(255, 255, 255, 1) 0deg,rgba(224, 224, 224, 1) 360deg);height:100%;width:100%;opacity:0.5"></div></foreignObject></g></g><path d="M11.6976 8.65177C11.8243 8.41767 12.1757 8.41767 12.3024 8.65177L13.1074 10.1391C13.1398 10.199 13.191 10.2478 13.2539 10.2787L14.8156 11.0453C15.0615 11.166 15.0615 11.5007 14.8156 11.6213L13.2539 12.388C13.191 12.4189 13.1398 12.4676 13.1074 12.5275L12.3024 14.0149C12.1757 14.2491 11.8243 14.2491 11.6976 14.0149L10.8926 12.5275C10.8602 12.4676 10.809 12.4189 10.7461 12.388L9.18436 11.6213C8.93855 11.5007 8.93855 11.166 9.18436 11.0453L10.7461 10.2787C10.809 10.2478 10.8602 10.199 10.8926 10.1391L11.6976 8.65177Z" data-figma-gradient-fill="{&#34;type&#34;:&#34;GRADIENT_ANGULAR&#34;,&#34;stops&#34;:[{&#34;color&#34;:{&#34;r&#34;:1.0,&#34;g&#34;:1.0,&#34;b&#34;:1.0,&#34;a&#34;:1.0},&#34;position&#34;:0.0},{&#34;color&#34;:{&#34;r&#34;:0.87843137979507446,&#34;g&#34;:0.87843137979507446,&#34;b&#34;:0.87843137979507446,&#34;a&#34;:1.0},&#34;position&#34;:1.0}],&#34;stopsVar&#34;:[{&#34;color&#34;:{&#34;r&#34;:1.0,&#34;g&#34;:1.0,&#34;b&#34;:1.0,&#34;a&#34;:1.0},&#34;position&#34;:0.0},{&#34;color&#34;:{&#34;r&#34;:0.87843137979507446,&#34;g&#34;:0.87843137979507446,&#34;b&#34;:0.87843137979507446,&#34;a&#34;:1.0},&#34;position&#34;:1.0}],&#34;transform&#34;:{&#34;m00&#34;:3.6739405577555036e-16,&#34;m01&#34;:-6.0,&#34;m02&#34;:14.999997138977051,&#34;m10&#34;:5.7142858505249023,&#34;m11&#34;:3.4989909317582522e-16,&#34;m12&#34;:8.47619628906250},&#34;opacity&#34;:0.50,&#34;blendMode&#34;:&#34;NORMAL&#34;,&#34;visible&#34;:true}"/>
<g clip-path="url(#paint2_angular_12746_876_clip_path)" data-figma-skip-parse="true"><g transform="matrix(-0.003 0 0 -0.00285714 12 11.3333)"><foreignObject x="-1350.01" y="-1350.01" width="2700.01" height="2700.01"><div xmlns="http://www.w3.org/1999/xhtml" style="background:conic-gradient(from 90deg,rgba(255, 255, 255, 1) 0deg,rgba(224, 224, 224, 1) 360deg);height:100%;width:100%;opacity:0.5"></div></foreignObject></g></g><path d="M11.6976 8.65177C11.8243 8.41767 12.1757 8.41767 12.3024 8.65177L13.1074 10.1391C13.1398 10.199 13.191 10.2478 13.2539 10.2787L14.8156 11.0453C15.0615 11.166 15.0615 11.5007 14.8156 11.6213L13.2539 12.388C13.191 12.4189 13.1398 12.4676 13.1074 12.5275L12.3024 14.0149C12.1757 14.2491 11.8243 14.2491 11.6976 14.0149L10.8926 12.5275C10.8602 12.4676 10.809 12.4189 10.7461 12.388L9.18436 11.6213C8.93855 11.5007 8.93855 11.166 9.18436 11.0453L10.7461 10.2787C10.809 10.2478 10.8602 10.199 10.8926 10.1391L11.6976 8.65177Z" data-figma-gradient-fill="{&#34;type&#34;:&#34;GRADIENT_ANGULAR&#34;,&#34;stops&#34;:[{&#34;color&#34;:{&#34;r&#34;:1.0,&#34;g&#34;:1.0,&#34;b&#34;:1.0,&#34;a&#34;:1.0},&#34;position&#34;:0.0},{&#34;color&#34;:{&#34;r&#34;:0.87843137979507446,&#34;g&#34;:0.87843137979507446,&#34;b&#34;:0.87843137979507446,&#34;a&#34;:1.0},&#34;position&#34;:1.0}],&#34;stopsVar&#34;:[{&#34;color&#34;:{&#34;r&#34;:1.0,&#34;g&#34;:1.0,&#34;b&#34;:1.0,&#34;a&#34;:1.0},&#34;position&#34;:0.0},{&#34;color&#34;:{&#34;r&#34;:0.87843137979507446,&#34;g&#34;:0.87843137979507446,&#34;b&#34;:0.87843137979507446,&#34;a&#34;:1.0},&#34;position&#34;:1.0}],&#34;transform&#34;:{&#34;m00&#34;:-6.0,&#34;m01&#34;:-6.3918971027546179e-13,&#34;m02&#34;:14.999997138977051,&#34;m10&#34;:-2.7117891265859839e-13,&#34;m11&#34;:-5.7142858505249023,&#34;m12&#34;:14.190483093261719},&#34;opacity&#34;:0.50,&#34;blendMode&#34;:&#34;NORMAL&#34;,&#34;visible&#34;:true}"/>
<path d="M11.3184 8.33204C11.6491 7.88954 12.3509 7.88954 12.6816 8.33204L12.7471 8.43341L13.5283 9.87687L15.0449 10.6218C15.6519 10.9198 15.6519 11.7469 15.0449 12.0449L13.5283 12.7889L12.7471 14.2332C12.4342 14.8113 11.5658 14.8113 11.2529 14.2332L10.4707 12.7889L8.95508 12.0449C8.34814 11.7469 8.34814 10.9198 8.95508 10.6218L10.4707 9.87687L11.2529 8.43341L11.3184 8.33204Z" stroke="black" stroke-opacity="0.16"/>
<path d="M17.5776 3.01928C18.2591 3.44393 18.7914 4.0934 19.0532 4.88497L20.2622 8.5429L9.01022 19.26L4.16061 15.7973L17.5776 3.01928Z" fill="white" fill-opacity="0.32"/>
</g>
<g clip-path="url(#clip2_12746_876)">
<g filter="url(#filter1_d_12746_876)">
<path d="M14.0854 19.9057C12.8419 20.7933 11.1581 20.7933 9.91462 19.9057L3.96272 15.657C2.71924 14.7692 2.19892 13.1958 2.67389 11.7595L4.94731 4.88488C5.42228 3.44862 6.7845 2.47619 8.32153 2.47619H15.6785C17.2155 2.47619 18.5777 3.44862 19.0527 4.88488L21.3261 11.7595C21.8011 13.1958 21.2808 14.7692 20.0373 15.657L14.0854 19.9057Z" fill="url(#paint3_linear_12746_876)"/>
<path d="M8.3213 3.42857H15.6787C16.7619 3.42867 17.7495 4.11551 18.0986 5.17057L20.3721 12.0456C20.7226 13.1054 20.3334 14.2557 19.4375 14.8952L13.4854 19.1438C12.5974 19.7774 11.4026 19.7774 10.5147 19.1438L4.56251 14.8952C3.66661 14.2557 3.27745 13.1054 3.62794 12.0456L5.90138 5.17057C6.25049 4.11551 7.2381 3.42867 8.3213 3.42857Z" stroke="black" stroke-opacity="0.24" stroke-width="2"/>
</g>
<g clip-path="url(#paint4_angular_12746_876_clip_path)" data-figma-skip-parse="true"><g transform="matrix(0 0.00285714 -0.003 0 12 11.3333)"><foreignObject x="-1350.01" y="-1350.01" width="2700.01" height="2700.01"><div xmlns="http://www.w3.org/1999/xhtml" style="background:conic-gradient(from 90deg,rgba(255, 255, 255, 1) 0deg,rgba(224, 224, 224, 1) 360deg);height:100%;width:100%;opacity:0.5"></div></foreignObject></g></g><path d="M11.6976 8.65177C11.8243 8.41767 12.1757 8.41767 12.3024 8.65177L13.1074 10.1391C13.1398 10.199 13.191 10.2478 13.2539 10.2787L14.8156 11.0453C15.0615 11.166 15.0615 11.5007 14.8156 11.6213L13.2539 12.388C13.191 12.4189 13.1398 12.4676 13.1074 12.5275L12.3024 14.0149C12.1757 14.2491 11.8243 14.2491 11.6976 14.0149L10.8926 12.5275C10.8602 12.4676 10.809 12.4189 10.7461 12.388L9.18436 11.6213C8.93855 11.5007 8.93855 11.166 9.18436 11.0453L10.7461 10.2787C10.809 10.2478 10.8602 10.199 10.8926 10.1391L11.6976 8.65177Z" data-figma-gradient-fill="{&#34;type&#34;:&#34;GRADIENT_ANGULAR&#34;,&#34;stops&#34;:[{&#34;color&#34;:{&#34;r&#34;:1.0,&#34;g&#34;:1.0,&#34;b&#34;:1.0,&#34;a&#34;:1.0},&#34;position&#34;:0.0},{&#34;color&#34;:{&#34;r&#34;:0.87843137979507446,&#34;g&#34;:0.87843137979507446,&#34;b&#34;:0.87843137979507446,&#34;a&#34;:1.0},&#34;position&#34;:1.0}],&#34;stopsVar&#34;:[{&#34;color&#34;:{&#34;r&#34;:1.0,&#34;g&#34;:1.0,&#34;b&#34;:1.0,&#34;a&#34;:1.0},&#34;position&#34;:0.0},{&#34;color&#34;:{&#34;r&#34;:0.87843137979507446,&#34;g&#34;:0.87843137979507446,&#34;b&#34;:0.87843137979507446,&#34;a&#34;:1.0},&#34;position&#34;:1.0}],&#34;transform&#34;:{&#34;m00&#34;:3.6739405577555036e-16,&#34;m01&#34;:-6.0,&#34;m02&#34;:14.999997138977051,&#34;m10&#34;:5.7142858505249023,&#34;m11&#34;:3.4989909317582522e-16,&#34;m12&#34;:8.47619628906250},&#34;opacity&#34;:0.50,&#34;blendMode&#34;:&#34;NORMAL&#34;,&#34;visible&#34;:true}"/>
<path d="M11.6976 8.65177C11.8243 8.41767 12.1757 8.41767 12.3024 8.65177L13.1074 10.1391C13.1398 10.199 13.191 10.2478 13.2539 10.2787L14.8156 11.0453C15.0615 11.166 15.0615 11.5007 14.8156 11.6213L13.2539 12.388C13.191 12.4189 13.1398 12.4676 13.1074 12.5275L12.3024 14.0149C12.1757 14.2491 11.8243 14.2491 11.6976 14.0149L10.8926 12.5275C10.8602 12.4676 10.809 12.4189 10.7461 12.388L9.18436 11.6213C8.93855 11.5007 8.93855 11.166 9.18436 11.0453L10.7461 10.2787C10.809 10.2478 10.8602 10.199 10.8926 10.1391L11.6976 8.65177Z" fill="#F9FAFB"/>
<g clip-path="url(#paint5_angular_12746_876_clip_path)" data-figma-skip-parse="true"><g transform="matrix(-0.003 0 0 -0.00285714 12 11.3333)"><foreignObject x="-1350.01" y="-1350.01" width="2700.01" height="2700.01"><div xmlns="http://www.w3.org/1999/xhtml" style="background:conic-gradient(from 90deg,rgba(255, 255, 255, 1) 0deg,rgba(224, 224, 224, 1) 360deg);height:100%;width:100%;opacity:0.5"></div></foreignObject></g></g><path d="M11.6976 8.65177C11.8243 8.41767 12.1757 8.41767 12.3024 8.65177L13.1074 10.1391C13.1398 10.199 13.191 10.2478 13.2539 10.2787L14.8156 11.0453C15.0615 11.166 15.0615 11.5007 14.8156 11.6213L13.2539 12.388C13.191 12.4189 13.1398 12.4676 13.1074 12.5275L12.3024 14.0149C12.1757 14.2491 11.8243 14.2491 11.6976 14.0149L10.8926 12.5275C10.8602 12.4676 10.809 12.4189 10.7461 12.388L9.18436 11.6213C8.93855 11.5007 8.93855 11.166 9.18436 11.0453L10.7461 10.2787C10.809 10.2478 10.8602 10.199 10.8926 10.1391L11.6976 8.65177Z" data-figma-gradient-fill="{&#34;type&#34;:&#34;GRADIENT_ANGULAR&#34;,&#34;stops&#34;:[{&#34;color&#34;:{&#34;r&#34;:1.0,&#34;g&#34;:1.0,&#34;b&#34;:1.0,&#34;a&#34;:1.0},&#34;position&#34;:0.0},{&#34;color&#34;:{&#34;r&#34;:0.87843137979507446,&#34;g&#34;:0.87843137979507446,&#34;b&#34;:0.87843137979507446,&#34;a&#34;:1.0},&#34;position&#34;:1.0}],&#34;stopsVar&#34;:[{&#34;color&#34;:{&#34;r&#34;:1.0,&#34;g&#34;:1.0,&#34;b&#34;:1.0,&#34;a&#34;:1.0},&#34;position&#34;:0.0},{&#34;color&#34;:{&#34;r&#34;:0.87843137979507446,&#34;g&#34;:0.87843137979507446,&#34;b&#34;:0.87843137979507446,&#34;a&#34;:1.0},&#34;position&#34;:1.0}],&#34;transform&#34;:{&#34;m00&#34;:-6.0,&#34;m01&#34;:-6.3918971027546179e-13,&#34;m02&#34;:14.999997138977051,&#34;m10&#34;:-2.7117891265859839e-13,&#34;m11&#34;:-5.7142858505249023,&#34;m12&#34;:14.190483093261719},&#34;opacity&#34;:0.50,&#34;blendMode&#34;:&#34;NORMAL&#34;,&#34;visible&#34;:true}"/>
<path d="M11.3184 8.33204C11.6491 7.88954 12.3509 7.88954 12.6816 8.33204L12.7471 8.43341L13.5283 9.87687L15.0449 10.6218C15.6519 10.9198 15.6519 11.7469 15.0449 12.0449L13.5283 12.7889L12.7471 14.2332C12.4342 14.8113 11.5658 14.8113 11.2529 14.2332L10.4707 12.7889L8.95508 12.0449C8.34814 11.7469 8.34814 10.9198 8.95508 10.6218L10.4707 9.87687L11.2529 8.43341L11.3184 8.33204Z" stroke="black" stroke-opacity="0.16"/>
<path d="M17.5776 3.01928C18.2591 3.44393 18.7914 4.0934 19.0532 4.88497L20.2622 8.5429L9.01022 19.26L4.16061 15.7973L17.5776 3.01928Z" fill="white" fill-opacity="0.32"/>
</g>
<g filter="url(#filter2_d_12746_876)">
<path d="M14.3005 22V21.7862L14.4925 21.7251C14.6205 21.6776 14.7037 21.6165 14.7421 21.5418C14.7869 21.4604 14.8093 21.3484 14.8093 21.2058V16.064C14.8093 15.9215 14.7869 15.8128 14.7421 15.7382C14.7037 15.6567 14.6205 15.5922 14.4925 15.5447L14.3005 15.4836V15.2698H16.7005V15.4836L16.5085 15.5447C16.3869 15.5922 16.3037 15.6567 16.2589 15.7382C16.2141 15.8128 16.1917 15.9215 16.1917 16.064V21.2058C16.1917 21.3484 16.2141 21.4604 16.2589 21.5418C16.3037 21.6165 16.3869 21.6776 16.5085 21.7251L16.7005 21.7862V22H14.3005Z" fill="#FEF9C3"/>
</g>
<g filter="url(#filter3_d_12746_876)">
<path d="M17.8005 22V21.7862L17.9925 21.7251C18.1205 21.6776 18.2037 21.6165 18.2421 21.5418C18.2869 21.4604 18.3093 21.3484 18.3093 21.2058V16.064C18.3093 15.9215 18.2869 15.8128 18.2421 15.7382C18.2037 15.6567 18.1205 15.5922 17.9925 15.5447L17.8005 15.4836V15.2698H20.2005V15.4836L20.0085 15.5447C19.8869 15.5922 19.8037 15.6567 19.7589 15.7382C19.7141 15.8128 19.6917 15.9215 19.6917 16.064V21.2058C19.6917 21.3484 19.7141 21.4604 19.7589 21.5418C19.8037 21.6165 19.8869 21.6776 20.0085 21.7251L20.2005 21.7862V22H17.8005Z" fill="#FEF9C3"/>
</g>
<g filter="url(#filter4_d_12746_876)">
<path d="M21.3005 22V21.7862L21.4925 21.7251C21.6205 21.6776 21.7037 21.6165 21.7421 21.5418C21.7869 21.4604 21.8093 21.3484 21.8093 21.2058V16.064C21.8093 15.9215 21.7869 15.8128 21.7421 15.7382C21.7037 15.6567 21.6205 15.5922 21.4925 15.5447L21.3005 15.4836V15.2698H23.7005V15.4836L23.5085 15.5447C23.3869 15.5922 23.3037 15.6567 23.2589 15.7382C23.2141 15.8128 23.1917 15.9215 23.1917 16.064V21.2058C23.1917 21.3484 23.2141 21.4604 23.2589 21.5418C23.3037 21.6165 23.3869 21.6776 23.5085 21.7251L23.7005 21.7862V22H21.3005Z" fill="#FEF9C3"/>
</g>
</g>
<defs>
<filter id="filter0_d_12746_876" x="2.49991" y="2.42857" width="19.0002" height="19.1905" filterUnits="userSpaceOnUse" color-interpolation-filters="sRGB">
<feFlood flood-opacity="0" result="BackgroundImageFix"/>
<feColorMatrix in="SourceAlpha" type="matrix" values="0 0 0 0 0 0 0 0 0 0 0 0 0 0 0 0 0 0 127 0" result="hardAlpha"/>
<feOffset dy="1"/>
<feComposite in2="hardAlpha" operator="out"/>
<feColorMatrix type="matrix" values="0 0 0 0 0.300741 0 0 0 0 0.171852 0 0 0 0 0.0192593 0 0 0 1 0"/>
<feBlend mode="normal" in2="BackgroundImageFix" result="effect1_dropShadow_12746_876"/>
<feBlend mode="normal" in="SourceGraphic" in2="effect1_dropShadow_12746_876" result="shape"/>
</filter>
<clipPath id="paint1_angular_12746_876_clip_path"><path d="M11.6976 8.65177C11.8243 8.41767 12.1757 8.41767 12.3024 8.65177L13.1074 10.1391C13.1398 10.199 13.191 10.2478 13.2539 10.2787L14.8156 11.0453C15.0615 11.166 15.0615 11.5007 14.8156 11.6213L13.2539 12.388C13.191 12.4189 13.1398 12.4676 13.1074 12.5275L12.3024 14.0149C12.1757 14.2491 11.8243 14.2491 11.6976 14.0149L10.8926 12.5275C10.8602 12.4676 10.809 12.4189 10.7461 12.388L9.18436 11.6213C8.93855 11.5007 8.93855 11.166 9.18436 11.0453L10.7461 10.2787C10.809 10.2478 10.8602 10.199 10.8926 10.1391L11.6976 8.65177Z"/></clipPath><clipPath id="paint2_angular_12746_876_clip_path"><path d="M11.6976 8.65177C11.8243 8.41767 12.1757 8.41767 12.3024 8.65177L13.1074 10.1391C13.1398 10.199 13.191 10.2478 13.2539 10.2787L14.8156 11.0453C15.0615 11.166 15.0615 11.5007 14.8156 11.6213L13.2539 12.388C13.191 12.4189 13.1398 12.4676 13.1074 12.5275L12.3024 14.0149C12.1757 14.2491 11.8243 14.2491 11.6976 14.0149L10.8926 12.5275C10.8602 12.4676 10.809 12.4189 10.7461 12.388L9.18436 11.6213C8.93855 11.5007 8.93855 11.166 9.18436 11.0453L10.7461 10.2787C10.809 10.2478 10.8602 10.199 10.8926 10.1391L11.6976 8.65177Z"/></clipPath><filter id="filter1_d_12746_876" x="2.49991" y="2.42857" width="19.0002" height="19.1905" filterUnits="userSpaceOnUse" color-interpolation-filters="sRGB">
<feFlood flood-opacity="0" result="BackgroundImageFix"/>
<feColorMatrix in="SourceAlpha" type="matrix" values="0 0 0 0 0 0 0 0 0 0 0 0 0 0 0 0 0 0 127 0" result="hardAlpha"/>
<feOffset dy="1"/>
<feComposite in2="hardAlpha" operator="out"/>
<feColorMatrix type="matrix" values="0 0 0 0 0.300741 0 0 0 0 0.171852 0 0 0 0 0.0192593 0 0 0 1 0"/>
<feBlend mode="normal" in2="BackgroundImageFix" result="effect1_dropShadow_12746_876"/>
<feBlend mode="normal" in="SourceGraphic" in2="effect1_dropShadow_12746_876" result="shape"/>
</filter>
<clipPath id="paint4_angular_12746_876_clip_path"><path d="M11.6976 8.65177C11.8243 8.41767 12.1757 8.41767 12.3024 8.65177L13.1074 10.1391C13.1398 10.199 13.191 10.2478 13.2539 10.2787L14.8156 11.0453C15.0615 11.166 15.0615 11.5007 14.8156 11.6213L13.2539 12.388C13.191 12.4189 13.1398 12.4676 13.1074 12.5275L12.3024 14.0149C12.1757 14.2491 11.8243 14.2491 11.6976 14.0149L10.8926 12.5275C10.8602 12.4676 10.809 12.4189 10.7461 12.388L9.18436 11.6213C8.93855 11.5007 8.93855 11.166 9.18436 11.0453L10.7461 10.2787C10.809 10.2478 10.8602 10.199 10.8926 10.1391L11.6976 8.65177Z"/></clipPath><clipPath id="paint5_angular_12746_876_clip_path"><path d="M11.6976 8.65177C11.8243 8.41767 12.1757 8.41767 12.3024 8.65177L13.1074 10.1391C13.1398 10.199 13.191 10.2478 13.2539 10.2787L14.8156 11.0453C15.0615 11.166 15.0615 11.5007 14.8156 11.6213L13.2539 12.388C13.191 12.4189 13.1398 12.4676 13.1074 12.5275L12.3024 14.0149C12.1757 14.2491 11.8243 14.2491 11.6976 14.0149L10.8926 12.5275C10.8602 12.4676 10.809 12.4189 10.7461 12.388L9.18436 11.6213C8.93855 11.5007 8.93855 11.166 9.18436 11.0453L10.7461 10.2787C10.809 10.2478 10.8602 10.199 10.8926 10.1391L11.6976 8.65177Z"/></clipPath><filter id="filter2_d_12746_876" x="13.3005" y="14.2698" width="4.39999" height="8.73018" filterUnits="userSpaceOnUse" color-interpolation-filters="sRGB">
<feFlood flood-opacity="0" result="BackgroundImageFix"/>
<feColorMatrix in="SourceAlpha" type="matrix" values="0 0 0 0 0 0 0 0 0 0 0 0 0 0 0 0 0 0 127 0" result="hardAlpha"/>
<feOffset/>
<feGaussianBlur stdDeviation="0.5"/>
<feComposite in2="hardAlpha" operator="out"/>
<feColorMatrix type="matrix" values="0 0 0 0 0.917647 0 0 0 0 0.701961 0 0 0 0 0.0313726 0 0 0 1 0"/>
<feBlend mode="normal" in2="BackgroundImageFix" result="effect1_dropShadow_12746_876"/>
<feBlend mode="normal" in="SourceGraphic" in2="effect1_dropShadow_12746_876" result="shape"/>
</filter>
<filter id="filter3_d_12746_876" x="16.8005" y="14.2698" width="4.39999" height="8.73018" filterUnits="userSpaceOnUse" color-interpolation-filters="sRGB">
<feFlood flood-opacity="0" result="BackgroundImageFix"/>
<feColorMatrix in="SourceAlpha" type="matrix" values="0 0 0 0 0 0 0 0 0 0 0 0 0 0 0 0 0 0 127 0" result="hardAlpha"/>
<feOffset/>
<feGaussianBlur stdDeviation="0.5"/>
<feComposite in2="hardAlpha" operator="out"/>
<feColorMatrix type="matrix" values="0 0 0 0 0.917647 0 0 0 0 0.701961 0 0 0 0 0.0313726 0 0 0 1 0"/>
<feBlend mode="normal" in2="BackgroundImageFix" result="effect1_dropShadow_12746_876"/>
<feBlend mode="normal" in="SourceGraphic" in2="effect1_dropShadow_12746_876" result="shape"/>
</filter>
<filter id="filter4_d_12746_876" x="20.3005" y="14.2698" width="4.39999" height="8.73018" filterUnits="userSpaceOnUse" color-interpolation-filters="sRGB">
<feFlood flood-opacity="0" result="BackgroundImageFix"/>
<feColorMatrix in="SourceAlpha" type="matrix" values="0 0 0 0 0 0 0 0 0 0 0 0 0 0 0 0 0 0 127 0" result="hardAlpha"/>
<feOffset/>
<feGaussianBlur stdDeviation="0.5"/>
<feComposite in2="hardAlpha" operator="out"/>
<feColorMatrix type="matrix" values="0 0 0 0 0.917647 0 0 0 0 0.701961 0 0 0 0 0.0313726 0 0 0 1 0"/>
<feBlend mode="normal" in2="BackgroundImageFix" result="effect1_dropShadow_12746_876"/>
<feBlend mode="normal" in="SourceGraphic" in2="effect1_dropShadow_12746_876" result="shape"/>
</filter>
<linearGradient id="paint0_linear_12746_876" x1="12.0002" y1="21.3943" x2="12.0002" y2="0.478923" gradientUnits="userSpaceOnUse">
<stop stop-color="#EAB308"/>
<stop offset="1" stop-color="#FEF9C3"/>
</linearGradient>
<linearGradient id="paint3_linear_12746_876" x1="12.0002" y1="21.3943" x2="12.0002" y2="0.478923" gradientUnits="userSpaceOnUse">
<stop stop-color="#EAB308"/>
<stop offset="1" stop-color="#FEF9C3"/>
</linearGradient>
<clipPath id="clip0_12746_876">
<rect width="24" height="24" rx="2" fill="white"/>
</clipPath>
<clipPath id="clip1_12746_876">
<rect width="20" height="20" fill="white" transform="translate(2 2)"/>
</clipPath>
<clipPath id="clip2_12746_876">
<rect width="20" height="20" fill="white" transform="translate(2 2)"/>
</clipPath>
</defs>
</svg>
