<svg width="33" height="33" viewBox="0 0 33 33" fill="none" xmlns="http://www.w3.org/2000/svg">
<rect x="0.5" y="0.5" width="32" height="32" rx="16" fill="#1E1E1E"/>
<rect x="0.5" y="0.5" width="32" height="32" rx="16" fill="url(#paint0_linear_31685_14668)" fill-opacity="0.1"/>
<rect x="0.5" y="0.5" width="32" height="32" rx="16" stroke="url(#paint1_linear_31685_14668)"/>
<path fill-rule="evenodd" clip-rule="evenodd" d="M14.7852 12.2144C14.8783 12.2144 14.9689 12.2448 15.0432 12.3009C15.1175 12.357 15.1716 12.4358 15.1972 12.5253L15.6617 14.1517C15.7617 14.502 15.9494 14.821 16.2069 15.0786C16.4645 15.3361 16.7834 15.5238 17.1336 15.6238L18.7598 16.0885C18.8493 16.1141 18.928 16.1682 18.984 16.2425C19.04 16.3168 19.0703 16.4074 19.0703 16.5005C19.0703 16.5936 19.04 16.6841 18.984 16.7585C18.928 16.8328 18.8493 16.8869 18.7598 16.9125L17.1336 17.3771C16.7834 17.4772 16.4645 17.6648 16.2069 17.9224C15.9494 18.18 15.7617 18.499 15.6617 18.8492L15.1972 20.4757C15.1715 20.5652 15.1175 20.6439 15.0431 20.6999C14.9688 20.7559 14.8783 20.7862 14.7852 20.7862C14.6921 20.7862 14.6015 20.7559 14.5272 20.6999C14.4529 20.6439 14.3988 20.5652 14.3732 20.4757L13.9086 18.8492C13.8086 18.499 13.621 18.18 13.3634 17.9224C13.1059 17.6648 12.7869 17.4772 12.4367 17.3771L10.8105 16.9125C10.7211 16.8869 10.6424 16.8328 10.5863 16.7585C10.5303 16.6841 10.5 16.5936 10.5 16.5005C10.5 16.4074 10.5303 16.3168 10.5863 16.2425C10.6424 16.1682 10.7211 16.1141 10.8105 16.0885L12.4367 15.6238C12.7869 15.5238 13.1059 15.3361 13.3634 15.0786C13.621 14.821 13.8086 14.502 13.9086 14.1517L14.3732 12.5253C14.3988 12.4358 14.4528 12.357 14.5271 12.3009C14.6015 12.2448 14.6921 12.2144 14.7852 12.2144ZM19.9278 10.5C20.0234 10.4999 20.1162 10.5319 20.1916 10.5907C20.267 10.6495 20.3205 10.7318 20.3437 10.8246L20.4911 11.4166C20.626 11.9538 21.0454 12.3733 21.5825 12.5082L22.1745 12.6556C22.2674 12.6786 22.35 12.7321 22.409 12.8075C22.4679 12.8829 22.5 12.9759 22.5 13.0716C22.5 13.1674 22.4679 13.2604 22.409 13.3358C22.35 13.4112 22.2674 13.4647 22.1745 13.4877L21.5825 13.6351C21.0454 13.77 20.626 14.1894 20.4911 14.7266L20.3437 15.3187C20.3207 15.4116 20.2672 15.4942 20.1919 15.5532C20.1165 15.6122 20.0235 15.6442 19.9278 15.6442C19.832 15.6442 19.739 15.6122 19.6637 15.5532C19.5883 15.4942 19.5348 15.4116 19.5118 15.3187L19.3644 14.7266C19.2984 14.4629 19.162 14.222 18.9698 14.0297C18.7776 13.8374 18.5367 13.7011 18.273 13.6351L17.681 13.4877C17.5881 13.4647 17.5056 13.4112 17.4466 13.3358C17.3876 13.2604 17.3555 13.1674 17.3555 13.0716C17.3555 12.9759 17.3876 12.8829 17.4466 12.8075C17.5056 12.7321 17.5881 12.6786 17.681 12.6556L18.273 12.5082C18.5367 12.4422 18.7776 12.3058 18.9698 12.1136C19.162 11.9213 19.2984 11.6804 19.3644 11.4166L19.5118 10.8246C19.535 10.7318 19.5885 10.6495 19.6639 10.5907C19.7393 10.5319 19.8321 10.4999 19.9278 10.5ZM19.0707 18.2149C19.1607 18.2149 19.2484 18.2432 19.3214 18.2958C19.3944 18.3484 19.449 18.4227 19.4775 18.5081L19.7026 19.1841C19.7883 19.4396 19.9883 19.6407 20.2443 19.7259L20.9203 19.9516C21.0054 19.9802 21.0794 20.0348 21.1318 20.1077C21.1842 20.1806 21.2124 20.2681 21.2124 20.3579C21.2124 20.4477 21.1842 20.5353 21.1318 20.6082C21.0794 20.6811 21.0054 20.7357 20.9203 20.7643L20.2443 20.99C19.9889 21.0757 19.7878 21.2757 19.7026 21.5318L19.4769 22.2078C19.4483 22.2929 19.3938 22.3669 19.3209 22.4194C19.248 22.4718 19.1604 22.5 19.0707 22.5C18.9809 22.5 18.8933 22.4718 18.8205 22.4194C18.7476 22.3669 18.693 22.2929 18.6644 22.2078L18.4387 21.5318C18.3966 21.4056 18.3257 21.291 18.2317 21.197C18.1377 21.103 18.0231 21.0321 17.897 20.99L17.221 20.7643C17.1359 20.7357 17.0619 20.6811 17.0095 20.6082C16.9571 20.5353 16.9289 20.4477 16.9289 20.3579C16.9289 20.2681 16.9571 20.1806 17.0095 20.1077C17.0619 20.0348 17.1359 19.9802 17.221 19.9516L17.897 19.7259C18.1524 19.6402 18.3536 19.4402 18.4387 19.1841L18.6644 18.5081C18.6928 18.4228 18.7473 18.3486 18.8202 18.2959C18.8931 18.2433 18.9807 18.215 19.0707 18.2149Z" fill="#5DA5FD"/>
<g opacity="0.5" filter="url(#filter0_f_31685_14668)">
<path fill-rule="evenodd" clip-rule="evenodd" d="M14.7852 12.2144C14.8783 12.2144 14.9689 12.2448 15.0432 12.3009C15.1175 12.357 15.1716 12.4358 15.1972 12.5253L15.6617 14.1517C15.7617 14.502 15.9494 14.821 16.2069 15.0786C16.4645 15.3361 16.7834 15.5238 17.1336 15.6238L18.7598 16.0885C18.8493 16.1141 18.928 16.1682 18.984 16.2425C19.04 16.3168 19.0703 16.4074 19.0703 16.5005C19.0703 16.5936 19.04 16.6841 18.984 16.7585C18.928 16.8328 18.8493 16.8869 18.7598 16.9125L17.1336 17.3771C16.7834 17.4772 16.4645 17.6648 16.2069 17.9224C15.9494 18.18 15.7617 18.499 15.6617 18.8492L15.1972 20.4757C15.1715 20.5652 15.1175 20.6439 15.0431 20.6999C14.9688 20.7559 14.8783 20.7862 14.7852 20.7862C14.6921 20.7862 14.6015 20.7559 14.5272 20.6999C14.4529 20.6439 14.3988 20.5652 14.3732 20.4757L13.9086 18.8492C13.8086 18.499 13.621 18.18 13.3634 17.9224C13.1059 17.6648 12.7869 17.4772 12.4367 17.3771L10.8105 16.9125C10.7211 16.8869 10.6424 16.8328 10.5863 16.7585C10.5303 16.6841 10.5 16.5936 10.5 16.5005C10.5 16.4074 10.5303 16.3168 10.5863 16.2425C10.6424 16.1682 10.7211 16.1141 10.8105 16.0885L12.4367 15.6238C12.7869 15.5238 13.1059 15.3361 13.3634 15.0786C13.621 14.821 13.8086 14.502 13.9086 14.1517L14.3732 12.5253C14.3988 12.4358 14.4528 12.357 14.5271 12.3009C14.6015 12.2448 14.6921 12.2144 14.7852 12.2144ZM19.9278 10.5C20.0234 10.4999 20.1162 10.5319 20.1916 10.5907C20.267 10.6495 20.3205 10.7318 20.3437 10.8246L20.4911 11.4166C20.626 11.9538 21.0454 12.3733 21.5825 12.5082L22.1745 12.6556C22.2674 12.6786 22.35 12.7321 22.409 12.8075C22.4679 12.8829 22.5 12.9759 22.5 13.0716C22.5 13.1674 22.4679 13.2604 22.409 13.3358C22.35 13.4112 22.2674 13.4647 22.1745 13.4877L21.5825 13.6351C21.0454 13.77 20.626 14.1894 20.4911 14.7266L20.3437 15.3187C20.3207 15.4116 20.2672 15.4942 20.1919 15.5532C20.1165 15.6122 20.0235 15.6442 19.9278 15.6442C19.832 15.6442 19.739 15.6122 19.6637 15.5532C19.5883 15.4942 19.5348 15.4116 19.5118 15.3187L19.3644 14.7266C19.2984 14.4629 19.162 14.222 18.9698 14.0297C18.7776 13.8374 18.5367 13.7011 18.273 13.6351L17.681 13.4877C17.5881 13.4647 17.5056 13.4112 17.4466 13.3358C17.3876 13.2604 17.3555 13.1674 17.3555 13.0716C17.3555 12.9759 17.3876 12.8829 17.4466 12.8075C17.5056 12.7321 17.5881 12.6786 17.681 12.6556L18.273 12.5082C18.5367 12.4422 18.7776 12.3058 18.9698 12.1136C19.162 11.9213 19.2984 11.6804 19.3644 11.4166L19.5118 10.8246C19.535 10.7318 19.5885 10.6495 19.6639 10.5907C19.7393 10.5319 19.8321 10.4999 19.9278 10.5ZM19.0707 18.2149C19.1607 18.2149 19.2484 18.2432 19.3214 18.2958C19.3944 18.3484 19.449 18.4227 19.4775 18.5081L19.7026 19.1841C19.7883 19.4396 19.9883 19.6407 20.2443 19.7259L20.9203 19.9516C21.0054 19.9802 21.0794 20.0348 21.1318 20.1077C21.1842 20.1806 21.2124 20.2681 21.2124 20.3579C21.2124 20.4477 21.1842 20.5353 21.1318 20.6082C21.0794 20.6811 21.0054 20.7357 20.9203 20.7643L20.2443 20.99C19.9889 21.0757 19.7878 21.2757 19.7026 21.5318L19.4769 22.2078C19.4483 22.2929 19.3938 22.3669 19.3209 22.4194C19.248 22.4718 19.1604 22.5 19.0707 22.5C18.9809 22.5 18.8933 22.4718 18.8205 22.4194C18.7476 22.3669 18.693 22.2929 18.6644 22.2078L18.4387 21.5318C18.3966 21.4056 18.3257 21.291 18.2317 21.197C18.1377 21.103 18.0231 21.0321 17.897 20.99L17.221 20.7643C17.1359 20.7357 17.0619 20.6811 17.0095 20.6082C16.9571 20.5353 16.9289 20.4477 16.9289 20.3579C16.9289 20.2681 16.9571 20.1806 17.0095 20.1077C17.0619 20.0348 17.1359 19.9802 17.221 19.9516L17.897 19.7259C18.1524 19.6402 18.3536 19.4402 18.4387 19.1841L18.6644 18.5081C18.6928 18.4228 18.7473 18.3486 18.8202 18.2959C18.8931 18.2433 18.9807 18.215 19.0707 18.2149Z" fill="#3781FA"/>
</g>
<defs>
<filter id="filter0_f_31685_14668" x="1.6" y="1.6" width="29.8" height="29.8" filterUnits="userSpaceOnUse" color-interpolation-filters="sRGB">
<feFlood flood-opacity="0" result="BackgroundImageFix"/>
<feBlend mode="normal" in="SourceGraphic" in2="BackgroundImageFix" result="shape"/>
<feGaussianBlur stdDeviation="4.45" result="effect1_foregroundBlur_31685_14668"/>
</filter>
<linearGradient id="paint0_linear_31685_14668" x1="2.72559" y1="4.32304" x2="36.451" y2="11.4987" gradientUnits="userSpaceOnUse">
<stop stop-color="#194CDC"/>
<stop offset="1" stop-color="#91C5FF"/>
</linearGradient>
<linearGradient id="paint1_linear_31685_14668" x1="5.5" y1="4.125" x2="31.625" y2="31.625" gradientUnits="userSpaceOnUse">
<stop stop-color="#194CDC"/>
<stop offset="0.936217" stop-color="#91C5FF"/>
</linearGradient>
</defs>
</svg>
