<svg width="13" height="11" viewBox="0 0 13 11" fill="none" xmlns="http://www.w3.org/2000/svg">
<path fill-rule="evenodd" clip-rule="evenodd" d="M5.62663 11H8.29328C10.1659 11 11.1022 11 11.7748 10.5506C12.066 10.356 12.316 10.106 12.5106 9.81487C12.96 9.14228 12.96 8.20594 12.96 6.33331C12.96 4.46074 12.96 3.52441 12.5106 2.85181C12.316 2.56064 12.066 2.31064 11.7748 2.11608C11.3426 1.8273 10.8016 1.72408 9.97316 1.68719C9.57782 1.68719 9.2375 1.38764 9.15998 0.999998C9.04364 0.418544 8.5331 0 7.94018 0H5.97974C5.38679 0 4.87625 0.418544 4.75996 0.999998C4.68243 1.38764 4.34207 1.68719 3.94676 1.68719C3.11836 1.72408 2.57729 1.8273 2.14511 2.11608C1.85393 2.31064 1.60393 2.56064 1.40937 2.85181C0.959961 3.52441 0.959961 4.46074 0.959961 6.33331C0.959961 8.20594 0.959961 9.14228 1.40937 9.81487C1.60393 10.106 1.85393 10.356 2.14511 10.5506C2.81771 11 3.75401 11 5.62663 11ZM6.95996 3.83333C5.57925 3.83333 4.45996 4.95263 4.45996 6.33331C4.45996 7.71406 5.57925 8.83331 6.95996 8.83331C8.34068 8.83331 9.45998 7.71406 9.45998 6.33331C9.45998 4.95263 8.34068 3.83333 6.95996 3.83333ZM6.95996 4.83334C6.13154 4.83334 5.45996 5.50489 5.45996 6.33331C5.45996 7.16173 6.13154 7.83334 6.95996 7.83334C7.78838 7.83334 8.45996 7.16173 8.45996 6.33331C8.45996 5.50489 7.78838 4.83334 6.95996 4.83334ZM9.79328 4.33333C9.79328 4.05719 10.0171 3.83333 10.2933 3.83333H10.96C11.2361 3.83333 11.46 4.05719 11.46 4.33333C11.46 4.60949 11.2361 4.83334 10.96 4.83334H10.2933C10.0171 4.83334 9.79328 4.60949 9.79328 4.33333Z" fill="#EEEEEE"/>
</svg>