<svg width="34" height="27" viewBox="0 0 34 27" fill="none" xmlns="http://www.w3.org/2000/svg">
<path d="M31.4527 4.11281L30.7965 4.49169L29.2809 1.86671C28.4451 0.419027 26.5881 -0.0785621 25.1404 0.757257C24.66 1.0346 24.2954 1.43061 24.0386 1.8799L23.8279 1.51503C22.9921 0.0673458 21.1351 -0.430244 19.6874 0.405575C18.2397 1.24139 17.7421 3.09842 18.5779 4.5461L21.609 9.79607L11.1091 15.8582L8.07799 10.6082C7.24217 9.16057 5.38514 8.66298 3.93746 9.4988C2.48978 10.3346 1.99219 12.1916 2.82801 13.6393L3.03867 14.0042C2.52115 14.002 1.99589 14.1197 1.51552 14.3971C0.0678384 15.2329 -0.42975 17.0899 0.406069 18.5376L1.92161 21.1626L1.26536 21.5415C0.90311 21.7506 0.778852 22.2144 0.987996 22.5766C1.19714 22.9389 1.66088 23.0631 2.02313 22.854L2.67937 22.4751L4.19491 25.1001C5.03073 26.5478 6.88776 27.0454 8.33544 26.2095C8.81581 25.9322 9.18042 25.5362 9.43727 25.0869L9.64793 25.4518C10.4837 26.8994 12.3408 27.397 13.7885 26.5612C15.2361 25.7254 15.7337 23.8684 14.8979 22.4207L11.8668 17.1707L22.3668 11.1086L25.3979 16.3585C26.2337 17.8062 28.0907 18.3038 29.5384 17.468C30.9861 16.6322 31.4836 14.7752 30.6478 13.3275L30.4372 12.9626C30.9547 12.9648 31.48 12.847 31.9603 12.5697C33.408 11.7339 33.9056 9.87686 33.0698 8.42918L31.5542 5.80419L32.2105 5.42531C32.5727 5.21616 32.697 4.75242 32.4878 4.39017C32.2787 4.02792 31.815 3.90367 31.4527 4.11281ZM7.57767 24.897C6.85448 25.3146 5.9257 25.0668 5.50741 24.3423L1.71856 17.7798C1.30027 17.0554 1.5501 16.1271 2.27329 15.7096C2.99647 15.2921 3.92526 15.5398 4.34355 16.2643L8.13239 22.8268C8.55068 23.5513 8.30085 24.4795 7.57767 24.897ZM13.5854 23.1785C14.0037 23.903 13.7539 24.8312 13.0307 25.2487C12.3075 25.6663 11.3787 25.4185 10.9604 24.694L4.14051 12.8816C3.72222 12.1571 3.97205 11.2288 4.69523 10.8113C5.41842 10.3938 6.3472 10.6415 6.76549 11.366L13.5854 23.1785ZM29.3353 14.0852C29.7536 14.8097 29.5038 15.738 28.7806 16.1555C28.0574 16.573 27.1286 16.3253 26.7103 15.6008L19.8904 3.78833C19.4721 3.06384 19.722 2.1356 20.4452 1.71807C21.1683 1.30054 22.0971 1.5483 22.5154 2.2728L29.3353 14.0852ZM31.7573 9.18695C32.1756 9.91144 31.9257 10.8397 31.2026 11.2572C30.4794 11.6747 29.5506 11.427 29.1323 10.7025L25.3435 4.14001C24.9252 3.41552 25.175 2.48728 25.8982 2.06975C26.6214 1.65222 27.5502 1.89998 27.9684 2.62448L31.7573 9.18695Z" fill="white"/>
</svg>
