<svg width="22" height="22" viewBox="0 0 22 22" fill="none" xmlns="http://www.w3.org/2000/svg">
<path d="M20.1666 17.4167C20.1666 17.9029 19.9734 18.3692 19.6296 18.713C19.2858 19.0568 18.8195 19.25 18.3333 19.25H3.66659C3.18035 19.25 2.71404 19.0568 2.37022 18.713C2.02641 18.3692 1.83325 17.9029 1.83325 17.4167V4.58333C1.83325 4.0971 2.02641 3.63079 2.37022 3.28697C2.71404 2.94315 3.18035 2.75 3.66659 2.75H8.24992L10.0833 5.5H18.3333C18.8195 5.5 19.2858 5.69315 19.6296 6.03697C19.9734 6.38079 20.1666 6.8471 20.1666 7.33333V17.4167Z" fill="#F9FAFB" stroke="#F9FAFB" stroke-width="2" stroke-linecap="round" stroke-linejoin="round"/>
<path d="M11 8.40039C11.3314 8.40039 11.5996 8.66863 11.5996 9V11.9004H14.5C14.8314 11.9004 15.0996 12.1686 15.0996 12.5C15.0996 12.8314 14.8314 13.0996 14.5 13.0996H11.5996V16C11.5996 16.3314 11.3314 16.5996 11 16.5996C10.6686 16.5996 10.4004 16.3314 10.4004 16V13.0996H7.5C7.16863 13.0996 6.90039 12.8314 6.90039 12.5C6.90039 12.1686 7.16863 11.9004 7.5 11.9004H10.4004V9C10.4004 8.66863 10.6686 8.40039 11 8.40039Z" fill="#121212" stroke="#121212" stroke-width="0.2"/>
</svg>
