<svg width="21" height="19" viewBox="0 0 21 19" fill="none" xmlns="http://www.w3.org/2000/svg">
<g id="Group 133">
<path id="Vector" d="M10.7117 3.60254L18.4752 11.1347C18.5038 11.1624 18.5323 11.1883 18.5618 11.2141V16.9359C18.5618 17.8914 17.7625 18.6669 16.7777 18.6669H13.5663C13.377 18.6669 13.1955 18.5939 13.0617 18.4641C12.9279 18.3343 12.8527 18.1581 12.8527 17.9745V13.8202C12.8527 13.6366 12.7775 13.4605 12.6437 13.3306C12.5098 13.2008 12.3283 13.1278 12.139 13.1278H9.28446C9.09519 13.1278 8.91367 13.2008 8.77984 13.3306C8.64601 13.4605 8.57082 13.6366 8.57082 13.8202V17.9745C8.57082 18.1581 8.49563 18.3343 8.3618 18.4641C8.22796 18.5939 8.04645 18.6669 7.85718 18.6669H4.64579C4.17261 18.6669 3.71882 18.4845 3.38423 18.1599C3.04965 17.8353 2.86168 17.395 2.86168 16.9359V11.2141C2.89128 11.1884 2.92016 11.1619 2.94827 11.1347L10.7117 3.60254Z" fill="#6D6D6D"/>
<path id="Vector_2" d="M9.99593 1.92089C10.1297 1.79123 10.3111 1.7184 10.5002 1.7184C10.6893 1.7184 10.8707 1.79123 11.0045 1.92089L19.2733 9.94327C19.3391 10.0094 19.4179 10.0621 19.505 10.0983C19.5921 10.1346 19.6857 10.1536 19.7805 10.1544C19.8752 10.1551 19.9692 10.1376 20.0569 10.1027C20.1446 10.0679 20.2242 10.0164 20.2912 9.95138C20.3582 9.88634 20.4111 9.80901 20.447 9.72391C20.4828 9.6388 20.5008 9.54762 20.5 9.45569C20.4991 9.36375 20.4794 9.27291 20.4419 9.18845C20.4045 9.104 20.3501 9.02762 20.2819 8.96378L12.0141 0.941398C11.8153 0.748514 11.5793 0.595511 11.3195 0.491123C11.0598 0.386736 10.7814 0.333008 10.5002 0.333008C10.2191 0.333008 9.94068 0.386736 9.68093 0.491123C9.42118 0.595511 9.18516 0.748514 8.98636 0.941398L0.717621 8.96378C0.649493 9.02768 0.595164 9.10411 0.557804 9.1886C0.520445 9.27309 0.500803 9.36395 0.500024 9.45588C0.499246 9.54782 0.517346 9.63898 0.55327 9.72406C0.589194 9.80913 0.642222 9.88641 0.709259 9.95139C0.776296 10.0164 0.856 10.0677 0.943721 10.1025C1.03144 10.1373 1.12542 10.1548 1.22018 10.1539C1.31493 10.1531 1.40857 10.1339 1.49562 10.0976C1.58267 10.0613 1.66139 10.0085 1.72719 9.94235L9.99593 1.92089Z" fill="#6D6D6D"/>
</g>
</svg>
