<svg width="14" height="18" viewBox="0 0 14 18" fill="none" xmlns="http://www.w3.org/2000/svg">
<path fill-rule="evenodd" clip-rule="evenodd" d="M1.6875 0.25H4.5C5.3288 0.25 6.12366 0.57924 6.70971 1.16529C7.29576 1.75134 7.625 2.5462 7.625 3.375V4.9375C7.625 5.80083 8.325 6.5 9.1875 6.5H10.75C11.5788 6.5 12.3737 6.82924 12.9597 7.41529C13.5458 8.00134 13.875 8.7962 13.875 9.625V16.1875C13.875 17.05 13.175 17.75 12.3125 17.75H1.6875C1.2731 17.75 0.875671 17.5854 0.582646 17.2924C0.28962 16.9993 0.125 16.6019 0.125 16.1875V1.8125C0.125 0.949167 0.825 0.25 1.6875 0.25ZM7.625 9C7.625 8.83424 7.55915 8.67527 7.44194 8.55806C7.32473 8.44085 7.16576 8.375 7 8.375C6.83424 8.375 6.67527 8.44085 6.55806 8.55806C6.44085 8.67527 6.375 8.83424 6.375 9V10.875H4.5C4.33424 10.875 4.17527 10.9408 4.05806 11.0581C3.94085 11.1753 3.875 11.3342 3.875 11.5C3.875 11.6658 3.94085 11.8247 4.05806 11.9419C4.17527 12.0592 4.33424 12.125 4.5 12.125H6.375V14C6.375 14.1658 6.44085 14.3247 6.55806 14.4419C6.67527 14.5592 6.83424 14.625 7 14.625C7.16576 14.625 7.32473 14.5592 7.44194 14.4419C7.55915 14.3247 7.625 14.1658 7.625 14V12.125H9.5C9.66576 12.125 9.82473 12.0592 9.94194 11.9419C10.0592 11.8247 10.125 11.6658 10.125 11.5C10.125 11.3342 10.0592 11.1753 9.94194 11.0581C9.82473 10.9408 9.66576 10.875 9.5 10.875H7.625V9Z" fill="white" fill-opacity="0.9"/>
<path d="M8.87498 3.375C8.87644 2.32379 8.49791 1.30747 7.80914 0.513336C9.20355 0.879973 10.4756 1.6104 11.4951 2.62991C12.5146 3.64942 13.245 4.92143 13.6116 6.31584C12.8175 5.62707 11.8012 5.24854 10.75 5.25H9.18748C9.1046 5.25 9.02511 5.21708 8.96651 5.15847C8.9079 5.09987 8.87498 5.02038 8.87498 4.9375V3.375Z" fill="white" fill-opacity="0.9"/>
</svg>
