<svg width="65" height="52" viewBox="0 0 65 52" fill="none" xmlns="http://www.w3.org/2000/svg">
<path d="M60.6052 8.65042L59.3609 9.36884L56.4872 4.39147C54.9023 1.64645 51.3811 0.702947 48.6361 2.28779C47.7253 2.81367 47.0339 3.56456 46.5469 4.41649L46.1474 3.72463C44.5626 0.979609 41.0414 0.0361034 38.2964 1.62094C35.5513 3.20578 34.6078 6.72698 36.1927 9.47201L41.94 19.4267L22.0306 30.9215L16.2832 20.9668C14.6983 18.2217 11.1771 17.2782 8.43212 18.8631C5.6871 20.4479 4.7436 23.9691 6.32843 26.7141L6.72788 27.406C5.74658 27.4018 4.75061 27.6251 3.83975 28.151C1.09473 29.7358 0.151224 33.257 1.73606 36.002L4.60975 40.9794L3.36541 41.6978C2.67853 42.0944 2.44292 42.9737 2.83949 43.6606C3.23605 44.3475 4.11537 44.5831 4.80225 44.1865L6.04659 43.4681L8.92028 48.4455C10.5051 51.1905 14.0263 52.134 16.7713 50.5491C17.6822 50.0233 18.3736 49.2724 18.8606 48.4205L19.26 49.1123C20.8449 51.8573 24.3661 52.8008 27.1111 51.216C29.8561 49.6312 30.7996 46.11 29.2148 43.3649L23.4674 33.4102L43.3769 21.9154L49.1243 31.8702C50.7091 34.6152 54.2303 35.5587 56.9753 33.9739C59.7204 32.389 60.6639 28.8678 59.079 26.1228L58.6796 25.431C59.6609 25.4351 60.6568 25.2118 61.5677 24.686C64.3127 23.1011 65.2562 19.5799 63.6714 16.8349L60.7977 11.8575L62.042 11.1391C62.7289 10.7425 62.9645 9.86322 62.568 9.17634C62.1714 8.48946 61.2921 8.25385 60.6052 8.65042ZM15.3345 48.0605C13.9632 48.8522 12.2021 48.3824 11.409 47.0086L4.22475 34.5652C3.43161 33.1914 3.90532 31.4314 5.27659 30.6397C6.64786 29.848 8.40899 30.3177 9.20212 31.6915L16.3863 44.1349C17.1795 45.5087 16.7058 47.2688 15.3345 48.0605ZM26.7261 44.8018C27.5192 46.1755 27.0455 47.9356 25.6742 48.7273C24.303 49.519 22.5419 49.0492 21.7487 47.6755L8.81712 25.2773C8.02398 23.9035 8.4977 22.1435 9.86896 21.3518C11.2402 20.5601 13.0014 21.0298 13.7945 22.4036L26.7261 44.8018ZM56.5903 27.5597C57.3835 28.9334 56.9098 30.6935 55.5385 31.4852C54.1672 32.2769 52.4061 31.8071 51.613 30.4333L38.6814 8.03516C37.8882 6.66141 38.3619 4.90133 39.7332 4.10963C41.1045 3.31793 42.8656 3.78772 43.6587 5.16147L56.5903 27.5597ZM61.1827 18.2717C61.9758 19.6455 61.5021 21.4056 60.1309 22.1973C58.7596 22.989 56.9985 22.5192 56.2053 21.1454L49.0211 8.702C48.228 7.32825 48.7017 5.56817 50.073 4.77647C51.4442 3.98477 53.2053 4.45456 53.9985 5.82832L61.1827 18.2717Z" fill="white"/>
</svg>
