<svg width="40" height="40" viewBox="0 0 40 40" fill="none" xmlns="http://www.w3.org/2000/svg">
<path d="M8.33333 31.6667H10.7083L27 15.375L24.625 13L8.33333 29.2917V31.6667ZM5 35V27.9167L27 5.95833C27.3333 5.65278 27.7017 5.41667 28.105 5.25C28.5083 5.08333 28.9317 5 29.375 5C29.8183 5 30.2489 5.08333 30.6667 5.25C31.0844 5.41667 31.4456 5.66667 31.75 6L34.0417 8.33333C34.375 8.63889 34.6183 9 34.7717 9.41667C34.925 9.83333 35.0011 10.25 35 10.6667C35 11.1111 34.9239 11.535 34.7717 11.9383C34.6194 12.3417 34.3761 12.7094 34.0417 13.0417L12.0833 35H5ZM25.7917 14.2083L24.625 13L27 15.375L25.7917 14.2083Z" fill="#D9D9D9"/>
</svg>
