<svg width="22" height="22" viewBox="0 0 22 22" fill="none" xmlns="http://www.w3.org/2000/svg">
<path fill-rule="evenodd" clip-rule="evenodd" d="M8.00001 3.5C8.16297 3.50003 8.32149 3.55315 8.45158 3.6513C8.58167 3.74945 8.67625 3.8873 8.72101 4.044L9.53401 6.89C9.70906 7.50292 10.0375 8.0611 10.4882 8.51183C10.9389 8.96255 11.4971 9.29095 12.11 9.466L14.956 10.279C15.1126 10.3239 15.2503 10.4185 15.3484 10.5486C15.4464 10.6786 15.4995 10.8371 15.4995 11C15.4995 11.1629 15.4464 11.3214 15.3484 11.4514C15.2503 11.5815 15.1126 11.6761 14.956 11.721L12.11 12.534C11.4971 12.709 10.9389 13.0374 10.4882 13.4882C10.0375 13.9389 9.70906 14.4971 9.53401 15.11L8.72101 17.956C8.67615 18.1126 8.58153 18.2503 8.45145 18.3484C8.32137 18.4464 8.1629 18.4995 8.00001 18.4995C7.83711 18.4995 7.67865 18.4464 7.54857 18.3484C7.41849 18.2503 7.32387 18.1126 7.27901 17.956L6.46601 15.11C6.29096 14.4971 5.96256 13.9389 5.51184 13.4882C5.06111 13.0374 4.50293 12.709 3.89001 12.534L1.04401 11.721C0.887414 11.6761 0.74968 11.5815 0.651631 11.4514C0.553583 11.3214 0.500549 11.1629 0.500549 11C0.500549 10.8371 0.553583 10.6786 0.651631 10.5486C0.74968 10.4185 0.887414 10.3239 1.04401 10.279L3.89001 9.466C4.50293 9.29095 5.06111 8.96255 5.51184 8.51183C5.96256 8.0611 6.29096 7.50292 6.46601 6.89L7.27901 4.044C7.32377 3.8873 7.41835 3.74945 7.54844 3.6513C7.67853 3.55315 7.83705 3.50003 8.00001 3.5ZM17 0.5C17.1673 0.499907 17.3299 0.555764 17.4618 0.658686C17.5937 0.761609 17.6874 0.905686 17.728 1.068L17.986 2.104C18.222 3.044 18.956 3.778 19.896 4.014L20.932 4.272C21.0946 4.31228 21.2391 4.40586 21.3423 4.5378C21.4456 4.66974 21.5017 4.83246 21.5017 5C21.5017 5.16754 21.4456 5.33026 21.3423 5.4622C21.2391 5.59414 21.0946 5.68772 20.932 5.728L19.896 5.986C18.956 6.222 18.222 6.956 17.986 7.896L17.728 8.932C17.6877 9.09463 17.5942 9.23908 17.4622 9.34233C17.3303 9.44558 17.1675 9.50168 17 9.50168C16.8325 9.50168 16.6698 9.44558 16.5378 9.34233C16.4059 9.23908 16.3123 9.09463 16.272 8.932L16.014 7.896C15.8986 7.43443 15.66 7.0129 15.3235 6.67648C14.9871 6.34005 14.5656 6.10139 14.104 5.986L13.068 5.728C12.9054 5.68772 12.7609 5.59414 12.6577 5.4622C12.5544 5.33026 12.4983 5.16754 12.4983 5C12.4983 4.83246 12.5544 4.66974 12.6577 4.5378C12.7609 4.40586 12.9054 4.31228 13.068 4.272L14.104 4.014C14.5656 3.89861 14.9871 3.65995 15.3235 3.32352C15.66 2.9871 15.8986 2.56557 16.014 2.104L16.272 1.068C16.3126 0.905686 16.4063 0.761609 16.5382 0.658686C16.6702 0.555764 16.8327 0.499907 17 0.5ZM15.5 14C15.6575 13.9999 15.8111 14.0494 15.9389 14.1415C16.0667 14.2336 16.1622 14.3636 16.212 14.513L16.606 15.696C16.756 16.143 17.106 16.495 17.554 16.644L18.737 17.039C18.886 17.089 19.0155 17.1845 19.1072 17.3121C19.199 17.4397 19.2483 17.5929 19.2483 17.75C19.2483 17.9071 19.199 18.0603 19.1072 18.1879C19.0155 18.3155 18.886 18.411 18.737 18.461L17.554 18.856C17.107 19.006 16.755 19.356 16.606 19.804L16.211 20.987C16.161 21.136 16.0655 21.2655 15.9379 21.3572C15.8103 21.4489 15.6571 21.4983 15.5 21.4983C15.3429 21.4983 15.1897 21.4489 15.0621 21.3572C14.9346 21.2655 14.839 21.136 14.789 20.987L14.394 19.804C14.3203 19.5833 14.1963 19.3827 14.0318 19.2182C13.8673 19.0537 13.6667 18.9297 13.446 18.856L12.263 18.461C12.114 18.411 11.9845 18.3155 11.8928 18.1879C11.8011 18.0603 11.7517 17.9071 11.7517 17.75C11.7517 17.5929 11.8011 17.4397 11.8928 17.3121C11.9845 17.1845 12.114 17.089 12.263 17.039L13.446 16.644C13.893 16.494 14.245 16.144 14.394 15.696L14.789 14.513C14.8387 14.3637 14.9341 14.2339 15.0617 14.1418C15.1893 14.0497 15.3427 14.0001 15.5 14Z" fill="#3939FF"/>
</svg>
