<svg width="23" height="26" viewBox="0 0 23 26" fill="none" xmlns="http://www.w3.org/2000/svg">
<path fill-rule="evenodd" clip-rule="evenodd" d="M11.4453 0L0 6.45309V19.4343L11.4453 25.8874L22.8906 19.4343V6.45309L11.4453 0ZM11.4461 2.18945L1.55273 7.58308V18.4331L11.4461 23.8267L21.3395 18.4331V7.58308L11.4461 2.18945Z" fill="currentColor"/>
<path d="M11.0065 8.85192C11.1906 8.49467 11.7014 8.49467 11.8855 8.85192L13.0555 11.1217C13.1026 11.2131 13.177 11.2875 13.2684 11.3347L15.5381 12.5046C15.8955 12.6887 15.8955 13.1995 15.5381 13.3837L13.2684 14.5535C13.177 14.6006 13.1026 14.6751 13.0555 14.7666L11.8855 17.0363C11.7014 17.3935 11.1906 17.3935 11.0065 17.0363L9.83661 14.7666C9.78949 14.6751 9.71505 14.6006 9.62361 14.5535L7.35388 13.3837C6.99662 13.1995 6.99662 12.6887 7.35388 12.5046L9.62361 11.3347C9.71505 11.2875 9.78949 11.2131 9.83661 11.1217L11.0065 8.85192Z" fill="currentColor"/>
</svg>
