<svg width="21" height="21" viewBox="0 0 21 21" fill="none" xmlns="http://www.w3.org/2000/svg">
<g id="dumbell-svgrepo-com 1">
<path id="Vector" d="M9.2234 17.4774C8.72143 17.4769 8.24776 17.2795 7.90417 16.9279L3.9075 12.7647C3.73802 12.5898 3.60633 12.3816 3.52002 12.1522C3.43371 11.9228 3.3945 11.6768 3.40465 11.4283C3.41479 11.1799 3.4741 10.9338 3.57914 10.7044C3.68418 10.475 3.83287 10.2669 4.01664 10.0919L4.21647 9.8921C4.58811 9.53923 5.07828 9.34131 5.58063 9.34131C6.08297 9.34131 6.55698 9.53923 6.8998 9.8921L10.8965 14.0553C11.0659 14.2302 11.1977 14.4384 11.284 14.6678C11.3703 14.8972 11.4095 15.1432 11.3993 15.3917C11.3892 15.6401 11.3299 15.8862 11.2248 16.1156C11.1198 16.345 10.9711 16.5531 10.7873 16.7281L10.5875 16.9279C10.2152 17.2795 9.72543 17.4769 9.2234 17.4774ZM5.53791 10.5915C5.4545 10.5905 5.37105 10.6062 5.29248 10.6376C5.21391 10.6691 5.14181 10.7157 5.08043 10.7747L4.87227 10.9745C4.81012 11.0341 4.75986 11.1048 4.72435 11.1827C4.68885 11.2605 4.6688 11.344 4.66536 11.4283C4.66192 11.5126 4.67515 11.5961 4.70429 11.6739C4.73344 11.7518 4.77792 11.8226 4.83521 11.8821L8.83188 16.0453C8.94869 16.1663 9.11075 16.2342 9.2825 16.2342C9.45425 16.2342 9.62177 16.1663 9.74855 16.0453L9.94837 15.8455C10.012 15.786 10.0635 15.7147 10.0996 15.6361C10.1357 15.5574 10.1558 15.4728 10.1587 15.3875C10.1626 15.3035 10.1492 15.2202 10.1194 15.1429C10.0896 15.0655 10.044 14.9958 9.98543 14.9379L5.98876 10.7747C5.93068 10.7154 5.86093 10.6687 5.78354 10.6373C5.70616 10.6058 5.62268 10.5903 5.53791 10.5915Z" fill="#7B7B7B"/>
<path id="Vector_2" d="M15.3867 11.6408C14.8839 11.6372 14.4105 11.4369 14.0679 11.083L10.0712 6.91976C9.73055 6.56389 9.55073 6.08181 9.57126 5.57921C9.59178 5.07662 9.81096 4.59453 10.1807 4.23866L10.3888 4.03883C10.759 3.68646 11.2478 3.48877 11.7488 3.48877C12.2498 3.48877 12.7224 3.68646 13.0638 4.03883L17.0605 8.20203C17.3986 8.55755 17.5769 9.03783 17.5564 9.53841C17.536 10.039 17.3185 10.5193 16.9514 10.8748L16.7432 11.0746C16.375 11.4297 15.8883 11.6327 15.3867 11.6408ZM11.7016 4.74657C11.6175 4.74564 11.5333 4.76218 11.4545 4.79515C11.3757 4.82811 11.3039 4.87678 11.2438 4.93808L11.0359 5.12959C10.9099 5.25128 10.8352 5.41592 10.8282 5.58754C10.8212 5.75916 10.8824 5.9238 10.9986 6.04549L14.9952 10.2087C15.112 10.3297 15.2741 10.3976 15.4458 10.3976C15.6176 10.3976 15.7851 10.3297 15.9119 10.2087L16.1117 10.0089C16.175 9.9509 16.2263 9.88113 16.2624 9.80386C16.2986 9.7265 16.3187 9.64324 16.3217 9.55923C16.3258 9.47396 16.3126 9.38937 16.2829 9.31068C16.2532 9.232 16.2075 9.16073 16.1488 9.10128L12.1521 4.93808C12.0948 4.87732 12.0254 4.82909 11.9481 4.7962C11.8707 4.76332 11.7869 4.74645 11.7016 4.74657Z" fill="#7B7B7B"/>
<path id="Vector_3" d="M16.8525 9.00953C16.3505 9.00894 15.8768 8.81165 15.5333 8.45999L12.8079 5.61236C12.6385 5.43741 12.5067 5.22924 12.4204 4.99988C12.3341 4.7705 12.2949 4.52446 12.3051 4.27597C12.3152 4.02748 12.3745 3.78144 12.4795 3.55207C12.5846 3.3227 12.7333 3.11453 12.917 2.93959L13.1169 2.73975C13.4875 2.38485 13.9782 2.18555 14.4812 2.18555C14.9842 2.18555 15.4585 2.38485 15.8002 2.73975L18.5343 5.57905C18.8729 5.93599 19.0513 6.41768 19.0308 6.9196C19.0103 7.42153 18.7925 7.90322 18.4248 8.26015L18.2166 8.45999C17.8443 8.81165 17.3545 9.00894 16.8525 9.00953ZM14.4303 3.43084C14.2585 3.43329 14.0915 3.5019 13.9642 3.62235L13.7637 3.83884C13.7015 3.89839 13.6512 3.96912 13.6157 4.04699C13.5802 4.12486 13.5601 4.20833 13.5567 4.29262C13.5533 4.37692 13.5665 4.46039 13.5957 4.53826C13.6248 4.61613 13.6693 4.68686 13.7266 4.74641L16.4527 7.57739C16.5696 7.6984 16.7315 7.76633 16.9033 7.76633C17.075 7.76633 17.2426 7.6984 17.3693 7.57739L17.5692 7.37755C17.6326 7.31786 17.6839 7.2466 17.7202 7.16797C17.7565 7.08934 17.777 7.0049 17.7804 6.9196C17.7839 6.83431 17.7704 6.74987 17.7405 6.67123C17.7106 6.5926 17.6651 6.52134 17.6066 6.46165L14.8808 3.62235C14.7645 3.50039 14.6025 3.43153 14.4303 3.43084Z" fill="#7B7B7B"/>
<path id="Vector_4" d="M6.51833 18.8265C6.26531 18.8286 6.0166 18.7794 5.78714 18.6821C5.55767 18.5848 5.35221 18.4413 5.18312 18.2603L2.47406 15.421C2.30436 15.2453 2.17251 15.0365 2.08612 14.8064C1.99973 14.5764 1.9605 14.3296 1.97067 14.0804C1.98085 13.8312 2.04023 13.5845 2.14541 13.3545C2.25058 13.1244 2.39949 12.9156 2.58354 12.7399L2.78336 12.54C3.155 12.1872 3.64517 11.9893 4.14752 11.9893C4.64986 11.9893 5.12386 12.1872 5.4667 12.54L8.19208 15.3877C8.36156 15.5626 8.49326 15.7708 8.57956 16.0002C8.66587 16.2296 8.70508 16.4756 8.69493 16.7241C8.68479 16.9725 8.62549 17.2186 8.52044 17.448C8.4154 17.6774 8.26671 17.8855 8.08295 18.0604L7.88312 18.2603C7.70101 18.439 7.48653 18.581 7.25221 18.6782C7.01789 18.7754 6.76841 18.8258 6.51833 18.8265ZM4.09613 13.2478C4.01146 13.2465 3.9267 13.2621 3.84675 13.2936C3.7668 13.3251 3.69324 13.3717 3.63032 13.431L3.43049 13.6308C3.36708 13.6905 3.31572 13.7618 3.27944 13.8404C3.24316 13.9191 3.22267 14.0035 3.21919 14.0888C3.21571 14.174 3.2293 14.2585 3.25916 14.3371C3.28901 14.4157 3.33455 14.487 3.39309 14.5467L6.11882 17.386C6.17598 17.4457 6.24484 17.493 6.32146 17.5253C6.39806 17.5576 6.48092 17.5743 6.5653 17.5743C6.64966 17.5743 6.73389 17.5576 6.81314 17.5253C6.89239 17.493 6.96511 17.4457 7.02715 17.386L7.23633 17.1612C7.29848 17.1017 7.34874 17.0309 7.38425 16.953C7.41975 16.8752 7.4398 16.7917 7.44324 16.7074C7.44668 16.6231 7.43345 16.5396 7.40431 16.4618C7.37516 16.3839 7.33068 16.3132 7.27339 16.2536L4.54732 13.4226C4.48923 13.3634 4.41948 13.3167 4.3421 13.2853C4.26472 13.2538 4.18124 13.2382 4.09647 13.2395L4.09613 13.2478Z" fill="#7B7B7B"/>
<path id="Vector_5" d="M9.34053 13.9973C9.25813 13.9991 9.17692 13.9838 9.10221 13.9523C9.02741 13.9207 8.96075 13.8737 8.90635 13.8141L7.10649 11.974C7.04986 11.9166 7.00581 11.8479 6.9769 11.7722C6.948 11.6964 6.93484 11.615 6.9382 11.5327C6.94156 11.4504 6.96136 11.369 6.99646 11.2932C7.03155 11.2175 7.08122 11.1488 7.14253 11.0914L11.2277 7.16966C11.2869 7.11009 11.3574 7.06304 11.4348 7.0315C11.5121 6.99995 11.5946 6.98462 11.6768 6.98648C11.7592 6.98462 11.8404 6.99995 11.9151 7.0315C11.9899 7.06304 12.0566 7.11009 12.111 7.16966L13.8928 9.0431C13.9495 9.10047 13.9935 9.16916 14.0224 9.24493C14.0513 9.3207 14.0645 9.40213 14.0611 9.4844C14.0578 9.56666 14.038 9.64809 14.0029 9.72386C13.9678 9.79963 13.9181 9.86833 13.8568 9.9257L9.789 13.8308C9.72844 13.8873 9.6574 13.9313 9.58023 13.9599C9.50305 13.9886 9.42145 14.0013 9.34053 13.9973ZM8.4842 11.4994L9.40343 12.4569L12.5345 9.45109L11.6139 8.52686L8.4842 11.4994Z" fill="#7B7B7B"/>
</g>
</svg>
