<svg width="20" height="21" viewBox="0 0 20 21" fill="none" xmlns="http://www.w3.org/2000/svg">
    <g clip-path="url(#clip0_12151_4723)">
        <g filter="url(#filter0_d_12151_4723)">
            <path d="M1.33286 8.49599C0.954411 5.70729 0.765183 4.31295 1.21208 3.42254C1.60189 2.64587 2.2863 2.07964 3.09533 1.86449C4.02283 1.61783 5.26514 2.14094 7.74978 3.18715L8.24939 3.39752C8.89612 3.66984 9.21949 3.806 9.55335 3.85991C9.84935 3.90771 10.1507 3.90771 10.4467 3.85991C10.7806 3.806 11.1039 3.66984 11.7506 3.39752L12.2502 3.18715C14.7349 2.14094 15.9772 1.61783 16.9047 1.86449C17.7137 2.07964 18.3981 2.64587 18.7879 3.42254C19.2349 4.31295 19.0456 5.7073 18.6672 8.496L18.1323 12.4375C18.0304 13.1884 17.9794 13.5639 17.8509 13.9051C17.737 14.2076 17.5785 14.4894 17.3813 14.74C17.1589 15.0227 16.8707 15.2503 16.2942 15.7054L12.8282 18.4418C11.814 19.2425 11.307 19.6429 10.75 19.7972C10.2584 19.9335 9.74163 19.9335 9.25004 19.7972C8.69311 19.6429 8.186 19.2425 7.1718 18.4418L3.70585 15.7054C3.12939 15.2503 2.84115 15.0227 2.61875 14.74C2.42157 14.4894 2.2631 14.2076 2.14913 13.9051C2.02061 13.5639 1.96966 13.1884 1.86775 12.4375L1.33286 8.49599Z" fill="url(#paint0_linear_12151_4723)"/>
            <path d="M15.4456 2.94998C16.1342 2.73442 16.4632 2.73205 16.6602 2.78444C17.1945 2.92657 17.6643 3.30585 17.9372 3.84935C18.0478 4.06991 18.1225 4.43861 18.0859 5.20166C18.0497 5.95874 17.9149 6.95573 17.7233 8.36758L17.1885 12.3092C17.0807 13.1034 17.0414 13.3526 16.9597 13.5694C16.8797 13.7818 16.7692 13.9778 16.6332 14.1507C16.4967 14.3242 16.3155 14.4753 15.7041 14.958L12.2378 17.6942C11.7201 18.1029 11.3709 18.3782 11.0826 18.5741C10.8039 18.7633 10.6352 18.8404 10.4958 18.8791C10.1706 18.9692 9.82947 18.9692 9.50431 18.8791C9.36492 18.8404 9.19616 18.7633 8.91745 18.5741C8.62915 18.3782 8.27995 18.1029 7.76231 17.6942L4.29598 14.958C3.68461 14.4753 3.50338 14.3242 3.36686 14.1507C3.23093 13.9778 3.12041 13.7818 3.0404 13.5694C2.95873 13.3526 2.91939 13.1034 2.81161 12.3092L2.27682 8.36758C2.08523 6.95573 1.95039 5.95874 1.9141 5.20166C1.87754 4.43861 1.95221 4.06991 2.06291 3.84935C2.33575 3.30585 2.80554 2.92657 3.33988 2.78444C3.53686 2.73205 3.86585 2.73442 4.55454 2.94998C5.23787 3.16391 6.1199 3.53452 7.38006 4.06512L7.8795 4.27532C8.48364 4.52971 8.92925 4.72353 9.40201 4.79988C9.79832 4.86383 10.2018 4.86383 10.598 4.79988C11.0708 4.72353 11.5164 4.52971 12.1206 4.27532L12.62 4.06512C13.8801 3.53452 14.7622 3.16391 15.4456 2.94998Z" stroke="black" stroke-opacity="0.24" stroke-width="2" stroke-linejoin="round"/>
        </g>

        <path d="M9.74547 8.65161C9.86614 8.4175 10.2008 8.4175 10.3215 8.65161L11.0881 10.139C11.119 10.1989 11.1678 10.2476 11.2277 10.2785L12.715 11.0452C12.9492 11.1658 12.9492 11.5005 12.715 11.6212L11.2277 12.3878C11.1678 12.4187 11.119 12.4675 11.0881 12.5274L10.3215 14.0147C10.2008 14.2489 9.86614 14.2489 9.74547 14.0147L8.97882 12.5274C8.94795 12.4675 8.89917 12.4187 8.83925 12.3878L7.35191 11.6212C7.1178 11.5005 7.1178 11.1658 7.35191 11.0452L8.83925 10.2785C8.89917 10.2476 8.94795 10.1989 8.97882 10.139L9.74547 8.65161Z" fill="white"/>

        <path d="M9.38432 8.33186C9.69927 7.88938 10.3677 7.88938 10.6826 8.33186L10.745 8.43325L11.489 9.87669L12.9334 10.6216C13.5115 10.9196 13.5115 11.7467 12.9334 12.0447L11.489 12.7887L10.745 14.2331C10.447 14.8112 9.61994 14.8112 9.32194 14.2331L8.57699 12.7887L7.13354 12.0447C6.5555 11.7467 6.5555 10.9196 7.13354 10.6216L8.57699 9.87669L9.32194 8.43325L9.38432 8.33186Z" stroke="black" stroke-opacity="0.16"/>
        <path d="M14.3636 2.30632C17.0909 1.48814 16.8736 1.97011 17.4545 2.1245C18.1818 2.57905 17.9218 2.16974 18.3116 2.94637C18.5911 3.50336 18.6214 4.25749 18.5124 5.42684L6.2915 17.6469L3.22975 15.2297C2.65345 14.7746 2.36488 14.5468 2.1425 14.2643C2.06121 14.1609 1.98796 14.051 1.92023 13.9378L14.3636 2.30632Z" fill="white" fill-opacity="0.32"/>
    </g>
    <defs>
        <filter id="filter0_d_12151_4723" x="0.904602" y="1.75624" width="18.1909" height="19.1904" filterUnits="userSpaceOnUse" color-interpolation-filters="sRGB">
            <feFlood flood-opacity="0" result="BackgroundImageFix"/>
            <feColorMatrix in="SourceAlpha" type="matrix" values="0 0 0 0 0 0 0 0 0 0 0 0 0 0 0 0 0 0 127 0" result="hardAlpha"/>
            <feOffset dy="1"/>
            <feComposite in2="hardAlpha" operator="out"/>
            <feColorMatrix type="matrix" values="0 0 0 0 0.192157 0 0 0 0 0.180392 0 0 0 0 0.505882 0 0 0 1 0"/>
            <feBlend mode="normal" in2="BackgroundImageFix" result="effect1_dropShadow_12151_4723"/>
            <feBlend mode="normal" in="SourceGraphic" in2="effect1_dropShadow_12151_4723" result="shape"/>
        </filter>
        <linearGradient id="paint0_linear_12151_4723" x1="10.0004" y1="-0.427236" x2="10.0004" y2="22.8267" gradientUnits="userSpaceOnUse">
            <stop stop-color="#C7D2FE"/>
            <stop offset="1" stop-color="#4338CA"/>
        </linearGradient>
        <clipPath id="clip0_12151_4723">
            <rect width="20" height="20" fill="white" transform="translate(0 0.851776)"/>
        </clipPath>
    </defs>
</svg>