<svg width="25" height="25" viewBox="0 0 25 25" fill="none" xmlns="http://www.w3.org/2000/svg">
<path d="M10.3715 0.0637226C10.5382 0.105413 10.8091 0.209639 10.981 0.29302C11.5697 0.59528 13.5389 1.86685 13.6848 2.04924C13.9973 2.42967 14.0286 2.86221 13.7942 3.49279C13.5337 4.18589 13.617 4.15462 12.0229 4.15462H10.6684L10.5434 4.02434C10.4288 3.9149 10.4132 3.85237 10.4132 3.52926C10.4132 3.20616 10.3975 3.14363 10.2829 3.03419C10.2048 2.95081 10.0954 2.9039 9.99638 2.9039C9.8974 2.9039 9.788 2.95081 9.70986 3.03419C9.59525 3.14363 9.57962 3.20616 9.57962 3.53448C9.57962 3.73772 9.60566 4.0035 9.64213 4.12336C9.72548 4.40998 10.1579 4.84252 10.4444 4.92591C10.5903 4.9676 11.1112 4.98844 12.049 4.98844C12.8981 4.98844 13.4816 5.00929 13.5389 5.04055C13.6691 5.11351 13.7421 5.2438 13.7942 5.53563C13.8827 6.02029 13.6796 6.52579 13.2836 6.78635C12.8669 7.06777 11.3665 7.4065 10.2725 7.46904C9.24099 7.53158 8.1053 7.22932 6.68829 6.52579C6.2559 6.31212 5.84434 6.13494 5.77141 6.13494C5.44841 6.13494 5.29212 6.60396 5.53698 6.82804C5.70368 6.98439 6.71434 7.48989 7.33949 7.72961C7.61039 7.83384 7.83961 7.92243 7.84482 7.92764C7.85003 7.93285 7.82398 8.07877 7.78231 8.24553C7.6729 8.73019 7.55829 9.59527 7.52183 10.2258L7.48536 10.7991L7.85003 11.5547C8.18344 12.2426 8.58979 13.1911 8.58979 13.2745C8.58979 13.2953 8.3762 13.436 8.11051 13.5924C7.33428 14.051 6.34967 15.088 6.34967 15.4476C6.34967 15.6092 6.56847 15.828 6.73518 15.828C6.94877 15.828 7.0165 15.7759 7.26135 15.4372C7.96464 14.447 9.28267 13.7331 10.9341 13.4465C11.6478 13.3214 13.3826 13.3214 14.0859 13.4517C14.6538 13.5559 15.3935 13.7748 15.8624 13.9832C16.5344 14.2803 17.2898 14.8535 17.6597 15.3486C17.9566 15.7447 18.0556 15.828 18.238 15.828C18.4255 15.828 18.6443 15.6196 18.6443 15.4476C18.6443 15.1401 17.816 14.2021 17.196 13.8008C17.0502 13.7018 16.9251 13.6028 16.9251 13.5819C16.9251 13.5142 17.7483 12.8159 18.139 12.5553C19.1861 11.8466 20.3791 11.4401 21.843 11.2994C22.1556 11.2681 22.937 11.2421 23.5778 11.2421H24.7447L24.8698 11.3723L25 11.4974V18.121V24.7446L24.8698 24.8697L24.7447 25H21.8742H19.0038L18.8787 24.8697C18.7745 24.7707 18.7485 24.6873 18.7485 24.4945C18.7433 23.176 17.7743 21.894 16.3469 21.3156C16.0708 21.2061 16.0082 21.1957 15.878 21.253C15.6957 21.326 15.6227 21.4407 15.6227 21.6543C15.6227 21.8419 15.7686 21.9774 16.1281 22.1233C16.6907 22.3474 17.3054 22.8633 17.592 23.3532L17.7014 23.5356L17.3002 23.6867C15.8103 24.26 13.9348 24.703 12.1584 24.9062C11.2727 25.0052 9.00656 24.9896 8.27201 24.8801C6.9644 24.6821 5.77662 24.3225 4.63051 23.7701C3.78134 23.3584 3.32811 23.0822 2.57272 22.5246C1.51517 21.7325 0.603493 20.7215 0.207563 19.8929C0.0356483 19.5333 0.0200195 19.4551 0.00439072 18.9392C-0.0216579 18.2878 0.0721149 16.3387 0.181517 15.1245C0.587866 10.5854 1.73918 6.1662 3.48961 2.36192C3.92721 1.41346 4.07829 1.17895 4.4638 0.808945C4.80242 0.48584 5.10458 0.298231 5.54739 0.131468C5.84434 0.0220299 5.92769 0.016819 7.96464 0.00118446C9.64213 -0.00402641 10.137 0.00639725 10.3715 0.0637226Z" fill="url(#paint0_linear_21912_4949)"/>
<defs>
<linearGradient id="paint0_linear_21912_4949" x1="12.5" y1="25" x2="12.5" y2="0" gradientUnits="userSpaceOnUse">
<stop stop-color="#DFBE92"/>
<stop offset="1" stop-color="#BC8F63"/>
</linearGradient>
</defs>
</svg>
