<svg width="24" height="24" viewBox="0 0 24 24" fill="none" xmlns="http://www.w3.org/2000/svg">
<g id="Frame">
<rect width="24" height="24" rx="12" fill="#16A34A"/>
<path id="Vector" d="M8.32829 16.9167C8.02134 16.9167 7.73606 16.7462 7.62412 16.4602C7.37621 15.8292 7.2493 15.1571 7.25001 14.4792C7.25001 13.2153 7.68262 12.0539 8.40701 11.1324C8.51606 10.9937 8.6764 10.9092 8.84034 10.8457C9.18195 10.7135 9.48312 10.4744 9.71567 10.1783C10.2763 9.46307 10.9801 8.87271 11.782 8.445C12.3041 8.16767 12.757 7.75456 12.9758 7.20639C13.1295 6.82235 13.2084 6.41249 13.2083 5.99883V5.54167C13.2083 5.39801 13.2654 5.26023 13.367 5.15865C13.4686 5.05707 13.6063 5 13.75 5C14.181 5 14.5943 5.1712 14.8991 5.47595C15.2038 5.7807 15.375 6.19402 15.375 6.625C15.375 7.457 15.1872 8.24494 14.8528 8.94911C14.6607 9.35211 14.9301 9.875 15.3765 9.875H17.6341C18.3751 9.875 19.0388 10.3762 19.1176 11.1136C19.1501 11.4184 19.1667 11.7275 19.1667 12.0417C19.1697 14.0179 18.4943 15.9353 17.2535 17.4735C16.9733 17.8216 16.5407 18 16.0943 18H13.1939C12.8451 18 12.4977 17.9437 12.1662 17.8339L9.91717 17.0828C9.58575 16.9726 9.23873 16.9165 8.88945 16.9167H8.32829ZM4.60017 11.3028C4.20217 12.3145 3.99856 13.3921 4.00001 14.4792C3.9991 15.3374 4.12566 16.191 4.37556 17.012C4.56334 17.6259 5.15917 18 5.80123 18H6.45556C6.77695 18 6.97556 17.6403 6.83329 17.3514C6.39283 16.4581 6.16446 15.4752 6.16595 14.4792C6.16595 13.2456 6.50973 12.0922 7.10629 11.1093C7.28323 10.8182 7.08606 10.4167 6.74517 10.4167H5.98612C5.38523 10.4167 4.82117 10.7438 4.60017 11.3028Z" fill="white"/>
</g>
</svg>
